<svg width="317" height="42" viewBox="0 0 317 42" fill="none" xmlns="http://www.w3.org/2000/svg">
<path d="M10.7402 15.9707H6.53906V26.6055C6.53906 27.3906 6.57422 27.9824 6.64453 28.3809C6.72656 28.7793 6.83789 29.084 6.97852 29.2949C7.13086 29.4941 7.32422 29.6582 7.55859 29.7871C7.80469 29.9043 8.19141 30.0215 8.71875 30.1387V31H1.5293V30.1387C2.04492 29.998 2.41406 29.8633 2.63672 29.7344C2.85938 29.6055 3.0293 29.4414 3.14648 29.2422C3.27539 29.043 3.36914 28.7559 3.42773 28.3809C3.48633 28.0059 3.51562 27.4141 3.51562 26.6055V15.9707H1.38867V15.0742C1.83398 15.0039 2.12695 14.9512 2.26758 14.916C2.41992 14.8691 2.56055 14.8047 2.68945 14.7227C2.83008 14.6406 2.94727 14.5234 3.04102 14.3711C3.14648 14.2188 3.23438 13.9961 3.30469 13.7031C3.38672 13.3984 3.45117 12.9766 3.49805 12.4375C3.60352 11.1602 3.83203 10.123 4.18359 9.32617C4.54688 8.5293 5.06836 7.84961 5.74805 7.28711C6.43945 6.72461 7.17188 6.33203 7.94531 6.10938C8.73047 5.875 9.65039 5.75781 10.7051 5.75781C11.6309 5.75781 12.416 5.82227 13.0605 5.95117V9.13281H11.3203C11.0977 8.44141 10.834 7.95508 10.5293 7.67383C10.2363 7.38086 9.82031 7.23438 9.28125 7.23438C8.89453 7.23438 8.56641 7.28711 8.29688 7.39258C8.03906 7.49805 7.79883 7.66211 7.57617 7.88477C7.35352 8.10742 7.16016 8.40625 6.99609 8.78125C6.84375 9.15625 6.72656 9.625 6.64453 10.1875C6.57422 10.7383 6.53906 11.459 6.53906 12.3496V14.1953H10.7402V15.9707ZM19.5645 5.8457C19.7051 6.23242 19.8105 6.6543 19.8809 7.11133C19.9629 7.56836 20.0039 7.98438 20.0039 8.35938C20.0039 9.13281 19.8867 9.81836 19.6523 10.416C19.418 11.0137 19.043 11.623 18.5273 12.2441C18.0234 12.8535 17.25 13.6152 16.207 14.5293L15.1348 13.4746C15.709 12.7832 16.1309 12.0859 16.4004 11.3828C16.6699 10.668 16.8047 9.80078 16.8047 8.78125C16.8047 8.42969 16.7871 8.05469 16.752 7.65625C16.7168 7.25781 16.6289 6.6543 16.4883 5.8457H19.5645ZM28.0723 22.1055C28.0723 26.207 28.7285 29.5879 30.041 32.248C31.3652 34.9082 33.3809 36.6895 36.0879 37.5918L35.666 38.9453C32.2324 38.043 29.6016 36.0977 27.7734 33.1094C25.9453 30.1328 25.0312 26.5234 25.0312 22.2812C25.0312 18.0508 25.9453 14.4414 27.7734 11.4531C29.6133 8.45312 32.2441 6.50195 35.666 5.59961L36.1406 6.95312C33.3984 7.85547 31.3652 9.61914 30.041 12.2441C28.7285 14.8574 28.0723 18.1445 28.0723 22.1055ZM45.9492 20.8574L48.2344 17.957C48.4805 17.6406 48.6797 17.3359 48.832 17.043C48.9844 16.7383 49.0605 16.4277 49.0605 16.1113C49.0605 15.8418 48.9609 15.6191 48.7617 15.4434C48.5625 15.2676 48.252 15.1387 47.8301 15.0566V14.1953H53.5781V15.0566C53.1328 15.1855 52.6758 15.4375 52.207 15.8125C51.75 16.1875 51.1875 16.791 50.5195 17.623L46.8809 22.0879L50.8887 27.4844C51.4629 28.2578 51.9785 28.8496 52.4355 29.2598C52.8926 29.6699 53.3496 29.9629 53.8066 30.1387V31H46.7402V30.1387C47.7129 30.0215 48.1992 29.6582 48.1992 29.0488C48.1992 28.8027 48.1582 28.5684 48.0762 28.3457C47.9941 28.123 47.8418 27.8652 47.6191 27.5723L45.0703 24.0215L42.3633 27.5371C42.1641 27.7949 42.0059 28.0352 41.8887 28.2578C41.7832 28.4688 41.7305 28.709 41.7305 28.9785C41.7305 29.2949 41.8359 29.5586 42.0469 29.7695C42.2695 29.9688 42.6152 30.0918 43.084 30.1387V31H37.2129V30.1387C37.5996 29.998 37.9453 29.8223 38.25 29.6113C38.5664 29.4004 38.8828 29.1309 39.1992 28.8027C39.5273 28.4629 39.9551 27.9707 40.4824 27.3262L44.1387 22.791L40.3945 17.6582C39.8789 16.9551 39.4688 16.4453 39.1641 16.1289C38.8594 15.8125 38.5781 15.5723 38.3203 15.4082C38.0625 15.2441 37.8047 15.127 37.5469 15.0566V14.1953H44.4375V15.0566C43.5117 15.1973 43.0488 15.5605 43.0488 16.1465C43.0488 16.416 43.1074 16.6855 43.2246 16.9551C43.3535 17.2246 43.5469 17.5234 43.8047 17.8516L45.9492 20.8574ZM62.9473 22.1055C62.9473 18.1445 62.291 14.8574 60.9785 12.2441C59.666 9.61914 57.6328 7.85547 54.8789 6.95312L55.3535 5.59961C58.7754 6.50195 61.4004 8.45312 63.2285 11.4531C65.0684 14.4414 65.9883 18.0508 65.9883 22.2812C65.9883 26.5234 65.0742 30.1328 63.2461 33.1094C61.418 36.0977 58.7871 38.043 55.3535 38.9453L54.9316 37.5918C57.6387 36.6895 59.6484 34.9082 60.9609 32.248C62.2852 29.5879 62.9473 26.207 62.9473 22.1055ZM79.7168 18.2383V15.9004H101.373V18.2383H79.7168ZM79.7168 25.5332V23.1953H101.373V25.5332H79.7168ZM123.803 28.4863L123.539 28.416C122.52 29.459 121.559 30.1973 120.656 30.6309C119.766 31.0645 118.816 31.2812 117.809 31.2812C116.918 31.2812 116.133 31.1113 115.453 30.7715C114.773 30.4199 114.252 29.9336 113.889 29.3125C113.525 28.6797 113.344 27.9531 113.344 27.1328C113.344 25.4219 114.188 24.1035 115.875 23.1777C117.574 22.2402 120.117 21.6953 123.504 21.543V20.4004C123.504 19.1816 123.387 18.2207 123.152 17.5176C122.918 16.8145 122.549 16.2988 122.045 15.9707C121.541 15.6426 120.867 15.4785 120.023 15.4785C119.109 15.4785 118.371 15.7188 117.809 16.1992C117.258 16.6797 116.842 17.4004 116.561 18.3613H114.258V16.0762C115.383 15.4902 116.32 15.0625 117.07 14.793C117.82 14.5117 118.57 14.2949 119.32 14.1426C120.07 13.9785 120.832 13.8965 121.605 13.8965C122.766 13.8965 123.697 14.084 124.4 14.459C125.104 14.8223 125.631 15.3848 125.982 16.1465C126.334 16.9082 126.51 18.0566 126.51 19.5918V25.709C126.51 26.5762 126.516 27.1914 126.527 27.5547C126.539 27.9062 126.574 28.2344 126.633 28.5391C126.691 28.8438 126.779 29.0898 126.896 29.2773C127.014 29.4531 127.184 29.6055 127.406 29.7344C127.641 29.8633 128.016 29.998 128.531 30.1387V31H123.715L123.803 28.4863ZM123.504 22.9844C121.125 23.0078 119.344 23.3242 118.16 23.9336C116.977 24.543 116.385 25.4629 116.385 26.6934C116.385 27.3613 116.52 27.8887 116.789 28.2754C117.059 28.6621 117.398 28.9316 117.809 29.084C118.219 29.2246 118.705 29.2949 119.268 29.2949C120.064 29.2949 120.785 29.1016 121.43 28.7148C122.086 28.3281 122.596 27.8359 122.959 27.2383C123.322 26.6406 123.504 26.0488 123.504 25.4629V22.9844ZM147.516 23.1074H139.359V20.3828H147.516V23.1074ZM152.033 31.6328V28.9961L171.123 20.7168L152.033 12.4375V9.80078L173.76 19.4863V21.9473L152.033 31.6328ZM195.064 15.9707H190.863V26.6055C190.863 27.3906 190.898 27.9824 190.969 28.3809C191.051 28.7793 191.162 29.084 191.303 29.2949C191.455 29.4941 191.648 29.6582 191.883 29.7871C192.129 29.9043 192.516 30.0215 193.043 30.1387V31H185.854V30.1387C186.369 29.998 186.738 29.8633 186.961 29.7344C187.184 29.6055 187.354 29.4414 187.471 29.2422C187.6 29.043 187.693 28.7559 187.752 28.3809C187.811 28.0059 187.84 27.4141 187.84 26.6055V15.9707H185.713V15.0742C186.158 15.0039 186.451 14.9512 186.592 14.916C186.744 14.8691 186.885 14.8047 187.014 14.7227C187.154 14.6406 187.271 14.5234 187.365 14.3711C187.471 14.2188 187.559 13.9961 187.629 13.7031C187.711 13.3984 187.775 12.9766 187.822 12.4375C187.928 11.1602 188.156 10.123 188.508 9.32617C188.871 8.5293 189.393 7.84961 190.072 7.28711C190.764 6.72461 191.496 6.33203 192.27 6.10938C193.055 5.875 193.975 5.75781 195.029 5.75781C195.955 5.75781 196.74 5.82227 197.385 5.95117V9.13281H195.645C195.422 8.44141 195.158 7.95508 194.854 7.67383C194.561 7.38086 194.145 7.23438 193.605 7.23438C193.219 7.23438 192.891 7.28711 192.621 7.39258C192.363 7.49805 192.123 7.66211 191.9 7.88477C191.678 8.10742 191.484 8.40625 191.32 8.78125C191.168 9.15625 191.051 9.625 190.969 10.1875C190.898 10.7383 190.863 11.459 190.863 12.3496V14.1953H195.064V15.9707ZM203.889 5.8457C204.029 6.23242 204.135 6.6543 204.205 7.11133C204.287 7.56836 204.328 7.98438 204.328 8.35938C204.328 9.13281 204.211 9.81836 203.977 10.416C203.742 11.0137 203.367 11.623 202.852 12.2441C202.348 12.8535 201.574 13.6152 200.531 14.5293L199.459 13.4746C200.033 12.7832 200.455 12.0859 200.725 11.3828C200.994 10.668 201.129 9.80078 201.129 8.78125C201.129 8.42969 201.111 8.05469 201.076 7.65625C201.041 7.25781 200.953 6.6543 200.812 5.8457H203.889ZM212.396 22.1055C212.396 26.207 213.053 29.5879 214.365 32.248C215.689 34.9082 217.705 36.6895 220.412 37.5918L219.99 38.9453C216.557 38.043 213.926 36.0977 212.098 33.1094C210.27 30.1328 209.355 26.5234 209.355 22.2812C209.355 18.0508 210.27 14.4414 212.098 11.4531C213.938 8.45312 216.568 6.50195 219.99 5.59961L220.465 6.95312C217.723 7.85547 215.689 9.61914 214.365 12.2441C213.053 14.8574 212.396 18.1445 212.396 22.1055ZM230.273 20.8574L232.559 17.957C232.805 17.6406 233.004 17.3359 233.156 17.043C233.309 16.7383 233.385 16.4277 233.385 16.1113C233.385 15.8418 233.285 15.6191 233.086 15.4434C232.887 15.2676 232.576 15.1387 232.154 15.0566V14.1953H237.902V15.0566C237.457 15.1855 237 15.4375 236.531 15.8125C236.074 16.1875 235.512 16.791 234.844 17.623L231.205 22.0879L235.213 27.4844C235.787 28.2578 236.303 28.8496 236.76 29.2598C237.217 29.6699 237.674 29.9629 238.131 30.1387V31H231.064V30.1387C232.037 30.0215 232.523 29.6582 232.523 29.0488C232.523 28.8027 232.482 28.5684 232.4 28.3457C232.318 28.123 232.166 27.8652 231.943 27.5723L229.395 24.0215L226.688 27.5371C226.488 27.7949 226.33 28.0352 226.213 28.2578C226.107 28.4688 226.055 28.709 226.055 28.9785C226.055 29.2949 226.16 29.5586 226.371 29.7695C226.594 29.9688 226.939 30.0918 227.408 30.1387V31H221.537V30.1387C221.924 29.998 222.27 29.8223 222.574 29.6113C222.891 29.4004 223.207 29.1309 223.523 28.8027C223.852 28.4629 224.279 27.9707 224.807 27.3262L228.463 22.791L224.719 17.6582C224.203 16.9551 223.793 16.4453 223.488 16.1289C223.184 15.8125 222.902 15.5723 222.645 15.4082C222.387 15.2441 222.129 15.127 221.871 15.0566V14.1953H228.762V15.0566C227.836 15.1973 227.373 15.5605 227.373 16.1465C227.373 16.416 227.432 16.6855 227.549 16.9551C227.678 17.2246 227.871 17.5234 228.129 17.8516L230.273 20.8574ZM247.271 22.1055C247.271 18.1445 246.615 14.8574 245.303 12.2441C243.99 9.61914 241.957 7.85547 239.203 6.95312L239.678 5.59961C243.1 6.50195 245.725 8.45312 247.553 11.4531C249.393 14.4414 250.312 18.0508 250.312 22.2812C250.312 26.5234 249.398 30.1328 247.57 33.1094C245.742 36.0977 243.111 38.043 239.678 38.9453L239.256 37.5918C241.963 36.6895 243.973 34.9082 245.285 32.248C246.609 29.5879 247.271 26.207 247.271 22.1055ZM264.041 18.2383V15.9004H285.697V18.2383H264.041ZM264.041 25.5332V23.1953H285.697V25.5332H264.041ZM306.035 31.2812C303.504 31.2812 301.617 30.2852 300.375 28.293C299.145 26.3008 298.529 23.2773 298.529 19.2227C298.529 17.0664 298.717 15.2031 299.092 13.6328C299.479 12.0625 300.012 10.7676 300.691 9.74805C301.383 8.7168 302.209 7.95508 303.17 7.46289C304.131 6.9707 305.18 6.72461 306.316 6.72461C308.883 6.72461 310.793 7.71484 312.047 9.69531C313.301 11.6758 313.928 14.6699 313.928 18.6777C313.928 22.8262 313.254 25.9668 311.906 28.0996C310.57 30.2207 308.613 31.2812 306.035 31.2812ZM301.957 18.6953C301.957 22.5156 302.309 25.3223 303.012 27.1152C303.727 28.8965 304.828 29.7871 306.316 29.7871C307.734 29.7871 308.783 28.9492 309.463 27.2734C310.154 25.5859 310.5 22.9785 310.5 19.4512C310.5 16.7559 310.324 14.5762 309.973 12.9121C309.621 11.2363 309.129 10.0352 308.496 9.30859C307.875 8.58203 307.119 8.21875 306.229 8.21875C305.42 8.21875 304.74 8.45898 304.189 8.93945C303.65 9.41992 303.211 10.1113 302.871 11.0137C302.543 11.916 302.309 13.0176 302.168 14.3184C302.027 15.6074 301.957 17.0664 301.957 18.6953Z" fill="white"/>
</svg>
