<svg width="317" height="42" viewBox="0 0 317 42" fill="none" xmlns="http://www.w3.org/2000/svg">
<path d="M10.7402 15.9707H6.53906V26.6055C6.53906 27.3906 6.57422 27.9824 6.64453 28.3809C6.72656 28.7793 6.83789 29.084 6.97852 29.2949C7.13086 29.4941 7.32422 29.6582 7.55859 29.7871C7.80469 29.9043 8.19141 30.0215 8.71875 30.1387V31H1.5293V30.1387C2.04492 29.998 2.41406 29.8633 2.63672 29.7344C2.85938 29.6055 3.0293 29.4414 3.14648 29.2422C3.27539 29.043 3.36914 28.7559 3.42773 28.3809C3.48633 28.0059 3.51562 27.4141 3.51562 26.6055V15.9707H1.38867V15.0742C1.83398 15.0039 2.12695 14.9512 2.26758 14.916C2.41992 14.8691 2.56055 14.8047 2.68945 14.7227C2.83008 14.6406 2.94727 14.5234 3.04102 14.3711C3.14648 14.2188 3.23438 13.9961 3.30469 13.7031C3.38672 13.3984 3.45117 12.9766 3.49805 12.4375C3.60352 11.1602 3.83203 10.123 4.18359 9.32617C4.54688 8.5293 5.06836 7.84961 5.74805 7.28711C6.43945 6.72461 7.17188 6.33203 7.94531 6.10938C8.73047 5.875 9.65039 5.75781 10.7051 5.75781C11.6309 5.75781 12.416 5.82227 13.0605 5.95117V9.13281H11.3203C11.0977 8.44141 10.834 7.95508 10.5293 7.67383C10.2363 7.38086 9.82031 7.23438 9.28125 7.23438C8.89453 7.23438 8.56641 7.28711 8.29688 7.39258C8.03906 7.49805 7.79883 7.66211 7.57617 7.88477C7.35352 8.10742 7.16016 8.40625 6.99609 8.78125C6.84375 9.15625 6.72656 9.625 6.64453 10.1875C6.57422 10.7383 6.53906 11.459 6.53906 12.3496V14.1953H10.7402V15.9707ZM19.5645 5.8457C19.7051 6.23242 19.8105 6.6543 19.8809 7.11133C19.9629 7.56836 20.0039 7.98438 20.0039 8.35938C20.0039 9.13281 19.8867 9.81836 19.6523 10.416C19.418 11.0137 19.043 11.623 18.5273 12.2441C18.0234 12.8535 17.25 13.6152 16.207 14.5293L15.1348 13.4746C15.709 12.7832 16.1309 12.0859 16.4004 11.3828C16.6699 10.668 16.8047 9.80078 16.8047 8.78125C16.8047 8.42969 16.7871 8.05469 16.752 7.65625C16.7168 7.25781 16.6289 6.6543 16.4883 5.8457H19.5645ZM28.0723 22.1055C28.0723 26.207 28.7285 29.5879 30.041 32.248C31.3652 34.9082 33.3809 36.6895 36.0879 37.5918L35.666 38.9453C32.2324 38.043 29.6016 36.0977 27.7734 33.1094C25.9453 30.1328 25.0312 26.5234 25.0312 22.2812C25.0312 18.0508 25.9453 14.4414 27.7734 11.4531C29.6133 8.45312 32.2441 6.50195 35.666 5.59961L36.1406 6.95312C33.3984 7.85547 31.3652 9.61914 30.041 12.2441C28.7285 14.8574 28.0723 18.1445 28.0723 22.1055ZM45.9492 20.8574L48.2344 17.957C48.4805 17.6406 48.6797 17.3359 48.832 17.043C48.9844 16.7383 49.0605 16.4277 49.0605 16.1113C49.0605 15.8418 48.9609 15.6191 48.7617 15.4434C48.5625 15.2676 48.252 15.1387 47.8301 15.0566V14.1953H53.5781V15.0566C53.1328 15.1855 52.6758 15.4375 52.207 15.8125C51.75 16.1875 51.1875 16.791 50.5195 17.623L46.8809 22.0879L50.8887 27.4844C51.4629 28.2578 51.9785 28.8496 52.4355 29.2598C52.8926 29.6699 53.3496 29.9629 53.8066 30.1387V31H46.7402V30.1387C47.7129 30.0215 48.1992 29.6582 48.1992 29.0488C48.1992 28.8027 48.1582 28.5684 48.0762 28.3457C47.9941 28.123 47.8418 27.8652 47.6191 27.5723L45.0703 24.0215L42.3633 27.5371C42.1641 27.7949 42.0059 28.0352 41.8887 28.2578C41.7832 28.4688 41.7305 28.709 41.7305 28.9785C41.7305 29.2949 41.8359 29.5586 42.0469 29.7695C42.2695 29.9688 42.6152 30.0918 43.084 30.1387V31H37.2129V30.1387C37.5996 29.998 37.9453 29.8223 38.25 29.6113C38.5664 29.4004 38.8828 29.1309 39.1992 28.8027C39.5273 28.4629 39.9551 27.9707 40.4824 27.3262L44.1387 22.791L40.3945 17.6582C39.8789 16.9551 39.4688 16.4453 39.1641 16.1289C38.8594 15.8125 38.5781 15.5723 38.3203 15.4082C38.0625 15.2441 37.8047 15.127 37.5469 15.0566V14.1953H44.4375V15.0566C43.5117 15.1973 43.0488 15.5605 43.0488 16.1465C43.0488 16.416 43.1074 16.6855 43.2246 16.9551C43.3535 17.2246 43.5469 17.5234 43.8047 17.8516L45.9492 20.8574ZM62.9473 22.1055C62.9473 18.1445 62.291 14.8574 60.9785 12.2441C59.666 9.61914 57.6328 7.85547 54.8789 6.95312L55.3535 5.59961C58.7754 6.50195 61.4004 8.45312 63.2285 11.4531C65.0684 14.4414 65.9883 18.0508 65.9883 22.2812C65.9883 26.5234 65.0742 30.1328 63.2461 33.1094C61.418 36.0977 58.7871 38.043 55.3535 38.9453L54.9316 37.5918C57.6387 36.6895 59.6484 34.9082 60.9609 32.248C62.2852 29.5879 62.9473 26.207 62.9473 22.1055ZM79.7168 18.2383V15.9004H101.373V18.2383H79.7168ZM79.7168 25.5332V23.1953H101.373V25.5332H79.7168ZM121.078 20.8574L123.363 17.957C123.609 17.6406 123.809 17.3359 123.961 17.043C124.113 16.7383 124.189 16.4277 124.189 16.1113C124.189 15.8418 124.09 15.6191 123.891 15.4434C123.691 15.2676 123.381 15.1387 122.959 15.0566V14.1953H128.707V15.0566C128.262 15.1855 127.805 15.4375 127.336 15.8125C126.879 16.1875 126.316 16.791 125.648 17.623L122.01 22.0879L126.018 27.4844C126.592 28.2578 127.107 28.8496 127.564 29.2598C128.021 29.6699 128.479 29.9629 128.936 30.1387V31H121.869V30.1387C122.842 30.0215 123.328 29.6582 123.328 29.0488C123.328 28.8027 123.287 28.5684 123.205 28.3457C123.123 28.123 122.971 27.8652 122.748 27.5723L120.199 24.0215L117.492 27.5371C117.293 27.7949 117.135 28.0352 117.018 28.2578C116.912 28.4688 116.859 28.709 116.859 28.9785C116.859 29.2949 116.965 29.5586 117.176 29.7695C117.398 29.9688 117.744 30.0918 118.213 30.1387V31H112.342V30.1387C112.729 29.998 113.074 29.8223 113.379 29.6113C113.695 29.4004 114.012 29.1309 114.328 28.8027C114.656 28.4629 115.084 27.9707 115.611 27.3262L119.268 22.791L115.523 17.6582C115.008 16.9551 114.598 16.4453 114.293 16.1289C113.988 15.8125 113.707 15.5723 113.449 15.4082C113.191 15.2441 112.934 15.127 112.676 15.0566V14.1953H119.566V15.0566C118.641 15.1973 118.178 15.5605 118.178 16.1465C118.178 16.416 118.236 16.6855 118.354 16.9551C118.482 17.2246 118.676 17.5234 118.934 17.8516L121.078 20.8574ZM147.34 23.1074H139.184V20.3828H147.34V23.1074ZM151.857 31.6328V28.9961L170.947 20.7168L151.857 12.4375V9.80078L173.584 19.4863V21.9473L151.857 31.6328ZM194.889 15.9707H190.688V26.6055C190.688 27.3906 190.723 27.9824 190.793 28.3809C190.875 28.7793 190.986 29.084 191.127 29.2949C191.279 29.4941 191.473 29.6582 191.707 29.7871C191.953 29.9043 192.34 30.0215 192.867 30.1387V31H185.678V30.1387C186.193 29.998 186.562 29.8633 186.785 29.7344C187.008 29.6055 187.178 29.4414 187.295 29.2422C187.424 29.043 187.518 28.7559 187.576 28.3809C187.635 28.0059 187.664 27.4141 187.664 26.6055V15.9707H185.537V15.0742C185.982 15.0039 186.275 14.9512 186.416 14.916C186.568 14.8691 186.709 14.8047 186.838 14.7227C186.979 14.6406 187.096 14.5234 187.189 14.3711C187.295 14.2188 187.383 13.9961 187.453 13.7031C187.535 13.3984 187.6 12.9766 187.646 12.4375C187.752 11.1602 187.98 10.123 188.332 9.32617C188.695 8.5293 189.217 7.84961 189.896 7.28711C190.588 6.72461 191.32 6.33203 192.094 6.10938C192.879 5.875 193.799 5.75781 194.854 5.75781C195.779 5.75781 196.564 5.82227 197.209 5.95117V9.13281H195.469C195.246 8.44141 194.982 7.95508 194.678 7.67383C194.385 7.38086 193.969 7.23438 193.43 7.23438C193.043 7.23438 192.715 7.28711 192.445 7.39258C192.188 7.49805 191.947 7.66211 191.725 7.88477C191.502 8.10742 191.309 8.40625 191.145 8.78125C190.992 9.15625 190.875 9.625 190.793 10.1875C190.723 10.7383 190.688 11.459 190.688 12.3496V14.1953H194.889V15.9707ZM203.713 5.8457C203.854 6.23242 203.959 6.6543 204.029 7.11133C204.111 7.56836 204.152 7.98438 204.152 8.35938C204.152 9.13281 204.035 9.81836 203.801 10.416C203.566 11.0137 203.191 11.623 202.676 12.2441C202.172 12.8535 201.398 13.6152 200.355 14.5293L199.283 13.4746C199.857 12.7832 200.279 12.0859 200.549 11.3828C200.818 10.668 200.953 9.80078 200.953 8.78125C200.953 8.42969 200.936 8.05469 200.9 7.65625C200.865 7.25781 200.777 6.6543 200.637 5.8457H203.713ZM212.221 22.1055C212.221 26.207 212.877 29.5879 214.189 32.248C215.514 34.9082 217.529 36.6895 220.236 37.5918L219.814 38.9453C216.381 38.043 213.75 36.0977 211.922 33.1094C210.094 30.1328 209.18 26.5234 209.18 22.2812C209.18 18.0508 210.094 14.4414 211.922 11.4531C213.762 8.45312 216.393 6.50195 219.814 5.59961L220.289 6.95312C217.547 7.85547 215.514 9.61914 214.189 12.2441C212.877 14.8574 212.221 18.1445 212.221 22.1055ZM230.098 20.8574L232.383 17.957C232.629 17.6406 232.828 17.3359 232.98 17.043C233.133 16.7383 233.209 16.4277 233.209 16.1113C233.209 15.8418 233.109 15.6191 232.91 15.4434C232.711 15.2676 232.4 15.1387 231.979 15.0566V14.1953H237.727V15.0566C237.281 15.1855 236.824 15.4375 236.355 15.8125C235.898 16.1875 235.336 16.791 234.668 17.623L231.029 22.0879L235.037 27.4844C235.611 28.2578 236.127 28.8496 236.584 29.2598C237.041 29.6699 237.498 29.9629 237.955 30.1387V31H230.889V30.1387C231.861 30.0215 232.348 29.6582 232.348 29.0488C232.348 28.8027 232.307 28.5684 232.225 28.3457C232.143 28.123 231.99 27.8652 231.768 27.5723L229.219 24.0215L226.512 27.5371C226.312 27.7949 226.154 28.0352 226.037 28.2578C225.932 28.4688 225.879 28.709 225.879 28.9785C225.879 29.2949 225.984 29.5586 226.195 29.7695C226.418 29.9688 226.764 30.0918 227.232 30.1387V31H221.361V30.1387C221.748 29.998 222.094 29.8223 222.398 29.6113C222.715 29.4004 223.031 29.1309 223.348 28.8027C223.676 28.4629 224.104 27.9707 224.631 27.3262L228.287 22.791L224.543 17.6582C224.027 16.9551 223.617 16.4453 223.312 16.1289C223.008 15.8125 222.727 15.5723 222.469 15.4082C222.211 15.2441 221.953 15.127 221.695 15.0566V14.1953H228.586V15.0566C227.66 15.1973 227.197 15.5605 227.197 16.1465C227.197 16.416 227.256 16.6855 227.373 16.9551C227.502 17.2246 227.695 17.5234 227.953 17.8516L230.098 20.8574ZM247.096 22.1055C247.096 18.1445 246.439 14.8574 245.127 12.2441C243.814 9.61914 241.781 7.85547 239.027 6.95312L239.502 5.59961C242.924 6.50195 245.549 8.45312 247.377 11.4531C249.217 14.4414 250.137 18.0508 250.137 22.2812C250.137 26.5234 249.223 30.1328 247.395 33.1094C245.566 36.0977 242.936 38.043 239.502 38.9453L239.08 37.5918C241.787 36.6895 243.797 34.9082 245.109 32.248C246.434 29.5879 247.096 26.207 247.096 22.1055ZM263.865 18.2383V15.9004H285.521V18.2383H263.865ZM263.865 25.5332V23.1953H285.521V25.5332H263.865ZM308.303 26.4121C308.303 27.0918 308.338 27.6074 308.408 27.959C308.49 28.2988 308.625 28.5801 308.812 28.8027C309.012 29.0137 309.293 29.1836 309.656 29.3125C310.02 29.4297 310.477 29.5234 311.027 29.5938C311.578 29.6523 312.305 29.6934 313.207 29.7168V31H300.217V29.7168C301.518 29.6582 302.443 29.582 302.994 29.4883C303.557 29.3828 303.984 29.2305 304.277 29.0312C304.57 28.832 304.781 28.5508 304.91 28.1875C305.051 27.8242 305.121 27.2324 305.121 26.4121V12.1562C305.121 11.6875 305.039 11.3477 304.875 11.1367C304.711 10.9141 304.471 10.8027 304.154 10.8027C303.779 10.8027 303.246 10.9961 302.555 11.3828C301.863 11.7695 301.008 12.3027 299.988 12.9824L299.215 11.6289L307.441 6.72461H308.408C308.338 7.84961 308.303 9.4082 308.303 11.4004V26.4121Z" fill="white"/>
</svg>
