<svg width="203" height="51" viewBox="0 0 203 51" fill="none" xmlns="http://www.w3.org/2000/svg">
<path d="M10.7402 24.9707H6.53906V35.6055C6.53906 36.3906 6.57422 36.9824 6.64453 37.3809C6.72656 37.7793 6.83789 38.084 6.97852 38.2949C7.13086 38.4941 7.32422 38.6582 7.55859 38.7871C7.80469 38.9043 8.19141 39.0215 8.71875 39.1387V40H1.5293V39.1387C2.04492 38.998 2.41406 38.8633 2.63672 38.7344C2.85938 38.6055 3.0293 38.4414 3.14648 38.2422C3.27539 38.043 3.36914 37.7559 3.42773 37.3809C3.48633 37.0059 3.51562 36.4141 3.51562 35.6055V24.9707H1.38867V24.0742C1.83398 24.0039 2.12695 23.9512 2.26758 23.916C2.41992 23.8691 2.56055 23.8047 2.68945 23.7227C2.83008 23.6406 2.94727 23.5234 3.04102 23.3711C3.14648 23.2188 3.23438 22.9961 3.30469 22.7031C3.38672 22.3984 3.45117 21.9766 3.49805 21.4375C3.60352 20.1602 3.83203 19.123 4.18359 18.3262C4.54688 17.5293 5.06836 16.8496 5.74805 16.2871C6.43945 15.7246 7.17188 15.332 7.94531 15.1094C8.73047 14.875 9.65039 14.7578 10.7051 14.7578C11.6309 14.7578 12.416 14.8223 13.0605 14.9512V18.1328H11.3203C11.0977 17.4414 10.834 16.9551 10.5293 16.6738C10.2363 16.3809 9.82031 16.2344 9.28125 16.2344C8.89453 16.2344 8.56641 16.2871 8.29688 16.3926C8.03906 16.498 7.79883 16.6621 7.57617 16.8848C7.35352 17.1074 7.16016 17.4062 6.99609 17.7812C6.84375 18.1562 6.72656 18.625 6.64453 19.1875C6.57422 19.7383 6.53906 20.459 6.53906 21.3496V23.1953H10.7402V24.9707ZM19.5645 14.8457C19.7051 15.2324 19.8105 15.6543 19.8809 16.1113C19.9629 16.5684 20.0039 16.9844 20.0039 17.3594C20.0039 18.1328 19.8867 18.8184 19.6523 19.416C19.418 20.0137 19.043 20.623 18.5273 21.2441C18.0234 21.8535 17.25 22.6152 16.207 23.5293L15.1348 22.4746C15.709 21.7832 16.1309 21.0859 16.4004 20.3828C16.6699 19.668 16.8047 18.8008 16.8047 17.7812C16.8047 17.4297 16.7871 17.0547 16.752 16.6562C16.7168 16.2578 16.6289 15.6543 16.4883 14.8457H19.5645ZM28.0723 31.1055C28.0723 35.207 28.7285 38.5879 30.041 41.248C31.3652 43.9082 33.3809 45.6895 36.0879 46.5918L35.666 47.9453C32.2324 47.043 29.6016 45.0977 27.7734 42.1094C25.9453 39.1328 25.0312 35.5234 25.0312 31.2812C25.0312 27.0508 25.9453 23.4414 27.7734 20.4531C29.6133 17.4531 32.2441 15.502 35.666 14.5996L36.1406 15.9531C33.3984 16.8555 31.3652 18.6191 30.041 21.2441C28.7285 23.8574 28.0723 27.1445 28.0723 31.1055ZM45.9492 29.8574L48.2344 26.957C48.4805 26.6406 48.6797 26.3359 48.832 26.043C48.9844 25.7383 49.0605 25.4277 49.0605 25.1113C49.0605 24.8418 48.9609 24.6191 48.7617 24.4434C48.5625 24.2676 48.252 24.1387 47.8301 24.0566V23.1953H53.5781V24.0566C53.1328 24.1855 52.6758 24.4375 52.207 24.8125C51.75 25.1875 51.1875 25.791 50.5195 26.623L46.8809 31.0879L50.8887 36.4844C51.4629 37.2578 51.9785 37.8496 52.4355 38.2598C52.8926 38.6699 53.3496 38.9629 53.8066 39.1387V40H46.7402V39.1387C47.7129 39.0215 48.1992 38.6582 48.1992 38.0488C48.1992 37.8027 48.1582 37.5684 48.0762 37.3457C47.9941 37.123 47.8418 36.8652 47.6191 36.5723L45.0703 33.0215L42.3633 36.5371C42.1641 36.7949 42.0059 37.0352 41.8887 37.2578C41.7832 37.4688 41.7305 37.709 41.7305 37.9785C41.7305 38.2949 41.8359 38.5586 42.0469 38.7695C42.2695 38.9688 42.6152 39.0918 43.084 39.1387V40H37.2129V39.1387C37.5996 38.998 37.9453 38.8223 38.25 38.6113C38.5664 38.4004 38.8828 38.1309 39.1992 37.8027C39.5273 37.4629 39.9551 36.9707 40.4824 36.3262L44.1387 31.791L40.3945 26.6582C39.8789 25.9551 39.4688 25.4453 39.1641 25.1289C38.8594 24.8125 38.5781 24.5723 38.3203 24.4082C38.0625 24.2441 37.8047 24.127 37.5469 24.0566V23.1953H44.4375V24.0566C43.5117 24.1973 43.0488 24.5605 43.0488 25.1465C43.0488 25.416 43.1074 25.6855 43.2246 25.9551C43.3535 26.2246 43.5469 26.5234 43.8047 26.8516L45.9492 29.8574ZM62.9473 31.1055C62.9473 27.1445 62.291 23.8574 60.9785 21.2441C59.666 18.6191 57.6328 16.8555 54.8789 15.9531L55.3535 14.5996C58.7754 15.502 61.4004 17.4531 63.2285 20.4531C65.0684 23.4414 65.9883 27.0508 65.9883 31.2812C65.9883 35.5234 65.0742 39.1328 63.2461 42.1094C61.418 45.0977 58.7871 47.043 55.3535 47.9453L54.9316 46.5918C57.6387 45.6895 59.6484 43.9082 60.9609 41.248C62.2852 38.5879 62.9473 35.207 62.9473 31.1055ZM79.7168 27.2383V24.9004H101.373V27.2383H79.7168ZM79.7168 34.5332V32.1953H101.373V34.5332H79.7168ZM130.764 40H123.838V39.1387C124.295 38.998 124.623 38.875 124.822 38.7695C125.021 38.6641 125.186 38.5176 125.314 38.3301C125.455 38.1426 125.561 37.8555 125.631 37.4688C125.713 37.0703 125.754 36.4727 125.754 35.6758V31.0703C125.754 30.25 125.73 29.5059 125.684 28.8379C125.637 28.1699 125.555 27.625 125.438 27.2031C125.332 26.7695 125.197 26.4355 125.033 26.2012C124.881 25.9551 124.693 25.75 124.471 25.5859C124.26 25.4102 124.014 25.2754 123.732 25.1816C123.451 25.0762 123.082 25.0234 122.625 25.0234C122.168 25.0234 121.734 25.1172 121.324 25.3047C120.914 25.4805 120.463 25.791 119.971 26.2363C119.479 26.6816 119.121 27.1211 118.898 27.5547C118.676 27.9883 118.564 28.4863 118.564 29.0488V35.6055C118.564 36.6133 118.611 37.3164 118.705 37.7148C118.799 38.1016 118.975 38.4004 119.232 38.6113C119.502 38.8105 119.936 38.9863 120.533 39.1387V40H113.643V39.1387C114.1 38.998 114.422 38.875 114.609 38.7695C114.809 38.6641 114.973 38.5176 115.102 38.3301C115.242 38.1426 115.348 37.8555 115.418 37.4688C115.5 37.082 115.541 36.4785 115.541 35.6582V27.9941C115.541 27.2441 115.529 26.6406 115.506 26.1836C115.482 25.7266 115.4 25.3633 115.26 25.0938C115.119 24.8125 114.902 24.6074 114.609 24.4785C114.328 24.3379 113.924 24.2207 113.396 24.127V23.1953L117.51 23.0371H118.582L118.389 25.9023L118.635 25.9727C119.502 25.0938 120.199 24.4668 120.727 24.0918C121.266 23.7168 121.805 23.4297 122.344 23.2305C122.895 23.0195 123.475 22.9141 124.084 22.9141C124.717 22.9141 125.279 22.9902 125.771 23.1426C126.275 23.2832 126.715 23.5059 127.09 23.8105C127.477 24.1152 127.793 24.4961 128.039 24.9531C128.285 25.3984 128.467 25.9375 128.584 26.5703C128.713 27.2031 128.777 28.0059 128.777 28.9785V35.6055C128.777 36.4141 128.801 37 128.848 37.3633C128.895 37.7266 128.977 38.0078 129.094 38.207C129.211 38.4062 129.381 38.5762 129.604 38.7168C129.826 38.8457 130.213 38.9863 130.764 39.1387V40ZM141.188 29.8574L143.473 26.957C143.719 26.6406 143.918 26.3359 144.07 26.043C144.223 25.7383 144.299 25.4277 144.299 25.1113C144.299 24.8418 144.199 24.6191 144 24.4434C143.801 24.2676 143.49 24.1387 143.068 24.0566V23.1953H148.816V24.0566C148.371 24.1855 147.914 24.4375 147.445 24.8125C146.988 25.1875 146.426 25.791 145.758 26.623L142.119 31.0879L146.127 36.4844C146.701 37.2578 147.217 37.8496 147.674 38.2598C148.131 38.6699 148.588 38.9629 149.045 39.1387V40H141.979V39.1387C142.951 39.0215 143.438 38.6582 143.438 38.0488C143.438 37.8027 143.396 37.5684 143.314 37.3457C143.232 37.123 143.08 36.8652 142.857 36.5723L140.309 33.0215L137.602 36.5371C137.402 36.7949 137.244 37.0352 137.127 37.2578C137.021 37.4688 136.969 37.709 136.969 37.9785C136.969 38.2949 137.074 38.5586 137.285 38.7695C137.508 38.9688 137.854 39.0918 138.322 39.1387V40H132.451V39.1387C132.838 38.998 133.184 38.8223 133.488 38.6113C133.805 38.4004 134.121 38.1309 134.438 37.8027C134.766 37.4629 135.193 36.9707 135.721 36.3262L139.377 31.791L135.633 26.6582C135.117 25.9551 134.707 25.4453 134.402 25.1289C134.098 24.8125 133.816 24.5723 133.559 24.4082C133.301 24.2441 133.043 24.127 132.785 24.0566V23.1953H139.676V24.0566C138.75 24.1973 138.287 24.5605 138.287 25.1465C138.287 25.416 138.346 25.6855 138.463 25.9551C138.592 26.2246 138.785 26.5234 139.043 26.8516L141.188 29.8574ZM163.178 25.4277H158.115V24.6367C158.549 24.5312 158.842 24.4258 158.994 24.3203C159.146 24.2148 159.258 24.0566 159.328 23.8457C159.41 23.623 159.451 23.2539 159.451 22.7383V18.8008C159.451 18.2148 159.41 17.7168 159.328 17.3066C159.258 16.8848 159.123 16.5625 158.924 16.3398C158.736 16.1172 158.525 15.9648 158.291 15.8828C158.068 15.7891 157.787 15.7422 157.447 15.7422C157.166 15.7422 156.896 15.7891 156.639 15.8828C156.381 15.9766 156.105 16.1289 155.812 16.3398C155.531 16.5391 155.303 16.7383 155.127 16.9375C154.951 17.1367 154.828 17.3242 154.758 17.5C154.688 17.6641 154.652 17.8457 154.652 18.0449V22.6855C154.652 23.2598 154.688 23.6523 154.758 23.8633C154.828 24.0625 154.939 24.2148 155.092 24.3203C155.256 24.4258 155.566 24.5312 156.023 24.6367V25.4277H150.996V24.6367C151.43 24.5312 151.717 24.4258 151.857 24.3203C152.01 24.2148 152.121 24.0508 152.191 23.8281C152.273 23.6055 152.314 23.2363 152.314 22.7207V17.377C152.314 16.8027 152.297 16.4043 152.262 16.1816C152.227 15.9473 152.133 15.7539 151.98 15.6016C151.828 15.4492 151.441 15.3203 150.82 15.2148V14.3887L153.809 14.2656H154.67L154.529 16.0938L154.635 16.1465C155.338 15.4199 155.988 14.9102 156.586 14.6172C157.184 14.3125 157.787 14.1602 158.396 14.1602C159.158 14.1602 159.797 14.3066 160.312 14.5996C160.828 14.8809 161.203 15.2852 161.438 15.8125C161.672 16.3281 161.789 17.0547 161.789 17.9922V22.6855C161.789 23.2246 161.812 23.5938 161.859 23.793C161.906 23.9922 162.006 24.1562 162.158 24.2852C162.311 24.4023 162.65 24.5195 163.178 24.6367V25.4277ZM197.35 22.2988C197.35 22.8027 197.391 23.166 197.473 23.3887C197.566 23.5996 197.707 23.7695 197.895 23.8984C198.094 24.0156 198.422 24.1094 198.879 24.1797C199.348 24.25 200.092 24.291 201.111 24.3027V25.4277H191.127V24.3027C192.1 24.2793 192.814 24.2383 193.271 24.1797C193.729 24.1094 194.062 24.0156 194.273 23.8984C194.484 23.7695 194.637 23.5996 194.73 23.3887C194.836 23.166 194.889 22.8027 194.889 22.2988V14.3184C194.889 14.0254 194.83 13.8145 194.713 13.6855C194.607 13.5566 194.443 13.4922 194.221 13.4922C193.975 13.4922 193.594 13.627 193.078 13.8965C192.574 14.1543 191.918 14.5352 191.109 15.0391L190.477 13.8262L196.629 10.627H197.42C197.408 10.8027 197.391 11.2188 197.367 11.875C197.355 12.5195 197.35 13.1699 197.35 13.8262V22.2988Z" fill="white"/>
<path d="M181.055 23.1074H172.898V20.3828H181.055V23.1074Z" fill="white"/>
</svg>
