<svg width="165" height="106" viewBox="0 0 165 106" fill="none" xmlns="http://www.w3.org/2000/svg">
<path d="M6.65137 10.4023H2.48145L1.54492 13H0.191406L3.99219 3.04688H5.14062L8.94824 13H7.60156L6.65137 10.4023ZM2.87793 9.32227H6.26172L4.56641 4.66699L2.87793 9.32227ZM13.665 6.73828C13.4736 6.70638 13.2663 6.69043 13.043 6.69043C12.2135 6.69043 11.6507 7.04362 11.3545 7.75V13H10.0898V5.60352H11.3203L11.3408 6.45801C11.7555 5.7972 12.3434 5.4668 13.1045 5.4668C13.3506 5.4668 13.5374 5.4987 13.665 5.5625V6.73828ZM17.6641 12.1045C18.1152 12.1045 18.5094 11.9678 18.8467 11.6943C19.1839 11.4209 19.3708 11.0791 19.4072 10.6689H20.6035C20.5807 11.0928 20.4349 11.4961 20.166 11.8789C19.8971 12.2617 19.5371 12.5671 19.0859 12.7949C18.6393 13.0228 18.1654 13.1367 17.6641 13.1367C16.6569 13.1367 15.8548 12.8018 15.2578 12.1318C14.6654 11.4574 14.3691 10.5368 14.3691 9.37012V9.1582C14.3691 8.43815 14.5013 7.79785 14.7656 7.2373C15.0299 6.67676 15.4082 6.24154 15.9004 5.93164C16.3971 5.62174 16.9827 5.4668 17.6572 5.4668C18.4867 5.4668 19.1748 5.71517 19.7217 6.21191C20.2731 6.70866 20.5671 7.35352 20.6035 8.14648H19.4072C19.3708 7.66797 19.1885 7.27604 18.8604 6.9707C18.5368 6.66081 18.1357 6.50586 17.6572 6.50586C17.0146 6.50586 16.5156 6.73828 16.1602 7.20312C15.8092 7.66341 15.6338 8.33105 15.6338 9.20605V9.44531C15.6338 10.2975 15.8092 10.9538 16.1602 11.4141C16.5111 11.8743 17.0124 12.1045 17.6641 12.1045ZM24.9922 12.1045C25.4434 12.1045 25.8376 11.9678 26.1748 11.6943C26.512 11.4209 26.6989 11.0791 26.7354 10.6689H27.9316C27.9089 11.0928 27.763 11.4961 27.4941 11.8789C27.2253 12.2617 26.8652 12.5671 26.4141 12.7949C25.9674 13.0228 25.4935 13.1367 24.9922 13.1367C23.985 13.1367 23.1829 12.8018 22.5859 12.1318C21.9935 11.4574 21.6973 10.5368 21.6973 9.37012V9.1582C21.6973 8.43815 21.8294 7.79785 22.0938 7.2373C22.3581 6.67676 22.7363 6.24154 23.2285 5.93164C23.7253 5.62174 24.3109 5.4668 24.9854 5.4668C25.8148 5.4668 26.5029 5.71517 27.0498 6.21191C27.6012 6.70866 27.8952 7.35352 27.9316 8.14648H26.7354C26.6989 7.66797 26.5166 7.27604 26.1885 6.9707C25.8649 6.66081 25.4639 6.50586 24.9854 6.50586C24.3428 6.50586 23.8438 6.73828 23.4883 7.20312C23.1374 7.66341 22.9619 8.33105 22.9619 9.20605V9.44531C22.9619 10.2975 23.1374 10.9538 23.4883 11.4141C23.8392 11.8743 24.3405 12.1045 24.9922 12.1045ZM29.0186 9.2334C29.0186 8.50879 29.1598 7.8571 29.4424 7.27832C29.7295 6.69954 30.126 6.25293 30.6318 5.93848C31.1423 5.62402 31.7233 5.4668 32.375 5.4668C33.3822 5.4668 34.1956 5.81543 34.8154 6.5127C35.4398 7.20996 35.752 8.13737 35.752 9.29492V9.38379C35.752 10.1038 35.613 10.751 35.335 11.3252C35.0615 11.8949 34.6673 12.3392 34.1523 12.6582C33.6419 12.9772 33.054 13.1367 32.3887 13.1367C31.3861 13.1367 30.5726 12.7881 29.9482 12.0908C29.3285 11.3936 29.0186 10.4707 29.0186 9.32227V9.2334ZM30.29 9.38379C30.29 10.2041 30.4792 10.8626 30.8574 11.3594C31.2402 11.8561 31.7507 12.1045 32.3887 12.1045C33.0312 12.1045 33.5417 11.8538 33.9199 11.3525C34.2982 10.8467 34.4873 10.1403 34.4873 9.2334C34.4873 8.4222 34.2936 7.76595 33.9062 7.26465C33.5234 6.75879 33.013 6.50586 32.375 6.50586C31.7507 6.50586 31.2471 6.75423 30.8643 7.25098C30.4814 7.74772 30.29 8.45866 30.29 9.38379ZM41.6445 11.0381C41.6445 10.6963 41.5146 10.432 41.2549 10.2451C40.9997 10.0537 40.5508 9.88965 39.9082 9.75293C39.2702 9.61621 38.762 9.45215 38.3838 9.26074C38.0101 9.06934 37.7321 8.84147 37.5498 8.57715C37.3721 8.31283 37.2832 7.99837 37.2832 7.63379C37.2832 7.02767 37.5384 6.51497 38.0488 6.0957C38.5638 5.67643 39.2201 5.4668 40.0176 5.4668C40.8561 5.4668 41.5352 5.68327 42.0547 6.11621C42.5788 6.54915 42.8408 7.10286 42.8408 7.77734H41.5693C41.5693 7.43099 41.4212 7.13249 41.125 6.88184C40.8333 6.63118 40.4642 6.50586 40.0176 6.50586C39.5573 6.50586 39.1973 6.60612 38.9375 6.80664C38.6777 7.00716 38.5479 7.26921 38.5479 7.59277C38.5479 7.89811 38.6686 8.12826 38.9102 8.2832C39.1517 8.43815 39.5869 8.58626 40.2158 8.72754C40.8493 8.86882 41.362 9.03743 41.7539 9.2334C42.1458 9.42936 42.4352 9.66634 42.6221 9.94434C42.8135 10.2178 42.9092 10.5527 42.9092 10.9492C42.9092 11.61 42.6449 12.141 42.1162 12.542C41.5876 12.9385 40.9017 13.1367 40.0586 13.1367C39.4661 13.1367 38.9421 13.0319 38.4863 12.8223C38.0306 12.6126 37.6729 12.321 37.4131 11.9473C37.1579 11.569 37.0303 11.1611 37.0303 10.7236H38.2949C38.3177 11.1475 38.4863 11.4847 38.8008 11.7354C39.1198 11.9814 39.5391 12.1045 40.0586 12.1045C40.5371 12.1045 40.9199 12.0088 41.207 11.8174C41.4987 11.6214 41.6445 11.3617 41.6445 11.0381ZM44.5088 8.95996C44.5088 7.93001 44.6455 6.94108 44.9189 5.99316C45.1969 5.04525 45.6094 4.18392 46.1562 3.40918C46.7031 2.63444 47.2705 2.08757 47.8584 1.76855L48.1182 2.60254C47.4528 3.11296 46.9059 3.89225 46.4775 4.94043C46.0537 5.98861 45.8213 7.16211 45.7803 8.46094L45.7734 9.04199C45.7734 10.8011 46.0947 12.3278 46.7373 13.6221C47.1247 14.3968 47.585 15.0029 48.1182 15.4404L47.8584 16.2129C47.2523 15.8757 46.6735 15.3105 46.1221 14.5176C45.0465 12.9681 44.5088 11.1156 44.5088 8.95996ZM53.9082 12.2686C53.416 12.8473 52.6937 13.1367 51.7412 13.1367C50.9528 13.1367 50.3512 12.9089 49.9365 12.4531C49.5264 11.9928 49.319 11.3138 49.3145 10.416V5.60352H50.5791V10.3818C50.5791 11.5029 51.0348 12.0635 51.9463 12.0635C52.9124 12.0635 53.555 11.7035 53.874 10.9834V5.60352H55.1387V13H53.9355L53.9082 12.2686ZM59.9854 9.02832C59.9854 10.0446 59.8509 11.0199 59.582 11.9541C59.3177 12.8838 58.9098 13.7428 58.3584 14.5312C57.8115 15.3197 57.2373 15.8802 56.6357 16.2129L56.3691 15.4404C57.071 14.9027 57.6338 14.0687 58.0576 12.9385C58.486 11.8037 58.7048 10.5459 58.7139 9.16504V8.94629C58.7139 7.98926 58.6136 7.10059 58.4131 6.28027C58.2126 5.4554 57.9323 4.71712 57.5723 4.06543C57.2168 3.41374 56.8158 2.9056 56.3691 2.54102L56.6357 1.76855C57.2373 2.10124 57.8092 2.65723 58.3516 3.43652C58.8984 4.21582 59.3063 5.07487 59.5752 6.01367C59.8486 6.95247 59.9854 7.95736 59.9854 9.02832Z" fill="#41D17A"/>
<line y1="58" x2="164.305" y2="58" stroke="white" stroke-width="2"/>
<path d="M72.0547 36.1074H63.8984V33.3828H72.0547V36.1074ZM75.2363 27.1953H80.2461V36.1426C80.2461 37.5137 80.2988 38.5566 80.4043 39.2715C80.5098 39.9863 80.668 40.5254 80.8789 40.8887C81.0898 41.252 81.3887 41.5566 81.7754 41.8027C82.1621 42.0488 82.6953 42.1719 83.375 42.1719C83.8203 42.1719 84.248 42.084 84.6582 41.9082C85.0684 41.7324 85.5254 41.4277 86.0293 40.9941C86.5332 40.5488 86.8906 40.1094 87.1016 39.6758C87.3242 39.2422 87.4355 38.7383 87.4355 38.1641V31.5723C87.4355 30.9043 87.418 30.4004 87.3828 30.0605C87.3477 29.7207 87.2891 29.4512 87.207 29.252C87.125 29.041 87.0254 28.8711 86.9082 28.7422C86.8027 28.6133 86.6445 28.4961 86.4336 28.3906C86.2344 28.2852 85.9062 28.1738 85.4492 28.0566V27.1953H90.459V39.2012C90.459 40.1035 90.4766 40.7539 90.5117 41.1523C90.5469 41.5508 90.623 41.8672 90.7402 42.1016C90.8574 42.3359 91.0391 42.5293 91.2852 42.6816C91.5312 42.8223 91.9707 42.957 92.6035 43.0859V44L88.5781 44.1758H87.5059L87.6113 41.293L87.3477 41.2227C86.375 42.2773 85.4434 43.0508 84.5527 43.543C83.6738 44.0352 82.7891 44.2812 81.8984 44.2812C80.832 44.2812 79.9531 44.0703 79.2617 43.6484C78.5703 43.2266 78.0547 42.5996 77.7148 41.7676C77.375 40.9238 77.2051 39.7402 77.2051 38.2168V31.5723C77.2051 30.5879 77.1641 29.9141 77.082 29.5508C77.0117 29.1758 76.8652 28.8828 76.6426 28.6719C76.4316 28.4492 75.9629 28.2441 75.2363 28.0566V27.1953ZM99.5293 18.8457C99.6699 19.2324 99.7754 19.6543 99.8457 20.1113C99.9277 20.5684 99.9688 20.9844 99.9688 21.3594C99.9688 22.1328 99.8516 22.8184 99.6172 23.416C99.3828 24.0137 99.0078 24.623 98.4922 25.2441C97.9883 25.8535 97.2148 26.6152 96.1719 27.5293L95.0996 26.4746C95.6738 25.7832 96.0957 25.0859 96.3652 24.3828C96.6348 23.668 96.7695 22.8008 96.7695 21.7812C96.7695 21.4297 96.752 21.0547 96.7168 20.6562C96.6816 20.2578 96.5938 19.6543 96.4531 18.8457H99.5293Z" fill="white"/>
<path d="M35.3809 78.2129L41.5859 91.8535L50.2695 61.8477H54.752V64.1855H51.5703L42.1133 96.4941H40.4082L33.1309 80.8496L30.1602 82.168L29.6152 80.8496L35.3809 78.2129ZM64.877 90.4121C64.877 91.0918 64.9121 91.6074 64.9824 91.959C65.0645 92.2988 65.1992 92.5801 65.3867 92.8027C65.5859 93.0137 65.8672 93.1836 66.2305 93.3125C66.5938 93.4297 67.0508 93.5234 67.6016 93.5938C68.1523 93.6523 68.8789 93.6934 69.7812 93.7168V95H56.791V93.7168C58.0918 93.6582 59.0176 93.582 59.5684 93.4883C60.1309 93.3828 60.5586 93.2305 60.8516 93.0312C61.1445 92.832 61.3555 92.5508 61.4844 92.1875C61.625 91.8242 61.6953 91.2324 61.6953 90.4121V76.1562C61.6953 75.6875 61.6133 75.3477 61.4492 75.1367C61.2852 74.9141 61.0449 74.8027 60.7285 74.8027C60.3535 74.8027 59.8203 74.9961 59.1289 75.3828C58.4375 75.7695 57.582 76.3027 56.5625 76.9824L55.7891 75.6289L64.0156 70.7246H64.9824C64.9121 71.8496 64.877 73.4082 64.877 75.4004V90.4121ZM90.5938 87.1074H82.4375V84.3828H90.5938V87.1074ZM101.721 78.1953H106.73V87.1426C106.73 88.5137 106.783 89.5566 106.889 90.2715C106.994 90.9863 107.152 91.5254 107.363 91.8887C107.574 92.252 107.873 92.5566 108.26 92.8027C108.646 93.0488 109.18 93.1719 109.859 93.1719C110.305 93.1719 110.732 93.084 111.143 92.9082C111.553 92.7324 112.01 92.4277 112.514 91.9941C113.018 91.5488 113.375 91.1094 113.586 90.6758C113.809 90.2422 113.92 89.7383 113.92 89.1641V82.5723C113.92 81.9043 113.902 81.4004 113.867 81.0605C113.832 80.7207 113.773 80.4512 113.691 80.252C113.609 80.041 113.51 79.8711 113.393 79.7422C113.287 79.6133 113.129 79.4961 112.918 79.3906C112.719 79.2852 112.391 79.1738 111.934 79.0566V78.1953H116.943V90.2012C116.943 91.1035 116.961 91.7539 116.996 92.1523C117.031 92.5508 117.107 92.8672 117.225 93.1016C117.342 93.3359 117.523 93.5293 117.77 93.6816C118.016 93.8223 118.455 93.957 119.088 94.0859V95L115.062 95.1758H113.99L114.096 92.293L113.832 92.2227C112.859 93.2773 111.928 94.0508 111.037 94.543C110.158 95.0352 109.273 95.2812 108.383 95.2812C107.316 95.2812 106.438 95.0703 105.746 94.6484C105.055 94.2266 104.539 93.5996 104.199 92.7676C103.859 91.9238 103.689 90.7402 103.689 89.2168V82.5723C103.689 81.5879 103.648 80.9141 103.566 80.5508C103.496 80.1758 103.35 79.8828 103.127 79.6719C102.916 79.4492 102.447 79.2441 101.721 79.0566V78.1953ZM129.23 78.4414C129.641 78.4414 129.951 78.4238 130.162 78.3887C130.385 78.3418 130.561 78.2773 130.689 78.1953C130.818 78.1133 130.924 78.0078 131.006 77.8789C131.1 77.75 131.234 77.4688 131.41 77.0352H132.623L132.377 80.4277H122.076V79.7598C122.475 78.9043 123.014 78.0605 123.693 77.2285C124.373 76.3965 125.17 75.541 126.084 74.6621C127.174 73.6191 127.947 72.834 128.404 72.3066C128.861 71.7676 129.201 71.2637 129.424 70.7949C129.646 70.3145 129.758 69.834 129.758 69.3535C129.758 68.5566 129.529 67.9297 129.072 67.4727C128.627 67.0156 127.982 66.7871 127.139 66.7871C126.412 66.7871 125.791 66.9805 125.275 67.3672C124.771 67.7539 124.385 68.3223 124.115 69.0723H122.445V66.6992C123.488 66.2773 124.449 65.9785 125.328 65.8027C126.207 65.6152 126.986 65.5215 127.666 65.5215C128.592 65.5215 129.354 65.6211 129.951 65.8203C130.561 66.0195 131.047 66.2832 131.41 66.6113C131.773 66.9277 132.025 67.3027 132.166 67.7363C132.318 68.1699 132.395 68.6152 132.395 69.0723C132.395 69.6465 132.277 70.1855 132.043 70.6895C131.809 71.1816 131.422 71.7207 130.883 72.3066C130.355 72.8809 129.412 73.7832 128.053 75.0137C126.6 76.3379 125.545 77.4805 124.889 78.4414H129.23Z" fill="white"/>
</svg>
