<svg width="165" height="103" viewBox="0 0 165 103" fill="none" xmlns="http://www.w3.org/2000/svg">
<path d="M6.65137 10.4023H2.48145L1.54492 13H0.191406L3.99219 3.04688H5.14062L8.94824 13H7.60156L6.65137 10.4023ZM2.87793 9.32227H6.26172L4.56641 4.66699L2.87793 9.32227ZM13.665 6.73828C13.4736 6.70638 13.2663 6.69043 13.043 6.69043C12.2135 6.69043 11.6507 7.04362 11.3545 7.75V13H10.0898V5.60352H11.3203L11.3408 6.45801C11.7555 5.7972 12.3434 5.4668 13.1045 5.4668C13.3506 5.4668 13.5374 5.4987 13.665 5.5625V6.73828ZM17.6641 12.1045C18.1152 12.1045 18.5094 11.9678 18.8467 11.6943C19.1839 11.4209 19.3708 11.0791 19.4072 10.6689H20.6035C20.5807 11.0928 20.4349 11.4961 20.166 11.8789C19.8971 12.2617 19.5371 12.5671 19.0859 12.7949C18.6393 13.0228 18.1654 13.1367 17.6641 13.1367C16.6569 13.1367 15.8548 12.8018 15.2578 12.1318C14.6654 11.4574 14.3691 10.5368 14.3691 9.37012V9.1582C14.3691 8.43815 14.5013 7.79785 14.7656 7.2373C15.0299 6.67676 15.4082 6.24154 15.9004 5.93164C16.3971 5.62174 16.9827 5.4668 17.6572 5.4668C18.4867 5.4668 19.1748 5.71517 19.7217 6.21191C20.2731 6.70866 20.5671 7.35352 20.6035 8.14648H19.4072C19.3708 7.66797 19.1885 7.27604 18.8604 6.9707C18.5368 6.66081 18.1357 6.50586 17.6572 6.50586C17.0146 6.50586 16.5156 6.73828 16.1602 7.20312C15.8092 7.66341 15.6338 8.33105 15.6338 9.20605V9.44531C15.6338 10.2975 15.8092 10.9538 16.1602 11.4141C16.5111 11.8743 17.0124 12.1045 17.6641 12.1045ZM23.7412 3.8125V5.60352H25.1221V6.58105H23.7412V11.168C23.7412 11.4642 23.8027 11.6875 23.9258 11.8379C24.0488 11.9837 24.2585 12.0566 24.5547 12.0566C24.7005 12.0566 24.901 12.0293 25.1562 11.9746V13C24.8236 13.0911 24.5 13.1367 24.1855 13.1367C23.6204 13.1367 23.1943 12.9658 22.9072 12.624C22.6201 12.2822 22.4766 11.7969 22.4766 11.168V6.58105H21.1299V5.60352H22.4766V3.8125H23.7412ZM31.1719 13C31.099 12.8542 31.0397 12.5944 30.9941 12.2207C30.4062 12.8314 29.7044 13.1367 28.8887 13.1367C28.1595 13.1367 27.5602 12.9316 27.0908 12.5215C26.626 12.1068 26.3936 11.5827 26.3936 10.9492C26.3936 10.179 26.6852 9.58203 27.2686 9.1582C27.8564 8.72982 28.6813 8.51562 29.7432 8.51562H30.9736V7.93457C30.9736 7.49251 30.8415 7.1416 30.5771 6.88184C30.3128 6.61751 29.9232 6.48535 29.4082 6.48535C28.957 6.48535 28.5788 6.59928 28.2734 6.82715C27.9681 7.05501 27.8154 7.33073 27.8154 7.6543H26.5439C26.5439 7.28516 26.6738 6.92969 26.9336 6.58789C27.1979 6.24154 27.5534 5.9681 28 5.76758C28.4512 5.56706 28.9456 5.4668 29.4834 5.4668C30.3356 5.4668 31.0033 5.68099 31.4863 6.10938C31.9694 6.5332 32.2201 7.11882 32.2383 7.86621V11.2705C32.2383 11.9495 32.3249 12.4896 32.498 12.8906V13H31.1719ZM29.0732 12.0361C29.4697 12.0361 29.8457 11.9336 30.2012 11.7285C30.5566 11.5234 30.8141 11.2568 30.9736 10.9287V9.41113H29.9824C28.4329 9.41113 27.6582 9.86458 27.6582 10.7715C27.6582 11.168 27.7904 11.4779 28.0547 11.7012C28.319 11.9245 28.6585 12.0361 29.0732 12.0361ZM35.417 5.60352L35.458 6.5332C36.0231 5.82227 36.7614 5.4668 37.6729 5.4668C39.236 5.4668 40.0244 6.34863 40.0381 8.1123V13H38.7734V8.10547C38.7689 7.57227 38.6458 7.17806 38.4043 6.92285C38.1673 6.66764 37.7959 6.54004 37.29 6.54004C36.8799 6.54004 36.5199 6.64941 36.21 6.86816C35.9001 7.08691 35.6585 7.37402 35.4854 7.72949V13H34.2207V5.60352H35.417ZM41.8975 8.95996C41.8975 7.93001 42.0342 6.94108 42.3076 5.99316C42.5856 5.04525 42.998 4.18392 43.5449 3.40918C44.0918 2.63444 44.6592 2.08757 45.2471 1.76855L45.5068 2.60254C44.8415 3.11296 44.2946 3.89225 43.8662 4.94043C43.4424 5.98861 43.21 7.16211 43.1689 8.46094L43.1621 9.04199C43.1621 10.8011 43.4834 12.3278 44.126 13.6221C44.5133 14.3968 44.9736 15.0029 45.5068 15.4404L45.2471 16.2129C44.641 15.8757 44.0622 15.3105 43.5107 14.5176C42.4352 12.9681 41.8975 11.1156 41.8975 8.95996ZM51.2969 12.2686C50.8047 12.8473 50.0824 13.1367 49.1299 13.1367C48.3415 13.1367 47.7399 12.9089 47.3252 12.4531C46.915 11.9928 46.7077 11.3138 46.7031 10.416V5.60352H47.9678V10.3818C47.9678 11.5029 48.4235 12.0635 49.335 12.0635C50.3011 12.0635 50.9437 11.7035 51.2627 10.9834V5.60352H52.5273V13H51.3242L51.2969 12.2686ZM57.374 9.02832C57.374 10.0446 57.2396 11.0199 56.9707 11.9541C56.7064 12.8838 56.2985 13.7428 55.7471 14.5312C55.2002 15.3197 54.626 15.8802 54.0244 16.2129L53.7578 15.4404C54.4596 14.9027 55.0225 14.0687 55.4463 12.9385C55.8747 11.8037 56.0934 10.5459 56.1025 9.16504V8.94629C56.1025 7.98926 56.0023 7.10059 55.8018 6.28027C55.6012 5.4554 55.321 4.71712 54.9609 4.06543C54.6055 3.41374 54.2044 2.9056 53.7578 2.54102L54.0244 1.76855C54.626 2.10124 55.1979 2.65723 55.7402 3.43652C56.2871 4.21582 56.695 5.07487 56.9639 6.01367C57.2373 6.95247 57.374 7.95736 57.374 9.02832Z" fill="#41D17A"/>
<line y1="58" x2="164.305" y2="58" stroke="white" stroke-width="2"/>
<path d="M69.2832 31.1953H74.293V40.1426C74.293 41.5137 74.3457 42.5566 74.4512 43.2715C74.5566 43.9863 74.7148 44.5254 74.9258 44.8887C75.1367 45.252 75.4355 45.5566 75.8223 45.8027C76.209 46.0488 76.7422 46.1719 77.4219 46.1719C77.8672 46.1719 78.2949 46.084 78.7051 45.9082C79.1152 45.7324 79.5723 45.4277 80.0762 44.9941C80.5801 44.5488 80.9375 44.1094 81.1484 43.6758C81.3711 43.2422 81.4824 42.7383 81.4824 42.1641V35.5723C81.4824 34.9043 81.4648 34.4004 81.4297 34.0605C81.3945 33.7207 81.3359 33.4512 81.2539 33.252C81.1719 33.041 81.0723 32.8711 80.9551 32.7422C80.8496 32.6133 80.6914 32.4961 80.4805 32.3906C80.2812 32.2852 79.9531 32.1738 79.4961 32.0566V31.1953H84.5059V43.2012C84.5059 44.1035 84.5234 44.7539 84.5586 45.1523C84.5938 45.5508 84.6699 45.8672 84.7871 46.1016C84.9043 46.3359 85.0859 46.5293 85.332 46.6816C85.5781 46.8223 86.0176 46.957 86.6504 47.0859V48L82.625 48.1758H81.5527L81.6582 45.293L81.3945 45.2227C80.4219 46.2773 79.4902 47.0508 78.5996 47.543C77.7207 48.0352 76.8359 48.2812 75.9453 48.2812C74.8789 48.2812 74 48.0703 73.3086 47.6484C72.6172 47.2266 72.1016 46.5996 71.7617 45.7676C71.4219 44.9238 71.252 43.7402 71.252 42.2168V35.5723C71.252 34.5879 71.2109 33.9141 71.1289 33.5508C71.0586 33.1758 70.9121 32.8828 70.6895 32.6719C70.4785 32.4492 70.0098 32.2441 69.2832 32.0566V31.1953ZM93.5762 22.8457C93.7168 23.2324 93.8223 23.6543 93.8926 24.1113C93.9746 24.5684 94.0156 24.9844 94.0156 25.3594C94.0156 26.1328 93.8984 26.8184 93.6641 27.416C93.4297 28.0137 93.0547 28.623 92.5391 29.2441C92.0352 29.8535 91.2617 30.6152 90.2188 31.5293L89.1465 30.4746C89.7207 29.7832 90.1426 29.0859 90.4121 28.3828C90.6816 27.668 90.8164 26.8008 90.8164 25.7812C90.8164 25.4297 90.7988 25.0547 90.7637 24.6562C90.7285 24.2578 90.6406 23.6543 90.5 22.8457H93.5762Z" fill="white"/>
<path d="M45.2168 87.4121C45.2168 88.0918 45.252 88.6074 45.3223 88.959C45.4043 89.2988 45.5391 89.5801 45.7266 89.8027C45.9258 90.0137 46.207 90.1836 46.5703 90.3125C46.9336 90.4297 47.3906 90.5234 47.9414 90.5938C48.4922 90.6523 49.2188 90.6934 50.1211 90.7168V92H37.1309V90.7168C38.4316 90.6582 39.3574 90.582 39.9082 90.4883C40.4707 90.3828 40.8984 90.2305 41.1914 90.0312C41.4844 89.832 41.6953 89.5508 41.8242 89.1875C41.9648 88.8242 42.0352 88.2324 42.0352 87.4121V73.1562C42.0352 72.6875 41.9531 72.3477 41.7891 72.1367C41.625 71.9141 41.3848 71.8027 41.0684 71.8027C40.6934 71.8027 40.1602 71.9961 39.4688 72.3828C38.7773 72.7695 37.9219 73.3027 36.9023 73.9824L36.1289 72.6289L44.3555 67.7246H45.3223C45.252 68.8496 45.2168 70.4082 45.2168 72.4004V87.4121ZM75.5742 82.877V93.002H73.0781V82.877H63.498V80.5391H73.0781V70.4141H75.5742V80.5391H85.1543V82.877H75.5742ZM97.002 75.1953H102.012V84.1426C102.012 85.5137 102.064 86.5566 102.17 87.2715C102.275 87.9863 102.434 88.5254 102.645 88.8887C102.855 89.252 103.154 89.5566 103.541 89.8027C103.928 90.0488 104.461 90.1719 105.141 90.1719C105.586 90.1719 106.014 90.084 106.424 89.9082C106.834 89.7324 107.291 89.4277 107.795 88.9941C108.299 88.5488 108.656 88.1094 108.867 87.6758C109.09 87.2422 109.201 86.7383 109.201 86.1641V79.5723C109.201 78.9043 109.184 78.4004 109.148 78.0605C109.113 77.7207 109.055 77.4512 108.973 77.252C108.891 77.041 108.791 76.8711 108.674 76.7422C108.568 76.6133 108.41 76.4961 108.199 76.3906C108 76.2852 107.672 76.1738 107.215 76.0566V75.1953H112.225V87.2012C112.225 88.1035 112.242 88.7539 112.277 89.1523C112.312 89.5508 112.389 89.8672 112.506 90.1016C112.623 90.3359 112.805 90.5293 113.051 90.6816C113.297 90.8223 113.736 90.957 114.369 91.0859V92L110.344 92.1758H109.271L109.377 89.293L109.113 89.2227C108.141 90.2773 107.209 91.0508 106.318 91.543C105.439 92.0352 104.555 92.2812 103.664 92.2812C102.598 92.2812 101.719 92.0703 101.027 91.6484C100.336 91.2266 99.8203 90.5996 99.4805 89.7676C99.1406 88.9238 98.9707 87.7402 98.9707 86.2168V79.5723C98.9707 78.5879 98.9297 77.9141 98.8477 77.5508C98.7773 77.1758 98.6309 76.8828 98.4082 76.6719C98.1973 76.4492 97.7285 76.2441 97.002 76.0566V75.1953ZM124.512 75.4414C124.922 75.4414 125.232 75.4238 125.443 75.3887C125.666 75.3418 125.842 75.2773 125.971 75.1953C126.1 75.1133 126.205 75.0078 126.287 74.8789C126.381 74.75 126.516 74.4688 126.691 74.0352H127.904L127.658 77.4277H117.357V76.7598C117.756 75.9043 118.295 75.0605 118.975 74.2285C119.654 73.3965 120.451 72.541 121.365 71.6621C122.455 70.6191 123.229 69.834 123.686 69.3066C124.143 68.7676 124.482 68.2637 124.705 67.7949C124.928 67.3145 125.039 66.834 125.039 66.3535C125.039 65.5566 124.811 64.9297 124.354 64.4727C123.908 64.0156 123.264 63.7871 122.42 63.7871C121.693 63.7871 121.072 63.9805 120.557 64.3672C120.053 64.7539 119.666 65.3223 119.396 66.0723H117.727V63.6992C118.77 63.2773 119.73 62.9785 120.609 62.8027C121.488 62.6152 122.268 62.5215 122.947 62.5215C123.873 62.5215 124.635 62.6211 125.232 62.8203C125.842 63.0195 126.328 63.2832 126.691 63.6113C127.055 63.9277 127.307 64.3027 127.447 64.7363C127.6 65.1699 127.676 65.6152 127.676 66.0723C127.676 66.6465 127.559 67.1855 127.324 67.6895C127.09 68.1816 126.703 68.7207 126.164 69.3066C125.637 69.8809 124.693 70.7832 123.334 72.0137C121.881 73.3379 120.826 74.4805 120.17 75.4414H124.512Z" fill="white"/>
</svg>
