<svg width="165" height="103" viewBox="0 0 165 103" fill="none" xmlns="http://www.w3.org/2000/svg">
<path d="M6.65137 10.4023H2.48145L1.54492 13H0.191406L3.99219 3.04688H5.14062L8.94824 13H7.60156L6.65137 10.4023ZM2.87793 9.32227H6.26172L4.56641 4.66699L2.87793 9.32227ZM13.665 6.73828C13.4736 6.70638 13.2663 6.69043 13.043 6.69043C12.2135 6.69043 11.6507 7.04362 11.3545 7.75V13H10.0898V5.60352H11.3203L11.3408 6.45801C11.7555 5.7972 12.3434 5.4668 13.1045 5.4668C13.3506 5.4668 13.5374 5.4987 13.665 5.5625V6.73828ZM17.6641 12.1045C18.1152 12.1045 18.5094 11.9678 18.8467 11.6943C19.1839 11.4209 19.3708 11.0791 19.4072 10.6689H20.6035C20.5807 11.0928 20.4349 11.4961 20.166 11.8789C19.8971 12.2617 19.5371 12.5671 19.0859 12.7949C18.6393 13.0228 18.1654 13.1367 17.6641 13.1367C16.6569 13.1367 15.8548 12.8018 15.2578 12.1318C14.6654 11.4574 14.3691 10.5368 14.3691 9.37012V9.1582C14.3691 8.43815 14.5013 7.79785 14.7656 7.2373C15.0299 6.67676 15.4082 6.24154 15.9004 5.93164C16.3971 5.62174 16.9827 5.4668 17.6572 5.4668C18.4867 5.4668 19.1748 5.71517 19.7217 6.21191C20.2731 6.70866 20.5671 7.35352 20.6035 8.14648H19.4072C19.3708 7.66797 19.1885 7.27604 18.8604 6.9707C18.5368 6.66081 18.1357 6.50586 17.6572 6.50586C17.0146 6.50586 16.5156 6.73828 16.1602 7.20312C15.8092 7.66341 15.6338 8.33105 15.6338 9.20605V9.44531C15.6338 10.2975 15.8092 10.9538 16.1602 11.4141C16.5111 11.8743 17.0124 12.1045 17.6641 12.1045ZM24.9922 12.1045C25.4434 12.1045 25.8376 11.9678 26.1748 11.6943C26.512 11.4209 26.6989 11.0791 26.7354 10.6689H27.9316C27.9089 11.0928 27.763 11.4961 27.4941 11.8789C27.2253 12.2617 26.8652 12.5671 26.4141 12.7949C25.9674 13.0228 25.4935 13.1367 24.9922 13.1367C23.985 13.1367 23.1829 12.8018 22.5859 12.1318C21.9935 11.4574 21.6973 10.5368 21.6973 9.37012V9.1582C21.6973 8.43815 21.8294 7.79785 22.0938 7.2373C22.3581 6.67676 22.7363 6.24154 23.2285 5.93164C23.7253 5.62174 24.3109 5.4668 24.9854 5.4668C25.8148 5.4668 26.5029 5.71517 27.0498 6.21191C27.6012 6.70866 27.8952 7.35352 27.9316 8.14648H26.7354C26.6989 7.66797 26.5166 7.27604 26.1885 6.9707C25.8649 6.66081 25.4639 6.50586 24.9854 6.50586C24.3428 6.50586 23.8438 6.73828 23.4883 7.20312C23.1374 7.66341 22.9619 8.33105 22.9619 9.20605V9.44531C22.9619 10.2975 23.1374 10.9538 23.4883 11.4141C23.8392 11.8743 24.3405 12.1045 24.9922 12.1045ZM29.0186 9.2334C29.0186 8.50879 29.1598 7.8571 29.4424 7.27832C29.7295 6.69954 30.126 6.25293 30.6318 5.93848C31.1423 5.62402 31.7233 5.4668 32.375 5.4668C33.3822 5.4668 34.1956 5.81543 34.8154 6.5127C35.4398 7.20996 35.752 8.13737 35.752 9.29492V9.38379C35.752 10.1038 35.613 10.751 35.335 11.3252C35.0615 11.8949 34.6673 12.3392 34.1523 12.6582C33.6419 12.9772 33.054 13.1367 32.3887 13.1367C31.3861 13.1367 30.5726 12.7881 29.9482 12.0908C29.3285 11.3936 29.0186 10.4707 29.0186 9.32227V9.2334ZM30.29 9.38379C30.29 10.2041 30.4792 10.8626 30.8574 11.3594C31.2402 11.8561 31.7507 12.1045 32.3887 12.1045C33.0312 12.1045 33.5417 11.8538 33.9199 11.3525C34.2982 10.8467 34.4873 10.1403 34.4873 9.2334C34.4873 8.4222 34.2936 7.76595 33.9062 7.26465C33.5234 6.75879 33.013 6.50586 32.375 6.50586C31.7507 6.50586 31.2471 6.75423 30.8643 7.25098C30.4814 7.74772 30.29 8.45866 30.29 9.38379ZM39.0537 3.8125V5.60352H40.4346V6.58105H39.0537V11.168C39.0537 11.4642 39.1152 11.6875 39.2383 11.8379C39.3613 11.9837 39.571 12.0566 39.8672 12.0566C40.013 12.0566 40.2135 12.0293 40.4688 11.9746V13C40.1361 13.0911 39.8125 13.1367 39.498 13.1367C38.9329 13.1367 38.5068 12.9658 38.2197 12.624C37.9326 12.2822 37.7891 11.7969 37.7891 11.168V6.58105H36.4424V5.60352H37.7891V3.8125H39.0537ZM41.8701 8.95996C41.8701 7.93001 42.0068 6.94108 42.2803 5.99316C42.5583 5.04525 42.9707 4.18392 43.5176 3.40918C44.0645 2.63444 44.6318 2.08757 45.2197 1.76855L45.4795 2.60254C44.8141 3.11296 44.2673 3.89225 43.8389 4.94043C43.415 5.98861 43.1826 7.16211 43.1416 8.46094L43.1348 9.04199C43.1348 10.8011 43.4561 12.3278 44.0986 13.6221C44.486 14.3968 44.9463 15.0029 45.4795 15.4404L45.2197 16.2129C44.6136 15.8757 44.0348 15.3105 43.4834 14.5176C42.4079 12.9681 41.8701 11.1156 41.8701 8.95996ZM51.2695 12.2686C50.7773 12.8473 50.055 13.1367 49.1025 13.1367C48.3141 13.1367 47.7126 12.9089 47.2979 12.4531C46.8877 11.9928 46.6803 11.3138 46.6758 10.416V5.60352H47.9404V10.3818C47.9404 11.5029 48.3962 12.0635 49.3076 12.0635C50.2738 12.0635 50.9163 11.7035 51.2354 10.9834V5.60352H52.5V13H51.2969L51.2695 12.2686ZM57.3467 9.02832C57.3467 10.0446 57.2122 11.0199 56.9434 11.9541C56.679 12.8838 56.2712 13.7428 55.7197 14.5312C55.1729 15.3197 54.5986 15.8802 53.9971 16.2129L53.7305 15.4404C54.4323 14.9027 54.9951 14.0687 55.4189 12.9385C55.8473 11.8037 56.0661 10.5459 56.0752 9.16504V8.94629C56.0752 7.98926 55.9749 7.10059 55.7744 6.28027C55.5739 5.4554 55.2936 4.71712 54.9336 4.06543C54.5781 3.41374 54.1771 2.9056 53.7305 2.54102L53.9971 1.76855C54.5986 2.10124 55.1706 2.65723 55.7129 3.43652C56.2598 4.21582 56.6676 5.07487 56.9365 6.01367C57.21 6.95247 57.3467 7.95736 57.3467 9.02832Z" fill="#41D17A"/>
<line y1="58" x2="164.305" y2="58" stroke="white" stroke-width="2"/>
<path d="M72.0547 40.1074H63.8984V37.3828H72.0547V40.1074ZM75.2363 31.1953H80.2461V40.1426C80.2461 41.5137 80.2988 42.5566 80.4043 43.2715C80.5098 43.9863 80.668 44.5254 80.8789 44.8887C81.0898 45.252 81.3887 45.5566 81.7754 45.8027C82.1621 46.0488 82.6953 46.1719 83.375 46.1719C83.8203 46.1719 84.248 46.084 84.6582 45.9082C85.0684 45.7324 85.5254 45.4277 86.0293 44.9941C86.5332 44.5488 86.8906 44.1094 87.1016 43.6758C87.3242 43.2422 87.4355 42.7383 87.4355 42.1641V35.5723C87.4355 34.9043 87.418 34.4004 87.3828 34.0605C87.3477 33.7207 87.2891 33.4512 87.207 33.252C87.125 33.041 87.0254 32.8711 86.9082 32.7422C86.8027 32.6133 86.6445 32.4961 86.4336 32.3906C86.2344 32.2852 85.9062 32.1738 85.4492 32.0566V31.1953H90.459V43.2012C90.459 44.1035 90.4766 44.7539 90.5117 45.1523C90.5469 45.5508 90.623 45.8672 90.7402 46.1016C90.8574 46.3359 91.0391 46.5293 91.2852 46.6816C91.5312 46.8223 91.9707 46.957 92.6035 47.0859V48L88.5781 48.1758H87.5059L87.6113 45.293L87.3477 45.2227C86.375 46.2773 85.4434 47.0508 84.5527 47.543C83.6738 48.0352 82.7891 48.2812 81.8984 48.2812C80.832 48.2812 79.9531 48.0703 79.2617 47.6484C78.5703 47.2266 78.0547 46.5996 77.7148 45.7676C77.375 44.9238 77.2051 43.7402 77.2051 42.2168V35.5723C77.2051 34.5879 77.1641 33.9141 77.082 33.5508C77.0117 33.1758 76.8652 32.8828 76.6426 32.6719C76.4316 32.4492 75.9629 32.2441 75.2363 32.0566V31.1953ZM99.5293 22.8457C99.6699 23.2324 99.7754 23.6543 99.8457 24.1113C99.9277 24.5684 99.9688 24.9844 99.9688 25.3594C99.9688 26.1328 99.8516 26.8184 99.6172 27.416C99.3828 28.0137 99.0078 28.623 98.4922 29.2441C97.9883 29.8535 97.2148 30.6152 96.1719 31.5293L95.0996 30.4746C95.6738 29.7832 96.0957 29.0859 96.3652 28.3828C96.6348 27.668 96.7695 26.8008 96.7695 25.7812C96.7695 25.4297 96.752 25.0547 96.7168 24.6562C96.6816 24.2578 96.5938 23.6543 96.4531 22.8457H99.5293Z" fill="white"/>
<path d="M45.2168 87.4121C45.2168 88.0918 45.252 88.6074 45.3223 88.959C45.4043 89.2988 45.5391 89.5801 45.7266 89.8027C45.9258 90.0137 46.207 90.1836 46.5703 90.3125C46.9336 90.4297 47.3906 90.5234 47.9414 90.5938C48.4922 90.6523 49.2188 90.6934 50.1211 90.7168V92H37.1309V90.7168C38.4316 90.6582 39.3574 90.582 39.9082 90.4883C40.4707 90.3828 40.8984 90.2305 41.1914 90.0312C41.4844 89.832 41.6953 89.5508 41.8242 89.1875C41.9648 88.8242 42.0352 88.2324 42.0352 87.4121V73.1562C42.0352 72.6875 41.9531 72.3477 41.7891 72.1367C41.625 71.9141 41.3848 71.8027 41.0684 71.8027C40.6934 71.8027 40.1602 71.9961 39.4688 72.3828C38.7773 72.7695 37.9219 73.3027 36.9023 73.9824L36.1289 72.6289L44.3555 67.7246H45.3223C45.252 68.8496 45.2168 70.4082 45.2168 72.4004V87.4121ZM75.5742 82.877V93.002H73.0781V82.877H63.498V80.5391H73.0781V70.4141H75.5742V80.5391H85.1543V82.877H75.5742ZM97.002 75.1953H102.012V84.1426C102.012 85.5137 102.064 86.5566 102.17 87.2715C102.275 87.9863 102.434 88.5254 102.645 88.8887C102.855 89.252 103.154 89.5566 103.541 89.8027C103.928 90.0488 104.461 90.1719 105.141 90.1719C105.586 90.1719 106.014 90.084 106.424 89.9082C106.834 89.7324 107.291 89.4277 107.795 88.9941C108.299 88.5488 108.656 88.1094 108.867 87.6758C109.09 87.2422 109.201 86.7383 109.201 86.1641V79.5723C109.201 78.9043 109.184 78.4004 109.148 78.0605C109.113 77.7207 109.055 77.4512 108.973 77.252C108.891 77.041 108.791 76.8711 108.674 76.7422C108.568 76.6133 108.41 76.4961 108.199 76.3906C108 76.2852 107.672 76.1738 107.215 76.0566V75.1953H112.225V87.2012C112.225 88.1035 112.242 88.7539 112.277 89.1523C112.312 89.5508 112.389 89.8672 112.506 90.1016C112.623 90.3359 112.805 90.5293 113.051 90.6816C113.297 90.8223 113.736 90.957 114.369 91.0859V92L110.344 92.1758H109.271L109.377 89.293L109.113 89.2227C108.141 90.2773 107.209 91.0508 106.318 91.543C105.439 92.0352 104.555 92.2812 103.664 92.2812C102.598 92.2812 101.719 92.0703 101.027 91.6484C100.336 91.2266 99.8203 90.5996 99.4805 89.7676C99.1406 88.9238 98.9707 87.7402 98.9707 86.2168V79.5723C98.9707 78.5879 98.9297 77.9141 98.8477 77.5508C98.7773 77.1758 98.6309 76.8828 98.4082 76.6719C98.1973 76.4492 97.7285 76.2441 97.002 76.0566V75.1953ZM124.512 75.4414C124.922 75.4414 125.232 75.4238 125.443 75.3887C125.666 75.3418 125.842 75.2773 125.971 75.1953C126.1 75.1133 126.205 75.0078 126.287 74.8789C126.381 74.75 126.516 74.4688 126.691 74.0352H127.904L127.658 77.4277H117.357V76.7598C117.756 75.9043 118.295 75.0605 118.975 74.2285C119.654 73.3965 120.451 72.541 121.365 71.6621C122.455 70.6191 123.229 69.834 123.686 69.3066C124.143 68.7676 124.482 68.2637 124.705 67.7949C124.928 67.3145 125.039 66.834 125.039 66.3535C125.039 65.5566 124.811 64.9297 124.354 64.4727C123.908 64.0156 123.264 63.7871 122.42 63.7871C121.693 63.7871 121.072 63.9805 120.557 64.3672C120.053 64.7539 119.666 65.3223 119.396 66.0723H117.727V63.6992C118.77 63.2773 119.73 62.9785 120.609 62.8027C121.488 62.6152 122.268 62.5215 122.947 62.5215C123.873 62.5215 124.635 62.6211 125.232 62.8203C125.842 63.0195 126.328 63.2832 126.691 63.6113C127.055 63.9277 127.307 64.3027 127.447 64.7363C127.6 65.1699 127.676 65.6152 127.676 66.0723C127.676 66.6465 127.559 67.1855 127.324 67.6895C127.09 68.1816 126.703 68.7207 126.164 69.3066C125.637 69.8809 124.693 70.7832 123.334 72.0137C121.881 73.3379 120.826 74.4805 120.17 75.4414H124.512Z" fill="white"/>
</svg>
