<svg width="165" height="112" viewBox="0 0 165 112" fill="none" xmlns="http://www.w3.org/2000/svg">
<path d="M6.65137 10.4023H2.48145L1.54492 13H0.191406L3.99219 3.04688H5.14062L8.94824 13H7.60156L6.65137 10.4023ZM2.87793 9.32227H6.26172L4.56641 4.66699L2.87793 9.32227ZM13.665 6.73828C13.4736 6.70638 13.2663 6.69043 13.043 6.69043C12.2135 6.69043 11.6507 7.04362 11.3545 7.75V13H10.0898V5.60352H11.3203L11.3408 6.45801C11.7555 5.7972 12.3434 5.4668 13.1045 5.4668C13.3506 5.4668 13.5374 5.4987 13.665 5.5625V6.73828ZM17.6641 12.1045C18.1152 12.1045 18.5094 11.9678 18.8467 11.6943C19.1839 11.4209 19.3708 11.0791 19.4072 10.6689H20.6035C20.5807 11.0928 20.4349 11.4961 20.166 11.8789C19.8971 12.2617 19.5371 12.5671 19.0859 12.7949C18.6393 13.0228 18.1654 13.1367 17.6641 13.1367C16.6569 13.1367 15.8548 12.8018 15.2578 12.1318C14.6654 11.4574 14.3691 10.5368 14.3691 9.37012V9.1582C14.3691 8.43815 14.5013 7.79785 14.7656 7.2373C15.0299 6.67676 15.4082 6.24154 15.9004 5.93164C16.3971 5.62174 16.9827 5.4668 17.6572 5.4668C18.4867 5.4668 19.1748 5.71517 19.7217 6.21191C20.2731 6.70866 20.5671 7.35352 20.6035 8.14648H19.4072C19.3708 7.66797 19.1885 7.27604 18.8604 6.9707C18.5368 6.66081 18.1357 6.50586 17.6572 6.50586C17.0146 6.50586 16.5156 6.73828 16.1602 7.20312C15.8092 7.66341 15.6338 8.33105 15.6338 9.20605V9.44531C15.6338 10.2975 15.8092 10.9538 16.1602 11.4141C16.5111 11.8743 17.0124 12.1045 17.6641 12.1045ZM26.332 11.0381C26.332 10.6963 26.2021 10.432 25.9424 10.2451C25.6872 10.0537 25.2383 9.88965 24.5957 9.75293C23.9577 9.61621 23.4495 9.45215 23.0713 9.26074C22.6976 9.06934 22.4196 8.84147 22.2373 8.57715C22.0596 8.31283 21.9707 7.99837 21.9707 7.63379C21.9707 7.02767 22.2259 6.51497 22.7363 6.0957C23.2513 5.67643 23.9076 5.4668 24.7051 5.4668C25.5436 5.4668 26.2227 5.68327 26.7422 6.11621C27.2663 6.54915 27.5283 7.10286 27.5283 7.77734H26.2568C26.2568 7.43099 26.1087 7.13249 25.8125 6.88184C25.5208 6.63118 25.1517 6.50586 24.7051 6.50586C24.2448 6.50586 23.8848 6.60612 23.625 6.80664C23.3652 7.00716 23.2354 7.26921 23.2354 7.59277C23.2354 7.89811 23.3561 8.12826 23.5977 8.2832C23.8392 8.43815 24.2744 8.58626 24.9033 8.72754C25.5368 8.86882 26.0495 9.03743 26.4414 9.2334C26.8333 9.42936 27.1227 9.66634 27.3096 9.94434C27.501 10.2178 27.5967 10.5527 27.5967 10.9492C27.5967 11.61 27.3324 12.141 26.8037 12.542C26.2751 12.9385 25.5892 13.1367 24.7461 13.1367C24.1536 13.1367 23.6296 13.0319 23.1738 12.8223C22.7181 12.6126 22.3604 12.321 22.1006 11.9473C21.8454 11.569 21.7178 11.1611 21.7178 10.7236H22.9824C23.0052 11.1475 23.1738 11.4847 23.4883 11.7354C23.8073 11.9814 24.2266 12.1045 24.7461 12.1045C25.2246 12.1045 25.6074 12.0088 25.8945 11.8174C26.1862 11.6214 26.332 11.3617 26.332 11.0381ZM32.3135 13.1367C31.3109 13.1367 30.4951 12.8086 29.8662 12.1523C29.2373 11.4915 28.9229 10.6097 28.9229 9.50684V9.27441C28.9229 8.54069 29.0618 7.88672 29.3398 7.3125C29.6224 6.73372 30.0143 6.28255 30.5156 5.95898C31.0215 5.63086 31.5684 5.4668 32.1562 5.4668C33.1178 5.4668 33.8652 5.78353 34.3984 6.41699C34.9316 7.05046 35.1982 7.95736 35.1982 9.1377V9.66406H30.1875C30.2057 10.3932 30.4176 10.9834 30.8232 11.4346C31.2334 11.8812 31.7529 12.1045 32.3818 12.1045C32.8285 12.1045 33.2067 12.0133 33.5166 11.8311C33.8265 11.6488 34.0977 11.4072 34.3301 11.1064L35.1025 11.708C34.4827 12.6605 33.5531 13.1367 32.3135 13.1367ZM32.1562 6.50586C31.6458 6.50586 31.2174 6.69271 30.8711 7.06641C30.5247 7.43555 30.3105 7.95508 30.2285 8.625H33.9336V8.5293C33.8971 7.88672 33.724 7.38997 33.4141 7.03906C33.1042 6.68359 32.6849 6.50586 32.1562 6.50586ZM39.6348 12.1045C40.0859 12.1045 40.4801 11.9678 40.8174 11.6943C41.1546 11.4209 41.3415 11.0791 41.3779 10.6689H42.5742C42.5514 11.0928 42.4056 11.4961 42.1367 11.8789C41.8678 12.2617 41.5078 12.5671 41.0566 12.7949C40.61 13.0228 40.1361 13.1367 39.6348 13.1367C38.6276 13.1367 37.8255 12.8018 37.2285 12.1318C36.6361 11.4574 36.3398 10.5368 36.3398 9.37012V9.1582C36.3398 8.43815 36.472 7.79785 36.7363 7.2373C37.0007 6.67676 37.3789 6.24154 37.8711 5.93164C38.3678 5.62174 38.9535 5.4668 39.6279 5.4668C40.4574 5.4668 41.1455 5.71517 41.6924 6.21191C42.2438 6.70866 42.5378 7.35352 42.5742 8.14648H41.3779C41.3415 7.66797 41.1592 7.27604 40.8311 6.9707C40.5075 6.66081 40.1064 6.50586 39.6279 6.50586C38.9854 6.50586 38.4863 6.73828 38.1309 7.20312C37.7799 7.66341 37.6045 8.33105 37.6045 9.20605V9.44531C37.6045 10.2975 37.7799 10.9538 38.1309 11.4141C38.4818 11.8743 38.9831 12.1045 39.6348 12.1045ZM43.9482 8.95996C43.9482 7.93001 44.085 6.94108 44.3584 5.99316C44.6364 5.04525 45.0488 4.18392 45.5957 3.40918C46.1426 2.63444 46.71 2.08757 47.2979 1.76855L47.5576 2.60254C46.8923 3.11296 46.3454 3.89225 45.917 4.94043C45.4932 5.98861 45.2607 7.16211 45.2197 8.46094L45.2129 9.04199C45.2129 10.8011 45.5342 12.3278 46.1768 13.6221C46.5641 14.3968 47.0244 15.0029 47.5576 15.4404L47.2979 16.2129C46.6917 15.8757 46.113 15.3105 45.5615 14.5176C44.486 12.9681 43.9482 11.1156 43.9482 8.95996ZM53.3477 12.2686C52.8555 12.8473 52.1331 13.1367 51.1807 13.1367C50.3923 13.1367 49.7907 12.9089 49.376 12.4531C48.9658 11.9928 48.7585 11.3138 48.7539 10.416V5.60352H50.0186V10.3818C50.0186 11.5029 50.4743 12.0635 51.3857 12.0635C52.3519 12.0635 52.9945 11.7035 53.3135 10.9834V5.60352H54.5781V13H53.375L53.3477 12.2686ZM59.4248 9.02832C59.4248 10.0446 59.2904 11.0199 59.0215 11.9541C58.7572 12.8838 58.3493 13.7428 57.7979 14.5312C57.251 15.3197 56.6768 15.8802 56.0752 16.2129L55.8086 15.4404C56.5104 14.9027 57.0732 14.0687 57.4971 12.9385C57.9255 11.8037 58.1442 10.5459 58.1533 9.16504V8.94629C58.1533 7.98926 58.0531 7.10059 57.8525 6.28027C57.652 5.4554 57.3717 4.71712 57.0117 4.06543C56.6562 3.41374 56.2552 2.9056 55.8086 2.54102L56.0752 1.76855C56.6768 2.10124 57.2487 2.65723 57.791 3.43652C58.3379 4.21582 58.7458 5.07487 59.0146 6.01367C59.2881 6.95247 59.4248 7.95736 59.4248 9.02832Z" fill="#41D17A"/>
<line y1="58" x2="164.305" y2="58" stroke="white" stroke-width="2"/>
<path d="M69.2832 30.1953H74.293V39.1426C74.293 40.5137 74.3457 41.5566 74.4512 42.2715C74.5566 42.9863 74.7148 43.5254 74.9258 43.8887C75.1367 44.252 75.4355 44.5566 75.8223 44.8027C76.209 45.0488 76.7422 45.1719 77.4219 45.1719C77.8672 45.1719 78.2949 45.084 78.7051 44.9082C79.1152 44.7324 79.5723 44.4277 80.0762 43.9941C80.5801 43.5488 80.9375 43.1094 81.1484 42.6758C81.3711 42.2422 81.4824 41.7383 81.4824 41.1641V34.5723C81.4824 33.9043 81.4648 33.4004 81.4297 33.0605C81.3945 32.7207 81.3359 32.4512 81.2539 32.252C81.1719 32.041 81.0723 31.8711 80.9551 31.7422C80.8496 31.6133 80.6914 31.4961 80.4805 31.3906C80.2812 31.2852 79.9531 31.1738 79.4961 31.0566V30.1953H84.5059V42.2012C84.5059 43.1035 84.5234 43.7539 84.5586 44.1523C84.5938 44.5508 84.6699 44.8672 84.7871 45.1016C84.9043 45.3359 85.0859 45.5293 85.332 45.6816C85.5781 45.8223 86.0176 45.957 86.6504 46.0859V47L82.625 47.1758H81.5527L81.6582 44.293L81.3945 44.2227C80.4219 45.2773 79.4902 46.0508 78.5996 46.543C77.7207 47.0352 76.8359 47.2812 75.9453 47.2812C74.8789 47.2812 74 47.0703 73.3086 46.6484C72.6172 46.2266 72.1016 45.5996 71.7617 44.7676C71.4219 43.9238 71.252 42.7402 71.252 41.2168V34.5723C71.252 33.5879 71.2109 32.9141 71.1289 32.5508C71.0586 32.1758 70.9121 31.8828 70.6895 31.6719C70.4785 31.4492 70.0098 31.2441 69.2832 31.0566V30.1953ZM93.5762 21.8457C93.7168 22.2324 93.8223 22.6543 93.8926 23.1113C93.9746 23.5684 94.0156 23.9844 94.0156 24.3594C94.0156 25.1328 93.8984 25.8184 93.6641 26.416C93.4297 27.0137 93.0547 27.623 92.5391 28.2441C92.0352 28.8535 91.2617 29.6152 90.2188 30.5293L89.1465 29.4746C89.7207 28.7832 90.1426 28.0859 90.4121 27.3828C90.6816 26.668 90.8164 25.8008 90.8164 24.7812C90.8164 24.4297 90.7988 24.0547 90.7637 23.6562C90.7285 23.2578 90.6406 22.6543 90.5 21.8457H93.5762Z" fill="white"/>
<path d="M14.0488 108.559H11.3418V75.8457H14.0488V108.559ZM19.6738 84.1953H24.6836V93.1426C24.6836 94.5137 24.7363 95.5566 24.8418 96.2715C24.9473 96.9863 25.1055 97.5254 25.3164 97.8887C25.5273 98.252 25.8262 98.5566 26.2129 98.8027C26.5996 99.0488 27.1328 99.1719 27.8125 99.1719C28.2578 99.1719 28.6855 99.084 29.0957 98.9082C29.5059 98.7324 29.9629 98.4277 30.4668 97.9941C30.9707 97.5488 31.3281 97.1094 31.5391 96.6758C31.7617 96.2422 31.873 95.7383 31.873 95.1641V88.5723C31.873 87.9043 31.8555 87.4004 31.8203 87.0605C31.7852 86.7207 31.7266 86.4512 31.6445 86.252C31.5625 86.041 31.4629 85.8711 31.3457 85.7422C31.2402 85.6133 31.082 85.4961 30.8711 85.3906C30.6719 85.2852 30.3438 85.1738 29.8867 85.0566V84.1953H34.8965V96.2012C34.8965 97.1035 34.9141 97.7539 34.9492 98.1523C34.9844 98.5508 35.0605 98.8672 35.1777 99.1016C35.2949 99.3359 35.4766 99.5293 35.7227 99.6816C35.9688 99.8223 36.4082 99.957 37.041 100.086V101L33.0156 101.176H31.9434L32.0488 98.293L31.7852 98.2227C30.8125 99.2773 29.8809 100.051 28.9902 100.543C28.1113 101.035 27.2266 101.281 26.3359 101.281C25.2695 101.281 24.3906 101.07 23.6992 100.648C23.0078 100.227 22.4922 99.5996 22.1523 98.7676C21.8125 97.9238 21.6426 96.7402 21.6426 95.2168V88.5723C21.6426 87.5879 21.6016 86.9141 21.5195 86.5508C21.4492 86.1758 21.3027 85.8828 21.0801 85.6719C20.8691 85.4492 20.4004 85.2441 19.6738 85.0566V84.1953ZM45.3379 108.559H42.6309V75.8457H45.3379V108.559ZM56.0605 84.2129L62.2656 97.8535L70.9492 67.8477H75.4316V70.1855H72.25L62.793 102.494H61.0879L53.8105 86.8496L50.8398 88.168L50.2949 86.8496L56.0605 84.2129ZM74.623 84.1953H79.6328V93.1426C79.6328 94.5137 79.6855 95.5566 79.791 96.2715C79.8965 96.9863 80.0547 97.5254 80.2656 97.8887C80.4766 98.252 80.7754 98.5566 81.1621 98.8027C81.5488 99.0488 82.082 99.1719 82.7617 99.1719C83.207 99.1719 83.6348 99.084 84.0449 98.9082C84.4551 98.7324 84.9121 98.4277 85.416 97.9941C85.9199 97.5488 86.2773 97.1094 86.4883 96.6758C86.7109 96.2422 86.8223 95.7383 86.8223 95.1641V88.5723C86.8223 87.9043 86.8047 87.4004 86.7695 87.0605C86.7344 86.7207 86.6758 86.4512 86.5938 86.252C86.5117 86.041 86.4121 85.8711 86.2949 85.7422C86.1895 85.6133 86.0312 85.4961 85.8203 85.3906C85.6211 85.2852 85.293 85.1738 84.8359 85.0566V84.1953H89.8457V96.2012C89.8457 97.1035 89.8633 97.7539 89.8984 98.1523C89.9336 98.5508 90.0098 98.8672 90.127 99.1016C90.2441 99.3359 90.4258 99.5293 90.6719 99.6816C90.918 99.8223 91.3574 99.957 91.9902 100.086V101L87.9648 101.176H86.8926L86.998 98.293L86.7344 98.2227C85.7617 99.2773 84.8301 100.051 83.9395 100.543C83.0605 101.035 82.1758 101.281 81.2852 101.281C80.2188 101.281 79.3398 101.07 78.6484 100.648C77.957 100.227 77.4414 99.5996 77.1016 98.7676C76.7617 97.9238 76.5918 96.7402 76.5918 95.2168V88.5723C76.5918 87.5879 76.5508 86.9141 76.4688 86.5508C76.3984 86.1758 76.252 85.8828 76.0293 85.6719C75.8184 85.4492 75.3496 85.2441 74.623 85.0566V84.1953ZM102.133 84.4414C102.543 84.4414 102.854 84.4238 103.064 84.3887C103.287 84.3418 103.463 84.2773 103.592 84.1953C103.721 84.1133 103.826 84.0078 103.908 83.8789C104.002 83.75 104.137 83.4688 104.312 83.0352H105.525L105.279 86.4277H94.9785V85.7598C95.377 84.9043 95.916 84.0605 96.5957 83.2285C97.2754 82.3965 98.0723 81.541 98.9863 80.6621C100.076 79.6191 100.85 78.834 101.307 78.3066C101.764 77.7676 102.104 77.2637 102.326 76.7949C102.549 76.3145 102.66 75.834 102.66 75.3535C102.66 74.5566 102.432 73.9297 101.975 73.4727C101.529 73.0156 100.885 72.7871 100.041 72.7871C99.3145 72.7871 98.6934 72.9805 98.1777 73.3672C97.6738 73.7539 97.2871 74.3223 97.0176 75.0723H95.3477V72.6992C96.3906 72.2773 97.3516 71.9785 98.2305 71.8027C99.1094 71.6152 99.8887 71.5215 100.568 71.5215C101.494 71.5215 102.256 71.6211 102.854 71.8203C103.463 72.0195 103.949 72.2832 104.312 72.6113C104.676 72.9277 104.928 73.3027 105.068 73.7363C105.221 74.1699 105.297 74.6152 105.297 75.0723C105.297 75.6465 105.18 76.1855 104.945 76.6895C104.711 77.1816 104.324 77.7207 103.785 78.3066C103.258 78.8809 102.314 79.7832 100.955 81.0137C99.502 82.3379 98.4473 83.4805 97.791 84.4414H102.133ZM125.898 93.1074H117.742V90.3828H125.898V93.1074ZM147.959 96.4121C147.959 97.0918 147.994 97.6074 148.064 97.959C148.146 98.2988 148.281 98.5801 148.469 98.8027C148.668 99.0137 148.949 99.1836 149.312 99.3125C149.676 99.4297 150.133 99.5234 150.684 99.5938C151.234 99.6523 151.961 99.6934 152.863 99.7168V101H139.873V99.7168C141.174 99.6582 142.1 99.582 142.65 99.4883C143.213 99.3828 143.641 99.2305 143.934 99.0312C144.227 98.832 144.438 98.5508 144.566 98.1875C144.707 97.8242 144.777 97.2324 144.777 96.4121V82.1562C144.777 81.6875 144.695 81.3477 144.531 81.1367C144.367 80.9141 144.127 80.8027 143.811 80.8027C143.436 80.8027 142.902 80.9961 142.211 81.3828C141.52 81.7695 140.664 82.3027 139.645 82.9824L138.871 81.6289L147.098 76.7246H148.064C147.994 77.8496 147.959 79.4082 147.959 81.4004V96.4121Z" fill="white"/>
</svg>
