<svg width="419" height="87" viewBox="0 0 419 87" fill="none" xmlns="http://www.w3.org/2000/svg">
<line x1="179" y1="45" x2="219.025" y2="45" stroke="white" stroke-width="2"/>
<line x1="369" y1="45" x2="419" y2="45" stroke="white" stroke-width="2"/>
<path d="M234 44L211.5 56.9904V31.0096L234 44Z" fill="white"/>
<path d="M10.7402 39.9707H6.53906V50.6055C6.53906 51.3906 6.57422 51.9824 6.64453 52.3809C6.72656 52.7793 6.83789 53.084 6.97852 53.2949C7.13086 53.4941 7.32422 53.6582 7.55859 53.7871C7.80469 53.9043 8.19141 54.0215 8.71875 54.1387V55H1.5293V54.1387C2.04492 53.998 2.41406 53.8633 2.63672 53.7344C2.85938 53.6055 3.0293 53.4414 3.14648 53.2422C3.27539 53.043 3.36914 52.7559 3.42773 52.3809C3.48633 52.0059 3.51562 51.4141 3.51562 50.6055V39.9707H1.38867V39.0742C1.83398 39.0039 2.12695 38.9512 2.26758 38.916C2.41992 38.8691 2.56055 38.8047 2.68945 38.7227C2.83008 38.6406 2.94727 38.5234 3.04102 38.3711C3.14648 38.2188 3.23438 37.9961 3.30469 37.7031C3.38672 37.3984 3.45117 36.9766 3.49805 36.4375C3.60352 35.1602 3.83203 34.123 4.18359 33.3262C4.54688 32.5293 5.06836 31.8496 5.74805 31.2871C6.43945 30.7246 7.17188 30.332 7.94531 30.1094C8.73047 29.875 9.65039 29.7578 10.7051 29.7578C11.6309 29.7578 12.416 29.8223 13.0605 29.9512V33.1328H11.3203C11.0977 32.4414 10.834 31.9551 10.5293 31.6738C10.2363 31.3809 9.82031 31.2344 9.28125 31.2344C8.89453 31.2344 8.56641 31.2871 8.29688 31.3926C8.03906 31.498 7.79883 31.6621 7.57617 31.8848C7.35352 32.1074 7.16016 32.4062 6.99609 32.7812C6.84375 33.1562 6.72656 33.625 6.64453 34.1875C6.57422 34.7383 6.53906 35.459 6.53906 36.3496V38.1953H10.7402V39.9707ZM17.1035 46.1055C17.1035 50.207 17.7598 53.5879 19.0723 56.248C20.3965 58.9082 22.4121 60.6895 25.1191 61.5918L24.6973 62.9453C21.2637 62.043 18.6328 60.0977 16.8047 57.1094C14.9766 54.1328 14.0625 50.5234 14.0625 46.2812C14.0625 42.0508 14.9766 38.4414 16.8047 35.4531C18.6445 32.4531 21.2754 30.502 24.6973 29.5996L25.1719 30.9531C22.4297 31.8555 20.3965 33.6191 19.0723 36.2441C17.7598 38.8574 17.1035 42.1445 17.1035 46.1055ZM34.9805 44.8574L37.2656 41.957C37.5117 41.6406 37.7109 41.3359 37.8633 41.043C38.0156 40.7383 38.0918 40.4277 38.0918 40.1113C38.0918 39.8418 37.9922 39.6191 37.793 39.4434C37.5938 39.2676 37.2832 39.1387 36.8613 39.0566V38.1953H42.6094V39.0566C42.1641 39.1855 41.707 39.4375 41.2383 39.8125C40.7812 40.1875 40.2188 40.791 39.5508 41.623L35.9121 46.0879L39.9199 51.4844C40.4941 52.2578 41.0098 52.8496 41.4668 53.2598C41.9238 53.6699 42.3809 53.9629 42.8379 54.1387V55H35.7715V54.1387C36.7441 54.0215 37.2305 53.6582 37.2305 53.0488C37.2305 52.8027 37.1895 52.5684 37.1074 52.3457C37.0254 52.123 36.873 51.8652 36.6504 51.5723L34.1016 48.0215L31.3945 51.5371C31.1953 51.7949 31.0371 52.0352 30.9199 52.2578C30.8145 52.4688 30.7617 52.709 30.7617 52.9785C30.7617 53.2949 30.8672 53.5586 31.0781 53.7695C31.3008 53.9688 31.6465 54.0918 32.1152 54.1387V55H26.2441V54.1387C26.6309 53.998 26.9766 53.8223 27.2812 53.6113C27.5977 53.4004 27.9141 53.1309 28.2305 52.8027C28.5586 52.4629 28.9863 51.9707 29.5137 51.3262L33.1699 46.791L29.4258 41.6582C28.9102 40.9551 28.5 40.4453 28.1953 40.1289C27.8906 39.8125 27.6094 39.5723 27.3516 39.4082C27.0938 39.2441 26.8359 39.127 26.5781 39.0566V38.1953H33.4688V39.0566C32.543 39.1973 32.0801 39.5605 32.0801 40.1465C32.0801 40.416 32.1387 40.6855 32.2559 40.9551C32.3848 41.2246 32.5781 41.5234 32.8359 41.8516L34.9805 44.8574ZM51.9785 46.1055C51.9785 42.1445 51.3223 38.8574 50.0098 36.2441C48.6973 33.6191 46.6641 31.8555 43.9102 30.9531L44.3848 29.5996C47.8066 30.502 50.4316 32.4531 52.2598 35.4531C54.0996 38.4414 55.0195 42.0508 55.0195 46.2812C55.0195 50.5234 54.1055 54.1328 52.2773 57.1094C50.4492 60.0977 47.8184 62.043 44.3848 62.9453L43.9629 61.5918C46.6699 60.6895 48.6797 58.9082 49.9922 56.248C51.3164 53.5879 51.9785 50.207 51.9785 46.1055ZM68.748 42.2383V39.9004H90.4043V42.2383H68.748ZM68.748 49.5332V47.1953H90.4043V49.5332H68.748ZM108.439 53.3828H113.045C113.549 53.3828 113.971 53.3535 114.311 53.2949C114.65 53.2363 114.938 53.1484 115.172 53.0312C115.418 52.9023 115.635 52.7324 115.822 52.5215C116.021 52.2988 116.209 52.0117 116.385 51.6602C116.561 51.3086 116.725 50.8691 116.877 50.3418C117.041 49.8027 117.24 49 117.475 47.9336H119.25L118.898 55H103.096V54.1387C103.822 53.9512 104.309 53.7461 104.555 53.5234C104.801 53.2891 104.959 52.9609 105.029 52.5391C105.111 52.1172 105.152 51.4727 105.152 50.6055V35.4004C105.152 34.5918 105.123 34.0059 105.064 33.6426C105.006 33.2676 104.906 32.9805 104.766 32.7812C104.637 32.5703 104.461 32.4062 104.238 32.2891C104.016 32.1602 103.635 32.0195 103.096 31.8672V31.0059H110.496V31.8672C109.98 32.0078 109.611 32.1367 109.389 32.2539C109.178 32.3594 109.002 32.5059 108.861 32.6934C108.721 32.8809 108.615 33.168 108.545 33.5547C108.475 33.9414 108.439 34.5566 108.439 35.4004V53.3828ZM139.131 55H132.205V54.1387C132.662 53.998 132.99 53.875 133.189 53.7695C133.389 53.6641 133.553 53.5176 133.682 53.3301C133.822 53.1426 133.928 52.8555 133.998 52.4688C134.08 52.0703 134.121 51.4727 134.121 50.6758V46.0703C134.121 45.25 134.098 44.5059 134.051 43.8379C134.004 43.1699 133.922 42.625 133.805 42.2031C133.699 41.7695 133.564 41.4355 133.4 41.2012C133.248 40.9551 133.061 40.75 132.838 40.5859C132.627 40.4102 132.381 40.2754 132.1 40.1816C131.818 40.0762 131.449 40.0234 130.992 40.0234C130.535 40.0234 130.102 40.1172 129.691 40.3047C129.281 40.4805 128.83 40.791 128.338 41.2363C127.846 41.6816 127.488 42.1211 127.266 42.5547C127.043 42.9883 126.932 43.4863 126.932 44.0488V50.6055C126.932 51.6133 126.979 52.3164 127.072 52.7148C127.166 53.1016 127.342 53.4004 127.6 53.6113C127.869 53.8105 128.303 53.9863 128.9 54.1387V55H122.01V54.1387C122.467 53.998 122.789 53.875 122.977 53.7695C123.176 53.6641 123.34 53.5176 123.469 53.3301C123.609 53.1426 123.715 52.8555 123.785 52.4688C123.867 52.082 123.908 51.4785 123.908 50.6582V42.9941C123.908 42.2441 123.896 41.6406 123.873 41.1836C123.85 40.7266 123.768 40.3633 123.627 40.0938C123.486 39.8125 123.27 39.6074 122.977 39.4785C122.695 39.3379 122.291 39.2207 121.764 39.127V38.1953L125.877 38.0371H126.949L126.756 40.9023L127.002 40.9727C127.869 40.0938 128.566 39.4668 129.094 39.0918C129.633 38.7168 130.172 38.4297 130.711 38.2305C131.262 38.0195 131.842 37.9141 132.451 37.9141C133.084 37.9141 133.646 37.9902 134.139 38.1426C134.643 38.2832 135.082 38.5059 135.457 38.8105C135.844 39.1152 136.16 39.4961 136.406 39.9531C136.652 40.3984 136.834 40.9375 136.951 41.5703C137.08 42.2031 137.145 43.0059 137.145 43.9785V50.6055C137.145 51.4141 137.168 52 137.215 52.3633C137.262 52.7266 137.344 53.0078 137.461 53.207C137.578 53.4062 137.748 53.5762 137.971 53.7168C138.193 53.8457 138.58 53.9863 139.131 54.1387V55Z" fill="white"/>
<path d="M141.697 38.1953H146.707V47.1426C146.707 48.5137 146.76 49.5566 146.865 50.2715C146.971 50.9863 147.129 51.5254 147.34 51.8887C147.551 52.252 147.85 52.5566 148.236 52.8027C148.623 53.0488 149.156 53.1719 149.836 53.1719C150.281 53.1719 150.709 53.084 151.119 52.9082C151.529 52.7324 151.986 52.4277 152.49 51.9941C152.994 51.5488 153.352 51.1094 153.562 50.6758C153.785 50.2422 153.896 49.7383 153.896 49.1641V42.5723C153.896 41.9043 153.879 41.4004 153.844 41.0605C153.809 40.7207 153.75 40.4512 153.668 40.252C153.586 40.041 153.486 39.8711 153.369 39.7422C153.264 39.6133 153.105 39.4961 152.895 39.3906C152.695 39.2852 152.367 39.1738 151.91 39.0566V38.1953H156.92V50.2012C156.92 51.1035 156.938 51.7539 156.973 52.1523C157.008 52.5508 157.084 52.8672 157.201 53.1016C157.318 53.3359 157.5 53.5293 157.746 53.6816C157.992 53.8223 158.432 53.957 159.064 54.0859V55L155.039 55.1758H153.967L154.072 52.293L153.809 52.2227C152.836 53.2773 151.904 54.0508 151.014 54.543C150.135 55.0352 149.25 55.2812 148.359 55.2812C147.293 55.2812 146.414 55.0703 145.723 54.6484C145.031 54.2266 144.516 53.5996 144.176 52.7676C143.836 51.9238 143.666 50.7402 143.666 49.2168V42.5723C143.666 41.5879 143.625 40.9141 143.543 40.5508C143.473 40.1758 143.326 39.8828 143.104 39.6719C142.893 39.4492 142.424 39.2441 141.697 39.0566V38.1953Z" fill="#FF8B8B"/>
<path d="M383.283 14.1953H388.293V23.1426C388.293 24.5137 388.346 25.5566 388.451 26.2715C388.557 26.9863 388.715 27.5254 388.926 27.8887C389.137 28.252 389.436 28.5566 389.822 28.8027C390.209 29.0488 390.742 29.1719 391.422 29.1719C391.867 29.1719 392.295 29.084 392.705 28.9082C393.115 28.7324 393.572 28.4277 394.076 27.9941C394.58 27.5488 394.938 27.1094 395.148 26.6758C395.371 26.2422 395.482 25.7383 395.482 25.1641V18.5723C395.482 17.9043 395.465 17.4004 395.43 17.0605C395.395 16.7207 395.336 16.4512 395.254 16.252C395.172 16.041 395.072 15.8711 394.955 15.7422C394.85 15.6133 394.691 15.4961 394.48 15.3906C394.281 15.2852 393.953 15.1738 393.496 15.0566V14.1953H398.506V26.2012C398.506 27.1035 398.523 27.7539 398.559 28.1523C398.594 28.5508 398.67 28.8672 398.787 29.1016C398.904 29.3359 399.086 29.5293 399.332 29.6816C399.578 29.8223 400.018 29.957 400.65 30.0859V31L396.625 31.1758H395.553L395.658 28.293L395.395 28.2227C394.422 29.2773 393.49 30.0508 392.6 30.543C391.721 31.0352 390.836 31.2812 389.945 31.2812C388.879 31.2812 388 31.0703 387.309 30.6484C386.617 30.2266 386.102 29.5996 385.762 28.7676C385.422 27.9238 385.252 26.7402 385.252 25.2168V18.5723C385.252 17.5879 385.211 16.9141 385.129 16.5508C385.059 16.1758 384.912 15.8828 384.689 15.6719C384.479 15.4492 384.01 15.2441 383.283 15.0566V14.1953ZM407.576 5.8457C407.717 6.23242 407.822 6.6543 407.893 7.11133C407.975 7.56836 408.016 7.98438 408.016 8.35938C408.016 9.13281 407.898 9.81836 407.664 10.416C407.43 11.0137 407.055 11.623 406.539 12.2441C406.035 12.8535 405.262 13.6152 404.219 14.5293L403.146 13.4746C403.721 12.7832 404.143 12.0859 404.412 11.3828C404.682 10.668 404.816 9.80078 404.816 8.78125C404.816 8.42969 404.799 8.05469 404.764 7.65625C404.729 7.25781 404.641 6.6543 404.5 5.8457H407.576Z" fill="#FF8B8B"/>
<path d="M383.283 59.1953H388.293V68.1426C388.293 69.5137 388.346 70.5566 388.451 71.2715C388.557 71.9863 388.715 72.5254 388.926 72.8887C389.137 73.252 389.436 73.5566 389.822 73.8027C390.209 74.0488 390.742 74.1719 391.422 74.1719C391.867 74.1719 392.295 74.084 392.705 73.9082C393.115 73.7324 393.572 73.4277 394.076 72.9941C394.58 72.5488 394.938 72.1094 395.148 71.6758C395.371 71.2422 395.482 70.7383 395.482 70.1641V63.5723C395.482 62.9043 395.465 62.4004 395.43 62.0605C395.395 61.7207 395.336 61.4512 395.254 61.252C395.172 61.041 395.072 60.8711 394.955 60.7422C394.85 60.6133 394.691 60.4961 394.48 60.3906C394.281 60.2852 393.953 60.1738 393.496 60.0566V59.1953H398.506V71.2012C398.506 72.1035 398.523 72.7539 398.559 73.1523C398.594 73.5508 398.67 73.8672 398.787 74.1016C398.904 74.3359 399.086 74.5293 399.332 74.6816C399.578 74.8223 400.018 74.957 400.65 75.0859V76L396.625 76.1758H395.553L395.658 73.293L395.395 73.2227C394.422 74.2773 393.49 75.0508 392.6 75.543C391.721 76.0352 390.836 76.2812 389.945 76.2812C388.879 76.2812 388 76.0703 387.309 75.6484C386.617 75.2266 386.102 74.5996 385.762 73.7676C385.422 72.9238 385.252 71.7402 385.252 70.2168V63.5723C385.252 62.5879 385.211 61.9141 385.129 61.5508C385.059 61.1758 384.912 60.8828 384.689 60.6719C384.479 60.4492 384.01 60.2441 383.283 60.0566V59.1953Z" fill="#FF8B8B"/>
<path d="M265.74 36.9707H261.539V47.6055C261.539 48.3906 261.574 48.9824 261.645 49.3809C261.727 49.7793 261.838 50.084 261.979 50.2949C262.131 50.4941 262.324 50.6582 262.559 50.7871C262.805 50.9043 263.191 51.0215 263.719 51.1387V52H256.529V51.1387C257.045 50.998 257.414 50.8633 257.637 50.7344C257.859 50.6055 258.029 50.4414 258.146 50.2422C258.275 50.043 258.369 49.7559 258.428 49.3809C258.486 49.0059 258.516 48.4141 258.516 47.6055V36.9707H256.389V36.0742C256.834 36.0039 257.127 35.9512 257.268 35.916C257.42 35.8691 257.561 35.8047 257.689 35.7227C257.83 35.6406 257.947 35.5234 258.041 35.3711C258.146 35.2188 258.234 34.9961 258.305 34.7031C258.387 34.3984 258.451 33.9766 258.498 33.4375C258.604 32.1602 258.832 31.123 259.184 30.3262C259.547 29.5293 260.068 28.8496 260.748 28.2871C261.439 27.7246 262.172 27.332 262.945 27.1094C263.73 26.875 264.65 26.7578 265.705 26.7578C266.631 26.7578 267.416 26.8223 268.061 26.9512V30.1328H266.32C266.098 29.4414 265.834 28.9551 265.529 28.6738C265.236 28.3809 264.82 28.2344 264.281 28.2344C263.895 28.2344 263.566 28.2871 263.297 28.3926C263.039 28.498 262.799 28.6621 262.576 28.8848C262.354 29.1074 262.16 29.4062 261.996 29.7812C261.844 30.1562 261.727 30.625 261.645 31.1875C261.574 31.7383 261.539 32.459 261.539 33.3496V35.1953H265.74V36.9707ZM274.564 26.8457C274.705 27.2324 274.811 27.6543 274.881 28.1113C274.963 28.5684 275.004 28.9844 275.004 29.3594C275.004 30.1328 274.887 30.8184 274.652 31.416C274.418 32.0137 274.043 32.623 273.527 33.2441C273.023 33.8535 272.25 34.6152 271.207 35.5293L270.135 34.4746C270.709 33.7832 271.131 33.0859 271.4 32.3828C271.67 31.668 271.805 30.8008 271.805 29.7812C271.805 29.4297 271.787 29.0547 271.752 28.6562C271.717 28.2578 271.629 27.6543 271.488 26.8457H274.564ZM283.072 43.1055C283.072 47.207 283.729 50.5879 285.041 53.248C286.365 55.9082 288.381 57.6895 291.088 58.5918L290.666 59.9453C287.232 59.043 284.602 57.0977 282.773 54.1094C280.945 51.1328 280.031 47.5234 280.031 43.2812C280.031 39.0508 280.945 35.4414 282.773 32.4531C284.613 29.4531 287.244 27.502 290.666 26.5996L291.141 27.9531C288.398 28.8555 286.365 30.6191 285.041 33.2441C283.729 35.8574 283.072 39.1445 283.072 43.1055ZM300.949 41.8574L303.234 38.957C303.48 38.6406 303.68 38.3359 303.832 38.043C303.984 37.7383 304.061 37.4277 304.061 37.1113C304.061 36.8418 303.961 36.6191 303.762 36.4434C303.562 36.2676 303.252 36.1387 302.83 36.0566V35.1953H308.578V36.0566C308.133 36.1855 307.676 36.4375 307.207 36.8125C306.75 37.1875 306.188 37.791 305.52 38.623L301.881 43.0879L305.889 48.4844C306.463 49.2578 306.979 49.8496 307.436 50.2598C307.893 50.6699 308.35 50.9629 308.807 51.1387V52H301.74V51.1387C302.713 51.0215 303.199 50.6582 303.199 50.0488C303.199 49.8027 303.158 49.5684 303.076 49.3457C302.994 49.123 302.842 48.8652 302.619 48.5723L300.07 45.0215L297.363 48.5371C297.164 48.7949 297.006 49.0352 296.889 49.2578C296.783 49.4688 296.73 49.709 296.73 49.9785C296.73 50.2949 296.836 50.5586 297.047 50.7695C297.27 50.9688 297.615 51.0918 298.084 51.1387V52H292.213V51.1387C292.6 50.998 292.945 50.8223 293.25 50.6113C293.566 50.4004 293.883 50.1309 294.199 49.8027C294.527 49.4629 294.955 48.9707 295.482 48.3262L299.139 43.791L295.395 38.6582C294.879 37.9551 294.469 37.4453 294.164 37.1289C293.859 36.8125 293.578 36.5723 293.32 36.4082C293.062 36.2441 292.805 36.127 292.547 36.0566V35.1953H299.438V36.0566C298.512 36.1973 298.049 36.5605 298.049 37.1465C298.049 37.416 298.107 37.6855 298.225 37.9551C298.354 38.2246 298.547 38.5234 298.805 38.8516L300.949 41.8574ZM317.947 43.1055C317.947 39.1445 317.291 35.8574 315.979 33.2441C314.666 30.6191 312.633 28.8555 309.879 27.9531L310.354 26.5996C313.775 27.502 316.4 29.4531 318.229 32.4531C320.068 35.4414 320.988 39.0508 320.988 43.2812C320.988 47.5234 320.074 51.1328 318.246 54.1094C316.418 57.0977 313.787 59.043 310.354 59.9453L309.932 58.5918C312.639 57.6895 314.648 55.9082 315.961 53.248C317.285 50.5879 317.947 47.207 317.947 43.1055ZM334.717 39.2383V36.9004H356.373V39.2383H334.717ZM334.717 46.5332V44.1953H356.373V46.5332H334.717Z" fill="white"/>
</svg>
