<svg width="423" height="74" viewBox="0 0 423 74" fill="none" xmlns="http://www.w3.org/2000/svg">
<path d="M10.7402 46.9707H6.53906V57.6055C6.53906 58.3906 6.57422 58.9824 6.64453 59.3809C6.72656 59.7793 6.83789 60.084 6.97852 60.2949C7.13086 60.4941 7.32422 60.6582 7.55859 60.7871C7.80469 60.9043 8.19141 61.0215 8.71875 61.1387V62H1.5293V61.1387C2.04492 60.998 2.41406 60.8633 2.63672 60.7344C2.85938 60.6055 3.0293 60.4414 3.14648 60.2422C3.27539 60.043 3.36914 59.7559 3.42773 59.3809C3.48633 59.0059 3.51562 58.4141 3.51562 57.6055V46.9707H1.38867V46.0742C1.83398 46.0039 2.12695 45.9512 2.26758 45.916C2.41992 45.8691 2.56055 45.8047 2.68945 45.7227C2.83008 45.6406 2.94727 45.5234 3.04102 45.3711C3.14648 45.2188 3.23438 44.9961 3.30469 44.7031C3.38672 44.3984 3.45117 43.9766 3.49805 43.4375C3.60352 42.1602 3.83203 41.123 4.18359 40.3262C4.54688 39.5293 5.06836 38.8496 5.74805 38.2871C6.43945 37.7246 7.17188 37.332 7.94531 37.1094C8.73047 36.875 9.65039 36.7578 10.7051 36.7578C11.6309 36.7578 12.416 36.8223 13.0605 36.9512V40.1328H11.3203C11.0977 39.4414 10.834 38.9551 10.5293 38.6738C10.2363 38.3809 9.82031 38.2344 9.28125 38.2344C8.89453 38.2344 8.56641 38.2871 8.29688 38.3926C8.03906 38.498 7.79883 38.6621 7.57617 38.8848C7.35352 39.1074 7.16016 39.4062 6.99609 39.7812C6.84375 40.1562 6.72656 40.625 6.64453 41.1875C6.57422 41.7383 6.53906 42.459 6.53906 43.3496V45.1953H10.7402V46.9707ZM17.1035 53.1055C17.1035 57.207 17.7598 60.5879 19.0723 63.248C20.3965 65.9082 22.4121 67.6895 25.1191 68.5918L24.6973 69.9453C21.2637 69.043 18.6328 67.0977 16.8047 64.1094C14.9766 61.1328 14.0625 57.5234 14.0625 53.2812C14.0625 49.0508 14.9766 45.4414 16.8047 42.4531C18.6445 39.4531 21.2754 37.502 24.6973 36.5996L25.1719 37.9531C22.4297 38.8555 20.3965 40.6191 19.0723 43.2441C17.7598 45.8574 17.1035 49.1445 17.1035 53.1055ZM34.9805 51.8574L37.2656 48.957C37.5117 48.6406 37.7109 48.3359 37.8633 48.043C38.0156 47.7383 38.0918 47.4277 38.0918 47.1113C38.0918 46.8418 37.9922 46.6191 37.793 46.4434C37.5938 46.2676 37.2832 46.1387 36.8613 46.0566V45.1953H42.6094V46.0566C42.1641 46.1855 41.707 46.4375 41.2383 46.8125C40.7812 47.1875 40.2188 47.791 39.5508 48.623L35.9121 53.0879L39.9199 58.4844C40.4941 59.2578 41.0098 59.8496 41.4668 60.2598C41.9238 60.6699 42.3809 60.9629 42.8379 61.1387V62H35.7715V61.1387C36.7441 61.0215 37.2305 60.6582 37.2305 60.0488C37.2305 59.8027 37.1895 59.5684 37.1074 59.3457C37.0254 59.123 36.873 58.8652 36.6504 58.5723L34.1016 55.0215L31.3945 58.5371C31.1953 58.7949 31.0371 59.0352 30.9199 59.2578C30.8145 59.4688 30.7617 59.709 30.7617 59.9785C30.7617 60.2949 30.8672 60.5586 31.0781 60.7695C31.3008 60.9688 31.6465 61.0918 32.1152 61.1387V62H26.2441V61.1387C26.6309 60.998 26.9766 60.8223 27.2812 60.6113C27.5977 60.4004 27.9141 60.1309 28.2305 59.8027C28.5586 59.4629 28.9863 58.9707 29.5137 58.3262L33.1699 53.791L29.4258 48.6582C28.9102 47.9551 28.5 47.4453 28.1953 47.1289C27.8906 46.8125 27.6094 46.5723 27.3516 46.4082C27.0938 46.2441 26.8359 46.127 26.5781 46.0566V45.1953H33.4688V46.0566C32.543 46.1973 32.0801 46.5605 32.0801 47.1465C32.0801 47.416 32.1387 47.6855 32.2559 47.9551C32.3848 48.2246 32.5781 48.5234 32.8359 48.8516L34.9805 51.8574ZM51.9785 53.1055C51.9785 49.1445 51.3223 45.8574 50.0098 43.2441C48.6973 40.6191 46.6641 38.8555 43.9102 37.9531L44.3848 36.5996C47.8066 37.502 50.4316 39.4531 52.2598 42.4531C54.0996 45.4414 55.0195 49.0508 55.0195 53.2812C55.0195 57.5234 54.1055 61.1328 52.2773 64.1094C50.4492 67.0977 47.8184 69.043 44.3848 69.9453L43.9629 68.5918C46.6699 67.6895 48.6797 65.9082 49.9922 63.248C51.3164 60.5879 51.9785 57.207 51.9785 53.1055ZM68.748 49.2383V46.9004H90.4043V49.2383H68.748ZM68.748 56.5332V54.1953H90.4043V56.5332H68.748ZM114.451 49.0449H112.764C112.506 48.3418 112.201 47.791 111.85 47.3926C111.498 46.9824 111.1 46.6953 110.654 46.5312C110.209 46.3672 109.664 46.2852 109.02 46.2852C108.082 46.2852 107.332 46.5078 106.77 46.9531C106.219 47.3867 105.943 47.9844 105.943 48.7461C105.943 49.2852 106.055 49.7305 106.277 50.082C106.5 50.4336 106.846 50.7617 107.314 51.0664C107.783 51.3711 108.609 51.7754 109.793 52.2793C110.988 52.7949 111.908 53.2695 112.553 53.7031C113.209 54.1367 113.719 54.6406 114.082 55.2148C114.457 55.7891 114.645 56.4746 114.645 57.2715C114.645 58.1973 114.486 58.9766 114.17 59.6094C113.854 60.2422 113.408 60.7578 112.834 61.1562C112.26 61.5547 111.574 61.8418 110.777 62.0176C109.992 62.1934 109.131 62.2812 108.193 62.2812C107.209 62.2812 106.254 62.2051 105.328 62.0527C104.402 61.9121 103.5 61.7246 102.621 61.4902V57.8164H104.344C104.66 58.8945 105.129 59.6797 105.75 60.1719C106.371 60.6523 107.227 60.8926 108.316 60.8926C108.738 60.8926 109.148 60.8516 109.547 60.7695C109.957 60.6758 110.32 60.5293 110.637 60.3301C110.953 60.1191 111.205 59.8379 111.393 59.4863C111.58 59.1348 111.674 58.6953 111.674 58.168C111.674 57.5703 111.557 57.084 111.322 56.709C111.088 56.334 110.725 55.9941 110.232 55.6895C109.74 55.373 108.873 54.9512 107.631 54.4238C106.564 53.9785 105.709 53.5449 105.064 53.123C104.42 52.7012 103.91 52.2031 103.535 51.6289C103.172 51.0547 102.99 50.375 102.99 49.5898C102.99 48.6289 103.248 47.7969 103.764 47.0938C104.291 46.3789 105.047 45.834 106.031 45.459C107.016 45.084 108.17 44.8965 109.494 44.8965C110.268 44.8965 111.012 44.9375 111.727 45.0195C112.453 45.0898 113.361 45.2363 114.451 45.459V49.0449ZM123.17 38.3047V41.7148H119.936V38.3047H123.17ZM118.143 61.1387C118.6 60.998 118.922 60.875 119.109 60.7695C119.309 60.6641 119.473 60.5176 119.602 60.3301C119.742 60.1426 119.848 59.8555 119.918 59.4688C120 59.082 120.041 58.4785 120.041 57.6582V49.9941C120.041 49.2441 120.029 48.6406 120.006 48.1836C119.982 47.7266 119.9 47.3633 119.76 47.0938C119.619 46.8125 119.402 46.6074 119.109 46.4785C118.828 46.3379 118.424 46.2207 117.896 46.127V45.1953L121.992 45.0371H123.064V57.6055C123.064 58.6133 123.111 59.3164 123.205 59.7148C123.299 60.1016 123.475 60.4004 123.732 60.6113C124.002 60.8105 124.436 60.9863 125.033 61.1387V62H118.143V61.1387ZM145.283 62H138.357V61.1387C138.814 60.998 139.143 60.875 139.342 60.7695C139.541 60.6641 139.705 60.5176 139.834 60.3301C139.975 60.1426 140.08 59.8555 140.15 59.4688C140.232 59.0703 140.273 58.4727 140.273 57.6758V53.0703C140.273 52.25 140.25 51.5059 140.203 50.8379C140.156 50.1699 140.074 49.625 139.957 49.2031C139.852 48.7695 139.717 48.4355 139.553 48.2012C139.4 47.9551 139.213 47.75 138.99 47.5859C138.779 47.4102 138.533 47.2754 138.252 47.1816C137.971 47.0762 137.602 47.0234 137.145 47.0234C136.688 47.0234 136.254 47.1172 135.844 47.3047C135.434 47.4805 134.982 47.791 134.49 48.2363C133.998 48.6816 133.641 49.1211 133.418 49.5547C133.195 49.9883 133.084 50.4863 133.084 51.0488V57.6055C133.084 58.6133 133.131 59.3164 133.225 59.7148C133.318 60.1016 133.494 60.4004 133.752 60.6113C134.021 60.8105 134.455 60.9863 135.053 61.1387V62H128.162V61.1387C128.619 60.998 128.941 60.875 129.129 60.7695C129.328 60.6641 129.492 60.5176 129.621 60.3301C129.762 60.1426 129.867 59.8555 129.938 59.4688C130.02 59.082 130.061 58.4785 130.061 57.6582V49.9941C130.061 49.2441 130.049 48.6406 130.025 48.1836C130.002 47.7266 129.92 47.3633 129.779 47.0938C129.639 46.8125 129.422 46.6074 129.129 46.4785C128.848 46.3379 128.443 46.2207 127.916 46.127V45.1953L132.029 45.0371H133.102L132.908 47.9023L133.154 47.9727C134.021 47.0938 134.719 46.4668 135.246 46.0918C135.785 45.7168 136.324 45.4297 136.863 45.2305C137.414 45.0195 137.994 44.9141 138.604 44.9141C139.236 44.9141 139.799 44.9902 140.291 45.1426C140.795 45.2832 141.234 45.5059 141.609 45.8105C141.996 46.1152 142.312 46.4961 142.559 46.9531C142.805 47.3984 142.986 47.9375 143.104 48.5703C143.232 49.2031 143.297 50.0059 143.297 50.9785V57.6055C143.297 58.4141 143.32 59 143.367 59.3633C143.414 59.7266 143.496 60.0078 143.613 60.207C143.73 60.4062 143.9 60.5762 144.123 60.7168C144.346 60.8457 144.732 60.9863 145.283 61.1387V62ZM155.707 51.8574L157.992 48.957C158.238 48.6406 158.438 48.3359 158.59 48.043C158.742 47.7383 158.818 47.4277 158.818 47.1113C158.818 46.8418 158.719 46.6191 158.52 46.4434C158.32 46.2676 158.01 46.1387 157.588 46.0566V45.1953H163.336V46.0566C162.891 46.1855 162.434 46.4375 161.965 46.8125C161.508 47.1875 160.945 47.791 160.277 48.623L156.639 53.0879L160.646 58.4844C161.221 59.2578 161.736 59.8496 162.193 60.2598C162.65 60.6699 163.107 60.9629 163.564 61.1387V62H156.498V61.1387C157.471 61.0215 157.957 60.6582 157.957 60.0488C157.957 59.8027 157.916 59.5684 157.834 59.3457C157.752 59.123 157.6 58.8652 157.377 58.5723L154.828 55.0215L152.121 58.5371C151.922 58.7949 151.764 59.0352 151.646 59.2578C151.541 59.4688 151.488 59.709 151.488 59.9785C151.488 60.2949 151.594 60.5586 151.805 60.7695C152.027 60.9688 152.373 61.0918 152.842 61.1387V62H146.971V61.1387C147.357 60.998 147.703 60.8223 148.008 60.6113C148.324 60.4004 148.641 60.1309 148.957 59.8027C149.285 59.4629 149.713 58.9707 150.24 58.3262L153.896 53.791L150.152 48.6582C149.637 47.9551 149.227 47.4453 148.922 47.1289C148.617 46.8125 148.336 46.5723 148.078 46.4082C147.82 46.2441 147.562 46.127 147.305 46.0566V45.1953H154.195V46.0566C153.27 46.1973 152.807 46.5605 152.807 47.1465C152.807 47.416 152.865 47.6855 152.982 47.9551C153.111 48.2246 153.305 48.5234 153.562 48.8516L155.707 51.8574ZM181.969 54.1074H173.812V51.3828H181.969V54.1074ZM186.486 62.6328V59.9961L205.576 51.7168L186.486 43.4375V40.8008L208.213 50.4863V52.9473L186.486 62.6328Z" fill="white"/>
<path d="M229.518 46.9707H225.316V57.6055C225.316 58.3906 225.352 58.9824 225.422 59.3809C225.504 59.7793 225.615 60.084 225.756 60.2949C225.908 60.4941 226.102 60.6582 226.336 60.7871C226.582 60.9043 226.969 61.0215 227.496 61.1387V62H220.307V61.1387C220.822 60.998 221.191 60.8633 221.414 60.7344C221.637 60.6055 221.807 60.4414 221.924 60.2422C222.053 60.043 222.146 59.7559 222.205 59.3809C222.264 59.0059 222.293 58.4141 222.293 57.6055V46.9707H220.166V46.0742C220.611 46.0039 220.904 45.9512 221.045 45.916C221.197 45.8691 221.338 45.8047 221.467 45.7227C221.607 45.6406 221.725 45.5234 221.818 45.3711C221.924 45.2188 222.012 44.9961 222.082 44.7031C222.164 44.3984 222.229 43.9766 222.275 43.4375C222.381 42.1602 222.609 41.123 222.961 40.3262C223.324 39.5293 223.846 38.8496 224.525 38.2871C225.217 37.7246 225.949 37.332 226.723 37.1094C227.508 36.875 228.428 36.7578 229.482 36.7578C230.408 36.7578 231.193 36.8223 231.838 36.9512V40.1328H230.098C229.875 39.4414 229.611 38.9551 229.307 38.6738C229.014 38.3809 228.598 38.2344 228.059 38.2344C227.672 38.2344 227.344 38.2871 227.074 38.3926C226.816 38.498 226.576 38.6621 226.354 38.8848C226.131 39.1074 225.938 39.4062 225.773 39.7812C225.621 40.1562 225.504 40.625 225.422 41.1875C225.352 41.7383 225.316 42.459 225.316 43.3496V45.1953H229.518V46.9707ZM238.342 36.8457C238.482 37.2324 238.588 37.6543 238.658 38.1113C238.74 38.5684 238.781 38.9844 238.781 39.3594C238.781 40.1328 238.664 40.8184 238.43 41.416C238.195 42.0137 237.82 42.623 237.305 43.2441C236.801 43.8535 236.027 44.6152 234.984 45.5293L233.912 44.4746C234.486 43.7832 234.908 43.0859 235.178 42.3828C235.447 41.668 235.582 40.8008 235.582 39.7812C235.582 39.4297 235.564 39.0547 235.529 38.6562C235.494 38.2578 235.406 37.6543 235.266 36.8457H238.342ZM246.85 53.1055C246.85 57.207 247.506 60.5879 248.818 63.248C250.143 65.9082 252.158 67.6895 254.865 68.5918L254.443 69.9453C251.01 69.043 248.379 67.0977 246.551 64.1094C244.723 61.1328 243.809 57.5234 243.809 53.2812C243.809 49.0508 244.723 45.4414 246.551 42.4531C248.391 39.4531 251.021 37.502 254.443 36.5996L254.918 37.9531C252.176 38.8555 250.143 40.6191 248.818 43.2441C247.506 45.8574 246.85 49.1445 246.85 53.1055ZM264.727 51.8574L267.012 48.957C267.258 48.6406 267.457 48.3359 267.609 48.043C267.762 47.7383 267.838 47.4277 267.838 47.1113C267.838 46.8418 267.738 46.6191 267.539 46.4434C267.34 46.2676 267.029 46.1387 266.607 46.0566V45.1953H272.355V46.0566C271.91 46.1855 271.453 46.4375 270.984 46.8125C270.527 47.1875 269.965 47.791 269.297 48.623L265.658 53.0879L269.666 58.4844C270.24 59.2578 270.756 59.8496 271.213 60.2598C271.67 60.6699 272.127 60.9629 272.584 61.1387V62H265.518V61.1387C266.49 61.0215 266.977 60.6582 266.977 60.0488C266.977 59.8027 266.936 59.5684 266.854 59.3457C266.771 59.123 266.619 58.8652 266.396 58.5723L263.848 55.0215L261.141 58.5371C260.941 58.7949 260.783 59.0352 260.666 59.2578C260.561 59.4688 260.508 59.709 260.508 59.9785C260.508 60.2949 260.613 60.5586 260.824 60.7695C261.047 60.9688 261.393 61.0918 261.861 61.1387V62H255.99V61.1387C256.377 60.998 256.723 60.8223 257.027 60.6113C257.344 60.4004 257.66 60.1309 257.977 59.8027C258.305 59.4629 258.732 58.9707 259.26 58.3262L262.916 53.791L259.172 48.6582C258.656 47.9551 258.246 47.4453 257.941 47.1289C257.637 46.8125 257.355 46.5723 257.098 46.4082C256.84 46.2441 256.582 46.127 256.324 46.0566V45.1953H263.215V46.0566C262.289 46.1973 261.826 46.5605 261.826 47.1465C261.826 47.416 261.885 47.6855 262.002 47.9551C262.131 48.2246 262.324 48.5234 262.582 48.8516L264.727 51.8574ZM281.725 53.1055C281.725 49.1445 281.068 45.8574 279.756 43.2441C278.443 40.6191 276.41 38.8555 273.656 37.9531L274.131 36.5996C277.553 37.502 280.178 39.4531 282.006 42.4531C283.846 45.4414 284.766 49.0508 284.766 53.2812C284.766 57.5234 283.852 61.1328 282.023 64.1094C280.195 67.0977 277.564 69.043 274.131 69.9453L273.709 68.5918C276.416 67.6895 278.426 65.9082 279.738 63.248C281.062 60.5879 281.725 57.207 281.725 53.1055ZM298.494 49.2383V46.9004H320.15V49.2383H298.494ZM298.494 56.5332V54.1953H320.15V56.5332H298.494ZM345.516 45.5996V49.2734H343.283C343.084 48.5117 342.838 47.9141 342.545 47.4805C342.252 47.0352 341.912 46.7246 341.525 46.5488C341.139 46.373 340.658 46.2852 340.084 46.2852C339.264 46.2852 338.537 46.5488 337.904 47.0762C337.271 47.6035 336.768 48.4062 336.393 49.4844C336.029 50.5625 335.848 51.8809 335.848 53.4395C335.848 54.4355 335.918 55.3496 336.059 56.1816C336.199 57.002 336.439 57.7051 336.779 58.291C337.119 58.877 337.57 59.334 338.133 59.6621C338.695 59.9902 339.393 60.1543 340.225 60.1543C341.033 60.1543 341.783 59.9961 342.475 59.6797C343.178 59.3633 343.904 58.8066 344.654 58.0098L345.656 59.1699C345.059 59.8262 344.531 60.3359 344.074 60.6992C343.617 61.0508 343.125 61.3496 342.598 61.5957C342.082 61.8301 341.566 62 341.051 62.1055C340.547 62.2227 339.996 62.2812 339.398 62.2812C337.184 62.2812 335.49 61.5488 334.318 60.084C333.146 58.6074 332.561 56.4805 332.561 53.7031C332.561 51.9688 332.889 50.4336 333.545 49.0977C334.201 47.75 335.121 46.7129 336.305 45.9863C337.488 45.2598 338.854 44.8965 340.4 44.8965C341.361 44.8965 342.246 44.9551 343.055 45.0723C343.875 45.1777 344.695 45.3535 345.516 45.5996ZM355.957 62.2812C353.52 62.2812 351.656 61.5664 350.367 60.1367C349.09 58.6953 348.451 56.5684 348.451 53.7559C348.451 51.8223 348.785 50.1875 349.453 48.8516C350.133 47.5156 351.059 46.5254 352.23 45.8809C353.402 45.2246 354.738 44.8965 356.238 44.8965C358.746 44.8965 360.645 45.6289 361.934 47.0938C363.223 48.5469 363.867 50.6387 363.867 53.3691C363.867 55.3145 363.545 56.9551 362.9 58.291C362.256 59.627 361.342 60.6289 360.158 61.2969C358.975 61.9531 357.574 62.2812 355.957 62.2812ZM351.773 53.3867C351.773 55.8008 352.154 57.6582 352.916 58.959C353.689 60.248 354.791 60.8926 356.221 60.8926C357.006 60.8926 357.674 60.7051 358.225 60.3301C358.775 59.9434 359.221 59.4277 359.561 58.7832C359.912 58.1387 360.164 57.3945 360.316 56.5508C360.469 55.6953 360.545 54.8047 360.545 53.8789C360.545 52.1562 360.352 50.7266 359.965 49.5898C359.59 48.4531 359.074 47.6211 358.418 47.0938C357.762 46.5547 357.012 46.2852 356.168 46.2852C354.75 46.2852 353.66 46.9004 352.898 48.1309C352.148 49.3613 351.773 51.1133 351.773 53.3867ZM379.213 49.0449H377.525C377.268 48.3418 376.963 47.791 376.611 47.3926C376.26 46.9824 375.861 46.6953 375.416 46.5312C374.971 46.3672 374.426 46.2852 373.781 46.2852C372.844 46.2852 372.094 46.5078 371.531 46.9531C370.98 47.3867 370.705 47.9844 370.705 48.7461C370.705 49.2852 370.816 49.7305 371.039 50.082C371.262 50.4336 371.607 50.7617 372.076 51.0664C372.545 51.3711 373.371 51.7754 374.555 52.2793C375.75 52.7949 376.67 53.2695 377.314 53.7031C377.971 54.1367 378.48 54.6406 378.844 55.2148C379.219 55.7891 379.406 56.4746 379.406 57.2715C379.406 58.1973 379.248 58.9766 378.932 59.6094C378.615 60.2422 378.17 60.7578 377.596 61.1562C377.021 61.5547 376.336 61.8418 375.539 62.0176C374.754 62.1934 373.893 62.2812 372.955 62.2812C371.971 62.2812 371.016 62.2051 370.09 62.0527C369.164 61.9121 368.262 61.7246 367.383 61.4902V57.8164H369.105C369.422 58.8945 369.891 59.6797 370.512 60.1719C371.133 60.6523 371.988 60.8926 373.078 60.8926C373.5 60.8926 373.91 60.8516 374.309 60.7695C374.719 60.6758 375.082 60.5293 375.398 60.3301C375.715 60.1191 375.967 59.8379 376.154 59.4863C376.342 59.1348 376.436 58.6953 376.436 58.168C376.436 57.5703 376.318 57.084 376.084 56.709C375.85 56.334 375.486 55.9941 374.994 55.6895C374.502 55.373 373.635 54.9512 372.393 54.4238C371.326 53.9785 370.471 53.5449 369.826 53.123C369.182 52.7012 368.672 52.2031 368.297 51.6289C367.934 51.0547 367.752 50.375 367.752 49.5898C367.752 48.6289 368.01 47.7969 368.525 47.0938C369.053 46.3789 369.809 45.834 370.793 45.459C371.777 45.084 372.932 44.8965 374.256 44.8965C375.029 44.8965 375.773 44.9375 376.488 45.0195C377.215 45.0898 378.123 45.2363 379.213 45.459V49.0449ZM390.059 51.8574L392.344 48.957C392.59 48.6406 392.789 48.3359 392.941 48.043C393.094 47.7383 393.17 47.4277 393.17 47.1113C393.17 46.8418 393.07 46.6191 392.871 46.4434C392.672 46.2676 392.361 46.1387 391.939 46.0566V45.1953H397.688V46.0566C397.242 46.1855 396.785 46.4375 396.316 46.8125C395.859 47.1875 395.297 47.791 394.629 48.623L390.99 53.0879L394.998 58.4844C395.572 59.2578 396.088 59.8496 396.545 60.2598C397.002 60.6699 397.459 60.9629 397.916 61.1387V62H390.85V61.1387C391.822 61.0215 392.309 60.6582 392.309 60.0488C392.309 59.8027 392.268 59.5684 392.186 59.3457C392.104 59.123 391.951 58.8652 391.729 58.5723L389.18 55.0215L386.473 58.5371C386.273 58.7949 386.115 59.0352 385.998 59.2578C385.893 59.4688 385.84 59.709 385.84 59.9785C385.84 60.2949 385.945 60.5586 386.156 60.7695C386.379 60.9688 386.725 61.0918 387.193 61.1387V62H381.322V61.1387C381.709 60.998 382.055 60.8223 382.359 60.6113C382.676 60.4004 382.992 60.1309 383.309 59.8027C383.637 59.4629 384.064 58.9707 384.592 58.3262L388.248 53.791L384.504 48.6582C383.988 47.9551 383.578 47.4453 383.273 47.1289C382.969 46.8125 382.688 46.5723 382.43 46.4082C382.172 46.2441 381.914 46.127 381.656 46.0566V45.1953H388.547V46.0566C387.621 46.1973 387.158 46.5605 387.158 47.1465C387.158 47.416 387.217 47.6855 387.334 47.9551C387.463 48.2246 387.656 48.5234 387.914 48.8516L390.059 51.8574Z" fill="#FF8B8B"/>
<path d="M4.08789 8.56348C2.96224 8.23991 2.14193 7.84342 1.62695 7.37402C1.11654 6.90007 0.861328 6.31673 0.861328 5.62402C0.861328 4.84017 1.1735 4.19303 1.79785 3.68262C2.42676 3.16764 3.24251 2.91016 4.24512 2.91016C4.92871 2.91016 5.53711 3.04232 6.07031 3.30664C6.60807 3.57096 7.02279 3.93555 7.31445 4.40039C7.61068 4.86523 7.75879 5.37337 7.75879 5.9248H6.43945C6.43945 5.32324 6.24805 4.85156 5.86523 4.50977C5.48242 4.16341 4.94238 3.99023 4.24512 3.99023C3.59798 3.99023 3.09212 4.13379 2.72754 4.4209C2.36751 4.70345 2.1875 5.09766 2.1875 5.60352C2.1875 6.00911 2.3584 6.35319 2.7002 6.63574C3.04655 6.91374 3.63216 7.16895 4.45703 7.40137C5.28646 7.63379 5.93359 7.89128 6.39844 8.17383C6.86784 8.45182 7.21419 8.77767 7.4375 9.15137C7.66536 9.52507 7.7793 9.96484 7.7793 10.4707C7.7793 11.2773 7.46484 11.9245 6.83594 12.4121C6.20703 12.8952 5.36621 13.1367 4.31348 13.1367C3.62988 13.1367 2.99186 13.0068 2.39941 12.7471C1.80697 12.4827 1.34896 12.1227 1.02539 11.667C0.70638 11.2113 0.546875 10.694 0.546875 10.1152H1.86621C1.86621 10.7168 2.08724 11.193 2.5293 11.5439C2.97591 11.8903 3.57064 12.0635 4.31348 12.0635C5.00618 12.0635 5.53711 11.9222 5.90625 11.6396C6.27539 11.3571 6.45996 10.972 6.45996 10.4844C6.45996 9.99674 6.28906 9.62077 5.94727 9.35645C5.60547 9.08757 4.98568 8.82324 4.08789 8.56348ZM12.3389 13.1367C11.3363 13.1367 10.5205 12.8086 9.8916 12.1523C9.2627 11.4915 8.94824 10.6097 8.94824 9.50684V9.27441C8.94824 8.54069 9.08724 7.88672 9.36523 7.3125C9.64779 6.73372 10.0397 6.28255 10.541 5.95898C11.0469 5.63086 11.5938 5.4668 12.1816 5.4668C13.1432 5.4668 13.8906 5.78353 14.4238 6.41699C14.957 7.05046 15.2236 7.95736 15.2236 9.1377V9.66406H10.2129C10.2311 10.3932 10.443 10.9834 10.8486 11.4346C11.2588 11.8812 11.7783 12.1045 12.4072 12.1045C12.8538 12.1045 13.2321 12.0133 13.542 11.8311C13.8519 11.6488 14.123 11.4072 14.3555 11.1064L15.1279 11.708C14.5081 12.6605 13.5785 13.1367 12.3389 13.1367ZM12.1816 6.50586C11.6712 6.50586 11.2428 6.69271 10.8965 7.06641C10.5501 7.43555 10.3359 7.95508 10.2539 8.625H13.959V8.5293C13.9225 7.88672 13.7493 7.38997 13.4395 7.03906C13.1296 6.68359 12.7103 6.50586 12.1816 6.50586ZM17.8896 5.60352L17.9307 6.5332C18.4958 5.82227 19.234 5.4668 20.1455 5.4668C21.7087 5.4668 22.4971 6.34863 22.5107 8.1123V13H21.2461V8.10547C21.2415 7.57227 21.1185 7.17806 20.877 6.92285C20.64 6.66764 20.2686 6.54004 19.7627 6.54004C19.3525 6.54004 18.9925 6.64941 18.6826 6.86816C18.3727 7.08691 18.1312 7.37402 17.958 7.72949V13H16.6934V5.60352H17.8896ZM24.083 9.2334C24.083 8.50879 24.2243 7.8571 24.5068 7.27832C24.7939 6.69954 25.1904 6.25293 25.6963 5.93848C26.2067 5.62402 26.7878 5.4668 27.4395 5.4668C28.4466 5.4668 29.2601 5.81543 29.8799 6.5127C30.5042 7.20996 30.8164 8.13737 30.8164 9.29492V9.38379C30.8164 10.1038 30.6774 10.751 30.3994 11.3252C30.126 11.8949 29.7318 12.3392 29.2168 12.6582C28.7064 12.9772 28.1185 13.1367 27.4531 13.1367C26.4505 13.1367 25.637 12.7881 25.0127 12.0908C24.3929 11.3936 24.083 10.4707 24.083 9.32227V9.2334ZM25.3545 9.38379C25.3545 10.2041 25.5436 10.8626 25.9219 11.3594C26.3047 11.8561 26.8151 12.1045 27.4531 12.1045C28.0957 12.1045 28.6061 11.8538 28.9844 11.3525C29.3626 10.8467 29.5518 10.1403 29.5518 9.2334C29.5518 8.4222 29.3581 7.76595 28.9707 7.26465C28.5879 6.75879 28.0775 6.50586 27.4395 6.50586C26.8151 6.50586 26.3115 6.75423 25.9287 7.25098C25.5459 7.74772 25.3545 8.45866 25.3545 9.38379Z" fill="#41D17A"/>
</svg>
