<svg width="423" height="74" viewBox="0 0 423 74" fill="none" xmlns="http://www.w3.org/2000/svg">
<path d="M10.7402 46.9707H6.53906V57.6055C6.53906 58.3906 6.57422 58.9824 6.64453 59.3809C6.72656 59.7793 6.83789 60.084 6.97852 60.2949C7.13086 60.4941 7.32422 60.6582 7.55859 60.7871C7.80469 60.9043 8.19141 61.0215 8.71875 61.1387V62H1.5293V61.1387C2.04492 60.998 2.41406 60.8633 2.63672 60.7344C2.85938 60.6055 3.0293 60.4414 3.14648 60.2422C3.27539 60.043 3.36914 59.7559 3.42773 59.3809C3.48633 59.0059 3.51562 58.4141 3.51562 57.6055V46.9707H1.38867V46.0742C1.83398 46.0039 2.12695 45.9512 2.26758 45.916C2.41992 45.8691 2.56055 45.8047 2.68945 45.7227C2.83008 45.6406 2.94727 45.5234 3.04102 45.3711C3.14648 45.2188 3.23438 44.9961 3.30469 44.7031C3.38672 44.3984 3.45117 43.9766 3.49805 43.4375C3.60352 42.1602 3.83203 41.123 4.18359 40.3262C4.54688 39.5293 5.06836 38.8496 5.74805 38.2871C6.43945 37.7246 7.17188 37.332 7.94531 37.1094C8.73047 36.875 9.65039 36.7578 10.7051 36.7578C11.6309 36.7578 12.416 36.8223 13.0605 36.9512V40.1328H11.3203C11.0977 39.4414 10.834 38.9551 10.5293 38.6738C10.2363 38.3809 9.82031 38.2344 9.28125 38.2344C8.89453 38.2344 8.56641 38.2871 8.29688 38.3926C8.03906 38.498 7.79883 38.6621 7.57617 38.8848C7.35352 39.1074 7.16016 39.4062 6.99609 39.7812C6.84375 40.1562 6.72656 40.625 6.64453 41.1875C6.57422 41.7383 6.53906 42.459 6.53906 43.3496V45.1953H10.7402V46.9707ZM17.1035 53.1055C17.1035 57.207 17.7598 60.5879 19.0723 63.248C20.3965 65.9082 22.4121 67.6895 25.1191 68.5918L24.6973 69.9453C21.2637 69.043 18.6328 67.0977 16.8047 64.1094C14.9766 61.1328 14.0625 57.5234 14.0625 53.2812C14.0625 49.0508 14.9766 45.4414 16.8047 42.4531C18.6445 39.4531 21.2754 37.502 24.6973 36.5996L25.1719 37.9531C22.4297 38.8555 20.3965 40.6191 19.0723 43.2441C17.7598 45.8574 17.1035 49.1445 17.1035 53.1055ZM34.9805 51.8574L37.2656 48.957C37.5117 48.6406 37.7109 48.3359 37.8633 48.043C38.0156 47.7383 38.0918 47.4277 38.0918 47.1113C38.0918 46.8418 37.9922 46.6191 37.793 46.4434C37.5938 46.2676 37.2832 46.1387 36.8613 46.0566V45.1953H42.6094V46.0566C42.1641 46.1855 41.707 46.4375 41.2383 46.8125C40.7812 47.1875 40.2188 47.791 39.5508 48.623L35.9121 53.0879L39.9199 58.4844C40.4941 59.2578 41.0098 59.8496 41.4668 60.2598C41.9238 60.6699 42.3809 60.9629 42.8379 61.1387V62H35.7715V61.1387C36.7441 61.0215 37.2305 60.6582 37.2305 60.0488C37.2305 59.8027 37.1895 59.5684 37.1074 59.3457C37.0254 59.123 36.873 58.8652 36.6504 58.5723L34.1016 55.0215L31.3945 58.5371C31.1953 58.7949 31.0371 59.0352 30.9199 59.2578C30.8145 59.4688 30.7617 59.709 30.7617 59.9785C30.7617 60.2949 30.8672 60.5586 31.0781 60.7695C31.3008 60.9688 31.6465 61.0918 32.1152 61.1387V62H26.2441V61.1387C26.6309 60.998 26.9766 60.8223 27.2812 60.6113C27.5977 60.4004 27.9141 60.1309 28.2305 59.8027C28.5586 59.4629 28.9863 58.9707 29.5137 58.3262L33.1699 53.791L29.4258 48.6582C28.9102 47.9551 28.5 47.4453 28.1953 47.1289C27.8906 46.8125 27.6094 46.5723 27.3516 46.4082C27.0938 46.2441 26.8359 46.127 26.5781 46.0566V45.1953H33.4688V46.0566C32.543 46.1973 32.0801 46.5605 32.0801 47.1465C32.0801 47.416 32.1387 47.6855 32.2559 47.9551C32.3848 48.2246 32.5781 48.5234 32.8359 48.8516L34.9805 51.8574ZM51.9785 53.1055C51.9785 49.1445 51.3223 45.8574 50.0098 43.2441C48.6973 40.6191 46.6641 38.8555 43.9102 37.9531L44.3848 36.5996C47.8066 37.502 50.4316 39.4531 52.2598 42.4531C54.0996 45.4414 55.0195 49.0508 55.0195 53.2812C55.0195 57.5234 54.1055 61.1328 52.2773 64.1094C50.4492 67.0977 47.8184 69.043 44.3848 69.9453L43.9629 68.5918C46.6699 67.6895 48.6797 65.9082 49.9922 63.248C51.3164 60.5879 51.9785 57.207 51.9785 53.1055ZM68.748 49.2383V46.9004H90.4043V49.2383H68.748ZM68.748 56.5332V54.1953H90.4043V56.5332H68.748ZM115.77 45.5996V49.2734H113.537C113.338 48.5117 113.092 47.9141 112.799 47.4805C112.506 47.0352 112.166 46.7246 111.779 46.5488C111.393 46.373 110.912 46.2852 110.338 46.2852C109.518 46.2852 108.791 46.5488 108.158 47.0762C107.525 47.6035 107.021 48.4062 106.646 49.4844C106.283 50.5625 106.102 51.8809 106.102 53.4395C106.102 54.4355 106.172 55.3496 106.312 56.1816C106.453 57.002 106.693 57.7051 107.033 58.291C107.373 58.877 107.824 59.334 108.387 59.6621C108.949 59.9902 109.646 60.1543 110.479 60.1543C111.287 60.1543 112.037 59.9961 112.729 59.6797C113.432 59.3633 114.158 58.8066 114.908 58.0098L115.91 59.1699C115.312 59.8262 114.785 60.3359 114.328 60.6992C113.871 61.0508 113.379 61.3496 112.852 61.5957C112.336 61.8301 111.82 62 111.305 62.1055C110.801 62.2227 110.25 62.2812 109.652 62.2812C107.438 62.2812 105.744 61.5488 104.572 60.084C103.4 58.6074 102.814 56.4805 102.814 53.7031C102.814 51.9688 103.143 50.4336 103.799 49.0977C104.455 47.75 105.375 46.7129 106.559 45.9863C107.742 45.2598 109.107 44.8965 110.654 44.8965C111.615 44.8965 112.5 44.9551 113.309 45.0723C114.129 45.1777 114.949 45.3535 115.77 45.5996ZM126.211 62.2812C123.773 62.2812 121.91 61.5664 120.621 60.1367C119.344 58.6953 118.705 56.5684 118.705 53.7559C118.705 51.8223 119.039 50.1875 119.707 48.8516C120.387 47.5156 121.312 46.5254 122.484 45.8809C123.656 45.2246 124.992 44.8965 126.492 44.8965C129 44.8965 130.898 45.6289 132.188 47.0938C133.477 48.5469 134.121 50.6387 134.121 53.3691C134.121 55.3145 133.799 56.9551 133.154 58.291C132.51 59.627 131.596 60.6289 130.412 61.2969C129.229 61.9531 127.828 62.2812 126.211 62.2812ZM122.027 53.3867C122.027 55.8008 122.408 57.6582 123.17 58.959C123.943 60.248 125.045 60.8926 126.475 60.8926C127.26 60.8926 127.928 60.7051 128.479 60.3301C129.029 59.9434 129.475 59.4277 129.814 58.7832C130.166 58.1387 130.418 57.3945 130.57 56.5508C130.723 55.6953 130.799 54.8047 130.799 53.8789C130.799 52.1562 130.605 50.7266 130.219 49.5898C129.844 48.4531 129.328 47.6211 128.672 47.0938C128.016 46.5547 127.266 46.2852 126.422 46.2852C125.004 46.2852 123.914 46.9004 123.152 48.1309C122.402 49.3613 122.027 51.1133 122.027 53.3867ZM149.467 49.0449H147.779C147.521 48.3418 147.217 47.791 146.865 47.3926C146.514 46.9824 146.115 46.6953 145.67 46.5312C145.225 46.3672 144.68 46.2852 144.035 46.2852C143.098 46.2852 142.348 46.5078 141.785 46.9531C141.234 47.3867 140.959 47.9844 140.959 48.7461C140.959 49.2852 141.07 49.7305 141.293 50.082C141.516 50.4336 141.861 50.7617 142.33 51.0664C142.799 51.3711 143.625 51.7754 144.809 52.2793C146.004 52.7949 146.924 53.2695 147.568 53.7031C148.225 54.1367 148.734 54.6406 149.098 55.2148C149.473 55.7891 149.66 56.4746 149.66 57.2715C149.66 58.1973 149.502 58.9766 149.186 59.6094C148.869 60.2422 148.424 60.7578 147.85 61.1562C147.275 61.5547 146.59 61.8418 145.793 62.0176C145.008 62.1934 144.146 62.2812 143.209 62.2812C142.225 62.2812 141.27 62.2051 140.344 62.0527C139.418 61.9121 138.516 61.7246 137.637 61.4902V57.8164H139.359C139.676 58.8945 140.145 59.6797 140.766 60.1719C141.387 60.6523 142.242 60.8926 143.332 60.8926C143.754 60.8926 144.164 60.8516 144.562 60.7695C144.973 60.6758 145.336 60.5293 145.652 60.3301C145.969 60.1191 146.221 59.8379 146.408 59.4863C146.596 59.1348 146.689 58.6953 146.689 58.168C146.689 57.5703 146.572 57.084 146.338 56.709C146.104 56.334 145.74 55.9941 145.248 55.6895C144.756 55.373 143.889 54.9512 142.646 54.4238C141.58 53.9785 140.725 53.5449 140.08 53.123C139.436 52.7012 138.926 52.2031 138.551 51.6289C138.188 51.0547 138.006 50.375 138.006 49.5898C138.006 48.6289 138.264 47.7969 138.779 47.0938C139.307 46.3789 140.062 45.834 141.047 45.459C142.031 45.084 143.186 44.8965 144.51 44.8965C145.283 44.8965 146.027 44.9375 146.742 45.0195C147.469 45.0898 148.377 45.2363 149.467 45.459V49.0449ZM160.312 51.8574L162.598 48.957C162.844 48.6406 163.043 48.3359 163.195 48.043C163.348 47.7383 163.424 47.4277 163.424 47.1113C163.424 46.8418 163.324 46.6191 163.125 46.4434C162.926 46.2676 162.615 46.1387 162.193 46.0566V45.1953H167.941V46.0566C167.496 46.1855 167.039 46.4375 166.57 46.8125C166.113 47.1875 165.551 47.791 164.883 48.623L161.244 53.0879L165.252 58.4844C165.826 59.2578 166.342 59.8496 166.799 60.2598C167.256 60.6699 167.713 60.9629 168.17 61.1387V62H161.104V61.1387C162.076 61.0215 162.562 60.6582 162.562 60.0488C162.562 59.8027 162.521 59.5684 162.439 59.3457C162.357 59.123 162.205 58.8652 161.982 58.5723L159.434 55.0215L156.727 58.5371C156.527 58.7949 156.369 59.0352 156.252 59.2578C156.146 59.4688 156.094 59.709 156.094 59.9785C156.094 60.2949 156.199 60.5586 156.41 60.7695C156.633 60.9688 156.979 61.0918 157.447 61.1387V62H151.576V61.1387C151.963 60.998 152.309 60.8223 152.613 60.6113C152.93 60.4004 153.246 60.1309 153.562 59.8027C153.891 59.4629 154.318 58.9707 154.846 58.3262L158.502 53.791L154.758 48.6582C154.242 47.9551 153.832 47.4453 153.527 47.1289C153.223 46.8125 152.941 46.5723 152.684 46.4082C152.426 46.2441 152.168 46.127 151.91 46.0566V45.1953H158.801V46.0566C157.875 46.1973 157.412 46.5605 157.412 47.1465C157.412 47.416 157.471 47.6855 157.588 47.9551C157.717 48.2246 157.91 48.5234 158.168 48.8516L160.312 51.8574ZM186.574 54.1074H178.418V51.3828H186.574V54.1074ZM191.092 62.6328V59.9961L210.182 51.7168L191.092 43.4375V40.8008L212.818 50.4863V52.9473L191.092 62.6328Z" fill="white"/>
<path d="M234.123 46.9707H229.922V57.6055C229.922 58.3906 229.957 58.9824 230.027 59.3809C230.109 59.7793 230.221 60.084 230.361 60.2949C230.514 60.4941 230.707 60.6582 230.941 60.7871C231.188 60.9043 231.574 61.0215 232.102 61.1387V62H224.912V61.1387C225.428 60.998 225.797 60.8633 226.02 60.7344C226.242 60.6055 226.412 60.4414 226.529 60.2422C226.658 60.043 226.752 59.7559 226.811 59.3809C226.869 59.0059 226.898 58.4141 226.898 57.6055V46.9707H224.771V46.0742C225.217 46.0039 225.51 45.9512 225.65 45.916C225.803 45.8691 225.943 45.8047 226.072 45.7227C226.213 45.6406 226.33 45.5234 226.424 45.3711C226.529 45.2188 226.617 44.9961 226.688 44.7031C226.77 44.3984 226.834 43.9766 226.881 43.4375C226.986 42.1602 227.215 41.123 227.566 40.3262C227.93 39.5293 228.451 38.8496 229.131 38.2871C229.822 37.7246 230.555 37.332 231.328 37.1094C232.113 36.875 233.033 36.7578 234.088 36.7578C235.014 36.7578 235.799 36.8223 236.443 36.9512V40.1328H234.703C234.48 39.4414 234.217 38.9551 233.912 38.6738C233.619 38.3809 233.203 38.2344 232.664 38.2344C232.277 38.2344 231.949 38.2871 231.68 38.3926C231.422 38.498 231.182 38.6621 230.959 38.8848C230.736 39.1074 230.543 39.4062 230.379 39.7812C230.227 40.1562 230.109 40.625 230.027 41.1875C229.957 41.7383 229.922 42.459 229.922 43.3496V45.1953H234.123V46.9707ZM242.947 36.8457C243.088 37.2324 243.193 37.6543 243.264 38.1113C243.346 38.5684 243.387 38.9844 243.387 39.3594C243.387 40.1328 243.27 40.8184 243.035 41.416C242.801 42.0137 242.426 42.623 241.91 43.2441C241.406 43.8535 240.633 44.6152 239.59 45.5293L238.518 44.4746C239.092 43.7832 239.514 43.0859 239.783 42.3828C240.053 41.668 240.188 40.8008 240.188 39.7812C240.188 39.4297 240.17 39.0547 240.135 38.6562C240.1 38.2578 240.012 37.6543 239.871 36.8457H242.947ZM251.455 53.1055C251.455 57.207 252.111 60.5879 253.424 63.248C254.748 65.9082 256.764 67.6895 259.471 68.5918L259.049 69.9453C255.615 69.043 252.984 67.0977 251.156 64.1094C249.328 61.1328 248.414 57.5234 248.414 53.2812C248.414 49.0508 249.328 45.4414 251.156 42.4531C252.996 39.4531 255.627 37.502 259.049 36.5996L259.523 37.9531C256.781 38.8555 254.748 40.6191 253.424 43.2441C252.111 45.8574 251.455 49.1445 251.455 53.1055ZM269.332 51.8574L271.617 48.957C271.863 48.6406 272.062 48.3359 272.215 48.043C272.367 47.7383 272.443 47.4277 272.443 47.1113C272.443 46.8418 272.344 46.6191 272.145 46.4434C271.945 46.2676 271.635 46.1387 271.213 46.0566V45.1953H276.961V46.0566C276.516 46.1855 276.059 46.4375 275.59 46.8125C275.133 47.1875 274.57 47.791 273.902 48.623L270.264 53.0879L274.271 58.4844C274.846 59.2578 275.361 59.8496 275.818 60.2598C276.275 60.6699 276.732 60.9629 277.189 61.1387V62H270.123V61.1387C271.096 61.0215 271.582 60.6582 271.582 60.0488C271.582 59.8027 271.541 59.5684 271.459 59.3457C271.377 59.123 271.225 58.8652 271.002 58.5723L268.453 55.0215L265.746 58.5371C265.547 58.7949 265.389 59.0352 265.271 59.2578C265.166 59.4688 265.113 59.709 265.113 59.9785C265.113 60.2949 265.219 60.5586 265.43 60.7695C265.652 60.9688 265.998 61.0918 266.467 61.1387V62H260.596V61.1387C260.982 60.998 261.328 60.8223 261.633 60.6113C261.949 60.4004 262.266 60.1309 262.582 59.8027C262.91 59.4629 263.338 58.9707 263.865 58.3262L267.521 53.791L263.777 48.6582C263.262 47.9551 262.852 47.4453 262.547 47.1289C262.242 46.8125 261.961 46.5723 261.703 46.4082C261.445 46.2441 261.188 46.127 260.93 46.0566V45.1953H267.82V46.0566C266.895 46.1973 266.432 46.5605 266.432 47.1465C266.432 47.416 266.49 47.6855 266.607 47.9551C266.736 48.2246 266.93 48.5234 267.188 48.8516L269.332 51.8574ZM286.33 53.1055C286.33 49.1445 285.674 45.8574 284.361 43.2441C283.049 40.6191 281.016 38.8555 278.262 37.9531L278.736 36.5996C282.158 37.502 284.783 39.4531 286.611 42.4531C288.451 45.4414 289.371 49.0508 289.371 53.2812C289.371 57.5234 288.457 61.1328 286.629 64.1094C284.801 67.0977 282.17 69.043 278.736 69.9453L278.314 68.5918C281.021 67.6895 283.031 65.9082 284.344 63.248C285.668 60.5879 286.33 57.207 286.33 53.1055ZM303.1 49.2383V46.9004H324.756V49.2383H303.1ZM303.1 56.5332V54.1953H324.756V56.5332H303.1ZM345.375 54.1074H337.219V51.3828H345.375V54.1074ZM360.756 49.0449H359.068C358.811 48.3418 358.506 47.791 358.154 47.3926C357.803 46.9824 357.404 46.6953 356.959 46.5312C356.514 46.3672 355.969 46.2852 355.324 46.2852C354.387 46.2852 353.637 46.5078 353.074 46.9531C352.523 47.3867 352.248 47.9844 352.248 48.7461C352.248 49.2852 352.359 49.7305 352.582 50.082C352.805 50.4336 353.15 50.7617 353.619 51.0664C354.088 51.3711 354.914 51.7754 356.098 52.2793C357.293 52.7949 358.213 53.2695 358.857 53.7031C359.514 54.1367 360.023 54.6406 360.387 55.2148C360.762 55.7891 360.949 56.4746 360.949 57.2715C360.949 58.1973 360.791 58.9766 360.475 59.6094C360.158 60.2422 359.713 60.7578 359.139 61.1562C358.564 61.5547 357.879 61.8418 357.082 62.0176C356.297 62.1934 355.436 62.2812 354.498 62.2812C353.514 62.2812 352.559 62.2051 351.633 62.0527C350.707 61.9121 349.805 61.7246 348.926 61.4902V57.8164H350.648C350.965 58.8945 351.434 59.6797 352.055 60.1719C352.676 60.6523 353.531 60.8926 354.621 60.8926C355.043 60.8926 355.453 60.8516 355.852 60.7695C356.262 60.6758 356.625 60.5293 356.941 60.3301C357.258 60.1191 357.51 59.8379 357.697 59.4863C357.885 59.1348 357.979 58.6953 357.979 58.168C357.979 57.5703 357.861 57.084 357.627 56.709C357.393 56.334 357.029 55.9941 356.537 55.6895C356.045 55.373 355.178 54.9512 353.936 54.4238C352.869 53.9785 352.014 53.5449 351.369 53.123C350.725 52.7012 350.215 52.2031 349.84 51.6289C349.477 51.0547 349.295 50.375 349.295 49.5898C349.295 48.6289 349.553 47.7969 350.068 47.0938C350.596 46.3789 351.352 45.834 352.336 45.459C353.32 45.084 354.475 44.8965 355.799 44.8965C356.572 44.8965 357.316 44.9375 358.031 45.0195C358.758 45.0898 359.666 45.2363 360.756 45.459V49.0449ZM369.475 38.3047V41.7148H366.24V38.3047H369.475ZM364.447 61.1387C364.904 60.998 365.227 60.875 365.414 60.7695C365.613 60.6641 365.777 60.5176 365.906 60.3301C366.047 60.1426 366.152 59.8555 366.223 59.4688C366.305 59.082 366.346 58.4785 366.346 57.6582V49.9941C366.346 49.2441 366.334 48.6406 366.311 48.1836C366.287 47.7266 366.205 47.3633 366.064 47.0938C365.924 46.8125 365.707 46.6074 365.414 46.4785C365.133 46.3379 364.729 46.2207 364.201 46.127V45.1953L368.297 45.0371H369.369V57.6055C369.369 58.6133 369.416 59.3164 369.51 59.7148C369.604 60.1016 369.779 60.4004 370.037 60.6113C370.307 60.8105 370.74 60.9863 371.338 61.1387V62H364.447V61.1387ZM391.588 62H384.662V61.1387C385.119 60.998 385.447 60.875 385.646 60.7695C385.846 60.6641 386.01 60.5176 386.139 60.3301C386.279 60.1426 386.385 59.8555 386.455 59.4688C386.537 59.0703 386.578 58.4727 386.578 57.6758V53.0703C386.578 52.25 386.555 51.5059 386.508 50.8379C386.461 50.1699 386.379 49.625 386.262 49.2031C386.156 48.7695 386.021 48.4355 385.857 48.2012C385.705 47.9551 385.518 47.75 385.295 47.5859C385.084 47.4102 384.838 47.2754 384.557 47.1816C384.275 47.0762 383.906 47.0234 383.449 47.0234C382.992 47.0234 382.559 47.1172 382.148 47.3047C381.738 47.4805 381.287 47.791 380.795 48.2363C380.303 48.6816 379.945 49.1211 379.723 49.5547C379.5 49.9883 379.389 50.4863 379.389 51.0488V57.6055C379.389 58.6133 379.436 59.3164 379.529 59.7148C379.623 60.1016 379.799 60.4004 380.057 60.6113C380.326 60.8105 380.76 60.9863 381.357 61.1387V62H374.467V61.1387C374.924 60.998 375.246 60.875 375.434 60.7695C375.633 60.6641 375.797 60.5176 375.926 60.3301C376.066 60.1426 376.172 59.8555 376.242 59.4688C376.324 59.082 376.365 58.4785 376.365 57.6582V49.9941C376.365 49.2441 376.354 48.6406 376.33 48.1836C376.307 47.7266 376.225 47.3633 376.084 47.0938C375.943 46.8125 375.727 46.6074 375.434 46.4785C375.152 46.3379 374.748 46.2207 374.221 46.127V45.1953L378.334 45.0371H379.406L379.213 47.9023L379.459 47.9727C380.326 47.0938 381.023 46.4668 381.551 46.0918C382.09 45.7168 382.629 45.4297 383.168 45.2305C383.719 45.0195 384.299 44.9141 384.908 44.9141C385.541 44.9141 386.104 44.9902 386.596 45.1426C387.1 45.2832 387.539 45.5059 387.914 45.8105C388.301 46.1152 388.617 46.4961 388.863 46.9531C389.109 47.3984 389.291 47.9375 389.408 48.5703C389.537 49.2031 389.602 50.0059 389.602 50.9785V57.6055C389.602 58.4141 389.625 59 389.672 59.3633C389.719 59.7266 389.801 60.0078 389.918 60.207C390.035 60.4062 390.205 60.5762 390.428 60.7168C390.65 60.8457 391.037 60.9863 391.588 61.1387V62ZM402.012 51.8574L404.297 48.957C404.543 48.6406 404.742 48.3359 404.895 48.043C405.047 47.7383 405.123 47.4277 405.123 47.1113C405.123 46.8418 405.023 46.6191 404.824 46.4434C404.625 46.2676 404.314 46.1387 403.893 46.0566V45.1953H409.641V46.0566C409.195 46.1855 408.738 46.4375 408.27 46.8125C407.812 47.1875 407.25 47.791 406.582 48.623L402.943 53.0879L406.951 58.4844C407.525 59.2578 408.041 59.8496 408.498 60.2598C408.955 60.6699 409.412 60.9629 409.869 61.1387V62H402.803V61.1387C403.775 61.0215 404.262 60.6582 404.262 60.0488C404.262 59.8027 404.221 59.5684 404.139 59.3457C404.057 59.123 403.904 58.8652 403.682 58.5723L401.133 55.0215L398.426 58.5371C398.227 58.7949 398.068 59.0352 397.951 59.2578C397.846 59.4688 397.793 59.709 397.793 59.9785C397.793 60.2949 397.898 60.5586 398.109 60.7695C398.332 60.9688 398.678 61.0918 399.146 61.1387V62H393.275V61.1387C393.662 60.998 394.008 60.8223 394.312 60.6113C394.629 60.4004 394.945 60.1309 395.262 59.8027C395.59 59.4629 396.018 58.9707 396.545 58.3262L400.201 53.791L396.457 48.6582C395.941 47.9551 395.531 47.4453 395.227 47.1289C394.922 46.8125 394.641 46.5723 394.383 46.4082C394.125 46.2441 393.867 46.127 393.609 46.0566V45.1953H400.5V46.0566C399.574 46.1973 399.111 46.5605 399.111 47.1465C399.111 47.416 399.17 47.6855 399.287 47.9551C399.416 48.2246 399.609 48.5234 399.867 48.8516L402.012 51.8574Z" fill="#FF8B8B"/>
<path d="M8.47656 9.8418C8.35352 10.8945 7.96387 11.708 7.30762 12.2822C6.65592 12.8519 5.78776 13.1367 4.70312 13.1367C3.52734 13.1367 2.58398 12.7152 1.87305 11.8721C1.16667 11.029 0.813477 9.90104 0.813477 8.48828V7.53125C0.813477 6.60612 0.977539 5.79264 1.30566 5.09082C1.63835 4.389 2.10775 3.85124 2.71387 3.47754C3.31999 3.09928 4.02181 2.91016 4.81934 2.91016C5.87663 2.91016 6.72428 3.20638 7.3623 3.79883C8.00033 4.38672 8.37174 5.20247 8.47656 6.24609H7.15723C7.04329 5.45312 6.79492 4.87891 6.41211 4.52344C6.03385 4.16797 5.50293 3.99023 4.81934 3.99023C3.98079 3.99023 3.32227 4.30013 2.84375 4.91992C2.36979 5.53971 2.13281 6.42155 2.13281 7.56543V8.5293C2.13281 9.60938 2.3584 10.4684 2.80957 11.1064C3.26074 11.7445 3.89193 12.0635 4.70312 12.0635C5.43229 12.0635 5.99056 11.8994 6.37793 11.5713C6.76986 11.2386 7.02962 10.6621 7.15723 9.8418H8.47656ZM9.74121 9.2334C9.74121 8.50879 9.88249 7.8571 10.165 7.27832C10.4521 6.69954 10.8486 6.25293 11.3545 5.93848C11.8649 5.62402 12.446 5.4668 13.0977 5.4668C14.1048 5.4668 14.9183 5.81543 15.5381 6.5127C16.1624 7.20996 16.4746 8.13737 16.4746 9.29492V9.38379C16.4746 10.1038 16.3356 10.751 16.0576 11.3252C15.7842 11.8949 15.39 12.3392 14.875 12.6582C14.3646 12.9772 13.7767 13.1367 13.1113 13.1367C12.1087 13.1367 11.2952 12.7881 10.6709 12.0908C10.0511 11.3936 9.74121 10.4707 9.74121 9.32227V9.2334ZM11.0127 9.38379C11.0127 10.2041 11.2018 10.8626 11.5801 11.3594C11.9629 11.8561 12.4733 12.1045 13.1113 12.1045C13.7539 12.1045 14.2643 11.8538 14.6426 11.3525C15.0208 10.8467 15.21 10.1403 15.21 9.2334C15.21 8.4222 15.0163 7.76595 14.6289 7.26465C14.2461 6.75879 13.7357 6.50586 13.0977 6.50586C12.4733 6.50586 11.9697 6.75423 11.5869 7.25098C11.2041 7.74772 11.0127 8.45866 11.0127 9.38379ZM22.3672 11.0381C22.3672 10.6963 22.2373 10.432 21.9775 10.2451C21.7223 10.0537 21.2734 9.88965 20.6309 9.75293C19.9928 9.61621 19.4847 9.45215 19.1064 9.26074C18.7327 9.06934 18.4548 8.84147 18.2725 8.57715C18.0947 8.31283 18.0059 7.99837 18.0059 7.63379C18.0059 7.02767 18.2611 6.51497 18.7715 6.0957C19.2865 5.67643 19.9427 5.4668 20.7402 5.4668C21.5788 5.4668 22.2578 5.68327 22.7773 6.11621C23.3014 6.54915 23.5635 7.10286 23.5635 7.77734H22.292C22.292 7.43099 22.1439 7.13249 21.8477 6.88184C21.556 6.63118 21.1868 6.50586 20.7402 6.50586C20.2799 6.50586 19.9199 6.60612 19.6602 6.80664C19.4004 7.00716 19.2705 7.26921 19.2705 7.59277C19.2705 7.89811 19.3913 8.12826 19.6328 8.2832C19.8743 8.43815 20.3096 8.58626 20.9385 8.72754C21.5719 8.86882 22.0846 9.03743 22.4766 9.2334C22.8685 9.42936 23.1579 9.66634 23.3447 9.94434C23.5361 10.2178 23.6318 10.5527 23.6318 10.9492C23.6318 11.61 23.3675 12.141 22.8389 12.542C22.3102 12.9385 21.6243 13.1367 20.7812 13.1367C20.1888 13.1367 19.6647 13.0319 19.209 12.8223C18.7533 12.6126 18.3955 12.321 18.1357 11.9473C17.8805 11.569 17.7529 11.1611 17.7529 10.7236H19.0176C19.0404 11.1475 19.209 11.4847 19.5234 11.7354C19.8424 11.9814 20.2617 12.1045 20.7812 12.1045C21.2598 12.1045 21.6426 12.0088 21.9297 11.8174C22.2214 11.6214 22.3672 11.3617 22.3672 11.0381ZM28.3486 13.1367C27.346 13.1367 26.5303 12.8086 25.9014 12.1523C25.2725 11.4915 24.958 10.6097 24.958 9.50684V9.27441C24.958 8.54069 25.097 7.88672 25.375 7.3125C25.6576 6.73372 26.0495 6.28255 26.5508 5.95898C27.0566 5.63086 27.6035 5.4668 28.1914 5.4668C29.153 5.4668 29.9004 5.78353 30.4336 6.41699C30.9668 7.05046 31.2334 7.95736 31.2334 9.1377V9.66406H26.2227C26.2409 10.3932 26.4528 10.9834 26.8584 11.4346C27.2686 11.8812 27.7881 12.1045 28.417 12.1045C28.8636 12.1045 29.2419 12.0133 29.5518 11.8311C29.8617 11.6488 30.1328 11.4072 30.3652 11.1064L31.1377 11.708C30.5179 12.6605 29.5882 13.1367 28.3486 13.1367ZM28.1914 6.50586C27.681 6.50586 27.2526 6.69271 26.9062 7.06641C26.5599 7.43555 26.3457 7.95508 26.2637 8.625H29.9688V8.5293C29.9323 7.88672 29.7591 7.38997 29.4492 7.03906C29.1393 6.68359 28.7201 6.50586 28.1914 6.50586ZM33.8994 5.60352L33.9404 6.5332C34.5055 5.82227 35.2438 5.4668 36.1553 5.4668C37.7184 5.4668 38.5068 6.34863 38.5205 8.1123V13H37.2559V8.10547C37.2513 7.57227 37.1283 7.17806 36.8867 6.92285C36.6497 6.66764 36.2783 6.54004 35.7725 6.54004C35.3623 6.54004 35.0023 6.64941 34.6924 6.86816C34.3825 7.08691 34.141 7.37402 33.9678 7.72949V13H32.7031V5.60352H33.8994ZM40.0928 9.2334C40.0928 8.50879 40.234 7.8571 40.5166 7.27832C40.8037 6.69954 41.2002 6.25293 41.7061 5.93848C42.2165 5.62402 42.7975 5.4668 43.4492 5.4668C44.4564 5.4668 45.2699 5.81543 45.8896 6.5127C46.514 7.20996 46.8262 8.13737 46.8262 9.29492V9.38379C46.8262 10.1038 46.6872 10.751 46.4092 11.3252C46.1357 11.8949 45.7415 12.3392 45.2266 12.6582C44.7161 12.9772 44.1283 13.1367 43.4629 13.1367C42.4603 13.1367 41.6468 12.7881 41.0225 12.0908C40.4027 11.3936 40.0928 10.4707 40.0928 9.32227V9.2334ZM41.3643 9.38379C41.3643 10.2041 41.5534 10.8626 41.9316 11.3594C42.3145 11.8561 42.8249 12.1045 43.4629 12.1045C44.1055 12.1045 44.6159 11.8538 44.9941 11.3525C45.3724 10.8467 45.5615 10.1403 45.5615 9.2334C45.5615 8.4222 45.3678 7.76595 44.9805 7.26465C44.5977 6.75879 44.0872 6.50586 43.4492 6.50586C42.8249 6.50586 42.3213 6.75423 41.9385 7.25098C41.5557 7.74772 41.3643 8.45866 41.3643 9.38379Z" fill="#41D17A"/>
</svg>
