<svg width="423" height="74" viewBox="0 0 423 74" fill="none" xmlns="http://www.w3.org/2000/svg">
<path d="M10.7402 46.9707H6.53906V57.6055C6.53906 58.3906 6.57422 58.9824 6.64453 59.3809C6.72656 59.7793 6.83789 60.084 6.97852 60.2949C7.13086 60.4941 7.32422 60.6582 7.55859 60.7871C7.80469 60.9043 8.19141 61.0215 8.71875 61.1387V62H1.5293V61.1387C2.04492 60.998 2.41406 60.8633 2.63672 60.7344C2.85938 60.6055 3.0293 60.4414 3.14648 60.2422C3.27539 60.043 3.36914 59.7559 3.42773 59.3809C3.48633 59.0059 3.51562 58.4141 3.51562 57.6055V46.9707H1.38867V46.0742C1.83398 46.0039 2.12695 45.9512 2.26758 45.916C2.41992 45.8691 2.56055 45.8047 2.68945 45.7227C2.83008 45.6406 2.94727 45.5234 3.04102 45.3711C3.14648 45.2188 3.23438 44.9961 3.30469 44.7031C3.38672 44.3984 3.45117 43.9766 3.49805 43.4375C3.60352 42.1602 3.83203 41.123 4.18359 40.3262C4.54688 39.5293 5.06836 38.8496 5.74805 38.2871C6.43945 37.7246 7.17188 37.332 7.94531 37.1094C8.73047 36.875 9.65039 36.7578 10.7051 36.7578C11.6309 36.7578 12.416 36.8223 13.0605 36.9512V40.1328H11.3203C11.0977 39.4414 10.834 38.9551 10.5293 38.6738C10.2363 38.3809 9.82031 38.2344 9.28125 38.2344C8.89453 38.2344 8.56641 38.2871 8.29688 38.3926C8.03906 38.498 7.79883 38.6621 7.57617 38.8848C7.35352 39.1074 7.16016 39.4062 6.99609 39.7812C6.84375 40.1562 6.72656 40.625 6.64453 41.1875C6.57422 41.7383 6.53906 42.459 6.53906 43.3496V45.1953H10.7402V46.9707ZM17.1035 53.1055C17.1035 57.207 17.7598 60.5879 19.0723 63.248C20.3965 65.9082 22.4121 67.6895 25.1191 68.5918L24.6973 69.9453C21.2637 69.043 18.6328 67.0977 16.8047 64.1094C14.9766 61.1328 14.0625 57.5234 14.0625 53.2812C14.0625 49.0508 14.9766 45.4414 16.8047 42.4531C18.6445 39.4531 21.2754 37.502 24.6973 36.5996L25.1719 37.9531C22.4297 38.8555 20.3965 40.6191 19.0723 43.2441C17.7598 45.8574 17.1035 49.1445 17.1035 53.1055ZM34.9805 51.8574L37.2656 48.957C37.5117 48.6406 37.7109 48.3359 37.8633 48.043C38.0156 47.7383 38.0918 47.4277 38.0918 47.1113C38.0918 46.8418 37.9922 46.6191 37.793 46.4434C37.5938 46.2676 37.2832 46.1387 36.8613 46.0566V45.1953H42.6094V46.0566C42.1641 46.1855 41.707 46.4375 41.2383 46.8125C40.7812 47.1875 40.2188 47.791 39.5508 48.623L35.9121 53.0879L39.9199 58.4844C40.4941 59.2578 41.0098 59.8496 41.4668 60.2598C41.9238 60.6699 42.3809 60.9629 42.8379 61.1387V62H35.7715V61.1387C36.7441 61.0215 37.2305 60.6582 37.2305 60.0488C37.2305 59.8027 37.1895 59.5684 37.1074 59.3457C37.0254 59.123 36.873 58.8652 36.6504 58.5723L34.1016 55.0215L31.3945 58.5371C31.1953 58.7949 31.0371 59.0352 30.9199 59.2578C30.8145 59.4688 30.7617 59.709 30.7617 59.9785C30.7617 60.2949 30.8672 60.5586 31.0781 60.7695C31.3008 60.9688 31.6465 61.0918 32.1152 61.1387V62H26.2441V61.1387C26.6309 60.998 26.9766 60.8223 27.2812 60.6113C27.5977 60.4004 27.9141 60.1309 28.2305 59.8027C28.5586 59.4629 28.9863 58.9707 29.5137 58.3262L33.1699 53.791L29.4258 48.6582C28.9102 47.9551 28.5 47.4453 28.1953 47.1289C27.8906 46.8125 27.6094 46.5723 27.3516 46.4082C27.0938 46.2441 26.8359 46.127 26.5781 46.0566V45.1953H33.4688V46.0566C32.543 46.1973 32.0801 46.5605 32.0801 47.1465C32.0801 47.416 32.1387 47.6855 32.2559 47.9551C32.3848 48.2246 32.5781 48.5234 32.8359 48.8516L34.9805 51.8574ZM51.9785 53.1055C51.9785 49.1445 51.3223 45.8574 50.0098 43.2441C48.6973 40.6191 46.6641 38.8555 43.9102 37.9531L44.3848 36.5996C47.8066 37.502 50.4316 39.4531 52.2598 42.4531C54.0996 45.4414 55.0195 49.0508 55.0195 53.2812C55.0195 57.5234 54.1055 61.1328 52.2773 64.1094C50.4492 67.0977 47.8184 69.043 44.3848 69.9453L43.9629 68.5918C46.6699 67.6895 48.6797 65.9082 49.9922 63.248C51.3164 60.5879 51.9785 57.207 51.9785 53.1055ZM68.748 49.2383V46.9004H90.4043V49.2383H68.748ZM68.748 56.5332V54.1953H90.4043V56.5332H68.748ZM101.619 46.0742C102.205 45.9805 102.68 45.8164 103.043 45.582C103.406 45.3477 103.688 45.0488 103.887 44.6855C104.098 44.3105 104.262 43.8477 104.379 43.2969C104.496 42.7344 104.619 41.9199 104.748 40.8535H107.244V45.1953H112.922V46.9707H107.244V54.793C107.244 55.9297 107.291 56.8379 107.385 57.5176C107.479 58.1855 107.654 58.7129 107.912 59.0996C108.17 59.4746 108.463 59.7441 108.791 59.9082C109.119 60.0723 109.541 60.1543 110.057 60.1543C110.525 60.1543 110.965 60.0605 111.375 59.873C111.785 59.6738 112.189 59.3926 112.588 59.0293L113.379 59.9785C112.547 60.7871 111.756 61.373 111.006 61.7363C110.268 62.0996 109.5 62.2812 108.703 62.2812C107.191 62.2812 106.066 61.8359 105.328 60.9453C104.59 60.043 104.221 58.6367 104.221 56.7266V46.9707H101.619V46.0742ZM125.033 59.4863L124.77 59.416C123.75 60.459 122.789 61.1973 121.887 61.6309C120.996 62.0645 120.047 62.2812 119.039 62.2812C118.148 62.2812 117.363 62.1113 116.684 61.7715C116.004 61.4199 115.482 60.9336 115.119 60.3125C114.756 59.6797 114.574 58.9531 114.574 58.1328C114.574 56.4219 115.418 55.1035 117.105 54.1777C118.805 53.2402 121.348 52.6953 124.734 52.543V51.4004C124.734 50.1816 124.617 49.2207 124.383 48.5176C124.148 47.8145 123.779 47.2988 123.275 46.9707C122.771 46.6426 122.098 46.4785 121.254 46.4785C120.34 46.4785 119.602 46.7188 119.039 47.1992C118.488 47.6797 118.072 48.4004 117.791 49.3613H115.488V47.0762C116.613 46.4902 117.551 46.0625 118.301 45.793C119.051 45.5117 119.801 45.2949 120.551 45.1426C121.301 44.9785 122.062 44.8965 122.836 44.8965C123.996 44.8965 124.928 45.084 125.631 45.459C126.334 45.8223 126.861 46.3848 127.213 47.1465C127.564 47.9082 127.74 49.0566 127.74 50.5918V56.709C127.74 57.5762 127.746 58.1914 127.758 58.5547C127.77 58.9062 127.805 59.2344 127.863 59.5391C127.922 59.8438 128.01 60.0898 128.127 60.2773C128.244 60.4531 128.414 60.6055 128.637 60.7344C128.871 60.8633 129.246 60.998 129.762 61.1387V62H124.945L125.033 59.4863ZM124.734 53.9844C122.355 54.0078 120.574 54.3242 119.391 54.9336C118.207 55.543 117.615 56.4629 117.615 57.6934C117.615 58.3613 117.75 58.8887 118.02 59.2754C118.289 59.6621 118.629 59.9316 119.039 60.084C119.449 60.2246 119.936 60.2949 120.498 60.2949C121.295 60.2949 122.016 60.1016 122.66 59.7148C123.316 59.3281 123.826 58.8359 124.189 58.2383C124.553 57.6406 124.734 57.0488 124.734 56.4629V53.9844ZM149.572 62H142.646V61.1387C143.104 60.998 143.432 60.875 143.631 60.7695C143.83 60.6641 143.994 60.5176 144.123 60.3301C144.264 60.1426 144.369 59.8555 144.439 59.4688C144.521 59.0703 144.562 58.4727 144.562 57.6758V53.0703C144.562 52.25 144.539 51.5059 144.492 50.8379C144.445 50.1699 144.363 49.625 144.246 49.2031C144.141 48.7695 144.006 48.4355 143.842 48.2012C143.689 47.9551 143.502 47.75 143.279 47.5859C143.068 47.4102 142.822 47.2754 142.541 47.1816C142.26 47.0762 141.891 47.0234 141.434 47.0234C140.977 47.0234 140.543 47.1172 140.133 47.3047C139.723 47.4805 139.271 47.791 138.779 48.2363C138.287 48.6816 137.93 49.1211 137.707 49.5547C137.484 49.9883 137.373 50.4863 137.373 51.0488V57.6055C137.373 58.6133 137.42 59.3164 137.514 59.7148C137.607 60.1016 137.783 60.4004 138.041 60.6113C138.311 60.8105 138.744 60.9863 139.342 61.1387V62H132.451V61.1387C132.908 60.998 133.23 60.875 133.418 60.7695C133.617 60.6641 133.781 60.5176 133.91 60.3301C134.051 60.1426 134.156 59.8555 134.227 59.4688C134.309 59.082 134.35 58.4785 134.35 57.6582V49.9941C134.35 49.2441 134.338 48.6406 134.314 48.1836C134.291 47.7266 134.209 47.3633 134.068 47.0938C133.928 46.8125 133.711 46.6074 133.418 46.4785C133.137 46.3379 132.732 46.2207 132.205 46.127V45.1953L136.318 45.0371H137.391L137.197 47.9023L137.443 47.9727C138.311 47.0938 139.008 46.4668 139.535 46.0918C140.074 45.7168 140.613 45.4297 141.152 45.2305C141.703 45.0195 142.283 44.9141 142.893 44.9141C143.525 44.9141 144.088 44.9902 144.58 45.1426C145.084 45.2832 145.523 45.5059 145.898 45.8105C146.285 46.1152 146.602 46.4961 146.848 46.9531C147.094 47.3984 147.275 47.9375 147.393 48.5703C147.521 49.2031 147.586 50.0059 147.586 50.9785V57.6055C147.586 58.4141 147.609 59 147.656 59.3633C147.703 59.7266 147.785 60.0078 147.902 60.207C148.02 60.4062 148.189 60.5762 148.412 60.7168C148.635 60.8457 149.021 60.9863 149.572 61.1387V62ZM159.996 51.8574L162.281 48.957C162.527 48.6406 162.727 48.3359 162.879 48.043C163.031 47.7383 163.107 47.4277 163.107 47.1113C163.107 46.8418 163.008 46.6191 162.809 46.4434C162.609 46.2676 162.299 46.1387 161.877 46.0566V45.1953H167.625V46.0566C167.18 46.1855 166.723 46.4375 166.254 46.8125C165.797 47.1875 165.234 47.791 164.566 48.623L160.928 53.0879L164.936 58.4844C165.51 59.2578 166.025 59.8496 166.482 60.2598C166.939 60.6699 167.396 60.9629 167.854 61.1387V62H160.787V61.1387C161.76 61.0215 162.246 60.6582 162.246 60.0488C162.246 59.8027 162.205 59.5684 162.123 59.3457C162.041 59.123 161.889 58.8652 161.666 58.5723L159.117 55.0215L156.41 58.5371C156.211 58.7949 156.053 59.0352 155.936 59.2578C155.83 59.4688 155.777 59.709 155.777 59.9785C155.777 60.2949 155.883 60.5586 156.094 60.7695C156.316 60.9688 156.662 61.0918 157.131 61.1387V62H151.26V61.1387C151.646 60.998 151.992 60.8223 152.297 60.6113C152.613 60.4004 152.93 60.1309 153.246 59.8027C153.574 59.4629 154.002 58.9707 154.529 58.3262L158.186 53.791L154.441 48.6582C153.926 47.9551 153.516 47.4453 153.211 47.1289C152.906 46.8125 152.625 46.5723 152.367 46.4082C152.109 46.2441 151.852 46.127 151.594 46.0566V45.1953H158.484V46.0566C157.559 46.1973 157.096 46.5605 157.096 47.1465C157.096 47.416 157.154 47.6855 157.271 47.9551C157.4 48.2246 157.594 48.5234 157.852 48.8516L159.996 51.8574ZM186.258 54.1074H178.102V51.3828H186.258V54.1074ZM190.775 62.6328V59.9961L209.865 51.7168L190.775 43.4375V40.8008L212.502 50.4863V52.9473L190.775 62.6328Z" fill="white"/>
<path d="M233.807 46.9707H229.605V57.6055C229.605 58.3906 229.641 58.9824 229.711 59.3809C229.793 59.7793 229.904 60.084 230.045 60.2949C230.197 60.4941 230.391 60.6582 230.625 60.7871C230.871 60.9043 231.258 61.0215 231.785 61.1387V62H224.596V61.1387C225.111 60.998 225.48 60.8633 225.703 60.7344C225.926 60.6055 226.096 60.4414 226.213 60.2422C226.342 60.043 226.436 59.7559 226.494 59.3809C226.553 59.0059 226.582 58.4141 226.582 57.6055V46.9707H224.455V46.0742C224.9 46.0039 225.193 45.9512 225.334 45.916C225.486 45.8691 225.627 45.8047 225.756 45.7227C225.896 45.6406 226.014 45.5234 226.107 45.3711C226.213 45.2188 226.301 44.9961 226.371 44.7031C226.453 44.3984 226.518 43.9766 226.564 43.4375C226.67 42.1602 226.898 41.123 227.25 40.3262C227.613 39.5293 228.135 38.8496 228.814 38.2871C229.506 37.7246 230.238 37.332 231.012 37.1094C231.797 36.875 232.717 36.7578 233.771 36.7578C234.697 36.7578 235.482 36.8223 236.127 36.9512V40.1328H234.387C234.164 39.4414 233.9 38.9551 233.596 38.6738C233.303 38.3809 232.887 38.2344 232.348 38.2344C231.961 38.2344 231.633 38.2871 231.363 38.3926C231.105 38.498 230.865 38.6621 230.643 38.8848C230.42 39.1074 230.227 39.4062 230.062 39.7812C229.91 40.1562 229.793 40.625 229.711 41.1875C229.641 41.7383 229.605 42.459 229.605 43.3496V45.1953H233.807V46.9707ZM242.631 36.8457C242.771 37.2324 242.877 37.6543 242.947 38.1113C243.029 38.5684 243.07 38.9844 243.07 39.3594C243.07 40.1328 242.953 40.8184 242.719 41.416C242.484 42.0137 242.109 42.623 241.594 43.2441C241.09 43.8535 240.316 44.6152 239.273 45.5293L238.201 44.4746C238.775 43.7832 239.197 43.0859 239.467 42.3828C239.736 41.668 239.871 40.8008 239.871 39.7812C239.871 39.4297 239.854 39.0547 239.818 38.6562C239.783 38.2578 239.695 37.6543 239.555 36.8457H242.631ZM251.139 53.1055C251.139 57.207 251.795 60.5879 253.107 63.248C254.432 65.9082 256.447 67.6895 259.154 68.5918L258.732 69.9453C255.299 69.043 252.668 67.0977 250.84 64.1094C249.012 61.1328 248.098 57.5234 248.098 53.2812C248.098 49.0508 249.012 45.4414 250.84 42.4531C252.68 39.4531 255.311 37.502 258.732 36.5996L259.207 37.9531C256.465 38.8555 254.432 40.6191 253.107 43.2441C251.795 45.8574 251.139 49.1445 251.139 53.1055ZM269.016 51.8574L271.301 48.957C271.547 48.6406 271.746 48.3359 271.898 48.043C272.051 47.7383 272.127 47.4277 272.127 47.1113C272.127 46.8418 272.027 46.6191 271.828 46.4434C271.629 46.2676 271.318 46.1387 270.896 46.0566V45.1953H276.645V46.0566C276.199 46.1855 275.742 46.4375 275.273 46.8125C274.816 47.1875 274.254 47.791 273.586 48.623L269.947 53.0879L273.955 58.4844C274.529 59.2578 275.045 59.8496 275.502 60.2598C275.959 60.6699 276.416 60.9629 276.873 61.1387V62H269.807V61.1387C270.779 61.0215 271.266 60.6582 271.266 60.0488C271.266 59.8027 271.225 59.5684 271.143 59.3457C271.061 59.123 270.908 58.8652 270.686 58.5723L268.137 55.0215L265.43 58.5371C265.23 58.7949 265.072 59.0352 264.955 59.2578C264.85 59.4688 264.797 59.709 264.797 59.9785C264.797 60.2949 264.902 60.5586 265.113 60.7695C265.336 60.9688 265.682 61.0918 266.15 61.1387V62H260.279V61.1387C260.666 60.998 261.012 60.8223 261.316 60.6113C261.633 60.4004 261.949 60.1309 262.266 59.8027C262.594 59.4629 263.021 58.9707 263.549 58.3262L267.205 53.791L263.461 48.6582C262.945 47.9551 262.535 47.4453 262.23 47.1289C261.926 46.8125 261.645 46.5723 261.387 46.4082C261.129 46.2441 260.871 46.127 260.613 46.0566V45.1953H267.504V46.0566C266.578 46.1973 266.115 46.5605 266.115 47.1465C266.115 47.416 266.174 47.6855 266.291 47.9551C266.42 48.2246 266.613 48.5234 266.871 48.8516L269.016 51.8574ZM286.014 53.1055C286.014 49.1445 285.357 45.8574 284.045 43.2441C282.732 40.6191 280.699 38.8555 277.945 37.9531L278.42 36.5996C281.842 37.502 284.467 39.4531 286.295 42.4531C288.135 45.4414 289.055 49.0508 289.055 53.2812C289.055 57.5234 288.141 61.1328 286.312 64.1094C284.484 67.0977 281.854 69.043 278.42 69.9453L277.998 68.5918C280.705 67.6895 282.715 65.9082 284.027 63.248C285.352 60.5879 286.014 57.207 286.014 53.1055ZM302.783 49.2383V46.9004H324.439V49.2383H302.783ZM302.783 56.5332V54.1953H324.439V56.5332H302.783ZM348.486 49.0449H346.799C346.541 48.3418 346.236 47.791 345.885 47.3926C345.533 46.9824 345.135 46.6953 344.689 46.5312C344.244 46.3672 343.699 46.2852 343.055 46.2852C342.117 46.2852 341.367 46.5078 340.805 46.9531C340.254 47.3867 339.979 47.9844 339.979 48.7461C339.979 49.2852 340.09 49.7305 340.312 50.082C340.535 50.4336 340.881 50.7617 341.35 51.0664C341.818 51.3711 342.645 51.7754 343.828 52.2793C345.023 52.7949 345.943 53.2695 346.588 53.7031C347.244 54.1367 347.754 54.6406 348.117 55.2148C348.492 55.7891 348.68 56.4746 348.68 57.2715C348.68 58.1973 348.521 58.9766 348.205 59.6094C347.889 60.2422 347.443 60.7578 346.869 61.1562C346.295 61.5547 345.609 61.8418 344.812 62.0176C344.027 62.1934 343.166 62.2812 342.229 62.2812C341.244 62.2812 340.289 62.2051 339.363 62.0527C338.438 61.9121 337.535 61.7246 336.656 61.4902V57.8164H338.379C338.695 58.8945 339.164 59.6797 339.785 60.1719C340.406 60.6523 341.262 60.8926 342.352 60.8926C342.773 60.8926 343.184 60.8516 343.582 60.7695C343.992 60.6758 344.355 60.5293 344.672 60.3301C344.988 60.1191 345.24 59.8379 345.428 59.4863C345.615 59.1348 345.709 58.6953 345.709 58.168C345.709 57.5703 345.592 57.084 345.357 56.709C345.123 56.334 344.76 55.9941 344.268 55.6895C343.775 55.373 342.908 54.9512 341.666 54.4238C340.6 53.9785 339.744 53.5449 339.1 53.123C338.455 52.7012 337.945 52.2031 337.57 51.6289C337.207 51.0547 337.025 50.375 337.025 49.5898C337.025 48.6289 337.283 47.7969 337.799 47.0938C338.326 46.3789 339.082 45.834 340.066 45.459C341.051 45.084 342.205 44.8965 343.529 44.8965C344.303 44.8965 345.047 44.9375 345.762 45.0195C346.488 45.0898 347.396 45.2363 348.486 45.459V49.0449ZM366.223 59.0117C365.473 59.7969 364.781 60.4121 364.148 60.8574C363.527 61.3027 362.842 61.6543 362.092 61.9121C361.342 62.1582 360.516 62.2812 359.613 62.2812C357.199 62.2812 355.377 61.5605 354.146 60.1191C352.916 58.666 352.301 56.5273 352.301 53.7031C352.301 51.957 352.611 50.416 353.232 49.0801C353.865 47.7441 354.762 46.7129 355.922 45.9863C357.082 45.2598 358.418 44.8965 359.93 44.8965C361.113 44.8965 362.121 45.084 362.953 45.459C363.785 45.834 364.447 46.3496 364.939 47.0059C365.443 47.6504 365.83 48.4707 366.1 49.4668C366.381 50.4512 366.539 51.7402 366.574 53.334H355.5V53.6504C355.5 55.0332 355.652 56.1992 355.957 57.1484C356.273 58.0859 356.783 58.8242 357.486 59.3633C358.201 59.8906 359.127 60.1543 360.264 60.1543C361.225 60.1543 362.086 59.9785 362.848 59.627C363.621 59.2637 364.389 58.6777 365.15 57.8691L366.223 59.0117ZM363.27 51.875C363.199 50.6094 363.041 49.5781 362.795 48.7812C362.549 47.9727 362.18 47.3574 361.688 46.9355C361.195 46.502 360.551 46.2852 359.754 46.2852C358.547 46.2852 357.58 46.7715 356.854 47.7441C356.139 48.7051 355.717 50.082 355.588 51.875H363.27ZM382.852 45.5996V49.2734H380.619C380.42 48.5117 380.174 47.9141 379.881 47.4805C379.588 47.0352 379.248 46.7246 378.861 46.5488C378.475 46.373 377.994 46.2852 377.42 46.2852C376.6 46.2852 375.873 46.5488 375.24 47.0762C374.607 47.6035 374.104 48.4062 373.729 49.4844C373.365 50.5625 373.184 51.8809 373.184 53.4395C373.184 54.4355 373.254 55.3496 373.395 56.1816C373.535 57.002 373.775 57.7051 374.115 58.291C374.455 58.877 374.906 59.334 375.469 59.6621C376.031 59.9902 376.729 60.1543 377.561 60.1543C378.369 60.1543 379.119 59.9961 379.811 59.6797C380.514 59.3633 381.24 58.8066 381.99 58.0098L382.992 59.1699C382.395 59.8262 381.867 60.3359 381.41 60.6992C380.953 61.0508 380.461 61.3496 379.934 61.5957C379.418 61.8301 378.902 62 378.387 62.1055C377.883 62.2227 377.332 62.2812 376.734 62.2812C374.52 62.2812 372.826 61.5488 371.654 60.084C370.482 58.6074 369.896 56.4805 369.896 53.7031C369.896 51.9688 370.225 50.4336 370.881 49.0977C371.537 47.75 372.457 46.7129 373.641 45.9863C374.824 45.2598 376.189 44.8965 377.736 44.8965C378.697 44.8965 379.582 44.9551 380.391 45.0723C381.211 45.1777 382.031 45.3535 382.852 45.5996ZM392.836 45.4414C393.246 45.4414 393.557 45.4238 393.768 45.3887C393.99 45.3418 394.166 45.2773 394.295 45.1953C394.424 45.1133 394.529 45.0078 394.611 44.8789C394.705 44.75 394.84 44.4688 395.016 44.0352H396.229L395.982 47.4277H385.682V46.7598C386.08 45.9043 386.619 45.0605 387.299 44.2285C387.979 43.3965 388.775 42.541 389.689 41.6621C390.779 40.6191 391.553 39.834 392.01 39.3066C392.467 38.7676 392.807 38.2637 393.029 37.7949C393.252 37.3145 393.363 36.834 393.363 36.3535C393.363 35.5566 393.135 34.9297 392.678 34.4727C392.232 34.0156 391.588 33.7871 390.744 33.7871C390.018 33.7871 389.396 33.9805 388.881 34.3672C388.377 34.7539 387.99 35.3223 387.721 36.0723H386.051V33.6992C387.094 33.2773 388.055 32.9785 388.934 32.8027C389.812 32.6152 390.592 32.5215 391.271 32.5215C392.197 32.5215 392.959 32.6211 393.557 32.8203C394.166 33.0195 394.652 33.2832 395.016 33.6113C395.379 33.9277 395.631 34.3027 395.771 34.7363C395.924 35.1699 396 35.6152 396 36.0723C396 36.6465 395.883 37.1855 395.648 37.6895C395.414 38.1816 395.027 38.7207 394.488 39.3066C393.961 39.8809 393.018 40.7832 391.658 42.0137C390.205 43.3379 389.15 44.4805 388.494 45.4414H392.836ZM407.742 51.8574L410.027 48.957C410.273 48.6406 410.473 48.3359 410.625 48.043C410.777 47.7383 410.854 47.4277 410.854 47.1113C410.854 46.8418 410.754 46.6191 410.555 46.4434C410.355 46.2676 410.045 46.1387 409.623 46.0566V45.1953H415.371V46.0566C414.926 46.1855 414.469 46.4375 414 46.8125C413.543 47.1875 412.98 47.791 412.312 48.623L408.674 53.0879L412.682 58.4844C413.256 59.2578 413.771 59.8496 414.229 60.2598C414.686 60.6699 415.143 60.9629 415.6 61.1387V62H408.533V61.1387C409.506 61.0215 409.992 60.6582 409.992 60.0488C409.992 59.8027 409.951 59.5684 409.869 59.3457C409.787 59.123 409.635 58.8652 409.412 58.5723L406.863 55.0215L404.156 58.5371C403.957 58.7949 403.799 59.0352 403.682 59.2578C403.576 59.4688 403.523 59.709 403.523 59.9785C403.523 60.2949 403.629 60.5586 403.84 60.7695C404.062 60.9688 404.408 61.0918 404.877 61.1387V62H399.006V61.1387C399.393 60.998 399.738 60.8223 400.043 60.6113C400.359 60.4004 400.676 60.1309 400.992 59.8027C401.32 59.4629 401.748 58.9707 402.275 58.3262L405.932 53.791L402.188 48.6582C401.672 47.9551 401.262 47.4453 400.957 47.1289C400.652 46.8125 400.371 46.5723 400.113 46.4082C399.855 46.2441 399.598 46.127 399.34 46.0566V45.1953H406.23V46.0566C405.305 46.1973 404.842 46.5605 404.842 47.1465C404.842 47.416 404.9 47.6855 405.018 47.9551C405.146 48.2246 405.34 48.5234 405.598 48.8516L407.742 51.8574Z" fill="#FF8B8B"/>
<path d="M8.03223 4.12695H4.83301V13H3.52734V4.12695H0.334961V3.04688H8.03223V4.12695ZM13.0977 13C13.0247 12.8542 12.9655 12.5944 12.9199 12.2207C12.332 12.8314 11.6302 13.1367 10.8145 13.1367C10.0853 13.1367 9.486 12.9316 9.0166 12.5215C8.55176 12.1068 8.31934 11.5827 8.31934 10.9492C8.31934 10.179 8.611 9.58203 9.19434 9.1582C9.78223 8.72982 10.6071 8.51562 11.6689 8.51562H12.8994V7.93457C12.8994 7.49251 12.7673 7.1416 12.5029 6.88184C12.2386 6.61751 11.849 6.48535 11.334 6.48535C10.8828 6.48535 10.5046 6.59928 10.1992 6.82715C9.89388 7.05501 9.74121 7.33073 9.74121 7.6543H8.46973C8.46973 7.28516 8.59961 6.92969 8.85938 6.58789C9.1237 6.24154 9.47917 5.9681 9.92578 5.76758C10.377 5.56706 10.8714 5.4668 11.4092 5.4668C12.2614 5.4668 12.929 5.68099 13.4121 6.10938C13.8952 6.5332 14.1458 7.11882 14.1641 7.86621V11.2705C14.1641 11.9495 14.2507 12.4896 14.4238 12.8906V13H13.0977ZM10.999 12.0361C11.3955 12.0361 11.7715 11.9336 12.127 11.7285C12.4824 11.5234 12.7399 11.2568 12.8994 10.9287V9.41113H11.9082C10.3587 9.41113 9.58398 9.86458 9.58398 10.7715C9.58398 11.168 9.71615 11.4779 9.98047 11.7012C10.2448 11.9245 10.5843 12.0361 10.999 12.0361ZM17.3428 5.60352L17.3838 6.5332C17.9489 5.82227 18.6872 5.4668 19.5986 5.4668C21.1618 5.4668 21.9502 6.34863 21.9639 8.1123V13H20.6992V8.10547C20.6947 7.57227 20.5716 7.17806 20.3301 6.92285C20.0931 6.66764 19.7217 6.54004 19.2158 6.54004C18.8057 6.54004 18.4456 6.64941 18.1357 6.86816C17.8258 7.08691 17.5843 7.37402 17.4111 7.72949V13H16.1465V5.60352H17.3428ZM23.5703 9.24023C23.5703 8.08724 23.8369 7.17122 24.3701 6.49219C24.9033 5.80859 25.6097 5.4668 26.4893 5.4668C27.3916 5.4668 28.0957 5.78581 28.6016 6.42383L28.6631 5.60352H29.8184V12.8223C29.8184 13.7793 29.5335 14.5335 28.9639 15.085C28.3988 15.6364 27.6377 15.9121 26.6807 15.9121C26.1475 15.9121 25.6257 15.7982 25.1152 15.5703C24.6048 15.3424 24.2152 15.0303 23.9463 14.6338L24.6025 13.875C25.1449 14.5449 25.8079 14.8799 26.5918 14.8799C27.207 14.8799 27.6855 14.7067 28.0273 14.3604C28.3737 14.014 28.5469 13.5264 28.5469 12.8975V12.2617C28.041 12.8451 27.3506 13.1367 26.4756 13.1367C25.6097 13.1367 24.9079 12.7881 24.3701 12.0908C23.8369 11.3936 23.5703 10.4434 23.5703 9.24023ZM24.8418 9.38379C24.8418 10.2178 25.0127 10.874 25.3545 11.3525C25.6963 11.8265 26.1748 12.0635 26.79 12.0635C27.5876 12.0635 28.1732 11.7012 28.5469 10.9766V7.59961C28.1595 6.89323 27.5785 6.54004 26.8037 6.54004C26.1885 6.54004 25.7077 6.7793 25.3613 7.25781C25.015 7.73633 24.8418 8.44499 24.8418 9.38379ZM34.8018 13.1367C33.7992 13.1367 32.9834 12.8086 32.3545 12.1523C31.7256 11.4915 31.4111 10.6097 31.4111 9.50684V9.27441C31.4111 8.54069 31.5501 7.88672 31.8281 7.3125C32.1107 6.73372 32.5026 6.28255 33.0039 5.95898C33.5098 5.63086 34.0566 5.4668 34.6445 5.4668C35.6061 5.4668 36.3535 5.78353 36.8867 6.41699C37.4199 7.05046 37.6865 7.95736 37.6865 9.1377V9.66406H32.6758C32.694 10.3932 32.9059 10.9834 33.3115 11.4346C33.7217 11.8812 34.2412 12.1045 34.8701 12.1045C35.3167 12.1045 35.695 12.0133 36.0049 11.8311C36.3148 11.6488 36.5859 11.4072 36.8184 11.1064L37.5908 11.708C36.971 12.6605 36.0413 13.1367 34.8018 13.1367ZM34.6445 6.50586C34.1341 6.50586 33.7057 6.69271 33.3594 7.06641C33.013 7.43555 32.7988 7.95508 32.7168 8.625H36.4219V8.5293C36.3854 7.88672 36.2122 7.38997 35.9023 7.03906C35.5924 6.68359 35.1732 6.50586 34.6445 6.50586ZM40.3525 5.60352L40.3936 6.5332C40.9587 5.82227 41.6969 5.4668 42.6084 5.4668C44.1715 5.4668 44.96 6.34863 44.9736 8.1123V13H43.709V8.10547C43.7044 7.57227 43.5814 7.17806 43.3398 6.92285C43.1029 6.66764 42.7314 6.54004 42.2256 6.54004C41.8154 6.54004 41.4554 6.64941 41.1455 6.86816C40.8356 7.08691 40.5941 7.37402 40.4209 7.72949V13H39.1562V5.60352H40.3525ZM48.5967 3.8125V5.60352H49.9775V6.58105H48.5967V11.168C48.5967 11.4642 48.6582 11.6875 48.7812 11.8379C48.9043 11.9837 49.1139 12.0566 49.4102 12.0566C49.556 12.0566 49.7565 12.0293 50.0117 11.9746V13C49.679 13.0911 49.3555 13.1367 49.041 13.1367C48.4759 13.1367 48.0498 12.9658 47.7627 12.624C47.4756 12.2822 47.332 11.7969 47.332 11.168V6.58105H45.9854V5.60352H47.332V3.8125H48.5967ZM54.5303 13.1367C53.5277 13.1367 52.7119 12.8086 52.083 12.1523C51.4541 11.4915 51.1396 10.6097 51.1396 9.50684V9.27441C51.1396 8.54069 51.2786 7.88672 51.5566 7.3125C51.8392 6.73372 52.2311 6.28255 52.7324 5.95898C53.2383 5.63086 53.7852 5.4668 54.373 5.4668C55.3346 5.4668 56.082 5.78353 56.6152 6.41699C57.1484 7.05046 57.415 7.95736 57.415 9.1377V9.66406H52.4043C52.4225 10.3932 52.6344 10.9834 53.04 11.4346C53.4502 11.8812 53.9697 12.1045 54.5986 12.1045C55.0452 12.1045 55.4235 12.0133 55.7334 11.8311C56.0433 11.6488 56.3145 11.4072 56.5469 11.1064L57.3193 11.708C56.6995 12.6605 55.7699 13.1367 54.5303 13.1367ZM54.373 6.50586C53.8626 6.50586 53.4342 6.69271 53.0879 7.06641C52.7415 7.43555 52.5273 7.95508 52.4453 8.625H56.1504V8.5293C56.1139 7.88672 55.9408 7.38997 55.6309 7.03906C55.321 6.68359 54.9017 6.50586 54.373 6.50586Z" fill="#41D17A"/>
</svg>
