<svg width="442" height="74" viewBox="0 0 442 74" fill="none" xmlns="http://www.w3.org/2000/svg">
<path d="M10.7402 46.9707H6.53906V57.6055C6.53906 58.3906 6.57422 58.9824 6.64453 59.3809C6.72656 59.7793 6.83789 60.084 6.97852 60.2949C7.13086 60.4941 7.32422 60.6582 7.55859 60.7871C7.80469 60.9043 8.19141 61.0215 8.71875 61.1387V62H1.5293V61.1387C2.04492 60.998 2.41406 60.8633 2.63672 60.7344C2.85938 60.6055 3.0293 60.4414 3.14648 60.2422C3.27539 60.043 3.36914 59.7559 3.42773 59.3809C3.48633 59.0059 3.51562 58.4141 3.51562 57.6055V46.9707H1.38867V46.0742C1.83398 46.0039 2.12695 45.9512 2.26758 45.916C2.41992 45.8691 2.56055 45.8047 2.68945 45.7227C2.83008 45.6406 2.94727 45.5234 3.04102 45.3711C3.14648 45.2188 3.23438 44.9961 3.30469 44.7031C3.38672 44.3984 3.45117 43.9766 3.49805 43.4375C3.60352 42.1602 3.83203 41.123 4.18359 40.3262C4.54688 39.5293 5.06836 38.8496 5.74805 38.2871C6.43945 37.7246 7.17188 37.332 7.94531 37.1094C8.73047 36.875 9.65039 36.7578 10.7051 36.7578C11.6309 36.7578 12.416 36.8223 13.0605 36.9512V40.1328H11.3203C11.0977 39.4414 10.834 38.9551 10.5293 38.6738C10.2363 38.3809 9.82031 38.2344 9.28125 38.2344C8.89453 38.2344 8.56641 38.2871 8.29688 38.3926C8.03906 38.498 7.79883 38.6621 7.57617 38.8848C7.35352 39.1074 7.16016 39.4062 6.99609 39.7812C6.84375 40.1562 6.72656 40.625 6.64453 41.1875C6.57422 41.7383 6.53906 42.459 6.53906 43.3496V45.1953H10.7402V46.9707ZM17.1035 53.1055C17.1035 57.207 17.7598 60.5879 19.0723 63.248C20.3965 65.9082 22.4121 67.6895 25.1191 68.5918L24.6973 69.9453C21.2637 69.043 18.6328 67.0977 16.8047 64.1094C14.9766 61.1328 14.0625 57.5234 14.0625 53.2812C14.0625 49.0508 14.9766 45.4414 16.8047 42.4531C18.6445 39.4531 21.2754 37.502 24.6973 36.5996L25.1719 37.9531C22.4297 38.8555 20.3965 40.6191 19.0723 43.2441C17.7598 45.8574 17.1035 49.1445 17.1035 53.1055ZM34.9805 51.8574L37.2656 48.957C37.5117 48.6406 37.7109 48.3359 37.8633 48.043C38.0156 47.7383 38.0918 47.4277 38.0918 47.1113C38.0918 46.8418 37.9922 46.6191 37.793 46.4434C37.5938 46.2676 37.2832 46.1387 36.8613 46.0566V45.1953H42.6094V46.0566C42.1641 46.1855 41.707 46.4375 41.2383 46.8125C40.7812 47.1875 40.2188 47.791 39.5508 48.623L35.9121 53.0879L39.9199 58.4844C40.4941 59.2578 41.0098 59.8496 41.4668 60.2598C41.9238 60.6699 42.3809 60.9629 42.8379 61.1387V62H35.7715V61.1387C36.7441 61.0215 37.2305 60.6582 37.2305 60.0488C37.2305 59.8027 37.1895 59.5684 37.1074 59.3457C37.0254 59.123 36.873 58.8652 36.6504 58.5723L34.1016 55.0215L31.3945 58.5371C31.1953 58.7949 31.0371 59.0352 30.9199 59.2578C30.8145 59.4688 30.7617 59.709 30.7617 59.9785C30.7617 60.2949 30.8672 60.5586 31.0781 60.7695C31.3008 60.9688 31.6465 61.0918 32.1152 61.1387V62H26.2441V61.1387C26.6309 60.998 26.9766 60.8223 27.2812 60.6113C27.5977 60.4004 27.9141 60.1309 28.2305 59.8027C28.5586 59.4629 28.9863 58.9707 29.5137 58.3262L33.1699 53.791L29.4258 48.6582C28.9102 47.9551 28.5 47.4453 28.1953 47.1289C27.8906 46.8125 27.6094 46.5723 27.3516 46.4082C27.0938 46.2441 26.8359 46.127 26.5781 46.0566V45.1953H33.4688V46.0566C32.543 46.1973 32.0801 46.5605 32.0801 47.1465C32.0801 47.416 32.1387 47.6855 32.2559 47.9551C32.3848 48.2246 32.5781 48.5234 32.8359 48.8516L34.9805 51.8574ZM51.9785 53.1055C51.9785 49.1445 51.3223 45.8574 50.0098 43.2441C48.6973 40.6191 46.6641 38.8555 43.9102 37.9531L44.3848 36.5996C47.8066 37.502 50.4316 39.4531 52.2598 42.4531C54.0996 45.4414 55.0195 49.0508 55.0195 53.2812C55.0195 57.5234 54.1055 61.1328 52.2773 64.1094C50.4492 67.0977 47.8184 69.043 44.3848 69.9453L43.9629 68.5918C46.6699 67.6895 48.6797 65.9082 49.9922 63.248C51.3164 60.5879 51.9785 57.207 51.9785 53.1055ZM68.748 49.2383V46.9004H90.4043V49.2383H68.748ZM68.748 56.5332V54.1953H90.4043V56.5332H68.748ZM115.77 45.5996V49.2734H113.537C113.338 48.5117 113.092 47.9141 112.799 47.4805C112.506 47.0352 112.166 46.7246 111.779 46.5488C111.393 46.373 110.912 46.2852 110.338 46.2852C109.518 46.2852 108.791 46.5488 108.158 47.0762C107.525 47.6035 107.021 48.4062 106.646 49.4844C106.283 50.5625 106.102 51.8809 106.102 53.4395C106.102 54.4355 106.172 55.3496 106.312 56.1816C106.453 57.002 106.693 57.7051 107.033 58.291C107.373 58.877 107.824 59.334 108.387 59.6621C108.949 59.9902 109.646 60.1543 110.479 60.1543C111.287 60.1543 112.037 59.9961 112.729 59.6797C113.432 59.3633 114.158 58.8066 114.908 58.0098L115.91 59.1699C115.312 59.8262 114.785 60.3359 114.328 60.6992C113.871 61.0508 113.379 61.3496 112.852 61.5957C112.336 61.8301 111.82 62 111.305 62.1055C110.801 62.2227 110.25 62.2812 109.652 62.2812C107.438 62.2812 105.744 61.5488 104.572 60.084C103.4 58.6074 102.814 56.4805 102.814 53.7031C102.814 51.9688 103.143 50.4336 103.799 49.0977C104.455 47.75 105.375 46.7129 106.559 45.9863C107.742 45.2598 109.107 44.8965 110.654 44.8965C111.615 44.8965 112.5 44.9551 113.309 45.0723C114.129 45.1777 114.949 45.3535 115.77 45.5996ZM126.211 62.2812C123.773 62.2812 121.91 61.5664 120.621 60.1367C119.344 58.6953 118.705 56.5684 118.705 53.7559C118.705 51.8223 119.039 50.1875 119.707 48.8516C120.387 47.5156 121.312 46.5254 122.484 45.8809C123.656 45.2246 124.992 44.8965 126.492 44.8965C129 44.8965 130.898 45.6289 132.188 47.0938C133.477 48.5469 134.121 50.6387 134.121 53.3691C134.121 55.3145 133.799 56.9551 133.154 58.291C132.51 59.627 131.596 60.6289 130.412 61.2969C129.229 61.9531 127.828 62.2812 126.211 62.2812ZM122.027 53.3867C122.027 55.8008 122.408 57.6582 123.17 58.959C123.943 60.248 125.045 60.8926 126.475 60.8926C127.26 60.8926 127.928 60.7051 128.479 60.3301C129.029 59.9434 129.475 59.4277 129.814 58.7832C130.166 58.1387 130.418 57.3945 130.57 56.5508C130.723 55.6953 130.799 54.8047 130.799 53.8789C130.799 52.1562 130.605 50.7266 130.219 49.5898C129.844 48.4531 129.328 47.6211 128.672 47.0938C128.016 46.5547 127.266 46.2852 126.422 46.2852C125.004 46.2852 123.914 46.9004 123.152 48.1309C122.402 49.3613 122.027 51.1133 122.027 53.3867ZM136.635 46.0742C137.221 45.9805 137.695 45.8164 138.059 45.582C138.422 45.3477 138.703 45.0488 138.902 44.6855C139.113 44.3105 139.277 43.8477 139.395 43.2969C139.512 42.7344 139.635 41.9199 139.764 40.8535H142.26V45.1953H147.938V46.9707H142.26V54.793C142.26 55.9297 142.307 56.8379 142.4 57.5176C142.494 58.1855 142.67 58.7129 142.928 59.0996C143.186 59.4746 143.479 59.7441 143.807 59.9082C144.135 60.0723 144.557 60.1543 145.072 60.1543C145.541 60.1543 145.98 60.0605 146.391 59.873C146.801 59.6738 147.205 59.3926 147.604 59.0293L148.395 59.9785C147.562 60.7871 146.771 61.373 146.021 61.7363C145.283 62.0996 144.516 62.2812 143.719 62.2812C142.207 62.2812 141.082 61.8359 140.344 60.9453C139.605 60.043 139.236 58.6367 139.236 56.7266V46.9707H136.635V46.0742ZM157.324 51.8574L159.609 48.957C159.855 48.6406 160.055 48.3359 160.207 48.043C160.359 47.7383 160.436 47.4277 160.436 47.1113C160.436 46.8418 160.336 46.6191 160.137 46.4434C159.938 46.2676 159.627 46.1387 159.205 46.0566V45.1953H164.953V46.0566C164.508 46.1855 164.051 46.4375 163.582 46.8125C163.125 47.1875 162.562 47.791 161.895 48.623L158.256 53.0879L162.264 58.4844C162.838 59.2578 163.354 59.8496 163.811 60.2598C164.268 60.6699 164.725 60.9629 165.182 61.1387V62H158.115V61.1387C159.088 61.0215 159.574 60.6582 159.574 60.0488C159.574 59.8027 159.533 59.5684 159.451 59.3457C159.369 59.123 159.217 58.8652 158.994 58.5723L156.445 55.0215L153.738 58.5371C153.539 58.7949 153.381 59.0352 153.264 59.2578C153.158 59.4688 153.105 59.709 153.105 59.9785C153.105 60.2949 153.211 60.5586 153.422 60.7695C153.645 60.9688 153.99 61.0918 154.459 61.1387V62H148.588V61.1387C148.975 60.998 149.32 60.8223 149.625 60.6113C149.941 60.4004 150.258 60.1309 150.574 59.8027C150.902 59.4629 151.33 58.9707 151.857 58.3262L155.514 53.791L151.77 48.6582C151.254 47.9551 150.844 47.4453 150.539 47.1289C150.234 46.8125 149.953 46.5723 149.695 46.4082C149.438 46.2441 149.18 46.127 148.922 46.0566V45.1953H155.812V46.0566C154.887 46.1973 154.424 46.5605 154.424 47.1465C154.424 47.416 154.482 47.6855 154.6 47.9551C154.729 48.2246 154.922 48.5234 155.18 48.8516L157.324 51.8574ZM183.586 54.1074H175.43V51.3828H183.586V54.1074ZM188.104 62.6328V59.9961L207.193 51.7168L188.104 43.4375V40.8008L209.83 50.4863V52.9473L188.104 62.6328Z" fill="white"/>
<path d="M231.135 46.9707H226.934V57.6055C226.934 58.3906 226.969 58.9824 227.039 59.3809C227.121 59.7793 227.232 60.084 227.373 60.2949C227.525 60.4941 227.719 60.6582 227.953 60.7871C228.199 60.9043 228.586 61.0215 229.113 61.1387V62H221.924V61.1387C222.439 60.998 222.809 60.8633 223.031 60.7344C223.254 60.6055 223.424 60.4414 223.541 60.2422C223.67 60.043 223.764 59.7559 223.822 59.3809C223.881 59.0059 223.91 58.4141 223.91 57.6055V46.9707H221.783V46.0742C222.229 46.0039 222.521 45.9512 222.662 45.916C222.814 45.8691 222.955 45.8047 223.084 45.7227C223.225 45.6406 223.342 45.5234 223.436 45.3711C223.541 45.2188 223.629 44.9961 223.699 44.7031C223.781 44.3984 223.846 43.9766 223.893 43.4375C223.998 42.1602 224.227 41.123 224.578 40.3262C224.941 39.5293 225.463 38.8496 226.143 38.2871C226.834 37.7246 227.566 37.332 228.34 37.1094C229.125 36.875 230.045 36.7578 231.1 36.7578C232.025 36.7578 232.811 36.8223 233.455 36.9512V40.1328H231.715C231.492 39.4414 231.229 38.9551 230.924 38.6738C230.631 38.3809 230.215 38.2344 229.676 38.2344C229.289 38.2344 228.961 38.2871 228.691 38.3926C228.434 38.498 228.193 38.6621 227.971 38.8848C227.748 39.1074 227.555 39.4062 227.391 39.7812C227.238 40.1562 227.121 40.625 227.039 41.1875C226.969 41.7383 226.934 42.459 226.934 43.3496V45.1953H231.135V46.9707ZM239.959 36.8457C240.1 37.2324 240.205 37.6543 240.275 38.1113C240.357 38.5684 240.398 38.9844 240.398 39.3594C240.398 40.1328 240.281 40.8184 240.047 41.416C239.812 42.0137 239.438 42.623 238.922 43.2441C238.418 43.8535 237.645 44.6152 236.602 45.5293L235.529 44.4746C236.104 43.7832 236.525 43.0859 236.795 42.3828C237.064 41.668 237.199 40.8008 237.199 39.7812C237.199 39.4297 237.182 39.0547 237.146 38.6562C237.111 38.2578 237.023 37.6543 236.883 36.8457H239.959ZM248.467 53.1055C248.467 57.207 249.123 60.5879 250.436 63.248C251.76 65.9082 253.775 67.6895 256.482 68.5918L256.061 69.9453C252.627 69.043 249.996 67.0977 248.168 64.1094C246.34 61.1328 245.426 57.5234 245.426 53.2812C245.426 49.0508 246.34 45.4414 248.168 42.4531C250.008 39.4531 252.639 37.502 256.061 36.5996L256.535 37.9531C253.793 38.8555 251.76 40.6191 250.436 43.2441C249.123 45.8574 248.467 49.1445 248.467 53.1055ZM266.344 51.8574L268.629 48.957C268.875 48.6406 269.074 48.3359 269.227 48.043C269.379 47.7383 269.455 47.4277 269.455 47.1113C269.455 46.8418 269.355 46.6191 269.156 46.4434C268.957 46.2676 268.646 46.1387 268.225 46.0566V45.1953H273.973V46.0566C273.527 46.1855 273.07 46.4375 272.602 46.8125C272.145 47.1875 271.582 47.791 270.914 48.623L267.275 53.0879L271.283 58.4844C271.857 59.2578 272.373 59.8496 272.83 60.2598C273.287 60.6699 273.744 60.9629 274.201 61.1387V62H267.135V61.1387C268.107 61.0215 268.594 60.6582 268.594 60.0488C268.594 59.8027 268.553 59.5684 268.471 59.3457C268.389 59.123 268.236 58.8652 268.014 58.5723L265.465 55.0215L262.758 58.5371C262.559 58.7949 262.4 59.0352 262.283 59.2578C262.178 59.4688 262.125 59.709 262.125 59.9785C262.125 60.2949 262.23 60.5586 262.441 60.7695C262.664 60.9688 263.01 61.0918 263.479 61.1387V62H257.607V61.1387C257.994 60.998 258.34 60.8223 258.645 60.6113C258.961 60.4004 259.277 60.1309 259.594 59.8027C259.922 59.4629 260.35 58.9707 260.877 58.3262L264.533 53.791L260.789 48.6582C260.273 47.9551 259.863 47.4453 259.559 47.1289C259.254 46.8125 258.973 46.5723 258.715 46.4082C258.457 46.2441 258.199 46.127 257.941 46.0566V45.1953H264.832V46.0566C263.906 46.1973 263.443 46.5605 263.443 47.1465C263.443 47.416 263.502 47.6855 263.619 47.9551C263.748 48.2246 263.941 48.5234 264.199 48.8516L266.344 51.8574ZM283.342 53.1055C283.342 49.1445 282.686 45.8574 281.373 43.2441C280.061 40.6191 278.027 38.8555 275.273 37.9531L275.748 36.5996C279.17 37.502 281.795 39.4531 283.623 42.4531C285.463 45.4414 286.383 49.0508 286.383 53.2812C286.383 57.5234 285.469 61.1328 283.641 64.1094C281.812 67.0977 279.182 69.043 275.748 69.9453L275.326 68.5918C278.033 67.6895 280.043 65.9082 281.355 63.248C282.68 60.5879 283.342 57.207 283.342 53.1055ZM300.111 49.2383V46.9004H321.768V49.2383H300.111ZM300.111 56.5332V54.1953H321.768V56.5332H300.111ZM342.387 54.1074H334.23V51.3828H342.387V54.1074ZM359.086 45.5996V49.2734H356.854C356.654 48.5117 356.408 47.9141 356.115 47.4805C355.822 47.0352 355.482 46.7246 355.096 46.5488C354.709 46.373 354.229 46.2852 353.654 46.2852C352.834 46.2852 352.107 46.5488 351.475 47.0762C350.842 47.6035 350.338 48.4062 349.963 49.4844C349.6 50.5625 349.418 51.8809 349.418 53.4395C349.418 54.4355 349.488 55.3496 349.629 56.1816C349.77 57.002 350.01 57.7051 350.35 58.291C350.689 58.877 351.141 59.334 351.703 59.6621C352.266 59.9902 352.963 60.1543 353.795 60.1543C354.604 60.1543 355.354 59.9961 356.045 59.6797C356.748 59.3633 357.475 58.8066 358.225 58.0098L359.227 59.1699C358.629 59.8262 358.102 60.3359 357.645 60.6992C357.188 61.0508 356.695 61.3496 356.168 61.5957C355.652 61.8301 355.137 62 354.621 62.1055C354.117 62.2227 353.566 62.2812 352.969 62.2812C350.754 62.2812 349.061 61.5488 347.889 60.084C346.717 58.6074 346.131 56.4805 346.131 53.7031C346.131 51.9688 346.459 50.4336 347.115 49.0977C347.771 47.75 348.691 46.7129 349.875 45.9863C351.059 45.2598 352.424 44.8965 353.971 44.8965C354.932 44.8965 355.816 44.9551 356.625 45.0723C357.445 45.1777 358.266 45.3535 359.086 45.5996ZM373.658 49.0449H371.971C371.713 48.3418 371.408 47.791 371.057 47.3926C370.705 46.9824 370.307 46.6953 369.861 46.5312C369.416 46.3672 368.871 46.2852 368.227 46.2852C367.289 46.2852 366.539 46.5078 365.977 46.9531C365.426 47.3867 365.15 47.9844 365.15 48.7461C365.15 49.2852 365.262 49.7305 365.484 50.082C365.707 50.4336 366.053 50.7617 366.521 51.0664C366.99 51.3711 367.816 51.7754 369 52.2793C370.195 52.7949 371.115 53.2695 371.76 53.7031C372.416 54.1367 372.926 54.6406 373.289 55.2148C373.664 55.7891 373.852 56.4746 373.852 57.2715C373.852 58.1973 373.693 58.9766 373.377 59.6094C373.061 60.2422 372.615 60.7578 372.041 61.1562C371.467 61.5547 370.781 61.8418 369.984 62.0176C369.199 62.1934 368.338 62.2812 367.4 62.2812C366.416 62.2812 365.461 62.2051 364.535 62.0527C363.609 61.9121 362.707 61.7246 361.828 61.4902V57.8164H363.551C363.867 58.8945 364.336 59.6797 364.957 60.1719C365.578 60.6523 366.434 60.8926 367.523 60.8926C367.945 60.8926 368.355 60.8516 368.754 60.7695C369.164 60.6758 369.527 60.5293 369.844 60.3301C370.16 60.1191 370.412 59.8379 370.6 59.4863C370.787 59.1348 370.881 58.6953 370.881 58.168C370.881 57.5703 370.764 57.084 370.529 56.709C370.295 56.334 369.932 55.9941 369.439 55.6895C368.947 55.373 368.08 54.9512 366.838 54.4238C365.771 53.9785 364.916 53.5449 364.271 53.123C363.627 52.7012 363.117 52.2031 362.742 51.6289C362.379 51.0547 362.197 50.375 362.197 49.5898C362.197 48.6289 362.455 47.7969 362.971 47.0938C363.498 46.3789 364.254 45.834 365.238 45.459C366.223 45.084 367.377 44.8965 368.701 44.8965C369.475 44.8965 370.219 44.9375 370.934 45.0195C371.66 45.0898 372.568 45.2363 373.658 45.459V49.0449ZM390.445 45.5996V49.2734H388.213C388.014 48.5117 387.768 47.9141 387.475 47.4805C387.182 47.0352 386.842 46.7246 386.455 46.5488C386.068 46.373 385.588 46.2852 385.014 46.2852C384.193 46.2852 383.467 46.5488 382.834 47.0762C382.201 47.6035 381.697 48.4062 381.322 49.4844C380.959 50.5625 380.777 51.8809 380.777 53.4395C380.777 54.4355 380.848 55.3496 380.988 56.1816C381.129 57.002 381.369 57.7051 381.709 58.291C382.049 58.877 382.5 59.334 383.062 59.6621C383.625 59.9902 384.322 60.1543 385.154 60.1543C385.963 60.1543 386.713 59.9961 387.404 59.6797C388.107 59.3633 388.834 58.8066 389.584 58.0098L390.586 59.1699C389.988 59.8262 389.461 60.3359 389.004 60.6992C388.547 61.0508 388.055 61.3496 387.527 61.5957C387.012 61.8301 386.496 62 385.98 62.1055C385.477 62.2227 384.926 62.2812 384.328 62.2812C382.113 62.2812 380.42 61.5488 379.248 60.084C378.076 58.6074 377.49 56.4805 377.49 53.7031C377.49 51.9688 377.818 50.4336 378.475 49.0977C379.131 47.75 380.051 46.7129 381.234 45.9863C382.418 45.2598 383.783 44.8965 385.33 44.8965C386.291 44.8965 387.176 44.9551 387.984 45.0723C388.805 45.1777 389.625 45.3535 390.445 45.5996ZM400.43 45.4414C400.84 45.4414 401.15 45.4238 401.361 45.3887C401.584 45.3418 401.76 45.2773 401.889 45.1953C402.018 45.1133 402.123 45.0078 402.205 44.8789C402.299 44.75 402.434 44.4688 402.609 44.0352H403.822L403.576 47.4277H393.275V46.7598C393.674 45.9043 394.213 45.0605 394.893 44.2285C395.572 43.3965 396.369 42.541 397.283 41.6621C398.373 40.6191 399.146 39.834 399.604 39.3066C400.061 38.7676 400.4 38.2637 400.623 37.7949C400.846 37.3145 400.957 36.834 400.957 36.3535C400.957 35.5566 400.729 34.9297 400.271 34.4727C399.826 34.0156 399.182 33.7871 398.338 33.7871C397.611 33.7871 396.99 33.9805 396.475 34.3672C395.971 34.7539 395.584 35.3223 395.314 36.0723H393.645V33.6992C394.688 33.2773 395.648 32.9785 396.527 32.8027C397.406 32.6152 398.186 32.5215 398.865 32.5215C399.791 32.5215 400.553 32.6211 401.15 32.8203C401.76 33.0195 402.246 33.2832 402.609 33.6113C402.973 33.9277 403.225 34.3027 403.365 34.7363C403.518 35.1699 403.594 35.6152 403.594 36.0723C403.594 36.6465 403.477 37.1855 403.242 37.6895C403.008 38.1816 402.621 38.7207 402.082 39.3066C401.555 39.8809 400.611 40.7832 399.252 42.0137C397.799 43.3379 396.744 44.4805 396.088 45.4414H400.43ZM415.336 51.8574L417.621 48.957C417.867 48.6406 418.066 48.3359 418.219 48.043C418.371 47.7383 418.447 47.4277 418.447 47.1113C418.447 46.8418 418.348 46.6191 418.148 46.4434C417.949 46.2676 417.639 46.1387 417.217 46.0566V45.1953H422.965V46.0566C422.52 46.1855 422.062 46.4375 421.594 46.8125C421.137 47.1875 420.574 47.791 419.906 48.623L416.268 53.0879L420.275 58.4844C420.85 59.2578 421.365 59.8496 421.822 60.2598C422.279 60.6699 422.736 60.9629 423.193 61.1387V62H416.127V61.1387C417.1 61.0215 417.586 60.6582 417.586 60.0488C417.586 59.8027 417.545 59.5684 417.463 59.3457C417.381 59.123 417.229 58.8652 417.006 58.5723L414.457 55.0215L411.75 58.5371C411.551 58.7949 411.393 59.0352 411.275 59.2578C411.17 59.4688 411.117 59.709 411.117 59.9785C411.117 60.2949 411.223 60.5586 411.434 60.7695C411.656 60.9688 412.002 61.0918 412.471 61.1387V62H406.6V61.1387C406.986 60.998 407.332 60.8223 407.637 60.6113C407.953 60.4004 408.27 60.1309 408.586 59.8027C408.914 59.4629 409.342 58.9707 409.869 58.3262L413.525 53.791L409.781 48.6582C409.266 47.9551 408.855 47.4453 408.551 47.1289C408.246 46.8125 407.965 46.5723 407.707 46.4082C407.449 46.2441 407.191 46.127 406.934 46.0566V45.1953H413.824V46.0566C412.898 46.1973 412.436 46.5605 412.436 47.1465C412.436 47.416 412.494 47.6855 412.611 47.9551C412.74 48.2246 412.934 48.5234 413.191 48.8516L415.336 51.8574Z" fill="#FF8B8B"/>
<path d="M8.47656 9.8418C8.35352 10.8945 7.96387 11.708 7.30762 12.2822C6.65592 12.8519 5.78776 13.1367 4.70312 13.1367C3.52734 13.1367 2.58398 12.7152 1.87305 11.8721C1.16667 11.029 0.813477 9.90104 0.813477 8.48828V7.53125C0.813477 6.60612 0.977539 5.79264 1.30566 5.09082C1.63835 4.389 2.10775 3.85124 2.71387 3.47754C3.31999 3.09928 4.02181 2.91016 4.81934 2.91016C5.87663 2.91016 6.72428 3.20638 7.3623 3.79883C8.00033 4.38672 8.37174 5.20247 8.47656 6.24609H7.15723C7.04329 5.45312 6.79492 4.87891 6.41211 4.52344C6.03385 4.16797 5.50293 3.99023 4.81934 3.99023C3.98079 3.99023 3.32227 4.30013 2.84375 4.91992C2.36979 5.53971 2.13281 6.42155 2.13281 7.56543V8.5293C2.13281 9.60938 2.3584 10.4684 2.80957 11.1064C3.26074 11.7445 3.89193 12.0635 4.70312 12.0635C5.43229 12.0635 5.99056 11.8994 6.37793 11.5713C6.76986 11.2386 7.02962 10.6621 7.15723 9.8418H8.47656ZM9.74121 9.2334C9.74121 8.50879 9.88249 7.8571 10.165 7.27832C10.4521 6.69954 10.8486 6.25293 11.3545 5.93848C11.8649 5.62402 12.446 5.4668 13.0977 5.4668C14.1048 5.4668 14.9183 5.81543 15.5381 6.5127C16.1624 7.20996 16.4746 8.13737 16.4746 9.29492V9.38379C16.4746 10.1038 16.3356 10.751 16.0576 11.3252C15.7842 11.8949 15.39 12.3392 14.875 12.6582C14.3646 12.9772 13.7767 13.1367 13.1113 13.1367C12.1087 13.1367 11.2952 12.7881 10.6709 12.0908C10.0511 11.3936 9.74121 10.4707 9.74121 9.32227V9.2334ZM11.0127 9.38379C11.0127 10.2041 11.2018 10.8626 11.5801 11.3594C11.9629 11.8561 12.4733 12.1045 13.1113 12.1045C13.7539 12.1045 14.2643 11.8538 14.6426 11.3525C15.0208 10.8467 15.21 10.1403 15.21 9.2334C15.21 8.4222 15.0163 7.76595 14.6289 7.26465C14.2461 6.75879 13.7357 6.50586 13.0977 6.50586C12.4733 6.50586 11.9697 6.75423 11.5869 7.25098C11.2041 7.74772 11.0127 8.45866 11.0127 9.38379ZM19.7764 3.8125V5.60352H21.1572V6.58105H19.7764V11.168C19.7764 11.4642 19.8379 11.6875 19.9609 11.8379C20.084 11.9837 20.2936 12.0566 20.5898 12.0566C20.7357 12.0566 20.9362 12.0293 21.1914 11.9746V13C20.8587 13.0911 20.5352 13.1367 20.2207 13.1367C19.6556 13.1367 19.2295 12.9658 18.9424 12.624C18.6553 12.2822 18.5117 11.7969 18.5117 11.168V6.58105H17.165V5.60352H18.5117V3.8125H19.7764ZM27.207 13C27.1341 12.8542 27.0749 12.5944 27.0293 12.2207C26.4414 12.8314 25.7396 13.1367 24.9238 13.1367C24.1947 13.1367 23.5954 12.9316 23.126 12.5215C22.6611 12.1068 22.4287 11.5827 22.4287 10.9492C22.4287 10.179 22.7204 9.58203 23.3037 9.1582C23.8916 8.72982 24.7165 8.51562 25.7783 8.51562H27.0088V7.93457C27.0088 7.49251 26.8766 7.1416 26.6123 6.88184C26.348 6.61751 25.9583 6.48535 25.4434 6.48535C24.9922 6.48535 24.6139 6.59928 24.3086 6.82715C24.0033 7.05501 23.8506 7.33073 23.8506 7.6543H22.5791C22.5791 7.28516 22.709 6.92969 22.9688 6.58789C23.2331 6.24154 23.5885 5.9681 24.0352 5.76758C24.4863 5.56706 24.9808 5.4668 25.5186 5.4668C26.3708 5.4668 27.0384 5.68099 27.5215 6.10938C28.0046 6.5332 28.2552 7.11882 28.2734 7.86621V11.2705C28.2734 11.9495 28.36 12.4896 28.5332 12.8906V13H27.207ZM25.1084 12.0361C25.5049 12.0361 25.8809 11.9336 26.2363 11.7285C26.5918 11.5234 26.8493 11.2568 27.0088 10.9287V9.41113H26.0176C24.4681 9.41113 23.6934 9.86458 23.6934 10.7715C23.6934 11.168 23.8255 11.4779 24.0898 11.7012C24.3542 11.9245 24.6937 12.0361 25.1084 12.0361ZM31.4521 5.60352L31.4932 6.5332C32.0583 5.82227 32.7965 5.4668 33.708 5.4668C35.2712 5.4668 36.0596 6.34863 36.0732 8.1123V13H34.8086V8.10547C34.804 7.57227 34.681 7.17806 34.4395 6.92285C34.2025 6.66764 33.8311 6.54004 33.3252 6.54004C32.915 6.54004 32.555 6.64941 32.2451 6.86816C31.9352 7.08691 31.6937 7.37402 31.5205 7.72949V13H30.2559V5.60352H31.4521ZM37.6797 9.24023C37.6797 8.08724 37.9463 7.17122 38.4795 6.49219C39.0127 5.80859 39.7191 5.4668 40.5986 5.4668C41.501 5.4668 42.2051 5.78581 42.7109 6.42383L42.7725 5.60352H43.9277V12.8223C43.9277 13.7793 43.6429 14.5335 43.0732 15.085C42.5081 15.6364 41.7471 15.9121 40.79 15.9121C40.2568 15.9121 39.735 15.7982 39.2246 15.5703C38.7142 15.3424 38.3245 15.0303 38.0557 14.6338L38.7119 13.875C39.2542 14.5449 39.9173 14.8799 40.7012 14.8799C41.3164 14.8799 41.7949 14.7067 42.1367 14.3604C42.4831 14.014 42.6562 13.5264 42.6562 12.8975V12.2617C42.1504 12.8451 41.46 13.1367 40.585 13.1367C39.7191 13.1367 39.0173 12.7881 38.4795 12.0908C37.9463 11.3936 37.6797 10.4434 37.6797 9.24023ZM38.9512 9.38379C38.9512 10.2178 39.1221 10.874 39.4639 11.3525C39.8057 11.8265 40.2842 12.0635 40.8994 12.0635C41.6969 12.0635 42.2826 11.7012 42.6562 10.9766V7.59961C42.2689 6.89323 41.6878 6.54004 40.9131 6.54004C40.2979 6.54004 39.8171 6.7793 39.4707 7.25781C39.1243 7.73633 38.9512 8.44499 38.9512 9.38379ZM48.9111 13.1367C47.9085 13.1367 47.0928 12.8086 46.4639 12.1523C45.835 11.4915 45.5205 10.6097 45.5205 9.50684V9.27441C45.5205 8.54069 45.6595 7.88672 45.9375 7.3125C46.2201 6.73372 46.612 6.28255 47.1133 5.95898C47.6191 5.63086 48.166 5.4668 48.7539 5.4668C49.7155 5.4668 50.4629 5.78353 50.9961 6.41699C51.5293 7.05046 51.7959 7.95736 51.7959 9.1377V9.66406H46.7852C46.8034 10.3932 47.0153 10.9834 47.4209 11.4346C47.8311 11.8812 48.3506 12.1045 48.9795 12.1045C49.4261 12.1045 49.8044 12.0133 50.1143 11.8311C50.4242 11.6488 50.6953 11.4072 50.9277 11.1064L51.7002 11.708C51.0804 12.6605 50.1507 13.1367 48.9111 13.1367ZM48.7539 6.50586C48.2435 6.50586 47.8151 6.69271 47.4688 7.06641C47.1224 7.43555 46.9082 7.95508 46.8262 8.625H50.5312V8.5293C50.4948 7.88672 50.3216 7.38997 50.0117 7.03906C49.7018 6.68359 49.2826 6.50586 48.7539 6.50586ZM54.4619 5.60352L54.5029 6.5332C55.068 5.82227 55.8063 5.4668 56.7178 5.4668C58.2809 5.4668 59.0693 6.34863 59.083 8.1123V13H57.8184V8.10547C57.8138 7.57227 57.6908 7.17806 57.4492 6.92285C57.2122 6.66764 56.8408 6.54004 56.335 6.54004C55.9248 6.54004 55.5648 6.64941 55.2549 6.86816C54.945 7.08691 54.7035 7.37402 54.5303 7.72949V13H53.2656V5.60352H54.4619ZM62.7061 3.8125V5.60352H64.0869V6.58105H62.7061V11.168C62.7061 11.4642 62.7676 11.6875 62.8906 11.8379C63.0137 11.9837 63.2233 12.0566 63.5195 12.0566C63.6654 12.0566 63.8659 12.0293 64.1211 11.9746V13C63.7884 13.0911 63.4648 13.1367 63.1504 13.1367C62.5853 13.1367 62.1592 12.9658 61.8721 12.624C61.585 12.2822 61.4414 11.7969 61.4414 11.168V6.58105H60.0947V5.60352H61.4414V3.8125H62.7061ZM68.6396 13.1367C67.637 13.1367 66.8213 12.8086 66.1924 12.1523C65.5635 11.4915 65.249 10.6097 65.249 9.50684V9.27441C65.249 8.54069 65.388 7.88672 65.666 7.3125C65.9486 6.73372 66.3405 6.28255 66.8418 5.95898C67.3477 5.63086 67.8945 5.4668 68.4824 5.4668C69.444 5.4668 70.1914 5.78353 70.7246 6.41699C71.2578 7.05046 71.5244 7.95736 71.5244 9.1377V9.66406H66.5137C66.5319 10.3932 66.7438 10.9834 67.1494 11.4346C67.5596 11.8812 68.0791 12.1045 68.708 12.1045C69.1546 12.1045 69.5329 12.0133 69.8428 11.8311C70.1527 11.6488 70.4238 11.4072 70.6562 11.1064L71.4287 11.708C70.8089 12.6605 69.8792 13.1367 68.6396 13.1367ZM68.4824 6.50586C67.972 6.50586 67.5436 6.69271 67.1973 7.06641C66.8509 7.43555 66.6367 7.95508 66.5547 8.625H70.2598V8.5293C70.2233 7.88672 70.0501 7.38997 69.7402 7.03906C69.4303 6.68359 69.0111 6.50586 68.4824 6.50586Z" fill="#41D17A"/>
</svg>
