<svg width="500" height="74" viewBox="0 0 500 74" fill="none" xmlns="http://www.w3.org/2000/svg">
<path d="M10.7402 46.9707H6.53906V57.6055C6.53906 58.3906 6.57422 58.9824 6.64453 59.3809C6.72656 59.7793 6.83789 60.084 6.97852 60.2949C7.13086 60.4941 7.32422 60.6582 7.55859 60.7871C7.80469 60.9043 8.19141 61.0215 8.71875 61.1387V62H1.5293V61.1387C2.04492 60.998 2.41406 60.8633 2.63672 60.7344C2.85938 60.6055 3.0293 60.4414 3.14648 60.2422C3.27539 60.043 3.36914 59.7559 3.42773 59.3809C3.48633 59.0059 3.51562 58.4141 3.51562 57.6055V46.9707H1.38867V46.0742C1.83398 46.0039 2.12695 45.9512 2.26758 45.916C2.41992 45.8691 2.56055 45.8047 2.68945 45.7227C2.83008 45.6406 2.94727 45.5234 3.04102 45.3711C3.14648 45.2188 3.23438 44.9961 3.30469 44.7031C3.38672 44.3984 3.45117 43.9766 3.49805 43.4375C3.60352 42.1602 3.83203 41.123 4.18359 40.3262C4.54688 39.5293 5.06836 38.8496 5.74805 38.2871C6.43945 37.7246 7.17188 37.332 7.94531 37.1094C8.73047 36.875 9.65039 36.7578 10.7051 36.7578C11.6309 36.7578 12.416 36.8223 13.0605 36.9512V40.1328H11.3203C11.0977 39.4414 10.834 38.9551 10.5293 38.6738C10.2363 38.3809 9.82031 38.2344 9.28125 38.2344C8.89453 38.2344 8.56641 38.2871 8.29688 38.3926C8.03906 38.498 7.79883 38.6621 7.57617 38.8848C7.35352 39.1074 7.16016 39.4062 6.99609 39.7812C6.84375 40.1562 6.72656 40.625 6.64453 41.1875C6.57422 41.7383 6.53906 42.459 6.53906 43.3496V45.1953H10.7402V46.9707ZM17.1035 53.1055C17.1035 57.207 17.7598 60.5879 19.0723 63.248C20.3965 65.9082 22.4121 67.6895 25.1191 68.5918L24.6973 69.9453C21.2637 69.043 18.6328 67.0977 16.8047 64.1094C14.9766 61.1328 14.0625 57.5234 14.0625 53.2812C14.0625 49.0508 14.9766 45.4414 16.8047 42.4531C18.6445 39.4531 21.2754 37.502 24.6973 36.5996L25.1719 37.9531C22.4297 38.8555 20.3965 40.6191 19.0723 43.2441C17.7598 45.8574 17.1035 49.1445 17.1035 53.1055ZM34.9805 51.8574L37.2656 48.957C37.5117 48.6406 37.7109 48.3359 37.8633 48.043C38.0156 47.7383 38.0918 47.4277 38.0918 47.1113C38.0918 46.8418 37.9922 46.6191 37.793 46.4434C37.5938 46.2676 37.2832 46.1387 36.8613 46.0566V45.1953H42.6094V46.0566C42.1641 46.1855 41.707 46.4375 41.2383 46.8125C40.7812 47.1875 40.2188 47.791 39.5508 48.623L35.9121 53.0879L39.9199 58.4844C40.4941 59.2578 41.0098 59.8496 41.4668 60.2598C41.9238 60.6699 42.3809 60.9629 42.8379 61.1387V62H35.7715V61.1387C36.7441 61.0215 37.2305 60.6582 37.2305 60.0488C37.2305 59.8027 37.1895 59.5684 37.1074 59.3457C37.0254 59.123 36.873 58.8652 36.6504 58.5723L34.1016 55.0215L31.3945 58.5371C31.1953 58.7949 31.0371 59.0352 30.9199 59.2578C30.8145 59.4688 30.7617 59.709 30.7617 59.9785C30.7617 60.2949 30.8672 60.5586 31.0781 60.7695C31.3008 60.9688 31.6465 61.0918 32.1152 61.1387V62H26.2441V61.1387C26.6309 60.998 26.9766 60.8223 27.2812 60.6113C27.5977 60.4004 27.9141 60.1309 28.2305 59.8027C28.5586 59.4629 28.9863 58.9707 29.5137 58.3262L33.1699 53.791L29.4258 48.6582C28.9102 47.9551 28.5 47.4453 28.1953 47.1289C27.8906 46.8125 27.6094 46.5723 27.3516 46.4082C27.0938 46.2441 26.8359 46.127 26.5781 46.0566V45.1953H33.4688V46.0566C32.543 46.1973 32.0801 46.5605 32.0801 47.1465C32.0801 47.416 32.1387 47.6855 32.2559 47.9551C32.3848 48.2246 32.5781 48.5234 32.8359 48.8516L34.9805 51.8574ZM51.9785 53.1055C51.9785 49.1445 51.3223 45.8574 50.0098 43.2441C48.6973 40.6191 46.6641 38.8555 43.9102 37.9531L44.3848 36.5996C47.8066 37.502 50.4316 39.4531 52.2598 42.4531C54.0996 45.4414 55.0195 49.0508 55.0195 53.2812C55.0195 57.5234 54.1055 61.1328 52.2773 64.1094C50.4492 67.0977 47.8184 69.043 44.3848 69.9453L43.9629 68.5918C46.6699 67.6895 48.6797 65.9082 49.9922 63.248C51.3164 60.5879 51.9785 57.207 51.9785 53.1055ZM68.748 49.2383V46.9004H90.4043V49.2383H68.748ZM68.748 56.5332V54.1953H90.4043V56.5332H68.748ZM114.451 49.0449H112.764C112.506 48.3418 112.201 47.791 111.85 47.3926C111.498 46.9824 111.1 46.6953 110.654 46.5312C110.209 46.3672 109.664 46.2852 109.02 46.2852C108.082 46.2852 107.332 46.5078 106.77 46.9531C106.219 47.3867 105.943 47.9844 105.943 48.7461C105.943 49.2852 106.055 49.7305 106.277 50.082C106.5 50.4336 106.846 50.7617 107.314 51.0664C107.783 51.3711 108.609 51.7754 109.793 52.2793C110.988 52.7949 111.908 53.2695 112.553 53.7031C113.209 54.1367 113.719 54.6406 114.082 55.2148C114.457 55.7891 114.645 56.4746 114.645 57.2715C114.645 58.1973 114.486 58.9766 114.17 59.6094C113.854 60.2422 113.408 60.7578 112.834 61.1562C112.26 61.5547 111.574 61.8418 110.777 62.0176C109.992 62.1934 109.131 62.2812 108.193 62.2812C107.209 62.2812 106.254 62.2051 105.328 62.0527C104.402 61.9121 103.5 61.7246 102.621 61.4902V57.8164H104.344C104.66 58.8945 105.129 59.6797 105.75 60.1719C106.371 60.6523 107.227 60.8926 108.316 60.8926C108.738 60.8926 109.148 60.8516 109.547 60.7695C109.957 60.6758 110.32 60.5293 110.637 60.3301C110.953 60.1191 111.205 59.8379 111.393 59.4863C111.58 59.1348 111.674 58.6953 111.674 58.168C111.674 57.5703 111.557 57.084 111.322 56.709C111.088 56.334 110.725 55.9941 110.232 55.6895C109.74 55.373 108.873 54.9512 107.631 54.4238C106.564 53.9785 105.709 53.5449 105.064 53.123C104.42 52.7012 103.91 52.2031 103.535 51.6289C103.172 51.0547 102.99 50.375 102.99 49.5898C102.99 48.6289 103.248 47.7969 103.764 47.0938C104.291 46.3789 105.047 45.834 106.031 45.459C107.016 45.084 108.17 44.8965 109.494 44.8965C110.268 44.8965 111.012 44.9375 111.727 45.0195C112.453 45.0898 113.361 45.2363 114.451 45.459V49.0449ZM132.188 59.0117C131.438 59.7969 130.746 60.4121 130.113 60.8574C129.492 61.3027 128.807 61.6543 128.057 61.9121C127.307 62.1582 126.48 62.2812 125.578 62.2812C123.164 62.2812 121.342 61.5605 120.111 60.1191C118.881 58.666 118.266 56.5273 118.266 53.7031C118.266 51.957 118.576 50.416 119.197 49.0801C119.83 47.7441 120.727 46.7129 121.887 45.9863C123.047 45.2598 124.383 44.8965 125.895 44.8965C127.078 44.8965 128.086 45.084 128.918 45.459C129.75 45.834 130.412 46.3496 130.904 47.0059C131.408 47.6504 131.795 48.4707 132.064 49.4668C132.346 50.4512 132.504 51.7402 132.539 53.334H121.465V53.6504C121.465 55.0332 121.617 56.1992 121.922 57.1484C122.238 58.0859 122.748 58.8242 123.451 59.3633C124.166 59.8906 125.092 60.1543 126.229 60.1543C127.189 60.1543 128.051 59.9785 128.812 59.627C129.586 59.2637 130.354 58.6777 131.115 57.8691L132.188 59.0117ZM129.234 51.875C129.164 50.6094 129.006 49.5781 128.76 48.7812C128.514 47.9727 128.145 47.3574 127.652 46.9355C127.16 46.502 126.516 46.2852 125.719 46.2852C124.512 46.2852 123.545 46.7715 122.818 47.7441C122.104 48.7051 121.682 50.082 121.553 51.875H129.234ZM148.816 45.5996V49.2734H146.584C146.385 48.5117 146.139 47.9141 145.846 47.4805C145.553 47.0352 145.213 46.7246 144.826 46.5488C144.439 46.373 143.959 46.2852 143.385 46.2852C142.564 46.2852 141.838 46.5488 141.205 47.0762C140.572 47.6035 140.068 48.4062 139.693 49.4844C139.33 50.5625 139.148 51.8809 139.148 53.4395C139.148 54.4355 139.219 55.3496 139.359 56.1816C139.5 57.002 139.74 57.7051 140.08 58.291C140.42 58.877 140.871 59.334 141.434 59.6621C141.996 59.9902 142.693 60.1543 143.525 60.1543C144.334 60.1543 145.084 59.9961 145.775 59.6797C146.479 59.3633 147.205 58.8066 147.955 58.0098L148.957 59.1699C148.359 59.8262 147.832 60.3359 147.375 60.6992C146.918 61.0508 146.426 61.3496 145.898 61.5957C145.383 61.8301 144.867 62 144.352 62.1055C143.848 62.2227 143.297 62.2812 142.699 62.2812C140.484 62.2812 138.791 61.5488 137.619 60.084C136.447 58.6074 135.861 56.4805 135.861 53.7031C135.861 51.9688 136.189 50.4336 136.846 49.0977C137.502 47.75 138.422 46.7129 139.605 45.9863C140.789 45.2598 142.154 44.8965 143.701 44.8965C144.662 44.8965 145.547 44.9551 146.355 45.0723C147.176 45.1777 147.996 45.3535 148.816 45.5996ZM167.906 54.1074H159.75V51.3828H167.906V54.1074ZM172.424 62.6328V59.9961L191.514 51.7168L172.424 43.4375V40.8008L194.15 50.4863V52.9473L172.424 62.6328Z" fill="white"/>
<path d="M215.455 46.9707H211.254V57.6055C211.254 58.3906 211.289 58.9824 211.359 59.3809C211.441 59.7793 211.553 60.084 211.693 60.2949C211.846 60.4941 212.039 60.6582 212.273 60.7871C212.52 60.9043 212.906 61.0215 213.434 61.1387V62H206.244V61.1387C206.76 60.998 207.129 60.8633 207.352 60.7344C207.574 60.6055 207.744 60.4414 207.861 60.2422C207.99 60.043 208.084 59.7559 208.143 59.3809C208.201 59.0059 208.23 58.4141 208.23 57.6055V46.9707H206.104V46.0742C206.549 46.0039 206.842 45.9512 206.982 45.916C207.135 45.8691 207.275 45.8047 207.404 45.7227C207.545 45.6406 207.662 45.5234 207.756 45.3711C207.861 45.2188 207.949 44.9961 208.02 44.7031C208.102 44.3984 208.166 43.9766 208.213 43.4375C208.318 42.1602 208.547 41.123 208.898 40.3262C209.262 39.5293 209.783 38.8496 210.463 38.2871C211.154 37.7246 211.887 37.332 212.66 37.1094C213.445 36.875 214.365 36.7578 215.42 36.7578C216.346 36.7578 217.131 36.8223 217.775 36.9512V40.1328H216.035C215.812 39.4414 215.549 38.9551 215.244 38.6738C214.951 38.3809 214.535 38.2344 213.996 38.2344C213.609 38.2344 213.281 38.2871 213.012 38.3926C212.754 38.498 212.514 38.6621 212.291 38.8848C212.068 39.1074 211.875 39.4062 211.711 39.7812C211.559 40.1562 211.441 40.625 211.359 41.1875C211.289 41.7383 211.254 42.459 211.254 43.3496V45.1953H215.455V46.9707ZM224.279 36.8457C224.42 37.2324 224.525 37.6543 224.596 38.1113C224.678 38.5684 224.719 38.9844 224.719 39.3594C224.719 40.1328 224.602 40.8184 224.367 41.416C224.133 42.0137 223.758 42.623 223.242 43.2441C222.738 43.8535 221.965 44.6152 220.922 45.5293L219.85 44.4746C220.424 43.7832 220.846 43.0859 221.115 42.3828C221.385 41.668 221.52 40.8008 221.52 39.7812C221.52 39.4297 221.502 39.0547 221.467 38.6562C221.432 38.2578 221.344 37.6543 221.203 36.8457H224.279ZM232.787 53.1055C232.787 57.207 233.443 60.5879 234.756 63.248C236.08 65.9082 238.096 67.6895 240.803 68.5918L240.381 69.9453C236.947 69.043 234.316 67.0977 232.488 64.1094C230.66 61.1328 229.746 57.5234 229.746 53.2812C229.746 49.0508 230.66 45.4414 232.488 42.4531C234.328 39.4531 236.959 37.502 240.381 36.5996L240.855 37.9531C238.113 38.8555 236.08 40.6191 234.756 43.2441C233.443 45.8574 232.787 49.1445 232.787 53.1055ZM250.664 51.8574L252.949 48.957C253.195 48.6406 253.395 48.3359 253.547 48.043C253.699 47.7383 253.775 47.4277 253.775 47.1113C253.775 46.8418 253.676 46.6191 253.477 46.4434C253.277 46.2676 252.967 46.1387 252.545 46.0566V45.1953H258.293V46.0566C257.848 46.1855 257.391 46.4375 256.922 46.8125C256.465 47.1875 255.902 47.791 255.234 48.623L251.596 53.0879L255.604 58.4844C256.178 59.2578 256.693 59.8496 257.15 60.2598C257.607 60.6699 258.064 60.9629 258.521 61.1387V62H251.455V61.1387C252.428 61.0215 252.914 60.6582 252.914 60.0488C252.914 59.8027 252.873 59.5684 252.791 59.3457C252.709 59.123 252.557 58.8652 252.334 58.5723L249.785 55.0215L247.078 58.5371C246.879 58.7949 246.721 59.0352 246.604 59.2578C246.498 59.4688 246.445 59.709 246.445 59.9785C246.445 60.2949 246.551 60.5586 246.762 60.7695C246.984 60.9688 247.33 61.0918 247.799 61.1387V62H241.928V61.1387C242.314 60.998 242.66 60.8223 242.965 60.6113C243.281 60.4004 243.598 60.1309 243.914 59.8027C244.242 59.4629 244.67 58.9707 245.197 58.3262L248.854 53.791L245.109 48.6582C244.594 47.9551 244.184 47.4453 243.879 47.1289C243.574 46.8125 243.293 46.5723 243.035 46.4082C242.777 46.2441 242.52 46.127 242.262 46.0566V45.1953H249.152V46.0566C248.227 46.1973 247.764 46.5605 247.764 47.1465C247.764 47.416 247.822 47.6855 247.939 47.9551C248.068 48.2246 248.262 48.5234 248.52 48.8516L250.664 51.8574ZM267.662 53.1055C267.662 49.1445 267.006 45.8574 265.693 43.2441C264.381 40.6191 262.348 38.8555 259.594 37.9531L260.068 36.5996C263.49 37.502 266.115 39.4531 267.943 42.4531C269.783 45.4414 270.703 49.0508 270.703 53.2812C270.703 57.5234 269.789 61.1328 267.961 64.1094C266.133 67.0977 263.502 69.043 260.068 69.9453L259.646 68.5918C262.354 67.6895 264.363 65.9082 265.676 63.248C267 60.5879 267.662 57.207 267.662 53.1055ZM284.432 49.2383V46.9004H306.088V49.2383H284.432ZM284.432 56.5332V54.1953H306.088V56.5332H284.432ZM330.135 49.0449H328.447C328.189 48.3418 327.885 47.791 327.533 47.3926C327.182 46.9824 326.783 46.6953 326.338 46.5312C325.893 46.3672 325.348 46.2852 324.703 46.2852C323.766 46.2852 323.016 46.5078 322.453 46.9531C321.902 47.3867 321.627 47.9844 321.627 48.7461C321.627 49.2852 321.738 49.7305 321.961 50.082C322.184 50.4336 322.529 50.7617 322.998 51.0664C323.467 51.3711 324.293 51.7754 325.477 52.2793C326.672 52.7949 327.592 53.2695 328.236 53.7031C328.893 54.1367 329.402 54.6406 329.766 55.2148C330.141 55.7891 330.328 56.4746 330.328 57.2715C330.328 58.1973 330.17 58.9766 329.854 59.6094C329.537 60.2422 329.092 60.7578 328.518 61.1562C327.943 61.5547 327.258 61.8418 326.461 62.0176C325.676 62.1934 324.814 62.2812 323.877 62.2812C322.893 62.2812 321.938 62.2051 321.012 62.0527C320.086 61.9121 319.184 61.7246 318.305 61.4902V57.8164H320.027C320.344 58.8945 320.812 59.6797 321.434 60.1719C322.055 60.6523 322.91 60.8926 324 60.8926C324.422 60.8926 324.832 60.8516 325.23 60.7695C325.641 60.6758 326.004 60.5293 326.32 60.3301C326.637 60.1191 326.889 59.8379 327.076 59.4863C327.264 59.1348 327.357 58.6953 327.357 58.168C327.357 57.5703 327.24 57.084 327.006 56.709C326.771 56.334 326.408 55.9941 325.916 55.6895C325.424 55.373 324.557 54.9512 323.314 54.4238C322.248 53.9785 321.393 53.5449 320.748 53.123C320.104 52.7012 319.594 52.2031 319.219 51.6289C318.855 51.0547 318.674 50.375 318.674 49.5898C318.674 48.6289 318.932 47.7969 319.447 47.0938C319.975 46.3789 320.73 45.834 321.715 45.459C322.699 45.084 323.854 44.8965 325.178 44.8965C325.951 44.8965 326.695 44.9375 327.41 45.0195C328.137 45.0898 329.045 45.2363 330.135 45.459V49.0449ZM347.871 59.0117C347.121 59.7969 346.43 60.4121 345.797 60.8574C345.176 61.3027 344.49 61.6543 343.74 61.9121C342.99 62.1582 342.164 62.2812 341.262 62.2812C338.848 62.2812 337.025 61.5605 335.795 60.1191C334.564 58.666 333.949 56.5273 333.949 53.7031C333.949 51.957 334.26 50.416 334.881 49.0801C335.514 47.7441 336.41 46.7129 337.57 45.9863C338.73 45.2598 340.066 44.8965 341.578 44.8965C342.762 44.8965 343.77 45.084 344.602 45.459C345.434 45.834 346.096 46.3496 346.588 47.0059C347.092 47.6504 347.479 48.4707 347.748 49.4668C348.029 50.4512 348.188 51.7402 348.223 53.334H337.148V53.6504C337.148 55.0332 337.301 56.1992 337.605 57.1484C337.922 58.0859 338.432 58.8242 339.135 59.3633C339.85 59.8906 340.775 60.1543 341.912 60.1543C342.873 60.1543 343.734 59.9785 344.496 59.627C345.27 59.2637 346.037 58.6777 346.799 57.8691L347.871 59.0117ZM344.918 51.875C344.848 50.6094 344.689 49.5781 344.443 48.7812C344.197 47.9727 343.828 47.3574 343.336 46.9355C342.844 46.502 342.199 46.2852 341.402 46.2852C340.195 46.2852 339.229 46.7715 338.502 47.7441C337.787 48.7051 337.365 50.082 337.236 51.875H344.918ZM364.5 45.5996V49.2734H362.268C362.068 48.5117 361.822 47.9141 361.529 47.4805C361.236 47.0352 360.896 46.7246 360.51 46.5488C360.123 46.373 359.643 46.2852 359.068 46.2852C358.248 46.2852 357.521 46.5488 356.889 47.0762C356.256 47.6035 355.752 48.4062 355.377 49.4844C355.014 50.5625 354.832 51.8809 354.832 53.4395C354.832 54.4355 354.902 55.3496 355.043 56.1816C355.184 57.002 355.424 57.7051 355.764 58.291C356.104 58.877 356.555 59.334 357.117 59.6621C357.68 59.9902 358.377 60.1543 359.209 60.1543C360.018 60.1543 360.768 59.9961 361.459 59.6797C362.162 59.3633 362.889 58.8066 363.639 58.0098L364.641 59.1699C364.043 59.8262 363.516 60.3359 363.059 60.6992C362.602 61.0508 362.109 61.3496 361.582 61.5957C361.066 61.8301 360.551 62 360.035 62.1055C359.531 62.2227 358.98 62.2812 358.383 62.2812C356.168 62.2812 354.475 61.5488 353.303 60.084C352.131 58.6074 351.545 56.4805 351.545 53.7031C351.545 51.9688 351.873 50.4336 352.529 49.0977C353.186 47.75 354.105 46.7129 355.289 45.9863C356.473 45.2598 357.838 44.8965 359.385 44.8965C360.346 44.8965 361.23 44.9551 362.039 45.0723C362.859 45.1777 363.68 45.3535 364.5 45.5996ZM374.73 51.8574L377.016 48.957C377.262 48.6406 377.461 48.3359 377.613 48.043C377.766 47.7383 377.842 47.4277 377.842 47.1113C377.842 46.8418 377.742 46.6191 377.543 46.4434C377.344 46.2676 377.033 46.1387 376.611 46.0566V45.1953H382.359V46.0566C381.914 46.1855 381.457 46.4375 380.988 46.8125C380.531 47.1875 379.969 47.791 379.301 48.623L375.662 53.0879L379.67 58.4844C380.244 59.2578 380.76 59.8496 381.217 60.2598C381.674 60.6699 382.131 60.9629 382.588 61.1387V62H375.521V61.1387C376.494 61.0215 376.98 60.6582 376.98 60.0488C376.98 59.8027 376.939 59.5684 376.857 59.3457C376.775 59.123 376.623 58.8652 376.4 58.5723L373.852 55.0215L371.145 58.5371C370.945 58.7949 370.787 59.0352 370.67 59.2578C370.564 59.4688 370.512 59.709 370.512 59.9785C370.512 60.2949 370.617 60.5586 370.828 60.7695C371.051 60.9688 371.396 61.0918 371.865 61.1387V62H365.994V61.1387C366.381 60.998 366.727 60.8223 367.031 60.6113C367.348 60.4004 367.664 60.1309 367.98 59.8027C368.309 59.4629 368.736 58.9707 369.264 58.3262L372.92 53.791L369.176 48.6582C368.66 47.9551 368.25 47.4453 367.945 47.1289C367.641 46.8125 367.359 46.5723 367.102 46.4082C366.844 46.2441 366.586 46.127 366.328 46.0566V45.1953H373.219V46.0566C372.293 46.1973 371.83 46.5605 371.83 47.1465C371.83 47.416 371.889 47.6855 372.006 47.9551C372.135 48.2246 372.328 48.5234 372.586 48.8516L374.73 51.8574ZM404.947 45.8281L403.805 47.7793L399.287 44.5977L399.797 50.0996H397.477L398.004 44.5977L393.469 47.7793L392.309 45.8281L397.336 43.4727L392.309 41.1348L393.469 39.166L398.004 42.3477L397.477 36.8457H399.797L399.287 42.3477L403.805 39.166L404.947 41.1348L399.938 43.4727L404.947 45.8281ZM414.932 46.0742C415.518 45.9805 415.992 45.8164 416.355 45.582C416.719 45.3477 417 45.0488 417.199 44.6855C417.41 44.3105 417.574 43.8477 417.691 43.2969C417.809 42.7344 417.932 41.9199 418.061 40.8535H420.557V45.1953H426.234V46.9707H420.557V54.793C420.557 55.9297 420.604 56.8379 420.697 57.5176C420.791 58.1855 420.967 58.7129 421.225 59.0996C421.482 59.4746 421.775 59.7441 422.104 59.9082C422.432 60.0723 422.854 60.1543 423.369 60.1543C423.838 60.1543 424.277 60.0605 424.688 59.873C425.098 59.6738 425.502 59.3926 425.9 59.0293L426.691 59.9785C425.859 60.7871 425.068 61.373 424.318 61.7363C423.58 62.0996 422.812 62.2812 422.016 62.2812C420.504 62.2812 419.379 61.8359 418.641 60.9453C417.902 60.043 417.533 58.6367 417.533 56.7266V46.9707H414.932V46.0742ZM438.346 59.4863L438.082 59.416C437.062 60.459 436.102 61.1973 435.199 61.6309C434.309 62.0645 433.359 62.2812 432.352 62.2812C431.461 62.2812 430.676 62.1113 429.996 61.7715C429.316 61.4199 428.795 60.9336 428.432 60.3125C428.068 59.6797 427.887 58.9531 427.887 58.1328C427.887 56.4219 428.73 55.1035 430.418 54.1777C432.117 53.2402 434.66 52.6953 438.047 52.543V51.4004C438.047 50.1816 437.93 49.2207 437.695 48.5176C437.461 47.8145 437.092 47.2988 436.588 46.9707C436.084 46.6426 435.41 46.4785 434.566 46.4785C433.652 46.4785 432.914 46.7188 432.352 47.1992C431.801 47.6797 431.385 48.4004 431.104 49.3613H428.801V47.0762C429.926 46.4902 430.863 46.0625 431.613 45.793C432.363 45.5117 433.113 45.2949 433.863 45.1426C434.613 44.9785 435.375 44.8965 436.148 44.8965C437.309 44.8965 438.24 45.084 438.943 45.459C439.646 45.8223 440.174 46.3848 440.525 47.1465C440.877 47.9082 441.053 49.0566 441.053 50.5918V56.709C441.053 57.5762 441.059 58.1914 441.07 58.5547C441.082 58.9062 441.117 59.2344 441.176 59.5391C441.234 59.8438 441.322 60.0898 441.439 60.2773C441.557 60.4531 441.727 60.6055 441.949 60.7344C442.184 60.8633 442.559 60.998 443.074 61.1387V62H438.258L438.346 59.4863ZM438.047 53.9844C435.668 54.0078 433.887 54.3242 432.703 54.9336C431.52 55.543 430.928 56.4629 430.928 57.6934C430.928 58.3613 431.062 58.8887 431.332 59.2754C431.602 59.6621 431.941 59.9316 432.352 60.084C432.762 60.2246 433.248 60.2949 433.811 60.2949C434.607 60.2949 435.328 60.1016 435.973 59.7148C436.629 59.3281 437.139 58.8359 437.502 58.2383C437.865 57.6406 438.047 57.0488 438.047 56.4629V53.9844ZM462.885 62H455.959V61.1387C456.416 60.998 456.744 60.875 456.943 60.7695C457.143 60.6641 457.307 60.5176 457.436 60.3301C457.576 60.1426 457.682 59.8555 457.752 59.4688C457.834 59.0703 457.875 58.4727 457.875 57.6758V53.0703C457.875 52.25 457.852 51.5059 457.805 50.8379C457.758 50.1699 457.676 49.625 457.559 49.2031C457.453 48.7695 457.318 48.4355 457.154 48.2012C457.002 47.9551 456.814 47.75 456.592 47.5859C456.381 47.4102 456.135 47.2754 455.854 47.1816C455.572 47.0762 455.203 47.0234 454.746 47.0234C454.289 47.0234 453.855 47.1172 453.445 47.3047C453.035 47.4805 452.584 47.791 452.092 48.2363C451.6 48.6816 451.242 49.1211 451.02 49.5547C450.797 49.9883 450.686 50.4863 450.686 51.0488V57.6055C450.686 58.6133 450.732 59.3164 450.826 59.7148C450.92 60.1016 451.096 60.4004 451.354 60.6113C451.623 60.8105 452.057 60.9863 452.654 61.1387V62H445.764V61.1387C446.221 60.998 446.543 60.875 446.73 60.7695C446.93 60.6641 447.094 60.5176 447.223 60.3301C447.363 60.1426 447.469 59.8555 447.539 59.4688C447.621 59.082 447.662 58.4785 447.662 57.6582V49.9941C447.662 49.2441 447.65 48.6406 447.627 48.1836C447.604 47.7266 447.521 47.3633 447.381 47.0938C447.24 46.8125 447.023 46.6074 446.73 46.4785C446.449 46.3379 446.045 46.2207 445.518 46.127V45.1953L449.631 45.0371H450.703L450.51 47.9023L450.756 47.9727C451.623 47.0938 452.32 46.4668 452.848 46.0918C453.387 45.7168 453.926 45.4297 454.465 45.2305C455.016 45.0195 455.596 44.9141 456.205 44.9141C456.838 44.9141 457.4 44.9902 457.893 45.1426C458.396 45.2832 458.836 45.5059 459.211 45.8105C459.598 46.1152 459.914 46.4961 460.16 46.9531C460.406 47.3984 460.588 47.9375 460.705 48.5703C460.834 49.2031 460.898 50.0059 460.898 50.9785V57.6055C460.898 58.4141 460.922 59 460.969 59.3633C461.016 59.7266 461.098 60.0078 461.215 60.207C461.332 60.4062 461.502 60.5762 461.725 60.7168C461.947 60.8457 462.334 60.9863 462.885 61.1387V62ZM473.309 51.8574L475.594 48.957C475.84 48.6406 476.039 48.3359 476.191 48.043C476.344 47.7383 476.42 47.4277 476.42 47.1113C476.42 46.8418 476.32 46.6191 476.121 46.4434C475.922 46.2676 475.611 46.1387 475.189 46.0566V45.1953H480.938V46.0566C480.492 46.1855 480.035 46.4375 479.566 46.8125C479.109 47.1875 478.547 47.791 477.879 48.623L474.24 53.0879L478.248 58.4844C478.822 59.2578 479.338 59.8496 479.795 60.2598C480.252 60.6699 480.709 60.9629 481.166 61.1387V62H474.1V61.1387C475.072 61.0215 475.559 60.6582 475.559 60.0488C475.559 59.8027 475.518 59.5684 475.436 59.3457C475.354 59.123 475.201 58.8652 474.979 58.5723L472.43 55.0215L469.723 58.5371C469.523 58.7949 469.365 59.0352 469.248 59.2578C469.143 59.4688 469.09 59.709 469.09 59.9785C469.09 60.2949 469.195 60.5586 469.406 60.7695C469.629 60.9688 469.975 61.0918 470.443 61.1387V62H464.572V61.1387C464.959 60.998 465.305 60.8223 465.609 60.6113C465.926 60.4004 466.242 60.1309 466.559 59.8027C466.887 59.4629 467.314 58.9707 467.842 58.3262L471.498 53.791L467.754 48.6582C467.238 47.9551 466.828 47.4453 466.523 47.1289C466.219 46.8125 465.938 46.5723 465.68 46.4082C465.422 46.2441 465.164 46.127 464.906 46.0566V45.1953H471.797V46.0566C470.871 46.1973 470.408 46.5605 470.408 47.1465C470.408 47.416 470.467 47.6855 470.584 47.9551C470.713 48.2246 470.906 48.5234 471.164 48.8516L473.309 51.8574Z" fill="#FF8B8B"/>
<path d="M4.08789 8.56348C2.96224 8.23991 2.14193 7.84342 1.62695 7.37402C1.11654 6.90007 0.861328 6.31673 0.861328 5.62402C0.861328 4.84017 1.1735 4.19303 1.79785 3.68262C2.42676 3.16764 3.24251 2.91016 4.24512 2.91016C4.92871 2.91016 5.53711 3.04232 6.07031 3.30664C6.60807 3.57096 7.02279 3.93555 7.31445 4.40039C7.61068 4.86523 7.75879 5.37337 7.75879 5.9248H6.43945C6.43945 5.32324 6.24805 4.85156 5.86523 4.50977C5.48242 4.16341 4.94238 3.99023 4.24512 3.99023C3.59798 3.99023 3.09212 4.13379 2.72754 4.4209C2.36751 4.70345 2.1875 5.09766 2.1875 5.60352C2.1875 6.00911 2.3584 6.35319 2.7002 6.63574C3.04655 6.91374 3.63216 7.16895 4.45703 7.40137C5.28646 7.63379 5.93359 7.89128 6.39844 8.17383C6.86784 8.45182 7.21419 8.77767 7.4375 9.15137C7.66536 9.52507 7.7793 9.96484 7.7793 10.4707C7.7793 11.2773 7.46484 11.9245 6.83594 12.4121C6.20703 12.8952 5.36621 13.1367 4.31348 13.1367C3.62988 13.1367 2.99186 13.0068 2.39941 12.7471C1.80697 12.4827 1.34896 12.1227 1.02539 11.667C0.70638 11.2113 0.546875 10.694 0.546875 10.1152H1.86621C1.86621 10.7168 2.08724 11.193 2.5293 11.5439C2.97591 11.8903 3.57064 12.0635 4.31348 12.0635C5.00618 12.0635 5.53711 11.9222 5.90625 11.6396C6.27539 11.3571 6.45996 10.972 6.45996 10.4844C6.45996 9.99674 6.28906 9.62077 5.94727 9.35645C5.60547 9.08757 4.98568 8.82324 4.08789 8.56348ZM12.3389 13.1367C11.3363 13.1367 10.5205 12.8086 9.8916 12.1523C9.2627 11.4915 8.94824 10.6097 8.94824 9.50684V9.27441C8.94824 8.54069 9.08724 7.88672 9.36523 7.3125C9.64779 6.73372 10.0397 6.28255 10.541 5.95898C11.0469 5.63086 11.5938 5.4668 12.1816 5.4668C13.1432 5.4668 13.8906 5.78353 14.4238 6.41699C14.957 7.05046 15.2236 7.95736 15.2236 9.1377V9.66406H10.2129C10.2311 10.3932 10.443 10.9834 10.8486 11.4346C11.2588 11.8812 11.7783 12.1045 12.4072 12.1045C12.8538 12.1045 13.2321 12.0133 13.542 11.8311C13.8519 11.6488 14.123 11.4072 14.3555 11.1064L15.1279 11.708C14.5081 12.6605 13.5785 13.1367 12.3389 13.1367ZM12.1816 6.50586C11.6712 6.50586 11.2428 6.69271 10.8965 7.06641C10.5501 7.43555 10.3359 7.95508 10.2539 8.625H13.959V8.5293C13.9225 7.88672 13.7493 7.38997 13.4395 7.03906C13.1296 6.68359 12.7103 6.50586 12.1816 6.50586ZM19.6602 12.1045C20.1113 12.1045 20.5055 11.9678 20.8428 11.6943C21.18 11.4209 21.3669 11.0791 21.4033 10.6689H22.5996C22.5768 11.0928 22.431 11.4961 22.1621 11.8789C21.8932 12.2617 21.5332 12.5671 21.082 12.7949C20.6354 13.0228 20.1615 13.1367 19.6602 13.1367C18.653 13.1367 17.8509 12.8018 17.2539 12.1318C16.6615 11.4574 16.3652 10.5368 16.3652 9.37012V9.1582C16.3652 8.43815 16.4974 7.79785 16.7617 7.2373C17.026 6.67676 17.4043 6.24154 17.8965 5.93164C18.3932 5.62174 18.9788 5.4668 19.6533 5.4668C20.4827 5.4668 21.1709 5.71517 21.7178 6.21191C22.2692 6.70866 22.5632 7.35352 22.5996 8.14648H21.4033C21.3669 7.66797 21.1846 7.27604 20.8564 6.9707C20.5329 6.66081 20.1318 6.50586 19.6533 6.50586C19.0107 6.50586 18.5117 6.73828 18.1562 7.20312C17.8053 7.66341 17.6299 8.33105 17.6299 9.20605V9.44531C17.6299 10.2975 17.8053 10.9538 18.1562 11.4141C18.5072 11.8743 19.0085 12.1045 19.6602 12.1045ZM28.5879 13C28.515 12.8542 28.4557 12.5944 28.4102 12.2207C27.8223 12.8314 27.1204 13.1367 26.3047 13.1367C25.5755 13.1367 24.9762 12.9316 24.5068 12.5215C24.042 12.1068 23.8096 11.5827 23.8096 10.9492C23.8096 10.179 24.1012 9.58203 24.6846 9.1582C25.2725 8.72982 26.0973 8.51562 27.1592 8.51562H28.3896V7.93457C28.3896 7.49251 28.2575 7.1416 27.9932 6.88184C27.7288 6.61751 27.3392 6.48535 26.8242 6.48535C26.373 6.48535 25.9948 6.59928 25.6895 6.82715C25.3841 7.05501 25.2314 7.33073 25.2314 7.6543H23.96C23.96 7.28516 24.0898 6.92969 24.3496 6.58789C24.6139 6.24154 24.9694 5.9681 25.416 5.76758C25.8672 5.56706 26.3617 5.4668 26.8994 5.4668C27.7516 5.4668 28.4193 5.68099 28.9023 6.10938C29.3854 6.5332 29.6361 7.11882 29.6543 7.86621V11.2705C29.6543 11.9495 29.7409 12.4896 29.9141 12.8906V13H28.5879ZM26.4893 12.0361C26.8857 12.0361 27.2617 11.9336 27.6172 11.7285C27.9727 11.5234 28.2301 11.2568 28.3896 10.9287V9.41113H27.3984C25.849 9.41113 25.0742 9.86458 25.0742 10.7715C25.0742 11.168 25.2064 11.4779 25.4707 11.7012C25.735 11.9245 26.0745 12.0361 26.4893 12.0361ZM32.833 5.60352L32.874 6.5332C33.4391 5.82227 34.1774 5.4668 35.0889 5.4668C36.652 5.4668 37.4404 6.34863 37.4541 8.1123V13H36.1895V8.10547C36.1849 7.57227 36.0618 7.17806 35.8203 6.92285C35.5833 6.66764 35.2119 6.54004 34.7061 6.54004C34.2959 6.54004 33.9359 6.64941 33.626 6.86816C33.3161 7.08691 33.0745 7.37402 32.9014 7.72949V13H31.6367V5.60352H32.833ZM41.0771 3.8125V5.60352H42.458V6.58105H41.0771V11.168C41.0771 11.4642 41.1387 11.6875 41.2617 11.8379C41.3848 11.9837 41.5944 12.0566 41.8906 12.0566C42.0365 12.0566 42.237 12.0293 42.4922 11.9746V13C42.1595 13.0911 41.8359 13.1367 41.5215 13.1367C40.9564 13.1367 40.5303 12.9658 40.2432 12.624C39.9561 12.2822 39.8125 11.7969 39.8125 11.168V6.58105H38.4658V5.60352H39.8125V3.8125H41.0771ZM47.0107 13.1367C46.0081 13.1367 45.1924 12.8086 44.5635 12.1523C43.9346 11.4915 43.6201 10.6097 43.6201 9.50684V9.27441C43.6201 8.54069 43.7591 7.88672 44.0371 7.3125C44.3197 6.73372 44.7116 6.28255 45.2129 5.95898C45.7188 5.63086 46.2656 5.4668 46.8535 5.4668C47.8151 5.4668 48.5625 5.78353 49.0957 6.41699C49.6289 7.05046 49.8955 7.95736 49.8955 9.1377V9.66406H44.8848C44.903 10.3932 45.1149 10.9834 45.5205 11.4346C45.9307 11.8812 46.4502 12.1045 47.0791 12.1045C47.5257 12.1045 47.904 12.0133 48.2139 11.8311C48.5238 11.6488 48.7949 11.4072 49.0273 11.1064L49.7998 11.708C49.18 12.6605 48.2503 13.1367 47.0107 13.1367ZM46.8535 6.50586C46.3431 6.50586 45.9147 6.69271 45.5684 7.06641C45.222 7.43555 45.0078 7.95508 44.9258 8.625H48.6309V8.5293C48.5944 7.88672 48.4212 7.38997 48.1113 7.03906C47.8014 6.68359 47.3822 6.50586 46.8535 6.50586Z" fill="#41D17A"/>
</svg>
