<svg width="500" height="74" viewBox="0 0 500 74" fill="none" xmlns="http://www.w3.org/2000/svg">
<path d="M10.7402 46.9707H6.53906V57.6055C6.53906 58.3906 6.57422 58.9824 6.64453 59.3809C6.72656 59.7793 6.83789 60.084 6.97852 60.2949C7.13086 60.4941 7.32422 60.6582 7.55859 60.7871C7.80469 60.9043 8.19141 61.0215 8.71875 61.1387V62H1.5293V61.1387C2.04492 60.998 2.41406 60.8633 2.63672 60.7344C2.85938 60.6055 3.0293 60.4414 3.14648 60.2422C3.27539 60.043 3.36914 59.7559 3.42773 59.3809C3.48633 59.0059 3.51562 58.4141 3.51562 57.6055V46.9707H1.38867V46.0742C1.83398 46.0039 2.12695 45.9512 2.26758 45.916C2.41992 45.8691 2.56055 45.8047 2.68945 45.7227C2.83008 45.6406 2.94727 45.5234 3.04102 45.3711C3.14648 45.2188 3.23438 44.9961 3.30469 44.7031C3.38672 44.3984 3.45117 43.9766 3.49805 43.4375C3.60352 42.1602 3.83203 41.123 4.18359 40.3262C4.54688 39.5293 5.06836 38.8496 5.74805 38.2871C6.43945 37.7246 7.17188 37.332 7.94531 37.1094C8.73047 36.875 9.65039 36.7578 10.7051 36.7578C11.6309 36.7578 12.416 36.8223 13.0605 36.9512V40.1328H11.3203C11.0977 39.4414 10.834 38.9551 10.5293 38.6738C10.2363 38.3809 9.82031 38.2344 9.28125 38.2344C8.89453 38.2344 8.56641 38.2871 8.29688 38.3926C8.03906 38.498 7.79883 38.6621 7.57617 38.8848C7.35352 39.1074 7.16016 39.4062 6.99609 39.7812C6.84375 40.1562 6.72656 40.625 6.64453 41.1875C6.57422 41.7383 6.53906 42.459 6.53906 43.3496V45.1953H10.7402V46.9707ZM17.1035 53.1055C17.1035 57.207 17.7598 60.5879 19.0723 63.248C20.3965 65.9082 22.4121 67.6895 25.1191 68.5918L24.6973 69.9453C21.2637 69.043 18.6328 67.0977 16.8047 64.1094C14.9766 61.1328 14.0625 57.5234 14.0625 53.2812C14.0625 49.0508 14.9766 45.4414 16.8047 42.4531C18.6445 39.4531 21.2754 37.502 24.6973 36.5996L25.1719 37.9531C22.4297 38.8555 20.3965 40.6191 19.0723 43.2441C17.7598 45.8574 17.1035 49.1445 17.1035 53.1055ZM34.9805 51.8574L37.2656 48.957C37.5117 48.6406 37.7109 48.3359 37.8633 48.043C38.0156 47.7383 38.0918 47.4277 38.0918 47.1113C38.0918 46.8418 37.9922 46.6191 37.793 46.4434C37.5938 46.2676 37.2832 46.1387 36.8613 46.0566V45.1953H42.6094V46.0566C42.1641 46.1855 41.707 46.4375 41.2383 46.8125C40.7812 47.1875 40.2188 47.791 39.5508 48.623L35.9121 53.0879L39.9199 58.4844C40.4941 59.2578 41.0098 59.8496 41.4668 60.2598C41.9238 60.6699 42.3809 60.9629 42.8379 61.1387V62H35.7715V61.1387C36.7441 61.0215 37.2305 60.6582 37.2305 60.0488C37.2305 59.8027 37.1895 59.5684 37.1074 59.3457C37.0254 59.123 36.873 58.8652 36.6504 58.5723L34.1016 55.0215L31.3945 58.5371C31.1953 58.7949 31.0371 59.0352 30.9199 59.2578C30.8145 59.4688 30.7617 59.709 30.7617 59.9785C30.7617 60.2949 30.8672 60.5586 31.0781 60.7695C31.3008 60.9688 31.6465 61.0918 32.1152 61.1387V62H26.2441V61.1387C26.6309 60.998 26.9766 60.8223 27.2812 60.6113C27.5977 60.4004 27.9141 60.1309 28.2305 59.8027C28.5586 59.4629 28.9863 58.9707 29.5137 58.3262L33.1699 53.791L29.4258 48.6582C28.9102 47.9551 28.5 47.4453 28.1953 47.1289C27.8906 46.8125 27.6094 46.5723 27.3516 46.4082C27.0938 46.2441 26.8359 46.127 26.5781 46.0566V45.1953H33.4688V46.0566C32.543 46.1973 32.0801 46.5605 32.0801 47.1465C32.0801 47.416 32.1387 47.6855 32.2559 47.9551C32.3848 48.2246 32.5781 48.5234 32.8359 48.8516L34.9805 51.8574ZM51.9785 53.1055C51.9785 49.1445 51.3223 45.8574 50.0098 43.2441C48.6973 40.6191 46.6641 38.8555 43.9102 37.9531L44.3848 36.5996C47.8066 37.502 50.4316 39.4531 52.2598 42.4531C54.0996 45.4414 55.0195 49.0508 55.0195 53.2812C55.0195 57.5234 54.1055 61.1328 52.2773 64.1094C50.4492 67.0977 47.8184 69.043 44.3848 69.9453L43.9629 68.5918C46.6699 67.6895 48.6797 65.9082 49.9922 63.248C51.3164 60.5879 51.9785 57.207 51.9785 53.1055ZM68.748 49.2383V46.9004H90.4043V49.2383H68.748ZM68.748 56.5332V54.1953H90.4043V56.5332H68.748ZM115.77 45.5996V49.2734H113.537C113.338 48.5117 113.092 47.9141 112.799 47.4805C112.506 47.0352 112.166 46.7246 111.779 46.5488C111.393 46.373 110.912 46.2852 110.338 46.2852C109.518 46.2852 108.791 46.5488 108.158 47.0762C107.525 47.6035 107.021 48.4062 106.646 49.4844C106.283 50.5625 106.102 51.8809 106.102 53.4395C106.102 54.4355 106.172 55.3496 106.312 56.1816C106.453 57.002 106.693 57.7051 107.033 58.291C107.373 58.877 107.824 59.334 108.387 59.6621C108.949 59.9902 109.646 60.1543 110.479 60.1543C111.287 60.1543 112.037 59.9961 112.729 59.6797C113.432 59.3633 114.158 58.8066 114.908 58.0098L115.91 59.1699C115.312 59.8262 114.785 60.3359 114.328 60.6992C113.871 61.0508 113.379 61.3496 112.852 61.5957C112.336 61.8301 111.82 62 111.305 62.1055C110.801 62.2227 110.25 62.2812 109.652 62.2812C107.438 62.2812 105.744 61.5488 104.572 60.084C103.4 58.6074 102.814 56.4805 102.814 53.7031C102.814 51.9688 103.143 50.4336 103.799 49.0977C104.455 47.75 105.375 46.7129 106.559 45.9863C107.742 45.2598 109.107 44.8965 110.654 44.8965C111.615 44.8965 112.5 44.9551 113.309 45.0723C114.129 45.1777 114.949 45.3535 115.77 45.5996ZM130.342 49.0449H128.654C128.396 48.3418 128.092 47.791 127.74 47.3926C127.389 46.9824 126.99 46.6953 126.545 46.5312C126.1 46.3672 125.555 46.2852 124.91 46.2852C123.973 46.2852 123.223 46.5078 122.66 46.9531C122.109 47.3867 121.834 47.9844 121.834 48.7461C121.834 49.2852 121.945 49.7305 122.168 50.082C122.391 50.4336 122.736 50.7617 123.205 51.0664C123.674 51.3711 124.5 51.7754 125.684 52.2793C126.879 52.7949 127.799 53.2695 128.443 53.7031C129.1 54.1367 129.609 54.6406 129.973 55.2148C130.348 55.7891 130.535 56.4746 130.535 57.2715C130.535 58.1973 130.377 58.9766 130.061 59.6094C129.744 60.2422 129.299 60.7578 128.725 61.1562C128.15 61.5547 127.465 61.8418 126.668 62.0176C125.883 62.1934 125.021 62.2812 124.084 62.2812C123.1 62.2812 122.145 62.2051 121.219 62.0527C120.293 61.9121 119.391 61.7246 118.512 61.4902V57.8164H120.234C120.551 58.8945 121.02 59.6797 121.641 60.1719C122.262 60.6523 123.117 60.8926 124.207 60.8926C124.629 60.8926 125.039 60.8516 125.438 60.7695C125.848 60.6758 126.211 60.5293 126.527 60.3301C126.844 60.1191 127.096 59.8379 127.283 59.4863C127.471 59.1348 127.564 58.6953 127.564 58.168C127.564 57.5703 127.447 57.084 127.213 56.709C126.979 56.334 126.615 55.9941 126.123 55.6895C125.631 55.373 124.764 54.9512 123.521 54.4238C122.455 53.9785 121.6 53.5449 120.955 53.123C120.311 52.7012 119.801 52.2031 119.426 51.6289C119.062 51.0547 118.881 50.375 118.881 49.5898C118.881 48.6289 119.139 47.7969 119.654 47.0938C120.182 46.3789 120.938 45.834 121.922 45.459C122.906 45.084 124.061 44.8965 125.385 44.8965C126.158 44.8965 126.902 44.9375 127.617 45.0195C128.344 45.0898 129.252 45.2363 130.342 45.459V49.0449ZM147.129 45.5996V49.2734H144.896C144.697 48.5117 144.451 47.9141 144.158 47.4805C143.865 47.0352 143.525 46.7246 143.139 46.5488C142.752 46.373 142.271 46.2852 141.697 46.2852C140.877 46.2852 140.15 46.5488 139.518 47.0762C138.885 47.6035 138.381 48.4062 138.006 49.4844C137.643 50.5625 137.461 51.8809 137.461 53.4395C137.461 54.4355 137.531 55.3496 137.672 56.1816C137.812 57.002 138.053 57.7051 138.393 58.291C138.732 58.877 139.184 59.334 139.746 59.6621C140.309 59.9902 141.006 60.1543 141.838 60.1543C142.646 60.1543 143.396 59.9961 144.088 59.6797C144.791 59.3633 145.518 58.8066 146.268 58.0098L147.27 59.1699C146.672 59.8262 146.145 60.3359 145.688 60.6992C145.23 61.0508 144.738 61.3496 144.211 61.5957C143.695 61.8301 143.18 62 142.664 62.1055C142.16 62.2227 141.609 62.2812 141.012 62.2812C138.797 62.2812 137.104 61.5488 135.932 60.084C134.76 58.6074 134.174 56.4805 134.174 53.7031C134.174 51.9688 134.502 50.4336 135.158 49.0977C135.814 47.75 136.734 46.7129 137.918 45.9863C139.102 45.2598 140.467 44.8965 142.014 44.8965C142.975 44.8965 143.859 44.9551 144.668 45.0723C145.488 45.1777 146.309 45.3535 147.129 45.5996ZM166.219 54.1074H158.062V51.3828H166.219V54.1074ZM170.736 62.6328V59.9961L189.826 51.7168L170.736 43.4375V40.8008L192.463 50.4863V52.9473L170.736 62.6328Z" fill="white"/>
<path d="M213.768 46.9707H209.566V57.6055C209.566 58.3906 209.602 58.9824 209.672 59.3809C209.754 59.7793 209.865 60.084 210.006 60.2949C210.158 60.4941 210.352 60.6582 210.586 60.7871C210.832 60.9043 211.219 61.0215 211.746 61.1387V62H204.557V61.1387C205.072 60.998 205.441 60.8633 205.664 60.7344C205.887 60.6055 206.057 60.4414 206.174 60.2422C206.303 60.043 206.396 59.7559 206.455 59.3809C206.514 59.0059 206.543 58.4141 206.543 57.6055V46.9707H204.416V46.0742C204.861 46.0039 205.154 45.9512 205.295 45.916C205.447 45.8691 205.588 45.8047 205.717 45.7227C205.857 45.6406 205.975 45.5234 206.068 45.3711C206.174 45.2188 206.262 44.9961 206.332 44.7031C206.414 44.3984 206.479 43.9766 206.525 43.4375C206.631 42.1602 206.859 41.123 207.211 40.3262C207.574 39.5293 208.096 38.8496 208.775 38.2871C209.467 37.7246 210.199 37.332 210.973 37.1094C211.758 36.875 212.678 36.7578 213.732 36.7578C214.658 36.7578 215.443 36.8223 216.088 36.9512V40.1328H214.348C214.125 39.4414 213.861 38.9551 213.557 38.6738C213.264 38.3809 212.848 38.2344 212.309 38.2344C211.922 38.2344 211.594 38.2871 211.324 38.3926C211.066 38.498 210.826 38.6621 210.604 38.8848C210.381 39.1074 210.188 39.4062 210.023 39.7812C209.871 40.1562 209.754 40.625 209.672 41.1875C209.602 41.7383 209.566 42.459 209.566 43.3496V45.1953H213.768V46.9707ZM222.592 36.8457C222.732 37.2324 222.838 37.6543 222.908 38.1113C222.99 38.5684 223.031 38.9844 223.031 39.3594C223.031 40.1328 222.914 40.8184 222.68 41.416C222.445 42.0137 222.07 42.623 221.555 43.2441C221.051 43.8535 220.277 44.6152 219.234 45.5293L218.162 44.4746C218.736 43.7832 219.158 43.0859 219.428 42.3828C219.697 41.668 219.832 40.8008 219.832 39.7812C219.832 39.4297 219.814 39.0547 219.779 38.6562C219.744 38.2578 219.656 37.6543 219.516 36.8457H222.592ZM231.1 53.1055C231.1 57.207 231.756 60.5879 233.068 63.248C234.393 65.9082 236.408 67.6895 239.115 68.5918L238.693 69.9453C235.26 69.043 232.629 67.0977 230.801 64.1094C228.973 61.1328 228.059 57.5234 228.059 53.2812C228.059 49.0508 228.973 45.4414 230.801 42.4531C232.641 39.4531 235.271 37.502 238.693 36.5996L239.168 37.9531C236.426 38.8555 234.393 40.6191 233.068 43.2441C231.756 45.8574 231.1 49.1445 231.1 53.1055ZM248.977 51.8574L251.262 48.957C251.508 48.6406 251.707 48.3359 251.859 48.043C252.012 47.7383 252.088 47.4277 252.088 47.1113C252.088 46.8418 251.988 46.6191 251.789 46.4434C251.59 46.2676 251.279 46.1387 250.857 46.0566V45.1953H256.605V46.0566C256.16 46.1855 255.703 46.4375 255.234 46.8125C254.777 47.1875 254.215 47.791 253.547 48.623L249.908 53.0879L253.916 58.4844C254.49 59.2578 255.006 59.8496 255.463 60.2598C255.92 60.6699 256.377 60.9629 256.834 61.1387V62H249.768V61.1387C250.74 61.0215 251.227 60.6582 251.227 60.0488C251.227 59.8027 251.186 59.5684 251.104 59.3457C251.021 59.123 250.869 58.8652 250.646 58.5723L248.098 55.0215L245.391 58.5371C245.191 58.7949 245.033 59.0352 244.916 59.2578C244.811 59.4688 244.758 59.709 244.758 59.9785C244.758 60.2949 244.863 60.5586 245.074 60.7695C245.297 60.9688 245.643 61.0918 246.111 61.1387V62H240.24V61.1387C240.627 60.998 240.973 60.8223 241.277 60.6113C241.594 60.4004 241.91 60.1309 242.227 59.8027C242.555 59.4629 242.982 58.9707 243.51 58.3262L247.166 53.791L243.422 48.6582C242.906 47.9551 242.496 47.4453 242.191 47.1289C241.887 46.8125 241.605 46.5723 241.348 46.4082C241.09 46.2441 240.832 46.127 240.574 46.0566V45.1953H247.465V46.0566C246.539 46.1973 246.076 46.5605 246.076 47.1465C246.076 47.416 246.135 47.6855 246.252 47.9551C246.381 48.2246 246.574 48.5234 246.832 48.8516L248.977 51.8574ZM265.975 53.1055C265.975 49.1445 265.318 45.8574 264.006 43.2441C262.693 40.6191 260.66 38.8555 257.906 37.9531L258.381 36.5996C261.803 37.502 264.428 39.4531 266.256 42.4531C268.096 45.4414 269.016 49.0508 269.016 53.2812C269.016 57.5234 268.102 61.1328 266.273 64.1094C264.445 67.0977 261.814 69.043 258.381 69.9453L257.959 68.5918C260.666 67.6895 262.676 65.9082 263.988 63.248C265.312 60.5879 265.975 57.207 265.975 53.1055ZM282.744 49.2383V46.9004H304.4V49.2383H282.744ZM282.744 56.5332V54.1953H304.4V56.5332H282.744ZM325.02 54.1074H316.863V51.3828H325.02V54.1074ZM341.719 45.5996V49.2734H339.486C339.287 48.5117 339.041 47.9141 338.748 47.4805C338.455 47.0352 338.115 46.7246 337.729 46.5488C337.342 46.373 336.861 46.2852 336.287 46.2852C335.467 46.2852 334.74 46.5488 334.107 47.0762C333.475 47.6035 332.971 48.4062 332.596 49.4844C332.232 50.5625 332.051 51.8809 332.051 53.4395C332.051 54.4355 332.121 55.3496 332.262 56.1816C332.402 57.002 332.643 57.7051 332.982 58.291C333.322 58.877 333.773 59.334 334.336 59.6621C334.898 59.9902 335.596 60.1543 336.428 60.1543C337.236 60.1543 337.986 59.9961 338.678 59.6797C339.381 59.3633 340.107 58.8066 340.857 58.0098L341.859 59.1699C341.262 59.8262 340.734 60.3359 340.277 60.6992C339.82 61.0508 339.328 61.3496 338.801 61.5957C338.285 61.8301 337.77 62 337.254 62.1055C336.75 62.2227 336.199 62.2812 335.602 62.2812C333.387 62.2812 331.693 61.5488 330.521 60.084C329.35 58.6074 328.764 56.4805 328.764 53.7031C328.764 51.9688 329.092 50.4336 329.748 49.0977C330.404 47.75 331.324 46.7129 332.508 45.9863C333.691 45.2598 335.057 44.8965 336.604 44.8965C337.564 44.8965 338.449 44.9551 339.258 45.0723C340.078 45.1777 340.898 45.3535 341.719 45.5996ZM356.291 49.0449H354.604C354.346 48.3418 354.041 47.791 353.689 47.3926C353.338 46.9824 352.939 46.6953 352.494 46.5312C352.049 46.3672 351.504 46.2852 350.859 46.2852C349.922 46.2852 349.172 46.5078 348.609 46.9531C348.059 47.3867 347.783 47.9844 347.783 48.7461C347.783 49.2852 347.895 49.7305 348.117 50.082C348.34 50.4336 348.686 50.7617 349.154 51.0664C349.623 51.3711 350.449 51.7754 351.633 52.2793C352.828 52.7949 353.748 53.2695 354.393 53.7031C355.049 54.1367 355.559 54.6406 355.922 55.2148C356.297 55.7891 356.484 56.4746 356.484 57.2715C356.484 58.1973 356.326 58.9766 356.01 59.6094C355.693 60.2422 355.248 60.7578 354.674 61.1562C354.1 61.5547 353.414 61.8418 352.617 62.0176C351.832 62.1934 350.971 62.2812 350.033 62.2812C349.049 62.2812 348.094 62.2051 347.168 62.0527C346.242 61.9121 345.34 61.7246 344.461 61.4902V57.8164H346.184C346.5 58.8945 346.969 59.6797 347.59 60.1719C348.211 60.6523 349.066 60.8926 350.156 60.8926C350.578 60.8926 350.988 60.8516 351.387 60.7695C351.797 60.6758 352.16 60.5293 352.477 60.3301C352.793 60.1191 353.045 59.8379 353.232 59.4863C353.42 59.1348 353.514 58.6953 353.514 58.168C353.514 57.5703 353.396 57.084 353.162 56.709C352.928 56.334 352.564 55.9941 352.072 55.6895C351.58 55.373 350.713 54.9512 349.471 54.4238C348.404 53.9785 347.549 53.5449 346.904 53.123C346.26 52.7012 345.75 52.2031 345.375 51.6289C345.012 51.0547 344.83 50.375 344.83 49.5898C344.83 48.6289 345.088 47.7969 345.604 47.0938C346.131 46.3789 346.887 45.834 347.871 45.459C348.855 45.084 350.01 44.8965 351.334 44.8965C352.107 44.8965 352.852 44.9375 353.566 45.0195C354.293 45.0898 355.201 45.2363 356.291 45.459V49.0449ZM373.078 45.5996V49.2734H370.846C370.646 48.5117 370.4 47.9141 370.107 47.4805C369.814 47.0352 369.475 46.7246 369.088 46.5488C368.701 46.373 368.221 46.2852 367.646 46.2852C366.826 46.2852 366.1 46.5488 365.467 47.0762C364.834 47.6035 364.33 48.4062 363.955 49.4844C363.592 50.5625 363.41 51.8809 363.41 53.4395C363.41 54.4355 363.48 55.3496 363.621 56.1816C363.762 57.002 364.002 57.7051 364.342 58.291C364.682 58.877 365.133 59.334 365.695 59.6621C366.258 59.9902 366.955 60.1543 367.787 60.1543C368.596 60.1543 369.346 59.9961 370.037 59.6797C370.74 59.3633 371.467 58.8066 372.217 58.0098L373.219 59.1699C372.621 59.8262 372.094 60.3359 371.637 60.6992C371.18 61.0508 370.688 61.3496 370.16 61.5957C369.645 61.8301 369.129 62 368.613 62.1055C368.109 62.2227 367.559 62.2812 366.961 62.2812C364.746 62.2812 363.053 61.5488 361.881 60.084C360.709 58.6074 360.123 56.4805 360.123 53.7031C360.123 51.9688 360.451 50.4336 361.107 49.0977C361.764 47.75 362.684 46.7129 363.867 45.9863C365.051 45.2598 366.416 44.8965 367.963 44.8965C368.924 44.8965 369.809 44.9551 370.617 45.0723C371.438 45.1777 372.258 45.3535 373.078 45.5996ZM383.309 51.8574L385.594 48.957C385.84 48.6406 386.039 48.3359 386.191 48.043C386.344 47.7383 386.42 47.4277 386.42 47.1113C386.42 46.8418 386.32 46.6191 386.121 46.4434C385.922 46.2676 385.611 46.1387 385.189 46.0566V45.1953H390.938V46.0566C390.492 46.1855 390.035 46.4375 389.566 46.8125C389.109 47.1875 388.547 47.791 387.879 48.623L384.24 53.0879L388.248 58.4844C388.822 59.2578 389.338 59.8496 389.795 60.2598C390.252 60.6699 390.709 60.9629 391.166 61.1387V62H384.1V61.1387C385.072 61.0215 385.559 60.6582 385.559 60.0488C385.559 59.8027 385.518 59.5684 385.436 59.3457C385.354 59.123 385.201 58.8652 384.979 58.5723L382.43 55.0215L379.723 58.5371C379.523 58.7949 379.365 59.0352 379.248 59.2578C379.143 59.4688 379.09 59.709 379.09 59.9785C379.09 60.2949 379.195 60.5586 379.406 60.7695C379.629 60.9688 379.975 61.0918 380.443 61.1387V62H374.572V61.1387C374.959 60.998 375.305 60.8223 375.609 60.6113C375.926 60.4004 376.242 60.1309 376.559 59.8027C376.887 59.4629 377.314 58.9707 377.842 58.3262L381.498 53.791L377.754 48.6582C377.238 47.9551 376.828 47.4453 376.523 47.1289C376.219 46.8125 375.938 46.5723 375.68 46.4082C375.422 46.2441 375.164 46.127 374.906 46.0566V45.1953H381.797V46.0566C380.871 46.1973 380.408 46.5605 380.408 47.1465C380.408 47.416 380.467 47.6855 380.584 47.9551C380.713 48.2246 380.906 48.5234 381.164 48.8516L383.309 51.8574ZM413.525 45.8281L412.383 47.7793L407.865 44.5977L408.375 50.0996H406.055L406.582 44.5977L402.047 47.7793L400.887 45.8281L405.914 43.4727L400.887 41.1348L402.047 39.166L406.582 42.3477L406.055 36.8457H408.375L407.865 42.3477L412.383 39.166L413.525 41.1348L408.516 43.4727L413.525 45.8281ZM437.66 45.5996V49.2734H435.428C435.229 48.5117 434.982 47.9141 434.689 47.4805C434.396 47.0352 434.057 46.7246 433.67 46.5488C433.283 46.373 432.803 46.2852 432.229 46.2852C431.408 46.2852 430.682 46.5488 430.049 47.0762C429.416 47.6035 428.912 48.4062 428.537 49.4844C428.174 50.5625 427.992 51.8809 427.992 53.4395C427.992 54.4355 428.062 55.3496 428.203 56.1816C428.344 57.002 428.584 57.7051 428.924 58.291C429.264 58.877 429.715 59.334 430.277 59.6621C430.84 59.9902 431.537 60.1543 432.369 60.1543C433.178 60.1543 433.928 59.9961 434.619 59.6797C435.322 59.3633 436.049 58.8066 436.799 58.0098L437.801 59.1699C437.203 59.8262 436.676 60.3359 436.219 60.6992C435.762 61.0508 435.27 61.3496 434.742 61.5957C434.227 61.8301 433.711 62 433.195 62.1055C432.691 62.2227 432.141 62.2812 431.543 62.2812C429.328 62.2812 427.635 61.5488 426.463 60.084C425.291 58.6074 424.705 56.4805 424.705 53.7031C424.705 51.9688 425.033 50.4336 425.689 49.0977C426.346 47.75 427.266 46.7129 428.449 45.9863C429.633 45.2598 430.998 44.8965 432.545 44.8965C433.506 44.8965 434.391 44.9551 435.199 45.0723C436.02 45.1777 436.84 45.3535 437.66 45.5996ZM448.102 62.2812C445.664 62.2812 443.801 61.5664 442.512 60.1367C441.234 58.6953 440.596 56.5684 440.596 53.7559C440.596 51.8223 440.93 50.1875 441.598 48.8516C442.277 47.5156 443.203 46.5254 444.375 45.8809C445.547 45.2246 446.883 44.8965 448.383 44.8965C450.891 44.8965 452.789 45.6289 454.078 47.0938C455.367 48.5469 456.012 50.6387 456.012 53.3691C456.012 55.3145 455.689 56.9551 455.045 58.291C454.4 59.627 453.486 60.6289 452.303 61.2969C451.119 61.9531 449.719 62.2812 448.102 62.2812ZM443.918 53.3867C443.918 55.8008 444.299 57.6582 445.061 58.959C445.834 60.248 446.936 60.8926 448.365 60.8926C449.15 60.8926 449.818 60.7051 450.369 60.3301C450.92 59.9434 451.365 59.4277 451.705 58.7832C452.057 58.1387 452.309 57.3945 452.461 56.5508C452.613 55.6953 452.689 54.8047 452.689 53.8789C452.689 52.1562 452.496 50.7266 452.109 49.5898C451.734 48.4531 451.219 47.6211 450.562 47.0938C449.906 46.5547 449.156 46.2852 448.312 46.2852C446.895 46.2852 445.805 46.9004 445.043 48.1309C444.293 49.3613 443.918 51.1133 443.918 53.3867ZM458.525 46.0742C459.111 45.9805 459.586 45.8164 459.949 45.582C460.312 45.3477 460.594 45.0488 460.793 44.6855C461.004 44.3105 461.168 43.8477 461.285 43.2969C461.402 42.7344 461.525 41.9199 461.654 40.8535H464.15V45.1953H469.828V46.9707H464.15V54.793C464.15 55.9297 464.197 56.8379 464.291 57.5176C464.385 58.1855 464.561 58.7129 464.818 59.0996C465.076 59.4746 465.369 59.7441 465.697 59.9082C466.025 60.0723 466.447 60.1543 466.963 60.1543C467.432 60.1543 467.871 60.0605 468.281 59.873C468.691 59.6738 469.096 59.3926 469.494 59.0293L470.285 59.9785C469.453 60.7871 468.662 61.373 467.912 61.7363C467.174 62.0996 466.406 62.2812 465.609 62.2812C464.098 62.2812 462.973 61.8359 462.234 60.9453C461.496 60.043 461.127 58.6367 461.127 56.7266V46.9707H458.525V46.0742ZM479.215 51.8574L481.5 48.957C481.746 48.6406 481.945 48.3359 482.098 48.043C482.25 47.7383 482.326 47.4277 482.326 47.1113C482.326 46.8418 482.227 46.6191 482.027 46.4434C481.828 46.2676 481.518 46.1387 481.096 46.0566V45.1953H486.844V46.0566C486.398 46.1855 485.941 46.4375 485.473 46.8125C485.016 47.1875 484.453 47.791 483.785 48.623L480.146 53.0879L484.154 58.4844C484.729 59.2578 485.244 59.8496 485.701 60.2598C486.158 60.6699 486.615 60.9629 487.072 61.1387V62H480.006V61.1387C480.979 61.0215 481.465 60.6582 481.465 60.0488C481.465 59.8027 481.424 59.5684 481.342 59.3457C481.26 59.123 481.107 58.8652 480.885 58.5723L478.336 55.0215L475.629 58.5371C475.43 58.7949 475.271 59.0352 475.154 59.2578C475.049 59.4688 474.996 59.709 474.996 59.9785C474.996 60.2949 475.102 60.5586 475.312 60.7695C475.535 60.9688 475.881 61.0918 476.35 61.1387V62H470.479V61.1387C470.865 60.998 471.211 60.8223 471.516 60.6113C471.832 60.4004 472.148 60.1309 472.465 59.8027C472.793 59.4629 473.221 58.9707 473.748 58.3262L477.404 53.791L473.66 48.6582C473.145 47.9551 472.734 47.4453 472.43 47.1289C472.125 46.8125 471.844 46.5723 471.586 46.4082C471.328 46.2441 471.07 46.127 470.812 46.0566V45.1953H477.703V46.0566C476.777 46.1973 476.314 46.5605 476.314 47.1465C476.314 47.416 476.373 47.6855 476.49 47.9551C476.619 48.2246 476.812 48.5234 477.07 48.8516L479.215 51.8574Z" fill="#FF8B8B"/>
<path d="M8.47656 9.8418C8.35352 10.8945 7.96387 11.708 7.30762 12.2822C6.65592 12.8519 5.78776 13.1367 4.70312 13.1367C3.52734 13.1367 2.58398 12.7152 1.87305 11.8721C1.16667 11.029 0.813477 9.90104 0.813477 8.48828V7.53125C0.813477 6.60612 0.977539 5.79264 1.30566 5.09082C1.63835 4.389 2.10775 3.85124 2.71387 3.47754C3.31999 3.09928 4.02181 2.91016 4.81934 2.91016C5.87663 2.91016 6.72428 3.20638 7.3623 3.79883C8.00033 4.38672 8.37174 5.20247 8.47656 6.24609H7.15723C7.04329 5.45312 6.79492 4.87891 6.41211 4.52344C6.03385 4.16797 5.50293 3.99023 4.81934 3.99023C3.98079 3.99023 3.32227 4.30013 2.84375 4.91992C2.36979 5.53971 2.13281 6.42155 2.13281 7.56543V8.5293C2.13281 9.60938 2.3584 10.4684 2.80957 11.1064C3.26074 11.7445 3.89193 12.0635 4.70312 12.0635C5.43229 12.0635 5.99056 11.8994 6.37793 11.5713C6.76986 11.2386 7.02962 10.6621 7.15723 9.8418H8.47656ZM9.74121 9.2334C9.74121 8.50879 9.88249 7.8571 10.165 7.27832C10.4521 6.69954 10.8486 6.25293 11.3545 5.93848C11.8649 5.62402 12.446 5.4668 13.0977 5.4668C14.1048 5.4668 14.9183 5.81543 15.5381 6.5127C16.1624 7.20996 16.4746 8.13737 16.4746 9.29492V9.38379C16.4746 10.1038 16.3356 10.751 16.0576 11.3252C15.7842 11.8949 15.39 12.3392 14.875 12.6582C14.3646 12.9772 13.7767 13.1367 13.1113 13.1367C12.1087 13.1367 11.2952 12.7881 10.6709 12.0908C10.0511 11.3936 9.74121 10.4707 9.74121 9.32227V9.2334ZM11.0127 9.38379C11.0127 10.2041 11.2018 10.8626 11.5801 11.3594C11.9629 11.8561 12.4733 12.1045 13.1113 12.1045C13.7539 12.1045 14.2643 11.8538 14.6426 11.3525C15.0208 10.8467 15.21 10.1403 15.21 9.2334C15.21 8.4222 15.0163 7.76595 14.6289 7.26465C14.2461 6.75879 13.7357 6.50586 13.0977 6.50586C12.4733 6.50586 11.9697 6.75423 11.5869 7.25098C11.2041 7.74772 11.0127 8.45866 11.0127 9.38379ZM22.3672 11.0381C22.3672 10.6963 22.2373 10.432 21.9775 10.2451C21.7223 10.0537 21.2734 9.88965 20.6309 9.75293C19.9928 9.61621 19.4847 9.45215 19.1064 9.26074C18.7327 9.06934 18.4548 8.84147 18.2725 8.57715C18.0947 8.31283 18.0059 7.99837 18.0059 7.63379C18.0059 7.02767 18.2611 6.51497 18.7715 6.0957C19.2865 5.67643 19.9427 5.4668 20.7402 5.4668C21.5788 5.4668 22.2578 5.68327 22.7773 6.11621C23.3014 6.54915 23.5635 7.10286 23.5635 7.77734H22.292C22.292 7.43099 22.1439 7.13249 21.8477 6.88184C21.556 6.63118 21.1868 6.50586 20.7402 6.50586C20.2799 6.50586 19.9199 6.60612 19.6602 6.80664C19.4004 7.00716 19.2705 7.26921 19.2705 7.59277C19.2705 7.89811 19.3913 8.12826 19.6328 8.2832C19.8743 8.43815 20.3096 8.58626 20.9385 8.72754C21.5719 8.86882 22.0846 9.03743 22.4766 9.2334C22.8685 9.42936 23.1579 9.66634 23.3447 9.94434C23.5361 10.2178 23.6318 10.5527 23.6318 10.9492C23.6318 11.61 23.3675 12.141 22.8389 12.542C22.3102 12.9385 21.6243 13.1367 20.7812 13.1367C20.1888 13.1367 19.6647 13.0319 19.209 12.8223C18.7533 12.6126 18.3955 12.321 18.1357 11.9473C17.8805 11.569 17.7529 11.1611 17.7529 10.7236H19.0176C19.0404 11.1475 19.209 11.4847 19.5234 11.7354C19.8424 11.9814 20.2617 12.1045 20.7812 12.1045C21.2598 12.1045 21.6426 12.0088 21.9297 11.8174C22.2214 11.6214 22.3672 11.3617 22.3672 11.0381ZM28.3486 13.1367C27.346 13.1367 26.5303 12.8086 25.9014 12.1523C25.2725 11.4915 24.958 10.6097 24.958 9.50684V9.27441C24.958 8.54069 25.097 7.88672 25.375 7.3125C25.6576 6.73372 26.0495 6.28255 26.5508 5.95898C27.0566 5.63086 27.6035 5.4668 28.1914 5.4668C29.153 5.4668 29.9004 5.78353 30.4336 6.41699C30.9668 7.05046 31.2334 7.95736 31.2334 9.1377V9.66406H26.2227C26.2409 10.3932 26.4528 10.9834 26.8584 11.4346C27.2686 11.8812 27.7881 12.1045 28.417 12.1045C28.8636 12.1045 29.2419 12.0133 29.5518 11.8311C29.8617 11.6488 30.1328 11.4072 30.3652 11.1064L31.1377 11.708C30.5179 12.6605 29.5882 13.1367 28.3486 13.1367ZM28.1914 6.50586C27.681 6.50586 27.2526 6.69271 26.9062 7.06641C26.5599 7.43555 26.3457 7.95508 26.2637 8.625H29.9688V8.5293C29.9323 7.88672 29.7591 7.38997 29.4492 7.03906C29.1393 6.68359 28.7201 6.50586 28.1914 6.50586ZM35.6699 12.1045C36.1211 12.1045 36.5153 11.9678 36.8525 11.6943C37.1898 11.4209 37.3766 11.0791 37.4131 10.6689H38.6094C38.5866 11.0928 38.4408 11.4961 38.1719 11.8789C37.903 12.2617 37.543 12.5671 37.0918 12.7949C36.6452 13.0228 36.1712 13.1367 35.6699 13.1367C34.6628 13.1367 33.8607 12.8018 33.2637 12.1318C32.6712 11.4574 32.375 10.5368 32.375 9.37012V9.1582C32.375 8.43815 32.5072 7.79785 32.7715 7.2373C33.0358 6.67676 33.4141 6.24154 33.9062 5.93164C34.403 5.62174 34.9886 5.4668 35.6631 5.4668C36.4925 5.4668 37.1807 5.71517 37.7275 6.21191C38.279 6.70866 38.5729 7.35352 38.6094 8.14648H37.4131C37.3766 7.66797 37.1943 7.27604 36.8662 6.9707C36.5426 6.66081 36.1416 6.50586 35.6631 6.50586C35.0205 6.50586 34.5215 6.73828 34.166 7.20312C33.8151 7.66341 33.6396 8.33105 33.6396 9.20605V9.44531C33.6396 10.2975 33.8151 10.9538 34.166 11.4141C34.5169 11.8743 35.0182 12.1045 35.6699 12.1045ZM44.5977 13C44.5247 12.8542 44.4655 12.5944 44.4199 12.2207C43.832 12.8314 43.1302 13.1367 42.3145 13.1367C41.5853 13.1367 40.986 12.9316 40.5166 12.5215C40.0518 12.1068 39.8193 11.5827 39.8193 10.9492C39.8193 10.179 40.111 9.58203 40.6943 9.1582C41.2822 8.72982 42.1071 8.51562 43.1689 8.51562H44.3994V7.93457C44.3994 7.49251 44.2673 7.1416 44.0029 6.88184C43.7386 6.61751 43.349 6.48535 42.834 6.48535C42.3828 6.48535 42.0046 6.59928 41.6992 6.82715C41.3939 7.05501 41.2412 7.33073 41.2412 7.6543H39.9697C39.9697 7.28516 40.0996 6.92969 40.3594 6.58789C40.6237 6.24154 40.9792 5.9681 41.4258 5.76758C41.877 5.56706 42.3714 5.4668 42.9092 5.4668C43.7614 5.4668 44.429 5.68099 44.9121 6.10938C45.3952 6.5332 45.6458 7.11882 45.6641 7.86621V11.2705C45.6641 11.9495 45.7507 12.4896 45.9238 12.8906V13H44.5977ZM42.499 12.0361C42.8955 12.0361 43.2715 11.9336 43.627 11.7285C43.9824 11.5234 44.2399 11.2568 44.3994 10.9287V9.41113H43.4082C41.8587 9.41113 41.084 9.86458 41.084 10.7715C41.084 11.168 41.2161 11.4779 41.4805 11.7012C41.7448 11.9245 42.0843 12.0361 42.499 12.0361ZM48.8428 5.60352L48.8838 6.5332C49.4489 5.82227 50.1872 5.4668 51.0986 5.4668C52.6618 5.4668 53.4502 6.34863 53.4639 8.1123V13H52.1992V8.10547C52.1947 7.57227 52.0716 7.17806 51.8301 6.92285C51.5931 6.66764 51.2217 6.54004 50.7158 6.54004C50.3057 6.54004 49.9456 6.64941 49.6357 6.86816C49.3258 7.08691 49.0843 7.37402 48.9111 7.72949V13H47.6465V5.60352H48.8428ZM57.0869 3.8125V5.60352H58.4678V6.58105H57.0869V11.168C57.0869 11.4642 57.1484 11.6875 57.2715 11.8379C57.3945 11.9837 57.6042 12.0566 57.9004 12.0566C58.0462 12.0566 58.2467 12.0293 58.502 11.9746V13C58.1693 13.0911 57.8457 13.1367 57.5312 13.1367C56.9661 13.1367 56.54 12.9658 56.2529 12.624C55.9658 12.2822 55.8223 11.7969 55.8223 11.168V6.58105H54.4756V5.60352H55.8223V3.8125H57.0869ZM63.0205 13.1367C62.0179 13.1367 61.2021 12.8086 60.5732 12.1523C59.9443 11.4915 59.6299 10.6097 59.6299 9.50684V9.27441C59.6299 8.54069 59.7689 7.88672 60.0469 7.3125C60.3294 6.73372 60.7214 6.28255 61.2227 5.95898C61.7285 5.63086 62.2754 5.4668 62.8633 5.4668C63.8249 5.4668 64.5723 5.78353 65.1055 6.41699C65.6387 7.05046 65.9053 7.95736 65.9053 9.1377V9.66406H60.8945C60.9128 10.3932 61.1247 10.9834 61.5303 11.4346C61.9404 11.8812 62.46 12.1045 63.0889 12.1045C63.5355 12.1045 63.9137 12.0133 64.2236 11.8311C64.5335 11.6488 64.8047 11.4072 65.0371 11.1064L65.8096 11.708C65.1898 12.6605 64.2601 13.1367 63.0205 13.1367ZM62.8633 6.50586C62.3529 6.50586 61.9245 6.69271 61.5781 7.06641C61.2318 7.43555 61.0176 7.95508 60.9355 8.625H64.6406V8.5293C64.6042 7.88672 64.431 7.38997 64.1211 7.03906C63.8112 6.68359 63.3919 6.50586 62.8633 6.50586Z" fill="#41D17A"/>
</svg>
