<svg width="165" height="106" viewBox="0 0 165 106" fill="none" xmlns="http://www.w3.org/2000/svg">
<path d="M6.65137 10.4023H2.48145L1.54492 13H0.191406L3.99219 3.04688H5.14062L8.94824 13H7.60156L6.65137 10.4023ZM2.87793 9.32227H6.26172L4.56641 4.66699L2.87793 9.32227ZM13.665 6.73828C13.4736 6.70638 13.2663 6.69043 13.043 6.69043C12.2135 6.69043 11.6507 7.04362 11.3545 7.75V13H10.0898V5.60352H11.3203L11.3408 6.45801C11.7555 5.7972 12.3434 5.4668 13.1045 5.4668C13.3506 5.4668 13.5374 5.4987 13.665 5.5625V6.73828ZM17.6641 12.1045C18.1152 12.1045 18.5094 11.9678 18.8467 11.6943C19.1839 11.4209 19.3708 11.0791 19.4072 10.6689H20.6035C20.5807 11.0928 20.4349 11.4961 20.166 11.8789C19.8971 12.2617 19.5371 12.5671 19.0859 12.7949C18.6393 13.0228 18.1654 13.1367 17.6641 13.1367C16.6569 13.1367 15.8548 12.8018 15.2578 12.1318C14.6654 11.4574 14.3691 10.5368 14.3691 9.37012V9.1582C14.3691 8.43815 14.5013 7.79785 14.7656 7.2373C15.0299 6.67676 15.4082 6.24154 15.9004 5.93164C16.3971 5.62174 16.9827 5.4668 17.6572 5.4668C18.4867 5.4668 19.1748 5.71517 19.7217 6.21191C20.2731 6.70866 20.5671 7.35352 20.6035 8.14648H19.4072C19.3708 7.66797 19.1885 7.27604 18.8604 6.9707C18.5368 6.66081 18.1357 6.50586 17.6572 6.50586C17.0146 6.50586 16.5156 6.73828 16.1602 7.20312C15.8092 7.66341 15.6338 8.33105 15.6338 9.20605V9.44531C15.6338 10.2975 15.8092 10.9538 16.1602 11.4141C16.5111 11.8743 17.0124 12.1045 17.6641 12.1045ZM26.332 11.0381C26.332 10.6963 26.2021 10.432 25.9424 10.2451C25.6872 10.0537 25.2383 9.88965 24.5957 9.75293C23.9577 9.61621 23.4495 9.45215 23.0713 9.26074C22.6976 9.06934 22.4196 8.84147 22.2373 8.57715C22.0596 8.31283 21.9707 7.99837 21.9707 7.63379C21.9707 7.02767 22.2259 6.51497 22.7363 6.0957C23.2513 5.67643 23.9076 5.4668 24.7051 5.4668C25.5436 5.4668 26.2227 5.68327 26.7422 6.11621C27.2663 6.54915 27.5283 7.10286 27.5283 7.77734H26.2568C26.2568 7.43099 26.1087 7.13249 25.8125 6.88184C25.5208 6.63118 25.1517 6.50586 24.7051 6.50586C24.2448 6.50586 23.8848 6.60612 23.625 6.80664C23.3652 7.00716 23.2354 7.26921 23.2354 7.59277C23.2354 7.89811 23.3561 8.12826 23.5977 8.2832C23.8392 8.43815 24.2744 8.58626 24.9033 8.72754C25.5368 8.86882 26.0495 9.03743 26.4414 9.2334C26.8333 9.42936 27.1227 9.66634 27.3096 9.94434C27.501 10.2178 27.5967 10.5527 27.5967 10.9492C27.5967 11.61 27.3324 12.141 26.8037 12.542C26.2751 12.9385 25.5892 13.1367 24.7461 13.1367C24.1536 13.1367 23.6296 13.0319 23.1738 12.8223C22.7181 12.6126 22.3604 12.321 22.1006 11.9473C21.8454 11.569 21.7178 11.1611 21.7178 10.7236H22.9824C23.0052 11.1475 23.1738 11.4847 23.4883 11.7354C23.8073 11.9814 24.2266 12.1045 24.7461 12.1045C25.2246 12.1045 25.6074 12.0088 25.8945 11.8174C26.1862 11.6214 26.332 11.3617 26.332 11.0381ZM30.6182 13H29.3535V5.60352H30.6182V13ZM29.251 3.6416C29.251 3.43652 29.3125 3.26335 29.4355 3.12207C29.5632 2.98079 29.75 2.91016 29.9961 2.91016C30.2422 2.91016 30.429 2.98079 30.5566 3.12207C30.6842 3.26335 30.748 3.43652 30.748 3.6416C30.748 3.84668 30.6842 4.01758 30.5566 4.1543C30.429 4.29102 30.2422 4.35938 29.9961 4.35938C29.75 4.35938 29.5632 4.29102 29.4355 4.1543C29.3125 4.01758 29.251 3.84668 29.251 3.6416ZM33.8447 5.60352L33.8857 6.5332C34.4508 5.82227 35.1891 5.4668 36.1006 5.4668C37.6637 5.4668 38.4521 6.34863 38.4658 8.1123V13H37.2012V8.10547C37.1966 7.57227 37.0736 7.17806 36.832 6.92285C36.5951 6.66764 36.2236 6.54004 35.7178 6.54004C35.3076 6.54004 34.9476 6.64941 34.6377 6.86816C34.3278 7.08691 34.0863 7.37402 33.9131 7.72949V13H32.6484V5.60352H33.8447ZM40.3252 8.95996C40.3252 7.93001 40.4619 6.94108 40.7354 5.99316C41.0133 5.04525 41.4258 4.18392 41.9727 3.40918C42.5195 2.63444 43.0869 2.08757 43.6748 1.76855L43.9346 2.60254C43.2692 3.11296 42.7223 3.89225 42.2939 4.94043C41.8701 5.98861 41.6377 7.16211 41.5967 8.46094L41.5898 9.04199C41.5898 10.8011 41.9111 12.3278 42.5537 13.6221C42.9411 14.3968 43.4014 15.0029 43.9346 15.4404L43.6748 16.2129C43.0687 15.8757 42.4899 15.3105 41.9385 14.5176C40.863 12.9681 40.3252 11.1156 40.3252 8.95996ZM49.7246 12.2686C49.2324 12.8473 48.5101 13.1367 47.5576 13.1367C46.7692 13.1367 46.1676 12.9089 45.7529 12.4531C45.3428 11.9928 45.1354 11.3138 45.1309 10.416V5.60352H46.3955V10.3818C46.3955 11.5029 46.8512 12.0635 47.7627 12.0635C48.7288 12.0635 49.3714 11.7035 49.6904 10.9834V5.60352H50.9551V13H49.752L49.7246 12.2686ZM55.8018 9.02832C55.8018 10.0446 55.6673 11.0199 55.3984 11.9541C55.1341 12.8838 54.7262 13.7428 54.1748 14.5312C53.6279 15.3197 53.0537 15.8802 52.4521 16.2129L52.1855 15.4404C52.8874 14.9027 53.4502 14.0687 53.874 12.9385C54.3024 11.8037 54.5212 10.5459 54.5303 9.16504V8.94629C54.5303 7.98926 54.43 7.10059 54.2295 6.28027C54.029 5.4554 53.7487 4.71712 53.3887 4.06543C53.0332 3.41374 52.6322 2.9056 52.1855 2.54102L52.4521 1.76855C53.0537 2.10124 53.6257 2.65723 54.168 3.43652C54.7148 4.21582 55.1227 5.07487 55.3916 6.01367C55.665 6.95247 55.8018 7.95736 55.8018 9.02832Z" fill="#41D17A"/>
<line y1="58" x2="164.305" y2="58" stroke="white" stroke-width="2"/>
<path d="M69.2832 31.1953H74.293V40.1426C74.293 41.5137 74.3457 42.5566 74.4512 43.2715C74.5566 43.9863 74.7148 44.5254 74.9258 44.8887C75.1367 45.252 75.4355 45.5566 75.8223 45.8027C76.209 46.0488 76.7422 46.1719 77.4219 46.1719C77.8672 46.1719 78.2949 46.084 78.7051 45.9082C79.1152 45.7324 79.5723 45.4277 80.0762 44.9941C80.5801 44.5488 80.9375 44.1094 81.1484 43.6758C81.3711 43.2422 81.4824 42.7383 81.4824 42.1641V35.5723C81.4824 34.9043 81.4648 34.4004 81.4297 34.0605C81.3945 33.7207 81.3359 33.4512 81.2539 33.252C81.1719 33.041 81.0723 32.8711 80.9551 32.7422C80.8496 32.6133 80.6914 32.4961 80.4805 32.3906C80.2812 32.2852 79.9531 32.1738 79.4961 32.0566V31.1953H84.5059V43.2012C84.5059 44.1035 84.5234 44.7539 84.5586 45.1523C84.5938 45.5508 84.6699 45.8672 84.7871 46.1016C84.9043 46.3359 85.0859 46.5293 85.332 46.6816C85.5781 46.8223 86.0176 46.957 86.6504 47.0859V48L82.625 48.1758H81.5527L81.6582 45.293L81.3945 45.2227C80.4219 46.2773 79.4902 47.0508 78.5996 47.543C77.7207 48.0352 76.8359 48.2812 75.9453 48.2812C74.8789 48.2812 74 48.0703 73.3086 47.6484C72.6172 47.2266 72.1016 46.5996 71.7617 45.7676C71.4219 44.9238 71.252 43.7402 71.252 42.2168V35.5723C71.252 34.5879 71.2109 33.9141 71.1289 33.5508C71.0586 33.1758 70.9121 32.8828 70.6895 32.6719C70.4785 32.4492 70.0098 32.2441 69.2832 32.0566V31.1953ZM93.5762 22.8457C93.7168 23.2324 93.8223 23.6543 93.8926 24.1113C93.9746 24.5684 94.0156 24.9844 94.0156 25.3594C94.0156 26.1328 93.8984 26.8184 93.6641 27.416C93.4297 28.0137 93.0547 28.623 92.5391 29.2441C92.0352 29.8535 91.2617 30.6152 90.2188 31.5293L89.1465 30.4746C89.7207 29.7832 90.1426 29.0859 90.4121 28.3828C90.6816 27.668 90.8164 26.8008 90.8164 25.7812C90.8164 25.4297 90.7988 25.0547 90.7637 24.6562C90.7285 24.2578 90.6406 23.6543 90.5 22.8457H93.5762Z" fill="white"/>
<path d="M35.3809 78.2129L41.5859 91.8535L50.2695 61.8477H54.752V64.1855H51.5703L42.1133 96.4941H40.4082L33.1309 80.8496L30.1602 82.168L29.6152 80.8496L35.3809 78.2129ZM64.877 90.4121C64.877 91.0918 64.9121 91.6074 64.9824 91.959C65.0645 92.2988 65.1992 92.5801 65.3867 92.8027C65.5859 93.0137 65.8672 93.1836 66.2305 93.3125C66.5938 93.4297 67.0508 93.5234 67.6016 93.5938C68.1523 93.6523 68.8789 93.6934 69.7812 93.7168V95H56.791V93.7168C58.0918 93.6582 59.0176 93.582 59.5684 93.4883C60.1309 93.3828 60.5586 93.2305 60.8516 93.0312C61.1445 92.832 61.3555 92.5508 61.4844 92.1875C61.625 91.8242 61.6953 91.2324 61.6953 90.4121V76.1562C61.6953 75.6875 61.6133 75.3477 61.4492 75.1367C61.2852 74.9141 61.0449 74.8027 60.7285 74.8027C60.3535 74.8027 59.8203 74.9961 59.1289 75.3828C58.4375 75.7695 57.582 76.3027 56.5625 76.9824L55.7891 75.6289L64.0156 70.7246H64.9824C64.9121 71.8496 64.877 73.4082 64.877 75.4004V90.4121ZM90.5938 87.1074H82.4375V84.3828H90.5938V87.1074ZM101.721 78.1953H106.73V87.1426C106.73 88.5137 106.783 89.5566 106.889 90.2715C106.994 90.9863 107.152 91.5254 107.363 91.8887C107.574 92.252 107.873 92.5566 108.26 92.8027C108.646 93.0488 109.18 93.1719 109.859 93.1719C110.305 93.1719 110.732 93.084 111.143 92.9082C111.553 92.7324 112.01 92.4277 112.514 91.9941C113.018 91.5488 113.375 91.1094 113.586 90.6758C113.809 90.2422 113.92 89.7383 113.92 89.1641V82.5723C113.92 81.9043 113.902 81.4004 113.867 81.0605C113.832 80.7207 113.773 80.4512 113.691 80.252C113.609 80.041 113.51 79.8711 113.393 79.7422C113.287 79.6133 113.129 79.4961 112.918 79.3906C112.719 79.2852 112.391 79.1738 111.934 79.0566V78.1953H116.943V90.2012C116.943 91.1035 116.961 91.7539 116.996 92.1523C117.031 92.5508 117.107 92.8672 117.225 93.1016C117.342 93.3359 117.523 93.5293 117.77 93.6816C118.016 93.8223 118.455 93.957 119.088 94.0859V95L115.062 95.1758H113.99L114.096 92.293L113.832 92.2227C112.859 93.2773 111.928 94.0508 111.037 94.543C110.158 95.0352 109.273 95.2812 108.383 95.2812C107.316 95.2812 106.438 95.0703 105.746 94.6484C105.055 94.2266 104.539 93.5996 104.199 92.7676C103.859 91.9238 103.689 90.7402 103.689 89.2168V82.5723C103.689 81.5879 103.648 80.9141 103.566 80.5508C103.496 80.1758 103.35 79.8828 103.127 79.6719C102.916 79.4492 102.447 79.2441 101.721 79.0566V78.1953ZM129.23 78.4414C129.641 78.4414 129.951 78.4238 130.162 78.3887C130.385 78.3418 130.561 78.2773 130.689 78.1953C130.818 78.1133 130.924 78.0078 131.006 77.8789C131.1 77.75 131.234 77.4688 131.41 77.0352H132.623L132.377 80.4277H122.076V79.7598C122.475 78.9043 123.014 78.0605 123.693 77.2285C124.373 76.3965 125.17 75.541 126.084 74.6621C127.174 73.6191 127.947 72.834 128.404 72.3066C128.861 71.7676 129.201 71.2637 129.424 70.7949C129.646 70.3145 129.758 69.834 129.758 69.3535C129.758 68.5566 129.529 67.9297 129.072 67.4727C128.627 67.0156 127.982 66.7871 127.139 66.7871C126.412 66.7871 125.791 66.9805 125.275 67.3672C124.771 67.7539 124.385 68.3223 124.115 69.0723H122.445V66.6992C123.488 66.2773 124.449 65.9785 125.328 65.8027C126.207 65.6152 126.986 65.5215 127.666 65.5215C128.592 65.5215 129.354 65.6211 129.951 65.8203C130.561 66.0195 131.047 66.2832 131.41 66.6113C131.773 66.9277 132.025 67.3027 132.166 67.7363C132.318 68.1699 132.395 68.6152 132.395 69.0723C132.395 69.6465 132.277 70.1855 132.043 70.6895C131.809 71.1816 131.422 71.7207 130.883 72.3066C130.355 72.8809 129.412 73.7832 128.053 75.0137C126.6 76.3379 125.545 77.4805 124.889 78.4414H129.23Z" fill="white"/>
</svg>
