<svg width="240" height="82" viewBox="0 0 240 82" fill="none" xmlns="http://www.w3.org/2000/svg">
<path d="M14.8008 33.5996V37.2734H12.5684C12.3691 36.5117 12.123 35.9141 11.8301 35.4805C11.5371 35.0352 11.1973 34.7246 10.8105 34.5488C10.4238 34.373 9.94336 34.2852 9.36914 34.2852C8.54883 34.2852 7.82227 34.5488 7.18945 35.0762C6.55664 35.6035 6.05273 36.4062 5.67773 37.4844C5.31445 38.5625 5.13281 39.8809 5.13281 41.4395C5.13281 42.4355 5.20312 43.3496 5.34375 44.1816C5.48438 45.002 5.72461 45.7051 6.06445 46.291C6.4043 46.877 6.85547 47.334 7.41797 47.6621C7.98047 47.9902 8.67773 48.1543 9.50977 48.1543C10.3184 48.1543 11.0684 47.9961 11.7598 47.6797C12.4629 47.3633 13.1895 46.8066 13.9395 46.0098L14.9414 47.1699C14.3438 47.8262 13.8164 48.3359 13.3594 48.6992C12.9023 49.0508 12.4102 49.3496 11.8828 49.5957C11.3672 49.8301 10.8516 50 10.3359 50.1055C9.83203 50.2227 9.28125 50.2812 8.68359 50.2812C6.46875 50.2812 4.77539 49.5488 3.60352 48.084C2.43164 46.6074 1.8457 44.4805 1.8457 41.7031C1.8457 39.9688 2.17383 38.4336 2.83008 37.0977C3.48633 35.75 4.40625 34.7129 5.58984 33.9863C6.77344 33.2598 8.13867 32.8965 9.68555 32.8965C10.6465 32.8965 11.5312 32.9551 12.3398 33.0723C13.1602 33.1777 13.9805 33.3535 14.8008 33.5996ZM29.373 37.0449H27.6855C27.4277 36.3418 27.123 35.791 26.7715 35.3926C26.4199 34.9824 26.0215 34.6953 25.5762 34.5312C25.1309 34.3672 24.5859 34.2852 23.9414 34.2852C23.0039 34.2852 22.2539 34.5078 21.6914 34.9531C21.1406 35.3867 20.8652 35.9844 20.8652 36.7461C20.8652 37.2852 20.9766 37.7305 21.1992 38.082C21.4219 38.4336 21.7676 38.7617 22.2363 39.0664C22.7051 39.3711 23.5312 39.7754 24.7148 40.2793C25.9102 40.7949 26.8301 41.2695 27.4746 41.7031C28.1309 42.1367 28.6406 42.6406 29.0039 43.2148C29.3789 43.7891 29.5664 44.4746 29.5664 45.2715C29.5664 46.1973 29.4082 46.9766 29.0918 47.6094C28.7754 48.2422 28.3301 48.7578 27.7559 49.1562C27.1816 49.5547 26.4961 49.8418 25.6992 50.0176C24.9141 50.1934 24.0527 50.2812 23.1152 50.2812C22.1309 50.2812 21.1758 50.2051 20.25 50.0527C19.3242 49.9121 18.4219 49.7246 17.543 49.4902V45.8164H19.2656C19.582 46.8945 20.0508 47.6797 20.6719 48.1719C21.293 48.6523 22.1484 48.8926 23.2383 48.8926C23.6602 48.8926 24.0703 48.8516 24.4688 48.7695C24.8789 48.6758 25.2422 48.5293 25.5586 48.3301C25.875 48.1191 26.127 47.8379 26.3145 47.4863C26.502 47.1348 26.5957 46.6953 26.5957 46.168C26.5957 45.5703 26.4785 45.084 26.2441 44.709C26.0098 44.334 25.6465 43.9941 25.1543 43.6895C24.6621 43.373 23.7949 42.9512 22.5527 42.4238C21.4863 41.9785 20.6309 41.5449 19.9863 41.123C19.3418 40.7012 18.832 40.2031 18.457 39.6289C18.0938 39.0547 17.9121 38.375 17.9121 37.5898C17.9121 36.6289 18.1699 35.7969 18.6855 35.0938C19.2129 34.3789 19.9688 33.834 20.9531 33.459C21.9375 33.084 23.0918 32.8965 24.416 32.8965C25.1895 32.8965 25.9336 32.9375 26.6484 33.0195C27.375 33.0898 28.2832 33.2363 29.373 33.459V37.0449ZM46.1602 33.5996V37.2734H43.9277C43.7285 36.5117 43.4824 35.9141 43.1895 35.4805C42.8965 35.0352 42.5566 34.7246 42.1699 34.5488C41.7832 34.373 41.3027 34.2852 40.7285 34.2852C39.9082 34.2852 39.1816 34.5488 38.5488 35.0762C37.916 35.6035 37.4121 36.4062 37.0371 37.4844C36.6738 38.5625 36.4922 39.8809 36.4922 41.4395C36.4922 42.4355 36.5625 43.3496 36.7031 44.1816C36.8438 45.002 37.084 45.7051 37.4238 46.291C37.7637 46.877 38.2148 47.334 38.7773 47.6621C39.3398 47.9902 40.0371 48.1543 40.8691 48.1543C41.6777 48.1543 42.4277 47.9961 43.1191 47.6797C43.8223 47.3633 44.5488 46.8066 45.2988 46.0098L46.3008 47.1699C45.7031 47.8262 45.1758 48.3359 44.7188 48.6992C44.2617 49.0508 43.7695 49.3496 43.2422 49.5957C42.7266 49.8301 42.2109 50 41.6953 50.1055C41.1914 50.2227 40.6406 50.2812 40.043 50.2812C37.8281 50.2812 36.1348 49.5488 34.9629 48.084C33.791 46.6074 33.2051 44.4805 33.2051 41.7031C33.2051 39.9688 33.5332 38.4336 34.1895 37.0977C34.8457 35.75 35.7656 34.7129 36.9492 33.9863C38.1328 33.2598 39.498 32.8965 41.0449 32.8965C42.0059 32.8965 42.8906 32.9551 43.6992 33.0723C44.5195 33.1777 45.3398 33.3535 46.1602 33.5996ZM53.4551 41.1055C53.4551 45.207 54.1113 48.5879 55.4238 51.248C56.748 53.9082 58.7637 55.6895 61.4707 56.5918L61.0488 57.9453C57.6152 57.043 54.9844 55.0977 53.1562 52.1094C51.3281 49.1328 50.4141 45.5234 50.4141 41.2812C50.4141 37.0508 51.3281 33.4414 53.1562 30.4531C54.9961 27.4531 57.627 25.502 61.0488 24.5996L61.5234 25.9531C58.7812 26.8555 56.748 28.6191 55.4238 31.2441C54.1113 33.8574 53.4551 37.1445 53.4551 41.1055ZM71.332 39.8574L73.6172 36.957C73.8633 36.6406 74.0625 36.3359 74.2148 36.043C74.3672 35.7383 74.4434 35.4277 74.4434 35.1113C74.4434 34.8418 74.3438 34.6191 74.1445 34.4434C73.9453 34.2676 73.6348 34.1387 73.2129 34.0566V33.1953H78.9609V34.0566C78.5156 34.1855 78.0586 34.4375 77.5898 34.8125C77.1328 35.1875 76.5703 35.791 75.9023 36.623L72.2637 41.0879L76.2715 46.4844C76.8457 47.2578 77.3613 47.8496 77.8184 48.2598C78.2754 48.6699 78.7324 48.9629 79.1895 49.1387V50H72.123V49.1387C73.0957 49.0215 73.582 48.6582 73.582 48.0488C73.582 47.8027 73.541 47.5684 73.459 47.3457C73.377 47.123 73.2246 46.8652 73.002 46.5723L70.4531 43.0215L67.7461 46.5371C67.5469 46.7949 67.3887 47.0352 67.2715 47.2578C67.166 47.4688 67.1133 47.709 67.1133 47.9785C67.1133 48.2949 67.2188 48.5586 67.4297 48.7695C67.6523 48.9688 67.998 49.0918 68.4668 49.1387V50H62.5957V49.1387C62.9824 48.998 63.3281 48.8223 63.6328 48.6113C63.9492 48.4004 64.2656 48.1309 64.582 47.8027C64.9102 47.4629 65.3379 46.9707 65.8652 46.3262L69.5215 41.791L65.7773 36.6582C65.2617 35.9551 64.8516 35.4453 64.5469 35.1289C64.2422 34.8125 63.9609 34.5723 63.7031 34.4082C63.4453 34.2441 63.1875 34.127 62.9297 34.0566V33.1953H69.8203V34.0566C68.8945 34.1973 68.4316 34.5605 68.4316 35.1465C68.4316 35.416 68.4902 35.6855 68.6074 35.9551C68.7363 36.2246 68.9297 36.5234 69.1875 36.8516L71.332 39.8574ZM88.3301 41.1055C88.3301 37.1445 87.6738 33.8574 86.3613 31.2441C85.0488 28.6191 83.0156 26.8555 80.2617 25.9531L80.7363 24.5996C84.1582 25.502 86.7832 27.4531 88.6113 30.4531C90.4512 33.4414 91.3711 37.0508 91.3711 41.2812C91.3711 45.5234 90.457 49.1328 88.6289 52.1094C86.8008 55.0977 84.1699 57.043 80.7363 57.9453L80.3145 56.5918C83.0215 55.6895 85.0312 53.9082 86.3438 51.248C87.668 48.5879 88.3301 45.207 88.3301 41.1055ZM105.1 37.2383V34.9004H126.756V37.2383H105.1ZM105.1 44.5332V42.1953H126.756V44.5332H105.1Z" fill="white"/>
<path d="M156.482 58.0449H154.795C154.537 57.3418 154.232 56.791 153.881 56.3926C153.529 55.9824 153.131 55.6953 152.686 55.5312C152.24 55.3672 151.695 55.2852 151.051 55.2852C150.113 55.2852 149.363 55.5078 148.801 55.9531C148.25 56.3867 147.975 56.9844 147.975 57.7461C147.975 58.2852 148.086 58.7305 148.309 59.082C148.531 59.4336 148.877 59.7617 149.346 60.0664C149.814 60.3711 150.641 60.7754 151.824 61.2793C153.02 61.7949 153.939 62.2695 154.584 62.7031C155.24 63.1367 155.75 63.6406 156.113 64.2148C156.488 64.7891 156.676 65.4746 156.676 66.2715C156.676 67.1973 156.518 67.9766 156.201 68.6094C155.885 69.2422 155.439 69.7578 154.865 70.1562C154.291 70.5547 153.605 70.8418 152.809 71.0176C152.023 71.1934 151.162 71.2812 150.225 71.2812C149.24 71.2812 148.285 71.2051 147.359 71.0527C146.434 70.9121 145.531 70.7246 144.652 70.4902V66.8164H146.375C146.691 67.8945 147.16 68.6797 147.781 69.1719C148.402 69.6523 149.258 69.8926 150.348 69.8926C150.77 69.8926 151.18 69.8516 151.578 69.7695C151.988 69.6758 152.352 69.5293 152.668 69.3301C152.984 69.1191 153.236 68.8379 153.424 68.4863C153.611 68.1348 153.705 67.6953 153.705 67.168C153.705 66.5703 153.588 66.084 153.354 65.709C153.119 65.334 152.756 64.9941 152.264 64.6895C151.771 64.373 150.904 63.9512 149.662 63.4238C148.596 62.9785 147.74 62.5449 147.096 62.123C146.451 61.7012 145.941 61.2031 145.566 60.6289C145.203 60.0547 145.021 59.375 145.021 58.5898C145.021 57.6289 145.279 56.7969 145.795 56.0938C146.322 55.3789 147.078 54.834 148.062 54.459C149.047 54.084 150.201 53.8965 151.525 53.8965C152.299 53.8965 153.043 53.9375 153.758 54.0195C154.484 54.0898 155.393 54.2363 156.482 54.459V58.0449ZM165.201 47.3047V50.7148H161.967V47.3047H165.201ZM160.174 70.1387C160.631 69.998 160.953 69.875 161.141 69.7695C161.34 69.6641 161.504 69.5176 161.633 69.3301C161.773 69.1426 161.879 68.8555 161.949 68.4688C162.031 68.082 162.072 67.4785 162.072 66.6582V58.9941C162.072 58.2441 162.061 57.6406 162.037 57.1836C162.014 56.7266 161.932 56.3633 161.791 56.0938C161.65 55.8125 161.434 55.6074 161.141 55.4785C160.859 55.3379 160.455 55.2207 159.928 55.127V54.1953L164.023 54.0371H165.096V66.6055C165.096 67.6133 165.143 68.3164 165.236 68.7148C165.33 69.1016 165.506 69.4004 165.764 69.6113C166.033 69.8105 166.467 69.9863 167.064 70.1387V71H160.174V70.1387ZM187.314 71H180.389V70.1387C180.846 69.998 181.174 69.875 181.373 69.7695C181.572 69.6641 181.736 69.5176 181.865 69.3301C182.006 69.1426 182.111 68.8555 182.182 68.4688C182.264 68.0703 182.305 67.4727 182.305 66.6758V62.0703C182.305 61.25 182.281 60.5059 182.234 59.8379C182.188 59.1699 182.105 58.625 181.988 58.2031C181.883 57.7695 181.748 57.4355 181.584 57.2012C181.432 56.9551 181.244 56.75 181.021 56.5859C180.811 56.4102 180.564 56.2754 180.283 56.1816C180.002 56.0762 179.633 56.0234 179.176 56.0234C178.719 56.0234 178.285 56.1172 177.875 56.3047C177.465 56.4805 177.014 56.791 176.521 57.2363C176.029 57.6816 175.672 58.1211 175.449 58.5547C175.227 58.9883 175.115 59.4863 175.115 60.0488V66.6055C175.115 67.6133 175.162 68.3164 175.256 68.7148C175.35 69.1016 175.525 69.4004 175.783 69.6113C176.053 69.8105 176.486 69.9863 177.084 70.1387V71H170.193V70.1387C170.65 69.998 170.973 69.875 171.16 69.7695C171.359 69.6641 171.523 69.5176 171.652 69.3301C171.793 69.1426 171.898 68.8555 171.969 68.4688C172.051 68.082 172.092 67.4785 172.092 66.6582V58.9941C172.092 58.2441 172.08 57.6406 172.057 57.1836C172.033 56.7266 171.951 56.3633 171.811 56.0938C171.67 55.8125 171.453 55.6074 171.16 55.4785C170.879 55.3379 170.475 55.2207 169.947 55.127V54.1953L174.061 54.0371H175.133L174.939 56.9023L175.186 56.9727C176.053 56.0938 176.75 55.4668 177.277 55.0918C177.816 54.7168 178.355 54.4297 178.895 54.2305C179.445 54.0195 180.025 53.9141 180.635 53.9141C181.268 53.9141 181.83 53.9902 182.322 54.1426C182.826 54.2832 183.266 54.5059 183.641 54.8105C184.027 55.1152 184.344 55.4961 184.59 55.9531C184.836 56.3984 185.018 56.9375 185.135 57.5703C185.264 58.2031 185.328 59.0059 185.328 59.9785V66.6055C185.328 67.4141 185.352 68 185.398 68.3633C185.445 68.7266 185.527 69.0078 185.645 69.207C185.762 69.4062 185.932 69.5762 186.154 69.7168C186.377 69.8457 186.764 69.9863 187.314 70.1387V71ZM194.803 62.1055C194.803 66.207 195.459 69.5879 196.771 72.248C198.096 74.9082 200.111 76.6895 202.818 77.5918L202.396 78.9453C198.963 78.043 196.332 76.0977 194.504 73.1094C192.676 70.1328 191.762 66.5234 191.762 62.2812C191.762 58.0508 192.676 54.4414 194.504 51.4531C196.344 48.4531 198.975 46.502 202.396 45.5996L202.871 46.9531C200.129 47.8555 198.096 49.6191 196.771 52.2441C195.459 54.8574 194.803 58.1445 194.803 62.1055ZM212.68 60.8574L214.965 57.957C215.211 57.6406 215.41 57.3359 215.562 57.043C215.715 56.7383 215.791 56.4277 215.791 56.1113C215.791 55.8418 215.691 55.6191 215.492 55.4434C215.293 55.2676 214.982 55.1387 214.561 55.0566V54.1953H220.309V55.0566C219.863 55.1855 219.406 55.4375 218.938 55.8125C218.48 56.1875 217.918 56.791 217.25 57.623L213.611 62.0879L217.619 67.4844C218.193 68.2578 218.709 68.8496 219.166 69.2598C219.623 69.6699 220.08 69.9629 220.537 70.1387V71H213.471V70.1387C214.443 70.0215 214.93 69.6582 214.93 69.0488C214.93 68.8027 214.889 68.5684 214.807 68.3457C214.725 68.123 214.572 67.8652 214.35 67.5723L211.801 64.0215L209.094 67.5371C208.895 67.7949 208.736 68.0352 208.619 68.2578C208.514 68.4688 208.461 68.709 208.461 68.9785C208.461 69.2949 208.566 69.5586 208.777 69.7695C209 69.9688 209.346 70.0918 209.814 70.1387V71H203.943V70.1387C204.33 69.998 204.676 69.8223 204.98 69.6113C205.297 69.4004 205.613 69.1309 205.93 68.8027C206.258 68.4629 206.686 67.9707 207.213 67.3262L210.869 62.791L207.125 57.6582C206.609 56.9551 206.199 56.4453 205.895 56.1289C205.59 55.8125 205.309 55.5723 205.051 55.4082C204.793 55.2441 204.535 55.127 204.277 55.0566V54.1953H211.168V55.0566C210.242 55.1973 209.779 55.5605 209.779 56.1465C209.779 56.416 209.838 56.6855 209.955 56.9551C210.084 57.2246 210.277 57.5234 210.535 57.8516L212.68 60.8574ZM229.678 62.1055C229.678 58.1445 229.021 54.8574 227.709 52.2441C226.396 49.6191 224.363 47.8555 221.609 46.9531L222.084 45.5996C225.506 46.502 228.131 48.4531 229.959 51.4531C231.799 54.4414 232.719 58.0508 232.719 62.2812C232.719 66.5234 231.805 70.1328 229.977 73.1094C228.148 76.0977 225.518 78.043 222.084 78.9453L221.662 77.5918C224.369 76.6895 226.379 74.9082 227.691 72.248C229.016 69.5879 229.678 66.207 229.678 62.1055Z" fill="white"/>
<path d="M192.217 26.4121C192.217 27.0918 192.252 27.6074 192.322 27.959C192.404 28.2988 192.539 28.5801 192.727 28.8027C192.926 29.0137 193.207 29.1836 193.57 29.3125C193.934 29.4297 194.391 29.5234 194.941 29.5938C195.492 29.6523 196.219 29.6934 197.121 29.7168V31H184.131V29.7168C185.432 29.6582 186.357 29.582 186.908 29.4883C187.471 29.3828 187.898 29.2305 188.191 29.0312C188.484 28.832 188.695 28.5508 188.824 28.1875C188.965 27.8242 189.035 27.2324 189.035 26.4121V12.1562C189.035 11.6875 188.953 11.3477 188.789 11.1367C188.625 10.9141 188.385 10.8027 188.068 10.8027C187.693 10.8027 187.16 10.9961 186.469 11.3828C185.777 11.7695 184.922 12.3027 183.902 12.9824L183.129 11.6289L191.355 6.72461H192.322C192.252 7.84961 192.217 9.4082 192.217 11.4004V26.4121Z" fill="white"/>
<line x1="140" y1="39.5" x2="240" y2="39.5" stroke="white"/>
</svg>
