<svg width="316" height="85" viewBox="0 0 316 85" fill="none" xmlns="http://www.w3.org/2000/svg">
<path d="M13.4824 40.0449H11.7949C11.5371 39.3418 11.2324 38.791 10.8809 38.3926C10.5293 37.9824 10.1309 37.6953 9.68555 37.5312C9.24023 37.3672 8.69531 37.2852 8.05078 37.2852C7.11328 37.2852 6.36328 37.5078 5.80078 37.9531C5.25 38.3867 4.97461 38.9844 4.97461 39.7461C4.97461 40.2852 5.08594 40.7305 5.30859 41.082C5.53125 41.4336 5.87695 41.7617 6.3457 42.0664C6.81445 42.3711 7.64062 42.7754 8.82422 43.2793C10.0195 43.7949 10.9395 44.2695 11.584 44.7031C12.2402 45.1367 12.75 45.6406 13.1133 46.2148C13.4883 46.7891 13.6758 47.4746 13.6758 48.2715C13.6758 49.1973 13.5176 49.9766 13.2012 50.6094C12.8848 51.2422 12.4395 51.7578 11.8652 52.1562C11.291 52.5547 10.6055 52.8418 9.80859 53.0176C9.02344 53.1934 8.16211 53.2812 7.22461 53.2812C6.24023 53.2812 5.28516 53.2051 4.35938 53.0527C3.43359 52.9121 2.53125 52.7246 1.65234 52.4902V48.8164H3.375C3.69141 49.8945 4.16016 50.6797 4.78125 51.1719C5.40234 51.6523 6.25781 51.8926 7.34766 51.8926C7.76953 51.8926 8.17969 51.8516 8.57812 51.7695C8.98828 51.6758 9.35156 51.5293 9.66797 51.3301C9.98438 51.1191 10.2363 50.8379 10.4238 50.4863C10.6113 50.1348 10.7051 49.6953 10.7051 49.168C10.7051 48.5703 10.5879 48.084 10.3535 47.709C10.1191 47.334 9.75586 46.9941 9.26367 46.6895C8.77148 46.373 7.9043 45.9512 6.66211 45.4238C5.5957 44.9785 4.74023 44.5449 4.0957 44.123C3.45117 43.7012 2.94141 43.2031 2.56641 42.6289C2.20312 42.0547 2.02148 41.375 2.02148 40.5898C2.02148 39.6289 2.2793 38.7969 2.79492 38.0938C3.32227 37.3789 4.07812 36.834 5.0625 36.459C6.04688 36.084 7.20117 35.8965 8.52539 35.8965C9.29883 35.8965 10.043 35.9375 10.7578 36.0195C11.4844 36.0898 12.3926 36.2363 13.4824 36.459V40.0449ZM22.2012 29.3047V32.7148H18.9668V29.3047H22.2012ZM17.1738 52.1387C17.6309 51.998 17.9531 51.875 18.1406 51.7695C18.3398 51.6641 18.5039 51.5176 18.6328 51.3301C18.7734 51.1426 18.8789 50.8555 18.9492 50.4688C19.0312 50.082 19.0723 49.4785 19.0723 48.6582V40.9941C19.0723 40.2441 19.0605 39.6406 19.0371 39.1836C19.0137 38.7266 18.9316 38.3633 18.791 38.0938C18.6504 37.8125 18.4336 37.6074 18.1406 37.4785C17.8594 37.3379 17.4551 37.2207 16.9277 37.127V36.1953L21.0234 36.0371H22.0957V48.6055C22.0957 49.6133 22.1426 50.3164 22.2363 50.7148C22.3301 51.1016 22.5059 51.4004 22.7637 51.6113C23.0332 51.8105 23.4668 51.9863 24.0645 52.1387V53H17.1738V52.1387ZM44.3145 53H37.3887V52.1387C37.8457 51.998 38.1738 51.875 38.373 51.7695C38.5723 51.6641 38.7363 51.5176 38.8652 51.3301C39.0059 51.1426 39.1113 50.8555 39.1816 50.4688C39.2637 50.0703 39.3047 49.4727 39.3047 48.6758V44.0703C39.3047 43.25 39.2812 42.5059 39.2344 41.8379C39.1875 41.1699 39.1055 40.625 38.9883 40.2031C38.8828 39.7695 38.748 39.4355 38.584 39.2012C38.4316 38.9551 38.2441 38.75 38.0215 38.5859C37.8105 38.4102 37.5645 38.2754 37.2832 38.1816C37.002 38.0762 36.6328 38.0234 36.1758 38.0234C35.7188 38.0234 35.2852 38.1172 34.875 38.3047C34.4648 38.4805 34.0137 38.791 33.5215 39.2363C33.0293 39.6816 32.6719 40.1211 32.4492 40.5547C32.2266 40.9883 32.1152 41.4863 32.1152 42.0488V48.6055C32.1152 49.6133 32.1621 50.3164 32.2559 50.7148C32.3496 51.1016 32.5254 51.4004 32.7832 51.6113C33.0527 51.8105 33.4863 51.9863 34.084 52.1387V53H27.1934V52.1387C27.6504 51.998 27.9727 51.875 28.1602 51.7695C28.3594 51.6641 28.5234 51.5176 28.6523 51.3301C28.793 51.1426 28.8984 50.8555 28.9688 50.4688C29.0508 50.082 29.0918 49.4785 29.0918 48.6582V40.9941C29.0918 40.2441 29.0801 39.6406 29.0566 39.1836C29.0332 38.7266 28.9512 38.3633 28.8105 38.0938C28.6699 37.8125 28.4531 37.6074 28.1602 37.4785C27.8789 37.3379 27.4746 37.2207 26.9473 37.127V36.1953L31.0605 36.0371H32.1328L31.9395 38.9023L32.1855 38.9727C33.0527 38.0938 33.75 37.4668 34.2773 37.0918C34.8164 36.7168 35.3555 36.4297 35.8945 36.2305C36.4453 36.0195 37.0254 35.9141 37.6348 35.9141C38.2676 35.9141 38.8301 35.9902 39.3223 36.1426C39.8262 36.2832 40.2656 36.5059 40.6406 36.8105C41.0273 37.1152 41.3438 37.4961 41.5898 37.9531C41.8359 38.3984 42.0176 38.9375 42.1348 39.5703C42.2637 40.2031 42.3281 41.0059 42.3281 41.9785V48.6055C42.3281 49.4141 42.3516 50 42.3984 50.3633C42.4453 50.7266 42.5273 51.0078 42.6445 51.207C42.7617 51.4062 42.9316 51.5762 43.1543 51.7168C43.377 51.8457 43.7637 51.9863 44.3145 52.1387V53ZM51.8027 44.1055C51.8027 48.207 52.459 51.5879 53.7715 54.248C55.0957 56.9082 57.1113 58.6895 59.8184 59.5918L59.3965 60.9453C55.9629 60.043 53.332 58.0977 51.5039 55.1094C49.6758 52.1328 48.7617 48.5234 48.7617 44.2812C48.7617 40.0508 49.6758 36.4414 51.5039 33.4531C53.3438 30.4531 55.9746 28.502 59.3965 27.5996L59.8711 28.9531C57.1289 29.8555 55.0957 31.6191 53.7715 34.2441C52.459 36.8574 51.8027 40.1445 51.8027 44.1055ZM134.156 45.1074H126V42.3828H134.156V45.1074ZM144.141 42.8574L146.426 39.957C146.672 39.6406 146.871 39.3359 147.023 39.043C147.176 38.7383 147.252 38.4277 147.252 38.1113C147.252 37.8418 147.152 37.6191 146.953 37.4434C146.754 37.2676 146.443 37.1387 146.021 37.0566V36.1953H151.77V37.0566C151.324 37.1855 150.867 37.4375 150.398 37.8125C149.941 38.1875 149.379 38.791 148.711 39.623L145.072 44.0879L149.08 49.4844C149.654 50.2578 150.17 50.8496 150.627 51.2598C151.084 51.6699 151.541 51.9629 151.998 52.1387V53H144.932V52.1387C145.904 52.0215 146.391 51.6582 146.391 51.0488C146.391 50.8027 146.35 50.5684 146.268 50.3457C146.186 50.123 146.033 49.8652 145.811 49.5723L143.262 46.0215L140.555 49.5371C140.355 49.7949 140.197 50.0352 140.08 50.2578C139.975 50.4688 139.922 50.709 139.922 50.9785C139.922 51.2949 140.027 51.5586 140.238 51.7695C140.461 51.9688 140.807 52.0918 141.275 52.1387V53H135.404V52.1387C135.791 51.998 136.137 51.8223 136.441 51.6113C136.758 51.4004 137.074 51.1309 137.391 50.8027C137.719 50.4629 138.146 49.9707 138.674 49.3262L142.33 44.791L138.586 39.6582C138.07 38.9551 137.66 38.4453 137.355 38.1289C137.051 37.8125 136.77 37.5723 136.512 37.4082C136.254 37.2441 135.996 37.127 135.738 37.0566V36.1953H142.629V37.0566C141.703 37.1973 141.24 37.5605 141.24 38.1465C141.24 38.416 141.299 38.6855 141.416 38.9551C141.545 39.2246 141.738 39.5234 141.996 39.8516L144.141 42.8574ZM169.084 44.1055C169.084 40.1445 168.428 36.8574 167.115 34.2441C165.803 31.6191 163.77 29.8555 161.016 28.9531L161.49 27.5996C164.912 28.502 167.537 30.4531 169.365 33.4531C171.205 36.4414 172.125 40.0508 172.125 44.2812C172.125 48.5234 171.211 52.1328 169.383 55.1094C167.555 58.0977 164.924 60.043 161.49 60.9453L161.068 59.5918C163.775 58.6895 165.785 56.9082 167.098 54.248C168.422 51.5879 169.084 48.207 169.084 44.1055ZM185.854 40.2383V37.9004H207.51V40.2383H185.854ZM185.854 47.5332V45.1953H207.51V47.5332H185.854ZM232.875 36.5996V40.2734H230.643C230.443 39.5117 230.197 38.9141 229.904 38.4805C229.611 38.0352 229.271 37.7246 228.885 37.5488C228.498 37.373 228.018 37.2852 227.443 37.2852C226.623 37.2852 225.896 37.5488 225.264 38.0762C224.631 38.6035 224.127 39.4062 223.752 40.4844C223.389 41.5625 223.207 42.8809 223.207 44.4395C223.207 45.4355 223.277 46.3496 223.418 47.1816C223.559 48.002 223.799 48.7051 224.139 49.291C224.479 49.877 224.93 50.334 225.492 50.6621C226.055 50.9902 226.752 51.1543 227.584 51.1543C228.393 51.1543 229.143 50.9961 229.834 50.6797C230.537 50.3633 231.264 49.8066 232.014 49.0098L233.016 50.1699C232.418 50.8262 231.891 51.3359 231.434 51.6992C230.977 52.0508 230.484 52.3496 229.957 52.5957C229.441 52.8301 228.926 53 228.41 53.1055C227.906 53.2227 227.355 53.2812 226.758 53.2812C224.543 53.2812 222.85 52.5488 221.678 51.084C220.506 49.6074 219.92 47.4805 219.92 44.7031C219.92 42.9688 220.248 41.4336 220.904 40.0977C221.561 38.75 222.48 37.7129 223.664 36.9863C224.848 36.2598 226.213 35.8965 227.76 35.8965C228.721 35.8965 229.605 35.9551 230.414 36.0723C231.234 36.1777 232.055 36.3535 232.875 36.5996ZM243.316 53.2812C240.879 53.2812 239.016 52.5664 237.727 51.1367C236.449 49.6953 235.811 47.5684 235.811 44.7559C235.811 42.8223 236.145 41.1875 236.812 39.8516C237.492 38.5156 238.418 37.5254 239.59 36.8809C240.762 36.2246 242.098 35.8965 243.598 35.8965C246.105 35.8965 248.004 36.6289 249.293 38.0938C250.582 39.5469 251.227 41.6387 251.227 44.3691C251.227 46.3145 250.904 47.9551 250.26 49.291C249.615 50.627 248.701 51.6289 247.518 52.2969C246.334 52.9531 244.934 53.2812 243.316 53.2812ZM239.133 44.3867C239.133 46.8008 239.514 48.6582 240.275 49.959C241.049 51.248 242.15 51.8926 243.58 51.8926C244.365 51.8926 245.033 51.7051 245.584 51.3301C246.135 50.9434 246.58 50.4277 246.92 49.7832C247.271 49.1387 247.523 48.3945 247.676 47.5508C247.828 46.6953 247.904 45.8047 247.904 44.8789C247.904 43.1562 247.711 41.7266 247.324 40.5898C246.949 39.4531 246.434 38.6211 245.777 38.0938C245.121 37.5547 244.371 37.2852 243.527 37.2852C242.109 37.2852 241.02 37.9004 240.258 39.1309C239.508 40.3613 239.133 42.1133 239.133 44.3867ZM266.572 40.0449H264.885C264.627 39.3418 264.322 38.791 263.971 38.3926C263.619 37.9824 263.221 37.6953 262.775 37.5312C262.33 37.3672 261.785 37.2852 261.141 37.2852C260.203 37.2852 259.453 37.5078 258.891 37.9531C258.34 38.3867 258.064 38.9844 258.064 39.7461C258.064 40.2852 258.176 40.7305 258.398 41.082C258.621 41.4336 258.967 41.7617 259.436 42.0664C259.904 42.3711 260.73 42.7754 261.914 43.2793C263.109 43.7949 264.029 44.2695 264.674 44.7031C265.33 45.1367 265.84 45.6406 266.203 46.2148C266.578 46.7891 266.766 47.4746 266.766 48.2715C266.766 49.1973 266.607 49.9766 266.291 50.6094C265.975 51.2422 265.529 51.7578 264.955 52.1562C264.381 52.5547 263.695 52.8418 262.898 53.0176C262.113 53.1934 261.252 53.2812 260.314 53.2812C259.33 53.2812 258.375 53.2051 257.449 53.0527C256.523 52.9121 255.621 52.7246 254.742 52.4902V48.8164H256.465C256.781 49.8945 257.25 50.6797 257.871 51.1719C258.492 51.6523 259.348 51.8926 260.438 51.8926C260.859 51.8926 261.27 51.8516 261.668 51.7695C262.078 51.6758 262.441 51.5293 262.758 51.3301C263.074 51.1191 263.326 50.8379 263.514 50.4863C263.701 50.1348 263.795 49.6953 263.795 49.168C263.795 48.5703 263.678 48.084 263.443 47.709C263.209 47.334 262.846 46.9941 262.354 46.6895C261.861 46.373 260.994 45.9512 259.752 45.4238C258.686 44.9785 257.83 44.5449 257.186 44.123C256.541 43.7012 256.031 43.2031 255.656 42.6289C255.293 42.0547 255.111 41.375 255.111 40.5898C255.111 39.6289 255.369 38.7969 255.885 38.0938C256.412 37.3789 257.168 36.834 258.152 36.459C259.137 36.084 260.291 35.8965 261.615 35.8965C262.389 35.8965 263.133 35.9375 263.848 36.0195C264.574 36.0898 265.482 36.2363 266.572 36.459V40.0449ZM274.764 44.1055C274.764 48.207 275.42 51.5879 276.732 54.248C278.057 56.9082 280.072 58.6895 282.779 59.5918L282.357 60.9453C278.924 60.043 276.293 58.0977 274.465 55.1094C272.637 52.1328 271.723 48.5234 271.723 44.2812C271.723 40.0508 272.637 36.4414 274.465 33.4531C276.305 30.4531 278.936 28.502 282.357 27.5996L282.832 28.9531C280.09 29.8555 278.057 31.6191 276.732 34.2441C275.42 36.8574 274.764 40.1445 274.764 44.1055ZM292.641 42.8574L294.926 39.957C295.172 39.6406 295.371 39.3359 295.523 39.043C295.676 38.7383 295.752 38.4277 295.752 38.1113C295.752 37.8418 295.652 37.6191 295.453 37.4434C295.254 37.2676 294.943 37.1387 294.521 37.0566V36.1953H300.27V37.0566C299.824 37.1855 299.367 37.4375 298.898 37.8125C298.441 38.1875 297.879 38.791 297.211 39.623L293.572 44.0879L297.58 49.4844C298.154 50.2578 298.67 50.8496 299.127 51.2598C299.584 51.6699 300.041 51.9629 300.498 52.1387V53H293.432V52.1387C294.404 52.0215 294.891 51.6582 294.891 51.0488C294.891 50.8027 294.85 50.5684 294.768 50.3457C294.686 50.123 294.533 49.8652 294.311 49.5723L291.762 46.0215L289.055 49.5371C288.855 49.7949 288.697 50.0352 288.58 50.2578C288.475 50.4688 288.422 50.709 288.422 50.9785C288.422 51.2949 288.527 51.5586 288.738 51.7695C288.961 51.9688 289.307 52.0918 289.775 52.1387V53H283.904V52.1387C284.291 51.998 284.637 51.8223 284.941 51.6113C285.258 51.4004 285.574 51.1309 285.891 50.8027C286.219 50.4629 286.646 49.9707 287.174 49.3262L290.83 44.791L287.086 39.6582C286.57 38.9551 286.16 38.4453 285.855 38.1289C285.551 37.8125 285.27 37.5723 285.012 37.4082C284.754 37.2441 284.496 37.127 284.238 37.0566V36.1953H291.129V37.0566C290.203 37.1973 289.74 37.5605 289.74 38.1465C289.74 38.416 289.799 38.6855 289.916 38.9551C290.045 39.2246 290.238 39.5234 290.496 39.8516L292.641 42.8574ZM309.639 44.1055C309.639 40.1445 308.982 36.8574 307.67 34.2441C306.357 31.6191 304.324 29.8555 301.57 28.9531L302.045 27.5996C305.467 28.502 308.092 30.4531 309.92 33.4531C311.76 36.4414 312.68 40.0508 312.68 44.2812C312.68 48.5234 311.766 52.1328 309.938 55.1094C308.109 58.0977 305.479 60.043 302.045 60.9453L301.623 59.5918C304.33 58.6895 306.34 56.9082 307.652 54.248C308.977 51.5879 309.639 48.207 309.639 44.1055Z" fill="white"/>
<line x1="64" y1="42" x2="114" y2="42" stroke="white" stroke-width="2"/>
<path d="M81.0449 16.5684C80.2129 16.5684 79.5391 16.7031 79.0234 16.9727C78.5078 17.2422 77.9395 17.7812 77.3184 18.5898L76.2285 17.6406C77.2246 16.2461 78.1035 15.3262 78.8652 14.8809C79.627 14.4238 80.6641 14.1953 81.9766 14.1953H96.7949V16.5684H92.541V27.1152C92.541 28.6504 92.9805 29.418 93.8594 29.418C94.3633 29.418 94.9668 29.125 95.6699 28.5391L96.3555 29.5938C95.043 30.7188 93.7656 31.2812 92.5234 31.2812C91.5156 31.2812 90.7598 30.9414 90.2559 30.2617C89.7637 29.582 89.5176 28.4395 89.5176 26.834V16.5684H84.1211V31H80.5879V30.1387C81.3145 27.3848 81.6777 23.6699 81.6777 18.9941V16.5684H81.0449Z" fill="white"/>
<path d="M89.3398 71.1875C89.9141 71.1875 90.377 71.1523 90.7285 71.082C91.0801 71.0117 91.3613 70.8945 91.5723 70.7305C91.7832 70.5664 91.9473 70.3555 92.0645 70.0977C92.1934 69.8281 92.3516 69.418 92.5391 68.8672H94.0332L93.7344 74H79.2676V73.1562C79.7715 71.9258 80.4512 70.666 81.3066 69.377C82.1621 68.0879 83.375 66.5703 84.9453 64.8242C86.3047 63.3242 87.2832 62.1875 87.8809 61.4141C88.5371 60.5703 89.0234 59.8438 89.3398 59.2344C89.668 58.6133 89.9023 58.0332 90.043 57.4941C90.1836 56.9434 90.2539 56.3926 90.2539 55.8418C90.2539 54.9629 90.1133 54.1895 89.832 53.5215C89.5508 52.8418 89.1172 52.3086 88.5312 51.9219C87.957 51.5352 87.2305 51.3418 86.3516 51.3418C84.1602 51.3418 82.6836 52.5605 81.9219 54.998H79.7949V51.623C81.2129 50.9551 82.5371 50.4746 83.7676 50.1816C85.0098 49.877 86.123 49.7246 87.1074 49.7246C89.2871 49.7246 90.9336 50.2051 92.0469 51.166C93.1602 52.1152 93.7168 53.498 93.7168 55.3145C93.7168 55.9355 93.6523 56.5098 93.5234 57.0371C93.4062 57.5527 93.2129 58.0684 92.9434 58.584C92.6855 59.0879 92.334 59.6328 91.8887 60.2188C91.4434 60.8047 90.9512 61.4023 90.4121 62.0117C89.873 62.6094 88.9414 63.6113 87.6172 65.0176C85.3906 67.373 83.7559 69.4297 82.7129 71.1875H89.3398Z" fill="white"/>
</svg>
