<svg width="316" height="85" viewBox="0 0 316 85" fill="none" xmlns="http://www.w3.org/2000/svg">
<path d="M14.8008 36.5996V40.2734H12.5684C12.3691 39.5117 12.123 38.9141 11.8301 38.4805C11.5371 38.0352 11.1973 37.7246 10.8105 37.5488C10.4238 37.373 9.94336 37.2852 9.36914 37.2852C8.54883 37.2852 7.82227 37.5488 7.18945 38.0762C6.55664 38.6035 6.05273 39.4062 5.67773 40.4844C5.31445 41.5625 5.13281 42.8809 5.13281 44.4395C5.13281 45.4355 5.20312 46.3496 5.34375 47.1816C5.48438 48.002 5.72461 48.7051 6.06445 49.291C6.4043 49.877 6.85547 50.334 7.41797 50.6621C7.98047 50.9902 8.67773 51.1543 9.50977 51.1543C10.3184 51.1543 11.0684 50.9961 11.7598 50.6797C12.4629 50.3633 13.1895 49.8066 13.9395 49.0098L14.9414 50.1699C14.3438 50.8262 13.8164 51.3359 13.3594 51.6992C12.9023 52.0508 12.4102 52.3496 11.8828 52.5957C11.3672 52.8301 10.8516 53 10.3359 53.1055C9.83203 53.2227 9.28125 53.2812 8.68359 53.2812C6.46875 53.2812 4.77539 52.5488 3.60352 51.084C2.43164 49.6074 1.8457 47.4805 1.8457 44.7031C1.8457 42.9688 2.17383 41.4336 2.83008 40.0977C3.48633 38.75 4.40625 37.7129 5.58984 36.9863C6.77344 36.2598 8.13867 35.8965 9.68555 35.8965C10.6465 35.8965 11.5312 35.9551 12.3398 36.0723C13.1602 36.1777 13.9805 36.3535 14.8008 36.5996ZM25.2422 53.2812C22.8047 53.2812 20.9414 52.5664 19.6523 51.1367C18.375 49.6953 17.7363 47.5684 17.7363 44.7559C17.7363 42.8223 18.0703 41.1875 18.7383 39.8516C19.418 38.5156 20.3438 37.5254 21.5156 36.8809C22.6875 36.2246 24.0234 35.8965 25.5234 35.8965C28.0312 35.8965 29.9297 36.6289 31.2188 38.0938C32.5078 39.5469 33.1523 41.6387 33.1523 44.3691C33.1523 46.3145 32.8301 47.9551 32.1855 49.291C31.541 50.627 30.627 51.6289 29.4434 52.2969C28.2598 52.9531 26.8594 53.2812 25.2422 53.2812ZM21.0586 44.3867C21.0586 46.8008 21.4395 48.6582 22.2012 49.959C22.9746 51.248 24.0762 51.8926 25.5059 51.8926C26.291 51.8926 26.959 51.7051 27.5098 51.3301C28.0605 50.9434 28.5059 50.4277 28.8457 49.7832C29.1973 49.1387 29.4492 48.3945 29.6016 47.5508C29.7539 46.6953 29.8301 45.8047 29.8301 44.8789C29.8301 43.1562 29.6367 41.7266 29.25 40.5898C28.875 39.4531 28.3594 38.6211 27.7031 38.0938C27.0469 37.5547 26.2969 37.2852 25.4531 37.2852C24.0352 37.2852 22.9453 37.9004 22.1836 39.1309C21.4336 40.3613 21.0586 42.1133 21.0586 44.3867ZM48.498 40.0449H46.8105C46.5527 39.3418 46.248 38.791 45.8965 38.3926C45.5449 37.9824 45.1465 37.6953 44.7012 37.5312C44.2559 37.3672 43.7109 37.2852 43.0664 37.2852C42.1289 37.2852 41.3789 37.5078 40.8164 37.9531C40.2656 38.3867 39.9902 38.9844 39.9902 39.7461C39.9902 40.2852 40.1016 40.7305 40.3242 41.082C40.5469 41.4336 40.8926 41.7617 41.3613 42.0664C41.8301 42.3711 42.6562 42.7754 43.8398 43.2793C45.0352 43.7949 45.9551 44.2695 46.5996 44.7031C47.2559 45.1367 47.7656 45.6406 48.1289 46.2148C48.5039 46.7891 48.6914 47.4746 48.6914 48.2715C48.6914 49.1973 48.5332 49.9766 48.2168 50.6094C47.9004 51.2422 47.4551 51.7578 46.8809 52.1562C46.3066 52.5547 45.6211 52.8418 44.8242 53.0176C44.0391 53.1934 43.1777 53.2812 42.2402 53.2812C41.2559 53.2812 40.3008 53.2051 39.375 53.0527C38.4492 52.9121 37.5469 52.7246 36.668 52.4902V48.8164H38.3906C38.707 49.8945 39.1758 50.6797 39.7969 51.1719C40.418 51.6523 41.2734 51.8926 42.3633 51.8926C42.7852 51.8926 43.1953 51.8516 43.5938 51.7695C44.0039 51.6758 44.3672 51.5293 44.6836 51.3301C45 51.1191 45.252 50.8379 45.4395 50.4863C45.627 50.1348 45.7207 49.6953 45.7207 49.168C45.7207 48.5703 45.6035 48.084 45.3691 47.709C45.1348 47.334 44.7715 46.9941 44.2793 46.6895C43.7871 46.373 42.9199 45.9512 41.6777 45.4238C40.6113 44.9785 39.7559 44.5449 39.1113 44.123C38.4668 43.7012 37.957 43.2031 37.582 42.6289C37.2188 42.0547 37.0371 41.375 37.0371 40.5898C37.0371 39.6289 37.2949 38.7969 37.8105 38.0938C38.3379 37.3789 39.0938 36.834 40.0781 36.459C41.0625 36.084 42.2168 35.8965 43.541 35.8965C44.3145 35.8965 45.0586 35.9375 45.7734 36.0195C46.5 36.0898 47.4082 36.2363 48.498 36.459V40.0449ZM56.6895 44.1055C56.6895 48.207 57.3457 51.5879 58.6582 54.248C59.9824 56.9082 61.998 58.6895 64.7051 59.5918L64.2832 60.9453C60.8496 60.043 58.2188 58.0977 56.3906 55.1094C54.5625 52.1328 53.6484 48.5234 53.6484 44.2812C53.6484 40.0508 54.5625 36.4414 56.3906 33.4531C58.2305 30.4531 60.8613 28.502 64.2832 27.5996L64.7578 28.9531C62.0156 29.8555 59.9824 31.6191 58.6582 34.2441C57.3457 36.8574 56.6895 40.1445 56.6895 44.1055ZM139.043 45.1074H130.887V42.3828H139.043V45.1074ZM149.027 42.8574L151.312 39.957C151.559 39.6406 151.758 39.3359 151.91 39.043C152.062 38.7383 152.139 38.4277 152.139 38.1113C152.139 37.8418 152.039 37.6191 151.84 37.4434C151.641 37.2676 151.33 37.1387 150.908 37.0566V36.1953H156.656V37.0566C156.211 37.1855 155.754 37.4375 155.285 37.8125C154.828 38.1875 154.266 38.791 153.598 39.623L149.959 44.0879L153.967 49.4844C154.541 50.2578 155.057 50.8496 155.514 51.2598C155.971 51.6699 156.428 51.9629 156.885 52.1387V53H149.818V52.1387C150.791 52.0215 151.277 51.6582 151.277 51.0488C151.277 50.8027 151.236 50.5684 151.154 50.3457C151.072 50.123 150.92 49.8652 150.697 49.5723L148.148 46.0215L145.441 49.5371C145.242 49.7949 145.084 50.0352 144.967 50.2578C144.861 50.4688 144.809 50.709 144.809 50.9785C144.809 51.2949 144.914 51.5586 145.125 51.7695C145.348 51.9688 145.693 52.0918 146.162 52.1387V53H140.291V52.1387C140.678 51.998 141.023 51.8223 141.328 51.6113C141.645 51.4004 141.961 51.1309 142.277 50.8027C142.605 50.4629 143.033 49.9707 143.561 49.3262L147.217 44.791L143.473 39.6582C142.957 38.9551 142.547 38.4453 142.242 38.1289C141.938 37.8125 141.656 37.5723 141.398 37.4082C141.141 37.2441 140.883 37.127 140.625 37.0566V36.1953H147.516V37.0566C146.59 37.1973 146.127 37.5605 146.127 38.1465C146.127 38.416 146.186 38.6855 146.303 38.9551C146.432 39.2246 146.625 39.5234 146.883 39.8516L149.027 42.8574ZM173.971 44.1055C173.971 40.1445 173.314 36.8574 172.002 34.2441C170.689 31.6191 168.656 29.8555 165.902 28.9531L166.377 27.5996C169.799 28.502 172.424 30.4531 174.252 33.4531C176.092 36.4414 177.012 40.0508 177.012 44.2812C177.012 48.5234 176.098 52.1328 174.27 55.1094C172.441 58.0977 169.811 60.043 166.377 60.9453L165.955 59.5918C168.662 58.6895 170.672 56.9082 171.984 54.248C173.309 51.5879 173.971 48.207 173.971 44.1055ZM190.74 40.2383V37.9004H212.396V40.2383H190.74ZM190.74 47.5332V45.1953H212.396V47.5332H190.74ZM236.443 40.0449H234.756C234.498 39.3418 234.193 38.791 233.842 38.3926C233.49 37.9824 233.092 37.6953 232.646 37.5312C232.201 37.3672 231.656 37.2852 231.012 37.2852C230.074 37.2852 229.324 37.5078 228.762 37.9531C228.211 38.3867 227.936 38.9844 227.936 39.7461C227.936 40.2852 228.047 40.7305 228.27 41.082C228.492 41.4336 228.838 41.7617 229.307 42.0664C229.775 42.3711 230.602 42.7754 231.785 43.2793C232.98 43.7949 233.9 44.2695 234.545 44.7031C235.201 45.1367 235.711 45.6406 236.074 46.2148C236.449 46.7891 236.637 47.4746 236.637 48.2715C236.637 49.1973 236.479 49.9766 236.162 50.6094C235.846 51.2422 235.4 51.7578 234.826 52.1562C234.252 52.5547 233.566 52.8418 232.77 53.0176C231.984 53.1934 231.123 53.2812 230.186 53.2812C229.201 53.2812 228.246 53.2051 227.32 53.0527C226.395 52.9121 225.492 52.7246 224.613 52.4902V48.8164H226.336C226.652 49.8945 227.121 50.6797 227.742 51.1719C228.363 51.6523 229.219 51.8926 230.309 51.8926C230.73 51.8926 231.141 51.8516 231.539 51.7695C231.949 51.6758 232.312 51.5293 232.629 51.3301C232.945 51.1191 233.197 50.8379 233.385 50.4863C233.572 50.1348 233.666 49.6953 233.666 49.168C233.666 48.5703 233.549 48.084 233.314 47.709C233.08 47.334 232.717 46.9941 232.225 46.6895C231.732 46.373 230.865 45.9512 229.623 45.4238C228.557 44.9785 227.701 44.5449 227.057 44.123C226.412 43.7012 225.902 43.2031 225.527 42.6289C225.164 42.0547 224.982 41.375 224.982 40.5898C224.982 39.6289 225.24 38.7969 225.756 38.0938C226.283 37.3789 227.039 36.834 228.023 36.459C229.008 36.084 230.162 35.8965 231.486 35.8965C232.26 35.8965 233.004 35.9375 233.719 36.0195C234.445 36.0898 235.354 36.2363 236.443 36.459V40.0449ZM245.162 29.3047V32.7148H241.928V29.3047H245.162ZM240.135 52.1387C240.592 51.998 240.914 51.875 241.102 51.7695C241.301 51.6641 241.465 51.5176 241.594 51.3301C241.734 51.1426 241.84 50.8555 241.91 50.4688C241.992 50.082 242.033 49.4785 242.033 48.6582V40.9941C242.033 40.2441 242.021 39.6406 241.998 39.1836C241.975 38.7266 241.893 38.3633 241.752 38.0938C241.611 37.8125 241.395 37.6074 241.102 37.4785C240.82 37.3379 240.416 37.2207 239.889 37.127V36.1953L243.984 36.0371H245.057V48.6055C245.057 49.6133 245.104 50.3164 245.197 50.7148C245.291 51.1016 245.467 51.4004 245.725 51.6113C245.994 51.8105 246.428 51.9863 247.025 52.1387V53H240.135V52.1387ZM267.275 53H260.35V52.1387C260.807 51.998 261.135 51.875 261.334 51.7695C261.533 51.6641 261.697 51.5176 261.826 51.3301C261.967 51.1426 262.072 50.8555 262.143 50.4688C262.225 50.0703 262.266 49.4727 262.266 48.6758V44.0703C262.266 43.25 262.242 42.5059 262.195 41.8379C262.148 41.1699 262.066 40.625 261.949 40.2031C261.844 39.7695 261.709 39.4355 261.545 39.2012C261.393 38.9551 261.205 38.75 260.982 38.5859C260.771 38.4102 260.525 38.2754 260.244 38.1816C259.963 38.0762 259.594 38.0234 259.137 38.0234C258.68 38.0234 258.246 38.1172 257.836 38.3047C257.426 38.4805 256.975 38.791 256.482 39.2363C255.99 39.6816 255.633 40.1211 255.41 40.5547C255.188 40.9883 255.076 41.4863 255.076 42.0488V48.6055C255.076 49.6133 255.123 50.3164 255.217 50.7148C255.311 51.1016 255.486 51.4004 255.744 51.6113C256.014 51.8105 256.447 51.9863 257.045 52.1387V53H250.154V52.1387C250.611 51.998 250.934 51.875 251.121 51.7695C251.32 51.6641 251.484 51.5176 251.613 51.3301C251.754 51.1426 251.859 50.8555 251.93 50.4688C252.012 50.082 252.053 49.4785 252.053 48.6582V40.9941C252.053 40.2441 252.041 39.6406 252.018 39.1836C251.994 38.7266 251.912 38.3633 251.771 38.0938C251.631 37.8125 251.414 37.6074 251.121 37.4785C250.84 37.3379 250.436 37.2207 249.908 37.127V36.1953L254.021 36.0371H255.094L254.9 38.9023L255.146 38.9727C256.014 38.0938 256.711 37.4668 257.238 37.0918C257.777 36.7168 258.316 36.4297 258.855 36.2305C259.406 36.0195 259.986 35.9141 260.596 35.9141C261.229 35.9141 261.791 35.9902 262.283 36.1426C262.787 36.2832 263.227 36.5059 263.602 36.8105C263.988 37.1152 264.305 37.4961 264.551 37.9531C264.797 38.3984 264.979 38.9375 265.096 39.5703C265.225 40.2031 265.289 41.0059 265.289 41.9785V48.6055C265.289 49.4141 265.312 50 265.359 50.3633C265.406 50.7266 265.488 51.0078 265.605 51.207C265.723 51.4062 265.893 51.5762 266.115 51.7168C266.338 51.8457 266.725 51.9863 267.275 52.1387V53ZM274.764 44.1055C274.764 48.207 275.42 51.5879 276.732 54.248C278.057 56.9082 280.072 58.6895 282.779 59.5918L282.357 60.9453C278.924 60.043 276.293 58.0977 274.465 55.1094C272.637 52.1328 271.723 48.5234 271.723 44.2812C271.723 40.0508 272.637 36.4414 274.465 33.4531C276.305 30.4531 278.936 28.502 282.357 27.5996L282.832 28.9531C280.09 29.8555 278.057 31.6191 276.732 34.2441C275.42 36.8574 274.764 40.1445 274.764 44.1055ZM292.641 42.8574L294.926 39.957C295.172 39.6406 295.371 39.3359 295.523 39.043C295.676 38.7383 295.752 38.4277 295.752 38.1113C295.752 37.8418 295.652 37.6191 295.453 37.4434C295.254 37.2676 294.943 37.1387 294.521 37.0566V36.1953H300.27V37.0566C299.824 37.1855 299.367 37.4375 298.898 37.8125C298.441 38.1875 297.879 38.791 297.211 39.623L293.572 44.0879L297.58 49.4844C298.154 50.2578 298.67 50.8496 299.127 51.2598C299.584 51.6699 300.041 51.9629 300.498 52.1387V53H293.432V52.1387C294.404 52.0215 294.891 51.6582 294.891 51.0488C294.891 50.8027 294.85 50.5684 294.768 50.3457C294.686 50.123 294.533 49.8652 294.311 49.5723L291.762 46.0215L289.055 49.5371C288.855 49.7949 288.697 50.0352 288.58 50.2578C288.475 50.4688 288.422 50.709 288.422 50.9785C288.422 51.2949 288.527 51.5586 288.738 51.7695C288.961 51.9688 289.307 52.0918 289.775 52.1387V53H283.904V52.1387C284.291 51.998 284.637 51.8223 284.941 51.6113C285.258 51.4004 285.574 51.1309 285.891 50.8027C286.219 50.4629 286.646 49.9707 287.174 49.3262L290.83 44.791L287.086 39.6582C286.57 38.9551 286.16 38.4453 285.855 38.1289C285.551 37.8125 285.27 37.5723 285.012 37.4082C284.754 37.2441 284.496 37.127 284.238 37.0566V36.1953H291.129V37.0566C290.203 37.1973 289.74 37.5605 289.74 38.1465C289.74 38.416 289.799 38.6855 289.916 38.9551C290.045 39.2246 290.238 39.5234 290.496 39.8516L292.641 42.8574ZM309.639 44.1055C309.639 40.1445 308.982 36.8574 307.67 34.2441C306.357 31.6191 304.324 29.8555 301.57 28.9531L302.045 27.5996C305.467 28.502 308.092 30.4531 309.92 33.4531C311.76 36.4414 312.68 40.0508 312.68 44.2812C312.68 48.5234 311.766 52.1328 309.938 55.1094C308.109 58.0977 305.479 60.043 302.045 60.9453L301.623 59.5918C304.33 58.6895 306.34 56.9082 307.652 54.248C308.977 51.5879 309.639 48.207 309.639 44.1055Z" fill="white"/>
<line x1="64" y1="42" x2="114" y2="42" stroke="white" stroke-width="2"/>
<path d="M81.0449 16.5684C80.2129 16.5684 79.5391 16.7031 79.0234 16.9727C78.5078 17.2422 77.9395 17.7812 77.3184 18.5898L76.2285 17.6406C77.2246 16.2461 78.1035 15.3262 78.8652 14.8809C79.627 14.4238 80.6641 14.1953 81.9766 14.1953H96.7949V16.5684H92.541V27.1152C92.541 28.6504 92.9805 29.418 93.8594 29.418C94.3633 29.418 94.9668 29.125 95.6699 28.5391L96.3555 29.5938C95.043 30.7188 93.7656 31.2812 92.5234 31.2812C91.5156 31.2812 90.7598 30.9414 90.2559 30.2617C89.7637 29.582 89.5176 28.4395 89.5176 26.834V16.5684H84.1211V31H80.5879V30.1387C81.3145 27.3848 81.6777 23.6699 81.6777 18.9941V16.5684H81.0449Z" fill="white"/>
<path d="M89.3398 71.1875C89.9141 71.1875 90.377 71.1523 90.7285 71.082C91.0801 71.0117 91.3613 70.8945 91.5723 70.7305C91.7832 70.5664 91.9473 70.3555 92.0645 70.0977C92.1934 69.8281 92.3516 69.418 92.5391 68.8672H94.0332L93.7344 74H79.2676V73.1562C79.7715 71.9258 80.4512 70.666 81.3066 69.377C82.1621 68.0879 83.375 66.5703 84.9453 64.8242C86.3047 63.3242 87.2832 62.1875 87.8809 61.4141C88.5371 60.5703 89.0234 59.8438 89.3398 59.2344C89.668 58.6133 89.9023 58.0332 90.043 57.4941C90.1836 56.9434 90.2539 56.3926 90.2539 55.8418C90.2539 54.9629 90.1133 54.1895 89.832 53.5215C89.5508 52.8418 89.1172 52.3086 88.5312 51.9219C87.957 51.5352 87.2305 51.3418 86.3516 51.3418C84.1602 51.3418 82.6836 52.5605 81.9219 54.998H79.7949V51.623C81.2129 50.9551 82.5371 50.4746 83.7676 50.1816C85.0098 49.877 86.123 49.7246 87.1074 49.7246C89.2871 49.7246 90.9336 50.2051 92.0469 51.166C93.1602 52.1152 93.7168 53.498 93.7168 55.3145C93.7168 55.9355 93.6523 56.5098 93.5234 57.0371C93.4062 57.5527 93.2129 58.0684 92.9434 58.584C92.6855 59.0879 92.334 59.6328 91.8887 60.2188C91.4434 60.8047 90.9512 61.4023 90.4121 62.0117C89.873 62.6094 88.9414 63.6113 87.6172 65.0176C85.3906 67.373 83.7559 69.4297 82.7129 71.1875H89.3398Z" fill="white"/>
</svg>
