<svg width="317" height="85" viewBox="0 0 317 85" fill="none" xmlns="http://www.w3.org/2000/svg">
<path d="M0.650391 37.0742C1.23633 36.9805 1.71094 36.8164 2.07422 36.582C2.4375 36.3477 2.71875 36.0488 2.91797 35.6855C3.12891 35.3105 3.29297 34.8477 3.41016 34.2969C3.52734 33.7344 3.65039 32.9199 3.7793 31.8535H6.27539V36.1953H11.9531V37.9707H6.27539V45.793C6.27539 46.9297 6.32227 47.8379 6.41602 48.5176C6.50977 49.1855 6.68555 49.7129 6.94336 50.0996C7.20117 50.4746 7.49414 50.7441 7.82227 50.9082C8.15039 51.0723 8.57227 51.1543 9.08789 51.1543C9.55664 51.1543 9.99609 51.0605 10.4062 50.873C10.8164 50.6738 11.2207 50.3926 11.6191 50.0293L12.4102 50.9785C11.5781 51.7871 10.7871 52.373 10.0371 52.7363C9.29883 53.0996 8.53125 53.2812 7.73438 53.2812C6.22266 53.2812 5.09766 52.8359 4.35938 51.9453C3.62109 51.043 3.25195 49.6367 3.25195 47.7266V37.9707H0.650391V37.0742ZM24.0645 50.4863L23.8008 50.416C22.7812 51.459 21.8203 52.1973 20.918 52.6309C20.0273 53.0645 19.0781 53.2812 18.0703 53.2812C17.1797 53.2812 16.3945 53.1113 15.7148 52.7715C15.0352 52.4199 14.5137 51.9336 14.1504 51.3125C13.7871 50.6797 13.6055 49.9531 13.6055 49.1328C13.6055 47.4219 14.4492 46.1035 16.1367 45.1777C17.8359 44.2402 20.3789 43.6953 23.7656 43.543V42.4004C23.7656 41.1816 23.6484 40.2207 23.4141 39.5176C23.1797 38.8145 22.8105 38.2988 22.3066 37.9707C21.8027 37.6426 21.1289 37.4785 20.2852 37.4785C19.3711 37.4785 18.6328 37.7188 18.0703 38.1992C17.5195 38.6797 17.1035 39.4004 16.8223 40.3613H14.5195V38.0762C15.6445 37.4902 16.582 37.0625 17.332 36.793C18.082 36.5117 18.832 36.2949 19.582 36.1426C20.332 35.9785 21.0938 35.8965 21.8672 35.8965C23.0273 35.8965 23.959 36.084 24.6621 36.459C25.3652 36.8223 25.8926 37.3848 26.2441 38.1465C26.5957 38.9082 26.7715 40.0566 26.7715 41.5918V47.709C26.7715 48.5762 26.7773 49.1914 26.7891 49.5547C26.8008 49.9062 26.8359 50.2344 26.8945 50.5391C26.9531 50.8438 27.041 51.0898 27.1582 51.2773C27.2754 51.4531 27.4453 51.6055 27.668 51.7344C27.9023 51.8633 28.2773 51.998 28.793 52.1387V53H23.9766L24.0645 50.4863ZM23.7656 44.9844C21.3867 45.0078 19.6055 45.3242 18.4219 45.9336C17.2383 46.543 16.6465 47.4629 16.6465 48.6934C16.6465 49.3613 16.7812 49.8887 17.0508 50.2754C17.3203 50.6621 17.6602 50.9316 18.0703 51.084C18.4805 51.2246 18.9668 51.2949 19.5293 51.2949C20.3262 51.2949 21.0469 51.1016 21.6914 50.7148C22.3477 50.3281 22.8574 49.8359 23.2207 49.2383C23.584 48.6406 23.7656 48.0488 23.7656 47.4629V44.9844ZM48.6035 53H41.6777V52.1387C42.1348 51.998 42.4629 51.875 42.6621 51.7695C42.8613 51.6641 43.0254 51.5176 43.1543 51.3301C43.2949 51.1426 43.4004 50.8555 43.4707 50.4688C43.5527 50.0703 43.5938 49.4727 43.5938 48.6758V44.0703C43.5938 43.25 43.5703 42.5059 43.5234 41.8379C43.4766 41.1699 43.3945 40.625 43.2773 40.2031C43.1719 39.7695 43.0371 39.4355 42.873 39.2012C42.7207 38.9551 42.5332 38.75 42.3105 38.5859C42.0996 38.4102 41.8535 38.2754 41.5723 38.1816C41.291 38.0762 40.9219 38.0234 40.4648 38.0234C40.0078 38.0234 39.5742 38.1172 39.1641 38.3047C38.7539 38.4805 38.3027 38.791 37.8105 39.2363C37.3184 39.6816 36.9609 40.1211 36.7383 40.5547C36.5156 40.9883 36.4043 41.4863 36.4043 42.0488V48.6055C36.4043 49.6133 36.4512 50.3164 36.5449 50.7148C36.6387 51.1016 36.8145 51.4004 37.0723 51.6113C37.3418 51.8105 37.7754 51.9863 38.373 52.1387V53H31.4824V52.1387C31.9395 51.998 32.2617 51.875 32.4492 51.7695C32.6484 51.6641 32.8125 51.5176 32.9414 51.3301C33.082 51.1426 33.1875 50.8555 33.2578 50.4688C33.3398 50.082 33.3809 49.4785 33.3809 48.6582V40.9941C33.3809 40.2441 33.3691 39.6406 33.3457 39.1836C33.3223 38.7266 33.2402 38.3633 33.0996 38.0938C32.959 37.8125 32.7422 37.6074 32.4492 37.4785C32.168 37.3379 31.7637 37.2207 31.2363 37.127V36.1953L35.3496 36.0371H36.4219L36.2285 38.9023L36.4746 38.9727C37.3418 38.0938 38.0391 37.4668 38.5664 37.0918C39.1055 36.7168 39.6445 36.4297 40.1836 36.2305C40.7344 36.0195 41.3145 35.9141 41.9238 35.9141C42.5566 35.9141 43.1191 35.9902 43.6113 36.1426C44.1152 36.2832 44.5547 36.5059 44.9297 36.8105C45.3164 37.1152 45.6328 37.4961 45.8789 37.9531C46.125 38.3984 46.3066 38.9375 46.4238 39.5703C46.5527 40.2031 46.6172 41.0059 46.6172 41.9785V48.6055C46.6172 49.4141 46.6406 50 46.6875 50.3633C46.7344 50.7266 46.8164 51.0078 46.9336 51.207C47.0508 51.4062 47.2207 51.5762 47.4434 51.7168C47.666 51.8457 48.0527 51.9863 48.6035 52.1387V53ZM56.0918 44.1055C56.0918 48.207 56.748 51.5879 58.0605 54.248C59.3848 56.9082 61.4004 58.6895 64.1074 59.5918L63.6855 60.9453C60.252 60.043 57.6211 58.0977 55.793 55.1094C53.9648 52.1328 53.0508 48.5234 53.0508 44.2812C53.0508 40.0508 53.9648 36.4414 55.793 33.4531C57.6328 30.4531 60.2637 28.502 63.6855 27.5996L64.1602 28.9531C61.418 29.8555 59.3848 31.6191 58.0605 34.2441C56.748 36.8574 56.0918 40.1445 56.0918 44.1055ZM138.445 45.1074H130.289V42.3828H138.445V45.1074ZM148.43 42.8574L150.715 39.957C150.961 39.6406 151.16 39.3359 151.312 39.043C151.465 38.7383 151.541 38.4277 151.541 38.1113C151.541 37.8418 151.441 37.6191 151.242 37.4434C151.043 37.2676 150.732 37.1387 150.311 37.0566V36.1953H156.059V37.0566C155.613 37.1855 155.156 37.4375 154.688 37.8125C154.23 38.1875 153.668 38.791 153 39.623L149.361 44.0879L153.369 49.4844C153.943 50.2578 154.459 50.8496 154.916 51.2598C155.373 51.6699 155.83 51.9629 156.287 52.1387V53H149.221V52.1387C150.193 52.0215 150.68 51.6582 150.68 51.0488C150.68 50.8027 150.639 50.5684 150.557 50.3457C150.475 50.123 150.322 49.8652 150.1 49.5723L147.551 46.0215L144.844 49.5371C144.645 49.7949 144.486 50.0352 144.369 50.2578C144.264 50.4688 144.211 50.709 144.211 50.9785C144.211 51.2949 144.316 51.5586 144.527 51.7695C144.75 51.9688 145.096 52.0918 145.564 52.1387V53H139.693V52.1387C140.08 51.998 140.426 51.8223 140.73 51.6113C141.047 51.4004 141.363 51.1309 141.68 50.8027C142.008 50.4629 142.436 49.9707 142.963 49.3262L146.619 44.791L142.875 39.6582C142.359 38.9551 141.949 38.4453 141.645 38.1289C141.34 37.8125 141.059 37.5723 140.801 37.4082C140.543 37.2441 140.285 37.127 140.027 37.0566V36.1953H146.918V37.0566C145.992 37.1973 145.529 37.5605 145.529 38.1465C145.529 38.416 145.588 38.6855 145.705 38.9551C145.834 39.2246 146.027 39.5234 146.285 39.8516L148.43 42.8574ZM173.373 44.1055C173.373 40.1445 172.717 36.8574 171.404 34.2441C170.092 31.6191 168.059 29.8555 165.305 28.9531L165.779 27.5996C169.201 28.502 171.826 30.4531 173.654 33.4531C175.494 36.4414 176.414 40.0508 176.414 44.2812C176.414 48.5234 175.5 52.1328 173.672 55.1094C171.844 58.0977 169.213 60.043 165.779 60.9453L165.357 59.5918C168.064 58.6895 170.074 56.9082 171.387 54.248C172.711 51.5879 173.373 48.207 173.373 44.1055ZM190.143 40.2383V37.9004H211.799V40.2383H190.143ZM190.143 47.5332V45.1953H211.799V47.5332H190.143ZM237.164 36.5996V40.2734H234.932C234.732 39.5117 234.486 38.9141 234.193 38.4805C233.9 38.0352 233.561 37.7246 233.174 37.5488C232.787 37.373 232.307 37.2852 231.732 37.2852C230.912 37.2852 230.186 37.5488 229.553 38.0762C228.92 38.6035 228.416 39.4062 228.041 40.4844C227.678 41.5625 227.496 42.8809 227.496 44.4395C227.496 45.4355 227.566 46.3496 227.707 47.1816C227.848 48.002 228.088 48.7051 228.428 49.291C228.768 49.877 229.219 50.334 229.781 50.6621C230.344 50.9902 231.041 51.1543 231.873 51.1543C232.682 51.1543 233.432 50.9961 234.123 50.6797C234.826 50.3633 235.553 49.8066 236.303 49.0098L237.305 50.1699C236.707 50.8262 236.18 51.3359 235.723 51.6992C235.266 52.0508 234.773 52.3496 234.246 52.5957C233.73 52.8301 233.215 53 232.699 53.1055C232.195 53.2227 231.645 53.2812 231.047 53.2812C228.832 53.2812 227.139 52.5488 225.967 51.084C224.795 49.6074 224.209 47.4805 224.209 44.7031C224.209 42.9688 224.537 41.4336 225.193 40.0977C225.85 38.75 226.77 37.7129 227.953 36.9863C229.137 36.2598 230.502 35.8965 232.049 35.8965C233.01 35.8965 233.895 35.9551 234.703 36.0723C235.523 36.1777 236.344 36.3535 237.164 36.5996ZM247.605 53.2812C245.168 53.2812 243.305 52.5664 242.016 51.1367C240.738 49.6953 240.1 47.5684 240.1 44.7559C240.1 42.8223 240.434 41.1875 241.102 39.8516C241.781 38.5156 242.707 37.5254 243.879 36.8809C245.051 36.2246 246.387 35.8965 247.887 35.8965C250.395 35.8965 252.293 36.6289 253.582 38.0938C254.871 39.5469 255.516 41.6387 255.516 44.3691C255.516 46.3145 255.193 47.9551 254.549 49.291C253.904 50.627 252.99 51.6289 251.807 52.2969C250.623 52.9531 249.223 53.2812 247.605 53.2812ZM243.422 44.3867C243.422 46.8008 243.803 48.6582 244.564 49.959C245.338 51.248 246.439 51.8926 247.869 51.8926C248.654 51.8926 249.322 51.7051 249.873 51.3301C250.424 50.9434 250.869 50.4277 251.209 49.7832C251.561 49.1387 251.812 48.3945 251.965 47.5508C252.117 46.6953 252.193 45.8047 252.193 44.8789C252.193 43.1562 252 41.7266 251.613 40.5898C251.238 39.4531 250.723 38.6211 250.066 38.0938C249.41 37.5547 248.66 37.2852 247.816 37.2852C246.398 37.2852 245.309 37.9004 244.547 39.1309C243.797 40.3613 243.422 42.1133 243.422 44.3867ZM258.029 37.0742C258.615 36.9805 259.09 36.8164 259.453 36.582C259.816 36.3477 260.098 36.0488 260.297 35.6855C260.508 35.3105 260.672 34.8477 260.789 34.2969C260.906 33.7344 261.029 32.9199 261.158 31.8535H263.654V36.1953H269.332V37.9707H263.654V45.793C263.654 46.9297 263.701 47.8379 263.795 48.5176C263.889 49.1855 264.064 49.7129 264.322 50.0996C264.58 50.4746 264.873 50.7441 265.201 50.9082C265.529 51.0723 265.951 51.1543 266.467 51.1543C266.936 51.1543 267.375 51.0605 267.785 50.873C268.195 50.6738 268.6 50.3926 268.998 50.0293L269.789 50.9785C268.957 51.7871 268.166 52.373 267.416 52.7363C266.678 53.0996 265.91 53.2812 265.113 53.2812C263.602 53.2812 262.477 52.8359 261.738 51.9453C261 51.043 260.631 49.6367 260.631 47.7266V37.9707H258.029V37.0742ZM275.783 44.1055C275.783 48.207 276.439 51.5879 277.752 54.248C279.076 56.9082 281.092 58.6895 283.799 59.5918L283.377 60.9453C279.943 60.043 277.312 58.0977 275.484 55.1094C273.656 52.1328 272.742 48.5234 272.742 44.2812C272.742 40.0508 273.656 36.4414 275.484 33.4531C277.324 30.4531 279.955 28.502 283.377 27.5996L283.852 28.9531C281.109 29.8555 279.076 31.6191 277.752 34.2441C276.439 36.8574 275.783 40.1445 275.783 44.1055ZM293.66 42.8574L295.945 39.957C296.191 39.6406 296.391 39.3359 296.543 39.043C296.695 38.7383 296.771 38.4277 296.771 38.1113C296.771 37.8418 296.672 37.6191 296.473 37.4434C296.273 37.2676 295.963 37.1387 295.541 37.0566V36.1953H301.289V37.0566C300.844 37.1855 300.387 37.4375 299.918 37.8125C299.461 38.1875 298.898 38.791 298.23 39.623L294.592 44.0879L298.6 49.4844C299.174 50.2578 299.689 50.8496 300.146 51.2598C300.604 51.6699 301.061 51.9629 301.518 52.1387V53H294.451V52.1387C295.424 52.0215 295.91 51.6582 295.91 51.0488C295.91 50.8027 295.869 50.5684 295.787 50.3457C295.705 50.123 295.553 49.8652 295.33 49.5723L292.781 46.0215L290.074 49.5371C289.875 49.7949 289.717 50.0352 289.6 50.2578C289.494 50.4688 289.441 50.709 289.441 50.9785C289.441 51.2949 289.547 51.5586 289.758 51.7695C289.98 51.9688 290.326 52.0918 290.795 52.1387V53H284.924V52.1387C285.311 51.998 285.656 51.8223 285.961 51.6113C286.277 51.4004 286.594 51.1309 286.91 50.8027C287.238 50.4629 287.666 49.9707 288.193 49.3262L291.85 44.791L288.105 39.6582C287.59 38.9551 287.18 38.4453 286.875 38.1289C286.57 37.8125 286.289 37.5723 286.031 37.4082C285.773 37.2441 285.516 37.127 285.258 37.0566V36.1953H292.148V37.0566C291.223 37.1973 290.76 37.5605 290.76 38.1465C290.76 38.416 290.818 38.6855 290.936 38.9551C291.064 39.2246 291.258 39.5234 291.516 39.8516L293.66 42.8574ZM310.658 44.1055C310.658 40.1445 310.002 36.8574 308.689 34.2441C307.377 31.6191 305.344 29.8555 302.59 28.9531L303.064 27.5996C306.486 28.502 309.111 30.4531 310.939 33.4531C312.779 36.4414 313.699 40.0508 313.699 44.2812C313.699 48.5234 312.785 52.1328 310.957 55.1094C309.129 58.0977 306.498 60.043 303.064 60.9453L302.643 59.5918C305.35 58.6895 307.359 56.9082 308.672 54.248C309.996 51.5879 310.658 48.207 310.658 44.1055Z" fill="white"/>
<line x1="64" y1="42" x2="114" y2="42" stroke="white" stroke-width="2"/>
<path d="M81.0449 16.5684C80.2129 16.5684 79.5391 16.7031 79.0234 16.9727C78.5078 17.2422 77.9395 17.7812 77.3184 18.5898L76.2285 17.6406C77.2246 16.2461 78.1035 15.3262 78.8652 14.8809C79.627 14.4238 80.6641 14.1953 81.9766 14.1953H96.7949V16.5684H92.541V27.1152C92.541 28.6504 92.9805 29.418 93.8594 29.418C94.3633 29.418 94.9668 29.125 95.6699 28.5391L96.3555 29.5938C95.043 30.7188 93.7656 31.2812 92.5234 31.2812C91.5156 31.2812 90.7598 30.9414 90.2559 30.2617C89.7637 29.582 89.5176 28.4395 89.5176 26.834V16.5684H84.1211V31H80.5879V30.1387C81.3145 27.3848 81.6777 23.6699 81.6777 18.9941V16.5684H81.0449Z" fill="white"/>
<path d="M89.3398 71.1875C89.9141 71.1875 90.377 71.1523 90.7285 71.082C91.0801 71.0117 91.3613 70.8945 91.5723 70.7305C91.7832 70.5664 91.9473 70.3555 92.0645 70.0977C92.1934 69.8281 92.3516 69.418 92.5391 68.8672H94.0332L93.7344 74H79.2676V73.1562C79.7715 71.9258 80.4512 70.666 81.3066 69.377C82.1621 68.0879 83.375 66.5703 84.9453 64.8242C86.3047 63.3242 87.2832 62.1875 87.8809 61.4141C88.5371 60.5703 89.0234 59.8438 89.3398 59.2344C89.668 58.6133 89.9023 58.0332 90.043 57.4941C90.1836 56.9434 90.2539 56.3926 90.2539 55.8418C90.2539 54.9629 90.1133 54.1895 89.832 53.5215C89.5508 52.8418 89.1172 52.3086 88.5312 51.9219C87.957 51.5352 87.2305 51.3418 86.3516 51.3418C84.1602 51.3418 82.6836 52.5605 81.9219 54.998H79.7949V51.623C81.2129 50.9551 82.5371 50.4746 83.7676 50.1816C85.0098 49.877 86.123 49.7246 87.1074 49.7246C89.2871 49.7246 90.9336 50.2051 92.0469 51.166C93.1602 52.1152 93.7168 53.498 93.7168 55.3145C93.7168 55.9355 93.6523 56.5098 93.5234 57.0371C93.4062 57.5527 93.2129 58.0684 92.9434 58.584C92.6855 59.0879 92.334 59.6328 91.8887 60.2188C91.4434 60.8047 90.9512 61.4023 90.4121 62.0117C89.873 62.6094 88.9414 63.6113 87.6172 65.0176C85.3906 67.373 83.7559 69.4297 82.7129 71.1875H89.3398Z" fill="white"/>
</svg>
