<svg width="241" height="82" viewBox="0 0 241 82" fill="none" xmlns="http://www.w3.org/2000/svg">
<path d="M13.4824 37.0449H11.7949C11.5371 36.3418 11.2324 35.791 10.8809 35.3926C10.5293 34.9824 10.1309 34.6953 9.68555 34.5312C9.24023 34.3672 8.69531 34.2852 8.05078 34.2852C7.11328 34.2852 6.36328 34.5078 5.80078 34.9531C5.25 35.3867 4.97461 35.9844 4.97461 36.7461C4.97461 37.2852 5.08594 37.7305 5.30859 38.082C5.53125 38.4336 5.87695 38.7617 6.3457 39.0664C6.81445 39.3711 7.64062 39.7754 8.82422 40.2793C10.0195 40.7949 10.9395 41.2695 11.584 41.7031C12.2402 42.1367 12.75 42.6406 13.1133 43.2148C13.4883 43.7891 13.6758 44.4746 13.6758 45.2715C13.6758 46.1973 13.5176 46.9766 13.2012 47.6094C12.8848 48.2422 12.4395 48.7578 11.8652 49.1562C11.291 49.5547 10.6055 49.8418 9.80859 50.0176C9.02344 50.1934 8.16211 50.2812 7.22461 50.2812C6.24023 50.2812 5.28516 50.2051 4.35938 50.0527C3.43359 49.9121 2.53125 49.7246 1.65234 49.4902V45.8164H3.375C3.69141 46.8945 4.16016 47.6797 4.78125 48.1719C5.40234 48.6523 6.25781 48.8926 7.34766 48.8926C7.76953 48.8926 8.17969 48.8516 8.57812 48.7695C8.98828 48.6758 9.35156 48.5293 9.66797 48.3301C9.98438 48.1191 10.2363 47.8379 10.4238 47.4863C10.6113 47.1348 10.7051 46.6953 10.7051 46.168C10.7051 45.5703 10.5879 45.084 10.3535 44.709C10.1191 44.334 9.75586 43.9941 9.26367 43.6895C8.77148 43.373 7.9043 42.9512 6.66211 42.4238C5.5957 41.9785 4.74023 41.5449 4.0957 41.123C3.45117 40.7012 2.94141 40.2031 2.56641 39.6289C2.20312 39.0547 2.02148 38.375 2.02148 37.5898C2.02148 36.6289 2.2793 35.7969 2.79492 35.0938C3.32227 34.3789 4.07812 33.834 5.0625 33.459C6.04688 33.084 7.20117 32.8965 8.52539 32.8965C9.29883 32.8965 10.043 32.9375 10.7578 33.0195C11.4844 33.0898 12.3926 33.2363 13.4824 33.459V37.0449ZM31.2188 47.0117C30.4688 47.7969 29.7773 48.4121 29.1445 48.8574C28.5234 49.3027 27.8379 49.6543 27.0879 49.9121C26.3379 50.1582 25.5117 50.2812 24.6094 50.2812C22.1953 50.2812 20.373 49.5605 19.1426 48.1191C17.9121 46.666 17.2969 44.5273 17.2969 41.7031C17.2969 39.957 17.6074 38.416 18.2285 37.0801C18.8613 35.7441 19.7578 34.7129 20.918 33.9863C22.0781 33.2598 23.4141 32.8965 24.9258 32.8965C26.1094 32.8965 27.1172 33.084 27.9492 33.459C28.7812 33.834 29.4434 34.3496 29.9355 35.0059C30.4395 35.6504 30.8262 36.4707 31.0957 37.4668C31.377 38.4512 31.5352 39.7402 31.5703 41.334H20.4961V41.6504C20.4961 43.0332 20.6484 44.1992 20.9531 45.1484C21.2695 46.0859 21.7793 46.8242 22.4824 47.3633C23.1973 47.8906 24.123 48.1543 25.2598 48.1543C26.2207 48.1543 27.082 47.9785 27.8438 47.627C28.6172 47.2637 29.3848 46.6777 30.1465 45.8691L31.2188 47.0117ZM28.2656 39.875C28.1953 38.6094 28.0371 37.5781 27.791 36.7812C27.5449 35.9727 27.1758 35.3574 26.6836 34.9355C26.1914 34.502 25.5469 34.2852 24.75 34.2852C23.543 34.2852 22.5762 34.7715 21.8496 35.7441C21.1348 36.7051 20.7129 38.082 20.584 39.875H28.2656ZM47.8477 33.5996V37.2734H45.6152C45.416 36.5117 45.1699 35.9141 44.877 35.4805C44.584 35.0352 44.2441 34.7246 43.8574 34.5488C43.4707 34.373 42.9902 34.2852 42.416 34.2852C41.5957 34.2852 40.8691 34.5488 40.2363 35.0762C39.6035 35.6035 39.0996 36.4062 38.7246 37.4844C38.3613 38.5625 38.1797 39.8809 38.1797 41.4395C38.1797 42.4355 38.25 43.3496 38.3906 44.1816C38.5312 45.002 38.7715 45.7051 39.1113 46.291C39.4512 46.877 39.9023 47.334 40.4648 47.6621C41.0273 47.9902 41.7246 48.1543 42.5566 48.1543C43.3652 48.1543 44.1152 47.9961 44.8066 47.6797C45.5098 47.3633 46.2363 46.8066 46.9863 46.0098L47.9883 47.1699C47.3906 47.8262 46.8633 48.3359 46.4062 48.6992C45.9492 49.0508 45.457 49.3496 44.9297 49.5957C44.4141 49.8301 43.8984 50 43.3828 50.1055C42.8789 50.2227 42.3281 50.2812 41.7305 50.2812C39.5156 50.2812 37.8223 49.5488 36.6504 48.084C35.4785 46.6074 34.8926 44.4805 34.8926 41.7031C34.8926 39.9688 35.2207 38.4336 35.877 37.0977C36.5332 35.75 37.4531 34.7129 38.6367 33.9863C39.8203 33.2598 41.1855 32.8965 42.7324 32.8965C43.6934 32.8965 44.5781 32.9551 45.3867 33.0723C46.207 33.1777 47.0273 33.3535 47.8477 33.5996ZM55.1426 41.1055C55.1426 45.207 55.7988 48.5879 57.1113 51.248C58.4355 53.9082 60.4512 55.6895 63.1582 56.5918L62.7363 57.9453C59.3027 57.043 56.6719 55.0977 54.8438 52.1094C53.0156 49.1328 52.1016 45.5234 52.1016 41.2812C52.1016 37.0508 53.0156 33.4414 54.8438 30.4531C56.6836 27.4531 59.3145 25.502 62.7363 24.5996L63.2109 25.9531C60.4688 26.8555 58.4355 28.6191 57.1113 31.2441C55.7988 33.8574 55.1426 37.1445 55.1426 41.1055ZM73.0195 39.8574L75.3047 36.957C75.5508 36.6406 75.75 36.3359 75.9023 36.043C76.0547 35.7383 76.1309 35.4277 76.1309 35.1113C76.1309 34.8418 76.0312 34.6191 75.832 34.4434C75.6328 34.2676 75.3223 34.1387 74.9004 34.0566V33.1953H80.6484V34.0566C80.2031 34.1855 79.7461 34.4375 79.2773 34.8125C78.8203 35.1875 78.2578 35.791 77.5898 36.623L73.9512 41.0879L77.959 46.4844C78.5332 47.2578 79.0488 47.8496 79.5059 48.2598C79.9629 48.6699 80.4199 48.9629 80.877 49.1387V50H73.8105V49.1387C74.7832 49.0215 75.2695 48.6582 75.2695 48.0488C75.2695 47.8027 75.2285 47.5684 75.1465 47.3457C75.0645 47.123 74.9121 46.8652 74.6895 46.5723L72.1406 43.0215L69.4336 46.5371C69.2344 46.7949 69.0762 47.0352 68.959 47.2578C68.8535 47.4688 68.8008 47.709 68.8008 47.9785C68.8008 48.2949 68.9062 48.5586 69.1172 48.7695C69.3398 48.9688 69.6855 49.0918 70.1543 49.1387V50H64.2832V49.1387C64.6699 48.998 65.0156 48.8223 65.3203 48.6113C65.6367 48.4004 65.9531 48.1309 66.2695 47.8027C66.5977 47.4629 67.0254 46.9707 67.5527 46.3262L71.209 41.791L67.4648 36.6582C66.9492 35.9551 66.5391 35.4453 66.2344 35.1289C65.9297 34.8125 65.6484 34.5723 65.3906 34.4082C65.1328 34.2441 64.875 34.127 64.6172 34.0566V33.1953H71.5078V34.0566C70.582 34.1973 70.1191 34.5605 70.1191 35.1465C70.1191 35.416 70.1777 35.6855 70.2949 35.9551C70.4238 36.2246 70.6172 36.5234 70.875 36.8516L73.0195 39.8574ZM90.0176 41.1055C90.0176 37.1445 89.3613 33.8574 88.0488 31.2441C86.7363 28.6191 84.7031 26.8555 81.9492 25.9531L82.4238 24.5996C85.8457 25.502 88.4707 27.4531 90.2988 30.4531C92.1387 33.4414 93.0586 37.0508 93.0586 41.2812C93.0586 45.5234 92.1445 49.1328 90.3164 52.1094C88.4883 55.0977 85.8574 57.043 82.4238 57.9453L82.002 56.5918C84.709 55.6895 86.7188 53.9082 88.0312 51.248C89.3555 48.5879 90.0176 45.207 90.0176 41.1055ZM106.787 37.2383V34.9004H128.443V37.2383H106.787ZM106.787 44.5332V42.1953H128.443V44.5332H106.787Z" fill="white"/>
<path d="M157.801 54.5996V58.2734H155.568C155.369 57.5117 155.123 56.9141 154.83 56.4805C154.537 56.0352 154.197 55.7246 153.811 55.5488C153.424 55.373 152.943 55.2852 152.369 55.2852C151.549 55.2852 150.822 55.5488 150.189 56.0762C149.557 56.6035 149.053 57.4062 148.678 58.4844C148.314 59.5625 148.133 60.8809 148.133 62.4395C148.133 63.4355 148.203 64.3496 148.344 65.1816C148.484 66.002 148.725 66.7051 149.064 67.291C149.404 67.877 149.855 68.334 150.418 68.6621C150.98 68.9902 151.678 69.1543 152.51 69.1543C153.318 69.1543 154.068 68.9961 154.76 68.6797C155.463 68.3633 156.189 67.8066 156.939 67.0098L157.941 68.1699C157.344 68.8262 156.816 69.3359 156.359 69.6992C155.902 70.0508 155.41 70.3496 154.883 70.5957C154.367 70.8301 153.852 71 153.336 71.1055C152.832 71.2227 152.281 71.2812 151.684 71.2812C149.469 71.2812 147.775 70.5488 146.604 69.084C145.432 67.6074 144.846 65.4805 144.846 62.7031C144.846 60.9688 145.174 59.4336 145.83 58.0977C146.486 56.75 147.406 55.7129 148.59 54.9863C149.773 54.2598 151.139 53.8965 152.686 53.8965C153.646 53.8965 154.531 53.9551 155.34 54.0723C156.16 54.1777 156.98 54.3535 157.801 54.5996ZM168.242 71.2812C165.805 71.2812 163.941 70.5664 162.652 69.1367C161.375 67.6953 160.736 65.5684 160.736 62.7559C160.736 60.8223 161.07 59.1875 161.738 57.8516C162.418 56.5156 163.344 55.5254 164.516 54.8809C165.688 54.2246 167.023 53.8965 168.523 53.8965C171.031 53.8965 172.93 54.6289 174.219 56.0938C175.508 57.5469 176.152 59.6387 176.152 62.3691C176.152 64.3145 175.83 65.9551 175.186 67.291C174.541 68.627 173.627 69.6289 172.443 70.2969C171.26 70.9531 169.859 71.2812 168.242 71.2812ZM164.059 62.3867C164.059 64.8008 164.439 66.6582 165.201 67.959C165.975 69.248 167.076 69.8926 168.506 69.8926C169.291 69.8926 169.959 69.7051 170.51 69.3301C171.061 68.9434 171.506 68.4277 171.846 67.7832C172.197 67.1387 172.449 66.3945 172.602 65.5508C172.754 64.6953 172.83 63.8047 172.83 62.8789C172.83 61.1562 172.637 59.7266 172.25 58.5898C171.875 57.4531 171.359 56.6211 170.703 56.0938C170.047 55.5547 169.297 55.2852 168.453 55.2852C167.035 55.2852 165.945 55.9004 165.184 57.1309C164.434 58.3613 164.059 60.1133 164.059 62.3867ZM191.498 58.0449H189.811C189.553 57.3418 189.248 56.791 188.896 56.3926C188.545 55.9824 188.146 55.6953 187.701 55.5312C187.256 55.3672 186.711 55.2852 186.066 55.2852C185.129 55.2852 184.379 55.5078 183.816 55.9531C183.266 56.3867 182.99 56.9844 182.99 57.7461C182.99 58.2852 183.102 58.7305 183.324 59.082C183.547 59.4336 183.893 59.7617 184.361 60.0664C184.83 60.3711 185.656 60.7754 186.84 61.2793C188.035 61.7949 188.955 62.2695 189.6 62.7031C190.256 63.1367 190.766 63.6406 191.129 64.2148C191.504 64.7891 191.691 65.4746 191.691 66.2715C191.691 67.1973 191.533 67.9766 191.217 68.6094C190.9 69.2422 190.455 69.7578 189.881 70.1562C189.307 70.5547 188.621 70.8418 187.824 71.0176C187.039 71.1934 186.178 71.2812 185.24 71.2812C184.256 71.2812 183.301 71.2051 182.375 71.0527C181.449 70.9121 180.547 70.7246 179.668 70.4902V66.8164H181.391C181.707 67.8945 182.176 68.6797 182.797 69.1719C183.418 69.6523 184.273 69.8926 185.363 69.8926C185.785 69.8926 186.195 69.8516 186.594 69.7695C187.004 69.6758 187.367 69.5293 187.684 69.3301C188 69.1191 188.252 68.8379 188.439 68.4863C188.627 68.1348 188.721 67.6953 188.721 67.168C188.721 66.5703 188.604 66.084 188.369 65.709C188.135 65.334 187.771 64.9941 187.279 64.6895C186.787 64.373 185.92 63.9512 184.678 63.4238C183.611 62.9785 182.756 62.5449 182.111 62.123C181.467 61.7012 180.957 61.2031 180.582 60.6289C180.219 60.0547 180.037 59.375 180.037 58.5898C180.037 57.6289 180.295 56.7969 180.811 56.0938C181.338 55.3789 182.094 54.834 183.078 54.459C184.062 54.084 185.217 53.8965 186.541 53.8965C187.314 53.8965 188.059 53.9375 188.773 54.0195C189.5 54.0898 190.408 54.2363 191.498 54.459V58.0449ZM199.689 62.1055C199.689 66.207 200.346 69.5879 201.658 72.248C202.982 74.9082 204.998 76.6895 207.705 77.5918L207.283 78.9453C203.85 78.043 201.219 76.0977 199.391 73.1094C197.562 70.1328 196.648 66.5234 196.648 62.2812C196.648 58.0508 197.562 54.4414 199.391 51.4531C201.23 48.4531 203.861 46.502 207.283 45.5996L207.758 46.9531C205.016 47.8555 202.982 49.6191 201.658 52.2441C200.346 54.8574 199.689 58.1445 199.689 62.1055ZM217.566 60.8574L219.852 57.957C220.098 57.6406 220.297 57.3359 220.449 57.043C220.602 56.7383 220.678 56.4277 220.678 56.1113C220.678 55.8418 220.578 55.6191 220.379 55.4434C220.18 55.2676 219.869 55.1387 219.447 55.0566V54.1953H225.195V55.0566C224.75 55.1855 224.293 55.4375 223.824 55.8125C223.367 56.1875 222.805 56.791 222.137 57.623L218.498 62.0879L222.506 67.4844C223.08 68.2578 223.596 68.8496 224.053 69.2598C224.51 69.6699 224.967 69.9629 225.424 70.1387V71H218.357V70.1387C219.33 70.0215 219.816 69.6582 219.816 69.0488C219.816 68.8027 219.775 68.5684 219.693 68.3457C219.611 68.123 219.459 67.8652 219.236 67.5723L216.688 64.0215L213.98 67.5371C213.781 67.7949 213.623 68.0352 213.506 68.2578C213.4 68.4688 213.348 68.709 213.348 68.9785C213.348 69.2949 213.453 69.5586 213.664 69.7695C213.887 69.9688 214.232 70.0918 214.701 70.1387V71H208.83V70.1387C209.217 69.998 209.562 69.8223 209.867 69.6113C210.184 69.4004 210.5 69.1309 210.816 68.8027C211.145 68.4629 211.572 67.9707 212.1 67.3262L215.756 62.791L212.012 57.6582C211.496 56.9551 211.086 56.4453 210.781 56.1289C210.477 55.8125 210.195 55.5723 209.938 55.4082C209.68 55.2441 209.422 55.127 209.164 55.0566V54.1953H216.055V55.0566C215.129 55.1973 214.666 55.5605 214.666 56.1465C214.666 56.416 214.725 56.6855 214.842 56.9551C214.971 57.2246 215.164 57.5234 215.422 57.8516L217.566 60.8574ZM234.564 62.1055C234.564 58.1445 233.908 54.8574 232.596 52.2441C231.283 49.6191 229.25 47.8555 226.496 46.9531L226.971 45.5996C230.393 46.502 233.018 48.4531 234.846 51.4531C236.686 54.4414 237.605 58.0508 237.605 62.2812C237.605 66.5234 236.691 70.1328 234.863 73.1094C233.035 76.0977 230.404 78.043 226.971 78.9453L226.549 77.5918C229.256 76.6895 231.266 74.9082 232.578 72.248C233.902 69.5879 234.564 66.207 234.564 62.1055Z" fill="white"/>
<path d="M192.217 26.4121C192.217 27.0918 192.252 27.6074 192.322 27.959C192.404 28.2988 192.539 28.5801 192.727 28.8027C192.926 29.0137 193.207 29.1836 193.57 29.3125C193.934 29.4297 194.391 29.5234 194.941 29.5938C195.492 29.6523 196.219 29.6934 197.121 29.7168V31H184.131V29.7168C185.432 29.6582 186.357 29.582 186.908 29.4883C187.471 29.3828 187.898 29.2305 188.191 29.0312C188.484 28.832 188.695 28.5508 188.824 28.1875C188.965 27.8242 189.035 27.2324 189.035 26.4121V12.1562C189.035 11.6875 188.953 11.3477 188.789 11.1367C188.625 10.9141 188.385 10.8027 188.068 10.8027C187.693 10.8027 187.16 10.9961 186.469 11.3828C185.777 11.7695 184.922 12.3027 183.902 12.9824L183.129 11.6289L191.355 6.72461H192.322C192.252 7.84961 192.217 9.4082 192.217 11.4004V26.4121Z" fill="white"/>
<line x1="140" y1="39.5" x2="240" y2="39.5" stroke="white"/>
</svg>
