<svg width="241" height="87" viewBox="0 0 241 87" fill="none" xmlns="http://www.w3.org/2000/svg">
<path d="M0.650391 39.0742C1.23633 38.9805 1.71094 38.8164 2.07422 38.582C2.4375 38.3477 2.71875 38.0488 2.91797 37.6855C3.12891 37.3105 3.29297 36.8477 3.41016 36.2969C3.52734 35.7344 3.65039 34.9199 3.7793 33.8535H6.27539V38.1953H11.9531V39.9707H6.27539V47.793C6.27539 48.9297 6.32227 49.8379 6.41602 50.5176C6.50977 51.1855 6.68555 51.7129 6.94336 52.0996C7.20117 52.4746 7.49414 52.7441 7.82227 52.9082C8.15039 53.0723 8.57227 53.1543 9.08789 53.1543C9.55664 53.1543 9.99609 53.0605 10.4062 52.873C10.8164 52.6738 11.2207 52.3926 11.6191 52.0293L12.4102 52.9785C11.5781 53.7871 10.7871 54.373 10.0371 54.7363C9.29883 55.0996 8.53125 55.2812 7.73438 55.2812C6.22266 55.2812 5.09766 54.8359 4.35938 53.9453C3.62109 53.043 3.25195 51.6367 3.25195 49.7266V39.9707H0.650391V39.0742ZM24.0645 52.4863L23.8008 52.416C22.7812 53.459 21.8203 54.1973 20.918 54.6309C20.0273 55.0645 19.0781 55.2812 18.0703 55.2812C17.1797 55.2812 16.3945 55.1113 15.7148 54.7715C15.0352 54.4199 14.5137 53.9336 14.1504 53.3125C13.7871 52.6797 13.6055 51.9531 13.6055 51.1328C13.6055 49.4219 14.4492 48.1035 16.1367 47.1777C17.8359 46.2402 20.3789 45.6953 23.7656 45.543V44.4004C23.7656 43.1816 23.6484 42.2207 23.4141 41.5176C23.1797 40.8145 22.8105 40.2988 22.3066 39.9707C21.8027 39.6426 21.1289 39.4785 20.2852 39.4785C19.3711 39.4785 18.6328 39.7188 18.0703 40.1992C17.5195 40.6797 17.1035 41.4004 16.8223 42.3613H14.5195V40.0762C15.6445 39.4902 16.582 39.0625 17.332 38.793C18.082 38.5117 18.832 38.2949 19.582 38.1426C20.332 37.9785 21.0938 37.8965 21.8672 37.8965C23.0273 37.8965 23.959 38.084 24.6621 38.459C25.3652 38.8223 25.8926 39.3848 26.2441 40.1465C26.5957 40.9082 26.7715 42.0566 26.7715 43.5918V49.709C26.7715 50.5762 26.7773 51.1914 26.7891 51.5547C26.8008 51.9062 26.8359 52.2344 26.8945 52.5391C26.9531 52.8438 27.041 53.0898 27.1582 53.2773C27.2754 53.4531 27.4453 53.6055 27.668 53.7344C27.9023 53.8633 28.2773 53.998 28.793 54.1387V55H23.9766L24.0645 52.4863ZM23.7656 46.9844C21.3867 47.0078 19.6055 47.3242 18.4219 47.9336C17.2383 48.543 16.6465 49.4629 16.6465 50.6934C16.6465 51.3613 16.7812 51.8887 17.0508 52.2754C17.3203 52.6621 17.6602 52.9316 18.0703 53.084C18.4805 53.2246 18.9668 53.2949 19.5293 53.2949C20.3262 53.2949 21.0469 53.1016 21.6914 52.7148C22.3477 52.3281 22.8574 51.8359 23.2207 51.2383C23.584 50.6406 23.7656 50.0488 23.7656 49.4629V46.9844ZM48.6035 55H41.6777V54.1387C42.1348 53.998 42.4629 53.875 42.6621 53.7695C42.8613 53.6641 43.0254 53.5176 43.1543 53.3301C43.2949 53.1426 43.4004 52.8555 43.4707 52.4688C43.5527 52.0703 43.5938 51.4727 43.5938 50.6758V46.0703C43.5938 45.25 43.5703 44.5059 43.5234 43.8379C43.4766 43.1699 43.3945 42.625 43.2773 42.2031C43.1719 41.7695 43.0371 41.4355 42.873 41.2012C42.7207 40.9551 42.5332 40.75 42.3105 40.5859C42.0996 40.4102 41.8535 40.2754 41.5723 40.1816C41.291 40.0762 40.9219 40.0234 40.4648 40.0234C40.0078 40.0234 39.5742 40.1172 39.1641 40.3047C38.7539 40.4805 38.3027 40.791 37.8105 41.2363C37.3184 41.6816 36.9609 42.1211 36.7383 42.5547C36.5156 42.9883 36.4043 43.4863 36.4043 44.0488V50.6055C36.4043 51.6133 36.4512 52.3164 36.5449 52.7148C36.6387 53.1016 36.8145 53.4004 37.0723 53.6113C37.3418 53.8105 37.7754 53.9863 38.373 54.1387V55H31.4824V54.1387C31.9395 53.998 32.2617 53.875 32.4492 53.7695C32.6484 53.6641 32.8125 53.5176 32.9414 53.3301C33.082 53.1426 33.1875 52.8555 33.2578 52.4688C33.3398 52.082 33.3809 51.4785 33.3809 50.6582V42.9941C33.3809 42.2441 33.3691 41.6406 33.3457 41.1836C33.3223 40.7266 33.2402 40.3633 33.0996 40.0938C32.959 39.8125 32.7422 39.6074 32.4492 39.4785C32.168 39.3379 31.7637 39.2207 31.2363 39.127V38.1953L35.3496 38.0371H36.4219L36.2285 40.9023L36.4746 40.9727C37.3418 40.0938 38.0391 39.4668 38.5664 39.0918C39.1055 38.7168 39.6445 38.4297 40.1836 38.2305C40.7344 38.0195 41.3145 37.9141 41.9238 37.9141C42.5566 37.9141 43.1191 37.9902 43.6113 38.1426C44.1152 38.2832 44.5547 38.5059 44.9297 38.8105C45.3164 39.1152 45.6328 39.4961 45.8789 39.9531C46.125 40.3984 46.3066 40.9375 46.4238 41.5703C46.5527 42.2031 46.6172 43.0059 46.6172 43.9785V50.6055C46.6172 51.4141 46.6406 52 46.6875 52.3633C46.7344 52.7266 46.8164 53.0078 46.9336 53.207C47.0508 53.4062 47.2207 53.5762 47.4434 53.7168C47.666 53.8457 48.0527 53.9863 48.6035 54.1387V55ZM56.0918 46.1055C56.0918 50.207 56.748 53.5879 58.0605 56.248C59.3848 58.9082 61.4004 60.6895 64.1074 61.5918L63.6855 62.9453C60.252 62.043 57.6211 60.0977 55.793 57.1094C53.9648 54.1328 53.0508 50.5234 53.0508 46.2812C53.0508 42.0508 53.9648 38.4414 55.793 35.4531C57.6328 32.4531 60.2637 30.502 63.6855 29.5996L64.1602 30.9531C61.418 31.8555 59.3848 33.6191 58.0605 36.2441C56.748 38.8574 56.0918 42.1445 56.0918 46.1055ZM73.9688 44.8574L76.2539 41.957C76.5 41.6406 76.6992 41.3359 76.8516 41.043C77.0039 40.7383 77.0801 40.4277 77.0801 40.1113C77.0801 39.8418 76.9805 39.6191 76.7812 39.4434C76.582 39.2676 76.2715 39.1387 75.8496 39.0566V38.1953H81.5977V39.0566C81.1523 39.1855 80.6953 39.4375 80.2266 39.8125C79.7695 40.1875 79.207 40.791 78.5391 41.623L74.9004 46.0879L78.9082 51.4844C79.4824 52.2578 79.998 52.8496 80.4551 53.2598C80.9121 53.6699 81.3691 53.9629 81.8262 54.1387V55H74.7598V54.1387C75.7324 54.0215 76.2188 53.6582 76.2188 53.0488C76.2188 52.8027 76.1777 52.5684 76.0957 52.3457C76.0137 52.123 75.8613 51.8652 75.6387 51.5723L73.0898 48.0215L70.3828 51.5371C70.1836 51.7949 70.0254 52.0352 69.9082 52.2578C69.8027 52.4688 69.75 52.709 69.75 52.9785C69.75 53.2949 69.8555 53.5586 70.0664 53.7695C70.2891 53.9688 70.6348 54.0918 71.1035 54.1387V55H65.2324V54.1387C65.6191 53.998 65.9648 53.8223 66.2695 53.6113C66.5859 53.4004 66.9023 53.1309 67.2188 52.8027C67.5469 52.4629 67.9746 51.9707 68.502 51.3262L72.1582 46.791L68.4141 41.6582C67.8984 40.9551 67.4883 40.4453 67.1836 40.1289C66.8789 39.8125 66.5977 39.5723 66.3398 39.4082C66.082 39.2441 65.8242 39.127 65.5664 39.0566V38.1953H72.457V39.0566C71.5312 39.1973 71.0684 39.5605 71.0684 40.1465C71.0684 40.416 71.127 40.6855 71.2441 40.9551C71.373 41.2246 71.5664 41.5234 71.8242 41.8516L73.9688 44.8574ZM90.9668 46.1055C90.9668 42.1445 90.3105 38.8574 88.998 36.2441C87.6855 33.6191 85.6523 31.8555 82.8984 30.9531L83.373 29.5996C86.7949 30.502 89.4199 32.4531 91.248 35.4531C93.0879 38.4414 94.0078 42.0508 94.0078 46.2812C94.0078 50.5234 93.0938 54.1328 91.2656 57.1094C89.4375 60.0977 86.8066 62.043 83.373 62.9453L82.9512 61.5918C85.6582 60.6895 87.668 58.9082 88.9805 56.248C90.3047 53.5879 90.9668 50.207 90.9668 46.1055ZM107.736 42.2383V39.9004H129.393V42.2383H107.736ZM107.736 49.5332V47.1953H129.393V49.5332H107.736Z" fill="white"/>
<path d="M157.801 59.5996V63.2734H155.568C155.369 62.5117 155.123 61.9141 154.83 61.4805C154.537 61.0352 154.197 60.7246 153.811 60.5488C153.424 60.373 152.943 60.2852 152.369 60.2852C151.549 60.2852 150.822 60.5488 150.189 61.0762C149.557 61.6035 149.053 62.4062 148.678 63.4844C148.314 64.5625 148.133 65.8809 148.133 67.4395C148.133 68.4355 148.203 69.3496 148.344 70.1816C148.484 71.002 148.725 71.7051 149.064 72.291C149.404 72.877 149.855 73.334 150.418 73.6621C150.98 73.9902 151.678 74.1543 152.51 74.1543C153.318 74.1543 154.068 73.9961 154.76 73.6797C155.463 73.3633 156.189 72.8066 156.939 72.0098L157.941 73.1699C157.344 73.8262 156.816 74.3359 156.359 74.6992C155.902 75.0508 155.41 75.3496 154.883 75.5957C154.367 75.8301 153.852 76 153.336 76.1055C152.832 76.2227 152.281 76.2812 151.684 76.2812C149.469 76.2812 147.775 75.5488 146.604 74.084C145.432 72.6074 144.846 70.4805 144.846 67.7031C144.846 65.9688 145.174 64.4336 145.83 63.0977C146.486 61.75 147.406 60.7129 148.59 59.9863C149.773 59.2598 151.139 58.8965 152.686 58.8965C153.646 58.8965 154.531 58.9551 155.34 59.0723C156.16 59.1777 156.98 59.3535 157.801 59.5996ZM168.242 76.2812C165.805 76.2812 163.941 75.5664 162.652 74.1367C161.375 72.6953 160.736 70.5684 160.736 67.7559C160.736 65.8223 161.07 64.1875 161.738 62.8516C162.418 61.5156 163.344 60.5254 164.516 59.8809C165.688 59.2246 167.023 58.8965 168.523 58.8965C171.031 58.8965 172.93 59.6289 174.219 61.0938C175.508 62.5469 176.152 64.6387 176.152 67.3691C176.152 69.3145 175.83 70.9551 175.186 72.291C174.541 73.627 173.627 74.6289 172.443 75.2969C171.26 75.9531 169.859 76.2812 168.242 76.2812ZM164.059 67.3867C164.059 69.8008 164.439 71.6582 165.201 72.959C165.975 74.248 167.076 74.8926 168.506 74.8926C169.291 74.8926 169.959 74.7051 170.51 74.3301C171.061 73.9434 171.506 73.4277 171.846 72.7832C172.197 72.1387 172.449 71.3945 172.602 70.5508C172.754 69.6953 172.83 68.8047 172.83 67.8789C172.83 66.1562 172.637 64.7266 172.25 63.5898C171.875 62.4531 171.359 61.6211 170.703 61.0938C170.047 60.5547 169.297 60.2852 168.453 60.2852C167.035 60.2852 165.945 60.9004 165.184 62.1309C164.434 63.3613 164.059 65.1133 164.059 67.3867ZM191.498 63.0449H189.811C189.553 62.3418 189.248 61.791 188.896 61.3926C188.545 60.9824 188.146 60.6953 187.701 60.5312C187.256 60.3672 186.711 60.2852 186.066 60.2852C185.129 60.2852 184.379 60.5078 183.816 60.9531C183.266 61.3867 182.99 61.9844 182.99 62.7461C182.99 63.2852 183.102 63.7305 183.324 64.082C183.547 64.4336 183.893 64.7617 184.361 65.0664C184.83 65.3711 185.656 65.7754 186.84 66.2793C188.035 66.7949 188.955 67.2695 189.6 67.7031C190.256 68.1367 190.766 68.6406 191.129 69.2148C191.504 69.7891 191.691 70.4746 191.691 71.2715C191.691 72.1973 191.533 72.9766 191.217 73.6094C190.9 74.2422 190.455 74.7578 189.881 75.1562C189.307 75.5547 188.621 75.8418 187.824 76.0176C187.039 76.1934 186.178 76.2812 185.24 76.2812C184.256 76.2812 183.301 76.2051 182.375 76.0527C181.449 75.9121 180.547 75.7246 179.668 75.4902V71.8164H181.391C181.707 72.8945 182.176 73.6797 182.797 74.1719C183.418 74.6523 184.273 74.8926 185.363 74.8926C185.785 74.8926 186.195 74.8516 186.594 74.7695C187.004 74.6758 187.367 74.5293 187.684 74.3301C188 74.1191 188.252 73.8379 188.439 73.4863C188.627 73.1348 188.721 72.6953 188.721 72.168C188.721 71.5703 188.604 71.084 188.369 70.709C188.135 70.334 187.771 69.9941 187.279 69.6895C186.787 69.373 185.92 68.9512 184.678 68.4238C183.611 67.9785 182.756 67.5449 182.111 67.123C181.467 66.7012 180.957 66.2031 180.582 65.6289C180.219 65.0547 180.037 64.375 180.037 63.5898C180.037 62.6289 180.295 61.7969 180.811 61.0938C181.338 60.3789 182.094 59.834 183.078 59.459C184.062 59.084 185.217 58.8965 186.541 58.8965C187.314 58.8965 188.059 58.9375 188.773 59.0195C189.5 59.0898 190.408 59.2363 191.498 59.459V63.0449ZM199.689 67.1055C199.689 71.207 200.346 74.5879 201.658 77.248C202.982 79.9082 204.998 81.6895 207.705 82.5918L207.283 83.9453C203.85 83.043 201.219 81.0977 199.391 78.1094C197.562 75.1328 196.648 71.5234 196.648 67.2812C196.648 63.0508 197.562 59.4414 199.391 56.4531C201.23 53.4531 203.861 51.502 207.283 50.5996L207.758 51.9531C205.016 52.8555 202.982 54.6191 201.658 57.2441C200.346 59.8574 199.689 63.1445 199.689 67.1055ZM217.566 65.8574L219.852 62.957C220.098 62.6406 220.297 62.3359 220.449 62.043C220.602 61.7383 220.678 61.4277 220.678 61.1113C220.678 60.8418 220.578 60.6191 220.379 60.4434C220.18 60.2676 219.869 60.1387 219.447 60.0566V59.1953H225.195V60.0566C224.75 60.1855 224.293 60.4375 223.824 60.8125C223.367 61.1875 222.805 61.791 222.137 62.623L218.498 67.0879L222.506 72.4844C223.08 73.2578 223.596 73.8496 224.053 74.2598C224.51 74.6699 224.967 74.9629 225.424 75.1387V76H218.357V75.1387C219.33 75.0215 219.816 74.6582 219.816 74.0488C219.816 73.8027 219.775 73.5684 219.693 73.3457C219.611 73.123 219.459 72.8652 219.236 72.5723L216.688 69.0215L213.98 72.5371C213.781 72.7949 213.623 73.0352 213.506 73.2578C213.4 73.4688 213.348 73.709 213.348 73.9785C213.348 74.2949 213.453 74.5586 213.664 74.7695C213.887 74.9688 214.232 75.0918 214.701 75.1387V76H208.83V75.1387C209.217 74.998 209.562 74.8223 209.867 74.6113C210.184 74.4004 210.5 74.1309 210.816 73.8027C211.145 73.4629 211.572 72.9707 212.1 72.3262L215.756 67.791L212.012 62.6582C211.496 61.9551 211.086 61.4453 210.781 61.1289C210.477 60.8125 210.195 60.5723 209.938 60.4082C209.68 60.2441 209.422 60.127 209.164 60.0566V59.1953H216.055V60.0566C215.129 60.1973 214.666 60.5605 214.666 61.1465C214.666 61.416 214.725 61.6855 214.842 61.9551C214.971 62.2246 215.164 62.5234 215.422 62.8516L217.566 65.8574ZM234.564 67.1055C234.564 63.1445 233.908 59.8574 232.596 57.2441C231.283 54.6191 229.25 52.8555 226.496 51.9531L226.971 50.5996C230.393 51.502 233.018 53.4531 234.846 56.4531C236.686 59.4414 237.605 63.0508 237.605 67.2812C237.605 71.5234 236.691 75.1328 234.863 78.1094C233.035 81.0977 230.404 83.043 226.971 83.9453L226.549 82.5918C229.256 81.6895 231.266 79.9082 232.578 77.248C233.902 74.5879 234.564 71.207 234.564 67.1055Z" fill="white"/>
<path d="M160.482 18.0449H158.795C158.537 17.3418 158.232 16.791 157.881 16.3926C157.529 15.9824 157.131 15.6953 156.686 15.5312C156.24 15.3672 155.695 15.2852 155.051 15.2852C154.113 15.2852 153.363 15.5078 152.801 15.9531C152.25 16.3867 151.975 16.9844 151.975 17.7461C151.975 18.2852 152.086 18.7305 152.309 19.082C152.531 19.4336 152.877 19.7617 153.346 20.0664C153.814 20.3711 154.641 20.7754 155.824 21.2793C157.02 21.7949 157.939 22.2695 158.584 22.7031C159.24 23.1367 159.75 23.6406 160.113 24.2148C160.488 24.7891 160.676 25.4746 160.676 26.2715C160.676 27.1973 160.518 27.9766 160.201 28.6094C159.885 29.2422 159.439 29.7578 158.865 30.1562C158.291 30.5547 157.605 30.8418 156.809 31.0176C156.023 31.1934 155.162 31.2812 154.225 31.2812C153.24 31.2812 152.285 31.2051 151.359 31.0527C150.434 30.9121 149.531 30.7246 148.652 30.4902V26.8164H150.375C150.691 27.8945 151.16 28.6797 151.781 29.1719C152.402 29.6523 153.258 29.8926 154.348 29.8926C154.77 29.8926 155.18 29.8516 155.578 29.7695C155.988 29.6758 156.352 29.5293 156.668 29.3301C156.984 29.1191 157.236 28.8379 157.424 28.4863C157.611 28.1348 157.705 27.6953 157.705 27.168C157.705 26.5703 157.588 26.084 157.354 25.709C157.119 25.334 156.756 24.9941 156.264 24.6895C155.771 24.373 154.904 23.9512 153.662 23.4238C152.596 22.9785 151.74 22.5449 151.096 22.123C150.451 21.7012 149.941 21.2031 149.566 20.6289C149.203 20.0547 149.021 19.375 149.021 18.5898C149.021 17.6289 149.279 16.7969 149.795 16.0938C150.322 15.3789 151.078 14.834 152.062 14.459C153.047 14.084 154.201 13.8965 155.525 13.8965C156.299 13.8965 157.043 13.9375 157.758 14.0195C158.484 14.0898 159.393 14.2363 160.482 14.459V18.0449ZM169.201 7.30469V10.7148H165.967V7.30469H169.201ZM164.174 30.1387C164.631 29.998 164.953 29.875 165.141 29.7695C165.34 29.6641 165.504 29.5176 165.633 29.3301C165.773 29.1426 165.879 28.8555 165.949 28.4688C166.031 28.082 166.072 27.4785 166.072 26.6582V18.9941C166.072 18.2441 166.061 17.6406 166.037 17.1836C166.014 16.7266 165.932 16.3633 165.791 16.0938C165.65 15.8125 165.434 15.6074 165.141 15.4785C164.859 15.3379 164.455 15.2207 163.928 15.127V14.1953L168.023 14.0371H169.096V26.6055C169.096 27.6133 169.143 28.3164 169.236 28.7148C169.33 29.1016 169.506 29.4004 169.764 29.6113C170.033 29.8105 170.467 29.9863 171.064 30.1387V31H164.174V30.1387ZM191.314 31H184.389V30.1387C184.846 29.998 185.174 29.875 185.373 29.7695C185.572 29.6641 185.736 29.5176 185.865 29.3301C186.006 29.1426 186.111 28.8555 186.182 28.4688C186.264 28.0703 186.305 27.4727 186.305 26.6758V22.0703C186.305 21.25 186.281 20.5059 186.234 19.8379C186.188 19.1699 186.105 18.625 185.988 18.2031C185.883 17.7695 185.748 17.4355 185.584 17.2012C185.432 16.9551 185.244 16.75 185.021 16.5859C184.811 16.4102 184.564 16.2754 184.283 16.1816C184.002 16.0762 183.633 16.0234 183.176 16.0234C182.719 16.0234 182.285 16.1172 181.875 16.3047C181.465 16.4805 181.014 16.791 180.521 17.2363C180.029 17.6816 179.672 18.1211 179.449 18.5547C179.227 18.9883 179.115 19.4863 179.115 20.0488V26.6055C179.115 27.6133 179.162 28.3164 179.256 28.7148C179.35 29.1016 179.525 29.4004 179.783 29.6113C180.053 29.8105 180.486 29.9863 181.084 30.1387V31H174.193V30.1387C174.65 29.998 174.973 29.875 175.16 29.7695C175.359 29.6641 175.523 29.5176 175.652 29.3301C175.793 29.1426 175.898 28.8555 175.969 28.4688C176.051 28.082 176.092 27.4785 176.092 26.6582V18.9941C176.092 18.2441 176.08 17.6406 176.057 17.1836C176.033 16.7266 175.951 16.3633 175.811 16.0938C175.67 15.8125 175.453 15.6074 175.16 15.4785C174.879 15.3379 174.475 15.2207 173.947 15.127V14.1953L178.061 14.0371H179.133L178.939 16.9023L179.186 16.9727C180.053 16.0938 180.75 15.4668 181.277 15.0918C181.816 14.7168 182.355 14.4297 182.895 14.2305C183.445 14.0195 184.025 13.9141 184.635 13.9141C185.268 13.9141 185.83 13.9902 186.322 14.1426C186.826 14.2832 187.266 14.5059 187.641 14.8105C188.027 15.1152 188.344 15.4961 188.59 15.9531C188.836 16.3984 189.018 16.9375 189.135 17.5703C189.264 18.2031 189.328 19.0059 189.328 19.9785V26.6055C189.328 27.4141 189.352 28 189.398 28.3633C189.445 28.7266 189.527 29.0078 189.645 29.207C189.762 29.4062 189.932 29.5762 190.154 29.7168C190.377 29.8457 190.764 29.9863 191.314 30.1387V31ZM198.803 22.1055C198.803 26.207 199.459 29.5879 200.771 32.248C202.096 34.9082 204.111 36.6895 206.818 37.5918L206.396 38.9453C202.963 38.043 200.332 36.0977 198.504 33.1094C196.676 30.1328 195.762 26.5234 195.762 22.2812C195.762 18.0508 196.676 14.4414 198.504 11.4531C200.344 8.45312 202.975 6.50195 206.396 5.59961L206.871 6.95312C204.129 7.85547 202.096 9.61914 200.771 12.2441C199.459 14.8574 198.803 18.1445 198.803 22.1055ZM216.68 20.8574L218.965 17.957C219.211 17.6406 219.41 17.3359 219.562 17.043C219.715 16.7383 219.791 16.4277 219.791 16.1113C219.791 15.8418 219.691 15.6191 219.492 15.4434C219.293 15.2676 218.982 15.1387 218.561 15.0566V14.1953H224.309V15.0566C223.863 15.1855 223.406 15.4375 222.938 15.8125C222.48 16.1875 221.918 16.791 221.25 17.623L217.611 22.0879L221.619 27.4844C222.193 28.2578 222.709 28.8496 223.166 29.2598C223.623 29.6699 224.08 29.9629 224.537 30.1387V31H217.471V30.1387C218.443 30.0215 218.93 29.6582 218.93 29.0488C218.93 28.8027 218.889 28.5684 218.807 28.3457C218.725 28.123 218.572 27.8652 218.35 27.5723L215.801 24.0215L213.094 27.5371C212.895 27.7949 212.736 28.0352 212.619 28.2578C212.514 28.4688 212.461 28.709 212.461 28.9785C212.461 29.2949 212.566 29.5586 212.777 29.7695C213 29.9688 213.346 30.0918 213.814 30.1387V31H207.943V30.1387C208.33 29.998 208.676 29.8223 208.98 29.6113C209.297 29.4004 209.613 29.1309 209.93 28.8027C210.258 28.4629 210.686 27.9707 211.213 27.3262L214.869 22.791L211.125 17.6582C210.609 16.9551 210.199 16.4453 209.895 16.1289C209.59 15.8125 209.309 15.5723 209.051 15.4082C208.793 15.2441 208.535 15.127 208.277 15.0566V14.1953H215.168V15.0566C214.242 15.1973 213.779 15.5605 213.779 16.1465C213.779 16.416 213.838 16.6855 213.955 16.9551C214.084 17.2246 214.277 17.5234 214.535 17.8516L216.68 20.8574ZM233.678 22.1055C233.678 18.1445 233.021 14.8574 231.709 12.2441C230.396 9.61914 228.363 7.85547 225.609 6.95312L226.084 5.59961C229.506 6.50195 232.131 8.45312 233.959 11.4531C235.799 14.4414 236.719 18.0508 236.719 22.2812C236.719 26.5234 235.805 30.1328 233.977 33.1094C232.148 36.0977 229.518 38.043 226.084 38.9453L225.662 37.5918C228.369 36.6895 230.379 34.9082 231.691 32.248C233.016 29.5879 233.678 26.207 233.678 22.1055Z" fill="white"/>
<line x1="140" y1="44.5" x2="240" y2="44.5" stroke="white"/>
</svg>
