<svg width="240" height="87" viewBox="0 0 240 87" fill="none" xmlns="http://www.w3.org/2000/svg">
<path d="M14.8008 38.5996V42.2734H12.5684C12.3691 41.5117 12.123 40.9141 11.8301 40.4805C11.5371 40.0352 11.1973 39.7246 10.8105 39.5488C10.4238 39.373 9.94336 39.2852 9.36914 39.2852C8.54883 39.2852 7.82227 39.5488 7.18945 40.0762C6.55664 40.6035 6.05273 41.4062 5.67773 42.4844C5.31445 43.5625 5.13281 44.8809 5.13281 46.4395C5.13281 47.4355 5.20312 48.3496 5.34375 49.1816C5.48438 50.002 5.72461 50.7051 6.06445 51.291C6.4043 51.877 6.85547 52.334 7.41797 52.6621C7.98047 52.9902 8.67773 53.1543 9.50977 53.1543C10.3184 53.1543 11.0684 52.9961 11.7598 52.6797C12.4629 52.3633 13.1895 51.8066 13.9395 51.0098L14.9414 52.1699C14.3438 52.8262 13.8164 53.3359 13.3594 53.6992C12.9023 54.0508 12.4102 54.3496 11.8828 54.5957C11.3672 54.8301 10.8516 55 10.3359 55.1055C9.83203 55.2227 9.28125 55.2812 8.68359 55.2812C6.46875 55.2812 4.77539 54.5488 3.60352 53.084C2.43164 51.6074 1.8457 49.4805 1.8457 46.7031C1.8457 44.9688 2.17383 43.4336 2.83008 42.0977C3.48633 40.75 4.40625 39.7129 5.58984 38.9863C6.77344 38.2598 8.13867 37.8965 9.68555 37.8965C10.6465 37.8965 11.5312 37.9551 12.3398 38.0723C13.1602 38.1777 13.9805 38.3535 14.8008 38.5996ZM25.2422 55.2812C22.8047 55.2812 20.9414 54.5664 19.6523 53.1367C18.375 51.6953 17.7363 49.5684 17.7363 46.7559C17.7363 44.8223 18.0703 43.1875 18.7383 41.8516C19.418 40.5156 20.3438 39.5254 21.5156 38.8809C22.6875 38.2246 24.0234 37.8965 25.5234 37.8965C28.0312 37.8965 29.9297 38.6289 31.2188 40.0938C32.5078 41.5469 33.1523 43.6387 33.1523 46.3691C33.1523 48.3145 32.8301 49.9551 32.1855 51.291C31.541 52.627 30.627 53.6289 29.4434 54.2969C28.2598 54.9531 26.8594 55.2812 25.2422 55.2812ZM21.0586 46.3867C21.0586 48.8008 21.4395 50.6582 22.2012 51.959C22.9746 53.248 24.0762 53.8926 25.5059 53.8926C26.291 53.8926 26.959 53.7051 27.5098 53.3301C28.0605 52.9434 28.5059 52.4277 28.8457 51.7832C29.1973 51.1387 29.4492 50.3945 29.6016 49.5508C29.7539 48.6953 29.8301 47.8047 29.8301 46.8789C29.8301 45.1562 29.6367 43.7266 29.25 42.5898C28.875 41.4531 28.3594 40.6211 27.7031 40.0938C27.0469 39.5547 26.2969 39.2852 25.4531 39.2852C24.0352 39.2852 22.9453 39.9004 22.1836 41.1309C21.4336 42.3613 21.0586 44.1133 21.0586 46.3867ZM35.666 39.0742C36.252 38.9805 36.7266 38.8164 37.0898 38.582C37.4531 38.3477 37.7344 38.0488 37.9336 37.6855C38.1445 37.3105 38.3086 36.8477 38.4258 36.2969C38.543 35.7344 38.666 34.9199 38.7949 33.8535H41.291V38.1953H46.9688V39.9707H41.291V47.793C41.291 48.9297 41.3379 49.8379 41.4316 50.5176C41.5254 51.1855 41.7012 51.7129 41.959 52.0996C42.2168 52.4746 42.5098 52.7441 42.8379 52.9082C43.166 53.0723 43.5879 53.1543 44.1035 53.1543C44.5723 53.1543 45.0117 53.0605 45.4219 52.873C45.832 52.6738 46.2363 52.3926 46.6348 52.0293L47.4258 52.9785C46.5938 53.7871 45.8027 54.373 45.0527 54.7363C44.3145 55.0996 43.5469 55.2812 42.75 55.2812C41.2383 55.2812 40.1133 54.8359 39.375 53.9453C38.6367 53.043 38.2676 51.6367 38.2676 49.7266V39.9707H35.666V39.0742ZM53.4199 46.1055C53.4199 50.207 54.0762 53.5879 55.3887 56.248C56.7129 58.9082 58.7285 60.6895 61.4355 61.5918L61.0137 62.9453C57.5801 62.043 54.9492 60.0977 53.1211 57.1094C51.293 54.1328 50.3789 50.5234 50.3789 46.2812C50.3789 42.0508 51.293 38.4414 53.1211 35.4531C54.9609 32.4531 57.5918 30.502 61.0137 29.5996L61.4883 30.9531C58.7461 31.8555 56.7129 33.6191 55.3887 36.2441C54.0762 38.8574 53.4199 42.1445 53.4199 46.1055ZM71.2969 44.8574L73.582 41.957C73.8281 41.6406 74.0273 41.3359 74.1797 41.043C74.332 40.7383 74.4082 40.4277 74.4082 40.1113C74.4082 39.8418 74.3086 39.6191 74.1094 39.4434C73.9102 39.2676 73.5996 39.1387 73.1777 39.0566V38.1953H78.9258V39.0566C78.4805 39.1855 78.0234 39.4375 77.5547 39.8125C77.0977 40.1875 76.5352 40.791 75.8672 41.623L72.2285 46.0879L76.2363 51.4844C76.8105 52.2578 77.3262 52.8496 77.7832 53.2598C78.2402 53.6699 78.6973 53.9629 79.1543 54.1387V55H72.0879V54.1387C73.0605 54.0215 73.5469 53.6582 73.5469 53.0488C73.5469 52.8027 73.5059 52.5684 73.4238 52.3457C73.3418 52.123 73.1895 51.8652 72.9668 51.5723L70.418 48.0215L67.7109 51.5371C67.5117 51.7949 67.3535 52.0352 67.2363 52.2578C67.1309 52.4688 67.0781 52.709 67.0781 52.9785C67.0781 53.2949 67.1836 53.5586 67.3945 53.7695C67.6172 53.9688 67.9629 54.0918 68.4316 54.1387V55H62.5605V54.1387C62.9473 53.998 63.293 53.8223 63.5977 53.6113C63.9141 53.4004 64.2305 53.1309 64.5469 52.8027C64.875 52.4629 65.3027 51.9707 65.8301 51.3262L69.4863 46.791L65.7422 41.6582C65.2266 40.9551 64.8164 40.4453 64.5117 40.1289C64.207 39.8125 63.9258 39.5723 63.668 39.4082C63.4102 39.2441 63.1523 39.127 62.8945 39.0566V38.1953H69.7852V39.0566C68.8594 39.1973 68.3965 39.5605 68.3965 40.1465C68.3965 40.416 68.4551 40.6855 68.5723 40.9551C68.7012 41.2246 68.8945 41.5234 69.1523 41.8516L71.2969 44.8574ZM88.2949 46.1055C88.2949 42.1445 87.6387 38.8574 86.3262 36.2441C85.0137 33.6191 82.9805 31.8555 80.2266 30.9531L80.7012 29.5996C84.123 30.502 86.748 32.4531 88.5762 35.4531C90.416 38.4414 91.3359 42.0508 91.3359 46.2812C91.3359 50.5234 90.4219 54.1328 88.5938 57.1094C86.7656 60.0977 84.1348 62.043 80.7012 62.9453L80.2793 61.5918C82.9863 60.6895 84.9961 58.9082 86.3086 56.248C87.6328 53.5879 88.2949 50.207 88.2949 46.1055ZM105.064 42.2383V39.9004H126.721V42.2383H105.064ZM105.064 49.5332V47.1953H126.721V49.5332H105.064Z" fill="white"/>
<path d="M156.482 63.0449H154.795C154.537 62.3418 154.232 61.791 153.881 61.3926C153.529 60.9824 153.131 60.6953 152.686 60.5312C152.24 60.3672 151.695 60.2852 151.051 60.2852C150.113 60.2852 149.363 60.5078 148.801 60.9531C148.25 61.3867 147.975 61.9844 147.975 62.7461C147.975 63.2852 148.086 63.7305 148.309 64.082C148.531 64.4336 148.877 64.7617 149.346 65.0664C149.814 65.3711 150.641 65.7754 151.824 66.2793C153.02 66.7949 153.939 67.2695 154.584 67.7031C155.24 68.1367 155.75 68.6406 156.113 69.2148C156.488 69.7891 156.676 70.4746 156.676 71.2715C156.676 72.1973 156.518 72.9766 156.201 73.6094C155.885 74.2422 155.439 74.7578 154.865 75.1562C154.291 75.5547 153.605 75.8418 152.809 76.0176C152.023 76.1934 151.162 76.2812 150.225 76.2812C149.24 76.2812 148.285 76.2051 147.359 76.0527C146.434 75.9121 145.531 75.7246 144.652 75.4902V71.8164H146.375C146.691 72.8945 147.16 73.6797 147.781 74.1719C148.402 74.6523 149.258 74.8926 150.348 74.8926C150.77 74.8926 151.18 74.8516 151.578 74.7695C151.988 74.6758 152.352 74.5293 152.668 74.3301C152.984 74.1191 153.236 73.8379 153.424 73.4863C153.611 73.1348 153.705 72.6953 153.705 72.168C153.705 71.5703 153.588 71.084 153.354 70.709C153.119 70.334 152.756 69.9941 152.264 69.6895C151.771 69.373 150.904 68.9512 149.662 68.4238C148.596 67.9785 147.74 67.5449 147.096 67.123C146.451 66.7012 145.941 66.2031 145.566 65.6289C145.203 65.0547 145.021 64.375 145.021 63.5898C145.021 62.6289 145.279 61.7969 145.795 61.0938C146.322 60.3789 147.078 59.834 148.062 59.459C149.047 59.084 150.201 58.8965 151.525 58.8965C152.299 58.8965 153.043 58.9375 153.758 59.0195C154.484 59.0898 155.393 59.2363 156.482 59.459V63.0449ZM165.201 52.3047V55.7148H161.967V52.3047H165.201ZM160.174 75.1387C160.631 74.998 160.953 74.875 161.141 74.7695C161.34 74.6641 161.504 74.5176 161.633 74.3301C161.773 74.1426 161.879 73.8555 161.949 73.4688C162.031 73.082 162.072 72.4785 162.072 71.6582V63.9941C162.072 63.2441 162.061 62.6406 162.037 62.1836C162.014 61.7266 161.932 61.3633 161.791 61.0938C161.65 60.8125 161.434 60.6074 161.141 60.4785C160.859 60.3379 160.455 60.2207 159.928 60.127V59.1953L164.023 59.0371H165.096V71.6055C165.096 72.6133 165.143 73.3164 165.236 73.7148C165.33 74.1016 165.506 74.4004 165.764 74.6113C166.033 74.8105 166.467 74.9863 167.064 75.1387V76H160.174V75.1387ZM187.314 76H180.389V75.1387C180.846 74.998 181.174 74.875 181.373 74.7695C181.572 74.6641 181.736 74.5176 181.865 74.3301C182.006 74.1426 182.111 73.8555 182.182 73.4688C182.264 73.0703 182.305 72.4727 182.305 71.6758V67.0703C182.305 66.25 182.281 65.5059 182.234 64.8379C182.188 64.1699 182.105 63.625 181.988 63.2031C181.883 62.7695 181.748 62.4355 181.584 62.2012C181.432 61.9551 181.244 61.75 181.021 61.5859C180.811 61.4102 180.564 61.2754 180.283 61.1816C180.002 61.0762 179.633 61.0234 179.176 61.0234C178.719 61.0234 178.285 61.1172 177.875 61.3047C177.465 61.4805 177.014 61.791 176.521 62.2363C176.029 62.6816 175.672 63.1211 175.449 63.5547C175.227 63.9883 175.115 64.4863 175.115 65.0488V71.6055C175.115 72.6133 175.162 73.3164 175.256 73.7148C175.35 74.1016 175.525 74.4004 175.783 74.6113C176.053 74.8105 176.486 74.9863 177.084 75.1387V76H170.193V75.1387C170.65 74.998 170.973 74.875 171.16 74.7695C171.359 74.6641 171.523 74.5176 171.652 74.3301C171.793 74.1426 171.898 73.8555 171.969 73.4688C172.051 73.082 172.092 72.4785 172.092 71.6582V63.9941C172.092 63.2441 172.08 62.6406 172.057 62.1836C172.033 61.7266 171.951 61.3633 171.811 61.0938C171.67 60.8125 171.453 60.6074 171.16 60.4785C170.879 60.3379 170.475 60.2207 169.947 60.127V59.1953L174.061 59.0371H175.133L174.939 61.9023L175.186 61.9727C176.053 61.0938 176.75 60.4668 177.277 60.0918C177.816 59.7168 178.355 59.4297 178.895 59.2305C179.445 59.0195 180.025 58.9141 180.635 58.9141C181.268 58.9141 181.83 58.9902 182.322 59.1426C182.826 59.2832 183.266 59.5059 183.641 59.8105C184.027 60.1152 184.344 60.4961 184.59 60.9531C184.836 61.3984 185.018 61.9375 185.135 62.5703C185.264 63.2031 185.328 64.0059 185.328 64.9785V71.6055C185.328 72.4141 185.352 73 185.398 73.3633C185.445 73.7266 185.527 74.0078 185.645 74.207C185.762 74.4062 185.932 74.5762 186.154 74.7168C186.377 74.8457 186.764 74.9863 187.314 75.1387V76ZM194.803 67.1055C194.803 71.207 195.459 74.5879 196.771 77.248C198.096 79.9082 200.111 81.6895 202.818 82.5918L202.396 83.9453C198.963 83.043 196.332 81.0977 194.504 78.1094C192.676 75.1328 191.762 71.5234 191.762 67.2812C191.762 63.0508 192.676 59.4414 194.504 56.4531C196.344 53.4531 198.975 51.502 202.396 50.5996L202.871 51.9531C200.129 52.8555 198.096 54.6191 196.771 57.2441C195.459 59.8574 194.803 63.1445 194.803 67.1055ZM212.68 65.8574L214.965 62.957C215.211 62.6406 215.41 62.3359 215.562 62.043C215.715 61.7383 215.791 61.4277 215.791 61.1113C215.791 60.8418 215.691 60.6191 215.492 60.4434C215.293 60.2676 214.982 60.1387 214.561 60.0566V59.1953H220.309V60.0566C219.863 60.1855 219.406 60.4375 218.938 60.8125C218.48 61.1875 217.918 61.791 217.25 62.623L213.611 67.0879L217.619 72.4844C218.193 73.2578 218.709 73.8496 219.166 74.2598C219.623 74.6699 220.08 74.9629 220.537 75.1387V76H213.471V75.1387C214.443 75.0215 214.93 74.6582 214.93 74.0488C214.93 73.8027 214.889 73.5684 214.807 73.3457C214.725 73.123 214.572 72.8652 214.35 72.5723L211.801 69.0215L209.094 72.5371C208.895 72.7949 208.736 73.0352 208.619 73.2578C208.514 73.4688 208.461 73.709 208.461 73.9785C208.461 74.2949 208.566 74.5586 208.777 74.7695C209 74.9688 209.346 75.0918 209.814 75.1387V76H203.943V75.1387C204.33 74.998 204.676 74.8223 204.98 74.6113C205.297 74.4004 205.613 74.1309 205.93 73.8027C206.258 73.4629 206.686 72.9707 207.213 72.3262L210.869 67.791L207.125 62.6582C206.609 61.9551 206.199 61.4453 205.895 61.1289C205.59 60.8125 205.309 60.5723 205.051 60.4082C204.793 60.2441 204.535 60.127 204.277 60.0566V59.1953H211.168V60.0566C210.242 60.1973 209.779 60.5605 209.779 61.1465C209.779 61.416 209.838 61.6855 209.955 61.9551C210.084 62.2246 210.277 62.5234 210.535 62.8516L212.68 65.8574ZM229.678 67.1055C229.678 63.1445 229.021 59.8574 227.709 57.2441C226.396 54.6191 224.363 52.8555 221.609 51.9531L222.084 50.5996C225.506 51.502 228.131 53.4531 229.959 56.4531C231.799 59.4414 232.719 63.0508 232.719 67.2812C232.719 71.5234 231.805 75.1328 229.977 78.1094C228.148 81.0977 225.518 83.043 222.084 83.9453L221.662 82.5918C224.369 81.6895 226.379 79.9082 227.691 77.248C229.016 74.5879 229.678 71.207 229.678 67.1055Z" fill="white"/>
<path d="M156.801 14.5996V18.2734H154.568C154.369 17.5117 154.123 16.9141 153.83 16.4805C153.537 16.0352 153.197 15.7246 152.811 15.5488C152.424 15.373 151.943 15.2852 151.369 15.2852C150.549 15.2852 149.822 15.5488 149.189 16.0762C148.557 16.6035 148.053 17.4062 147.678 18.4844C147.314 19.5625 147.133 20.8809 147.133 22.4395C147.133 23.4355 147.203 24.3496 147.344 25.1816C147.484 26.002 147.725 26.7051 148.064 27.291C148.404 27.877 148.855 28.334 149.418 28.6621C149.98 28.9902 150.678 29.1543 151.51 29.1543C152.318 29.1543 153.068 28.9961 153.76 28.6797C154.463 28.3633 155.189 27.8066 155.939 27.0098L156.941 28.1699C156.344 28.8262 155.816 29.3359 155.359 29.6992C154.902 30.0508 154.41 30.3496 153.883 30.5957C153.367 30.8301 152.852 31 152.336 31.1055C151.832 31.2227 151.281 31.2812 150.684 31.2812C148.469 31.2812 146.775 30.5488 145.604 29.084C144.432 27.6074 143.846 25.4805 143.846 22.7031C143.846 20.9688 144.174 19.4336 144.83 18.0977C145.486 16.75 146.406 15.7129 147.59 14.9863C148.773 14.2598 150.139 13.8965 151.686 13.8965C152.646 13.8965 153.531 13.9551 154.34 14.0723C155.16 14.1777 155.98 14.3535 156.801 14.5996ZM167.242 31.2812C164.805 31.2812 162.941 30.5664 161.652 29.1367C160.375 27.6953 159.736 25.5684 159.736 22.7559C159.736 20.8223 160.07 19.1875 160.738 17.8516C161.418 16.5156 162.344 15.5254 163.516 14.8809C164.688 14.2246 166.023 13.8965 167.523 13.8965C170.031 13.8965 171.93 14.6289 173.219 16.0938C174.508 17.5469 175.152 19.6387 175.152 22.3691C175.152 24.3145 174.83 25.9551 174.186 27.291C173.541 28.627 172.627 29.6289 171.443 30.2969C170.26 30.9531 168.859 31.2812 167.242 31.2812ZM163.059 22.3867C163.059 24.8008 163.439 26.6582 164.201 27.959C164.975 29.248 166.076 29.8926 167.506 29.8926C168.291 29.8926 168.959 29.7051 169.51 29.3301C170.061 28.9434 170.506 28.4277 170.846 27.7832C171.197 27.1387 171.449 26.3945 171.602 25.5508C171.754 24.6953 171.83 23.8047 171.83 22.8789C171.83 21.1562 171.637 19.7266 171.25 18.5898C170.875 17.4531 170.359 16.6211 169.703 16.0938C169.047 15.5547 168.297 15.2852 167.453 15.2852C166.035 15.2852 164.945 15.9004 164.184 17.1309C163.434 18.3613 163.059 20.1133 163.059 22.3867ZM190.498 18.0449H188.811C188.553 17.3418 188.248 16.791 187.896 16.3926C187.545 15.9824 187.146 15.6953 186.701 15.5312C186.256 15.3672 185.711 15.2852 185.066 15.2852C184.129 15.2852 183.379 15.5078 182.816 15.9531C182.266 16.3867 181.99 16.9844 181.99 17.7461C181.99 18.2852 182.102 18.7305 182.324 19.082C182.547 19.4336 182.893 19.7617 183.361 20.0664C183.83 20.3711 184.656 20.7754 185.84 21.2793C187.035 21.7949 187.955 22.2695 188.6 22.7031C189.256 23.1367 189.766 23.6406 190.129 24.2148C190.504 24.7891 190.691 25.4746 190.691 26.2715C190.691 27.1973 190.533 27.9766 190.217 28.6094C189.9 29.2422 189.455 29.7578 188.881 30.1562C188.307 30.5547 187.621 30.8418 186.824 31.0176C186.039 31.1934 185.178 31.2812 184.24 31.2812C183.256 31.2812 182.301 31.2051 181.375 31.0527C180.449 30.9121 179.547 30.7246 178.668 30.4902V26.8164H180.391C180.707 27.8945 181.176 28.6797 181.797 29.1719C182.418 29.6523 183.273 29.8926 184.363 29.8926C184.785 29.8926 185.195 29.8516 185.594 29.7695C186.004 29.6758 186.367 29.5293 186.684 29.3301C187 29.1191 187.252 28.8379 187.439 28.4863C187.627 28.1348 187.721 27.6953 187.721 27.168C187.721 26.5703 187.604 26.084 187.369 25.709C187.135 25.334 186.771 24.9941 186.279 24.6895C185.787 24.373 184.92 23.9512 183.678 23.4238C182.611 22.9785 181.756 22.5449 181.111 22.123C180.467 21.7012 179.957 21.2031 179.582 20.6289C179.219 20.0547 179.037 19.375 179.037 18.5898C179.037 17.6289 179.295 16.7969 179.811 16.0938C180.338 15.3789 181.094 14.834 182.078 14.459C183.062 14.084 184.217 13.8965 185.541 13.8965C186.314 13.8965 187.059 13.9375 187.773 14.0195C188.5 14.0898 189.408 14.2363 190.498 14.459V18.0449ZM198.689 22.1055C198.689 26.207 199.346 29.5879 200.658 32.248C201.982 34.9082 203.998 36.6895 206.705 37.5918L206.283 38.9453C202.85 38.043 200.219 36.0977 198.391 33.1094C196.562 30.1328 195.648 26.5234 195.648 22.2812C195.648 18.0508 196.562 14.4414 198.391 11.4531C200.23 8.45312 202.861 6.50195 206.283 5.59961L206.758 6.95312C204.016 7.85547 201.982 9.61914 200.658 12.2441C199.346 14.8574 198.689 18.1445 198.689 22.1055ZM216.566 20.8574L218.852 17.957C219.098 17.6406 219.297 17.3359 219.449 17.043C219.602 16.7383 219.678 16.4277 219.678 16.1113C219.678 15.8418 219.578 15.6191 219.379 15.4434C219.18 15.2676 218.869 15.1387 218.447 15.0566V14.1953H224.195V15.0566C223.75 15.1855 223.293 15.4375 222.824 15.8125C222.367 16.1875 221.805 16.791 221.137 17.623L217.498 22.0879L221.506 27.4844C222.08 28.2578 222.596 28.8496 223.053 29.2598C223.51 29.6699 223.967 29.9629 224.424 30.1387V31H217.357V30.1387C218.33 30.0215 218.816 29.6582 218.816 29.0488C218.816 28.8027 218.775 28.5684 218.693 28.3457C218.611 28.123 218.459 27.8652 218.236 27.5723L215.688 24.0215L212.98 27.5371C212.781 27.7949 212.623 28.0352 212.506 28.2578C212.4 28.4688 212.348 28.709 212.348 28.9785C212.348 29.2949 212.453 29.5586 212.664 29.7695C212.887 29.9688 213.232 30.0918 213.701 30.1387V31H207.83V30.1387C208.217 29.998 208.562 29.8223 208.867 29.6113C209.184 29.4004 209.5 29.1309 209.816 28.8027C210.145 28.4629 210.572 27.9707 211.1 27.3262L214.756 22.791L211.012 17.6582C210.496 16.9551 210.086 16.4453 209.781 16.1289C209.477 15.8125 209.195 15.5723 208.938 15.4082C208.68 15.2441 208.422 15.127 208.164 15.0566V14.1953H215.055V15.0566C214.129 15.1973 213.666 15.5605 213.666 16.1465C213.666 16.416 213.725 16.6855 213.842 16.9551C213.971 17.2246 214.164 17.5234 214.422 17.8516L216.566 20.8574ZM233.564 22.1055C233.564 18.1445 232.908 14.8574 231.596 12.2441C230.283 9.61914 228.25 7.85547 225.496 6.95312L225.971 5.59961C229.393 6.50195 232.018 8.45312 233.846 11.4531C235.686 14.4414 236.605 18.0508 236.605 22.2812C236.605 26.5234 235.691 30.1328 233.863 33.1094C232.035 36.0977 229.404 38.043 225.971 38.9453L225.549 37.5918C228.256 36.6895 230.266 34.9082 231.578 32.248C232.902 29.5879 233.564 26.207 233.564 22.1055Z" fill="white"/>
<line x1="140" y1="44.5" x2="240" y2="44.5" stroke="white"/>
</svg>
