<svg width="329" height="42" viewBox="0 0 329 42" fill="none" xmlns="http://www.w3.org/2000/svg">
<path d="M12.2168 26.4121C12.2168 27.0918 12.252 27.6074 12.3223 27.959C12.4043 28.2988 12.5391 28.5801 12.7266 28.8027C12.9258 29.0137 13.207 29.1836 13.5703 29.3125C13.9336 29.4297 14.3906 29.5234 14.9414 29.5938C15.4922 29.6523 16.2188 29.6934 17.1211 29.7168V31H4.13086V29.7168C5.43164 29.6582 6.35742 29.582 6.9082 29.4883C7.4707 29.3828 7.89844 29.2305 8.19141 29.0312C8.48438 28.832 8.69531 28.5508 8.82422 28.1875C8.96484 27.8242 9.03516 27.2324 9.03516 26.4121V12.1562C9.03516 11.6875 8.95312 11.3477 8.78906 11.1367C8.625 10.9141 8.38477 10.8027 8.06836 10.8027C7.69336 10.8027 7.16016 10.9961 6.46875 11.3828C5.77734 11.7695 4.92188 12.3027 3.90234 12.9824L3.12891 11.6289L11.3555 6.72461H12.3223C12.252 7.84961 12.2168 9.4082 12.2168 11.4004V26.4121ZM42.5742 21.877V32.002H40.0781V21.877H30.498V19.5391H40.0781V9.41406H42.5742V19.5391H52.1543V21.877H42.5742ZM63.3691 15.0742C63.9551 14.9805 64.4297 14.8164 64.793 14.582C65.1562 14.3477 65.4375 14.0488 65.6367 13.6855C65.8477 13.3105 66.0117 12.8477 66.1289 12.2969C66.2461 11.7344 66.3691 10.9199 66.498 9.85352H68.9941V14.1953H74.6719V15.9707H68.9941V23.793C68.9941 24.9297 69.041 25.8379 69.1348 26.5176C69.2285 27.1855 69.4043 27.7129 69.6621 28.0996C69.9199 28.4746 70.2129 28.7441 70.541 28.9082C70.8691 29.0723 71.291 29.1543 71.8066 29.1543C72.2754 29.1543 72.7148 29.0605 73.125 28.873C73.5352 28.6738 73.9395 28.3926 74.3379 28.0293L75.1289 28.9785C74.2969 29.7871 73.5059 30.373 72.7559 30.7363C72.0176 31.0996 71.25 31.2812 70.4531 31.2812C68.9414 31.2812 67.8164 30.8359 67.0781 29.9453C66.3398 29.043 65.9707 27.6367 65.9707 25.7266V15.9707H63.3691V15.0742ZM86.7832 28.4863L86.5195 28.416C85.5 29.459 84.5391 30.1973 83.6367 30.6309C82.7461 31.0645 81.7969 31.2812 80.7891 31.2812C79.8984 31.2812 79.1133 31.1113 78.4336 30.7715C77.7539 30.4199 77.2324 29.9336 76.8691 29.3125C76.5059 28.6797 76.3242 27.9531 76.3242 27.1328C76.3242 25.4219 77.168 24.1035 78.8555 23.1777C80.5547 22.2402 83.0977 21.6953 86.4844 21.543V20.4004C86.4844 19.1816 86.3672 18.2207 86.1328 17.5176C85.8984 16.8145 85.5293 16.2988 85.0254 15.9707C84.5215 15.6426 83.8477 15.4785 83.0039 15.4785C82.0898 15.4785 81.3516 15.7188 80.7891 16.1992C80.2383 16.6797 79.8223 17.4004 79.541 18.3613H77.2383V16.0762C78.3633 15.4902 79.3008 15.0625 80.0508 14.793C80.8008 14.5117 81.5508 14.2949 82.3008 14.1426C83.0508 13.9785 83.8125 13.8965 84.5859 13.8965C85.7461 13.8965 86.6777 14.084 87.3809 14.459C88.084 14.8223 88.6113 15.3848 88.9629 16.1465C89.3145 16.9082 89.4902 18.0566 89.4902 19.5918V25.709C89.4902 26.5762 89.4961 27.1914 89.5078 27.5547C89.5195 27.9062 89.5547 28.2344 89.6133 28.5391C89.6719 28.8438 89.7598 29.0898 89.877 29.2773C89.9941 29.4531 90.1641 29.6055 90.3867 29.7344C90.6211 29.8633 90.9961 29.998 91.5117 30.1387V31H86.6953L86.7832 28.4863ZM86.4844 22.9844C84.1055 23.0078 82.3242 23.3242 81.1406 23.9336C79.957 24.543 79.3652 25.4629 79.3652 26.6934C79.3652 27.3613 79.5 27.8887 79.7695 28.2754C80.0391 28.6621 80.3789 28.9316 80.7891 29.084C81.1992 29.2246 81.6855 29.2949 82.248 29.2949C83.0449 29.2949 83.7656 29.1016 84.4102 28.7148C85.0664 28.3281 85.5762 27.8359 85.9395 27.2383C86.3027 26.6406 86.4844 26.0488 86.4844 25.4629V22.9844ZM111.322 31H104.396V30.1387C104.854 29.998 105.182 29.875 105.381 29.7695C105.58 29.6641 105.744 29.5176 105.873 29.3301C106.014 29.1426 106.119 28.8555 106.189 28.4688C106.271 28.0703 106.312 27.4727 106.312 26.6758V22.0703C106.312 21.25 106.289 20.5059 106.242 19.8379C106.195 19.1699 106.113 18.625 105.996 18.2031C105.891 17.7695 105.756 17.4355 105.592 17.2012C105.439 16.9551 105.252 16.75 105.029 16.5859C104.818 16.4102 104.572 16.2754 104.291 16.1816C104.01 16.0762 103.641 16.0234 103.184 16.0234C102.727 16.0234 102.293 16.1172 101.883 16.3047C101.473 16.4805 101.021 16.791 100.529 17.2363C100.037 17.6816 99.6797 18.1211 99.457 18.5547C99.2344 18.9883 99.123 19.4863 99.123 20.0488V26.6055C99.123 27.6133 99.1699 28.3164 99.2637 28.7148C99.3574 29.1016 99.5332 29.4004 99.791 29.6113C100.061 29.8105 100.494 29.9863 101.092 30.1387V31H94.2012V30.1387C94.6582 29.998 94.9805 29.875 95.168 29.7695C95.3672 29.6641 95.5312 29.5176 95.6602 29.3301C95.8008 29.1426 95.9062 28.8555 95.9766 28.4688C96.0586 28.082 96.0996 27.4785 96.0996 26.6582V18.9941C96.0996 18.2441 96.0879 17.6406 96.0645 17.1836C96.041 16.7266 95.959 16.3633 95.8184 16.0938C95.6777 15.8125 95.4609 15.6074 95.168 15.4785C94.8867 15.3379 94.4824 15.2207 93.9551 15.127V14.1953L98.0684 14.0371H99.1406L98.9473 16.9023L99.1934 16.9727C100.061 16.0938 100.758 15.4668 101.285 15.0918C101.824 14.7168 102.363 14.4297 102.902 14.2305C103.453 14.0195 104.033 13.9141 104.643 13.9141C105.275 13.9141 105.838 13.9902 106.33 14.1426C106.834 14.2832 107.273 14.5059 107.648 14.8105C108.035 15.1152 108.352 15.4961 108.598 15.9531C108.844 16.3984 109.025 16.9375 109.143 17.5703C109.271 18.2031 109.336 19.0059 109.336 19.9785V26.6055C109.336 27.4141 109.359 28 109.406 28.3633C109.453 28.7266 109.535 29.0078 109.652 29.207C109.77 29.4062 109.939 29.5762 110.162 29.7168C110.385 29.8457 110.771 29.9863 111.322 30.1387V31ZM121.5 14.4414C121.91 14.4414 122.221 14.4238 122.432 14.3887C122.654 14.3418 122.83 14.2773 122.959 14.1953C123.088 14.1133 123.193 14.0078 123.275 13.8789C123.369 13.75 123.504 13.4688 123.68 13.0352H124.893L124.646 16.4277H114.346V15.7598C114.744 14.9043 115.283 14.0605 115.963 13.2285C116.643 12.3965 117.439 11.541 118.354 10.6621C119.443 9.61914 120.217 8.83398 120.674 8.30664C121.131 7.76758 121.471 7.26367 121.693 6.79492C121.916 6.31445 122.027 5.83398 122.027 5.35352C122.027 4.55664 121.799 3.92969 121.342 3.47266C120.896 3.01562 120.252 2.78711 119.408 2.78711C118.682 2.78711 118.061 2.98047 117.545 3.36719C117.041 3.75391 116.654 4.32227 116.385 5.07227H114.715V2.69922C115.758 2.27734 116.719 1.97852 117.598 1.80273C118.477 1.61523 119.256 1.52148 119.936 1.52148C120.861 1.52148 121.623 1.62109 122.221 1.82031C122.83 2.01953 123.316 2.2832 123.68 2.61133C124.043 2.92773 124.295 3.30273 124.436 3.73633C124.588 4.16992 124.664 4.61523 124.664 5.07227C124.664 5.64648 124.547 6.18555 124.312 6.68945C124.078 7.18164 123.691 7.7207 123.152 8.30664C122.625 8.88086 121.682 9.7832 120.322 11.0137C118.869 12.3379 117.814 13.4805 117.158 14.4414H121.5ZM133.471 22.1055C133.471 26.207 134.127 29.5879 135.439 32.248C136.764 34.9082 138.779 36.6895 141.486 37.5918L141.064 38.9453C137.631 38.043 135 36.0977 133.172 33.1094C131.344 30.1328 130.43 26.5234 130.43 22.2812C130.43 18.0508 131.344 14.4414 133.172 11.4531C135.012 8.45312 137.643 6.50195 141.064 5.59961L141.539 6.95312C138.797 7.85547 136.764 9.61914 135.439 12.2441C134.127 14.8574 133.471 18.1445 133.471 22.1055ZM151.348 20.8574L153.633 17.957C153.879 17.6406 154.078 17.3359 154.23 17.043C154.383 16.7383 154.459 16.4277 154.459 16.1113C154.459 15.8418 154.359 15.6191 154.16 15.4434C153.961 15.2676 153.65 15.1387 153.229 15.0566V14.1953H158.977V15.0566C158.531 15.1855 158.074 15.4375 157.605 15.8125C157.148 16.1875 156.586 16.791 155.918 17.623L152.279 22.0879L156.287 27.4844C156.861 28.2578 157.377 28.8496 157.834 29.2598C158.291 29.6699 158.748 29.9629 159.205 30.1387V31H152.139V30.1387C153.111 30.0215 153.598 29.6582 153.598 29.0488C153.598 28.8027 153.557 28.5684 153.475 28.3457C153.393 28.123 153.24 27.8652 153.018 27.5723L150.469 24.0215L147.762 27.5371C147.562 27.7949 147.404 28.0352 147.287 28.2578C147.182 28.4688 147.129 28.709 147.129 28.9785C147.129 29.2949 147.234 29.5586 147.445 29.7695C147.668 29.9688 148.014 30.0918 148.482 30.1387V31H142.611V30.1387C142.998 29.998 143.344 29.8223 143.648 29.6113C143.965 29.4004 144.281 29.1309 144.598 28.8027C144.926 28.4629 145.354 27.9707 145.881 27.3262L149.537 22.791L145.793 17.6582C145.277 16.9551 144.867 16.4453 144.562 16.1289C144.258 15.8125 143.977 15.5723 143.719 15.4082C143.461 15.2441 143.203 15.127 142.945 15.0566V14.1953H149.836V15.0566C148.91 15.1973 148.447 15.5605 148.447 16.1465C148.447 16.416 148.506 16.6855 148.623 16.9551C148.752 17.2246 148.945 17.5234 149.203 17.8516L151.348 20.8574ZM168.346 22.1055C168.346 18.1445 167.689 14.8574 166.377 12.2441C165.064 9.61914 163.031 7.85547 160.277 6.95312L160.752 5.59961C164.174 6.50195 166.799 8.45312 168.627 11.4531C170.467 14.4414 171.387 18.0508 171.387 22.2812C171.387 26.5234 170.473 30.1328 168.645 33.1094C166.816 36.0977 164.186 38.043 160.752 38.9453L160.33 37.5918C163.037 36.6895 165.047 34.9082 166.359 32.248C167.684 29.5879 168.346 26.207 168.346 22.1055ZM185.115 18.2383V15.9004H206.771V18.2383H185.115ZM185.115 25.5332V23.1953H206.771V25.5332H185.115ZM230.818 18.0449H229.131C228.873 17.3418 228.568 16.791 228.217 16.3926C227.865 15.9824 227.467 15.6953 227.021 15.5312C226.576 15.3672 226.031 15.2852 225.387 15.2852C224.449 15.2852 223.699 15.5078 223.137 15.9531C222.586 16.3867 222.311 16.9844 222.311 17.7461C222.311 18.2852 222.422 18.7305 222.645 19.082C222.867 19.4336 223.213 19.7617 223.682 20.0664C224.15 20.3711 224.977 20.7754 226.16 21.2793C227.355 21.7949 228.275 22.2695 228.92 22.7031C229.576 23.1367 230.086 23.6406 230.449 24.2148C230.824 24.7891 231.012 25.4746 231.012 26.2715C231.012 27.1973 230.854 27.9766 230.537 28.6094C230.221 29.2422 229.775 29.7578 229.201 30.1562C228.627 30.5547 227.941 30.8418 227.145 31.0176C226.359 31.1934 225.498 31.2812 224.561 31.2812C223.576 31.2812 222.621 31.2051 221.695 31.0527C220.77 30.9121 219.867 30.7246 218.988 30.4902V26.8164H220.711C221.027 27.8945 221.496 28.6797 222.117 29.1719C222.738 29.6523 223.594 29.8926 224.684 29.8926C225.105 29.8926 225.516 29.8516 225.914 29.7695C226.324 29.6758 226.688 29.5293 227.004 29.3301C227.32 29.1191 227.572 28.8379 227.76 28.4863C227.947 28.1348 228.041 27.6953 228.041 27.168C228.041 26.5703 227.924 26.084 227.689 25.709C227.455 25.334 227.092 24.9941 226.6 24.6895C226.107 24.373 225.24 23.9512 223.998 23.4238C222.932 22.9785 222.076 22.5449 221.432 22.123C220.787 21.7012 220.277 21.2031 219.902 20.6289C219.539 20.0547 219.357 19.375 219.357 18.5898C219.357 17.6289 219.615 16.7969 220.131 16.0938C220.658 15.3789 221.414 14.834 222.398 14.459C223.383 14.084 224.537 13.8965 225.861 13.8965C226.635 13.8965 227.379 13.9375 228.094 14.0195C228.82 14.0898 229.729 14.2363 230.818 14.459V18.0449ZM248.555 28.0117C247.805 28.7969 247.113 29.4121 246.48 29.8574C245.859 30.3027 245.174 30.6543 244.424 30.9121C243.674 31.1582 242.848 31.2812 241.945 31.2812C239.531 31.2812 237.709 30.5605 236.479 29.1191C235.248 27.666 234.633 25.5273 234.633 22.7031C234.633 20.957 234.943 19.416 235.564 18.0801C236.197 16.7441 237.094 15.7129 238.254 14.9863C239.414 14.2598 240.75 13.8965 242.262 13.8965C243.445 13.8965 244.453 14.084 245.285 14.459C246.117 14.834 246.779 15.3496 247.271 16.0059C247.775 16.6504 248.162 17.4707 248.432 18.4668C248.713 19.4512 248.871 20.7402 248.906 22.334H237.832V22.6504C237.832 24.0332 237.984 25.1992 238.289 26.1484C238.605 27.0859 239.115 27.8242 239.818 28.3633C240.533 28.8906 241.459 29.1543 242.596 29.1543C243.557 29.1543 244.418 28.9785 245.18 28.627C245.953 28.2637 246.721 27.6777 247.482 26.8691L248.555 28.0117ZM245.602 20.875C245.531 19.6094 245.373 18.5781 245.127 17.7812C244.881 16.9727 244.512 16.3574 244.02 15.9355C243.527 15.502 242.883 15.2852 242.086 15.2852C240.879 15.2852 239.912 15.7715 239.186 16.7441C238.471 17.7051 238.049 19.082 237.92 20.875H245.602ZM265.184 14.5996V18.2734H262.951C262.752 17.5117 262.506 16.9141 262.213 16.4805C261.92 16.0352 261.58 15.7246 261.193 15.5488C260.807 15.373 260.326 15.2852 259.752 15.2852C258.932 15.2852 258.205 15.5488 257.572 16.0762C256.939 16.6035 256.436 17.4062 256.061 18.4844C255.697 19.5625 255.516 20.8809 255.516 22.4395C255.516 23.4355 255.586 24.3496 255.727 25.1816C255.867 26.002 256.107 26.7051 256.447 27.291C256.787 27.877 257.238 28.334 257.801 28.6621C258.363 28.9902 259.061 29.1543 259.893 29.1543C260.701 29.1543 261.451 28.9961 262.143 28.6797C262.846 28.3633 263.572 27.8066 264.322 27.0098L265.324 28.1699C264.727 28.8262 264.199 29.3359 263.742 29.6992C263.285 30.0508 262.793 30.3496 262.266 30.5957C261.75 30.8301 261.234 31 260.719 31.1055C260.215 31.2227 259.664 31.2812 259.066 31.2812C256.852 31.2812 255.158 30.5488 253.986 29.084C252.814 27.6074 252.229 25.4805 252.229 22.7031C252.229 20.9688 252.557 19.4336 253.213 18.0977C253.869 16.75 254.789 15.7129 255.973 14.9863C257.156 14.2598 258.521 13.8965 260.068 13.8965C261.029 13.8965 261.914 13.9551 262.723 14.0723C263.543 14.1777 264.363 14.3535 265.184 14.5996ZM275.168 14.4414C275.578 14.4414 275.889 14.4238 276.1 14.3887C276.322 14.3418 276.498 14.2773 276.627 14.1953C276.756 14.1133 276.861 14.0078 276.943 13.8789C277.037 13.75 277.172 13.4688 277.348 13.0352H278.561L278.314 16.4277H268.014V15.7598C268.412 14.9043 268.951 14.0605 269.631 13.2285C270.311 12.3965 271.107 11.541 272.021 10.6621C273.111 9.61914 273.885 8.83398 274.342 8.30664C274.799 7.76758 275.139 7.26367 275.361 6.79492C275.584 6.31445 275.695 5.83398 275.695 5.35352C275.695 4.55664 275.467 3.92969 275.01 3.47266C274.564 3.01562 273.92 2.78711 273.076 2.78711C272.35 2.78711 271.729 2.98047 271.213 3.36719C270.709 3.75391 270.322 4.32227 270.053 5.07227H268.383V2.69922C269.426 2.27734 270.387 1.97852 271.266 1.80273C272.145 1.61523 272.924 1.52148 273.604 1.52148C274.529 1.52148 275.291 1.62109 275.889 1.82031C276.498 2.01953 276.984 2.2832 277.348 2.61133C277.711 2.92773 277.963 3.30273 278.104 3.73633C278.256 4.16992 278.332 4.61523 278.332 5.07227C278.332 5.64648 278.215 6.18555 277.98 6.68945C277.746 7.18164 277.359 7.7207 276.82 8.30664C276.293 8.88086 275.35 9.7832 273.99 11.0137C272.537 12.3379 271.482 13.4805 270.826 14.4414H275.168ZM287.139 22.1055C287.139 26.207 287.795 29.5879 289.107 32.248C290.432 34.9082 292.447 36.6895 295.154 37.5918L294.732 38.9453C291.299 38.043 288.668 36.0977 286.84 33.1094C285.012 30.1328 284.098 26.5234 284.098 22.2812C284.098 18.0508 285.012 14.4414 286.84 11.4531C288.68 8.45312 291.311 6.50195 294.732 5.59961L295.207 6.95312C292.465 7.85547 290.432 9.61914 289.107 12.2441C287.795 14.8574 287.139 18.1445 287.139 22.1055ZM305.016 20.8574L307.301 17.957C307.547 17.6406 307.746 17.3359 307.898 17.043C308.051 16.7383 308.127 16.4277 308.127 16.1113C308.127 15.8418 308.027 15.6191 307.828 15.4434C307.629 15.2676 307.318 15.1387 306.896 15.0566V14.1953H312.645V15.0566C312.199 15.1855 311.742 15.4375 311.273 15.8125C310.816 16.1875 310.254 16.791 309.586 17.623L305.947 22.0879L309.955 27.4844C310.529 28.2578 311.045 28.8496 311.502 29.2598C311.959 29.6699 312.416 29.9629 312.873 30.1387V31H305.807V30.1387C306.779 30.0215 307.266 29.6582 307.266 29.0488C307.266 28.8027 307.225 28.5684 307.143 28.3457C307.061 28.123 306.908 27.8652 306.686 27.5723L304.137 24.0215L301.43 27.5371C301.23 27.7949 301.072 28.0352 300.955 28.2578C300.85 28.4688 300.797 28.709 300.797 28.9785C300.797 29.2949 300.902 29.5586 301.113 29.7695C301.336 29.9688 301.682 30.0918 302.15 30.1387V31H296.279V30.1387C296.666 29.998 297.012 29.8223 297.316 29.6113C297.633 29.4004 297.949 29.1309 298.266 28.8027C298.594 28.4629 299.021 27.9707 299.549 27.3262L303.205 22.791L299.461 17.6582C298.945 16.9551 298.535 16.4453 298.23 16.1289C297.926 15.8125 297.645 15.5723 297.387 15.4082C297.129 15.2441 296.871 15.127 296.613 15.0566V14.1953H303.504V15.0566C302.578 15.1973 302.115 15.5605 302.115 16.1465C302.115 16.416 302.174 16.6855 302.291 16.9551C302.42 17.2246 302.613 17.5234 302.871 17.8516L305.016 20.8574ZM322.014 22.1055C322.014 18.1445 321.357 14.8574 320.045 12.2441C318.732 9.61914 316.699 7.85547 313.945 6.95312L314.42 5.59961C317.842 6.50195 320.467 8.45312 322.295 11.4531C324.135 14.4414 325.055 18.0508 325.055 22.2812C325.055 26.5234 324.141 30.1328 322.312 33.1094C320.484 36.0977 317.854 38.043 314.42 38.9453L313.998 37.5918C316.705 36.6895 318.715 34.9082 320.027 32.248C321.352 29.5879 322.014 26.207 322.014 22.1055Z" fill="white"/>
</svg>
