<svg width="324" height="42" viewBox="0 0 324 42" fill="none" xmlns="http://www.w3.org/2000/svg">
<path d="M12.2168 26.4121C12.2168 27.0918 12.252 27.6074 12.3223 27.959C12.4043 28.2988 12.5391 28.5801 12.7266 28.8027C12.9258 29.0137 13.207 29.1836 13.5703 29.3125C13.9336 29.4297 14.3906 29.5234 14.9414 29.5938C15.4922 29.6523 16.2188 29.6934 17.1211 29.7168V31H4.13086V29.7168C5.43164 29.6582 6.35742 29.582 6.9082 29.4883C7.4707 29.3828 7.89844 29.2305 8.19141 29.0312C8.48438 28.832 8.69531 28.5508 8.82422 28.1875C8.96484 27.8242 9.03516 27.2324 9.03516 26.4121V12.1562C9.03516 11.6875 8.95312 11.3477 8.78906 11.1367C8.625 10.9141 8.38477 10.8027 8.06836 10.8027C7.69336 10.8027 7.16016 10.9961 6.46875 11.3828C5.77734 11.7695 4.92188 12.3027 3.90234 12.9824L3.12891 11.6289L11.3555 6.72461H12.3223C12.252 7.84961 12.2168 9.4082 12.2168 11.4004V26.4121ZM42.5742 21.877V32.002H40.0781V21.877H30.498V19.5391H40.0781V9.41406H42.5742V19.5391H52.1543V21.877H42.5742ZM77.5195 14.5996V18.2734H75.2871C75.0879 17.5117 74.8418 16.9141 74.5488 16.4805C74.2559 16.0352 73.916 15.7246 73.5293 15.5488C73.1426 15.373 72.6621 15.2852 72.0879 15.2852C71.2676 15.2852 70.541 15.5488 69.9082 16.0762C69.2754 16.6035 68.7715 17.4062 68.3965 18.4844C68.0332 19.5625 67.8516 20.8809 67.8516 22.4395C67.8516 23.4355 67.9219 24.3496 68.0625 25.1816C68.2031 26.002 68.4434 26.7051 68.7832 27.291C69.123 27.877 69.5742 28.334 70.1367 28.6621C70.6992 28.9902 71.3965 29.1543 72.2285 29.1543C73.0371 29.1543 73.7871 28.9961 74.4785 28.6797C75.1816 28.3633 75.9082 27.8066 76.6582 27.0098L77.6602 28.1699C77.0625 28.8262 76.5352 29.3359 76.0781 29.6992C75.6211 30.0508 75.1289 30.3496 74.6016 30.5957C74.0859 30.8301 73.5703 31 73.0547 31.1055C72.5508 31.2227 72 31.2812 71.4023 31.2812C69.1875 31.2812 67.4941 30.5488 66.3223 29.084C65.1504 27.6074 64.5645 25.4805 64.5645 22.7031C64.5645 20.9688 64.8926 19.4336 65.5488 18.0977C66.2051 16.75 67.125 15.7129 68.3086 14.9863C69.4922 14.2598 70.8574 13.8965 72.4043 13.8965C73.3652 13.8965 74.25 13.9551 75.0586 14.0723C75.8789 14.1777 76.6992 14.3535 77.5195 14.5996ZM87.9609 31.2812C85.5234 31.2812 83.6602 30.5664 82.3711 29.1367C81.0938 27.6953 80.4551 25.5684 80.4551 22.7559C80.4551 20.8223 80.7891 19.1875 81.457 17.8516C82.1367 16.5156 83.0625 15.5254 84.2344 14.8809C85.4062 14.2246 86.7422 13.8965 88.2422 13.8965C90.75 13.8965 92.6484 14.6289 93.9375 16.0938C95.2266 17.5469 95.8711 19.6387 95.8711 22.3691C95.8711 24.3145 95.5488 25.9551 94.9043 27.291C94.2598 28.627 93.3457 29.6289 92.1621 30.2969C90.9785 30.9531 89.5781 31.2812 87.9609 31.2812ZM83.7773 22.3867C83.7773 24.8008 84.1582 26.6582 84.9199 27.959C85.6934 29.248 86.7949 29.8926 88.2246 29.8926C89.0098 29.8926 89.6777 29.7051 90.2285 29.3301C90.7793 28.9434 91.2246 28.4277 91.5645 27.7832C91.916 27.1387 92.168 26.3945 92.3203 25.5508C92.4727 24.6953 92.5488 23.8047 92.5488 22.8789C92.5488 21.1562 92.3555 19.7266 91.9688 18.5898C91.5938 17.4531 91.0781 16.6211 90.4219 16.0938C89.7656 15.5547 89.0156 15.2852 88.1719 15.2852C86.7539 15.2852 85.6641 15.9004 84.9023 17.1309C84.1523 18.3613 83.7773 20.1133 83.7773 22.3867ZM98.3848 15.0742C98.9707 14.9805 99.4453 14.8164 99.8086 14.582C100.172 14.3477 100.453 14.0488 100.652 13.6855C100.863 13.3105 101.027 12.8477 101.145 12.2969C101.262 11.7344 101.385 10.9199 101.514 9.85352H104.01V14.1953H109.688V15.9707H104.01V23.793C104.01 24.9297 104.057 25.8379 104.15 26.5176C104.244 27.1855 104.42 27.7129 104.678 28.0996C104.936 28.4746 105.229 28.7441 105.557 28.9082C105.885 29.0723 106.307 29.1543 106.822 29.1543C107.291 29.1543 107.73 29.0605 108.141 28.873C108.551 28.6738 108.955 28.3926 109.354 28.0293L110.145 28.9785C109.312 29.7871 108.521 30.373 107.771 30.7363C107.033 31.0996 106.266 31.2812 105.469 31.2812C103.957 31.2812 102.832 30.8359 102.094 29.9453C101.355 29.043 100.986 27.6367 100.986 25.7266V15.9707H98.3848V15.0742ZM118.828 14.4414C119.238 14.4414 119.549 14.4238 119.76 14.3887C119.982 14.3418 120.158 14.2773 120.287 14.1953C120.416 14.1133 120.521 14.0078 120.604 13.8789C120.697 13.75 120.832 13.4688 121.008 13.0352H122.221L121.975 16.4277H111.674V15.7598C112.072 14.9043 112.611 14.0605 113.291 13.2285C113.971 12.3965 114.768 11.541 115.682 10.6621C116.771 9.61914 117.545 8.83398 118.002 8.30664C118.459 7.76758 118.799 7.26367 119.021 6.79492C119.244 6.31445 119.355 5.83398 119.355 5.35352C119.355 4.55664 119.127 3.92969 118.67 3.47266C118.225 3.01562 117.58 2.78711 116.736 2.78711C116.01 2.78711 115.389 2.98047 114.873 3.36719C114.369 3.75391 113.982 4.32227 113.713 5.07227H112.043V2.69922C113.086 2.27734 114.047 1.97852 114.926 1.80273C115.805 1.61523 116.584 1.52148 117.264 1.52148C118.189 1.52148 118.951 1.62109 119.549 1.82031C120.158 2.01953 120.645 2.2832 121.008 2.61133C121.371 2.92773 121.623 3.30273 121.764 3.73633C121.916 4.16992 121.992 4.61523 121.992 5.07227C121.992 5.64648 121.875 6.18555 121.641 6.68945C121.406 7.18164 121.02 7.7207 120.48 8.30664C119.953 8.88086 119.01 9.7832 117.65 11.0137C116.197 12.3379 115.143 13.4805 114.486 14.4414H118.828ZM130.799 22.1055C130.799 26.207 131.455 29.5879 132.768 32.248C134.092 34.9082 136.107 36.6895 138.814 37.5918L138.393 38.9453C134.959 38.043 132.328 36.0977 130.5 33.1094C128.672 30.1328 127.758 26.5234 127.758 22.2812C127.758 18.0508 128.672 14.4414 130.5 11.4531C132.34 8.45312 134.971 6.50195 138.393 5.59961L138.867 6.95312C136.125 7.85547 134.092 9.61914 132.768 12.2441C131.455 14.8574 130.799 18.1445 130.799 22.1055ZM148.676 20.8574L150.961 17.957C151.207 17.6406 151.406 17.3359 151.559 17.043C151.711 16.7383 151.787 16.4277 151.787 16.1113C151.787 15.8418 151.688 15.6191 151.488 15.4434C151.289 15.2676 150.979 15.1387 150.557 15.0566V14.1953H156.305V15.0566C155.859 15.1855 155.402 15.4375 154.934 15.8125C154.477 16.1875 153.914 16.791 153.246 17.623L149.607 22.0879L153.615 27.4844C154.189 28.2578 154.705 28.8496 155.162 29.2598C155.619 29.6699 156.076 29.9629 156.533 30.1387V31H149.467V30.1387C150.439 30.0215 150.926 29.6582 150.926 29.0488C150.926 28.8027 150.885 28.5684 150.803 28.3457C150.721 28.123 150.568 27.8652 150.346 27.5723L147.797 24.0215L145.09 27.5371C144.891 27.7949 144.732 28.0352 144.615 28.2578C144.51 28.4688 144.457 28.709 144.457 28.9785C144.457 29.2949 144.562 29.5586 144.773 29.7695C144.996 29.9688 145.342 30.0918 145.811 30.1387V31H139.939V30.1387C140.326 29.998 140.672 29.8223 140.977 29.6113C141.293 29.4004 141.609 29.1309 141.926 28.8027C142.254 28.4629 142.682 27.9707 143.209 27.3262L146.865 22.791L143.121 17.6582C142.605 16.9551 142.195 16.4453 141.891 16.1289C141.586 15.8125 141.305 15.5723 141.047 15.4082C140.789 15.2441 140.531 15.127 140.273 15.0566V14.1953H147.164V15.0566C146.238 15.1973 145.775 15.5605 145.775 16.1465C145.775 16.416 145.834 16.6855 145.951 16.9551C146.08 17.2246 146.273 17.5234 146.531 17.8516L148.676 20.8574ZM165.674 22.1055C165.674 18.1445 165.018 14.8574 163.705 12.2441C162.393 9.61914 160.359 7.85547 157.605 6.95312L158.08 5.59961C161.502 6.50195 164.127 8.45312 165.955 11.4531C167.795 14.4414 168.715 18.0508 168.715 22.2812C168.715 26.5234 167.801 30.1328 165.973 33.1094C164.145 36.0977 161.514 38.043 158.08 38.9453L157.658 37.5918C160.365 36.6895 162.375 34.9082 163.688 32.248C165.012 29.5879 165.674 26.207 165.674 22.1055ZM182.443 18.2383V15.9004H204.1V18.2383H182.443ZM182.443 25.5332V23.1953H204.1V25.5332H182.443ZM229.465 14.5996V18.2734H227.232C227.033 17.5117 226.787 16.9141 226.494 16.4805C226.201 16.0352 225.861 15.7246 225.475 15.5488C225.088 15.373 224.607 15.2852 224.033 15.2852C223.213 15.2852 222.486 15.5488 221.854 16.0762C221.221 16.6035 220.717 17.4062 220.342 18.4844C219.979 19.5625 219.797 20.8809 219.797 22.4395C219.797 23.4355 219.867 24.3496 220.008 25.1816C220.148 26.002 220.389 26.7051 220.729 27.291C221.068 27.877 221.52 28.334 222.082 28.6621C222.645 28.9902 223.342 29.1543 224.174 29.1543C224.982 29.1543 225.732 28.9961 226.424 28.6797C227.127 28.3633 227.854 27.8066 228.604 27.0098L229.605 28.1699C229.008 28.8262 228.48 29.3359 228.023 29.6992C227.566 30.0508 227.074 30.3496 226.547 30.5957C226.031 30.8301 225.516 31 225 31.1055C224.496 31.2227 223.945 31.2812 223.348 31.2812C221.133 31.2812 219.439 30.5488 218.268 29.084C217.096 27.6074 216.51 25.4805 216.51 22.7031C216.51 20.9688 216.838 19.4336 217.494 18.0977C218.15 16.75 219.07 15.7129 220.254 14.9863C221.438 14.2598 222.803 13.8965 224.35 13.8965C225.311 13.8965 226.195 13.9551 227.004 14.0723C227.824 14.1777 228.645 14.3535 229.465 14.5996ZM244.037 18.0449H242.35C242.092 17.3418 241.787 16.791 241.436 16.3926C241.084 15.9824 240.686 15.6953 240.24 15.5312C239.795 15.3672 239.25 15.2852 238.605 15.2852C237.668 15.2852 236.918 15.5078 236.355 15.9531C235.805 16.3867 235.529 16.9844 235.529 17.7461C235.529 18.2852 235.641 18.7305 235.863 19.082C236.086 19.4336 236.432 19.7617 236.9 20.0664C237.369 20.3711 238.195 20.7754 239.379 21.2793C240.574 21.7949 241.494 22.2695 242.139 22.7031C242.795 23.1367 243.305 23.6406 243.668 24.2148C244.043 24.7891 244.23 25.4746 244.23 26.2715C244.23 27.1973 244.072 27.9766 243.756 28.6094C243.439 29.2422 242.994 29.7578 242.42 30.1562C241.846 30.5547 241.16 30.8418 240.363 31.0176C239.578 31.1934 238.717 31.2812 237.779 31.2812C236.795 31.2812 235.84 31.2051 234.914 31.0527C233.988 30.9121 233.086 30.7246 232.207 30.4902V26.8164H233.93C234.246 27.8945 234.715 28.6797 235.336 29.1719C235.957 29.6523 236.812 29.8926 237.902 29.8926C238.324 29.8926 238.734 29.8516 239.133 29.7695C239.543 29.6758 239.906 29.5293 240.223 29.3301C240.539 29.1191 240.791 28.8379 240.979 28.4863C241.166 28.1348 241.26 27.6953 241.26 27.168C241.26 26.5703 241.143 26.084 240.908 25.709C240.674 25.334 240.311 24.9941 239.818 24.6895C239.326 24.373 238.459 23.9512 237.217 23.4238C236.15 22.9785 235.295 22.5449 234.65 22.123C234.006 21.7012 233.496 21.2031 233.121 20.6289C232.758 20.0547 232.576 19.375 232.576 18.5898C232.576 17.6289 232.834 16.7969 233.35 16.0938C233.877 15.3789 234.633 14.834 235.617 14.459C236.602 14.084 237.756 13.8965 239.08 13.8965C239.854 13.8965 240.598 13.9375 241.312 14.0195C242.039 14.0898 242.947 14.2363 244.037 14.459V18.0449ZM260.824 14.5996V18.2734H258.592C258.393 17.5117 258.146 16.9141 257.854 16.4805C257.561 16.0352 257.221 15.7246 256.834 15.5488C256.447 15.373 255.967 15.2852 255.393 15.2852C254.572 15.2852 253.846 15.5488 253.213 16.0762C252.58 16.6035 252.076 17.4062 251.701 18.4844C251.338 19.5625 251.156 20.8809 251.156 22.4395C251.156 23.4355 251.227 24.3496 251.367 25.1816C251.508 26.002 251.748 26.7051 252.088 27.291C252.428 27.877 252.879 28.334 253.441 28.6621C254.004 28.9902 254.701 29.1543 255.533 29.1543C256.342 29.1543 257.092 28.9961 257.783 28.6797C258.486 28.3633 259.213 27.8066 259.963 27.0098L260.965 28.1699C260.367 28.8262 259.84 29.3359 259.383 29.6992C258.926 30.0508 258.434 30.3496 257.906 30.5957C257.391 30.8301 256.875 31 256.359 31.1055C255.855 31.2227 255.305 31.2812 254.707 31.2812C252.492 31.2812 250.799 30.5488 249.627 29.084C248.455 27.6074 247.869 25.4805 247.869 22.7031C247.869 20.9688 248.197 19.4336 248.854 18.0977C249.51 16.75 250.43 15.7129 251.613 14.9863C252.797 14.2598 254.162 13.8965 255.709 13.8965C256.67 13.8965 257.555 13.9551 258.363 14.0723C259.184 14.1777 260.004 14.3535 260.824 14.5996ZM270.809 14.4414C271.219 14.4414 271.529 14.4238 271.74 14.3887C271.963 14.3418 272.139 14.2773 272.268 14.1953C272.396 14.1133 272.502 14.0078 272.584 13.8789C272.678 13.75 272.812 13.4688 272.988 13.0352H274.201L273.955 16.4277H263.654V15.7598C264.053 14.9043 264.592 14.0605 265.271 13.2285C265.951 12.3965 266.748 11.541 267.662 10.6621C268.752 9.61914 269.525 8.83398 269.982 8.30664C270.439 7.76758 270.779 7.26367 271.002 6.79492C271.225 6.31445 271.336 5.83398 271.336 5.35352C271.336 4.55664 271.107 3.92969 270.65 3.47266C270.205 3.01562 269.561 2.78711 268.717 2.78711C267.99 2.78711 267.369 2.98047 266.854 3.36719C266.35 3.75391 265.963 4.32227 265.693 5.07227H264.023V2.69922C265.066 2.27734 266.027 1.97852 266.906 1.80273C267.785 1.61523 268.564 1.52148 269.244 1.52148C270.17 1.52148 270.932 1.62109 271.529 1.82031C272.139 2.01953 272.625 2.2832 272.988 2.61133C273.352 2.92773 273.604 3.30273 273.744 3.73633C273.896 4.16992 273.973 4.61523 273.973 5.07227C273.973 5.64648 273.855 6.18555 273.621 6.68945C273.387 7.18164 273 7.7207 272.461 8.30664C271.934 8.88086 270.99 9.7832 269.631 11.0137C268.178 12.3379 267.123 13.4805 266.467 14.4414H270.809ZM282.779 22.1055C282.779 26.207 283.436 29.5879 284.748 32.248C286.072 34.9082 288.088 36.6895 290.795 37.5918L290.373 38.9453C286.939 38.043 284.309 36.0977 282.48 33.1094C280.652 30.1328 279.738 26.5234 279.738 22.2812C279.738 18.0508 280.652 14.4414 282.48 11.4531C284.32 8.45312 286.951 6.50195 290.373 5.59961L290.848 6.95312C288.105 7.85547 286.072 9.61914 284.748 12.2441C283.436 14.8574 282.779 18.1445 282.779 22.1055ZM300.656 20.8574L302.941 17.957C303.188 17.6406 303.387 17.3359 303.539 17.043C303.691 16.7383 303.768 16.4277 303.768 16.1113C303.768 15.8418 303.668 15.6191 303.469 15.4434C303.27 15.2676 302.959 15.1387 302.537 15.0566V14.1953H308.285V15.0566C307.84 15.1855 307.383 15.4375 306.914 15.8125C306.457 16.1875 305.895 16.791 305.227 17.623L301.588 22.0879L305.596 27.4844C306.17 28.2578 306.686 28.8496 307.143 29.2598C307.6 29.6699 308.057 29.9629 308.514 30.1387V31H301.447V30.1387C302.42 30.0215 302.906 29.6582 302.906 29.0488C302.906 28.8027 302.865 28.5684 302.783 28.3457C302.701 28.123 302.549 27.8652 302.326 27.5723L299.777 24.0215L297.07 27.5371C296.871 27.7949 296.713 28.0352 296.596 28.2578C296.49 28.4688 296.438 28.709 296.438 28.9785C296.438 29.2949 296.543 29.5586 296.754 29.7695C296.977 29.9688 297.322 30.0918 297.791 30.1387V31H291.92V30.1387C292.307 29.998 292.652 29.8223 292.957 29.6113C293.273 29.4004 293.59 29.1309 293.906 28.8027C294.234 28.4629 294.662 27.9707 295.189 27.3262L298.846 22.791L295.102 17.6582C294.586 16.9551 294.176 16.4453 293.871 16.1289C293.566 15.8125 293.285 15.5723 293.027 15.4082C292.77 15.2441 292.512 15.127 292.254 15.0566V14.1953H299.145V15.0566C298.219 15.1973 297.756 15.5605 297.756 16.1465C297.756 16.416 297.814 16.6855 297.932 16.9551C298.061 17.2246 298.254 17.5234 298.512 17.8516L300.656 20.8574ZM317.654 22.1055C317.654 18.1445 316.998 14.8574 315.686 12.2441C314.373 9.61914 312.34 7.85547 309.586 6.95312L310.061 5.59961C313.482 6.50195 316.107 8.45312 317.936 11.4531C319.775 14.4414 320.695 18.0508 320.695 22.2812C320.695 26.5234 319.781 30.1328 317.953 33.1094C316.125 36.0977 313.494 38.043 310.061 38.9453L309.639 37.5918C312.346 36.6895 314.355 34.9082 315.668 32.248C316.992 29.5879 317.654 26.207 317.654 22.1055Z" fill="white"/>
</svg>
