<svg width="252" height="42" viewBox="0 0 252 42" fill="none" xmlns="http://www.w3.org/2000/svg">
<path d="M13.4824 18.0449H11.7949C11.5371 17.3418 11.2324 16.791 10.8809 16.3926C10.5293 15.9824 10.1309 15.6953 9.68555 15.5312C9.24023 15.3672 8.69531 15.2852 8.05078 15.2852C7.11328 15.2852 6.36328 15.5078 5.80078 15.9531C5.25 16.3867 4.97461 16.9844 4.97461 17.7461C4.97461 18.2852 5.08594 18.7305 5.30859 19.082C5.53125 19.4336 5.87695 19.7617 6.3457 20.0664C6.81445 20.3711 7.64062 20.7754 8.82422 21.2793C10.0195 21.7949 10.9395 22.2695 11.584 22.7031C12.2402 23.1367 12.75 23.6406 13.1133 24.2148C13.4883 24.7891 13.6758 25.4746 13.6758 26.2715C13.6758 27.1973 13.5176 27.9766 13.2012 28.6094C12.8848 29.2422 12.4395 29.7578 11.8652 30.1562C11.291 30.5547 10.6055 30.8418 9.80859 31.0176C9.02344 31.1934 8.16211 31.2812 7.22461 31.2812C6.24023 31.2812 5.28516 31.2051 4.35938 31.0527C3.43359 30.9121 2.53125 30.7246 1.65234 30.4902V26.8164H3.375C3.69141 27.8945 4.16016 28.6797 4.78125 29.1719C5.40234 29.6523 6.25781 29.8926 7.34766 29.8926C7.76953 29.8926 8.17969 29.8516 8.57812 29.7695C8.98828 29.6758 9.35156 29.5293 9.66797 29.3301C9.98438 29.1191 10.2363 28.8379 10.4238 28.4863C10.6113 28.1348 10.7051 27.6953 10.7051 27.168C10.7051 26.5703 10.5879 26.084 10.3535 25.709C10.1191 25.334 9.75586 24.9941 9.26367 24.6895C8.77148 24.373 7.9043 23.9512 6.66211 23.4238C5.5957 22.9785 4.74023 22.5449 4.0957 22.123C3.45117 21.7012 2.94141 21.2031 2.56641 20.6289C2.20312 20.0547 2.02148 19.375 2.02148 18.5898C2.02148 17.6289 2.2793 16.7969 2.79492 16.0938C3.32227 15.3789 4.07812 14.834 5.0625 14.459C6.04688 14.084 7.20117 13.8965 8.52539 13.8965C9.29883 13.8965 10.043 13.9375 10.7578 14.0195C11.4844 14.0898 12.3926 14.2363 13.4824 14.459V18.0449ZM22.2012 7.30469V10.7148H18.9668V7.30469H22.2012ZM17.1738 30.1387C17.6309 29.998 17.9531 29.875 18.1406 29.7695C18.3398 29.6641 18.5039 29.5176 18.6328 29.3301C18.7734 29.1426 18.8789 28.8555 18.9492 28.4688C19.0312 28.082 19.0723 27.4785 19.0723 26.6582V18.9941C19.0723 18.2441 19.0605 17.6406 19.0371 17.1836C19.0137 16.7266 18.9316 16.3633 18.791 16.0938C18.6504 15.8125 18.4336 15.6074 18.1406 15.4785C17.8594 15.3379 17.4551 15.2207 16.9277 15.127V14.1953L21.0234 14.0371H22.0957V26.6055C22.0957 27.6133 22.1426 28.3164 22.2363 28.7148C22.3301 29.1016 22.5059 29.4004 22.7637 29.6113C23.0332 29.8105 23.4668 29.9863 24.0645 30.1387V31H17.1738V30.1387ZM44.3145 31H37.3887V30.1387C37.8457 29.998 38.1738 29.875 38.373 29.7695C38.5723 29.6641 38.7363 29.5176 38.8652 29.3301C39.0059 29.1426 39.1113 28.8555 39.1816 28.4688C39.2637 28.0703 39.3047 27.4727 39.3047 26.6758V22.0703C39.3047 21.25 39.2812 20.5059 39.2344 19.8379C39.1875 19.1699 39.1055 18.625 38.9883 18.2031C38.8828 17.7695 38.748 17.4355 38.584 17.2012C38.4316 16.9551 38.2441 16.75 38.0215 16.5859C37.8105 16.4102 37.5645 16.2754 37.2832 16.1816C37.002 16.0762 36.6328 16.0234 36.1758 16.0234C35.7188 16.0234 35.2852 16.1172 34.875 16.3047C34.4648 16.4805 34.0137 16.791 33.5215 17.2363C33.0293 17.6816 32.6719 18.1211 32.4492 18.5547C32.2266 18.9883 32.1152 19.4863 32.1152 20.0488V26.6055C32.1152 27.6133 32.1621 28.3164 32.2559 28.7148C32.3496 29.1016 32.5254 29.4004 32.7832 29.6113C33.0527 29.8105 33.4863 29.9863 34.084 30.1387V31H27.1934V30.1387C27.6504 29.998 27.9727 29.875 28.1602 29.7695C28.3594 29.6641 28.5234 29.5176 28.6523 29.3301C28.793 29.1426 28.8984 28.8555 28.9688 28.4688C29.0508 28.082 29.0918 27.4785 29.0918 26.6582V18.9941C29.0918 18.2441 29.0801 17.6406 29.0566 17.1836C29.0332 16.7266 28.9512 16.3633 28.8105 16.0938C28.6699 15.8125 28.4531 15.6074 28.1602 15.4785C27.8789 15.3379 27.4746 15.2207 26.9473 15.127V14.1953L31.0605 14.0371H32.1328L31.9395 16.9023L32.1855 16.9727C33.0527 16.0938 33.75 15.4668 34.2773 15.0918C34.8164 14.7168 35.3555 14.4297 35.8945 14.2305C36.4453 14.0195 37.0254 13.9141 37.6348 13.9141C38.2676 13.9141 38.8301 13.9902 39.3223 14.1426C39.8262 14.2832 40.2656 14.5059 40.6406 14.8105C41.0273 15.1152 41.3438 15.4961 41.5898 15.9531C41.8359 16.3984 42.0176 16.9375 42.1348 17.5703C42.2637 18.2031 42.3281 19.0059 42.3281 19.9785V26.6055C42.3281 27.4141 42.3516 28 42.3984 28.3633C42.4453 28.7266 42.5273 29.0078 42.6445 29.207C42.7617 29.4062 42.9316 29.5762 43.1543 29.7168C43.377 29.8457 43.7637 29.9863 44.3145 30.1387V31ZM51.8027 22.1055C51.8027 26.207 52.459 29.5879 53.7715 32.248C55.0957 34.9082 57.1113 36.6895 59.8184 37.5918L59.3965 38.9453C55.9629 38.043 53.332 36.0977 51.5039 33.1094C49.6758 30.1328 48.7617 26.5234 48.7617 22.2812C48.7617 18.0508 49.6758 14.4414 51.5039 11.4531C53.3438 8.45312 55.9746 6.50195 59.3965 5.59961L59.8711 6.95312C57.1289 7.85547 55.0957 9.61914 53.7715 12.2441C52.459 14.8574 51.8027 18.1445 51.8027 22.1055ZM70.5938 23.1074H62.4375V20.3828H70.5938V23.1074ZM80.5781 20.8574L82.8633 17.957C83.1094 17.6406 83.3086 17.3359 83.4609 17.043C83.6133 16.7383 83.6895 16.4277 83.6895 16.1113C83.6895 15.8418 83.5898 15.6191 83.3906 15.4434C83.1914 15.2676 82.8809 15.1387 82.459 15.0566V14.1953H88.207V15.0566C87.7617 15.1855 87.3047 15.4375 86.8359 15.8125C86.3789 16.1875 85.8164 16.791 85.1484 17.623L81.5098 22.0879L85.5176 27.4844C86.0918 28.2578 86.6074 28.8496 87.0645 29.2598C87.5215 29.6699 87.9785 29.9629 88.4355 30.1387V31H81.3691V30.1387C82.3418 30.0215 82.8281 29.6582 82.8281 29.0488C82.8281 28.8027 82.7871 28.5684 82.7051 28.3457C82.623 28.123 82.4707 27.8652 82.248 27.5723L79.6992 24.0215L76.9922 27.5371C76.793 27.7949 76.6348 28.0352 76.5176 28.2578C76.4121 28.4688 76.3594 28.709 76.3594 28.9785C76.3594 29.2949 76.4648 29.5586 76.6758 29.7695C76.8984 29.9688 77.2441 30.0918 77.7129 30.1387V31H71.8418V30.1387C72.2285 29.998 72.5742 29.8223 72.8789 29.6113C73.1953 29.4004 73.5117 29.1309 73.8281 28.8027C74.1562 28.4629 74.584 27.9707 75.1113 27.3262L78.7676 22.791L75.0234 17.6582C74.5078 16.9551 74.0977 16.4453 73.793 16.1289C73.4883 15.8125 73.207 15.5723 72.9492 15.4082C72.6914 15.2441 72.4336 15.127 72.1758 15.0566V14.1953H79.0664V15.0566C78.1406 15.1973 77.6777 15.5605 77.6777 16.1465C77.6777 16.416 77.7363 16.6855 77.8535 16.9551C77.9824 17.2246 78.1758 17.5234 78.4336 17.8516L80.5781 20.8574ZM97.5762 22.1055C97.5762 18.1445 96.9199 14.8574 95.6074 12.2441C94.2949 9.61914 92.2617 7.85547 89.5078 6.95312L89.9824 5.59961C93.4043 6.50195 96.0293 8.45312 97.8574 11.4531C99.6973 14.4414 100.617 18.0508 100.617 22.2812C100.617 26.5234 99.7031 30.1328 97.875 33.1094C96.0469 36.0977 93.416 38.043 89.9824 38.9453L89.5605 37.5918C92.2676 36.6895 94.2773 34.9082 95.5898 32.248C96.9141 29.5879 97.5762 26.207 97.5762 22.1055ZM114.346 18.2383V15.9004H136.002V18.2383H114.346ZM114.346 25.5332V23.1953H136.002V25.5332H114.346ZM156.621 23.1074H148.465V20.3828H156.621V23.1074ZM172.002 18.0449H170.314C170.057 17.3418 169.752 16.791 169.4 16.3926C169.049 15.9824 168.65 15.6953 168.205 15.5312C167.76 15.3672 167.215 15.2852 166.57 15.2852C165.633 15.2852 164.883 15.5078 164.32 15.9531C163.77 16.3867 163.494 16.9844 163.494 17.7461C163.494 18.2852 163.605 18.7305 163.828 19.082C164.051 19.4336 164.396 19.7617 164.865 20.0664C165.334 20.3711 166.16 20.7754 167.344 21.2793C168.539 21.7949 169.459 22.2695 170.104 22.7031C170.76 23.1367 171.27 23.6406 171.633 24.2148C172.008 24.7891 172.195 25.4746 172.195 26.2715C172.195 27.1973 172.037 27.9766 171.721 28.6094C171.404 29.2422 170.959 29.7578 170.385 30.1562C169.811 30.5547 169.125 30.8418 168.328 31.0176C167.543 31.1934 166.682 31.2812 165.744 31.2812C164.76 31.2812 163.805 31.2051 162.879 31.0527C161.953 30.9121 161.051 30.7246 160.172 30.4902V26.8164H161.895C162.211 27.8945 162.68 28.6797 163.301 29.1719C163.922 29.6523 164.777 29.8926 165.867 29.8926C166.289 29.8926 166.699 29.8516 167.098 29.7695C167.508 29.6758 167.871 29.5293 168.188 29.3301C168.504 29.1191 168.756 28.8379 168.943 28.4863C169.131 28.1348 169.225 27.6953 169.225 27.168C169.225 26.5703 169.107 26.084 168.873 25.709C168.639 25.334 168.275 24.9941 167.783 24.6895C167.291 24.373 166.424 23.9512 165.182 23.4238C164.115 22.9785 163.26 22.5449 162.615 22.123C161.971 21.7012 161.461 21.2031 161.086 20.6289C160.723 20.0547 160.541 19.375 160.541 18.5898C160.541 17.6289 160.799 16.7969 161.314 16.0938C161.842 15.3789 162.598 14.834 163.582 14.459C164.566 14.084 165.721 13.8965 167.045 13.8965C167.818 13.8965 168.562 13.9375 169.277 14.0195C170.004 14.0898 170.912 14.2363 172.002 14.459V18.0449ZM180.721 7.30469V10.7148H177.486V7.30469H180.721ZM175.693 30.1387C176.15 29.998 176.473 29.875 176.66 29.7695C176.859 29.6641 177.023 29.5176 177.152 29.3301C177.293 29.1426 177.398 28.8555 177.469 28.4688C177.551 28.082 177.592 27.4785 177.592 26.6582V18.9941C177.592 18.2441 177.58 17.6406 177.557 17.1836C177.533 16.7266 177.451 16.3633 177.311 16.0938C177.17 15.8125 176.953 15.6074 176.66 15.4785C176.379 15.3379 175.975 15.2207 175.447 15.127V14.1953L179.543 14.0371H180.615V26.6055C180.615 27.6133 180.662 28.3164 180.756 28.7148C180.85 29.1016 181.025 29.4004 181.283 29.6113C181.553 29.8105 181.986 29.9863 182.584 30.1387V31H175.693V30.1387ZM202.834 31H195.908V30.1387C196.365 29.998 196.693 29.875 196.893 29.7695C197.092 29.6641 197.256 29.5176 197.385 29.3301C197.525 29.1426 197.631 28.8555 197.701 28.4688C197.783 28.0703 197.824 27.4727 197.824 26.6758V22.0703C197.824 21.25 197.801 20.5059 197.754 19.8379C197.707 19.1699 197.625 18.625 197.508 18.2031C197.402 17.7695 197.268 17.4355 197.104 17.2012C196.951 16.9551 196.764 16.75 196.541 16.5859C196.33 16.4102 196.084 16.2754 195.803 16.1816C195.521 16.0762 195.152 16.0234 194.695 16.0234C194.238 16.0234 193.805 16.1172 193.395 16.3047C192.984 16.4805 192.533 16.791 192.041 17.2363C191.549 17.6816 191.191 18.1211 190.969 18.5547C190.746 18.9883 190.635 19.4863 190.635 20.0488V26.6055C190.635 27.6133 190.682 28.3164 190.775 28.7148C190.869 29.1016 191.045 29.4004 191.303 29.6113C191.572 29.8105 192.006 29.9863 192.604 30.1387V31H185.713V30.1387C186.17 29.998 186.492 29.875 186.68 29.7695C186.879 29.6641 187.043 29.5176 187.172 29.3301C187.312 29.1426 187.418 28.8555 187.488 28.4688C187.57 28.082 187.611 27.4785 187.611 26.6582V18.9941C187.611 18.2441 187.6 17.6406 187.576 17.1836C187.553 16.7266 187.471 16.3633 187.33 16.0938C187.189 15.8125 186.973 15.6074 186.68 15.4785C186.398 15.3379 185.994 15.2207 185.467 15.127V14.1953L189.58 14.0371H190.652L190.459 16.9023L190.705 16.9727C191.572 16.0938 192.27 15.4668 192.797 15.0918C193.336 14.7168 193.875 14.4297 194.414 14.2305C194.965 14.0195 195.545 13.9141 196.154 13.9141C196.787 13.9141 197.35 13.9902 197.842 14.1426C198.346 14.2832 198.785 14.5059 199.16 14.8105C199.547 15.1152 199.863 15.4961 200.109 15.9531C200.355 16.3984 200.537 16.9375 200.654 17.5703C200.783 18.2031 200.848 19.0059 200.848 19.9785V26.6055C200.848 27.4141 200.871 28 200.918 28.3633C200.965 28.7266 201.047 29.0078 201.164 29.207C201.281 29.4062 201.451 29.5762 201.674 29.7168C201.896 29.8457 202.283 29.9863 202.834 30.1387V31ZM210.322 22.1055C210.322 26.207 210.979 29.5879 212.291 32.248C213.615 34.9082 215.631 36.6895 218.338 37.5918L217.916 38.9453C214.482 38.043 211.852 36.0977 210.023 33.1094C208.195 30.1328 207.281 26.5234 207.281 22.2812C207.281 18.0508 208.195 14.4414 210.023 11.4531C211.863 8.45312 214.494 6.50195 217.916 5.59961L218.391 6.95312C215.648 7.85547 213.615 9.61914 212.291 12.2441C210.979 14.8574 210.322 18.1445 210.322 22.1055ZM228.199 20.8574L230.484 17.957C230.73 17.6406 230.93 17.3359 231.082 17.043C231.234 16.7383 231.311 16.4277 231.311 16.1113C231.311 15.8418 231.211 15.6191 231.012 15.4434C230.812 15.2676 230.502 15.1387 230.08 15.0566V14.1953H235.828V15.0566C235.383 15.1855 234.926 15.4375 234.457 15.8125C234 16.1875 233.438 16.791 232.77 17.623L229.131 22.0879L233.139 27.4844C233.713 28.2578 234.229 28.8496 234.686 29.2598C235.143 29.6699 235.6 29.9629 236.057 30.1387V31H228.99V30.1387C229.963 30.0215 230.449 29.6582 230.449 29.0488C230.449 28.8027 230.408 28.5684 230.326 28.3457C230.244 28.123 230.092 27.8652 229.869 27.5723L227.32 24.0215L224.613 27.5371C224.414 27.7949 224.256 28.0352 224.139 28.2578C224.033 28.4688 223.98 28.709 223.98 28.9785C223.98 29.2949 224.086 29.5586 224.297 29.7695C224.52 29.9688 224.865 30.0918 225.334 30.1387V31H219.463V30.1387C219.85 29.998 220.195 29.8223 220.5 29.6113C220.816 29.4004 221.133 29.1309 221.449 28.8027C221.777 28.4629 222.205 27.9707 222.732 27.3262L226.389 22.791L222.645 17.6582C222.129 16.9551 221.719 16.4453 221.414 16.1289C221.109 15.8125 220.828 15.5723 220.57 15.4082C220.312 15.2441 220.055 15.127 219.797 15.0566V14.1953H226.688V15.0566C225.762 15.1973 225.299 15.5605 225.299 16.1465C225.299 16.416 225.357 16.6855 225.475 16.9551C225.604 17.2246 225.797 17.5234 226.055 17.8516L228.199 20.8574ZM245.197 22.1055C245.197 18.1445 244.541 14.8574 243.229 12.2441C241.916 9.61914 239.883 7.85547 237.129 6.95312L237.604 5.59961C241.025 6.50195 243.65 8.45312 245.479 11.4531C247.318 14.4414 248.238 18.0508 248.238 22.2812C248.238 26.5234 247.324 30.1328 245.496 33.1094C243.668 36.0977 241.037 38.043 237.604 38.9453L237.182 37.5918C239.889 36.6895 241.898 34.9082 243.211 32.248C244.535 29.5879 245.197 26.207 245.197 22.1055Z" fill="white"/>
</svg>
