<svg width="250" height="42" viewBox="0 0 250 42" fill="none" xmlns="http://www.w3.org/2000/svg">
<path d="M14.8008 14.5996V18.2734H12.5684C12.3691 17.5117 12.123 16.9141 11.8301 16.4805C11.5371 16.0352 11.1973 15.7246 10.8105 15.5488C10.4238 15.373 9.94336 15.2852 9.36914 15.2852C8.54883 15.2852 7.82227 15.5488 7.18945 16.0762C6.55664 16.6035 6.05273 17.4062 5.67773 18.4844C5.31445 19.5625 5.13281 20.8809 5.13281 22.4395C5.13281 23.4355 5.20312 24.3496 5.34375 25.1816C5.48438 26.002 5.72461 26.7051 6.06445 27.291C6.4043 27.877 6.85547 28.334 7.41797 28.6621C7.98047 28.9902 8.67773 29.1543 9.50977 29.1543C10.3184 29.1543 11.0684 28.9961 11.7598 28.6797C12.4629 28.3633 13.1895 27.8066 13.9395 27.0098L14.9414 28.1699C14.3438 28.8262 13.8164 29.3359 13.3594 29.6992C12.9023 30.0508 12.4102 30.3496 11.8828 30.5957C11.3672 30.8301 10.8516 31 10.3359 31.1055C9.83203 31.2227 9.28125 31.2812 8.68359 31.2812C6.46875 31.2812 4.77539 30.5488 3.60352 29.084C2.43164 27.6074 1.8457 25.4805 1.8457 22.7031C1.8457 20.9688 2.17383 19.4336 2.83008 18.0977C3.48633 16.75 4.40625 15.7129 5.58984 14.9863C6.77344 14.2598 8.13867 13.8965 9.68555 13.8965C10.6465 13.8965 11.5312 13.9551 12.3398 14.0723C13.1602 14.1777 13.9805 14.3535 14.8008 14.5996ZM25.2422 31.2812C22.8047 31.2812 20.9414 30.5664 19.6523 29.1367C18.375 27.6953 17.7363 25.5684 17.7363 22.7559C17.7363 20.8223 18.0703 19.1875 18.7383 17.8516C19.418 16.5156 20.3438 15.5254 21.5156 14.8809C22.6875 14.2246 24.0234 13.8965 25.5234 13.8965C28.0312 13.8965 29.9297 14.6289 31.2188 16.0938C32.5078 17.5469 33.1523 19.6387 33.1523 22.3691C33.1523 24.3145 32.8301 25.9551 32.1855 27.291C31.541 28.627 30.627 29.6289 29.4434 30.2969C28.2598 30.9531 26.8594 31.2812 25.2422 31.2812ZM21.0586 22.3867C21.0586 24.8008 21.4395 26.6582 22.2012 27.959C22.9746 29.248 24.0762 29.8926 25.5059 29.8926C26.291 29.8926 26.959 29.7051 27.5098 29.3301C28.0605 28.9434 28.5059 28.4277 28.8457 27.7832C29.1973 27.1387 29.4492 26.3945 29.6016 25.5508C29.7539 24.6953 29.8301 23.8047 29.8301 22.8789C29.8301 21.1562 29.6367 19.7266 29.25 18.5898C28.875 17.4531 28.3594 16.6211 27.7031 16.0938C27.0469 15.5547 26.2969 15.2852 25.4531 15.2852C24.0352 15.2852 22.9453 15.9004 22.1836 17.1309C21.4336 18.3613 21.0586 20.1133 21.0586 22.3867ZM48.498 18.0449H46.8105C46.5527 17.3418 46.248 16.791 45.8965 16.3926C45.5449 15.9824 45.1465 15.6953 44.7012 15.5312C44.2559 15.3672 43.7109 15.2852 43.0664 15.2852C42.1289 15.2852 41.3789 15.5078 40.8164 15.9531C40.2656 16.3867 39.9902 16.9844 39.9902 17.7461C39.9902 18.2852 40.1016 18.7305 40.3242 19.082C40.5469 19.4336 40.8926 19.7617 41.3613 20.0664C41.8301 20.3711 42.6562 20.7754 43.8398 21.2793C45.0352 21.7949 45.9551 22.2695 46.5996 22.7031C47.2559 23.1367 47.7656 23.6406 48.1289 24.2148C48.5039 24.7891 48.6914 25.4746 48.6914 26.2715C48.6914 27.1973 48.5332 27.9766 48.2168 28.6094C47.9004 29.2422 47.4551 29.7578 46.8809 30.1562C46.3066 30.5547 45.6211 30.8418 44.8242 31.0176C44.0391 31.1934 43.1777 31.2812 42.2402 31.2812C41.2559 31.2812 40.3008 31.2051 39.375 31.0527C38.4492 30.9121 37.5469 30.7246 36.668 30.4902V26.8164H38.3906C38.707 27.8945 39.1758 28.6797 39.7969 29.1719C40.418 29.6523 41.2734 29.8926 42.3633 29.8926C42.7852 29.8926 43.1953 29.8516 43.5938 29.7695C44.0039 29.6758 44.3672 29.5293 44.6836 29.3301C45 29.1191 45.252 28.8379 45.4395 28.4863C45.627 28.1348 45.7207 27.6953 45.7207 27.168C45.7207 26.5703 45.6035 26.084 45.3691 25.709C45.1348 25.334 44.7715 24.9941 44.2793 24.6895C43.7871 24.373 42.9199 23.9512 41.6777 23.4238C40.6113 22.9785 39.7559 22.5449 39.1113 22.123C38.4668 21.7012 37.957 21.2031 37.582 20.6289C37.2188 20.0547 37.0371 19.375 37.0371 18.5898C37.0371 17.6289 37.2949 16.7969 37.8105 16.0938C38.3379 15.3789 39.0938 14.834 40.0781 14.459C41.0625 14.084 42.2168 13.8965 43.541 13.8965C44.3145 13.8965 45.0586 13.9375 45.7734 14.0195C46.5 14.0898 47.4082 14.2363 48.498 14.459V18.0449ZM56.6895 22.1055C56.6895 26.207 57.3457 29.5879 58.6582 32.248C59.9824 34.9082 61.998 36.6895 64.7051 37.5918L64.2832 38.9453C60.8496 38.043 58.2188 36.0977 56.3906 33.1094C54.5625 30.1328 53.6484 26.5234 53.6484 22.2812C53.6484 18.0508 54.5625 14.4414 56.3906 11.4531C58.2305 8.45312 60.8613 6.50195 64.2832 5.59961L64.7578 6.95312C62.0156 7.85547 59.9824 9.61914 58.6582 12.2441C57.3457 14.8574 56.6895 18.1445 56.6895 22.1055ZM75.4805 23.1074H67.3242V20.3828H75.4805V23.1074ZM85.4648 20.8574L87.75 17.957C87.9961 17.6406 88.1953 17.3359 88.3477 17.043C88.5 16.7383 88.5762 16.4277 88.5762 16.1113C88.5762 15.8418 88.4766 15.6191 88.2773 15.4434C88.0781 15.2676 87.7676 15.1387 87.3457 15.0566V14.1953H93.0938V15.0566C92.6484 15.1855 92.1914 15.4375 91.7227 15.8125C91.2656 16.1875 90.7031 16.791 90.0352 17.623L86.3965 22.0879L90.4043 27.4844C90.9785 28.2578 91.4941 28.8496 91.9512 29.2598C92.4082 29.6699 92.8652 29.9629 93.3223 30.1387V31H86.2559V30.1387C87.2285 30.0215 87.7148 29.6582 87.7148 29.0488C87.7148 28.8027 87.6738 28.5684 87.5918 28.3457C87.5098 28.123 87.3574 27.8652 87.1348 27.5723L84.5859 24.0215L81.8789 27.5371C81.6797 27.7949 81.5215 28.0352 81.4043 28.2578C81.2988 28.4688 81.2461 28.709 81.2461 28.9785C81.2461 29.2949 81.3516 29.5586 81.5625 29.7695C81.7852 29.9688 82.1309 30.0918 82.5996 30.1387V31H76.7285V30.1387C77.1152 29.998 77.4609 29.8223 77.7656 29.6113C78.082 29.4004 78.3984 29.1309 78.7148 28.8027C79.043 28.4629 79.4707 27.9707 79.998 27.3262L83.6543 22.791L79.9102 17.6582C79.3945 16.9551 78.9844 16.4453 78.6797 16.1289C78.375 15.8125 78.0938 15.5723 77.8359 15.4082C77.5781 15.2441 77.3203 15.127 77.0625 15.0566V14.1953H83.9531V15.0566C83.0273 15.1973 82.5645 15.5605 82.5645 16.1465C82.5645 16.416 82.623 16.6855 82.7402 16.9551C82.8691 17.2246 83.0625 17.5234 83.3203 17.8516L85.4648 20.8574ZM102.463 22.1055C102.463 18.1445 101.807 14.8574 100.494 12.2441C99.1816 9.61914 97.1484 7.85547 94.3945 6.95312L94.8691 5.59961C98.291 6.50195 100.916 8.45312 102.744 11.4531C104.584 14.4414 105.504 18.0508 105.504 22.2812C105.504 26.5234 104.59 30.1328 102.762 33.1094C100.934 36.0977 98.3027 38.043 94.8691 38.9453L94.4473 37.5918C97.1543 36.6895 99.1641 34.9082 100.477 32.248C101.801 29.5879 102.463 26.207 102.463 22.1055ZM119.232 18.2383V15.9004H140.889V18.2383H119.232ZM119.232 25.5332V23.1953H140.889V25.5332H119.232ZM166.254 14.5996V18.2734H164.021C163.822 17.5117 163.576 16.9141 163.283 16.4805C162.99 16.0352 162.65 15.7246 162.264 15.5488C161.877 15.373 161.396 15.2852 160.822 15.2852C160.002 15.2852 159.275 15.5488 158.643 16.0762C158.01 16.6035 157.506 17.4062 157.131 18.4844C156.768 19.5625 156.586 20.8809 156.586 22.4395C156.586 23.4355 156.656 24.3496 156.797 25.1816C156.938 26.002 157.178 26.7051 157.518 27.291C157.857 27.877 158.309 28.334 158.871 28.6621C159.434 28.9902 160.131 29.1543 160.963 29.1543C161.771 29.1543 162.521 28.9961 163.213 28.6797C163.916 28.3633 164.643 27.8066 165.393 27.0098L166.395 28.1699C165.797 28.8262 165.27 29.3359 164.812 29.6992C164.355 30.0508 163.863 30.3496 163.336 30.5957C162.82 30.8301 162.305 31 161.789 31.1055C161.285 31.2227 160.734 31.2812 160.137 31.2812C157.922 31.2812 156.229 30.5488 155.057 29.084C153.885 27.6074 153.299 25.4805 153.299 22.7031C153.299 20.9688 153.627 19.4336 154.283 18.0977C154.939 16.75 155.859 15.7129 157.043 14.9863C158.227 14.2598 159.592 13.8965 161.139 13.8965C162.1 13.8965 162.984 13.9551 163.793 14.0723C164.613 14.1777 165.434 14.3535 166.254 14.5996ZM176.695 31.2812C174.258 31.2812 172.395 30.5664 171.105 29.1367C169.828 27.6953 169.189 25.5684 169.189 22.7559C169.189 20.8223 169.523 19.1875 170.191 17.8516C170.871 16.5156 171.797 15.5254 172.969 14.8809C174.141 14.2246 175.477 13.8965 176.977 13.8965C179.484 13.8965 181.383 14.6289 182.672 16.0938C183.961 17.5469 184.605 19.6387 184.605 22.3691C184.605 24.3145 184.283 25.9551 183.639 27.291C182.994 28.627 182.08 29.6289 180.896 30.2969C179.713 30.9531 178.312 31.2812 176.695 31.2812ZM172.512 22.3867C172.512 24.8008 172.893 26.6582 173.654 27.959C174.428 29.248 175.529 29.8926 176.959 29.8926C177.744 29.8926 178.412 29.7051 178.963 29.3301C179.514 28.9434 179.959 28.4277 180.299 27.7832C180.65 27.1387 180.902 26.3945 181.055 25.5508C181.207 24.6953 181.283 23.8047 181.283 22.8789C181.283 21.1562 181.09 19.7266 180.703 18.5898C180.328 17.4531 179.812 16.6211 179.156 16.0938C178.5 15.5547 177.75 15.2852 176.906 15.2852C175.488 15.2852 174.398 15.9004 173.637 17.1309C172.887 18.3613 172.512 20.1133 172.512 22.3867ZM199.951 18.0449H198.264C198.006 17.3418 197.701 16.791 197.35 16.3926C196.998 15.9824 196.6 15.6953 196.154 15.5312C195.709 15.3672 195.164 15.2852 194.52 15.2852C193.582 15.2852 192.832 15.5078 192.27 15.9531C191.719 16.3867 191.443 16.9844 191.443 17.7461C191.443 18.2852 191.555 18.7305 191.777 19.082C192 19.4336 192.346 19.7617 192.814 20.0664C193.283 20.3711 194.109 20.7754 195.293 21.2793C196.488 21.7949 197.408 22.2695 198.053 22.7031C198.709 23.1367 199.219 23.6406 199.582 24.2148C199.957 24.7891 200.145 25.4746 200.145 26.2715C200.145 27.1973 199.986 27.9766 199.67 28.6094C199.354 29.2422 198.908 29.7578 198.334 30.1562C197.76 30.5547 197.074 30.8418 196.277 31.0176C195.492 31.1934 194.631 31.2812 193.693 31.2812C192.709 31.2812 191.754 31.2051 190.828 31.0527C189.902 30.9121 189 30.7246 188.121 30.4902V26.8164H189.844C190.16 27.8945 190.629 28.6797 191.25 29.1719C191.871 29.6523 192.727 29.8926 193.816 29.8926C194.238 29.8926 194.648 29.8516 195.047 29.7695C195.457 29.6758 195.82 29.5293 196.137 29.3301C196.453 29.1191 196.705 28.8379 196.893 28.4863C197.08 28.1348 197.174 27.6953 197.174 27.168C197.174 26.5703 197.057 26.084 196.822 25.709C196.588 25.334 196.225 24.9941 195.732 24.6895C195.24 24.373 194.373 23.9512 193.131 23.4238C192.064 22.9785 191.209 22.5449 190.564 22.123C189.92 21.7012 189.41 21.2031 189.035 20.6289C188.672 20.0547 188.49 19.375 188.49 18.5898C188.49 17.6289 188.748 16.7969 189.264 16.0938C189.791 15.3789 190.547 14.834 191.531 14.459C192.516 14.084 193.67 13.8965 194.994 13.8965C195.768 13.8965 196.512 13.9375 197.227 14.0195C197.953 14.0898 198.861 14.2363 199.951 14.459V18.0449ZM208.143 22.1055C208.143 26.207 208.799 29.5879 210.111 32.248C211.436 34.9082 213.451 36.6895 216.158 37.5918L215.736 38.9453C212.303 38.043 209.672 36.0977 207.844 33.1094C206.016 30.1328 205.102 26.5234 205.102 22.2812C205.102 18.0508 206.016 14.4414 207.844 11.4531C209.684 8.45312 212.314 6.50195 215.736 5.59961L216.211 6.95312C213.469 7.85547 211.436 9.61914 210.111 12.2441C208.799 14.8574 208.143 18.1445 208.143 22.1055ZM226.02 20.8574L228.305 17.957C228.551 17.6406 228.75 17.3359 228.902 17.043C229.055 16.7383 229.131 16.4277 229.131 16.1113C229.131 15.8418 229.031 15.6191 228.832 15.4434C228.633 15.2676 228.322 15.1387 227.9 15.0566V14.1953H233.648V15.0566C233.203 15.1855 232.746 15.4375 232.277 15.8125C231.82 16.1875 231.258 16.791 230.59 17.623L226.951 22.0879L230.959 27.4844C231.533 28.2578 232.049 28.8496 232.506 29.2598C232.963 29.6699 233.42 29.9629 233.877 30.1387V31H226.811V30.1387C227.783 30.0215 228.27 29.6582 228.27 29.0488C228.27 28.8027 228.229 28.5684 228.146 28.3457C228.064 28.123 227.912 27.8652 227.689 27.5723L225.141 24.0215L222.434 27.5371C222.234 27.7949 222.076 28.0352 221.959 28.2578C221.854 28.4688 221.801 28.709 221.801 28.9785C221.801 29.2949 221.906 29.5586 222.117 29.7695C222.34 29.9688 222.686 30.0918 223.154 30.1387V31H217.283V30.1387C217.67 29.998 218.016 29.8223 218.32 29.6113C218.637 29.4004 218.953 29.1309 219.27 28.8027C219.598 28.4629 220.025 27.9707 220.553 27.3262L224.209 22.791L220.465 17.6582C219.949 16.9551 219.539 16.4453 219.234 16.1289C218.93 15.8125 218.648 15.5723 218.391 15.4082C218.133 15.2441 217.875 15.127 217.617 15.0566V14.1953H224.508V15.0566C223.582 15.1973 223.119 15.5605 223.119 16.1465C223.119 16.416 223.178 16.6855 223.295 16.9551C223.424 17.2246 223.617 17.5234 223.875 17.8516L226.02 20.8574ZM243.018 22.1055C243.018 18.1445 242.361 14.8574 241.049 12.2441C239.736 9.61914 237.703 7.85547 234.949 6.95312L235.424 5.59961C238.846 6.50195 241.471 8.45312 243.299 11.4531C245.139 14.4414 246.059 18.0508 246.059 22.2812C246.059 26.5234 245.145 30.1328 243.316 33.1094C241.488 36.0977 238.857 38.043 235.424 38.9453L235.002 37.5918C237.709 36.6895 239.719 34.9082 241.031 32.248C242.355 29.5879 243.018 26.207 243.018 22.1055Z" fill="white"/>
</svg>
