<svg width="260" height="42" viewBox="0 0 260 42" fill="none" xmlns="http://www.w3.org/2000/svg">
<path d="M0.650391 15.0742C1.23633 14.9805 1.71094 14.8164 2.07422 14.582C2.4375 14.3477 2.71875 14.0488 2.91797 13.6855C3.12891 13.3105 3.29297 12.8477 3.41016 12.2969C3.52734 11.7344 3.65039 10.9199 3.7793 9.85352H6.27539V14.1953H11.9531V15.9707H6.27539V23.793C6.27539 24.9297 6.32227 25.8379 6.41602 26.5176C6.50977 27.1855 6.68555 27.7129 6.94336 28.0996C7.20117 28.4746 7.49414 28.7441 7.82227 28.9082C8.15039 29.0723 8.57227 29.1543 9.08789 29.1543C9.55664 29.1543 9.99609 29.0605 10.4062 28.873C10.8164 28.6738 11.2207 28.3926 11.6191 28.0293L12.4102 28.9785C11.5781 29.7871 10.7871 30.373 10.0371 30.7363C9.29883 31.0996 8.53125 31.2812 7.73438 31.2812C6.22266 31.2812 5.09766 30.8359 4.35938 29.9453C3.62109 29.043 3.25195 27.6367 3.25195 25.7266V15.9707H0.650391V15.0742ZM24.0645 28.4863L23.8008 28.416C22.7812 29.459 21.8203 30.1973 20.918 30.6309C20.0273 31.0645 19.0781 31.2812 18.0703 31.2812C17.1797 31.2812 16.3945 31.1113 15.7148 30.7715C15.0352 30.4199 14.5137 29.9336 14.1504 29.3125C13.7871 28.6797 13.6055 27.9531 13.6055 27.1328C13.6055 25.4219 14.4492 24.1035 16.1367 23.1777C17.8359 22.2402 20.3789 21.6953 23.7656 21.543V20.4004C23.7656 19.1816 23.6484 18.2207 23.4141 17.5176C23.1797 16.8145 22.8105 16.2988 22.3066 15.9707C21.8027 15.6426 21.1289 15.4785 20.2852 15.4785C19.3711 15.4785 18.6328 15.7188 18.0703 16.1992C17.5195 16.6797 17.1035 17.4004 16.8223 18.3613H14.5195V16.0762C15.6445 15.4902 16.582 15.0625 17.332 14.793C18.082 14.5117 18.832 14.2949 19.582 14.1426C20.332 13.9785 21.0938 13.8965 21.8672 13.8965C23.0273 13.8965 23.959 14.084 24.6621 14.459C25.3652 14.8223 25.8926 15.3848 26.2441 16.1465C26.5957 16.9082 26.7715 18.0566 26.7715 19.5918V25.709C26.7715 26.5762 26.7773 27.1914 26.7891 27.5547C26.8008 27.9062 26.8359 28.2344 26.8945 28.5391C26.9531 28.8438 27.041 29.0898 27.1582 29.2773C27.2754 29.4531 27.4453 29.6055 27.668 29.7344C27.9023 29.8633 28.2773 29.998 28.793 30.1387V31H23.9766L24.0645 28.4863ZM23.7656 22.9844C21.3867 23.0078 19.6055 23.3242 18.4219 23.9336C17.2383 24.543 16.6465 25.4629 16.6465 26.6934C16.6465 27.3613 16.7812 27.8887 17.0508 28.2754C17.3203 28.6621 17.6602 28.9316 18.0703 29.084C18.4805 29.2246 18.9668 29.2949 19.5293 29.2949C20.3262 29.2949 21.0469 29.1016 21.6914 28.7148C22.3477 28.3281 22.8574 27.8359 23.2207 27.2383C23.584 26.6406 23.7656 26.0488 23.7656 25.4629V22.9844ZM48.6035 31H41.6777V30.1387C42.1348 29.998 42.4629 29.875 42.6621 29.7695C42.8613 29.6641 43.0254 29.5176 43.1543 29.3301C43.2949 29.1426 43.4004 28.8555 43.4707 28.4688C43.5527 28.0703 43.5938 27.4727 43.5938 26.6758V22.0703C43.5938 21.25 43.5703 20.5059 43.5234 19.8379C43.4766 19.1699 43.3945 18.625 43.2773 18.2031C43.1719 17.7695 43.0371 17.4355 42.873 17.2012C42.7207 16.9551 42.5332 16.75 42.3105 16.5859C42.0996 16.4102 41.8535 16.2754 41.5723 16.1816C41.291 16.0762 40.9219 16.0234 40.4648 16.0234C40.0078 16.0234 39.5742 16.1172 39.1641 16.3047C38.7539 16.4805 38.3027 16.791 37.8105 17.2363C37.3184 17.6816 36.9609 18.1211 36.7383 18.5547C36.5156 18.9883 36.4043 19.4863 36.4043 20.0488V26.6055C36.4043 27.6133 36.4512 28.3164 36.5449 28.7148C36.6387 29.1016 36.8145 29.4004 37.0723 29.6113C37.3418 29.8105 37.7754 29.9863 38.373 30.1387V31H31.4824V30.1387C31.9395 29.998 32.2617 29.875 32.4492 29.7695C32.6484 29.6641 32.8125 29.5176 32.9414 29.3301C33.082 29.1426 33.1875 28.8555 33.2578 28.4688C33.3398 28.082 33.3809 27.4785 33.3809 26.6582V18.9941C33.3809 18.2441 33.3691 17.6406 33.3457 17.1836C33.3223 16.7266 33.2402 16.3633 33.0996 16.0938C32.959 15.8125 32.7422 15.6074 32.4492 15.4785C32.168 15.3379 31.7637 15.2207 31.2363 15.127V14.1953L35.3496 14.0371H36.4219L36.2285 16.9023L36.4746 16.9727C37.3418 16.0938 38.0391 15.4668 38.5664 15.0918C39.1055 14.7168 39.6445 14.4297 40.1836 14.2305C40.7344 14.0195 41.3145 13.9141 41.9238 13.9141C42.5566 13.9141 43.1191 13.9902 43.6113 14.1426C44.1152 14.2832 44.5547 14.5059 44.9297 14.8105C45.3164 15.1152 45.6328 15.4961 45.8789 15.9531C46.125 16.3984 46.3066 16.9375 46.4238 17.5703C46.5527 18.2031 46.6172 19.0059 46.6172 19.9785V26.6055C46.6172 27.4141 46.6406 28 46.6875 28.3633C46.7344 28.7266 46.8164 29.0078 46.9336 29.207C47.0508 29.4062 47.2207 29.5762 47.4434 29.7168C47.666 29.8457 48.0527 29.9863 48.6035 30.1387V31ZM56.0918 22.1055C56.0918 26.207 56.748 29.5879 58.0605 32.248C59.3848 34.9082 61.4004 36.6895 64.1074 37.5918L63.6855 38.9453C60.252 38.043 57.6211 36.0977 55.793 33.1094C53.9648 30.1328 53.0508 26.5234 53.0508 22.2812C53.0508 18.0508 53.9648 14.4414 55.793 11.4531C57.6328 8.45312 60.2637 6.50195 63.6855 5.59961L64.1602 6.95312C61.418 7.85547 59.3848 9.61914 58.0605 12.2441C56.748 14.8574 56.0918 18.1445 56.0918 22.1055ZM74.8828 23.1074H66.7266V20.3828H74.8828V23.1074ZM84.8672 20.8574L87.1523 17.957C87.3984 17.6406 87.5977 17.3359 87.75 17.043C87.9023 16.7383 87.9785 16.4277 87.9785 16.1113C87.9785 15.8418 87.8789 15.6191 87.6797 15.4434C87.4805 15.2676 87.1699 15.1387 86.748 15.0566V14.1953H92.4961V15.0566C92.0508 15.1855 91.5938 15.4375 91.125 15.8125C90.668 16.1875 90.1055 16.791 89.4375 17.623L85.7988 22.0879L89.8066 27.4844C90.3809 28.2578 90.8965 28.8496 91.3535 29.2598C91.8105 29.6699 92.2676 29.9629 92.7246 30.1387V31H85.6582V30.1387C86.6309 30.0215 87.1172 29.6582 87.1172 29.0488C87.1172 28.8027 87.0762 28.5684 86.9941 28.3457C86.9121 28.123 86.7598 27.8652 86.5371 27.5723L83.9883 24.0215L81.2812 27.5371C81.082 27.7949 80.9238 28.0352 80.8066 28.2578C80.7012 28.4688 80.6484 28.709 80.6484 28.9785C80.6484 29.2949 80.7539 29.5586 80.9648 29.7695C81.1875 29.9688 81.5332 30.0918 82.002 30.1387V31H76.1309V30.1387C76.5176 29.998 76.8633 29.8223 77.168 29.6113C77.4844 29.4004 77.8008 29.1309 78.1172 28.8027C78.4453 28.4629 78.873 27.9707 79.4004 27.3262L83.0566 22.791L79.3125 17.6582C78.7969 16.9551 78.3867 16.4453 78.082 16.1289C77.7773 15.8125 77.4961 15.5723 77.2383 15.4082C76.9805 15.2441 76.7227 15.127 76.4648 15.0566V14.1953H83.3555V15.0566C82.4297 15.1973 81.9668 15.5605 81.9668 16.1465C81.9668 16.416 82.0254 16.6855 82.1426 16.9551C82.2715 17.2246 82.4648 17.5234 82.7227 17.8516L84.8672 20.8574ZM101.865 22.1055C101.865 18.1445 101.209 14.8574 99.8965 12.2441C98.584 9.61914 96.5508 7.85547 93.7969 6.95312L94.2715 5.59961C97.6934 6.50195 100.318 8.45312 102.146 11.4531C103.986 14.4414 104.906 18.0508 104.906 22.2812C104.906 26.5234 103.992 30.1328 102.164 33.1094C100.336 36.0977 97.7051 38.043 94.2715 38.9453L93.8496 37.5918C96.5566 36.6895 98.5664 34.9082 99.8789 32.248C101.203 29.5879 101.865 26.207 101.865 22.1055ZM118.635 18.2383V15.9004H140.291V18.2383H118.635ZM118.635 25.5332V23.1953H140.291V25.5332H118.635ZM160.91 23.1074H152.754V20.3828H160.91V23.1074ZM163.459 15.0742C164.045 14.9805 164.52 14.8164 164.883 14.582C165.246 14.3477 165.527 14.0488 165.727 13.6855C165.938 13.3105 166.102 12.8477 166.219 12.2969C166.336 11.7344 166.459 10.9199 166.588 9.85352H169.084V14.1953H174.762V15.9707H169.084V23.793C169.084 24.9297 169.131 25.8379 169.225 26.5176C169.318 27.1855 169.494 27.7129 169.752 28.0996C170.01 28.4746 170.303 28.7441 170.631 28.9082C170.959 29.0723 171.381 29.1543 171.896 29.1543C172.365 29.1543 172.805 29.0605 173.215 28.873C173.625 28.6738 174.029 28.3926 174.428 28.0293L175.219 28.9785C174.387 29.7871 173.596 30.373 172.846 30.7363C172.107 31.0996 171.34 31.2812 170.543 31.2812C169.031 31.2812 167.906 30.8359 167.168 29.9453C166.43 29.043 166.061 27.6367 166.061 25.7266V15.9707H163.459V15.0742ZM186.873 28.4863L186.609 28.416C185.59 29.459 184.629 30.1973 183.727 30.6309C182.836 31.0645 181.887 31.2812 180.879 31.2812C179.988 31.2812 179.203 31.1113 178.523 30.7715C177.844 30.4199 177.322 29.9336 176.959 29.3125C176.596 28.6797 176.414 27.9531 176.414 27.1328C176.414 25.4219 177.258 24.1035 178.945 23.1777C180.645 22.2402 183.188 21.6953 186.574 21.543V20.4004C186.574 19.1816 186.457 18.2207 186.223 17.5176C185.988 16.8145 185.619 16.2988 185.115 15.9707C184.611 15.6426 183.938 15.4785 183.094 15.4785C182.18 15.4785 181.441 15.7188 180.879 16.1992C180.328 16.6797 179.912 17.4004 179.631 18.3613H177.328V16.0762C178.453 15.4902 179.391 15.0625 180.141 14.793C180.891 14.5117 181.641 14.2949 182.391 14.1426C183.141 13.9785 183.902 13.8965 184.676 13.8965C185.836 13.8965 186.768 14.084 187.471 14.459C188.174 14.8223 188.701 15.3848 189.053 16.1465C189.404 16.9082 189.58 18.0566 189.58 19.5918V25.709C189.58 26.5762 189.586 27.1914 189.598 27.5547C189.609 27.9062 189.645 28.2344 189.703 28.5391C189.762 28.8438 189.85 29.0898 189.967 29.2773C190.084 29.4531 190.254 29.6055 190.477 29.7344C190.711 29.8633 191.086 29.998 191.602 30.1387V31H186.785L186.873 28.4863ZM186.574 22.9844C184.195 23.0078 182.414 23.3242 181.23 23.9336C180.047 24.543 179.455 25.4629 179.455 26.6934C179.455 27.3613 179.59 27.8887 179.859 28.2754C180.129 28.6621 180.469 28.9316 180.879 29.084C181.289 29.2246 181.775 29.2949 182.338 29.2949C183.135 29.2949 183.855 29.1016 184.5 28.7148C185.156 28.3281 185.666 27.8359 186.029 27.2383C186.393 26.6406 186.574 26.0488 186.574 25.4629V22.9844ZM211.412 31H204.486V30.1387C204.943 29.998 205.271 29.875 205.471 29.7695C205.67 29.6641 205.834 29.5176 205.963 29.3301C206.104 29.1426 206.209 28.8555 206.279 28.4688C206.361 28.0703 206.402 27.4727 206.402 26.6758V22.0703C206.402 21.25 206.379 20.5059 206.332 19.8379C206.285 19.1699 206.203 18.625 206.086 18.2031C205.98 17.7695 205.846 17.4355 205.682 17.2012C205.529 16.9551 205.342 16.75 205.119 16.5859C204.908 16.4102 204.662 16.2754 204.381 16.1816C204.1 16.0762 203.73 16.0234 203.273 16.0234C202.816 16.0234 202.383 16.1172 201.973 16.3047C201.562 16.4805 201.111 16.791 200.619 17.2363C200.127 17.6816 199.77 18.1211 199.547 18.5547C199.324 18.9883 199.213 19.4863 199.213 20.0488V26.6055C199.213 27.6133 199.26 28.3164 199.354 28.7148C199.447 29.1016 199.623 29.4004 199.881 29.6113C200.15 29.8105 200.584 29.9863 201.182 30.1387V31H194.291V30.1387C194.748 29.998 195.07 29.875 195.258 29.7695C195.457 29.6641 195.621 29.5176 195.75 29.3301C195.891 29.1426 195.996 28.8555 196.066 28.4688C196.148 28.082 196.189 27.4785 196.189 26.6582V18.9941C196.189 18.2441 196.178 17.6406 196.154 17.1836C196.131 16.7266 196.049 16.3633 195.908 16.0938C195.768 15.8125 195.551 15.6074 195.258 15.4785C194.977 15.3379 194.572 15.2207 194.045 15.127V14.1953L198.158 14.0371H199.23L199.037 16.9023L199.283 16.9727C200.15 16.0938 200.848 15.4668 201.375 15.0918C201.914 14.7168 202.453 14.4297 202.992 14.2305C203.543 14.0195 204.123 13.9141 204.732 13.9141C205.365 13.9141 205.928 13.9902 206.42 14.1426C206.924 14.2832 207.363 14.5059 207.738 14.8105C208.125 15.1152 208.441 15.4961 208.688 15.9531C208.934 16.3984 209.115 16.9375 209.232 17.5703C209.361 18.2031 209.426 19.0059 209.426 19.9785V26.6055C209.426 27.4141 209.449 28 209.496 28.3633C209.543 28.7266 209.625 29.0078 209.742 29.207C209.859 29.4062 210.029 29.5762 210.252 29.7168C210.475 29.8457 210.861 29.9863 211.412 30.1387V31ZM218.9 22.1055C218.9 26.207 219.557 29.5879 220.869 32.248C222.193 34.9082 224.209 36.6895 226.916 37.5918L226.494 38.9453C223.061 38.043 220.43 36.0977 218.602 33.1094C216.773 30.1328 215.859 26.5234 215.859 22.2812C215.859 18.0508 216.773 14.4414 218.602 11.4531C220.441 8.45312 223.072 6.50195 226.494 5.59961L226.969 6.95312C224.227 7.85547 222.193 9.61914 220.869 12.2441C219.557 14.8574 218.9 18.1445 218.9 22.1055ZM236.777 20.8574L239.062 17.957C239.309 17.6406 239.508 17.3359 239.66 17.043C239.812 16.7383 239.889 16.4277 239.889 16.1113C239.889 15.8418 239.789 15.6191 239.59 15.4434C239.391 15.2676 239.08 15.1387 238.658 15.0566V14.1953H244.406V15.0566C243.961 15.1855 243.504 15.4375 243.035 15.8125C242.578 16.1875 242.016 16.791 241.348 17.623L237.709 22.0879L241.717 27.4844C242.291 28.2578 242.807 28.8496 243.264 29.2598C243.721 29.6699 244.178 29.9629 244.635 30.1387V31H237.568V30.1387C238.541 30.0215 239.027 29.6582 239.027 29.0488C239.027 28.8027 238.986 28.5684 238.904 28.3457C238.822 28.123 238.67 27.8652 238.447 27.5723L235.898 24.0215L233.191 27.5371C232.992 27.7949 232.834 28.0352 232.717 28.2578C232.611 28.4688 232.559 28.709 232.559 28.9785C232.559 29.2949 232.664 29.5586 232.875 29.7695C233.098 29.9688 233.443 30.0918 233.912 30.1387V31H228.041V30.1387C228.428 29.998 228.773 29.8223 229.078 29.6113C229.395 29.4004 229.711 29.1309 230.027 28.8027C230.355 28.4629 230.783 27.9707 231.311 27.3262L234.967 22.791L231.223 17.6582C230.707 16.9551 230.297 16.4453 229.992 16.1289C229.688 15.8125 229.406 15.5723 229.148 15.4082C228.891 15.2441 228.633 15.127 228.375 15.0566V14.1953H235.266V15.0566C234.34 15.1973 233.877 15.5605 233.877 16.1465C233.877 16.416 233.936 16.6855 234.053 16.9551C234.182 17.2246 234.375 17.5234 234.633 17.8516L236.777 20.8574ZM253.775 22.1055C253.775 18.1445 253.119 14.8574 251.807 12.2441C250.494 9.61914 248.461 7.85547 245.707 6.95312L246.182 5.59961C249.604 6.50195 252.229 8.45312 254.057 11.4531C255.896 14.4414 256.816 18.0508 256.816 22.2812C256.816 26.5234 255.902 30.1328 254.074 33.1094C252.246 36.0977 249.615 38.043 246.182 38.9453L245.76 37.5918C248.467 36.6895 250.477 34.9082 251.789 32.248C253.113 29.5879 253.775 26.207 253.775 22.1055Z" fill="white"/>
</svg>
