<svg width="639" height="42" viewBox="0 0 639 42" fill="none" xmlns="http://www.w3.org/2000/svg">
<path d="M13.4824 18.0449H11.7949C11.5371 17.3418 11.2324 16.791 10.8809 16.3926C10.5293 15.9824 10.1309 15.6953 9.68555 15.5312C9.24023 15.3672 8.69531 15.2852 8.05078 15.2852C7.11328 15.2852 6.36328 15.5078 5.80078 15.9531C5.25 16.3867 4.97461 16.9844 4.97461 17.7461C4.97461 18.2852 5.08594 18.7305 5.30859 19.082C5.53125 19.4336 5.87695 19.7617 6.3457 20.0664C6.81445 20.3711 7.64062 20.7754 8.82422 21.2793C10.0195 21.7949 10.9395 22.2695 11.584 22.7031C12.2402 23.1367 12.75 23.6406 13.1133 24.2148C13.4883 24.7891 13.6758 25.4746 13.6758 26.2715C13.6758 27.1973 13.5176 27.9766 13.2012 28.6094C12.8848 29.2422 12.4395 29.7578 11.8652 30.1562C11.291 30.5547 10.6055 30.8418 9.80859 31.0176C9.02344 31.1934 8.16211 31.2812 7.22461 31.2812C6.24023 31.2812 5.28516 31.2051 4.35938 31.0527C3.43359 30.9121 2.53125 30.7246 1.65234 30.4902V26.8164H3.375C3.69141 27.8945 4.16016 28.6797 4.78125 29.1719C5.40234 29.6523 6.25781 29.8926 7.34766 29.8926C7.76953 29.8926 8.17969 29.8516 8.57812 29.7695C8.98828 29.6758 9.35156 29.5293 9.66797 29.3301C9.98438 29.1191 10.2363 28.8379 10.4238 28.4863C10.6113 28.1348 10.7051 27.6953 10.7051 27.168C10.7051 26.5703 10.5879 26.084 10.3535 25.709C10.1191 25.334 9.75586 24.9941 9.26367 24.6895C8.77148 24.373 7.9043 23.9512 6.66211 23.4238C5.5957 22.9785 4.74023 22.5449 4.0957 22.123C3.45117 21.7012 2.94141 21.2031 2.56641 20.6289C2.20312 20.0547 2.02148 19.375 2.02148 18.5898C2.02148 17.6289 2.2793 16.7969 2.79492 16.0938C3.32227 15.3789 4.07812 14.834 5.0625 14.459C6.04688 14.084 7.20117 13.8965 8.52539 13.8965C9.29883 13.8965 10.043 13.9375 10.7578 14.0195C11.4844 14.0898 12.3926 14.2363 13.4824 14.459V18.0449ZM22.2012 7.30469V10.7148H18.9668V7.30469H22.2012ZM17.1738 30.1387C17.6309 29.998 17.9531 29.875 18.1406 29.7695C18.3398 29.6641 18.5039 29.5176 18.6328 29.3301C18.7734 29.1426 18.8789 28.8555 18.9492 28.4688C19.0312 28.082 19.0723 27.4785 19.0723 26.6582V18.9941C19.0723 18.2441 19.0605 17.6406 19.0371 17.1836C19.0137 16.7266 18.9316 16.3633 18.791 16.0938C18.6504 15.8125 18.4336 15.6074 18.1406 15.4785C17.8594 15.3379 17.4551 15.2207 16.9277 15.127V14.1953L21.0234 14.0371H22.0957V26.6055C22.0957 27.6133 22.1426 28.3164 22.2363 28.7148C22.3301 29.1016 22.5059 29.4004 22.7637 29.6113C23.0332 29.8105 23.4668 29.9863 24.0645 30.1387V31H17.1738V30.1387ZM44.3145 31H37.3887V30.1387C37.8457 29.998 38.1738 29.875 38.373 29.7695C38.5723 29.6641 38.7363 29.5176 38.8652 29.3301C39.0059 29.1426 39.1113 28.8555 39.1816 28.4688C39.2637 28.0703 39.3047 27.4727 39.3047 26.6758V22.0703C39.3047 21.25 39.2812 20.5059 39.2344 19.8379C39.1875 19.1699 39.1055 18.625 38.9883 18.2031C38.8828 17.7695 38.748 17.4355 38.584 17.2012C38.4316 16.9551 38.2441 16.75 38.0215 16.5859C37.8105 16.4102 37.5645 16.2754 37.2832 16.1816C37.002 16.0762 36.6328 16.0234 36.1758 16.0234C35.7188 16.0234 35.2852 16.1172 34.875 16.3047C34.4648 16.4805 34.0137 16.791 33.5215 17.2363C33.0293 17.6816 32.6719 18.1211 32.4492 18.5547C32.2266 18.9883 32.1152 19.4863 32.1152 20.0488V26.6055C32.1152 27.6133 32.1621 28.3164 32.2559 28.7148C32.3496 29.1016 32.5254 29.4004 32.7832 29.6113C33.0527 29.8105 33.4863 29.9863 34.084 30.1387V31H27.1934V30.1387C27.6504 29.998 27.9727 29.875 28.1602 29.7695C28.3594 29.6641 28.5234 29.5176 28.6523 29.3301C28.793 29.1426 28.8984 28.8555 28.9688 28.4688C29.0508 28.082 29.0918 27.4785 29.0918 26.6582V18.9941C29.0918 18.2441 29.0801 17.6406 29.0566 17.1836C29.0332 16.7266 28.9512 16.3633 28.8105 16.0938C28.6699 15.8125 28.4531 15.6074 28.1602 15.4785C27.8789 15.3379 27.4746 15.2207 26.9473 15.127V14.1953L31.0605 14.0371H32.1328L31.9395 16.9023L32.1855 16.9727C33.0527 16.0938 33.75 15.4668 34.2773 15.0918C34.8164 14.7168 35.3555 14.4297 35.8945 14.2305C36.4453 14.0195 37.0254 13.9141 37.6348 13.9141C38.2676 13.9141 38.8301 13.9902 39.3223 14.1426C39.8262 14.2832 40.2656 14.5059 40.6406 14.8105C41.0273 15.1152 41.3438 15.4961 41.5898 15.9531C41.8359 16.3984 42.0176 16.9375 42.1348 17.5703C42.2637 18.2031 42.3281 19.0059 42.3281 19.9785V26.6055C42.3281 27.4141 42.3516 28 42.3984 28.3633C42.4453 28.7266 42.5273 29.0078 42.6445 29.207C42.7617 29.4062 42.9316 29.5762 43.1543 29.7168C43.377 29.8457 43.7637 29.9863 44.3145 30.1387V31ZM51.8027 22.1055C51.8027 26.207 52.459 29.5879 53.7715 32.248C55.0957 34.9082 57.1113 36.6895 59.8184 37.5918L59.3965 38.9453C55.9629 38.043 53.332 36.0977 51.5039 33.1094C49.6758 30.1328 48.7617 26.5234 48.7617 22.2812C48.7617 18.0508 49.6758 14.4414 51.5039 11.4531C53.3438 8.45312 55.9746 6.50195 59.3965 5.59961L59.8711 6.95312C57.1289 7.85547 55.0957 9.61914 53.7715 12.2441C52.459 14.8574 51.8027 18.1445 51.8027 22.1055ZM69.6797 20.8574L71.9648 17.957C72.2109 17.6406 72.4102 17.3359 72.5625 17.043C72.7148 16.7383 72.791 16.4277 72.791 16.1113C72.791 15.8418 72.6914 15.6191 72.4922 15.4434C72.293 15.2676 71.9824 15.1387 71.5605 15.0566V14.1953H77.3086V15.0566C76.8633 15.1855 76.4062 15.4375 75.9375 15.8125C75.4805 16.1875 74.918 16.791 74.25 17.623L70.6113 22.0879L74.6191 27.4844C75.1934 28.2578 75.709 28.8496 76.166 29.2598C76.623 29.6699 77.0801 29.9629 77.5371 30.1387V31H70.4707V30.1387C71.4434 30.0215 71.9297 29.6582 71.9297 29.0488C71.9297 28.8027 71.8887 28.5684 71.8066 28.3457C71.7246 28.123 71.5723 27.8652 71.3496 27.5723L68.8008 24.0215L66.0938 27.5371C65.8945 27.7949 65.7363 28.0352 65.6191 28.2578C65.5137 28.4688 65.4609 28.709 65.4609 28.9785C65.4609 29.2949 65.5664 29.5586 65.7773 29.7695C66 29.9688 66.3457 30.0918 66.8145 30.1387V31H60.9434V30.1387C61.3301 29.998 61.6758 29.8223 61.9805 29.6113C62.2969 29.4004 62.6133 29.1309 62.9297 28.8027C63.2578 28.4629 63.6855 27.9707 64.2129 27.3262L67.8691 22.791L64.125 17.6582C63.6094 16.9551 63.1992 16.4453 62.8945 16.1289C62.5898 15.8125 62.3086 15.5723 62.0508 15.4082C61.793 15.2441 61.5352 15.127 61.2773 15.0566V14.1953H68.168V15.0566C67.2422 15.1973 66.7793 15.5605 66.7793 16.1465C66.7793 16.416 66.8379 16.6855 66.9551 16.9551C67.084 17.2246 67.2773 17.5234 67.5352 17.8516L69.6797 20.8574ZM100.582 21.877V32.002H98.0859V21.877H88.5059V19.5391H98.0859V9.41406H100.582V19.5391H110.162V21.877H100.582ZM129.867 32.4414C129.223 33.8945 128.596 35.0723 127.986 35.9746C127.377 36.877 126.703 37.5566 125.965 38.0137C125.238 38.4707 124.371 38.6992 123.363 38.6992C122.719 38.6992 121.992 38.623 121.184 38.4707V34.9902H122.748C122.889 35.4707 123.064 35.8047 123.275 35.9922C123.486 36.1797 123.791 36.2734 124.189 36.2734C124.541 36.2734 124.852 36.2031 125.121 36.0625C125.402 35.9336 125.689 35.7051 125.982 35.377C126.287 35.0488 126.639 34.5449 127.037 33.8652C127.447 33.1855 127.904 32.3242 128.408 31.2812L123.486 18.0449C123.17 17.1895 122.912 16.5918 122.713 16.252C122.525 15.9121 122.32 15.6543 122.098 15.4785C121.875 15.3027 121.535 15.1621 121.078 15.0566V14.1953H128.232V15.0566C127.682 15.1855 127.295 15.3145 127.072 15.4434C126.85 15.5605 126.686 15.7188 126.58 15.918C126.475 16.1055 126.422 16.3516 126.422 16.6562C126.422 16.9727 126.457 17.3008 126.527 17.6406C126.609 17.9805 126.732 18.3789 126.896 18.8359L130.025 27.6426L133.541 19.2051C133.74 18.7363 133.893 18.3086 133.998 17.9219C134.115 17.5234 134.174 17.1543 134.174 16.8145C134.174 16.3105 134.033 15.9297 133.752 15.6719C133.482 15.4141 133.008 15.209 132.328 15.0566V14.1953H138.902V15.0566C138.445 15.1504 138.094 15.2969 137.848 15.4961C137.602 15.6836 137.355 15.9883 137.109 16.4102C136.863 16.8203 136.57 17.4004 136.23 18.1504L129.867 32.4414ZM147.604 22.1055C147.604 18.1445 146.947 14.8574 145.635 12.2441C144.322 9.61914 142.289 7.85547 139.535 6.95312L140.01 5.59961C143.432 6.50195 146.057 8.45312 147.885 11.4531C149.725 14.4414 150.645 18.0508 150.645 22.2812C150.645 26.5234 149.73 30.1328 147.902 33.1094C146.074 36.0977 143.443 38.043 140.01 38.9453L139.588 37.5918C142.295 36.6895 144.305 34.9082 145.617 32.248C146.941 29.5879 147.604 26.207 147.604 22.1055ZM164.373 18.2383V15.9004H186.029V18.2383H164.373ZM164.373 25.5332V23.1953H186.029V25.5332H164.373ZM210.076 18.0449H208.389C208.131 17.3418 207.826 16.791 207.475 16.3926C207.123 15.9824 206.725 15.6953 206.279 15.5312C205.834 15.3672 205.289 15.2852 204.645 15.2852C203.707 15.2852 202.957 15.5078 202.395 15.9531C201.844 16.3867 201.568 16.9844 201.568 17.7461C201.568 18.2852 201.68 18.7305 201.902 19.082C202.125 19.4336 202.471 19.7617 202.939 20.0664C203.408 20.3711 204.234 20.7754 205.418 21.2793C206.613 21.7949 207.533 22.2695 208.178 22.7031C208.834 23.1367 209.344 23.6406 209.707 24.2148C210.082 24.7891 210.27 25.4746 210.27 26.2715C210.27 27.1973 210.111 27.9766 209.795 28.6094C209.479 29.2422 209.033 29.7578 208.459 30.1562C207.885 30.5547 207.199 30.8418 206.402 31.0176C205.617 31.1934 204.756 31.2812 203.818 31.2812C202.834 31.2812 201.879 31.2051 200.953 31.0527C200.027 30.9121 199.125 30.7246 198.246 30.4902V26.8164H199.969C200.285 27.8945 200.754 28.6797 201.375 29.1719C201.996 29.6523 202.852 29.8926 203.941 29.8926C204.363 29.8926 204.773 29.8516 205.172 29.7695C205.582 29.6758 205.945 29.5293 206.262 29.3301C206.578 29.1191 206.83 28.8379 207.018 28.4863C207.205 28.1348 207.299 27.6953 207.299 27.168C207.299 26.5703 207.182 26.084 206.947 25.709C206.713 25.334 206.35 24.9941 205.857 24.6895C205.365 24.373 204.498 23.9512 203.256 23.4238C202.189 22.9785 201.334 22.5449 200.689 22.123C200.045 21.7012 199.535 21.2031 199.16 20.6289C198.797 20.0547 198.615 19.375 198.615 18.5898C198.615 17.6289 198.873 16.7969 199.389 16.0938C199.916 15.3789 200.672 14.834 201.656 14.459C202.641 14.084 203.795 13.8965 205.119 13.8965C205.893 13.8965 206.637 13.9375 207.352 14.0195C208.078 14.0898 208.986 14.2363 210.076 14.459V18.0449ZM218.795 7.30469V10.7148H215.561V7.30469H218.795ZM213.768 30.1387C214.225 29.998 214.547 29.875 214.734 29.7695C214.934 29.6641 215.098 29.5176 215.227 29.3301C215.367 29.1426 215.473 28.8555 215.543 28.4688C215.625 28.082 215.666 27.4785 215.666 26.6582V18.9941C215.666 18.2441 215.654 17.6406 215.631 17.1836C215.607 16.7266 215.525 16.3633 215.385 16.0938C215.244 15.8125 215.027 15.6074 214.734 15.4785C214.453 15.3379 214.049 15.2207 213.521 15.127V14.1953L217.617 14.0371H218.689V26.6055C218.689 27.6133 218.736 28.3164 218.83 28.7148C218.924 29.1016 219.1 29.4004 219.357 29.6113C219.627 29.8105 220.061 29.9863 220.658 30.1387V31H213.768V30.1387ZM240.908 31H233.982V30.1387C234.439 29.998 234.768 29.875 234.967 29.7695C235.166 29.6641 235.33 29.5176 235.459 29.3301C235.6 29.1426 235.705 28.8555 235.775 28.4688C235.857 28.0703 235.898 27.4727 235.898 26.6758V22.0703C235.898 21.25 235.875 20.5059 235.828 19.8379C235.781 19.1699 235.699 18.625 235.582 18.2031C235.477 17.7695 235.342 17.4355 235.178 17.2012C235.025 16.9551 234.838 16.75 234.615 16.5859C234.404 16.4102 234.158 16.2754 233.877 16.1816C233.596 16.0762 233.227 16.0234 232.77 16.0234C232.312 16.0234 231.879 16.1172 231.469 16.3047C231.059 16.4805 230.607 16.791 230.115 17.2363C229.623 17.6816 229.266 18.1211 229.043 18.5547C228.82 18.9883 228.709 19.4863 228.709 20.0488V26.6055C228.709 27.6133 228.756 28.3164 228.85 28.7148C228.943 29.1016 229.119 29.4004 229.377 29.6113C229.646 29.8105 230.08 29.9863 230.678 30.1387V31H223.787V30.1387C224.244 29.998 224.566 29.875 224.754 29.7695C224.953 29.6641 225.117 29.5176 225.246 29.3301C225.387 29.1426 225.492 28.8555 225.562 28.4688C225.645 28.082 225.686 27.4785 225.686 26.6582V18.9941C225.686 18.2441 225.674 17.6406 225.65 17.1836C225.627 16.7266 225.545 16.3633 225.404 16.0938C225.264 15.8125 225.047 15.6074 224.754 15.4785C224.473 15.3379 224.068 15.2207 223.541 15.127V14.1953L227.654 14.0371H228.727L228.533 16.9023L228.779 16.9727C229.646 16.0938 230.344 15.4668 230.871 15.0918C231.41 14.7168 231.949 14.4297 232.488 14.2305C233.039 14.0195 233.619 13.9141 234.229 13.9141C234.861 13.9141 235.424 13.9902 235.916 14.1426C236.42 14.2832 236.859 14.5059 237.234 14.8105C237.621 15.1152 237.938 15.4961 238.184 15.9531C238.43 16.3984 238.611 16.9375 238.729 17.5703C238.857 18.2031 238.922 19.0059 238.922 19.9785V26.6055C238.922 27.4141 238.945 28 238.992 28.3633C239.039 28.7266 239.121 29.0078 239.238 29.207C239.355 29.4062 239.525 29.5762 239.748 29.7168C239.971 29.8457 240.357 29.9863 240.908 30.1387V31ZM248.396 22.1055C248.396 26.207 249.053 29.5879 250.365 32.248C251.689 34.9082 253.705 36.6895 256.412 37.5918L255.99 38.9453C252.557 38.043 249.926 36.0977 248.098 33.1094C246.27 30.1328 245.355 26.5234 245.355 22.2812C245.355 18.0508 246.27 14.4414 248.098 11.4531C249.938 8.45312 252.568 6.50195 255.99 5.59961L256.465 6.95312C253.723 7.85547 251.689 9.61914 250.365 12.2441C249.053 14.8574 248.396 18.1445 248.396 22.1055ZM266.273 20.8574L268.559 17.957C268.805 17.6406 269.004 17.3359 269.156 17.043C269.309 16.7383 269.385 16.4277 269.385 16.1113C269.385 15.8418 269.285 15.6191 269.086 15.4434C268.887 15.2676 268.576 15.1387 268.154 15.0566V14.1953H273.902V15.0566C273.457 15.1855 273 15.4375 272.531 15.8125C272.074 16.1875 271.512 16.791 270.844 17.623L267.205 22.0879L271.213 27.4844C271.787 28.2578 272.303 28.8496 272.76 29.2598C273.217 29.6699 273.674 29.9629 274.131 30.1387V31H267.064V30.1387C268.037 30.0215 268.523 29.6582 268.523 29.0488C268.523 28.8027 268.482 28.5684 268.4 28.3457C268.318 28.123 268.166 27.8652 267.943 27.5723L265.395 24.0215L262.688 27.5371C262.488 27.7949 262.33 28.0352 262.213 28.2578C262.107 28.4688 262.055 28.709 262.055 28.9785C262.055 29.2949 262.16 29.5586 262.371 29.7695C262.594 29.9688 262.939 30.0918 263.408 30.1387V31H257.537V30.1387C257.924 29.998 258.27 29.8223 258.574 29.6113C258.891 29.4004 259.207 29.1309 259.523 28.8027C259.852 28.4629 260.279 27.9707 260.807 27.3262L264.463 22.791L260.719 17.6582C260.203 16.9551 259.793 16.4453 259.488 16.1289C259.184 15.8125 258.902 15.5723 258.645 15.4082C258.387 15.2441 258.129 15.127 257.871 15.0566V14.1953H264.762V15.0566C263.836 15.1973 263.373 15.5605 263.373 16.1465C263.373 16.416 263.432 16.6855 263.549 16.9551C263.678 17.2246 263.871 17.5234 264.129 17.8516L266.273 20.8574ZM283.271 22.1055C283.271 18.1445 282.615 14.8574 281.303 12.2441C279.99 9.61914 277.957 7.85547 275.203 6.95312L275.678 5.59961C279.1 6.50195 281.725 8.45312 283.553 11.4531C285.393 14.4414 286.312 18.0508 286.312 22.2812C286.312 26.5234 285.398 30.1328 283.57 33.1094C281.742 36.0977 279.111 38.043 275.678 38.9453L275.256 37.5918C277.963 36.6895 279.973 34.9082 281.285 32.248C282.609 29.5879 283.271 26.207 283.271 22.1055ZM312.223 14.5996V18.2734H309.99C309.791 17.5117 309.545 16.9141 309.252 16.4805C308.959 16.0352 308.619 15.7246 308.232 15.5488C307.846 15.373 307.365 15.2852 306.791 15.2852C305.971 15.2852 305.244 15.5488 304.611 16.0762C303.979 16.6035 303.475 17.4062 303.1 18.4844C302.736 19.5625 302.555 20.8809 302.555 22.4395C302.555 23.4355 302.625 24.3496 302.766 25.1816C302.906 26.002 303.146 26.7051 303.486 27.291C303.826 27.877 304.277 28.334 304.84 28.6621C305.402 28.9902 306.1 29.1543 306.932 29.1543C307.74 29.1543 308.49 28.9961 309.182 28.6797C309.885 28.3633 310.611 27.8066 311.361 27.0098L312.363 28.1699C311.766 28.8262 311.238 29.3359 310.781 29.6992C310.324 30.0508 309.832 30.3496 309.305 30.5957C308.789 30.8301 308.273 31 307.758 31.1055C307.254 31.2227 306.703 31.2812 306.105 31.2812C303.891 31.2812 302.197 30.5488 301.025 29.084C299.854 27.6074 299.268 25.4805 299.268 22.7031C299.268 20.9688 299.596 19.4336 300.252 18.0977C300.908 16.75 301.828 15.7129 303.012 14.9863C304.195 14.2598 305.561 13.8965 307.107 13.8965C308.068 13.8965 308.953 13.9551 309.762 14.0723C310.582 14.1777 311.402 14.3535 312.223 14.5996ZM322.664 31.2812C320.227 31.2812 318.363 30.5664 317.074 29.1367C315.797 27.6953 315.158 25.5684 315.158 22.7559C315.158 20.8223 315.492 19.1875 316.16 17.8516C316.84 16.5156 317.766 15.5254 318.938 14.8809C320.109 14.2246 321.445 13.8965 322.945 13.8965C325.453 13.8965 327.352 14.6289 328.641 16.0938C329.93 17.5469 330.574 19.6387 330.574 22.3691C330.574 24.3145 330.252 25.9551 329.607 27.291C328.963 28.627 328.049 29.6289 326.865 30.2969C325.682 30.9531 324.281 31.2812 322.664 31.2812ZM318.48 22.3867C318.48 24.8008 318.861 26.6582 319.623 27.959C320.396 29.248 321.498 29.8926 322.928 29.8926C323.713 29.8926 324.381 29.7051 324.932 29.3301C325.482 28.9434 325.928 28.4277 326.268 27.7832C326.619 27.1387 326.871 26.3945 327.023 25.5508C327.176 24.6953 327.252 23.8047 327.252 22.8789C327.252 21.1562 327.059 19.7266 326.672 18.5898C326.297 17.4531 325.781 16.6211 325.125 16.0938C324.469 15.5547 323.719 15.2852 322.875 15.2852C321.457 15.2852 320.367 15.9004 319.605 17.1309C318.855 18.3613 318.48 20.1133 318.48 22.3867ZM345.92 18.0449H344.232C343.975 17.3418 343.67 16.791 343.318 16.3926C342.967 15.9824 342.568 15.6953 342.123 15.5312C341.678 15.3672 341.133 15.2852 340.488 15.2852C339.551 15.2852 338.801 15.5078 338.238 15.9531C337.688 16.3867 337.412 16.9844 337.412 17.7461C337.412 18.2852 337.523 18.7305 337.746 19.082C337.969 19.4336 338.314 19.7617 338.783 20.0664C339.252 20.3711 340.078 20.7754 341.262 21.2793C342.457 21.7949 343.377 22.2695 344.021 22.7031C344.678 23.1367 345.188 23.6406 345.551 24.2148C345.926 24.7891 346.113 25.4746 346.113 26.2715C346.113 27.1973 345.955 27.9766 345.639 28.6094C345.322 29.2422 344.877 29.7578 344.303 30.1562C343.729 30.5547 343.043 30.8418 342.246 31.0176C341.461 31.1934 340.6 31.2812 339.662 31.2812C338.678 31.2812 337.723 31.2051 336.797 31.0527C335.871 30.9121 334.969 30.7246 334.09 30.4902V26.8164H335.812C336.129 27.8945 336.598 28.6797 337.219 29.1719C337.84 29.6523 338.695 29.8926 339.785 29.8926C340.207 29.8926 340.617 29.8516 341.016 29.7695C341.426 29.6758 341.789 29.5293 342.105 29.3301C342.422 29.1191 342.674 28.8379 342.861 28.4863C343.049 28.1348 343.143 27.6953 343.143 27.168C343.143 26.5703 343.025 26.084 342.791 25.709C342.557 25.334 342.193 24.9941 341.701 24.6895C341.209 24.373 340.342 23.9512 339.1 23.4238C338.033 22.9785 337.178 22.5449 336.533 22.123C335.889 21.7012 335.379 21.2031 335.004 20.6289C334.641 20.0547 334.459 19.375 334.459 18.5898C334.459 17.6289 334.717 16.7969 335.232 16.0938C335.76 15.3789 336.516 14.834 337.5 14.459C338.484 14.084 339.639 13.8965 340.963 13.8965C341.736 13.8965 342.48 13.9375 343.195 14.0195C343.922 14.0898 344.83 14.2363 345.92 14.459V18.0449ZM354.111 22.1055C354.111 26.207 354.768 29.5879 356.08 32.248C357.404 34.9082 359.42 36.6895 362.127 37.5918L361.705 38.9453C358.271 38.043 355.641 36.0977 353.812 33.1094C351.984 30.1328 351.07 26.5234 351.07 22.2812C351.07 18.0508 351.984 14.4414 353.812 11.4531C355.652 8.45312 358.283 6.50195 361.705 5.59961L362.18 6.95312C359.438 7.85547 357.404 9.61914 356.08 12.2441C354.768 14.8574 354.111 18.1445 354.111 22.1055ZM371.988 32.4414C371.344 33.8945 370.717 35.0723 370.107 35.9746C369.498 36.877 368.824 37.5566 368.086 38.0137C367.359 38.4707 366.492 38.6992 365.484 38.6992C364.84 38.6992 364.113 38.623 363.305 38.4707V34.9902H364.869C365.01 35.4707 365.186 35.8047 365.396 35.9922C365.607 36.1797 365.912 36.2734 366.311 36.2734C366.662 36.2734 366.973 36.2031 367.242 36.0625C367.523 35.9336 367.811 35.7051 368.104 35.377C368.408 35.0488 368.76 34.5449 369.158 33.8652C369.568 33.1855 370.025 32.3242 370.529 31.2812L365.607 18.0449C365.291 17.1895 365.033 16.5918 364.834 16.252C364.646 15.9121 364.441 15.6543 364.219 15.4785C363.996 15.3027 363.656 15.1621 363.199 15.0566V14.1953H370.354V15.0566C369.803 15.1855 369.416 15.3145 369.193 15.4434C368.971 15.5605 368.807 15.7188 368.701 15.918C368.596 16.1055 368.543 16.3516 368.543 16.6562C368.543 16.9727 368.578 17.3008 368.648 17.6406C368.73 17.9805 368.854 18.3789 369.018 18.8359L372.146 27.6426L375.662 19.2051C375.861 18.7363 376.014 18.3086 376.119 17.9219C376.236 17.5234 376.295 17.1543 376.295 16.8145C376.295 16.3105 376.154 15.9297 375.873 15.6719C375.604 15.4141 375.129 15.209 374.449 15.0566V14.1953H381.023V15.0566C380.566 15.1504 380.215 15.2969 379.969 15.4961C379.723 15.6836 379.477 15.9883 379.23 16.4102C378.984 16.8203 378.691 17.4004 378.352 18.1504L371.988 32.4414ZM389.725 22.1055C389.725 18.1445 389.068 14.8574 387.756 12.2441C386.443 9.61914 384.41 7.85547 381.656 6.95312L382.131 5.59961C385.553 6.50195 388.178 8.45312 390.006 11.4531C391.846 14.4414 392.766 18.0508 392.766 22.2812C392.766 26.5234 391.852 30.1328 390.023 33.1094C388.195 36.0977 385.564 38.043 382.131 38.9453L381.709 37.5918C384.416 36.6895 386.426 34.9082 387.738 32.248C389.062 29.5879 389.725 26.207 389.725 22.1055ZM418.57 21.877V32.002H416.074V21.877H406.494V19.5391H416.074V9.41406H418.57V19.5391H428.15V21.877H418.57ZM453.516 14.5996V18.2734H451.283C451.084 17.5117 450.838 16.9141 450.545 16.4805C450.252 16.0352 449.912 15.7246 449.525 15.5488C449.139 15.373 448.658 15.2852 448.084 15.2852C447.264 15.2852 446.537 15.5488 445.904 16.0762C445.271 16.6035 444.768 17.4062 444.393 18.4844C444.029 19.5625 443.848 20.8809 443.848 22.4395C443.848 23.4355 443.918 24.3496 444.059 25.1816C444.199 26.002 444.439 26.7051 444.779 27.291C445.119 27.877 445.57 28.334 446.133 28.6621C446.695 28.9902 447.393 29.1543 448.225 29.1543C449.033 29.1543 449.783 28.9961 450.475 28.6797C451.178 28.3633 451.904 27.8066 452.654 27.0098L453.656 28.1699C453.059 28.8262 452.531 29.3359 452.074 29.6992C451.617 30.0508 451.125 30.3496 450.598 30.5957C450.082 30.8301 449.566 31 449.051 31.1055C448.547 31.2227 447.996 31.2812 447.398 31.2812C445.184 31.2812 443.49 30.5488 442.318 29.084C441.146 27.6074 440.561 25.4805 440.561 22.7031C440.561 20.9688 440.889 19.4336 441.545 18.0977C442.201 16.75 443.121 15.7129 444.305 14.9863C445.488 14.2598 446.854 13.8965 448.4 13.8965C449.361 13.8965 450.246 13.9551 451.055 14.0723C451.875 14.1777 452.695 14.3535 453.516 14.5996ZM463.957 31.2812C461.52 31.2812 459.656 30.5664 458.367 29.1367C457.09 27.6953 456.451 25.5684 456.451 22.7559C456.451 20.8223 456.785 19.1875 457.453 17.8516C458.133 16.5156 459.059 15.5254 460.23 14.8809C461.402 14.2246 462.738 13.8965 464.238 13.8965C466.746 13.8965 468.645 14.6289 469.934 16.0938C471.223 17.5469 471.867 19.6387 471.867 22.3691C471.867 24.3145 471.545 25.9551 470.9 27.291C470.256 28.627 469.342 29.6289 468.158 30.2969C466.975 30.9531 465.574 31.2812 463.957 31.2812ZM459.773 22.3867C459.773 24.8008 460.154 26.6582 460.916 27.959C461.689 29.248 462.791 29.8926 464.221 29.8926C465.006 29.8926 465.674 29.7051 466.225 29.3301C466.775 28.9434 467.221 28.4277 467.561 27.7832C467.912 27.1387 468.164 26.3945 468.316 25.5508C468.469 24.6953 468.545 23.8047 468.545 22.8789C468.545 21.1562 468.352 19.7266 467.965 18.5898C467.59 17.4531 467.074 16.6211 466.418 16.0938C465.762 15.5547 465.012 15.2852 464.168 15.2852C462.75 15.2852 461.66 15.9004 460.898 17.1309C460.148 18.3613 459.773 20.1133 459.773 22.3867ZM487.213 18.0449H485.525C485.268 17.3418 484.963 16.791 484.611 16.3926C484.26 15.9824 483.861 15.6953 483.416 15.5312C482.971 15.3672 482.426 15.2852 481.781 15.2852C480.844 15.2852 480.094 15.5078 479.531 15.9531C478.98 16.3867 478.705 16.9844 478.705 17.7461C478.705 18.2852 478.816 18.7305 479.039 19.082C479.262 19.4336 479.607 19.7617 480.076 20.0664C480.545 20.3711 481.371 20.7754 482.555 21.2793C483.75 21.7949 484.67 22.2695 485.314 22.7031C485.971 23.1367 486.48 23.6406 486.844 24.2148C487.219 24.7891 487.406 25.4746 487.406 26.2715C487.406 27.1973 487.248 27.9766 486.932 28.6094C486.615 29.2422 486.17 29.7578 485.596 30.1562C485.021 30.5547 484.336 30.8418 483.539 31.0176C482.754 31.1934 481.893 31.2812 480.955 31.2812C479.971 31.2812 479.016 31.2051 478.09 31.0527C477.164 30.9121 476.262 30.7246 475.383 30.4902V26.8164H477.105C477.422 27.8945 477.891 28.6797 478.512 29.1719C479.133 29.6523 479.988 29.8926 481.078 29.8926C481.5 29.8926 481.91 29.8516 482.309 29.7695C482.719 29.6758 483.082 29.5293 483.398 29.3301C483.715 29.1191 483.967 28.8379 484.154 28.4863C484.342 28.1348 484.436 27.6953 484.436 27.168C484.436 26.5703 484.318 26.084 484.084 25.709C483.85 25.334 483.486 24.9941 482.994 24.6895C482.502 24.373 481.635 23.9512 480.393 23.4238C479.326 22.9785 478.471 22.5449 477.826 22.123C477.182 21.7012 476.672 21.2031 476.297 20.6289C475.934 20.0547 475.752 19.375 475.752 18.5898C475.752 17.6289 476.01 16.7969 476.525 16.0938C477.053 15.3789 477.809 14.834 478.793 14.459C479.777 14.084 480.932 13.8965 482.256 13.8965C483.029 13.8965 483.773 13.9375 484.488 14.0195C485.215 14.0898 486.123 14.2363 487.213 14.459V18.0449ZM495.404 22.1055C495.404 26.207 496.061 29.5879 497.373 32.248C498.697 34.9082 500.713 36.6895 503.42 37.5918L502.998 38.9453C499.564 38.043 496.934 36.0977 495.105 33.1094C493.277 30.1328 492.363 26.5234 492.363 22.2812C492.363 18.0508 493.277 14.4414 495.105 11.4531C496.945 8.45312 499.576 6.50195 502.998 5.59961L503.473 6.95312C500.73 7.85547 498.697 9.61914 497.373 12.2441C496.061 14.8574 495.404 18.1445 495.404 22.1055ZM513.281 20.8574L515.566 17.957C515.812 17.6406 516.012 17.3359 516.164 17.043C516.316 16.7383 516.393 16.4277 516.393 16.1113C516.393 15.8418 516.293 15.6191 516.094 15.4434C515.895 15.2676 515.584 15.1387 515.162 15.0566V14.1953H520.91V15.0566C520.465 15.1855 520.008 15.4375 519.539 15.8125C519.082 16.1875 518.52 16.791 517.852 17.623L514.213 22.0879L518.221 27.4844C518.795 28.2578 519.311 28.8496 519.768 29.2598C520.225 29.6699 520.682 29.9629 521.139 30.1387V31H514.072V30.1387C515.045 30.0215 515.531 29.6582 515.531 29.0488C515.531 28.8027 515.49 28.5684 515.408 28.3457C515.326 28.123 515.174 27.8652 514.951 27.5723L512.402 24.0215L509.695 27.5371C509.496 27.7949 509.338 28.0352 509.221 28.2578C509.115 28.4688 509.062 28.709 509.062 28.9785C509.062 29.2949 509.168 29.5586 509.379 29.7695C509.602 29.9688 509.947 30.0918 510.416 30.1387V31H504.545V30.1387C504.932 29.998 505.277 29.8223 505.582 29.6113C505.898 29.4004 506.215 29.1309 506.531 28.8027C506.859 28.4629 507.287 27.9707 507.814 27.3262L511.471 22.791L507.727 17.6582C507.211 16.9551 506.801 16.4453 506.496 16.1289C506.191 15.8125 505.91 15.5723 505.652 15.4082C505.395 15.2441 505.137 15.127 504.879 15.0566V14.1953H511.77V15.0566C510.844 15.1973 510.381 15.5605 510.381 16.1465C510.381 16.416 510.439 16.6855 510.557 16.9551C510.686 17.2246 510.879 17.5234 511.137 17.8516L513.281 20.8574ZM530.279 22.1055C530.279 18.1445 529.623 14.8574 528.311 12.2441C526.998 9.61914 524.965 7.85547 522.211 6.95312L522.686 5.59961C526.107 6.50195 528.732 8.45312 530.561 11.4531C532.4 14.4414 533.32 18.0508 533.32 22.2812C533.32 26.5234 532.406 30.1328 530.578 33.1094C528.75 36.0977 526.119 38.043 522.686 38.9453L522.264 37.5918C524.971 36.6895 526.98 34.9082 528.293 32.248C529.617 29.5879 530.279 26.207 530.279 22.1055ZM557.912 18.0449H556.225C555.967 17.3418 555.662 16.791 555.311 16.3926C554.959 15.9824 554.561 15.6953 554.115 15.5312C553.67 15.3672 553.125 15.2852 552.48 15.2852C551.543 15.2852 550.793 15.5078 550.23 15.9531C549.68 16.3867 549.404 16.9844 549.404 17.7461C549.404 18.2852 549.516 18.7305 549.738 19.082C549.961 19.4336 550.307 19.7617 550.775 20.0664C551.244 20.3711 552.07 20.7754 553.254 21.2793C554.449 21.7949 555.369 22.2695 556.014 22.7031C556.67 23.1367 557.18 23.6406 557.543 24.2148C557.918 24.7891 558.105 25.4746 558.105 26.2715C558.105 27.1973 557.947 27.9766 557.631 28.6094C557.314 29.2422 556.869 29.7578 556.295 30.1562C555.721 30.5547 555.035 30.8418 554.238 31.0176C553.453 31.1934 552.592 31.2812 551.654 31.2812C550.67 31.2812 549.715 31.2051 548.789 31.0527C547.863 30.9121 546.961 30.7246 546.082 30.4902V26.8164H547.805C548.121 27.8945 548.59 28.6797 549.211 29.1719C549.832 29.6523 550.688 29.8926 551.777 29.8926C552.199 29.8926 552.609 29.8516 553.008 29.7695C553.418 29.6758 553.781 29.5293 554.098 29.3301C554.414 29.1191 554.666 28.8379 554.854 28.4863C555.041 28.1348 555.135 27.6953 555.135 27.168C555.135 26.5703 555.018 26.084 554.783 25.709C554.549 25.334 554.186 24.9941 553.693 24.6895C553.201 24.373 552.334 23.9512 551.092 23.4238C550.025 22.9785 549.17 22.5449 548.525 22.123C547.881 21.7012 547.371 21.2031 546.996 20.6289C546.633 20.0547 546.451 19.375 546.451 18.5898C546.451 17.6289 546.709 16.7969 547.225 16.0938C547.752 15.3789 548.508 14.834 549.492 14.459C550.477 14.084 551.631 13.8965 552.955 13.8965C553.729 13.8965 554.473 13.9375 555.188 14.0195C555.914 14.0898 556.822 14.2363 557.912 14.459V18.0449ZM566.631 7.30469V10.7148H563.396V7.30469H566.631ZM561.604 30.1387C562.061 29.998 562.383 29.875 562.57 29.7695C562.77 29.6641 562.934 29.5176 563.062 29.3301C563.203 29.1426 563.309 28.8555 563.379 28.4688C563.461 28.082 563.502 27.4785 563.502 26.6582V18.9941C563.502 18.2441 563.49 17.6406 563.467 17.1836C563.443 16.7266 563.361 16.3633 563.221 16.0938C563.08 15.8125 562.863 15.6074 562.57 15.4785C562.289 15.3379 561.885 15.2207 561.357 15.127V14.1953L565.453 14.0371H566.525V26.6055C566.525 27.6133 566.572 28.3164 566.666 28.7148C566.76 29.1016 566.936 29.4004 567.193 29.6113C567.463 29.8105 567.896 29.9863 568.494 30.1387V31H561.604V30.1387ZM588.744 31H581.818V30.1387C582.275 29.998 582.604 29.875 582.803 29.7695C583.002 29.6641 583.166 29.5176 583.295 29.3301C583.436 29.1426 583.541 28.8555 583.611 28.4688C583.693 28.0703 583.734 27.4727 583.734 26.6758V22.0703C583.734 21.25 583.711 20.5059 583.664 19.8379C583.617 19.1699 583.535 18.625 583.418 18.2031C583.312 17.7695 583.178 17.4355 583.014 17.2012C582.861 16.9551 582.674 16.75 582.451 16.5859C582.24 16.4102 581.994 16.2754 581.713 16.1816C581.432 16.0762 581.062 16.0234 580.605 16.0234C580.148 16.0234 579.715 16.1172 579.305 16.3047C578.895 16.4805 578.443 16.791 577.951 17.2363C577.459 17.6816 577.102 18.1211 576.879 18.5547C576.656 18.9883 576.545 19.4863 576.545 20.0488V26.6055C576.545 27.6133 576.592 28.3164 576.686 28.7148C576.779 29.1016 576.955 29.4004 577.213 29.6113C577.482 29.8105 577.916 29.9863 578.514 30.1387V31H571.623V30.1387C572.08 29.998 572.402 29.875 572.59 29.7695C572.789 29.6641 572.953 29.5176 573.082 29.3301C573.223 29.1426 573.328 28.8555 573.398 28.4688C573.48 28.082 573.521 27.4785 573.521 26.6582V18.9941C573.521 18.2441 573.51 17.6406 573.486 17.1836C573.463 16.7266 573.381 16.3633 573.24 16.0938C573.1 15.8125 572.883 15.6074 572.59 15.4785C572.309 15.3379 571.904 15.2207 571.377 15.127V14.1953L575.49 14.0371H576.562L576.369 16.9023L576.615 16.9727C577.482 16.0938 578.18 15.4668 578.707 15.0918C579.246 14.7168 579.785 14.4297 580.324 14.2305C580.875 14.0195 581.455 13.9141 582.064 13.9141C582.697 13.9141 583.26 13.9902 583.752 14.1426C584.256 14.2832 584.695 14.5059 585.07 14.8105C585.457 15.1152 585.773 15.4961 586.02 15.9531C586.266 16.3984 586.447 16.9375 586.564 17.5703C586.693 18.2031 586.758 19.0059 586.758 19.9785V26.6055C586.758 27.4141 586.781 28 586.828 28.3633C586.875 28.7266 586.957 29.0078 587.074 29.207C587.191 29.4062 587.361 29.5762 587.584 29.7168C587.807 29.8457 588.193 29.9863 588.744 30.1387V31ZM596.232 22.1055C596.232 26.207 596.889 29.5879 598.201 32.248C599.525 34.9082 601.541 36.6895 604.248 37.5918L603.826 38.9453C600.393 38.043 597.762 36.0977 595.934 33.1094C594.105 30.1328 593.191 26.5234 593.191 22.2812C593.191 18.0508 594.105 14.4414 595.934 11.4531C597.773 8.45312 600.404 6.50195 603.826 5.59961L604.301 6.95312C601.559 7.85547 599.525 9.61914 598.201 12.2441C596.889 14.8574 596.232 18.1445 596.232 22.1055ZM614.109 32.4414C613.465 33.8945 612.838 35.0723 612.229 35.9746C611.619 36.877 610.945 37.5566 610.207 38.0137C609.48 38.4707 608.613 38.6992 607.605 38.6992C606.961 38.6992 606.234 38.623 605.426 38.4707V34.9902H606.99C607.131 35.4707 607.307 35.8047 607.518 35.9922C607.729 36.1797 608.033 36.2734 608.432 36.2734C608.783 36.2734 609.094 36.2031 609.363 36.0625C609.645 35.9336 609.932 35.7051 610.225 35.377C610.529 35.0488 610.881 34.5449 611.279 33.8652C611.689 33.1855 612.146 32.3242 612.65 31.2812L607.729 18.0449C607.412 17.1895 607.154 16.5918 606.955 16.252C606.768 15.9121 606.562 15.6543 606.34 15.4785C606.117 15.3027 605.777 15.1621 605.32 15.0566V14.1953H612.475V15.0566C611.924 15.1855 611.537 15.3145 611.314 15.4434C611.092 15.5605 610.928 15.7188 610.822 15.918C610.717 16.1055 610.664 16.3516 610.664 16.6562C610.664 16.9727 610.699 17.3008 610.77 17.6406C610.852 17.9805 610.975 18.3789 611.139 18.8359L614.268 27.6426L617.783 19.2051C617.982 18.7363 618.135 18.3086 618.24 17.9219C618.357 17.5234 618.416 17.1543 618.416 16.8145C618.416 16.3105 618.275 15.9297 617.994 15.6719C617.725 15.4141 617.25 15.209 616.57 15.0566V14.1953H623.145V15.0566C622.688 15.1504 622.336 15.2969 622.09 15.4961C621.844 15.6836 621.598 15.9883 621.352 16.4102C621.105 16.8203 620.812 17.4004 620.473 18.1504L614.109 32.4414ZM631.846 22.1055C631.846 18.1445 631.189 14.8574 629.877 12.2441C628.564 9.61914 626.531 7.85547 623.777 6.95312L624.252 5.59961C627.674 6.50195 630.299 8.45312 632.127 11.4531C633.967 14.4414 634.887 18.0508 634.887 22.2812C634.887 26.5234 633.973 30.1328 632.145 33.1094C630.316 36.0977 627.686 38.043 624.252 38.9453L623.83 37.5918C626.537 36.6895 628.547 34.9082 629.859 32.248C631.184 29.5879 631.846 26.207 631.846 22.1055Z" fill="white"/>
</svg>
