<svg width="609" height="42" viewBox="0 0 609 42" fill="none" xmlns="http://www.w3.org/2000/svg">
<path d="M13.4824 18.0449H11.7949C11.5371 17.3418 11.2324 16.791 10.8809 16.3926C10.5293 15.9824 10.1309 15.6953 9.68555 15.5312C9.24023 15.3672 8.69531 15.2852 8.05078 15.2852C7.11328 15.2852 6.36328 15.5078 5.80078 15.9531C5.25 16.3867 4.97461 16.9844 4.97461 17.7461C4.97461 18.2852 5.08594 18.7305 5.30859 19.082C5.53125 19.4336 5.87695 19.7617 6.3457 20.0664C6.81445 20.3711 7.64062 20.7754 8.82422 21.2793C10.0195 21.7949 10.9395 22.2695 11.584 22.7031C12.2402 23.1367 12.75 23.6406 13.1133 24.2148C13.4883 24.7891 13.6758 25.4746 13.6758 26.2715C13.6758 27.1973 13.5176 27.9766 13.2012 28.6094C12.8848 29.2422 12.4395 29.7578 11.8652 30.1562C11.291 30.5547 10.6055 30.8418 9.80859 31.0176C9.02344 31.1934 8.16211 31.2812 7.22461 31.2812C6.24023 31.2812 5.28516 31.2051 4.35938 31.0527C3.43359 30.9121 2.53125 30.7246 1.65234 30.4902V26.8164H3.375C3.69141 27.8945 4.16016 28.6797 4.78125 29.1719C5.40234 29.6523 6.25781 29.8926 7.34766 29.8926C7.76953 29.8926 8.17969 29.8516 8.57812 29.7695C8.98828 29.6758 9.35156 29.5293 9.66797 29.3301C9.98438 29.1191 10.2363 28.8379 10.4238 28.4863C10.6113 28.1348 10.7051 27.6953 10.7051 27.168C10.7051 26.5703 10.5879 26.084 10.3535 25.709C10.1191 25.334 9.75586 24.9941 9.26367 24.6895C8.77148 24.373 7.9043 23.9512 6.66211 23.4238C5.5957 22.9785 4.74023 22.5449 4.0957 22.123C3.45117 21.7012 2.94141 21.2031 2.56641 20.6289C2.20312 20.0547 2.02148 19.375 2.02148 18.5898C2.02148 17.6289 2.2793 16.7969 2.79492 16.0938C3.32227 15.3789 4.07812 14.834 5.0625 14.459C6.04688 14.084 7.20117 13.8965 8.52539 13.8965C9.29883 13.8965 10.043 13.9375 10.7578 14.0195C11.4844 14.0898 12.3926 14.2363 13.4824 14.459V18.0449ZM22.2012 7.30469V10.7148H18.9668V7.30469H22.2012ZM17.1738 30.1387C17.6309 29.998 17.9531 29.875 18.1406 29.7695C18.3398 29.6641 18.5039 29.5176 18.6328 29.3301C18.7734 29.1426 18.8789 28.8555 18.9492 28.4688C19.0312 28.082 19.0723 27.4785 19.0723 26.6582V18.9941C19.0723 18.2441 19.0605 17.6406 19.0371 17.1836C19.0137 16.7266 18.9316 16.3633 18.791 16.0938C18.6504 15.8125 18.4336 15.6074 18.1406 15.4785C17.8594 15.3379 17.4551 15.2207 16.9277 15.127V14.1953L21.0234 14.0371H22.0957V26.6055C22.0957 27.6133 22.1426 28.3164 22.2363 28.7148C22.3301 29.1016 22.5059 29.4004 22.7637 29.6113C23.0332 29.8105 23.4668 29.9863 24.0645 30.1387V31H17.1738V30.1387ZM44.3145 31H37.3887V30.1387C37.8457 29.998 38.1738 29.875 38.373 29.7695C38.5723 29.6641 38.7363 29.5176 38.8652 29.3301C39.0059 29.1426 39.1113 28.8555 39.1816 28.4688C39.2637 28.0703 39.3047 27.4727 39.3047 26.6758V22.0703C39.3047 21.25 39.2812 20.5059 39.2344 19.8379C39.1875 19.1699 39.1055 18.625 38.9883 18.2031C38.8828 17.7695 38.748 17.4355 38.584 17.2012C38.4316 16.9551 38.2441 16.75 38.0215 16.5859C37.8105 16.4102 37.5645 16.2754 37.2832 16.1816C37.002 16.0762 36.6328 16.0234 36.1758 16.0234C35.7188 16.0234 35.2852 16.1172 34.875 16.3047C34.4648 16.4805 34.0137 16.791 33.5215 17.2363C33.0293 17.6816 32.6719 18.1211 32.4492 18.5547C32.2266 18.9883 32.1152 19.4863 32.1152 20.0488V26.6055C32.1152 27.6133 32.1621 28.3164 32.2559 28.7148C32.3496 29.1016 32.5254 29.4004 32.7832 29.6113C33.0527 29.8105 33.4863 29.9863 34.084 30.1387V31H27.1934V30.1387C27.6504 29.998 27.9727 29.875 28.1602 29.7695C28.3594 29.6641 28.5234 29.5176 28.6523 29.3301C28.793 29.1426 28.8984 28.8555 28.9688 28.4688C29.0508 28.082 29.0918 27.4785 29.0918 26.6582V18.9941C29.0918 18.2441 29.0801 17.6406 29.0566 17.1836C29.0332 16.7266 28.9512 16.3633 28.8105 16.0938C28.6699 15.8125 28.4531 15.6074 28.1602 15.4785C27.8789 15.3379 27.4746 15.2207 26.9473 15.127V14.1953L31.0605 14.0371H32.1328L31.9395 16.9023L32.1855 16.9727C33.0527 16.0938 33.75 15.4668 34.2773 15.0918C34.8164 14.7168 35.3555 14.4297 35.8945 14.2305C36.4453 14.0195 37.0254 13.9141 37.6348 13.9141C38.2676 13.9141 38.8301 13.9902 39.3223 14.1426C39.8262 14.2832 40.2656 14.5059 40.6406 14.8105C41.0273 15.1152 41.3438 15.4961 41.5898 15.9531C41.8359 16.3984 42.0176 16.9375 42.1348 17.5703C42.2637 18.2031 42.3281 19.0059 42.3281 19.9785V26.6055C42.3281 27.4141 42.3516 28 42.3984 28.3633C42.4453 28.7266 42.5273 29.0078 42.6445 29.207C42.7617 29.4062 42.9316 29.5762 43.1543 29.7168C43.377 29.8457 43.7637 29.9863 44.3145 30.1387V31ZM51.8027 22.1055C51.8027 26.207 52.459 29.5879 53.7715 32.248C55.0957 34.9082 57.1113 36.6895 59.8184 37.5918L59.3965 38.9453C55.9629 38.043 53.332 36.0977 51.5039 33.1094C49.6758 30.1328 48.7617 26.5234 48.7617 22.2812C48.7617 18.0508 49.6758 14.4414 51.5039 11.4531C53.3438 8.45312 55.9746 6.50195 59.3965 5.59961L59.8711 6.95312C57.1289 7.85547 55.0957 9.61914 53.7715 12.2441C52.459 14.8574 51.8027 18.1445 51.8027 22.1055ZM69.6797 20.8574L71.9648 17.957C72.2109 17.6406 72.4102 17.3359 72.5625 17.043C72.7148 16.7383 72.791 16.4277 72.791 16.1113C72.791 15.8418 72.6914 15.6191 72.4922 15.4434C72.293 15.2676 71.9824 15.1387 71.5605 15.0566V14.1953H77.3086V15.0566C76.8633 15.1855 76.4062 15.4375 75.9375 15.8125C75.4805 16.1875 74.918 16.791 74.25 17.623L70.6113 22.0879L74.6191 27.4844C75.1934 28.2578 75.709 28.8496 76.166 29.2598C76.623 29.6699 77.0801 29.9629 77.5371 30.1387V31H70.4707V30.1387C71.4434 30.0215 71.9297 29.6582 71.9297 29.0488C71.9297 28.8027 71.8887 28.5684 71.8066 28.3457C71.7246 28.123 71.5723 27.8652 71.3496 27.5723L68.8008 24.0215L66.0938 27.5371C65.8945 27.7949 65.7363 28.0352 65.6191 28.2578C65.5137 28.4688 65.4609 28.709 65.4609 28.9785C65.4609 29.2949 65.5664 29.5586 65.7773 29.7695C66 29.9688 66.3457 30.0918 66.8145 30.1387V31H60.9434V30.1387C61.3301 29.998 61.6758 29.8223 61.9805 29.6113C62.2969 29.4004 62.6133 29.1309 62.9297 28.8027C63.2578 28.4629 63.6855 27.9707 64.2129 27.3262L67.8691 22.791L64.125 17.6582C63.6094 16.9551 63.1992 16.4453 62.8945 16.1289C62.5898 15.8125 62.3086 15.5723 62.0508 15.4082C61.793 15.2441 61.5352 15.127 61.2773 15.0566V14.1953H68.168V15.0566C67.2422 15.1973 66.7793 15.5605 66.7793 16.1465C66.7793 16.416 66.8379 16.6855 66.9551 16.9551C67.084 17.2246 67.2773 17.5234 67.5352 17.8516L69.6797 20.8574ZM95.9414 23.1074H87.7852V20.3828H95.9414V23.1074ZM114.926 32.4414C114.281 33.8945 113.654 35.0723 113.045 35.9746C112.436 36.877 111.762 37.5566 111.023 38.0137C110.297 38.4707 109.43 38.6992 108.422 38.6992C107.777 38.6992 107.051 38.623 106.242 38.4707V34.9902H107.807C107.947 35.4707 108.123 35.8047 108.334 35.9922C108.545 36.1797 108.85 36.2734 109.248 36.2734C109.6 36.2734 109.91 36.2031 110.18 36.0625C110.461 35.9336 110.748 35.7051 111.041 35.377C111.346 35.0488 111.697 34.5449 112.096 33.8652C112.506 33.1855 112.963 32.3242 113.467 31.2812L108.545 18.0449C108.229 17.1895 107.971 16.5918 107.771 16.252C107.584 15.9121 107.379 15.6543 107.156 15.4785C106.934 15.3027 106.594 15.1621 106.137 15.0566V14.1953H113.291V15.0566C112.74 15.1855 112.354 15.3145 112.131 15.4434C111.908 15.5605 111.744 15.7188 111.639 15.918C111.533 16.1055 111.48 16.3516 111.48 16.6562C111.48 16.9727 111.516 17.3008 111.586 17.6406C111.668 17.9805 111.791 18.3789 111.955 18.8359L115.084 27.6426L118.6 19.2051C118.799 18.7363 118.951 18.3086 119.057 17.9219C119.174 17.5234 119.232 17.1543 119.232 16.8145C119.232 16.3105 119.092 15.9297 118.811 15.6719C118.541 15.4141 118.066 15.209 117.387 15.0566V14.1953H123.961V15.0566C123.504 15.1504 123.152 15.2969 122.906 15.4961C122.66 15.6836 122.414 15.9883 122.168 16.4102C121.922 16.8203 121.629 17.4004 121.289 18.1504L114.926 32.4414ZM132.662 22.1055C132.662 18.1445 132.006 14.8574 130.693 12.2441C129.381 9.61914 127.348 7.85547 124.594 6.95312L125.068 5.59961C128.49 6.50195 131.115 8.45312 132.943 11.4531C134.783 14.4414 135.703 18.0508 135.703 22.2812C135.703 26.5234 134.789 30.1328 132.961 33.1094C131.133 36.0977 128.502 38.043 125.068 38.9453L124.646 37.5918C127.354 36.6895 129.363 34.9082 130.676 32.248C132 29.5879 132.662 26.207 132.662 22.1055ZM149.432 18.2383V15.9004H171.088V18.2383H149.432ZM149.432 25.5332V23.1953H171.088V25.5332H149.432ZM195.135 18.0449H193.447C193.189 17.3418 192.885 16.791 192.533 16.3926C192.182 15.9824 191.783 15.6953 191.338 15.5312C190.893 15.3672 190.348 15.2852 189.703 15.2852C188.766 15.2852 188.016 15.5078 187.453 15.9531C186.902 16.3867 186.627 16.9844 186.627 17.7461C186.627 18.2852 186.738 18.7305 186.961 19.082C187.184 19.4336 187.529 19.7617 187.998 20.0664C188.467 20.3711 189.293 20.7754 190.477 21.2793C191.672 21.7949 192.592 22.2695 193.236 22.7031C193.893 23.1367 194.402 23.6406 194.766 24.2148C195.141 24.7891 195.328 25.4746 195.328 26.2715C195.328 27.1973 195.17 27.9766 194.854 28.6094C194.537 29.2422 194.092 29.7578 193.518 30.1562C192.943 30.5547 192.258 30.8418 191.461 31.0176C190.676 31.1934 189.814 31.2812 188.877 31.2812C187.893 31.2812 186.938 31.2051 186.012 31.0527C185.086 30.9121 184.184 30.7246 183.305 30.4902V26.8164H185.027C185.344 27.8945 185.812 28.6797 186.434 29.1719C187.055 29.6523 187.91 29.8926 189 29.8926C189.422 29.8926 189.832 29.8516 190.23 29.7695C190.641 29.6758 191.004 29.5293 191.32 29.3301C191.637 29.1191 191.889 28.8379 192.076 28.4863C192.264 28.1348 192.357 27.6953 192.357 27.168C192.357 26.5703 192.24 26.084 192.006 25.709C191.771 25.334 191.408 24.9941 190.916 24.6895C190.424 24.373 189.557 23.9512 188.314 23.4238C187.248 22.9785 186.393 22.5449 185.748 22.123C185.104 21.7012 184.594 21.2031 184.219 20.6289C183.855 20.0547 183.674 19.375 183.674 18.5898C183.674 17.6289 183.932 16.7969 184.447 16.0938C184.975 15.3789 185.73 14.834 186.715 14.459C187.699 14.084 188.854 13.8965 190.178 13.8965C190.951 13.8965 191.695 13.9375 192.41 14.0195C193.137 14.0898 194.045 14.2363 195.135 14.459V18.0449ZM203.854 7.30469V10.7148H200.619V7.30469H203.854ZM198.826 30.1387C199.283 29.998 199.605 29.875 199.793 29.7695C199.992 29.6641 200.156 29.5176 200.285 29.3301C200.426 29.1426 200.531 28.8555 200.602 28.4688C200.684 28.082 200.725 27.4785 200.725 26.6582V18.9941C200.725 18.2441 200.713 17.6406 200.689 17.1836C200.666 16.7266 200.584 16.3633 200.443 16.0938C200.303 15.8125 200.086 15.6074 199.793 15.4785C199.512 15.3379 199.107 15.2207 198.58 15.127V14.1953L202.676 14.0371H203.748V26.6055C203.748 27.6133 203.795 28.3164 203.889 28.7148C203.982 29.1016 204.158 29.4004 204.416 29.6113C204.686 29.8105 205.119 29.9863 205.717 30.1387V31H198.826V30.1387ZM225.967 31H219.041V30.1387C219.498 29.998 219.826 29.875 220.025 29.7695C220.225 29.6641 220.389 29.5176 220.518 29.3301C220.658 29.1426 220.764 28.8555 220.834 28.4688C220.916 28.0703 220.957 27.4727 220.957 26.6758V22.0703C220.957 21.25 220.934 20.5059 220.887 19.8379C220.84 19.1699 220.758 18.625 220.641 18.2031C220.535 17.7695 220.4 17.4355 220.236 17.2012C220.084 16.9551 219.896 16.75 219.674 16.5859C219.463 16.4102 219.217 16.2754 218.936 16.1816C218.654 16.0762 218.285 16.0234 217.828 16.0234C217.371 16.0234 216.938 16.1172 216.527 16.3047C216.117 16.4805 215.666 16.791 215.174 17.2363C214.682 17.6816 214.324 18.1211 214.102 18.5547C213.879 18.9883 213.768 19.4863 213.768 20.0488V26.6055C213.768 27.6133 213.814 28.3164 213.908 28.7148C214.002 29.1016 214.178 29.4004 214.436 29.6113C214.705 29.8105 215.139 29.9863 215.736 30.1387V31H208.846V30.1387C209.303 29.998 209.625 29.875 209.812 29.7695C210.012 29.6641 210.176 29.5176 210.305 29.3301C210.445 29.1426 210.551 28.8555 210.621 28.4688C210.703 28.082 210.744 27.4785 210.744 26.6582V18.9941C210.744 18.2441 210.732 17.6406 210.709 17.1836C210.686 16.7266 210.604 16.3633 210.463 16.0938C210.322 15.8125 210.105 15.6074 209.812 15.4785C209.531 15.3379 209.127 15.2207 208.6 15.127V14.1953L212.713 14.0371H213.785L213.592 16.9023L213.838 16.9727C214.705 16.0938 215.402 15.4668 215.93 15.0918C216.469 14.7168 217.008 14.4297 217.547 14.2305C218.098 14.0195 218.678 13.9141 219.287 13.9141C219.92 13.9141 220.482 13.9902 220.975 14.1426C221.479 14.2832 221.918 14.5059 222.293 14.8105C222.68 15.1152 222.996 15.4961 223.242 15.9531C223.488 16.3984 223.67 16.9375 223.787 17.5703C223.916 18.2031 223.98 19.0059 223.98 19.9785V26.6055C223.98 27.4141 224.004 28 224.051 28.3633C224.098 28.7266 224.18 29.0078 224.297 29.207C224.414 29.4062 224.584 29.5762 224.807 29.7168C225.029 29.8457 225.416 29.9863 225.967 30.1387V31ZM233.455 22.1055C233.455 26.207 234.111 29.5879 235.424 32.248C236.748 34.9082 238.764 36.6895 241.471 37.5918L241.049 38.9453C237.615 38.043 234.984 36.0977 233.156 33.1094C231.328 30.1328 230.414 26.5234 230.414 22.2812C230.414 18.0508 231.328 14.4414 233.156 11.4531C234.996 8.45312 237.627 6.50195 241.049 5.59961L241.523 6.95312C238.781 7.85547 236.748 9.61914 235.424 12.2441C234.111 14.8574 233.455 18.1445 233.455 22.1055ZM251.332 20.8574L253.617 17.957C253.863 17.6406 254.062 17.3359 254.215 17.043C254.367 16.7383 254.443 16.4277 254.443 16.1113C254.443 15.8418 254.344 15.6191 254.145 15.4434C253.945 15.2676 253.635 15.1387 253.213 15.0566V14.1953H258.961V15.0566C258.516 15.1855 258.059 15.4375 257.59 15.8125C257.133 16.1875 256.57 16.791 255.902 17.623L252.264 22.0879L256.271 27.4844C256.846 28.2578 257.361 28.8496 257.818 29.2598C258.275 29.6699 258.732 29.9629 259.189 30.1387V31H252.123V30.1387C253.096 30.0215 253.582 29.6582 253.582 29.0488C253.582 28.8027 253.541 28.5684 253.459 28.3457C253.377 28.123 253.225 27.8652 253.002 27.5723L250.453 24.0215L247.746 27.5371C247.547 27.7949 247.389 28.0352 247.271 28.2578C247.166 28.4688 247.113 28.709 247.113 28.9785C247.113 29.2949 247.219 29.5586 247.43 29.7695C247.652 29.9688 247.998 30.0918 248.467 30.1387V31H242.596V30.1387C242.982 29.998 243.328 29.8223 243.633 29.6113C243.949 29.4004 244.266 29.1309 244.582 28.8027C244.91 28.4629 245.338 27.9707 245.865 27.3262L249.521 22.791L245.777 17.6582C245.262 16.9551 244.852 16.4453 244.547 16.1289C244.242 15.8125 243.961 15.5723 243.703 15.4082C243.445 15.2441 243.188 15.127 242.93 15.0566V14.1953H249.82V15.0566C248.895 15.1973 248.432 15.5605 248.432 16.1465C248.432 16.416 248.49 16.6855 248.607 16.9551C248.736 17.2246 248.93 17.5234 249.188 17.8516L251.332 20.8574ZM268.33 22.1055C268.33 18.1445 267.674 14.8574 266.361 12.2441C265.049 9.61914 263.016 7.85547 260.262 6.95312L260.736 5.59961C264.158 6.50195 266.783 8.45312 268.611 11.4531C270.451 14.4414 271.371 18.0508 271.371 22.2812C271.371 26.5234 270.457 30.1328 268.629 33.1094C266.801 36.0977 264.17 38.043 260.736 38.9453L260.314 37.5918C263.021 36.6895 265.031 34.9082 266.344 32.248C267.668 29.5879 268.33 26.207 268.33 22.1055ZM297.281 14.5996V18.2734H295.049C294.85 17.5117 294.604 16.9141 294.311 16.4805C294.018 16.0352 293.678 15.7246 293.291 15.5488C292.904 15.373 292.424 15.2852 291.85 15.2852C291.029 15.2852 290.303 15.5488 289.67 16.0762C289.037 16.6035 288.533 17.4062 288.158 18.4844C287.795 19.5625 287.613 20.8809 287.613 22.4395C287.613 23.4355 287.684 24.3496 287.824 25.1816C287.965 26.002 288.205 26.7051 288.545 27.291C288.885 27.877 289.336 28.334 289.898 28.6621C290.461 28.9902 291.158 29.1543 291.99 29.1543C292.799 29.1543 293.549 28.9961 294.24 28.6797C294.943 28.3633 295.67 27.8066 296.42 27.0098L297.422 28.1699C296.824 28.8262 296.297 29.3359 295.84 29.6992C295.383 30.0508 294.891 30.3496 294.363 30.5957C293.848 30.8301 293.332 31 292.816 31.1055C292.312 31.2227 291.762 31.2812 291.164 31.2812C288.949 31.2812 287.256 30.5488 286.084 29.084C284.912 27.6074 284.326 25.4805 284.326 22.7031C284.326 20.9688 284.654 19.4336 285.311 18.0977C285.967 16.75 286.887 15.7129 288.07 14.9863C289.254 14.2598 290.619 13.8965 292.166 13.8965C293.127 13.8965 294.012 13.9551 294.82 14.0723C295.641 14.1777 296.461 14.3535 297.281 14.5996ZM307.723 31.2812C305.285 31.2812 303.422 30.5664 302.133 29.1367C300.855 27.6953 300.217 25.5684 300.217 22.7559C300.217 20.8223 300.551 19.1875 301.219 17.8516C301.898 16.5156 302.824 15.5254 303.996 14.8809C305.168 14.2246 306.504 13.8965 308.004 13.8965C310.512 13.8965 312.41 14.6289 313.699 16.0938C314.988 17.5469 315.633 19.6387 315.633 22.3691C315.633 24.3145 315.311 25.9551 314.666 27.291C314.021 28.627 313.107 29.6289 311.924 30.2969C310.74 30.9531 309.34 31.2812 307.723 31.2812ZM303.539 22.3867C303.539 24.8008 303.92 26.6582 304.682 27.959C305.455 29.248 306.557 29.8926 307.986 29.8926C308.771 29.8926 309.439 29.7051 309.99 29.3301C310.541 28.9434 310.986 28.4277 311.326 27.7832C311.678 27.1387 311.93 26.3945 312.082 25.5508C312.234 24.6953 312.311 23.8047 312.311 22.8789C312.311 21.1562 312.117 19.7266 311.73 18.5898C311.355 17.4531 310.84 16.6211 310.184 16.0938C309.527 15.5547 308.777 15.2852 307.934 15.2852C306.516 15.2852 305.426 15.9004 304.664 17.1309C303.914 18.3613 303.539 20.1133 303.539 22.3867ZM330.979 18.0449H329.291C329.033 17.3418 328.729 16.791 328.377 16.3926C328.025 15.9824 327.627 15.6953 327.182 15.5312C326.736 15.3672 326.191 15.2852 325.547 15.2852C324.609 15.2852 323.859 15.5078 323.297 15.9531C322.746 16.3867 322.471 16.9844 322.471 17.7461C322.471 18.2852 322.582 18.7305 322.805 19.082C323.027 19.4336 323.373 19.7617 323.842 20.0664C324.311 20.3711 325.137 20.7754 326.32 21.2793C327.516 21.7949 328.436 22.2695 329.08 22.7031C329.736 23.1367 330.246 23.6406 330.609 24.2148C330.984 24.7891 331.172 25.4746 331.172 26.2715C331.172 27.1973 331.014 27.9766 330.697 28.6094C330.381 29.2422 329.936 29.7578 329.361 30.1562C328.787 30.5547 328.102 30.8418 327.305 31.0176C326.52 31.1934 325.658 31.2812 324.721 31.2812C323.736 31.2812 322.781 31.2051 321.855 31.0527C320.93 30.9121 320.027 30.7246 319.148 30.4902V26.8164H320.871C321.188 27.8945 321.656 28.6797 322.277 29.1719C322.898 29.6523 323.754 29.8926 324.844 29.8926C325.266 29.8926 325.676 29.8516 326.074 29.7695C326.484 29.6758 326.848 29.5293 327.164 29.3301C327.48 29.1191 327.732 28.8379 327.92 28.4863C328.107 28.1348 328.201 27.6953 328.201 27.168C328.201 26.5703 328.084 26.084 327.85 25.709C327.615 25.334 327.252 24.9941 326.76 24.6895C326.268 24.373 325.4 23.9512 324.158 23.4238C323.092 22.9785 322.236 22.5449 321.592 22.123C320.947 21.7012 320.438 21.2031 320.062 20.6289C319.699 20.0547 319.518 19.375 319.518 18.5898C319.518 17.6289 319.775 16.7969 320.291 16.0938C320.818 15.3789 321.574 14.834 322.559 14.459C323.543 14.084 324.697 13.8965 326.021 13.8965C326.795 13.8965 327.539 13.9375 328.254 14.0195C328.98 14.0898 329.889 14.2363 330.979 14.459V18.0449ZM339.17 22.1055C339.17 26.207 339.826 29.5879 341.139 32.248C342.463 34.9082 344.479 36.6895 347.186 37.5918L346.764 38.9453C343.33 38.043 340.699 36.0977 338.871 33.1094C337.043 30.1328 336.129 26.5234 336.129 22.2812C336.129 18.0508 337.043 14.4414 338.871 11.4531C340.711 8.45312 343.342 6.50195 346.764 5.59961L347.238 6.95312C344.496 7.85547 342.463 9.61914 341.139 12.2441C339.826 14.8574 339.17 18.1445 339.17 22.1055ZM357.047 32.4414C356.402 33.8945 355.775 35.0723 355.166 35.9746C354.557 36.877 353.883 37.5566 353.145 38.0137C352.418 38.4707 351.551 38.6992 350.543 38.6992C349.898 38.6992 349.172 38.623 348.363 38.4707V34.9902H349.928C350.068 35.4707 350.244 35.8047 350.455 35.9922C350.666 36.1797 350.971 36.2734 351.369 36.2734C351.721 36.2734 352.031 36.2031 352.301 36.0625C352.582 35.9336 352.869 35.7051 353.162 35.377C353.467 35.0488 353.818 34.5449 354.217 33.8652C354.627 33.1855 355.084 32.3242 355.588 31.2812L350.666 18.0449C350.35 17.1895 350.092 16.5918 349.893 16.252C349.705 15.9121 349.5 15.6543 349.277 15.4785C349.055 15.3027 348.715 15.1621 348.258 15.0566V14.1953H355.412V15.0566C354.861 15.1855 354.475 15.3145 354.252 15.4434C354.029 15.5605 353.865 15.7188 353.76 15.918C353.654 16.1055 353.602 16.3516 353.602 16.6562C353.602 16.9727 353.637 17.3008 353.707 17.6406C353.789 17.9805 353.912 18.3789 354.076 18.8359L357.205 27.6426L360.721 19.2051C360.92 18.7363 361.072 18.3086 361.178 17.9219C361.295 17.5234 361.354 17.1543 361.354 16.8145C361.354 16.3105 361.213 15.9297 360.932 15.6719C360.662 15.4141 360.188 15.209 359.508 15.0566V14.1953H366.082V15.0566C365.625 15.1504 365.273 15.2969 365.027 15.4961C364.781 15.6836 364.535 15.9883 364.289 16.4102C364.043 16.8203 363.75 17.4004 363.41 18.1504L357.047 32.4414ZM374.783 22.1055C374.783 18.1445 374.127 14.8574 372.814 12.2441C371.502 9.61914 369.469 7.85547 366.715 6.95312L367.189 5.59961C370.611 6.50195 373.236 8.45312 375.064 11.4531C376.904 14.4414 377.824 18.0508 377.824 22.2812C377.824 26.5234 376.91 30.1328 375.082 33.1094C373.254 36.0977 370.623 38.043 367.189 38.9453L366.768 37.5918C369.475 36.6895 371.484 34.9082 372.797 32.248C374.121 29.5879 374.783 26.207 374.783 22.1055ZM398.988 23.1074H390.832V20.3828H398.988V23.1074ZM423.633 14.5996V18.2734H421.4C421.201 17.5117 420.955 16.9141 420.662 16.4805C420.369 16.0352 420.029 15.7246 419.643 15.5488C419.256 15.373 418.775 15.2852 418.201 15.2852C417.381 15.2852 416.654 15.5488 416.021 16.0762C415.389 16.6035 414.885 17.4062 414.51 18.4844C414.146 19.5625 413.965 20.8809 413.965 22.4395C413.965 23.4355 414.035 24.3496 414.176 25.1816C414.316 26.002 414.557 26.7051 414.896 27.291C415.236 27.877 415.688 28.334 416.25 28.6621C416.812 28.9902 417.51 29.1543 418.342 29.1543C419.15 29.1543 419.9 28.9961 420.592 28.6797C421.295 28.3633 422.021 27.8066 422.771 27.0098L423.773 28.1699C423.176 28.8262 422.648 29.3359 422.191 29.6992C421.734 30.0508 421.242 30.3496 420.715 30.5957C420.199 30.8301 419.684 31 419.168 31.1055C418.664 31.2227 418.113 31.2812 417.516 31.2812C415.301 31.2812 413.607 30.5488 412.436 29.084C411.264 27.6074 410.678 25.4805 410.678 22.7031C410.678 20.9688 411.006 19.4336 411.662 18.0977C412.318 16.75 413.238 15.7129 414.422 14.9863C415.605 14.2598 416.971 13.8965 418.518 13.8965C419.479 13.8965 420.363 13.9551 421.172 14.0723C421.992 14.1777 422.812 14.3535 423.633 14.5996ZM434.074 31.2812C431.637 31.2812 429.773 30.5664 428.484 29.1367C427.207 27.6953 426.568 25.5684 426.568 22.7559C426.568 20.8223 426.902 19.1875 427.57 17.8516C428.25 16.5156 429.176 15.5254 430.348 14.8809C431.52 14.2246 432.855 13.8965 434.355 13.8965C436.863 13.8965 438.762 14.6289 440.051 16.0938C441.34 17.5469 441.984 19.6387 441.984 22.3691C441.984 24.3145 441.662 25.9551 441.018 27.291C440.373 28.627 439.459 29.6289 438.275 30.2969C437.092 30.9531 435.691 31.2812 434.074 31.2812ZM429.891 22.3867C429.891 24.8008 430.271 26.6582 431.033 27.959C431.807 29.248 432.908 29.8926 434.338 29.8926C435.123 29.8926 435.791 29.7051 436.342 29.3301C436.893 28.9434 437.338 28.4277 437.678 27.7832C438.029 27.1387 438.281 26.3945 438.434 25.5508C438.586 24.6953 438.662 23.8047 438.662 22.8789C438.662 21.1562 438.469 19.7266 438.082 18.5898C437.707 17.4531 437.191 16.6211 436.535 16.0938C435.879 15.5547 435.129 15.2852 434.285 15.2852C432.867 15.2852 431.777 15.9004 431.016 17.1309C430.266 18.3613 429.891 20.1133 429.891 22.3867ZM457.33 18.0449H455.643C455.385 17.3418 455.08 16.791 454.729 16.3926C454.377 15.9824 453.979 15.6953 453.533 15.5312C453.088 15.3672 452.543 15.2852 451.898 15.2852C450.961 15.2852 450.211 15.5078 449.648 15.9531C449.098 16.3867 448.822 16.9844 448.822 17.7461C448.822 18.2852 448.934 18.7305 449.156 19.082C449.379 19.4336 449.725 19.7617 450.193 20.0664C450.662 20.3711 451.488 20.7754 452.672 21.2793C453.867 21.7949 454.787 22.2695 455.432 22.7031C456.088 23.1367 456.598 23.6406 456.961 24.2148C457.336 24.7891 457.523 25.4746 457.523 26.2715C457.523 27.1973 457.365 27.9766 457.049 28.6094C456.732 29.2422 456.287 29.7578 455.713 30.1562C455.139 30.5547 454.453 30.8418 453.656 31.0176C452.871 31.1934 452.01 31.2812 451.072 31.2812C450.088 31.2812 449.133 31.2051 448.207 31.0527C447.281 30.9121 446.379 30.7246 445.5 30.4902V26.8164H447.223C447.539 27.8945 448.008 28.6797 448.629 29.1719C449.25 29.6523 450.105 29.8926 451.195 29.8926C451.617 29.8926 452.027 29.8516 452.426 29.7695C452.836 29.6758 453.199 29.5293 453.516 29.3301C453.832 29.1191 454.084 28.8379 454.271 28.4863C454.459 28.1348 454.553 27.6953 454.553 27.168C454.553 26.5703 454.436 26.084 454.201 25.709C453.967 25.334 453.604 24.9941 453.111 24.6895C452.619 24.373 451.752 23.9512 450.51 23.4238C449.443 22.9785 448.588 22.5449 447.943 22.123C447.299 21.7012 446.789 21.2031 446.414 20.6289C446.051 20.0547 445.869 19.375 445.869 18.5898C445.869 17.6289 446.127 16.7969 446.643 16.0938C447.17 15.3789 447.926 14.834 448.91 14.459C449.895 14.084 451.049 13.8965 452.373 13.8965C453.146 13.8965 453.891 13.9375 454.605 14.0195C455.332 14.0898 456.24 14.2363 457.33 14.459V18.0449ZM465.521 22.1055C465.521 26.207 466.178 29.5879 467.49 32.248C468.814 34.9082 470.83 36.6895 473.537 37.5918L473.115 38.9453C469.682 38.043 467.051 36.0977 465.223 33.1094C463.395 30.1328 462.48 26.5234 462.48 22.2812C462.48 18.0508 463.395 14.4414 465.223 11.4531C467.062 8.45312 469.693 6.50195 473.115 5.59961L473.59 6.95312C470.848 7.85547 468.814 9.61914 467.49 12.2441C466.178 14.8574 465.521 18.1445 465.521 22.1055ZM483.398 20.8574L485.684 17.957C485.93 17.6406 486.129 17.3359 486.281 17.043C486.434 16.7383 486.51 16.4277 486.51 16.1113C486.51 15.8418 486.41 15.6191 486.211 15.4434C486.012 15.2676 485.701 15.1387 485.279 15.0566V14.1953H491.027V15.0566C490.582 15.1855 490.125 15.4375 489.656 15.8125C489.199 16.1875 488.637 16.791 487.969 17.623L484.33 22.0879L488.338 27.4844C488.912 28.2578 489.428 28.8496 489.885 29.2598C490.342 29.6699 490.799 29.9629 491.256 30.1387V31H484.189V30.1387C485.162 30.0215 485.648 29.6582 485.648 29.0488C485.648 28.8027 485.607 28.5684 485.525 28.3457C485.443 28.123 485.291 27.8652 485.068 27.5723L482.52 24.0215L479.812 27.5371C479.613 27.7949 479.455 28.0352 479.338 28.2578C479.232 28.4688 479.18 28.709 479.18 28.9785C479.18 29.2949 479.285 29.5586 479.496 29.7695C479.719 29.9688 480.064 30.0918 480.533 30.1387V31H474.662V30.1387C475.049 29.998 475.395 29.8223 475.699 29.6113C476.016 29.4004 476.332 29.1309 476.648 28.8027C476.977 28.4629 477.404 27.9707 477.932 27.3262L481.588 22.791L477.844 17.6582C477.328 16.9551 476.918 16.4453 476.613 16.1289C476.309 15.8125 476.027 15.5723 475.77 15.4082C475.512 15.2441 475.254 15.127 474.996 15.0566V14.1953H481.887V15.0566C480.961 15.1973 480.498 15.5605 480.498 16.1465C480.498 16.416 480.557 16.6855 480.674 16.9551C480.803 17.2246 480.996 17.5234 481.254 17.8516L483.398 20.8574ZM500.396 22.1055C500.396 18.1445 499.74 14.8574 498.428 12.2441C497.115 9.61914 495.082 7.85547 492.328 6.95312L492.803 5.59961C496.225 6.50195 498.85 8.45312 500.678 11.4531C502.518 14.4414 503.438 18.0508 503.438 22.2812C503.438 26.5234 502.523 30.1328 500.695 33.1094C498.867 36.0977 496.236 38.043 492.803 38.9453L492.381 37.5918C495.088 36.6895 497.098 34.9082 498.41 32.248C499.734 29.5879 500.396 26.207 500.396 22.1055ZM528.029 18.0449H526.342C526.084 17.3418 525.779 16.791 525.428 16.3926C525.076 15.9824 524.678 15.6953 524.232 15.5312C523.787 15.3672 523.242 15.2852 522.598 15.2852C521.66 15.2852 520.91 15.5078 520.348 15.9531C519.797 16.3867 519.521 16.9844 519.521 17.7461C519.521 18.2852 519.633 18.7305 519.855 19.082C520.078 19.4336 520.424 19.7617 520.893 20.0664C521.361 20.3711 522.188 20.7754 523.371 21.2793C524.566 21.7949 525.486 22.2695 526.131 22.7031C526.787 23.1367 527.297 23.6406 527.66 24.2148C528.035 24.7891 528.223 25.4746 528.223 26.2715C528.223 27.1973 528.064 27.9766 527.748 28.6094C527.432 29.2422 526.986 29.7578 526.412 30.1562C525.838 30.5547 525.152 30.8418 524.355 31.0176C523.57 31.1934 522.709 31.2812 521.771 31.2812C520.787 31.2812 519.832 31.2051 518.906 31.0527C517.98 30.9121 517.078 30.7246 516.199 30.4902V26.8164H517.922C518.238 27.8945 518.707 28.6797 519.328 29.1719C519.949 29.6523 520.805 29.8926 521.895 29.8926C522.316 29.8926 522.727 29.8516 523.125 29.7695C523.535 29.6758 523.898 29.5293 524.215 29.3301C524.531 29.1191 524.783 28.8379 524.971 28.4863C525.158 28.1348 525.252 27.6953 525.252 27.168C525.252 26.5703 525.135 26.084 524.9 25.709C524.666 25.334 524.303 24.9941 523.811 24.6895C523.318 24.373 522.451 23.9512 521.209 23.4238C520.143 22.9785 519.287 22.5449 518.643 22.123C517.998 21.7012 517.488 21.2031 517.113 20.6289C516.75 20.0547 516.568 19.375 516.568 18.5898C516.568 17.6289 516.826 16.7969 517.342 16.0938C517.869 15.3789 518.625 14.834 519.609 14.459C520.594 14.084 521.748 13.8965 523.072 13.8965C523.846 13.8965 524.59 13.9375 525.305 14.0195C526.031 14.0898 526.939 14.2363 528.029 14.459V18.0449ZM536.748 7.30469V10.7148H533.514V7.30469H536.748ZM531.721 30.1387C532.178 29.998 532.5 29.875 532.688 29.7695C532.887 29.6641 533.051 29.5176 533.18 29.3301C533.32 29.1426 533.426 28.8555 533.496 28.4688C533.578 28.082 533.619 27.4785 533.619 26.6582V18.9941C533.619 18.2441 533.607 17.6406 533.584 17.1836C533.561 16.7266 533.479 16.3633 533.338 16.0938C533.197 15.8125 532.98 15.6074 532.688 15.4785C532.406 15.3379 532.002 15.2207 531.475 15.127V14.1953L535.57 14.0371H536.643V26.6055C536.643 27.6133 536.689 28.3164 536.783 28.7148C536.877 29.1016 537.053 29.4004 537.311 29.6113C537.58 29.8105 538.014 29.9863 538.611 30.1387V31H531.721V30.1387ZM558.861 31H551.936V30.1387C552.393 29.998 552.721 29.875 552.92 29.7695C553.119 29.6641 553.283 29.5176 553.412 29.3301C553.553 29.1426 553.658 28.8555 553.729 28.4688C553.811 28.0703 553.852 27.4727 553.852 26.6758V22.0703C553.852 21.25 553.828 20.5059 553.781 19.8379C553.734 19.1699 553.652 18.625 553.535 18.2031C553.43 17.7695 553.295 17.4355 553.131 17.2012C552.979 16.9551 552.791 16.75 552.568 16.5859C552.357 16.4102 552.111 16.2754 551.83 16.1816C551.549 16.0762 551.18 16.0234 550.723 16.0234C550.266 16.0234 549.832 16.1172 549.422 16.3047C549.012 16.4805 548.561 16.791 548.068 17.2363C547.576 17.6816 547.219 18.1211 546.996 18.5547C546.773 18.9883 546.662 19.4863 546.662 20.0488V26.6055C546.662 27.6133 546.709 28.3164 546.803 28.7148C546.896 29.1016 547.072 29.4004 547.33 29.6113C547.6 29.8105 548.033 29.9863 548.631 30.1387V31H541.74V30.1387C542.197 29.998 542.52 29.875 542.707 29.7695C542.906 29.6641 543.07 29.5176 543.199 29.3301C543.34 29.1426 543.445 28.8555 543.516 28.4688C543.598 28.082 543.639 27.4785 543.639 26.6582V18.9941C543.639 18.2441 543.627 17.6406 543.604 17.1836C543.58 16.7266 543.498 16.3633 543.357 16.0938C543.217 15.8125 543 15.6074 542.707 15.4785C542.426 15.3379 542.021 15.2207 541.494 15.127V14.1953L545.607 14.0371H546.68L546.486 16.9023L546.732 16.9727C547.6 16.0938 548.297 15.4668 548.824 15.0918C549.363 14.7168 549.902 14.4297 550.441 14.2305C550.992 14.0195 551.572 13.9141 552.182 13.9141C552.814 13.9141 553.377 13.9902 553.869 14.1426C554.373 14.2832 554.812 14.5059 555.188 14.8105C555.574 15.1152 555.891 15.4961 556.137 15.9531C556.383 16.3984 556.564 16.9375 556.682 17.5703C556.811 18.2031 556.875 19.0059 556.875 19.9785V26.6055C556.875 27.4141 556.898 28 556.945 28.3633C556.992 28.7266 557.074 29.0078 557.191 29.207C557.309 29.4062 557.479 29.5762 557.701 29.7168C557.924 29.8457 558.311 29.9863 558.861 30.1387V31ZM566.35 22.1055C566.35 26.207 567.006 29.5879 568.318 32.248C569.643 34.9082 571.658 36.6895 574.365 37.5918L573.943 38.9453C570.51 38.043 567.879 36.0977 566.051 33.1094C564.223 30.1328 563.309 26.5234 563.309 22.2812C563.309 18.0508 564.223 14.4414 566.051 11.4531C567.891 8.45312 570.521 6.50195 573.943 5.59961L574.418 6.95312C571.676 7.85547 569.643 9.61914 568.318 12.2441C567.006 14.8574 566.35 18.1445 566.35 22.1055ZM584.227 32.4414C583.582 33.8945 582.955 35.0723 582.346 35.9746C581.736 36.877 581.062 37.5566 580.324 38.0137C579.598 38.4707 578.73 38.6992 577.723 38.6992C577.078 38.6992 576.352 38.623 575.543 38.4707V34.9902H577.107C577.248 35.4707 577.424 35.8047 577.635 35.9922C577.846 36.1797 578.15 36.2734 578.549 36.2734C578.9 36.2734 579.211 36.2031 579.48 36.0625C579.762 35.9336 580.049 35.7051 580.342 35.377C580.646 35.0488 580.998 34.5449 581.396 33.8652C581.807 33.1855 582.264 32.3242 582.768 31.2812L577.846 18.0449C577.529 17.1895 577.271 16.5918 577.072 16.252C576.885 15.9121 576.68 15.6543 576.457 15.4785C576.234 15.3027 575.895 15.1621 575.438 15.0566V14.1953H582.592V15.0566C582.041 15.1855 581.654 15.3145 581.432 15.4434C581.209 15.5605 581.045 15.7188 580.939 15.918C580.834 16.1055 580.781 16.3516 580.781 16.6562C580.781 16.9727 580.816 17.3008 580.887 17.6406C580.969 17.9805 581.092 18.3789 581.256 18.8359L584.385 27.6426L587.9 19.2051C588.1 18.7363 588.252 18.3086 588.357 17.9219C588.475 17.5234 588.533 17.1543 588.533 16.8145C588.533 16.3105 588.393 15.9297 588.111 15.6719C587.842 15.4141 587.367 15.209 586.688 15.0566V14.1953H593.262V15.0566C592.805 15.1504 592.453 15.2969 592.207 15.4961C591.961 15.6836 591.715 15.9883 591.469 16.4102C591.223 16.8203 590.93 17.4004 590.59 18.1504L584.227 32.4414ZM601.963 22.1055C601.963 18.1445 601.307 14.8574 599.994 12.2441C598.682 9.61914 596.648 7.85547 593.895 6.95312L594.369 5.59961C597.791 6.50195 600.416 8.45312 602.244 11.4531C604.084 14.4414 605.004 18.0508 605.004 22.2812C605.004 26.5234 604.09 30.1328 602.262 33.1094C600.434 36.0977 597.803 38.043 594.369 38.9453L593.947 37.5918C596.654 36.6895 598.664 34.9082 599.977 32.248C601.301 29.5879 601.963 26.207 601.963 22.1055Z" fill="white"/>
</svg>
