<svg width="628" height="42" viewBox="0 0 628 42" fill="none" xmlns="http://www.w3.org/2000/svg">
<path d="M14.8008 14.5996V18.2734H12.5684C12.3691 17.5117 12.123 16.9141 11.8301 16.4805C11.5371 16.0352 11.1973 15.7246 10.8105 15.5488C10.4238 15.373 9.94336 15.2852 9.36914 15.2852C8.54883 15.2852 7.82227 15.5488 7.18945 16.0762C6.55664 16.6035 6.05273 17.4062 5.67773 18.4844C5.31445 19.5625 5.13281 20.8809 5.13281 22.4395C5.13281 23.4355 5.20312 24.3496 5.34375 25.1816C5.48438 26.002 5.72461 26.7051 6.06445 27.291C6.4043 27.877 6.85547 28.334 7.41797 28.6621C7.98047 28.9902 8.67773 29.1543 9.50977 29.1543C10.3184 29.1543 11.0684 28.9961 11.7598 28.6797C12.4629 28.3633 13.1895 27.8066 13.9395 27.0098L14.9414 28.1699C14.3438 28.8262 13.8164 29.3359 13.3594 29.6992C12.9023 30.0508 12.4102 30.3496 11.8828 30.5957C11.3672 30.8301 10.8516 31 10.3359 31.1055C9.83203 31.2227 9.28125 31.2812 8.68359 31.2812C6.46875 31.2812 4.77539 30.5488 3.60352 29.084C2.43164 27.6074 1.8457 25.4805 1.8457 22.7031C1.8457 20.9688 2.17383 19.4336 2.83008 18.0977C3.48633 16.75 4.40625 15.7129 5.58984 14.9863C6.77344 14.2598 8.13867 13.8965 9.68555 13.8965C10.6465 13.8965 11.5312 13.9551 12.3398 14.0723C13.1602 14.1777 13.9805 14.3535 14.8008 14.5996ZM25.2422 31.2812C22.8047 31.2812 20.9414 30.5664 19.6523 29.1367C18.375 27.6953 17.7363 25.5684 17.7363 22.7559C17.7363 20.8223 18.0703 19.1875 18.7383 17.8516C19.418 16.5156 20.3438 15.5254 21.5156 14.8809C22.6875 14.2246 24.0234 13.8965 25.5234 13.8965C28.0312 13.8965 29.9297 14.6289 31.2188 16.0938C32.5078 17.5469 33.1523 19.6387 33.1523 22.3691C33.1523 24.3145 32.8301 25.9551 32.1855 27.291C31.541 28.627 30.627 29.6289 29.4434 30.2969C28.2598 30.9531 26.8594 31.2812 25.2422 31.2812ZM21.0586 22.3867C21.0586 24.8008 21.4395 26.6582 22.2012 27.959C22.9746 29.248 24.0762 29.8926 25.5059 29.8926C26.291 29.8926 26.959 29.7051 27.5098 29.3301C28.0605 28.9434 28.5059 28.4277 28.8457 27.7832C29.1973 27.1387 29.4492 26.3945 29.6016 25.5508C29.7539 24.6953 29.8301 23.8047 29.8301 22.8789C29.8301 21.1562 29.6367 19.7266 29.25 18.5898C28.875 17.4531 28.3594 16.6211 27.7031 16.0938C27.0469 15.5547 26.2969 15.2852 25.4531 15.2852C24.0352 15.2852 22.9453 15.9004 22.1836 17.1309C21.4336 18.3613 21.0586 20.1133 21.0586 22.3867ZM48.498 18.0449H46.8105C46.5527 17.3418 46.248 16.791 45.8965 16.3926C45.5449 15.9824 45.1465 15.6953 44.7012 15.5312C44.2559 15.3672 43.7109 15.2852 43.0664 15.2852C42.1289 15.2852 41.3789 15.5078 40.8164 15.9531C40.2656 16.3867 39.9902 16.9844 39.9902 17.7461C39.9902 18.2852 40.1016 18.7305 40.3242 19.082C40.5469 19.4336 40.8926 19.7617 41.3613 20.0664C41.8301 20.3711 42.6562 20.7754 43.8398 21.2793C45.0352 21.7949 45.9551 22.2695 46.5996 22.7031C47.2559 23.1367 47.7656 23.6406 48.1289 24.2148C48.5039 24.7891 48.6914 25.4746 48.6914 26.2715C48.6914 27.1973 48.5332 27.9766 48.2168 28.6094C47.9004 29.2422 47.4551 29.7578 46.8809 30.1562C46.3066 30.5547 45.6211 30.8418 44.8242 31.0176C44.0391 31.1934 43.1777 31.2812 42.2402 31.2812C41.2559 31.2812 40.3008 31.2051 39.375 31.0527C38.4492 30.9121 37.5469 30.7246 36.668 30.4902V26.8164H38.3906C38.707 27.8945 39.1758 28.6797 39.7969 29.1719C40.418 29.6523 41.2734 29.8926 42.3633 29.8926C42.7852 29.8926 43.1953 29.8516 43.5938 29.7695C44.0039 29.6758 44.3672 29.5293 44.6836 29.3301C45 29.1191 45.252 28.8379 45.4395 28.4863C45.627 28.1348 45.7207 27.6953 45.7207 27.168C45.7207 26.5703 45.6035 26.084 45.3691 25.709C45.1348 25.334 44.7715 24.9941 44.2793 24.6895C43.7871 24.373 42.9199 23.9512 41.6777 23.4238C40.6113 22.9785 39.7559 22.5449 39.1113 22.123C38.4668 21.7012 37.957 21.2031 37.582 20.6289C37.2188 20.0547 37.0371 19.375 37.0371 18.5898C37.0371 17.6289 37.2949 16.7969 37.8105 16.0938C38.3379 15.3789 39.0938 14.834 40.0781 14.459C41.0625 14.084 42.2168 13.8965 43.541 13.8965C44.3145 13.8965 45.0586 13.9375 45.7734 14.0195C46.5 14.0898 47.4082 14.2363 48.498 14.459V18.0449ZM56.6895 22.1055C56.6895 26.207 57.3457 29.5879 58.6582 32.248C59.9824 34.9082 61.998 36.6895 64.7051 37.5918L64.2832 38.9453C60.8496 38.043 58.2188 36.0977 56.3906 33.1094C54.5625 30.1328 53.6484 26.5234 53.6484 22.2812C53.6484 18.0508 54.5625 14.4414 56.3906 11.4531C58.2305 8.45312 60.8613 6.50195 64.2832 5.59961L64.7578 6.95312C62.0156 7.85547 59.9824 9.61914 58.6582 12.2441C57.3457 14.8574 56.6895 18.1445 56.6895 22.1055ZM74.5664 20.8574L76.8516 17.957C77.0977 17.6406 77.2969 17.3359 77.4492 17.043C77.6016 16.7383 77.6777 16.4277 77.6777 16.1113C77.6777 15.8418 77.5781 15.6191 77.3789 15.4434C77.1797 15.2676 76.8691 15.1387 76.4473 15.0566V14.1953H82.1953V15.0566C81.75 15.1855 81.293 15.4375 80.8242 15.8125C80.3672 16.1875 79.8047 16.791 79.1367 17.623L75.498 22.0879L79.5059 27.4844C80.0801 28.2578 80.5957 28.8496 81.0527 29.2598C81.5098 29.6699 81.9668 29.9629 82.4238 30.1387V31H75.3574V30.1387C76.3301 30.0215 76.8164 29.6582 76.8164 29.0488C76.8164 28.8027 76.7754 28.5684 76.6934 28.3457C76.6113 28.123 76.459 27.8652 76.2363 27.5723L73.6875 24.0215L70.9805 27.5371C70.7812 27.7949 70.623 28.0352 70.5059 28.2578C70.4004 28.4688 70.3477 28.709 70.3477 28.9785C70.3477 29.2949 70.4531 29.5586 70.6641 29.7695C70.8867 29.9688 71.2324 30.0918 71.7012 30.1387V31H65.8301V30.1387C66.2168 29.998 66.5625 29.8223 66.8672 29.6113C67.1836 29.4004 67.5 29.1309 67.8164 28.8027C68.1445 28.4629 68.5723 27.9707 69.0996 27.3262L72.7559 22.791L69.0117 17.6582C68.4961 16.9551 68.0859 16.4453 67.7812 16.1289C67.4766 15.8125 67.1953 15.5723 66.9375 15.4082C66.6797 15.2441 66.4219 15.127 66.1641 15.0566V14.1953H73.0547V15.0566C72.1289 15.1973 71.666 15.5605 71.666 16.1465C71.666 16.416 71.7246 16.6855 71.8418 16.9551C71.9707 17.2246 72.1641 17.5234 72.4219 17.8516L74.5664 20.8574ZM105.469 21.877V32.002H102.973V21.877H93.3926V19.5391H102.973V9.41406H105.469V19.5391H115.049V21.877H105.469ZM134.754 32.4414C134.109 33.8945 133.482 35.0723 132.873 35.9746C132.264 36.877 131.59 37.5566 130.852 38.0137C130.125 38.4707 129.258 38.6992 128.25 38.6992C127.605 38.6992 126.879 38.623 126.07 38.4707V34.9902H127.635C127.775 35.4707 127.951 35.8047 128.162 35.9922C128.373 36.1797 128.678 36.2734 129.076 36.2734C129.428 36.2734 129.738 36.2031 130.008 36.0625C130.289 35.9336 130.576 35.7051 130.869 35.377C131.174 35.0488 131.525 34.5449 131.924 33.8652C132.334 33.1855 132.791 32.3242 133.295 31.2812L128.373 18.0449C128.057 17.1895 127.799 16.5918 127.6 16.252C127.412 15.9121 127.207 15.6543 126.984 15.4785C126.762 15.3027 126.422 15.1621 125.965 15.0566V14.1953H133.119V15.0566C132.568 15.1855 132.182 15.3145 131.959 15.4434C131.736 15.5605 131.572 15.7188 131.467 15.918C131.361 16.1055 131.309 16.3516 131.309 16.6562C131.309 16.9727 131.344 17.3008 131.414 17.6406C131.496 17.9805 131.619 18.3789 131.783 18.8359L134.912 27.6426L138.428 19.2051C138.627 18.7363 138.779 18.3086 138.885 17.9219C139.002 17.5234 139.061 17.1543 139.061 16.8145C139.061 16.3105 138.92 15.9297 138.639 15.6719C138.369 15.4141 137.895 15.209 137.215 15.0566V14.1953H143.789V15.0566C143.332 15.1504 142.98 15.2969 142.734 15.4961C142.488 15.6836 142.242 15.9883 141.996 16.4102C141.75 16.8203 141.457 17.4004 141.117 18.1504L134.754 32.4414ZM152.49 22.1055C152.49 18.1445 151.834 14.8574 150.521 12.2441C149.209 9.61914 147.176 7.85547 144.422 6.95312L144.896 5.59961C148.318 6.50195 150.943 8.45312 152.771 11.4531C154.611 14.4414 155.531 18.0508 155.531 22.2812C155.531 26.5234 154.617 30.1328 152.789 33.1094C150.961 36.0977 148.33 38.043 144.896 38.9453L144.475 37.5918C147.182 36.6895 149.191 34.9082 150.504 32.248C151.828 29.5879 152.49 26.207 152.49 22.1055ZM169.26 18.2383V15.9004H190.916V18.2383H169.26ZM169.26 25.5332V23.1953H190.916V25.5332H169.26ZM216.281 14.5996V18.2734H214.049C213.85 17.5117 213.604 16.9141 213.311 16.4805C213.018 16.0352 212.678 15.7246 212.291 15.5488C211.904 15.373 211.424 15.2852 210.85 15.2852C210.029 15.2852 209.303 15.5488 208.67 16.0762C208.037 16.6035 207.533 17.4062 207.158 18.4844C206.795 19.5625 206.613 20.8809 206.613 22.4395C206.613 23.4355 206.684 24.3496 206.824 25.1816C206.965 26.002 207.205 26.7051 207.545 27.291C207.885 27.877 208.336 28.334 208.898 28.6621C209.461 28.9902 210.158 29.1543 210.99 29.1543C211.799 29.1543 212.549 28.9961 213.24 28.6797C213.943 28.3633 214.67 27.8066 215.42 27.0098L216.422 28.1699C215.824 28.8262 215.297 29.3359 214.84 29.6992C214.383 30.0508 213.891 30.3496 213.363 30.5957C212.848 30.8301 212.332 31 211.816 31.1055C211.312 31.2227 210.762 31.2812 210.164 31.2812C207.949 31.2812 206.256 30.5488 205.084 29.084C203.912 27.6074 203.326 25.4805 203.326 22.7031C203.326 20.9688 203.654 19.4336 204.311 18.0977C204.967 16.75 205.887 15.7129 207.07 14.9863C208.254 14.2598 209.619 13.8965 211.166 13.8965C212.127 13.8965 213.012 13.9551 213.82 14.0723C214.641 14.1777 215.461 14.3535 216.281 14.5996ZM226.723 31.2812C224.285 31.2812 222.422 30.5664 221.133 29.1367C219.855 27.6953 219.217 25.5684 219.217 22.7559C219.217 20.8223 219.551 19.1875 220.219 17.8516C220.898 16.5156 221.824 15.5254 222.996 14.8809C224.168 14.2246 225.504 13.8965 227.004 13.8965C229.512 13.8965 231.41 14.6289 232.699 16.0938C233.988 17.5469 234.633 19.6387 234.633 22.3691C234.633 24.3145 234.311 25.9551 233.666 27.291C233.021 28.627 232.107 29.6289 230.924 30.2969C229.74 30.9531 228.34 31.2812 226.723 31.2812ZM222.539 22.3867C222.539 24.8008 222.92 26.6582 223.682 27.959C224.455 29.248 225.557 29.8926 226.986 29.8926C227.771 29.8926 228.439 29.7051 228.99 29.3301C229.541 28.9434 229.986 28.4277 230.326 27.7832C230.678 27.1387 230.93 26.3945 231.082 25.5508C231.234 24.6953 231.311 23.8047 231.311 22.8789C231.311 21.1562 231.117 19.7266 230.73 18.5898C230.355 17.4531 229.84 16.6211 229.184 16.0938C228.527 15.5547 227.777 15.2852 226.934 15.2852C225.516 15.2852 224.426 15.9004 223.664 17.1309C222.914 18.3613 222.539 20.1133 222.539 22.3867ZM249.979 18.0449H248.291C248.033 17.3418 247.729 16.791 247.377 16.3926C247.025 15.9824 246.627 15.6953 246.182 15.5312C245.736 15.3672 245.191 15.2852 244.547 15.2852C243.609 15.2852 242.859 15.5078 242.297 15.9531C241.746 16.3867 241.471 16.9844 241.471 17.7461C241.471 18.2852 241.582 18.7305 241.805 19.082C242.027 19.4336 242.373 19.7617 242.842 20.0664C243.311 20.3711 244.137 20.7754 245.32 21.2793C246.516 21.7949 247.436 22.2695 248.08 22.7031C248.736 23.1367 249.246 23.6406 249.609 24.2148C249.984 24.7891 250.172 25.4746 250.172 26.2715C250.172 27.1973 250.014 27.9766 249.697 28.6094C249.381 29.2422 248.936 29.7578 248.361 30.1562C247.787 30.5547 247.102 30.8418 246.305 31.0176C245.52 31.1934 244.658 31.2812 243.721 31.2812C242.736 31.2812 241.781 31.2051 240.855 31.0527C239.93 30.9121 239.027 30.7246 238.148 30.4902V26.8164H239.871C240.188 27.8945 240.656 28.6797 241.277 29.1719C241.898 29.6523 242.754 29.8926 243.844 29.8926C244.266 29.8926 244.676 29.8516 245.074 29.7695C245.484 29.6758 245.848 29.5293 246.164 29.3301C246.48 29.1191 246.732 28.8379 246.92 28.4863C247.107 28.1348 247.201 27.6953 247.201 27.168C247.201 26.5703 247.084 26.084 246.85 25.709C246.615 25.334 246.252 24.9941 245.76 24.6895C245.268 24.373 244.4 23.9512 243.158 23.4238C242.092 22.9785 241.236 22.5449 240.592 22.123C239.947 21.7012 239.438 21.2031 239.062 20.6289C238.699 20.0547 238.518 19.375 238.518 18.5898C238.518 17.6289 238.775 16.7969 239.291 16.0938C239.818 15.3789 240.574 14.834 241.559 14.459C242.543 14.084 243.697 13.8965 245.021 13.8965C245.795 13.8965 246.539 13.9375 247.254 14.0195C247.98 14.0898 248.889 14.2363 249.979 14.459V18.0449ZM258.17 22.1055C258.17 26.207 258.826 29.5879 260.139 32.248C261.463 34.9082 263.479 36.6895 266.186 37.5918L265.764 38.9453C262.33 38.043 259.699 36.0977 257.871 33.1094C256.043 30.1328 255.129 26.5234 255.129 22.2812C255.129 18.0508 256.043 14.4414 257.871 11.4531C259.711 8.45312 262.342 6.50195 265.764 5.59961L266.238 6.95312C263.496 7.85547 261.463 9.61914 260.139 12.2441C258.826 14.8574 258.17 18.1445 258.17 22.1055ZM276.047 20.8574L278.332 17.957C278.578 17.6406 278.777 17.3359 278.93 17.043C279.082 16.7383 279.158 16.4277 279.158 16.1113C279.158 15.8418 279.059 15.6191 278.859 15.4434C278.66 15.2676 278.35 15.1387 277.928 15.0566V14.1953H283.676V15.0566C283.23 15.1855 282.773 15.4375 282.305 15.8125C281.848 16.1875 281.285 16.791 280.617 17.623L276.979 22.0879L280.986 27.4844C281.561 28.2578 282.076 28.8496 282.533 29.2598C282.99 29.6699 283.447 29.9629 283.904 30.1387V31H276.838V30.1387C277.811 30.0215 278.297 29.6582 278.297 29.0488C278.297 28.8027 278.256 28.5684 278.174 28.3457C278.092 28.123 277.939 27.8652 277.717 27.5723L275.168 24.0215L272.461 27.5371C272.262 27.7949 272.104 28.0352 271.986 28.2578C271.881 28.4688 271.828 28.709 271.828 28.9785C271.828 29.2949 271.934 29.5586 272.145 29.7695C272.367 29.9688 272.713 30.0918 273.182 30.1387V31H267.311V30.1387C267.697 29.998 268.043 29.8223 268.348 29.6113C268.664 29.4004 268.98 29.1309 269.297 28.8027C269.625 28.4629 270.053 27.9707 270.58 27.3262L274.236 22.791L270.492 17.6582C269.977 16.9551 269.566 16.4453 269.262 16.1289C268.957 15.8125 268.676 15.5723 268.418 15.4082C268.16 15.2441 267.902 15.127 267.645 15.0566V14.1953H274.535V15.0566C273.609 15.1973 273.146 15.5605 273.146 16.1465C273.146 16.416 273.205 16.6855 273.322 16.9551C273.451 17.2246 273.645 17.5234 273.902 17.8516L276.047 20.8574ZM293.045 22.1055C293.045 18.1445 292.389 14.8574 291.076 12.2441C289.764 9.61914 287.73 7.85547 284.977 6.95312L285.451 5.59961C288.873 6.50195 291.498 8.45312 293.326 11.4531C295.166 14.4414 296.086 18.0508 296.086 22.2812C296.086 26.5234 295.172 30.1328 293.344 33.1094C291.516 36.0977 288.885 38.043 285.451 38.9453L285.029 37.5918C287.736 36.6895 289.746 34.9082 291.059 32.248C292.383 29.5879 293.045 26.207 293.045 22.1055ZM321.996 14.5996V18.2734H319.764C319.564 17.5117 319.318 16.9141 319.025 16.4805C318.732 16.0352 318.393 15.7246 318.006 15.5488C317.619 15.373 317.139 15.2852 316.564 15.2852C315.744 15.2852 315.018 15.5488 314.385 16.0762C313.752 16.6035 313.248 17.4062 312.873 18.4844C312.51 19.5625 312.328 20.8809 312.328 22.4395C312.328 23.4355 312.398 24.3496 312.539 25.1816C312.68 26.002 312.92 26.7051 313.26 27.291C313.6 27.877 314.051 28.334 314.613 28.6621C315.176 28.9902 315.873 29.1543 316.705 29.1543C317.514 29.1543 318.264 28.9961 318.955 28.6797C319.658 28.3633 320.385 27.8066 321.135 27.0098L322.137 28.1699C321.539 28.8262 321.012 29.3359 320.555 29.6992C320.098 30.0508 319.605 30.3496 319.078 30.5957C318.562 30.8301 318.047 31 317.531 31.1055C317.027 31.2227 316.477 31.2812 315.879 31.2812C313.664 31.2812 311.971 30.5488 310.799 29.084C309.627 27.6074 309.041 25.4805 309.041 22.7031C309.041 20.9688 309.369 19.4336 310.025 18.0977C310.682 16.75 311.602 15.7129 312.785 14.9863C313.969 14.2598 315.334 13.8965 316.881 13.8965C317.842 13.8965 318.727 13.9551 319.535 14.0723C320.355 14.1777 321.176 14.3535 321.996 14.5996ZM332.438 31.2812C330 31.2812 328.137 30.5664 326.848 29.1367C325.57 27.6953 324.932 25.5684 324.932 22.7559C324.932 20.8223 325.266 19.1875 325.934 17.8516C326.613 16.5156 327.539 15.5254 328.711 14.8809C329.883 14.2246 331.219 13.8965 332.719 13.8965C335.227 13.8965 337.125 14.6289 338.414 16.0938C339.703 17.5469 340.348 19.6387 340.348 22.3691C340.348 24.3145 340.025 25.9551 339.381 27.291C338.736 28.627 337.822 29.6289 336.639 30.2969C335.455 30.9531 334.055 31.2812 332.438 31.2812ZM328.254 22.3867C328.254 24.8008 328.635 26.6582 329.396 27.959C330.17 29.248 331.271 29.8926 332.701 29.8926C333.486 29.8926 334.154 29.7051 334.705 29.3301C335.256 28.9434 335.701 28.4277 336.041 27.7832C336.393 27.1387 336.645 26.3945 336.797 25.5508C336.949 24.6953 337.025 23.8047 337.025 22.8789C337.025 21.1562 336.832 19.7266 336.445 18.5898C336.07 17.4531 335.555 16.6211 334.898 16.0938C334.242 15.5547 333.492 15.2852 332.648 15.2852C331.23 15.2852 330.141 15.9004 329.379 17.1309C328.629 18.3613 328.254 20.1133 328.254 22.3867ZM355.693 18.0449H354.006C353.748 17.3418 353.443 16.791 353.092 16.3926C352.74 15.9824 352.342 15.6953 351.896 15.5312C351.451 15.3672 350.906 15.2852 350.262 15.2852C349.324 15.2852 348.574 15.5078 348.012 15.9531C347.461 16.3867 347.186 16.9844 347.186 17.7461C347.186 18.2852 347.297 18.7305 347.52 19.082C347.742 19.4336 348.088 19.7617 348.557 20.0664C349.025 20.3711 349.852 20.7754 351.035 21.2793C352.23 21.7949 353.15 22.2695 353.795 22.7031C354.451 23.1367 354.961 23.6406 355.324 24.2148C355.699 24.7891 355.887 25.4746 355.887 26.2715C355.887 27.1973 355.729 27.9766 355.412 28.6094C355.096 29.2422 354.65 29.7578 354.076 30.1562C353.502 30.5547 352.816 30.8418 352.02 31.0176C351.234 31.1934 350.373 31.2812 349.436 31.2812C348.451 31.2812 347.496 31.2051 346.57 31.0527C345.645 30.9121 344.742 30.7246 343.863 30.4902V26.8164H345.586C345.902 27.8945 346.371 28.6797 346.992 29.1719C347.613 29.6523 348.469 29.8926 349.559 29.8926C349.98 29.8926 350.391 29.8516 350.789 29.7695C351.199 29.6758 351.562 29.5293 351.879 29.3301C352.195 29.1191 352.447 28.8379 352.635 28.4863C352.822 28.1348 352.916 27.6953 352.916 27.168C352.916 26.5703 352.799 26.084 352.564 25.709C352.33 25.334 351.967 24.9941 351.475 24.6895C350.982 24.373 350.115 23.9512 348.873 23.4238C347.807 22.9785 346.951 22.5449 346.307 22.123C345.662 21.7012 345.152 21.2031 344.777 20.6289C344.414 20.0547 344.232 19.375 344.232 18.5898C344.232 17.6289 344.49 16.7969 345.006 16.0938C345.533 15.3789 346.289 14.834 347.273 14.459C348.258 14.084 349.412 13.8965 350.736 13.8965C351.51 13.8965 352.254 13.9375 352.969 14.0195C353.695 14.0898 354.604 14.2363 355.693 14.459V18.0449ZM363.885 22.1055C363.885 26.207 364.541 29.5879 365.854 32.248C367.178 34.9082 369.193 36.6895 371.9 37.5918L371.479 38.9453C368.045 38.043 365.414 36.0977 363.586 33.1094C361.758 30.1328 360.844 26.5234 360.844 22.2812C360.844 18.0508 361.758 14.4414 363.586 11.4531C365.426 8.45312 368.057 6.50195 371.479 5.59961L371.953 6.95312C369.211 7.85547 367.178 9.61914 365.854 12.2441C364.541 14.8574 363.885 18.1445 363.885 22.1055ZM381.762 32.4414C381.117 33.8945 380.49 35.0723 379.881 35.9746C379.271 36.877 378.598 37.5566 377.859 38.0137C377.133 38.4707 376.266 38.6992 375.258 38.6992C374.613 38.6992 373.887 38.623 373.078 38.4707V34.9902H374.643C374.783 35.4707 374.959 35.8047 375.17 35.9922C375.381 36.1797 375.686 36.2734 376.084 36.2734C376.436 36.2734 376.746 36.2031 377.016 36.0625C377.297 35.9336 377.584 35.7051 377.877 35.377C378.182 35.0488 378.533 34.5449 378.932 33.8652C379.342 33.1855 379.799 32.3242 380.303 31.2812L375.381 18.0449C375.064 17.1895 374.807 16.5918 374.607 16.252C374.42 15.9121 374.215 15.6543 373.992 15.4785C373.77 15.3027 373.43 15.1621 372.973 15.0566V14.1953H380.127V15.0566C379.576 15.1855 379.189 15.3145 378.967 15.4434C378.744 15.5605 378.58 15.7188 378.475 15.918C378.369 16.1055 378.316 16.3516 378.316 16.6562C378.316 16.9727 378.352 17.3008 378.422 17.6406C378.504 17.9805 378.627 18.3789 378.791 18.8359L381.92 27.6426L385.436 19.2051C385.635 18.7363 385.787 18.3086 385.893 17.9219C386.01 17.5234 386.068 17.1543 386.068 16.8145C386.068 16.3105 385.928 15.9297 385.646 15.6719C385.377 15.4141 384.902 15.209 384.223 15.0566V14.1953H390.797V15.0566C390.34 15.1504 389.988 15.2969 389.742 15.4961C389.496 15.6836 389.25 15.9883 389.004 16.4102C388.758 16.8203 388.465 17.4004 388.125 18.1504L381.762 32.4414ZM399.498 22.1055C399.498 18.1445 398.842 14.8574 397.529 12.2441C396.217 9.61914 394.184 7.85547 391.43 6.95312L391.904 5.59961C395.326 6.50195 397.951 8.45312 399.779 11.4531C401.619 14.4414 402.539 18.0508 402.539 22.2812C402.539 26.5234 401.625 30.1328 399.797 33.1094C397.969 36.0977 395.338 38.043 391.904 38.9453L391.482 37.5918C394.189 36.6895 396.199 34.9082 397.512 32.248C398.836 29.5879 399.498 26.207 399.498 22.1055ZM423.703 23.1074H415.547V20.3828H423.703V23.1074ZM447.029 18.0449H445.342C445.084 17.3418 444.779 16.791 444.428 16.3926C444.076 15.9824 443.678 15.6953 443.232 15.5312C442.787 15.3672 442.242 15.2852 441.598 15.2852C440.66 15.2852 439.91 15.5078 439.348 15.9531C438.797 16.3867 438.521 16.9844 438.521 17.7461C438.521 18.2852 438.633 18.7305 438.855 19.082C439.078 19.4336 439.424 19.7617 439.893 20.0664C440.361 20.3711 441.188 20.7754 442.371 21.2793C443.566 21.7949 444.486 22.2695 445.131 22.7031C445.787 23.1367 446.297 23.6406 446.66 24.2148C447.035 24.7891 447.223 25.4746 447.223 26.2715C447.223 27.1973 447.064 27.9766 446.748 28.6094C446.432 29.2422 445.986 29.7578 445.412 30.1562C444.838 30.5547 444.152 30.8418 443.355 31.0176C442.57 31.1934 441.709 31.2812 440.771 31.2812C439.787 31.2812 438.832 31.2051 437.906 31.0527C436.98 30.9121 436.078 30.7246 435.199 30.4902V26.8164H436.922C437.238 27.8945 437.707 28.6797 438.328 29.1719C438.949 29.6523 439.805 29.8926 440.895 29.8926C441.316 29.8926 441.727 29.8516 442.125 29.7695C442.535 29.6758 442.898 29.5293 443.215 29.3301C443.531 29.1191 443.783 28.8379 443.971 28.4863C444.158 28.1348 444.252 27.6953 444.252 27.168C444.252 26.5703 444.135 26.084 443.9 25.709C443.666 25.334 443.303 24.9941 442.811 24.6895C442.318 24.373 441.451 23.9512 440.209 23.4238C439.143 22.9785 438.287 22.5449 437.643 22.123C436.998 21.7012 436.488 21.2031 436.113 20.6289C435.75 20.0547 435.568 19.375 435.568 18.5898C435.568 17.6289 435.826 16.7969 436.342 16.0938C436.869 15.3789 437.625 14.834 438.609 14.459C439.594 14.084 440.748 13.8965 442.072 13.8965C442.846 13.8965 443.59 13.9375 444.305 14.0195C445.031 14.0898 445.939 14.2363 447.029 14.459V18.0449ZM455.748 7.30469V10.7148H452.514V7.30469H455.748ZM450.721 30.1387C451.178 29.998 451.5 29.875 451.688 29.7695C451.887 29.6641 452.051 29.5176 452.18 29.3301C452.32 29.1426 452.426 28.8555 452.496 28.4688C452.578 28.082 452.619 27.4785 452.619 26.6582V18.9941C452.619 18.2441 452.607 17.6406 452.584 17.1836C452.561 16.7266 452.479 16.3633 452.338 16.0938C452.197 15.8125 451.98 15.6074 451.688 15.4785C451.406 15.3379 451.002 15.2207 450.475 15.127V14.1953L454.57 14.0371H455.643V26.6055C455.643 27.6133 455.689 28.3164 455.783 28.7148C455.877 29.1016 456.053 29.4004 456.311 29.6113C456.58 29.8105 457.014 29.9863 457.611 30.1387V31H450.721V30.1387ZM477.861 31H470.936V30.1387C471.393 29.998 471.721 29.875 471.92 29.7695C472.119 29.6641 472.283 29.5176 472.412 29.3301C472.553 29.1426 472.658 28.8555 472.729 28.4688C472.811 28.0703 472.852 27.4727 472.852 26.6758V22.0703C472.852 21.25 472.828 20.5059 472.781 19.8379C472.734 19.1699 472.652 18.625 472.535 18.2031C472.43 17.7695 472.295 17.4355 472.131 17.2012C471.979 16.9551 471.791 16.75 471.568 16.5859C471.357 16.4102 471.111 16.2754 470.83 16.1816C470.549 16.0762 470.18 16.0234 469.723 16.0234C469.266 16.0234 468.832 16.1172 468.422 16.3047C468.012 16.4805 467.561 16.791 467.068 17.2363C466.576 17.6816 466.219 18.1211 465.996 18.5547C465.773 18.9883 465.662 19.4863 465.662 20.0488V26.6055C465.662 27.6133 465.709 28.3164 465.803 28.7148C465.896 29.1016 466.072 29.4004 466.33 29.6113C466.6 29.8105 467.033 29.9863 467.631 30.1387V31H460.74V30.1387C461.197 29.998 461.52 29.875 461.707 29.7695C461.906 29.6641 462.07 29.5176 462.199 29.3301C462.34 29.1426 462.445 28.8555 462.516 28.4688C462.598 28.082 462.639 27.4785 462.639 26.6582V18.9941C462.639 18.2441 462.627 17.6406 462.604 17.1836C462.58 16.7266 462.498 16.3633 462.357 16.0938C462.217 15.8125 462 15.6074 461.707 15.4785C461.426 15.3379 461.021 15.2207 460.494 15.127V14.1953L464.607 14.0371H465.68L465.486 16.9023L465.732 16.9727C466.6 16.0938 467.297 15.4668 467.824 15.0918C468.363 14.7168 468.902 14.4297 469.441 14.2305C469.992 14.0195 470.572 13.9141 471.182 13.9141C471.814 13.9141 472.377 13.9902 472.869 14.1426C473.373 14.2832 473.812 14.5059 474.188 14.8105C474.574 15.1152 474.891 15.4961 475.137 15.9531C475.383 16.3984 475.564 16.9375 475.682 17.5703C475.811 18.2031 475.875 19.0059 475.875 19.9785V26.6055C475.875 27.4141 475.898 28 475.945 28.3633C475.992 28.7266 476.074 29.0078 476.191 29.207C476.309 29.4062 476.479 29.5762 476.701 29.7168C476.924 29.8457 477.311 29.9863 477.861 30.1387V31ZM485.35 22.1055C485.35 26.207 486.006 29.5879 487.318 32.248C488.643 34.9082 490.658 36.6895 493.365 37.5918L492.943 38.9453C489.51 38.043 486.879 36.0977 485.051 33.1094C483.223 30.1328 482.309 26.5234 482.309 22.2812C482.309 18.0508 483.223 14.4414 485.051 11.4531C486.891 8.45312 489.521 6.50195 492.943 5.59961L493.418 6.95312C490.676 7.85547 488.643 9.61914 487.318 12.2441C486.006 14.8574 485.35 18.1445 485.35 22.1055ZM503.227 20.8574L505.512 17.957C505.758 17.6406 505.957 17.3359 506.109 17.043C506.262 16.7383 506.338 16.4277 506.338 16.1113C506.338 15.8418 506.238 15.6191 506.039 15.4434C505.84 15.2676 505.529 15.1387 505.107 15.0566V14.1953H510.855V15.0566C510.41 15.1855 509.953 15.4375 509.484 15.8125C509.027 16.1875 508.465 16.791 507.797 17.623L504.158 22.0879L508.166 27.4844C508.74 28.2578 509.256 28.8496 509.713 29.2598C510.17 29.6699 510.627 29.9629 511.084 30.1387V31H504.018V30.1387C504.99 30.0215 505.477 29.6582 505.477 29.0488C505.477 28.8027 505.436 28.5684 505.354 28.3457C505.271 28.123 505.119 27.8652 504.896 27.5723L502.348 24.0215L499.641 27.5371C499.441 27.7949 499.283 28.0352 499.166 28.2578C499.061 28.4688 499.008 28.709 499.008 28.9785C499.008 29.2949 499.113 29.5586 499.324 29.7695C499.547 29.9688 499.893 30.0918 500.361 30.1387V31H494.49V30.1387C494.877 29.998 495.223 29.8223 495.527 29.6113C495.844 29.4004 496.16 29.1309 496.477 28.8027C496.805 28.4629 497.232 27.9707 497.76 27.3262L501.416 22.791L497.672 17.6582C497.156 16.9551 496.746 16.4453 496.441 16.1289C496.137 15.8125 495.855 15.5723 495.598 15.4082C495.34 15.2441 495.082 15.127 494.824 15.0566V14.1953H501.715V15.0566C500.789 15.1973 500.326 15.5605 500.326 16.1465C500.326 16.416 500.385 16.6855 500.502 16.9551C500.631 17.2246 500.824 17.5234 501.082 17.8516L503.227 20.8574ZM520.225 22.1055C520.225 18.1445 519.568 14.8574 518.256 12.2441C516.943 9.61914 514.91 7.85547 512.156 6.95312L512.631 5.59961C516.053 6.50195 518.678 8.45312 520.506 11.4531C522.346 14.4414 523.266 18.0508 523.266 22.2812C523.266 26.5234 522.352 30.1328 520.523 33.1094C518.695 36.0977 516.064 38.043 512.631 38.9453L512.209 37.5918C514.916 36.6895 516.926 34.9082 518.238 32.248C519.562 29.5879 520.225 26.207 520.225 22.1055ZM547.857 18.0449H546.17C545.912 17.3418 545.607 16.791 545.256 16.3926C544.904 15.9824 544.506 15.6953 544.061 15.5312C543.615 15.3672 543.07 15.2852 542.426 15.2852C541.488 15.2852 540.738 15.5078 540.176 15.9531C539.625 16.3867 539.35 16.9844 539.35 17.7461C539.35 18.2852 539.461 18.7305 539.684 19.082C539.906 19.4336 540.252 19.7617 540.721 20.0664C541.189 20.3711 542.016 20.7754 543.199 21.2793C544.395 21.7949 545.314 22.2695 545.959 22.7031C546.615 23.1367 547.125 23.6406 547.488 24.2148C547.863 24.7891 548.051 25.4746 548.051 26.2715C548.051 27.1973 547.893 27.9766 547.576 28.6094C547.26 29.2422 546.814 29.7578 546.24 30.1562C545.666 30.5547 544.98 30.8418 544.184 31.0176C543.398 31.1934 542.537 31.2812 541.6 31.2812C540.615 31.2812 539.66 31.2051 538.734 31.0527C537.809 30.9121 536.906 30.7246 536.027 30.4902V26.8164H537.75C538.066 27.8945 538.535 28.6797 539.156 29.1719C539.777 29.6523 540.633 29.8926 541.723 29.8926C542.145 29.8926 542.555 29.8516 542.953 29.7695C543.363 29.6758 543.727 29.5293 544.043 29.3301C544.359 29.1191 544.611 28.8379 544.799 28.4863C544.986 28.1348 545.08 27.6953 545.08 27.168C545.08 26.5703 544.963 26.084 544.729 25.709C544.494 25.334 544.131 24.9941 543.639 24.6895C543.146 24.373 542.279 23.9512 541.037 23.4238C539.971 22.9785 539.115 22.5449 538.471 22.123C537.826 21.7012 537.316 21.2031 536.941 20.6289C536.578 20.0547 536.396 19.375 536.396 18.5898C536.396 17.6289 536.654 16.7969 537.17 16.0938C537.697 15.3789 538.453 14.834 539.438 14.459C540.422 14.084 541.576 13.8965 542.9 13.8965C543.674 13.8965 544.418 13.9375 545.133 14.0195C545.859 14.0898 546.768 14.2363 547.857 14.459V18.0449ZM556.576 7.30469V10.7148H553.342V7.30469H556.576ZM551.549 30.1387C552.006 29.998 552.328 29.875 552.516 29.7695C552.715 29.6641 552.879 29.5176 553.008 29.3301C553.148 29.1426 553.254 28.8555 553.324 28.4688C553.406 28.082 553.447 27.4785 553.447 26.6582V18.9941C553.447 18.2441 553.436 17.6406 553.412 17.1836C553.389 16.7266 553.307 16.3633 553.166 16.0938C553.025 15.8125 552.809 15.6074 552.516 15.4785C552.234 15.3379 551.83 15.2207 551.303 15.127V14.1953L555.398 14.0371H556.471V26.6055C556.471 27.6133 556.518 28.3164 556.611 28.7148C556.705 29.1016 556.881 29.4004 557.139 29.6113C557.408 29.8105 557.842 29.9863 558.439 30.1387V31H551.549V30.1387ZM578.689 31H571.764V30.1387C572.221 29.998 572.549 29.875 572.748 29.7695C572.947 29.6641 573.111 29.5176 573.24 29.3301C573.381 29.1426 573.486 28.8555 573.557 28.4688C573.639 28.0703 573.68 27.4727 573.68 26.6758V22.0703C573.68 21.25 573.656 20.5059 573.609 19.8379C573.562 19.1699 573.48 18.625 573.363 18.2031C573.258 17.7695 573.123 17.4355 572.959 17.2012C572.807 16.9551 572.619 16.75 572.396 16.5859C572.186 16.4102 571.939 16.2754 571.658 16.1816C571.377 16.0762 571.008 16.0234 570.551 16.0234C570.094 16.0234 569.66 16.1172 569.25 16.3047C568.84 16.4805 568.389 16.791 567.896 17.2363C567.404 17.6816 567.047 18.1211 566.824 18.5547C566.602 18.9883 566.49 19.4863 566.49 20.0488V26.6055C566.49 27.6133 566.537 28.3164 566.631 28.7148C566.725 29.1016 566.9 29.4004 567.158 29.6113C567.428 29.8105 567.861 29.9863 568.459 30.1387V31H561.568V30.1387C562.025 29.998 562.348 29.875 562.535 29.7695C562.734 29.6641 562.898 29.5176 563.027 29.3301C563.168 29.1426 563.273 28.8555 563.344 28.4688C563.426 28.082 563.467 27.4785 563.467 26.6582V18.9941C563.467 18.2441 563.455 17.6406 563.432 17.1836C563.408 16.7266 563.326 16.3633 563.186 16.0938C563.045 15.8125 562.828 15.6074 562.535 15.4785C562.254 15.3379 561.85 15.2207 561.322 15.127V14.1953L565.436 14.0371H566.508L566.314 16.9023L566.561 16.9727C567.428 16.0938 568.125 15.4668 568.652 15.0918C569.191 14.7168 569.73 14.4297 570.27 14.2305C570.82 14.0195 571.4 13.9141 572.01 13.9141C572.643 13.9141 573.205 13.9902 573.697 14.1426C574.201 14.2832 574.641 14.5059 575.016 14.8105C575.402 15.1152 575.719 15.4961 575.965 15.9531C576.211 16.3984 576.393 16.9375 576.51 17.5703C576.639 18.2031 576.703 19.0059 576.703 19.9785V26.6055C576.703 27.4141 576.727 28 576.773 28.3633C576.82 28.7266 576.902 29.0078 577.02 29.207C577.137 29.4062 577.307 29.5762 577.529 29.7168C577.752 29.8457 578.139 29.9863 578.689 30.1387V31ZM586.178 22.1055C586.178 26.207 586.834 29.5879 588.146 32.248C589.471 34.9082 591.486 36.6895 594.193 37.5918L593.771 38.9453C590.338 38.043 587.707 36.0977 585.879 33.1094C584.051 30.1328 583.137 26.5234 583.137 22.2812C583.137 18.0508 584.051 14.4414 585.879 11.4531C587.719 8.45312 590.35 6.50195 593.771 5.59961L594.246 6.95312C591.504 7.85547 589.471 9.61914 588.146 12.2441C586.834 14.8574 586.178 18.1445 586.178 22.1055ZM604.055 32.4414C603.41 33.8945 602.783 35.0723 602.174 35.9746C601.564 36.877 600.891 37.5566 600.152 38.0137C599.426 38.4707 598.559 38.6992 597.551 38.6992C596.906 38.6992 596.18 38.623 595.371 38.4707V34.9902H596.936C597.076 35.4707 597.252 35.8047 597.463 35.9922C597.674 36.1797 597.979 36.2734 598.377 36.2734C598.729 36.2734 599.039 36.2031 599.309 36.0625C599.59 35.9336 599.877 35.7051 600.17 35.377C600.475 35.0488 600.826 34.5449 601.225 33.8652C601.635 33.1855 602.092 32.3242 602.596 31.2812L597.674 18.0449C597.357 17.1895 597.1 16.5918 596.9 16.252C596.713 15.9121 596.508 15.6543 596.285 15.4785C596.062 15.3027 595.723 15.1621 595.266 15.0566V14.1953H602.42V15.0566C601.869 15.1855 601.482 15.3145 601.26 15.4434C601.037 15.5605 600.873 15.7188 600.768 15.918C600.662 16.1055 600.609 16.3516 600.609 16.6562C600.609 16.9727 600.645 17.3008 600.715 17.6406C600.797 17.9805 600.92 18.3789 601.084 18.8359L604.213 27.6426L607.729 19.2051C607.928 18.7363 608.08 18.3086 608.186 17.9219C608.303 17.5234 608.361 17.1543 608.361 16.8145C608.361 16.3105 608.221 15.9297 607.939 15.6719C607.67 15.4141 607.195 15.209 606.516 15.0566V14.1953H613.09V15.0566C612.633 15.1504 612.281 15.2969 612.035 15.4961C611.789 15.6836 611.543 15.9883 611.297 16.4102C611.051 16.8203 610.758 17.4004 610.418 18.1504L604.055 32.4414ZM621.791 22.1055C621.791 18.1445 621.135 14.8574 619.822 12.2441C618.51 9.61914 616.477 7.85547 613.723 6.95312L614.197 5.59961C617.619 6.50195 620.244 8.45312 622.072 11.4531C623.912 14.4414 624.832 18.0508 624.832 22.2812C624.832 26.5234 623.918 30.1328 622.09 33.1094C620.262 36.0977 617.631 38.043 614.197 38.9453L613.775 37.5918C616.482 36.6895 618.492 34.9082 619.805 32.248C621.129 29.5879 621.791 26.207 621.791 22.1055Z" fill="white"/>
</svg>
