<svg width="628" height="42" viewBox="0 0 628 42" fill="none" xmlns="http://www.w3.org/2000/svg">
<path d="M14.8008 14.5996V18.2734H12.5684C12.3691 17.5117 12.123 16.9141 11.8301 16.4805C11.5371 16.0352 11.1973 15.7246 10.8105 15.5488C10.4238 15.373 9.94336 15.2852 9.36914 15.2852C8.54883 15.2852 7.82227 15.5488 7.18945 16.0762C6.55664 16.6035 6.05273 17.4062 5.67773 18.4844C5.31445 19.5625 5.13281 20.8809 5.13281 22.4395C5.13281 23.4355 5.20312 24.3496 5.34375 25.1816C5.48438 26.002 5.72461 26.7051 6.06445 27.291C6.4043 27.877 6.85547 28.334 7.41797 28.6621C7.98047 28.9902 8.67773 29.1543 9.50977 29.1543C10.3184 29.1543 11.0684 28.9961 11.7598 28.6797C12.4629 28.3633 13.1895 27.8066 13.9395 27.0098L14.9414 28.1699C14.3438 28.8262 13.8164 29.3359 13.3594 29.6992C12.9023 30.0508 12.4102 30.3496 11.8828 30.5957C11.3672 30.8301 10.8516 31 10.3359 31.1055C9.83203 31.2227 9.28125 31.2812 8.68359 31.2812C6.46875 31.2812 4.77539 30.5488 3.60352 29.084C2.43164 27.6074 1.8457 25.4805 1.8457 22.7031C1.8457 20.9688 2.17383 19.4336 2.83008 18.0977C3.48633 16.75 4.40625 15.7129 5.58984 14.9863C6.77344 14.2598 8.13867 13.8965 9.68555 13.8965C10.6465 13.8965 11.5312 13.9551 12.3398 14.0723C13.1602 14.1777 13.9805 14.3535 14.8008 14.5996ZM25.2422 31.2812C22.8047 31.2812 20.9414 30.5664 19.6523 29.1367C18.375 27.6953 17.7363 25.5684 17.7363 22.7559C17.7363 20.8223 18.0703 19.1875 18.7383 17.8516C19.418 16.5156 20.3438 15.5254 21.5156 14.8809C22.6875 14.2246 24.0234 13.8965 25.5234 13.8965C28.0312 13.8965 29.9297 14.6289 31.2188 16.0938C32.5078 17.5469 33.1523 19.6387 33.1523 22.3691C33.1523 24.3145 32.8301 25.9551 32.1855 27.291C31.541 28.627 30.627 29.6289 29.4434 30.2969C28.2598 30.9531 26.8594 31.2812 25.2422 31.2812ZM21.0586 22.3867C21.0586 24.8008 21.4395 26.6582 22.2012 27.959C22.9746 29.248 24.0762 29.8926 25.5059 29.8926C26.291 29.8926 26.959 29.7051 27.5098 29.3301C28.0605 28.9434 28.5059 28.4277 28.8457 27.7832C29.1973 27.1387 29.4492 26.3945 29.6016 25.5508C29.7539 24.6953 29.8301 23.8047 29.8301 22.8789C29.8301 21.1562 29.6367 19.7266 29.25 18.5898C28.875 17.4531 28.3594 16.6211 27.7031 16.0938C27.0469 15.5547 26.2969 15.2852 25.4531 15.2852C24.0352 15.2852 22.9453 15.9004 22.1836 17.1309C21.4336 18.3613 21.0586 20.1133 21.0586 22.3867ZM48.498 18.0449H46.8105C46.5527 17.3418 46.248 16.791 45.8965 16.3926C45.5449 15.9824 45.1465 15.6953 44.7012 15.5312C44.2559 15.3672 43.7109 15.2852 43.0664 15.2852C42.1289 15.2852 41.3789 15.5078 40.8164 15.9531C40.2656 16.3867 39.9902 16.9844 39.9902 17.7461C39.9902 18.2852 40.1016 18.7305 40.3242 19.082C40.5469 19.4336 40.8926 19.7617 41.3613 20.0664C41.8301 20.3711 42.6562 20.7754 43.8398 21.2793C45.0352 21.7949 45.9551 22.2695 46.5996 22.7031C47.2559 23.1367 47.7656 23.6406 48.1289 24.2148C48.5039 24.7891 48.6914 25.4746 48.6914 26.2715C48.6914 27.1973 48.5332 27.9766 48.2168 28.6094C47.9004 29.2422 47.4551 29.7578 46.8809 30.1562C46.3066 30.5547 45.6211 30.8418 44.8242 31.0176C44.0391 31.1934 43.1777 31.2812 42.2402 31.2812C41.2559 31.2812 40.3008 31.2051 39.375 31.0527C38.4492 30.9121 37.5469 30.7246 36.668 30.4902V26.8164H38.3906C38.707 27.8945 39.1758 28.6797 39.7969 29.1719C40.418 29.6523 41.2734 29.8926 42.3633 29.8926C42.7852 29.8926 43.1953 29.8516 43.5938 29.7695C44.0039 29.6758 44.3672 29.5293 44.6836 29.3301C45 29.1191 45.252 28.8379 45.4395 28.4863C45.627 28.1348 45.7207 27.6953 45.7207 27.168C45.7207 26.5703 45.6035 26.084 45.3691 25.709C45.1348 25.334 44.7715 24.9941 44.2793 24.6895C43.7871 24.373 42.9199 23.9512 41.6777 23.4238C40.6113 22.9785 39.7559 22.5449 39.1113 22.123C38.4668 21.7012 37.957 21.2031 37.582 20.6289C37.2188 20.0547 37.0371 19.375 37.0371 18.5898C37.0371 17.6289 37.2949 16.7969 37.8105 16.0938C38.3379 15.3789 39.0938 14.834 40.0781 14.459C41.0625 14.084 42.2168 13.8965 43.541 13.8965C44.3145 13.8965 45.0586 13.9375 45.7734 14.0195C46.5 14.0898 47.4082 14.2363 48.498 14.459V18.0449ZM56.6895 22.1055C56.6895 26.207 57.3457 29.5879 58.6582 32.248C59.9824 34.9082 61.998 36.6895 64.7051 37.5918L64.2832 38.9453C60.8496 38.043 58.2188 36.0977 56.3906 33.1094C54.5625 30.1328 53.6484 26.5234 53.6484 22.2812C53.6484 18.0508 54.5625 14.4414 56.3906 11.4531C58.2305 8.45312 60.8613 6.50195 64.2832 5.59961L64.7578 6.95312C62.0156 7.85547 59.9824 9.61914 58.6582 12.2441C57.3457 14.8574 56.6895 18.1445 56.6895 22.1055ZM74.5664 20.8574L76.8516 17.957C77.0977 17.6406 77.2969 17.3359 77.4492 17.043C77.6016 16.7383 77.6777 16.4277 77.6777 16.1113C77.6777 15.8418 77.5781 15.6191 77.3789 15.4434C77.1797 15.2676 76.8691 15.1387 76.4473 15.0566V14.1953H82.1953V15.0566C81.75 15.1855 81.293 15.4375 80.8242 15.8125C80.3672 16.1875 79.8047 16.791 79.1367 17.623L75.498 22.0879L79.5059 27.4844C80.0801 28.2578 80.5957 28.8496 81.0527 29.2598C81.5098 29.6699 81.9668 29.9629 82.4238 30.1387V31H75.3574V30.1387C76.3301 30.0215 76.8164 29.6582 76.8164 29.0488C76.8164 28.8027 76.7754 28.5684 76.6934 28.3457C76.6113 28.123 76.459 27.8652 76.2363 27.5723L73.6875 24.0215L70.9805 27.5371C70.7812 27.7949 70.623 28.0352 70.5059 28.2578C70.4004 28.4688 70.3477 28.709 70.3477 28.9785C70.3477 29.2949 70.4531 29.5586 70.6641 29.7695C70.8867 29.9688 71.2324 30.0918 71.7012 30.1387V31H65.8301V30.1387C66.2168 29.998 66.5625 29.8223 66.8672 29.6113C67.1836 29.4004 67.5 29.1309 67.8164 28.8027C68.1445 28.4629 68.5723 27.9707 69.0996 27.3262L72.7559 22.791L69.0117 17.6582C68.4961 16.9551 68.0859 16.4453 67.7812 16.1289C67.4766 15.8125 67.1953 15.5723 66.9375 15.4082C66.6797 15.2441 66.4219 15.127 66.1641 15.0566V14.1953H73.0547V15.0566C72.1289 15.1973 71.666 15.5605 71.666 16.1465C71.666 16.416 71.7246 16.6855 71.8418 16.9551C71.9707 17.2246 72.1641 17.5234 72.4219 17.8516L74.5664 20.8574ZM100.828 23.1074H92.6719V20.3828H100.828V23.1074ZM119.812 32.4414C119.168 33.8945 118.541 35.0723 117.932 35.9746C117.322 36.877 116.648 37.5566 115.91 38.0137C115.184 38.4707 114.316 38.6992 113.309 38.6992C112.664 38.6992 111.938 38.623 111.129 38.4707V34.9902H112.693C112.834 35.4707 113.01 35.8047 113.221 35.9922C113.432 36.1797 113.736 36.2734 114.135 36.2734C114.486 36.2734 114.797 36.2031 115.066 36.0625C115.348 35.9336 115.635 35.7051 115.928 35.377C116.232 35.0488 116.584 34.5449 116.982 33.8652C117.393 33.1855 117.85 32.3242 118.354 31.2812L113.432 18.0449C113.115 17.1895 112.857 16.5918 112.658 16.252C112.471 15.9121 112.266 15.6543 112.043 15.4785C111.82 15.3027 111.48 15.1621 111.023 15.0566V14.1953H118.178V15.0566C117.627 15.1855 117.24 15.3145 117.018 15.4434C116.795 15.5605 116.631 15.7188 116.525 15.918C116.42 16.1055 116.367 16.3516 116.367 16.6562C116.367 16.9727 116.402 17.3008 116.473 17.6406C116.555 17.9805 116.678 18.3789 116.842 18.8359L119.971 27.6426L123.486 19.2051C123.686 18.7363 123.838 18.3086 123.943 17.9219C124.061 17.5234 124.119 17.1543 124.119 16.8145C124.119 16.3105 123.979 15.9297 123.697 15.6719C123.428 15.4141 122.953 15.209 122.273 15.0566V14.1953H128.848V15.0566C128.391 15.1504 128.039 15.2969 127.793 15.4961C127.547 15.6836 127.301 15.9883 127.055 16.4102C126.809 16.8203 126.516 17.4004 126.176 18.1504L119.812 32.4414ZM137.549 22.1055C137.549 18.1445 136.893 14.8574 135.58 12.2441C134.268 9.61914 132.234 7.85547 129.48 6.95312L129.955 5.59961C133.377 6.50195 136.002 8.45312 137.83 11.4531C139.67 14.4414 140.59 18.0508 140.59 22.2812C140.59 26.5234 139.676 30.1328 137.848 33.1094C136.02 36.0977 133.389 38.043 129.955 38.9453L129.533 37.5918C132.24 36.6895 134.25 34.9082 135.562 32.248C136.887 29.5879 137.549 26.207 137.549 22.1055ZM154.318 18.2383V15.9004H175.975V18.2383H154.318ZM154.318 25.5332V23.1953H175.975V25.5332H154.318ZM201.34 14.5996V18.2734H199.107C198.908 17.5117 198.662 16.9141 198.369 16.4805C198.076 16.0352 197.736 15.7246 197.35 15.5488C196.963 15.373 196.482 15.2852 195.908 15.2852C195.088 15.2852 194.361 15.5488 193.729 16.0762C193.096 16.6035 192.592 17.4062 192.217 18.4844C191.854 19.5625 191.672 20.8809 191.672 22.4395C191.672 23.4355 191.742 24.3496 191.883 25.1816C192.023 26.002 192.264 26.7051 192.604 27.291C192.943 27.877 193.395 28.334 193.957 28.6621C194.52 28.9902 195.217 29.1543 196.049 29.1543C196.857 29.1543 197.607 28.9961 198.299 28.6797C199.002 28.3633 199.729 27.8066 200.479 27.0098L201.48 28.1699C200.883 28.8262 200.355 29.3359 199.898 29.6992C199.441 30.0508 198.949 30.3496 198.422 30.5957C197.906 30.8301 197.391 31 196.875 31.1055C196.371 31.2227 195.82 31.2812 195.223 31.2812C193.008 31.2812 191.314 30.5488 190.143 29.084C188.971 27.6074 188.385 25.4805 188.385 22.7031C188.385 20.9688 188.713 19.4336 189.369 18.0977C190.025 16.75 190.945 15.7129 192.129 14.9863C193.312 14.2598 194.678 13.8965 196.225 13.8965C197.186 13.8965 198.07 13.9551 198.879 14.0723C199.699 14.1777 200.52 14.3535 201.34 14.5996ZM211.781 31.2812C209.344 31.2812 207.48 30.5664 206.191 29.1367C204.914 27.6953 204.275 25.5684 204.275 22.7559C204.275 20.8223 204.609 19.1875 205.277 17.8516C205.957 16.5156 206.883 15.5254 208.055 14.8809C209.227 14.2246 210.562 13.8965 212.062 13.8965C214.57 13.8965 216.469 14.6289 217.758 16.0938C219.047 17.5469 219.691 19.6387 219.691 22.3691C219.691 24.3145 219.369 25.9551 218.725 27.291C218.08 28.627 217.166 29.6289 215.982 30.2969C214.799 30.9531 213.398 31.2812 211.781 31.2812ZM207.598 22.3867C207.598 24.8008 207.979 26.6582 208.74 27.959C209.514 29.248 210.615 29.8926 212.045 29.8926C212.83 29.8926 213.498 29.7051 214.049 29.3301C214.6 28.9434 215.045 28.4277 215.385 27.7832C215.736 27.1387 215.988 26.3945 216.141 25.5508C216.293 24.6953 216.369 23.8047 216.369 22.8789C216.369 21.1562 216.176 19.7266 215.789 18.5898C215.414 17.4531 214.898 16.6211 214.242 16.0938C213.586 15.5547 212.836 15.2852 211.992 15.2852C210.574 15.2852 209.484 15.9004 208.723 17.1309C207.973 18.3613 207.598 20.1133 207.598 22.3867ZM235.037 18.0449H233.35C233.092 17.3418 232.787 16.791 232.436 16.3926C232.084 15.9824 231.686 15.6953 231.24 15.5312C230.795 15.3672 230.25 15.2852 229.605 15.2852C228.668 15.2852 227.918 15.5078 227.355 15.9531C226.805 16.3867 226.529 16.9844 226.529 17.7461C226.529 18.2852 226.641 18.7305 226.863 19.082C227.086 19.4336 227.432 19.7617 227.9 20.0664C228.369 20.3711 229.195 20.7754 230.379 21.2793C231.574 21.7949 232.494 22.2695 233.139 22.7031C233.795 23.1367 234.305 23.6406 234.668 24.2148C235.043 24.7891 235.23 25.4746 235.23 26.2715C235.23 27.1973 235.072 27.9766 234.756 28.6094C234.439 29.2422 233.994 29.7578 233.42 30.1562C232.846 30.5547 232.16 30.8418 231.363 31.0176C230.578 31.1934 229.717 31.2812 228.779 31.2812C227.795 31.2812 226.84 31.2051 225.914 31.0527C224.988 30.9121 224.086 30.7246 223.207 30.4902V26.8164H224.93C225.246 27.8945 225.715 28.6797 226.336 29.1719C226.957 29.6523 227.812 29.8926 228.902 29.8926C229.324 29.8926 229.734 29.8516 230.133 29.7695C230.543 29.6758 230.906 29.5293 231.223 29.3301C231.539 29.1191 231.791 28.8379 231.979 28.4863C232.166 28.1348 232.26 27.6953 232.26 27.168C232.26 26.5703 232.143 26.084 231.908 25.709C231.674 25.334 231.311 24.9941 230.818 24.6895C230.326 24.373 229.459 23.9512 228.217 23.4238C227.15 22.9785 226.295 22.5449 225.65 22.123C225.006 21.7012 224.496 21.2031 224.121 20.6289C223.758 20.0547 223.576 19.375 223.576 18.5898C223.576 17.6289 223.834 16.7969 224.35 16.0938C224.877 15.3789 225.633 14.834 226.617 14.459C227.602 14.084 228.756 13.8965 230.08 13.8965C230.854 13.8965 231.598 13.9375 232.312 14.0195C233.039 14.0898 233.947 14.2363 235.037 14.459V18.0449ZM243.229 22.1055C243.229 26.207 243.885 29.5879 245.197 32.248C246.521 34.9082 248.537 36.6895 251.244 37.5918L250.822 38.9453C247.389 38.043 244.758 36.0977 242.93 33.1094C241.102 30.1328 240.188 26.5234 240.188 22.2812C240.188 18.0508 241.102 14.4414 242.93 11.4531C244.77 8.45312 247.4 6.50195 250.822 5.59961L251.297 6.95312C248.555 7.85547 246.521 9.61914 245.197 12.2441C243.885 14.8574 243.229 18.1445 243.229 22.1055ZM261.105 20.8574L263.391 17.957C263.637 17.6406 263.836 17.3359 263.988 17.043C264.141 16.7383 264.217 16.4277 264.217 16.1113C264.217 15.8418 264.117 15.6191 263.918 15.4434C263.719 15.2676 263.408 15.1387 262.986 15.0566V14.1953H268.734V15.0566C268.289 15.1855 267.832 15.4375 267.363 15.8125C266.906 16.1875 266.344 16.791 265.676 17.623L262.037 22.0879L266.045 27.4844C266.619 28.2578 267.135 28.8496 267.592 29.2598C268.049 29.6699 268.506 29.9629 268.963 30.1387V31H261.896V30.1387C262.869 30.0215 263.355 29.6582 263.355 29.0488C263.355 28.8027 263.314 28.5684 263.232 28.3457C263.15 28.123 262.998 27.8652 262.775 27.5723L260.227 24.0215L257.52 27.5371C257.32 27.7949 257.162 28.0352 257.045 28.2578C256.939 28.4688 256.887 28.709 256.887 28.9785C256.887 29.2949 256.992 29.5586 257.203 29.7695C257.426 29.9688 257.771 30.0918 258.24 30.1387V31H252.369V30.1387C252.756 29.998 253.102 29.8223 253.406 29.6113C253.723 29.4004 254.039 29.1309 254.355 28.8027C254.684 28.4629 255.111 27.9707 255.639 27.3262L259.295 22.791L255.551 17.6582C255.035 16.9551 254.625 16.4453 254.32 16.1289C254.016 15.8125 253.734 15.5723 253.477 15.4082C253.219 15.2441 252.961 15.127 252.703 15.0566V14.1953H259.594V15.0566C258.668 15.1973 258.205 15.5605 258.205 16.1465C258.205 16.416 258.264 16.6855 258.381 16.9551C258.51 17.2246 258.703 17.5234 258.961 17.8516L261.105 20.8574ZM278.104 22.1055C278.104 18.1445 277.447 14.8574 276.135 12.2441C274.822 9.61914 272.789 7.85547 270.035 6.95312L270.51 5.59961C273.932 6.50195 276.557 8.45312 278.385 11.4531C280.225 14.4414 281.145 18.0508 281.145 22.2812C281.145 26.5234 280.23 30.1328 278.402 33.1094C276.574 36.0977 273.943 38.043 270.51 38.9453L270.088 37.5918C272.795 36.6895 274.805 34.9082 276.117 32.248C277.441 29.5879 278.104 26.207 278.104 22.1055ZM307.055 14.5996V18.2734H304.822C304.623 17.5117 304.377 16.9141 304.084 16.4805C303.791 16.0352 303.451 15.7246 303.064 15.5488C302.678 15.373 302.197 15.2852 301.623 15.2852C300.803 15.2852 300.076 15.5488 299.443 16.0762C298.811 16.6035 298.307 17.4062 297.932 18.4844C297.568 19.5625 297.387 20.8809 297.387 22.4395C297.387 23.4355 297.457 24.3496 297.598 25.1816C297.738 26.002 297.979 26.7051 298.318 27.291C298.658 27.877 299.109 28.334 299.672 28.6621C300.234 28.9902 300.932 29.1543 301.764 29.1543C302.572 29.1543 303.322 28.9961 304.014 28.6797C304.717 28.3633 305.443 27.8066 306.193 27.0098L307.195 28.1699C306.598 28.8262 306.07 29.3359 305.613 29.6992C305.156 30.0508 304.664 30.3496 304.137 30.5957C303.621 30.8301 303.105 31 302.59 31.1055C302.086 31.2227 301.535 31.2812 300.938 31.2812C298.723 31.2812 297.029 30.5488 295.857 29.084C294.686 27.6074 294.1 25.4805 294.1 22.7031C294.1 20.9688 294.428 19.4336 295.084 18.0977C295.74 16.75 296.66 15.7129 297.844 14.9863C299.027 14.2598 300.393 13.8965 301.939 13.8965C302.9 13.8965 303.785 13.9551 304.594 14.0723C305.414 14.1777 306.234 14.3535 307.055 14.5996ZM317.496 31.2812C315.059 31.2812 313.195 30.5664 311.906 29.1367C310.629 27.6953 309.99 25.5684 309.99 22.7559C309.99 20.8223 310.324 19.1875 310.992 17.8516C311.672 16.5156 312.598 15.5254 313.77 14.8809C314.941 14.2246 316.277 13.8965 317.777 13.8965C320.285 13.8965 322.184 14.6289 323.473 16.0938C324.762 17.5469 325.406 19.6387 325.406 22.3691C325.406 24.3145 325.084 25.9551 324.439 27.291C323.795 28.627 322.881 29.6289 321.697 30.2969C320.514 30.9531 319.113 31.2812 317.496 31.2812ZM313.312 22.3867C313.312 24.8008 313.693 26.6582 314.455 27.959C315.229 29.248 316.33 29.8926 317.76 29.8926C318.545 29.8926 319.213 29.7051 319.764 29.3301C320.314 28.9434 320.76 28.4277 321.1 27.7832C321.451 27.1387 321.703 26.3945 321.855 25.5508C322.008 24.6953 322.084 23.8047 322.084 22.8789C322.084 21.1562 321.891 19.7266 321.504 18.5898C321.129 17.4531 320.613 16.6211 319.957 16.0938C319.301 15.5547 318.551 15.2852 317.707 15.2852C316.289 15.2852 315.199 15.9004 314.438 17.1309C313.688 18.3613 313.312 20.1133 313.312 22.3867ZM340.752 18.0449H339.064C338.807 17.3418 338.502 16.791 338.15 16.3926C337.799 15.9824 337.4 15.6953 336.955 15.5312C336.51 15.3672 335.965 15.2852 335.32 15.2852C334.383 15.2852 333.633 15.5078 333.07 15.9531C332.52 16.3867 332.244 16.9844 332.244 17.7461C332.244 18.2852 332.355 18.7305 332.578 19.082C332.801 19.4336 333.146 19.7617 333.615 20.0664C334.084 20.3711 334.91 20.7754 336.094 21.2793C337.289 21.7949 338.209 22.2695 338.854 22.7031C339.51 23.1367 340.02 23.6406 340.383 24.2148C340.758 24.7891 340.945 25.4746 340.945 26.2715C340.945 27.1973 340.787 27.9766 340.471 28.6094C340.154 29.2422 339.709 29.7578 339.135 30.1562C338.561 30.5547 337.875 30.8418 337.078 31.0176C336.293 31.1934 335.432 31.2812 334.494 31.2812C333.51 31.2812 332.555 31.2051 331.629 31.0527C330.703 30.9121 329.801 30.7246 328.922 30.4902V26.8164H330.645C330.961 27.8945 331.43 28.6797 332.051 29.1719C332.672 29.6523 333.527 29.8926 334.617 29.8926C335.039 29.8926 335.449 29.8516 335.848 29.7695C336.258 29.6758 336.621 29.5293 336.938 29.3301C337.254 29.1191 337.506 28.8379 337.693 28.4863C337.881 28.1348 337.975 27.6953 337.975 27.168C337.975 26.5703 337.857 26.084 337.623 25.709C337.389 25.334 337.025 24.9941 336.533 24.6895C336.041 24.373 335.174 23.9512 333.932 23.4238C332.865 22.9785 332.01 22.5449 331.365 22.123C330.721 21.7012 330.211 21.2031 329.836 20.6289C329.473 20.0547 329.291 19.375 329.291 18.5898C329.291 17.6289 329.549 16.7969 330.064 16.0938C330.592 15.3789 331.348 14.834 332.332 14.459C333.316 14.084 334.471 13.8965 335.795 13.8965C336.568 13.8965 337.312 13.9375 338.027 14.0195C338.754 14.0898 339.662 14.2363 340.752 14.459V18.0449ZM348.943 22.1055C348.943 26.207 349.6 29.5879 350.912 32.248C352.236 34.9082 354.252 36.6895 356.959 37.5918L356.537 38.9453C353.104 38.043 350.473 36.0977 348.645 33.1094C346.816 30.1328 345.902 26.5234 345.902 22.2812C345.902 18.0508 346.816 14.4414 348.645 11.4531C350.484 8.45312 353.115 6.50195 356.537 5.59961L357.012 6.95312C354.27 7.85547 352.236 9.61914 350.912 12.2441C349.6 14.8574 348.943 18.1445 348.943 22.1055ZM366.82 32.4414C366.176 33.8945 365.549 35.0723 364.939 35.9746C364.33 36.877 363.656 37.5566 362.918 38.0137C362.191 38.4707 361.324 38.6992 360.316 38.6992C359.672 38.6992 358.945 38.623 358.137 38.4707V34.9902H359.701C359.842 35.4707 360.018 35.8047 360.229 35.9922C360.439 36.1797 360.744 36.2734 361.143 36.2734C361.494 36.2734 361.805 36.2031 362.074 36.0625C362.355 35.9336 362.643 35.7051 362.936 35.377C363.24 35.0488 363.592 34.5449 363.99 33.8652C364.4 33.1855 364.857 32.3242 365.361 31.2812L360.439 18.0449C360.123 17.1895 359.865 16.5918 359.666 16.252C359.479 15.9121 359.273 15.6543 359.051 15.4785C358.828 15.3027 358.488 15.1621 358.031 15.0566V14.1953H365.186V15.0566C364.635 15.1855 364.248 15.3145 364.025 15.4434C363.803 15.5605 363.639 15.7188 363.533 15.918C363.428 16.1055 363.375 16.3516 363.375 16.6562C363.375 16.9727 363.41 17.3008 363.48 17.6406C363.562 17.9805 363.686 18.3789 363.85 18.8359L366.979 27.6426L370.494 19.2051C370.693 18.7363 370.846 18.3086 370.951 17.9219C371.068 17.5234 371.127 17.1543 371.127 16.8145C371.127 16.3105 370.986 15.9297 370.705 15.6719C370.436 15.4141 369.961 15.209 369.281 15.0566V14.1953H375.855V15.0566C375.398 15.1504 375.047 15.2969 374.801 15.4961C374.555 15.6836 374.309 15.9883 374.062 16.4102C373.816 16.8203 373.523 17.4004 373.184 18.1504L366.82 32.4414ZM384.557 22.1055C384.557 18.1445 383.9 14.8574 382.588 12.2441C381.275 9.61914 379.242 7.85547 376.488 6.95312L376.963 5.59961C380.385 6.50195 383.01 8.45312 384.838 11.4531C386.678 14.4414 387.598 18.0508 387.598 22.2812C387.598 26.5234 386.684 30.1328 384.855 33.1094C383.027 36.0977 380.396 38.043 376.963 38.9453L376.541 37.5918C379.248 36.6895 381.258 34.9082 382.57 32.248C383.895 29.5879 384.557 26.207 384.557 22.1055ZM413.402 21.877V32.002H410.906V21.877H401.326V19.5391H410.906V9.41406H413.402V19.5391H422.982V21.877H413.402ZM447.029 18.0449H445.342C445.084 17.3418 444.779 16.791 444.428 16.3926C444.076 15.9824 443.678 15.6953 443.232 15.5312C442.787 15.3672 442.242 15.2852 441.598 15.2852C440.66 15.2852 439.91 15.5078 439.348 15.9531C438.797 16.3867 438.521 16.9844 438.521 17.7461C438.521 18.2852 438.633 18.7305 438.855 19.082C439.078 19.4336 439.424 19.7617 439.893 20.0664C440.361 20.3711 441.188 20.7754 442.371 21.2793C443.566 21.7949 444.486 22.2695 445.131 22.7031C445.787 23.1367 446.297 23.6406 446.66 24.2148C447.035 24.7891 447.223 25.4746 447.223 26.2715C447.223 27.1973 447.064 27.9766 446.748 28.6094C446.432 29.2422 445.986 29.7578 445.412 30.1562C444.838 30.5547 444.152 30.8418 443.355 31.0176C442.57 31.1934 441.709 31.2812 440.771 31.2812C439.787 31.2812 438.832 31.2051 437.906 31.0527C436.98 30.9121 436.078 30.7246 435.199 30.4902V26.8164H436.922C437.238 27.8945 437.707 28.6797 438.328 29.1719C438.949 29.6523 439.805 29.8926 440.895 29.8926C441.316 29.8926 441.727 29.8516 442.125 29.7695C442.535 29.6758 442.898 29.5293 443.215 29.3301C443.531 29.1191 443.783 28.8379 443.971 28.4863C444.158 28.1348 444.252 27.6953 444.252 27.168C444.252 26.5703 444.135 26.084 443.9 25.709C443.666 25.334 443.303 24.9941 442.811 24.6895C442.318 24.373 441.451 23.9512 440.209 23.4238C439.143 22.9785 438.287 22.5449 437.643 22.123C436.998 21.7012 436.488 21.2031 436.113 20.6289C435.75 20.0547 435.568 19.375 435.568 18.5898C435.568 17.6289 435.826 16.7969 436.342 16.0938C436.869 15.3789 437.625 14.834 438.609 14.459C439.594 14.084 440.748 13.8965 442.072 13.8965C442.846 13.8965 443.59 13.9375 444.305 14.0195C445.031 14.0898 445.939 14.2363 447.029 14.459V18.0449ZM455.748 7.30469V10.7148H452.514V7.30469H455.748ZM450.721 30.1387C451.178 29.998 451.5 29.875 451.688 29.7695C451.887 29.6641 452.051 29.5176 452.18 29.3301C452.32 29.1426 452.426 28.8555 452.496 28.4688C452.578 28.082 452.619 27.4785 452.619 26.6582V18.9941C452.619 18.2441 452.607 17.6406 452.584 17.1836C452.561 16.7266 452.479 16.3633 452.338 16.0938C452.197 15.8125 451.98 15.6074 451.688 15.4785C451.406 15.3379 451.002 15.2207 450.475 15.127V14.1953L454.57 14.0371H455.643V26.6055C455.643 27.6133 455.689 28.3164 455.783 28.7148C455.877 29.1016 456.053 29.4004 456.311 29.6113C456.58 29.8105 457.014 29.9863 457.611 30.1387V31H450.721V30.1387ZM477.861 31H470.936V30.1387C471.393 29.998 471.721 29.875 471.92 29.7695C472.119 29.6641 472.283 29.5176 472.412 29.3301C472.553 29.1426 472.658 28.8555 472.729 28.4688C472.811 28.0703 472.852 27.4727 472.852 26.6758V22.0703C472.852 21.25 472.828 20.5059 472.781 19.8379C472.734 19.1699 472.652 18.625 472.535 18.2031C472.43 17.7695 472.295 17.4355 472.131 17.2012C471.979 16.9551 471.791 16.75 471.568 16.5859C471.357 16.4102 471.111 16.2754 470.83 16.1816C470.549 16.0762 470.18 16.0234 469.723 16.0234C469.266 16.0234 468.832 16.1172 468.422 16.3047C468.012 16.4805 467.561 16.791 467.068 17.2363C466.576 17.6816 466.219 18.1211 465.996 18.5547C465.773 18.9883 465.662 19.4863 465.662 20.0488V26.6055C465.662 27.6133 465.709 28.3164 465.803 28.7148C465.896 29.1016 466.072 29.4004 466.33 29.6113C466.6 29.8105 467.033 29.9863 467.631 30.1387V31H460.74V30.1387C461.197 29.998 461.52 29.875 461.707 29.7695C461.906 29.6641 462.07 29.5176 462.199 29.3301C462.34 29.1426 462.445 28.8555 462.516 28.4688C462.598 28.082 462.639 27.4785 462.639 26.6582V18.9941C462.639 18.2441 462.627 17.6406 462.604 17.1836C462.58 16.7266 462.498 16.3633 462.357 16.0938C462.217 15.8125 462 15.6074 461.707 15.4785C461.426 15.3379 461.021 15.2207 460.494 15.127V14.1953L464.607 14.0371H465.68L465.486 16.9023L465.732 16.9727C466.6 16.0938 467.297 15.4668 467.824 15.0918C468.363 14.7168 468.902 14.4297 469.441 14.2305C469.992 14.0195 470.572 13.9141 471.182 13.9141C471.814 13.9141 472.377 13.9902 472.869 14.1426C473.373 14.2832 473.812 14.5059 474.188 14.8105C474.574 15.1152 474.891 15.4961 475.137 15.9531C475.383 16.3984 475.564 16.9375 475.682 17.5703C475.811 18.2031 475.875 19.0059 475.875 19.9785V26.6055C475.875 27.4141 475.898 28 475.945 28.3633C475.992 28.7266 476.074 29.0078 476.191 29.207C476.309 29.4062 476.479 29.5762 476.701 29.7168C476.924 29.8457 477.311 29.9863 477.861 30.1387V31ZM485.35 22.1055C485.35 26.207 486.006 29.5879 487.318 32.248C488.643 34.9082 490.658 36.6895 493.365 37.5918L492.943 38.9453C489.51 38.043 486.879 36.0977 485.051 33.1094C483.223 30.1328 482.309 26.5234 482.309 22.2812C482.309 18.0508 483.223 14.4414 485.051 11.4531C486.891 8.45312 489.521 6.50195 492.943 5.59961L493.418 6.95312C490.676 7.85547 488.643 9.61914 487.318 12.2441C486.006 14.8574 485.35 18.1445 485.35 22.1055ZM503.227 20.8574L505.512 17.957C505.758 17.6406 505.957 17.3359 506.109 17.043C506.262 16.7383 506.338 16.4277 506.338 16.1113C506.338 15.8418 506.238 15.6191 506.039 15.4434C505.84 15.2676 505.529 15.1387 505.107 15.0566V14.1953H510.855V15.0566C510.41 15.1855 509.953 15.4375 509.484 15.8125C509.027 16.1875 508.465 16.791 507.797 17.623L504.158 22.0879L508.166 27.4844C508.74 28.2578 509.256 28.8496 509.713 29.2598C510.17 29.6699 510.627 29.9629 511.084 30.1387V31H504.018V30.1387C504.99 30.0215 505.477 29.6582 505.477 29.0488C505.477 28.8027 505.436 28.5684 505.354 28.3457C505.271 28.123 505.119 27.8652 504.896 27.5723L502.348 24.0215L499.641 27.5371C499.441 27.7949 499.283 28.0352 499.166 28.2578C499.061 28.4688 499.008 28.709 499.008 28.9785C499.008 29.2949 499.113 29.5586 499.324 29.7695C499.547 29.9688 499.893 30.0918 500.361 30.1387V31H494.49V30.1387C494.877 29.998 495.223 29.8223 495.527 29.6113C495.844 29.4004 496.16 29.1309 496.477 28.8027C496.805 28.4629 497.232 27.9707 497.76 27.3262L501.416 22.791L497.672 17.6582C497.156 16.9551 496.746 16.4453 496.441 16.1289C496.137 15.8125 495.855 15.5723 495.598 15.4082C495.34 15.2441 495.082 15.127 494.824 15.0566V14.1953H501.715V15.0566C500.789 15.1973 500.326 15.5605 500.326 16.1465C500.326 16.416 500.385 16.6855 500.502 16.9551C500.631 17.2246 500.824 17.5234 501.082 17.8516L503.227 20.8574ZM520.225 22.1055C520.225 18.1445 519.568 14.8574 518.256 12.2441C516.943 9.61914 514.91 7.85547 512.156 6.95312L512.631 5.59961C516.053 6.50195 518.678 8.45312 520.506 11.4531C522.346 14.4414 523.266 18.0508 523.266 22.2812C523.266 26.5234 522.352 30.1328 520.523 33.1094C518.695 36.0977 516.064 38.043 512.631 38.9453L512.209 37.5918C514.916 36.6895 516.926 34.9082 518.238 32.248C519.562 29.5879 520.225 26.207 520.225 22.1055ZM547.857 18.0449H546.17C545.912 17.3418 545.607 16.791 545.256 16.3926C544.904 15.9824 544.506 15.6953 544.061 15.5312C543.615 15.3672 543.07 15.2852 542.426 15.2852C541.488 15.2852 540.738 15.5078 540.176 15.9531C539.625 16.3867 539.35 16.9844 539.35 17.7461C539.35 18.2852 539.461 18.7305 539.684 19.082C539.906 19.4336 540.252 19.7617 540.721 20.0664C541.189 20.3711 542.016 20.7754 543.199 21.2793C544.395 21.7949 545.314 22.2695 545.959 22.7031C546.615 23.1367 547.125 23.6406 547.488 24.2148C547.863 24.7891 548.051 25.4746 548.051 26.2715C548.051 27.1973 547.893 27.9766 547.576 28.6094C547.26 29.2422 546.814 29.7578 546.24 30.1562C545.666 30.5547 544.98 30.8418 544.184 31.0176C543.398 31.1934 542.537 31.2812 541.6 31.2812C540.615 31.2812 539.66 31.2051 538.734 31.0527C537.809 30.9121 536.906 30.7246 536.027 30.4902V26.8164H537.75C538.066 27.8945 538.535 28.6797 539.156 29.1719C539.777 29.6523 540.633 29.8926 541.723 29.8926C542.145 29.8926 542.555 29.8516 542.953 29.7695C543.363 29.6758 543.727 29.5293 544.043 29.3301C544.359 29.1191 544.611 28.8379 544.799 28.4863C544.986 28.1348 545.08 27.6953 545.08 27.168C545.08 26.5703 544.963 26.084 544.729 25.709C544.494 25.334 544.131 24.9941 543.639 24.6895C543.146 24.373 542.279 23.9512 541.037 23.4238C539.971 22.9785 539.115 22.5449 538.471 22.123C537.826 21.7012 537.316 21.2031 536.941 20.6289C536.578 20.0547 536.396 19.375 536.396 18.5898C536.396 17.6289 536.654 16.7969 537.17 16.0938C537.697 15.3789 538.453 14.834 539.438 14.459C540.422 14.084 541.576 13.8965 542.9 13.8965C543.674 13.8965 544.418 13.9375 545.133 14.0195C545.859 14.0898 546.768 14.2363 547.857 14.459V18.0449ZM556.576 7.30469V10.7148H553.342V7.30469H556.576ZM551.549 30.1387C552.006 29.998 552.328 29.875 552.516 29.7695C552.715 29.6641 552.879 29.5176 553.008 29.3301C553.148 29.1426 553.254 28.8555 553.324 28.4688C553.406 28.082 553.447 27.4785 553.447 26.6582V18.9941C553.447 18.2441 553.436 17.6406 553.412 17.1836C553.389 16.7266 553.307 16.3633 553.166 16.0938C553.025 15.8125 552.809 15.6074 552.516 15.4785C552.234 15.3379 551.83 15.2207 551.303 15.127V14.1953L555.398 14.0371H556.471V26.6055C556.471 27.6133 556.518 28.3164 556.611 28.7148C556.705 29.1016 556.881 29.4004 557.139 29.6113C557.408 29.8105 557.842 29.9863 558.439 30.1387V31H551.549V30.1387ZM578.689 31H571.764V30.1387C572.221 29.998 572.549 29.875 572.748 29.7695C572.947 29.6641 573.111 29.5176 573.24 29.3301C573.381 29.1426 573.486 28.8555 573.557 28.4688C573.639 28.0703 573.68 27.4727 573.68 26.6758V22.0703C573.68 21.25 573.656 20.5059 573.609 19.8379C573.562 19.1699 573.48 18.625 573.363 18.2031C573.258 17.7695 573.123 17.4355 572.959 17.2012C572.807 16.9551 572.619 16.75 572.396 16.5859C572.186 16.4102 571.939 16.2754 571.658 16.1816C571.377 16.0762 571.008 16.0234 570.551 16.0234C570.094 16.0234 569.66 16.1172 569.25 16.3047C568.84 16.4805 568.389 16.791 567.896 17.2363C567.404 17.6816 567.047 18.1211 566.824 18.5547C566.602 18.9883 566.49 19.4863 566.49 20.0488V26.6055C566.49 27.6133 566.537 28.3164 566.631 28.7148C566.725 29.1016 566.9 29.4004 567.158 29.6113C567.428 29.8105 567.861 29.9863 568.459 30.1387V31H561.568V30.1387C562.025 29.998 562.348 29.875 562.535 29.7695C562.734 29.6641 562.898 29.5176 563.027 29.3301C563.168 29.1426 563.273 28.8555 563.344 28.4688C563.426 28.082 563.467 27.4785 563.467 26.6582V18.9941C563.467 18.2441 563.455 17.6406 563.432 17.1836C563.408 16.7266 563.326 16.3633 563.186 16.0938C563.045 15.8125 562.828 15.6074 562.535 15.4785C562.254 15.3379 561.85 15.2207 561.322 15.127V14.1953L565.436 14.0371H566.508L566.314 16.9023L566.561 16.9727C567.428 16.0938 568.125 15.4668 568.652 15.0918C569.191 14.7168 569.73 14.4297 570.27 14.2305C570.82 14.0195 571.4 13.9141 572.01 13.9141C572.643 13.9141 573.205 13.9902 573.697 14.1426C574.201 14.2832 574.641 14.5059 575.016 14.8105C575.402 15.1152 575.719 15.4961 575.965 15.9531C576.211 16.3984 576.393 16.9375 576.51 17.5703C576.639 18.2031 576.703 19.0059 576.703 19.9785V26.6055C576.703 27.4141 576.727 28 576.773 28.3633C576.82 28.7266 576.902 29.0078 577.02 29.207C577.137 29.4062 577.307 29.5762 577.529 29.7168C577.752 29.8457 578.139 29.9863 578.689 30.1387V31ZM586.178 22.1055C586.178 26.207 586.834 29.5879 588.146 32.248C589.471 34.9082 591.486 36.6895 594.193 37.5918L593.771 38.9453C590.338 38.043 587.707 36.0977 585.879 33.1094C584.051 30.1328 583.137 26.5234 583.137 22.2812C583.137 18.0508 584.051 14.4414 585.879 11.4531C587.719 8.45312 590.35 6.50195 593.771 5.59961L594.246 6.95312C591.504 7.85547 589.471 9.61914 588.146 12.2441C586.834 14.8574 586.178 18.1445 586.178 22.1055ZM604.055 32.4414C603.41 33.8945 602.783 35.0723 602.174 35.9746C601.564 36.877 600.891 37.5566 600.152 38.0137C599.426 38.4707 598.559 38.6992 597.551 38.6992C596.906 38.6992 596.18 38.623 595.371 38.4707V34.9902H596.936C597.076 35.4707 597.252 35.8047 597.463 35.9922C597.674 36.1797 597.979 36.2734 598.377 36.2734C598.729 36.2734 599.039 36.2031 599.309 36.0625C599.59 35.9336 599.877 35.7051 600.17 35.377C600.475 35.0488 600.826 34.5449 601.225 33.8652C601.635 33.1855 602.092 32.3242 602.596 31.2812L597.674 18.0449C597.357 17.1895 597.1 16.5918 596.9 16.252C596.713 15.9121 596.508 15.6543 596.285 15.4785C596.062 15.3027 595.723 15.1621 595.266 15.0566V14.1953H602.42V15.0566C601.869 15.1855 601.482 15.3145 601.26 15.4434C601.037 15.5605 600.873 15.7188 600.768 15.918C600.662 16.1055 600.609 16.3516 600.609 16.6562C600.609 16.9727 600.645 17.3008 600.715 17.6406C600.797 17.9805 600.92 18.3789 601.084 18.8359L604.213 27.6426L607.729 19.2051C607.928 18.7363 608.08 18.3086 608.186 17.9219C608.303 17.5234 608.361 17.1543 608.361 16.8145C608.361 16.3105 608.221 15.9297 607.939 15.6719C607.67 15.4141 607.195 15.209 606.516 15.0566V14.1953H613.09V15.0566C612.633 15.1504 612.281 15.2969 612.035 15.4961C611.789 15.6836 611.543 15.9883 611.297 16.4102C611.051 16.8203 610.758 17.4004 610.418 18.1504L604.055 32.4414ZM621.791 22.1055C621.791 18.1445 621.135 14.8574 619.822 12.2441C618.51 9.61914 616.477 7.85547 613.723 6.95312L614.197 5.59961C617.619 6.50195 620.244 8.45312 622.072 11.4531C623.912 14.4414 624.832 18.0508 624.832 22.2812C624.832 26.5234 623.918 30.1328 622.09 33.1094C620.262 36.0977 617.631 38.043 614.197 38.9453L613.775 37.5918C616.482 36.6895 618.492 34.9082 619.805 32.248C621.129 29.5879 621.791 26.207 621.791 22.1055Z" fill="white"/>
</svg>
