<svg width="507" height="99" viewBox="0 0 507 99" fill="none" xmlns="http://www.w3.org/2000/svg">
<path d="M0.650391 46.0742C1.23633 45.9805 1.71094 45.8164 2.07422 45.582C2.4375 45.3477 2.71875 45.0488 2.91797 44.6855C3.12891 44.3105 3.29297 43.8477 3.41016 43.2969C3.52734 42.7344 3.65039 41.9199 3.7793 40.8535H6.27539V45.1953H11.9531V46.9707H6.27539V54.793C6.27539 55.9297 6.32227 56.8379 6.41602 57.5176C6.50977 58.1855 6.68555 58.7129 6.94336 59.0996C7.20117 59.4746 7.49414 59.7441 7.82227 59.9082C8.15039 60.0723 8.57227 60.1543 9.08789 60.1543C9.55664 60.1543 9.99609 60.0605 10.4062 59.873C10.8164 59.6738 11.2207 59.3926 11.6191 59.0293L12.4102 59.9785C11.5781 60.7871 10.7871 61.373 10.0371 61.7363C9.29883 62.0996 8.53125 62.2812 7.73438 62.2812C6.22266 62.2812 5.09766 61.8359 4.35938 60.9453C3.62109 60.043 3.25195 58.6367 3.25195 56.7266V46.9707H0.650391V46.0742ZM24.0645 59.4863L23.8008 59.416C22.7812 60.459 21.8203 61.1973 20.918 61.6309C20.0273 62.0645 19.0781 62.2812 18.0703 62.2812C17.1797 62.2812 16.3945 62.1113 15.7148 61.7715C15.0352 61.4199 14.5137 60.9336 14.1504 60.3125C13.7871 59.6797 13.6055 58.9531 13.6055 58.1328C13.6055 56.4219 14.4492 55.1035 16.1367 54.1777C17.8359 53.2402 20.3789 52.6953 23.7656 52.543V51.4004C23.7656 50.1816 23.6484 49.2207 23.4141 48.5176C23.1797 47.8145 22.8105 47.2988 22.3066 46.9707C21.8027 46.6426 21.1289 46.4785 20.2852 46.4785C19.3711 46.4785 18.6328 46.7188 18.0703 47.1992C17.5195 47.6797 17.1035 48.4004 16.8223 49.3613H14.5195V47.0762C15.6445 46.4902 16.582 46.0625 17.332 45.793C18.082 45.5117 18.832 45.2949 19.582 45.1426C20.332 44.9785 21.0938 44.8965 21.8672 44.8965C23.0273 44.8965 23.959 45.084 24.6621 45.459C25.3652 45.8223 25.8926 46.3848 26.2441 47.1465C26.5957 47.9082 26.7715 49.0566 26.7715 50.5918V56.709C26.7715 57.5762 26.7773 58.1914 26.7891 58.5547C26.8008 58.9062 26.8359 59.2344 26.8945 59.5391C26.9531 59.8438 27.041 60.0898 27.1582 60.2773C27.2754 60.4531 27.4453 60.6055 27.668 60.7344C27.9023 60.8633 28.2773 60.998 28.793 61.1387V62H23.9766L24.0645 59.4863ZM23.7656 53.9844C21.3867 54.0078 19.6055 54.3242 18.4219 54.9336C17.2383 55.543 16.6465 56.4629 16.6465 57.6934C16.6465 58.3613 16.7812 58.8887 17.0508 59.2754C17.3203 59.6621 17.6602 59.9316 18.0703 60.084C18.4805 60.2246 18.9668 60.2949 19.5293 60.2949C20.3262 60.2949 21.0469 60.1016 21.6914 59.7148C22.3477 59.3281 22.8574 58.8359 23.2207 58.2383C23.584 57.6406 23.7656 57.0488 23.7656 56.4629V53.9844ZM48.6035 62H41.6777V61.1387C42.1348 60.998 42.4629 60.875 42.6621 60.7695C42.8613 60.6641 43.0254 60.5176 43.1543 60.3301C43.2949 60.1426 43.4004 59.8555 43.4707 59.4688C43.5527 59.0703 43.5938 58.4727 43.5938 57.6758V53.0703C43.5938 52.25 43.5703 51.5059 43.5234 50.8379C43.4766 50.1699 43.3945 49.625 43.2773 49.2031C43.1719 48.7695 43.0371 48.4355 42.873 48.2012C42.7207 47.9551 42.5332 47.75 42.3105 47.5859C42.0996 47.4102 41.8535 47.2754 41.5723 47.1816C41.291 47.0762 40.9219 47.0234 40.4648 47.0234C40.0078 47.0234 39.5742 47.1172 39.1641 47.3047C38.7539 47.4805 38.3027 47.791 37.8105 48.2363C37.3184 48.6816 36.9609 49.1211 36.7383 49.5547C36.5156 49.9883 36.4043 50.4863 36.4043 51.0488V57.6055C36.4043 58.6133 36.4512 59.3164 36.5449 59.7148C36.6387 60.1016 36.8145 60.4004 37.0723 60.6113C37.3418 60.8105 37.7754 60.9863 38.373 61.1387V62H31.4824V61.1387C31.9395 60.998 32.2617 60.875 32.4492 60.7695C32.6484 60.6641 32.8125 60.5176 32.9414 60.3301C33.082 60.1426 33.1875 59.8555 33.2578 59.4688C33.3398 59.082 33.3809 58.4785 33.3809 57.6582V49.9941C33.3809 49.2441 33.3691 48.6406 33.3457 48.1836C33.3223 47.7266 33.2402 47.3633 33.0996 47.0938C32.959 46.8125 32.7422 46.6074 32.4492 46.4785C32.168 46.3379 31.7637 46.2207 31.2363 46.127V45.1953L35.3496 45.0371H36.4219L36.2285 47.9023L36.4746 47.9727C37.3418 47.0938 38.0391 46.4668 38.5664 46.0918C39.1055 45.7168 39.6445 45.4297 40.1836 45.2305C40.7344 45.0195 41.3145 44.9141 41.9238 44.9141C42.5566 44.9141 43.1191 44.9902 43.6113 45.1426C44.1152 45.2832 44.5547 45.5059 44.9297 45.8105C45.3164 46.1152 45.6328 46.4961 45.8789 46.9531C46.125 47.3984 46.3066 47.9375 46.4238 48.5703C46.5527 49.2031 46.6172 50.0059 46.6172 50.9785V57.6055C46.6172 58.4141 46.6406 59 46.6875 59.3633C46.7344 59.7266 46.8164 60.0078 46.9336 60.207C47.0508 60.4062 47.2207 60.5762 47.4434 60.7168C47.666 60.8457 48.0527 60.9863 48.6035 61.1387V62ZM56.0918 53.1055C56.0918 57.207 56.748 60.5879 58.0605 63.248C59.3848 65.9082 61.4004 67.6895 64.1074 68.5918L63.6855 69.9453C60.252 69.043 57.6211 67.0977 55.793 64.1094C53.9648 61.1328 53.0508 57.5234 53.0508 53.2812C53.0508 49.0508 53.9648 45.4414 55.793 42.4531C57.6328 39.4531 60.2637 37.502 63.6855 36.5996L64.1602 37.9531C61.418 38.8555 59.3848 40.6191 58.0605 43.2441C56.748 45.8574 56.0918 49.1445 56.0918 53.1055ZM73.9688 51.8574L76.2539 48.957C76.5 48.6406 76.6992 48.3359 76.8516 48.043C77.0039 47.7383 77.0801 47.4277 77.0801 47.1113C77.0801 46.8418 76.9805 46.6191 76.7812 46.4434C76.582 46.2676 76.2715 46.1387 75.8496 46.0566V45.1953H81.5977V46.0566C81.1523 46.1855 80.6953 46.4375 80.2266 46.8125C79.7695 47.1875 79.207 47.791 78.5391 48.623L74.9004 53.0879L78.9082 58.4844C79.4824 59.2578 79.998 59.8496 80.4551 60.2598C80.9121 60.6699 81.3691 60.9629 81.8262 61.1387V62H74.7598V61.1387C75.7324 61.0215 76.2188 60.6582 76.2188 60.0488C76.2188 59.8027 76.1777 59.5684 76.0957 59.3457C76.0137 59.123 75.8613 58.8652 75.6387 58.5723L73.0898 55.0215L70.3828 58.5371C70.1836 58.7949 70.0254 59.0352 69.9082 59.2578C69.8027 59.4688 69.75 59.709 69.75 59.9785C69.75 60.2949 69.8555 60.5586 70.0664 60.7695C70.2891 60.9688 70.6348 61.0918 71.1035 61.1387V62H65.2324V61.1387C65.6191 60.998 65.9648 60.8223 66.2695 60.6113C66.5859 60.4004 66.9023 60.1309 67.2188 59.8027C67.5469 59.4629 67.9746 58.9707 68.502 58.3262L72.1582 53.791L68.4141 48.6582C67.8984 47.9551 67.4883 47.4453 67.1836 47.1289C66.8789 46.8125 66.5977 46.5723 66.3398 46.4082C66.082 46.2441 65.8242 46.127 65.5664 46.0566V45.1953H72.457V46.0566C71.5312 46.1973 71.0684 46.5605 71.0684 47.1465C71.0684 47.416 71.127 47.6855 71.2441 47.9551C71.373 48.2246 71.5664 48.5234 71.8242 48.8516L73.9688 51.8574ZM104.871 52.877V63.002H102.375V52.877H92.7949V50.5391H102.375V40.4141H104.871V50.5391H114.451V52.877H104.871ZM134.156 63.4414C133.512 64.8945 132.885 66.0723 132.275 66.9746C131.666 67.877 130.992 68.5566 130.254 69.0137C129.527 69.4707 128.66 69.6992 127.652 69.6992C127.008 69.6992 126.281 69.623 125.473 69.4707V65.9902H127.037C127.178 66.4707 127.354 66.8047 127.564 66.9922C127.775 67.1797 128.08 67.2734 128.479 67.2734C128.83 67.2734 129.141 67.2031 129.41 67.0625C129.691 66.9336 129.979 66.7051 130.271 66.377C130.576 66.0488 130.928 65.5449 131.326 64.8652C131.736 64.1855 132.193 63.3242 132.697 62.2812L127.775 49.0449C127.459 48.1895 127.201 47.5918 127.002 47.252C126.814 46.9121 126.609 46.6543 126.387 46.4785C126.164 46.3027 125.824 46.1621 125.367 46.0566V45.1953H132.521V46.0566C131.971 46.1855 131.584 46.3145 131.361 46.4434C131.139 46.5605 130.975 46.7188 130.869 46.918C130.764 47.1055 130.711 47.3516 130.711 47.6562C130.711 47.9727 130.746 48.3008 130.816 48.6406C130.898 48.9805 131.021 49.3789 131.186 49.8359L134.314 58.6426L137.83 50.2051C138.029 49.7363 138.182 49.3086 138.287 48.9219C138.404 48.5234 138.463 48.1543 138.463 47.8145C138.463 47.3105 138.322 46.9297 138.041 46.6719C137.771 46.4141 137.297 46.209 136.617 46.0566V45.1953H143.191V46.0566C142.734 46.1504 142.383 46.2969 142.137 46.4961C141.891 46.6836 141.645 46.9883 141.398 47.4102C141.152 47.8203 140.859 48.4004 140.52 49.1504L134.156 63.4414ZM151.893 53.1055C151.893 49.1445 151.236 45.8574 149.924 43.2441C148.611 40.6191 146.578 38.8555 143.824 37.9531L144.299 36.5996C147.721 37.502 150.346 39.4531 152.174 42.4531C154.014 45.4414 154.934 49.0508 154.934 53.2812C154.934 57.5234 154.02 61.1328 152.191 64.1094C150.363 67.0977 147.732 69.043 144.299 69.9453L143.877 68.5918C146.584 67.6895 148.594 65.9082 149.906 63.248C151.23 60.5879 151.893 57.207 151.893 53.1055ZM168.662 49.2383V46.9004H190.318V49.2383H168.662ZM168.662 56.5332V54.1953H190.318V56.5332H168.662Z" fill="white"/>
<line x1="207" y1="51" x2="507" y2="51" stroke="white" stroke-width="2"/>
<path d="M238.65 15.0742C239.236 14.9805 239.711 14.8164 240.074 14.582C240.438 14.3477 240.719 14.0488 240.918 13.6855C241.129 13.3105 241.293 12.8477 241.41 12.2969C241.527 11.7344 241.65 10.9199 241.779 9.85352H244.275V14.1953H249.953V15.9707H244.275V23.793C244.275 24.9297 244.322 25.8379 244.416 26.5176C244.51 27.1855 244.686 27.7129 244.943 28.0996C245.201 28.4746 245.494 28.7441 245.822 28.9082C246.15 29.0723 246.572 29.1543 247.088 29.1543C247.557 29.1543 247.996 29.0605 248.406 28.873C248.816 28.6738 249.221 28.3926 249.619 28.0293L250.41 28.9785C249.578 29.7871 248.787 30.373 248.037 30.7363C247.299 31.0996 246.531 31.2812 245.734 31.2812C244.223 31.2812 243.098 30.8359 242.359 29.9453C241.621 29.043 241.252 27.6367 241.252 25.7266V15.9707H238.65V15.0742ZM262.064 28.4863L261.801 28.416C260.781 29.459 259.82 30.1973 258.918 30.6309C258.027 31.0645 257.078 31.2812 256.07 31.2812C255.18 31.2812 254.395 31.1113 253.715 30.7715C253.035 30.4199 252.514 29.9336 252.15 29.3125C251.787 28.6797 251.605 27.9531 251.605 27.1328C251.605 25.4219 252.449 24.1035 254.137 23.1777C255.836 22.2402 258.379 21.6953 261.766 21.543V20.4004C261.766 19.1816 261.648 18.2207 261.414 17.5176C261.18 16.8145 260.811 16.2988 260.307 15.9707C259.803 15.6426 259.129 15.4785 258.285 15.4785C257.371 15.4785 256.633 15.7188 256.07 16.1992C255.52 16.6797 255.104 17.4004 254.822 18.3613H252.52V16.0762C253.645 15.4902 254.582 15.0625 255.332 14.793C256.082 14.5117 256.832 14.2949 257.582 14.1426C258.332 13.9785 259.094 13.8965 259.867 13.8965C261.027 13.8965 261.959 14.084 262.662 14.459C263.365 14.8223 263.893 15.3848 264.244 16.1465C264.596 16.9082 264.771 18.0566 264.771 19.5918V25.709C264.771 26.5762 264.777 27.1914 264.789 27.5547C264.801 27.9062 264.836 28.2344 264.895 28.5391C264.953 28.8438 265.041 29.0898 265.158 29.2773C265.275 29.4531 265.445 29.6055 265.668 29.7344C265.902 29.8633 266.277 29.998 266.793 30.1387V31H261.977L262.064 28.4863ZM261.766 22.9844C259.387 23.0078 257.605 23.3242 256.422 23.9336C255.238 24.543 254.646 25.4629 254.646 26.6934C254.646 27.3613 254.781 27.8887 255.051 28.2754C255.32 28.6621 255.66 28.9316 256.07 29.084C256.48 29.2246 256.967 29.2949 257.529 29.2949C258.326 29.2949 259.047 29.1016 259.691 28.7148C260.348 28.3281 260.857 27.8359 261.221 27.2383C261.584 26.6406 261.766 26.0488 261.766 25.4629V22.9844ZM286.604 31H279.678V30.1387C280.135 29.998 280.463 29.875 280.662 29.7695C280.861 29.6641 281.025 29.5176 281.154 29.3301C281.295 29.1426 281.4 28.8555 281.471 28.4688C281.553 28.0703 281.594 27.4727 281.594 26.6758V22.0703C281.594 21.25 281.57 20.5059 281.523 19.8379C281.477 19.1699 281.395 18.625 281.277 18.2031C281.172 17.7695 281.037 17.4355 280.873 17.2012C280.721 16.9551 280.533 16.75 280.311 16.5859C280.1 16.4102 279.854 16.2754 279.572 16.1816C279.291 16.0762 278.922 16.0234 278.465 16.0234C278.008 16.0234 277.574 16.1172 277.164 16.3047C276.754 16.4805 276.303 16.791 275.811 17.2363C275.318 17.6816 274.961 18.1211 274.738 18.5547C274.516 18.9883 274.404 19.4863 274.404 20.0488V26.6055C274.404 27.6133 274.451 28.3164 274.545 28.7148C274.639 29.1016 274.814 29.4004 275.072 29.6113C275.342 29.8105 275.775 29.9863 276.373 30.1387V31H269.482V30.1387C269.939 29.998 270.262 29.875 270.449 29.7695C270.648 29.6641 270.812 29.5176 270.941 29.3301C271.082 29.1426 271.188 28.8555 271.258 28.4688C271.34 28.082 271.381 27.4785 271.381 26.6582V18.9941C271.381 18.2441 271.369 17.6406 271.346 17.1836C271.322 16.7266 271.24 16.3633 271.1 16.0938C270.959 15.8125 270.742 15.6074 270.449 15.4785C270.168 15.3379 269.764 15.2207 269.236 15.127V14.1953L273.35 14.0371H274.422L274.229 16.9023L274.475 16.9727C275.342 16.0938 276.039 15.4668 276.566 15.0918C277.105 14.7168 277.645 14.4297 278.184 14.2305C278.734 14.0195 279.314 13.9141 279.924 13.9141C280.557 13.9141 281.119 13.9902 281.611 14.1426C282.115 14.2832 282.555 14.5059 282.93 14.8105C283.316 15.1152 283.633 15.4961 283.879 15.9531C284.125 16.3984 284.307 16.9375 284.424 17.5703C284.553 18.2031 284.617 19.0059 284.617 19.9785V26.6055C284.617 27.4141 284.641 28 284.688 28.3633C284.734 28.7266 284.816 29.0078 284.934 29.207C285.051 29.4062 285.221 29.5762 285.443 29.7168C285.666 29.8457 286.053 29.9863 286.604 30.1387V31ZM294.092 22.1055C294.092 26.207 294.748 29.5879 296.061 32.248C297.385 34.9082 299.4 36.6895 302.107 37.5918L301.686 38.9453C298.252 38.043 295.621 36.0977 293.793 33.1094C291.965 30.1328 291.051 26.5234 291.051 22.2812C291.051 18.0508 291.965 14.4414 293.793 11.4531C295.633 8.45312 298.264 6.50195 301.686 5.59961L302.16 6.95312C299.418 7.85547 297.385 9.61914 296.061 12.2441C294.748 14.8574 294.092 18.1445 294.092 22.1055ZM311.969 20.8574L314.254 17.957C314.5 17.6406 314.699 17.3359 314.852 17.043C315.004 16.7383 315.08 16.4277 315.08 16.1113C315.08 15.8418 314.98 15.6191 314.781 15.4434C314.582 15.2676 314.271 15.1387 313.85 15.0566V14.1953H319.598V15.0566C319.152 15.1855 318.695 15.4375 318.227 15.8125C317.77 16.1875 317.207 16.791 316.539 17.623L312.9 22.0879L316.908 27.4844C317.482 28.2578 317.998 28.8496 318.455 29.2598C318.912 29.6699 319.369 29.9629 319.826 30.1387V31H312.76V30.1387C313.732 30.0215 314.219 29.6582 314.219 29.0488C314.219 28.8027 314.178 28.5684 314.096 28.3457C314.014 28.123 313.861 27.8652 313.639 27.5723L311.09 24.0215L308.383 27.5371C308.184 27.7949 308.025 28.0352 307.908 28.2578C307.803 28.4688 307.75 28.709 307.75 28.9785C307.75 29.2949 307.855 29.5586 308.066 29.7695C308.289 29.9688 308.635 30.0918 309.104 30.1387V31H303.232V30.1387C303.619 29.998 303.965 29.8223 304.27 29.6113C304.586 29.4004 304.902 29.1309 305.219 28.8027C305.547 28.4629 305.975 27.9707 306.502 27.3262L310.158 22.791L306.414 17.6582C305.898 16.9551 305.488 16.4453 305.184 16.1289C304.879 15.8125 304.598 15.5723 304.34 15.4082C304.082 15.2441 303.824 15.127 303.566 15.0566V14.1953H310.457V15.0566C309.531 15.1973 309.068 15.5605 309.068 16.1465C309.068 16.416 309.127 16.6855 309.244 16.9551C309.373 17.2246 309.566 17.5234 309.824 17.8516L311.969 20.8574ZM328.967 22.1055C328.967 18.1445 328.311 14.8574 326.998 12.2441C325.686 9.61914 323.652 7.85547 320.898 6.95312L321.373 5.59961C324.795 6.50195 327.42 8.45312 329.248 11.4531C331.088 14.4414 332.008 18.0508 332.008 22.2812C332.008 26.5234 331.094 30.1328 329.266 33.1094C327.438 36.0977 324.807 38.043 321.373 38.9453L320.951 37.5918C323.658 36.6895 325.668 34.9082 326.98 32.248C328.305 29.5879 328.967 26.207 328.967 22.1055ZM357.812 21.877V32.002H355.316V21.877H345.736V19.5391H355.316V9.41406H357.812V19.5391H367.393V21.877H357.812ZM378.607 15.0742C379.193 14.9805 379.668 14.8164 380.031 14.582C380.395 14.3477 380.676 14.0488 380.875 13.6855C381.086 13.3105 381.25 12.8477 381.367 12.2969C381.484 11.7344 381.607 10.9199 381.736 9.85352H384.232V14.1953H389.91V15.9707H384.232V23.793C384.232 24.9297 384.279 25.8379 384.373 26.5176C384.467 27.1855 384.643 27.7129 384.9 28.0996C385.158 28.4746 385.451 28.7441 385.779 28.9082C386.107 29.0723 386.529 29.1543 387.045 29.1543C387.514 29.1543 387.953 29.0605 388.363 28.873C388.773 28.6738 389.178 28.3926 389.576 28.0293L390.367 28.9785C389.535 29.7871 388.744 30.373 387.994 30.7363C387.256 31.0996 386.488 31.2812 385.691 31.2812C384.18 31.2812 383.055 30.8359 382.316 29.9453C381.578 29.043 381.209 27.6367 381.209 25.7266V15.9707H378.607V15.0742ZM402.021 28.4863L401.758 28.416C400.738 29.459 399.777 30.1973 398.875 30.6309C397.984 31.0645 397.035 31.2812 396.027 31.2812C395.137 31.2812 394.352 31.1113 393.672 30.7715C392.992 30.4199 392.471 29.9336 392.107 29.3125C391.744 28.6797 391.562 27.9531 391.562 27.1328C391.562 25.4219 392.406 24.1035 394.094 23.1777C395.793 22.2402 398.336 21.6953 401.723 21.543V20.4004C401.723 19.1816 401.605 18.2207 401.371 17.5176C401.137 16.8145 400.768 16.2988 400.264 15.9707C399.76 15.6426 399.086 15.4785 398.242 15.4785C397.328 15.4785 396.59 15.7188 396.027 16.1992C395.477 16.6797 395.061 17.4004 394.779 18.3613H392.477V16.0762C393.602 15.4902 394.539 15.0625 395.289 14.793C396.039 14.5117 396.789 14.2949 397.539 14.1426C398.289 13.9785 399.051 13.8965 399.824 13.8965C400.984 13.8965 401.916 14.084 402.619 14.459C403.322 14.8223 403.85 15.3848 404.201 16.1465C404.553 16.9082 404.729 18.0566 404.729 19.5918V25.709C404.729 26.5762 404.734 27.1914 404.746 27.5547C404.758 27.9062 404.793 28.2344 404.852 28.5391C404.91 28.8438 404.998 29.0898 405.115 29.2773C405.232 29.4531 405.402 29.6055 405.625 29.7344C405.859 29.8633 406.234 29.998 406.75 30.1387V31H401.934L402.021 28.4863ZM401.723 22.9844C399.344 23.0078 397.562 23.3242 396.379 23.9336C395.195 24.543 394.604 25.4629 394.604 26.6934C394.604 27.3613 394.738 27.8887 395.008 28.2754C395.277 28.6621 395.617 28.9316 396.027 29.084C396.438 29.2246 396.924 29.2949 397.486 29.2949C398.283 29.2949 399.004 29.1016 399.648 28.7148C400.305 28.3281 400.814 27.8359 401.178 27.2383C401.541 26.6406 401.723 26.0488 401.723 25.4629V22.9844ZM426.561 31H419.635V30.1387C420.092 29.998 420.42 29.875 420.619 29.7695C420.818 29.6641 420.982 29.5176 421.111 29.3301C421.252 29.1426 421.357 28.8555 421.428 28.4688C421.51 28.0703 421.551 27.4727 421.551 26.6758V22.0703C421.551 21.25 421.527 20.5059 421.48 19.8379C421.434 19.1699 421.352 18.625 421.234 18.2031C421.129 17.7695 420.994 17.4355 420.83 17.2012C420.678 16.9551 420.49 16.75 420.268 16.5859C420.057 16.4102 419.811 16.2754 419.529 16.1816C419.248 16.0762 418.879 16.0234 418.422 16.0234C417.965 16.0234 417.531 16.1172 417.121 16.3047C416.711 16.4805 416.26 16.791 415.768 17.2363C415.275 17.6816 414.918 18.1211 414.695 18.5547C414.473 18.9883 414.361 19.4863 414.361 20.0488V26.6055C414.361 27.6133 414.408 28.3164 414.502 28.7148C414.596 29.1016 414.771 29.4004 415.029 29.6113C415.299 29.8105 415.732 29.9863 416.33 30.1387V31H409.439V30.1387C409.896 29.998 410.219 29.875 410.406 29.7695C410.605 29.6641 410.77 29.5176 410.898 29.3301C411.039 29.1426 411.145 28.8555 411.215 28.4688C411.297 28.082 411.338 27.4785 411.338 26.6582V18.9941C411.338 18.2441 411.326 17.6406 411.303 17.1836C411.279 16.7266 411.197 16.3633 411.057 16.0938C410.916 15.8125 410.699 15.6074 410.406 15.4785C410.125 15.3379 409.721 15.2207 409.193 15.127V14.1953L413.307 14.0371H414.379L414.186 16.9023L414.432 16.9727C415.299 16.0938 415.996 15.4668 416.523 15.0918C417.062 14.7168 417.602 14.4297 418.141 14.2305C418.691 14.0195 419.271 13.9141 419.881 13.9141C420.514 13.9141 421.076 13.9902 421.568 14.1426C422.072 14.2832 422.512 14.5059 422.887 14.8105C423.273 15.1152 423.59 15.4961 423.836 15.9531C424.082 16.3984 424.264 16.9375 424.381 17.5703C424.51 18.2031 424.574 19.0059 424.574 19.9785V26.6055C424.574 27.4141 424.598 28 424.645 28.3633C424.691 28.7266 424.773 29.0078 424.891 29.207C425.008 29.4062 425.178 29.5762 425.4 29.7168C425.623 29.8457 426.01 29.9863 426.561 30.1387V31ZM434.049 22.1055C434.049 26.207 434.705 29.5879 436.018 32.248C437.342 34.9082 439.357 36.6895 442.064 37.5918L441.643 38.9453C438.209 38.043 435.578 36.0977 433.75 33.1094C431.922 30.1328 431.008 26.5234 431.008 22.2812C431.008 18.0508 431.922 14.4414 433.75 11.4531C435.59 8.45312 438.221 6.50195 441.643 5.59961L442.117 6.95312C439.375 7.85547 437.342 9.61914 436.018 12.2441C434.705 14.8574 434.049 18.1445 434.049 22.1055ZM451.926 32.4414C451.281 33.8945 450.654 35.0723 450.045 35.9746C449.436 36.877 448.762 37.5566 448.023 38.0137C447.297 38.4707 446.43 38.6992 445.422 38.6992C444.777 38.6992 444.051 38.623 443.242 38.4707V34.9902H444.807C444.947 35.4707 445.123 35.8047 445.334 35.9922C445.545 36.1797 445.85 36.2734 446.248 36.2734C446.6 36.2734 446.91 36.2031 447.18 36.0625C447.461 35.9336 447.748 35.7051 448.041 35.377C448.346 35.0488 448.697 34.5449 449.096 33.8652C449.506 33.1855 449.963 32.3242 450.467 31.2812L445.545 18.0449C445.229 17.1895 444.971 16.5918 444.771 16.252C444.584 15.9121 444.379 15.6543 444.156 15.4785C443.934 15.3027 443.594 15.1621 443.137 15.0566V14.1953H450.291V15.0566C449.74 15.1855 449.354 15.3145 449.131 15.4434C448.908 15.5605 448.744 15.7188 448.639 15.918C448.533 16.1055 448.48 16.3516 448.48 16.6562C448.48 16.9727 448.516 17.3008 448.586 17.6406C448.668 17.9805 448.791 18.3789 448.955 18.8359L452.084 27.6426L455.6 19.2051C455.799 18.7363 455.951 18.3086 456.057 17.9219C456.174 17.5234 456.232 17.1543 456.232 16.8145C456.232 16.3105 456.092 15.9297 455.811 15.6719C455.541 15.4141 455.066 15.209 454.387 15.0566V14.1953H460.961V15.0566C460.504 15.1504 460.152 15.2969 459.906 15.4961C459.66 15.6836 459.414 15.9883 459.168 16.4102C458.922 16.8203 458.629 17.4004 458.289 18.1504L451.926 32.4414ZM469.662 22.1055C469.662 18.1445 469.006 14.8574 467.693 12.2441C466.381 9.61914 464.348 7.85547 461.594 6.95312L462.068 5.59961C465.49 6.50195 468.115 8.45312 469.943 11.4531C471.783 14.4414 472.703 18.0508 472.703 22.2812C472.703 26.5234 471.789 30.1328 469.961 33.1094C468.133 36.0977 465.502 38.043 462.068 38.9453L461.646 37.5918C464.354 36.6895 466.363 34.9082 467.676 32.248C469 29.5879 469.662 26.207 469.662 22.1055Z" fill="white"/>
<path d="M243.217 83.4121C243.217 84.0918 243.252 84.6074 243.322 84.959C243.404 85.2988 243.539 85.5801 243.727 85.8027C243.926 86.0137 244.207 86.1836 244.57 86.3125C244.934 86.4297 245.391 86.5234 245.941 86.5938C246.492 86.6523 247.219 86.6934 248.121 86.7168V88H235.131V86.7168C236.432 86.6582 237.357 86.582 237.908 86.4883C238.471 86.3828 238.898 86.2305 239.191 86.0312C239.484 85.832 239.695 85.5508 239.824 85.1875C239.965 84.8242 240.035 84.2324 240.035 83.4121V69.1562C240.035 68.6875 239.953 68.3477 239.789 68.1367C239.625 67.9141 239.385 67.8027 239.068 67.8027C238.693 67.8027 238.16 67.9961 237.469 68.3828C236.777 68.7695 235.922 69.3027 234.902 69.9824L234.129 68.6289L242.355 63.7246H243.322C243.252 64.8496 243.217 66.4082 243.217 68.4004V83.4121ZM268.934 80.1074H260.777V77.3828H268.934V80.1074ZM279.428 72.0742C280.014 71.9805 280.488 71.8164 280.852 71.582C281.215 71.3477 281.496 71.0488 281.695 70.6855C281.906 70.3105 282.07 69.8477 282.188 69.2969C282.305 68.7344 282.428 67.9199 282.557 66.8535H285.053V71.1953H290.73V72.9707H285.053V80.793C285.053 81.9297 285.1 82.8379 285.193 83.5176C285.287 84.1855 285.463 84.7129 285.721 85.0996C285.979 85.4746 286.271 85.7441 286.6 85.9082C286.928 86.0723 287.35 86.1543 287.865 86.1543C288.334 86.1543 288.773 86.0605 289.184 85.873C289.594 85.6738 289.998 85.3926 290.396 85.0293L291.188 85.9785C290.355 86.7871 289.564 87.373 288.814 87.7363C288.076 88.0996 287.309 88.2812 286.512 88.2812C285 88.2812 283.875 87.8359 283.137 86.9453C282.398 86.043 282.029 84.6367 282.029 82.7266V72.9707H279.428V72.0742ZM302.842 85.4863L302.578 85.416C301.559 86.459 300.598 87.1973 299.695 87.6309C298.805 88.0645 297.855 88.2812 296.848 88.2812C295.957 88.2812 295.172 88.1113 294.492 87.7715C293.812 87.4199 293.291 86.9336 292.928 86.3125C292.564 85.6797 292.383 84.9531 292.383 84.1328C292.383 82.4219 293.227 81.1035 294.914 80.1777C296.613 79.2402 299.156 78.6953 302.543 78.543V77.4004C302.543 76.1816 302.426 75.2207 302.191 74.5176C301.957 73.8145 301.588 73.2988 301.084 72.9707C300.58 72.6426 299.906 72.4785 299.062 72.4785C298.148 72.4785 297.41 72.7188 296.848 73.1992C296.297 73.6797 295.881 74.4004 295.6 75.3613H293.297V73.0762C294.422 72.4902 295.359 72.0625 296.109 71.793C296.859 71.5117 297.609 71.2949 298.359 71.1426C299.109 70.9785 299.871 70.8965 300.645 70.8965C301.805 70.8965 302.736 71.084 303.439 71.459C304.143 71.8223 304.67 72.3848 305.021 73.1465C305.373 73.9082 305.549 75.0566 305.549 76.5918V82.709C305.549 83.5762 305.555 84.1914 305.566 84.5547C305.578 84.9062 305.613 85.2344 305.672 85.5391C305.73 85.8438 305.818 86.0898 305.936 86.2773C306.053 86.4531 306.223 86.6055 306.445 86.7344C306.68 86.8633 307.055 86.998 307.57 87.1387V88H302.754L302.842 85.4863ZM302.543 79.9844C300.164 80.0078 298.383 80.3242 297.199 80.9336C296.016 81.543 295.424 82.4629 295.424 83.6934C295.424 84.3613 295.559 84.8887 295.828 85.2754C296.098 85.6621 296.438 85.9316 296.848 86.084C297.258 86.2246 297.744 86.2949 298.307 86.2949C299.104 86.2949 299.824 86.1016 300.469 85.7148C301.125 85.3281 301.635 84.8359 301.998 84.2383C302.361 83.6406 302.543 83.0488 302.543 82.4629V79.9844ZM327.381 88H320.455V87.1387C320.912 86.998 321.24 86.875 321.439 86.7695C321.639 86.6641 321.803 86.5176 321.932 86.3301C322.072 86.1426 322.178 85.8555 322.248 85.4688C322.33 85.0703 322.371 84.4727 322.371 83.6758V79.0703C322.371 78.25 322.348 77.5059 322.301 76.8379C322.254 76.1699 322.172 75.625 322.055 75.2031C321.949 74.7695 321.814 74.4355 321.65 74.2012C321.498 73.9551 321.311 73.75 321.088 73.5859C320.877 73.4102 320.631 73.2754 320.35 73.1816C320.068 73.0762 319.699 73.0234 319.242 73.0234C318.785 73.0234 318.352 73.1172 317.941 73.3047C317.531 73.4805 317.08 73.791 316.588 74.2363C316.096 74.6816 315.738 75.1211 315.516 75.5547C315.293 75.9883 315.182 76.4863 315.182 77.0488V83.6055C315.182 84.6133 315.229 85.3164 315.322 85.7148C315.416 86.1016 315.592 86.4004 315.85 86.6113C316.119 86.8105 316.553 86.9863 317.15 87.1387V88H310.26V87.1387C310.717 86.998 311.039 86.875 311.227 86.7695C311.426 86.6641 311.59 86.5176 311.719 86.3301C311.859 86.1426 311.965 85.8555 312.035 85.4688C312.117 85.082 312.158 84.4785 312.158 83.6582V75.9941C312.158 75.2441 312.146 74.6406 312.123 74.1836C312.1 73.7266 312.018 73.3633 311.877 73.0938C311.736 72.8125 311.52 72.6074 311.227 72.4785C310.945 72.3379 310.541 72.2207 310.014 72.127V71.1953L314.127 71.0371H315.199L315.006 73.9023L315.252 73.9727C316.119 73.0938 316.816 72.4668 317.344 72.0918C317.883 71.7168 318.422 71.4297 318.961 71.2305C319.512 71.0195 320.092 70.9141 320.701 70.9141C321.334 70.9141 321.896 70.9902 322.389 71.1426C322.893 71.2832 323.332 71.5059 323.707 71.8105C324.094 72.1152 324.41 72.4961 324.656 72.9531C324.902 73.3984 325.084 73.9375 325.201 74.5703C325.33 75.2031 325.395 76.0059 325.395 76.9785V83.6055C325.395 84.4141 325.418 85 325.465 85.3633C325.512 85.7266 325.594 86.0078 325.711 86.207C325.828 86.4062 325.998 86.5762 326.221 86.7168C326.443 86.8457 326.83 86.9863 327.381 87.1387V88ZM334.869 79.1055C334.869 83.207 335.525 86.5879 336.838 89.248C338.162 91.9082 340.178 93.6895 342.885 94.5918L342.463 95.9453C339.029 95.043 336.398 93.0977 334.57 90.1094C332.742 87.1328 331.828 83.5234 331.828 79.2812C331.828 75.0508 332.742 71.4414 334.57 68.4531C336.41 65.4531 339.041 63.502 342.463 62.5996L342.938 63.9531C340.195 64.8555 338.162 66.6191 336.838 69.2441C335.525 71.8574 334.869 75.1445 334.869 79.1055ZM352.746 77.8574L355.031 74.957C355.277 74.6406 355.477 74.3359 355.629 74.043C355.781 73.7383 355.857 73.4277 355.857 73.1113C355.857 72.8418 355.758 72.6191 355.559 72.4434C355.359 72.2676 355.049 72.1387 354.627 72.0566V71.1953H360.375V72.0566C359.93 72.1855 359.473 72.4375 359.004 72.8125C358.547 73.1875 357.984 73.791 357.316 74.623L353.678 79.0879L357.686 84.4844C358.26 85.2578 358.775 85.8496 359.232 86.2598C359.689 86.6699 360.146 86.9629 360.604 87.1387V88H353.537V87.1387C354.51 87.0215 354.996 86.6582 354.996 86.0488C354.996 85.8027 354.955 85.5684 354.873 85.3457C354.791 85.123 354.639 84.8652 354.416 84.5723L351.867 81.0215L349.16 84.5371C348.961 84.7949 348.803 85.0352 348.686 85.2578C348.58 85.4688 348.527 85.709 348.527 85.9785C348.527 86.2949 348.633 86.5586 348.844 86.7695C349.066 86.9688 349.412 87.0918 349.881 87.1387V88H344.01V87.1387C344.396 86.998 344.742 86.8223 345.047 86.6113C345.363 86.4004 345.68 86.1309 345.996 85.8027C346.324 85.4629 346.752 84.9707 347.279 84.3262L350.936 79.791L347.191 74.6582C346.676 73.9551 346.266 73.4453 345.961 73.1289C345.656 72.8125 345.375 72.5723 345.117 72.4082C344.859 72.2441 344.602 72.127 344.344 72.0566V71.1953H351.234V72.0566C350.309 72.1973 349.846 72.5605 349.846 73.1465C349.846 73.416 349.904 73.6855 350.021 73.9551C350.15 74.2246 350.344 74.5234 350.602 74.8516L352.746 77.8574ZM369.744 79.1055C369.744 75.1445 369.088 71.8574 367.775 69.2441C366.463 66.6191 364.43 64.8555 361.676 63.9531L362.15 62.5996C365.572 63.502 368.197 65.4531 370.025 68.4531C371.865 71.4414 372.785 75.0508 372.785 79.2812C372.785 83.5234 371.871 87.1328 370.043 90.1094C368.215 93.0977 365.584 95.043 362.15 95.9453L361.729 94.5918C364.436 93.6895 366.445 91.9082 367.758 89.248C369.082 86.5879 369.744 83.207 369.744 79.1055ZM384.545 72.0742C385.131 71.9805 385.605 71.8164 385.969 71.582C386.332 71.3477 386.613 71.0488 386.812 70.6855C387.023 70.3105 387.188 69.8477 387.305 69.2969C387.422 68.7344 387.545 67.9199 387.674 66.8535H390.17V71.1953H395.848V72.9707H390.17V80.793C390.17 81.9297 390.217 82.8379 390.311 83.5176C390.404 84.1855 390.58 84.7129 390.838 85.0996C391.096 85.4746 391.389 85.7441 391.717 85.9082C392.045 86.0723 392.467 86.1543 392.982 86.1543C393.451 86.1543 393.891 86.0605 394.301 85.873C394.711 85.6738 395.115 85.3926 395.514 85.0293L396.305 85.9785C395.473 86.7871 394.682 87.373 393.932 87.7363C393.193 88.0996 392.426 88.2812 391.629 88.2812C390.117 88.2812 388.992 87.8359 388.254 86.9453C387.516 86.043 387.146 84.6367 387.146 82.7266V72.9707H384.545V72.0742ZM407.959 85.4863L407.695 85.416C406.676 86.459 405.715 87.1973 404.812 87.6309C403.922 88.0645 402.973 88.2812 401.965 88.2812C401.074 88.2812 400.289 88.1113 399.609 87.7715C398.93 87.4199 398.408 86.9336 398.045 86.3125C397.682 85.6797 397.5 84.9531 397.5 84.1328C397.5 82.4219 398.344 81.1035 400.031 80.1777C401.73 79.2402 404.273 78.6953 407.66 78.543V77.4004C407.66 76.1816 407.543 75.2207 407.309 74.5176C407.074 73.8145 406.705 73.2988 406.201 72.9707C405.697 72.6426 405.023 72.4785 404.18 72.4785C403.266 72.4785 402.527 72.7188 401.965 73.1992C401.414 73.6797 400.998 74.4004 400.717 75.3613H398.414V73.0762C399.539 72.4902 400.477 72.0625 401.227 71.793C401.977 71.5117 402.727 71.2949 403.477 71.1426C404.227 70.9785 404.988 70.8965 405.762 70.8965C406.922 70.8965 407.854 71.084 408.557 71.459C409.26 71.8223 409.787 72.3848 410.139 73.1465C410.49 73.9082 410.666 75.0566 410.666 76.5918V82.709C410.666 83.5762 410.672 84.1914 410.684 84.5547C410.695 84.9062 410.73 85.2344 410.789 85.5391C410.848 85.8438 410.936 86.0898 411.053 86.2773C411.17 86.4531 411.34 86.6055 411.562 86.7344C411.797 86.8633 412.172 86.998 412.688 87.1387V88H407.871L407.959 85.4863ZM407.66 79.9844C405.281 80.0078 403.5 80.3242 402.316 80.9336C401.133 81.543 400.541 82.4629 400.541 83.6934C400.541 84.3613 400.676 84.8887 400.945 85.2754C401.215 85.6621 401.555 85.9316 401.965 86.084C402.375 86.2246 402.861 86.2949 403.424 86.2949C404.221 86.2949 404.941 86.1016 405.586 85.7148C406.242 85.3281 406.752 84.8359 407.115 84.2383C407.479 83.6406 407.66 83.0488 407.66 82.4629V79.9844ZM432.498 88H425.572V87.1387C426.029 86.998 426.357 86.875 426.557 86.7695C426.756 86.6641 426.92 86.5176 427.049 86.3301C427.189 86.1426 427.295 85.8555 427.365 85.4688C427.447 85.0703 427.488 84.4727 427.488 83.6758V79.0703C427.488 78.25 427.465 77.5059 427.418 76.8379C427.371 76.1699 427.289 75.625 427.172 75.2031C427.066 74.7695 426.932 74.4355 426.768 74.2012C426.615 73.9551 426.428 73.75 426.205 73.5859C425.994 73.4102 425.748 73.2754 425.467 73.1816C425.186 73.0762 424.816 73.0234 424.359 73.0234C423.902 73.0234 423.469 73.1172 423.059 73.3047C422.648 73.4805 422.197 73.791 421.705 74.2363C421.213 74.6816 420.855 75.1211 420.633 75.5547C420.41 75.9883 420.299 76.4863 420.299 77.0488V83.6055C420.299 84.6133 420.346 85.3164 420.439 85.7148C420.533 86.1016 420.709 86.4004 420.967 86.6113C421.236 86.8105 421.67 86.9863 422.268 87.1387V88H415.377V87.1387C415.834 86.998 416.156 86.875 416.344 86.7695C416.543 86.6641 416.707 86.5176 416.836 86.3301C416.977 86.1426 417.082 85.8555 417.152 85.4688C417.234 85.082 417.275 84.4785 417.275 83.6582V75.9941C417.275 75.2441 417.264 74.6406 417.24 74.1836C417.217 73.7266 417.135 73.3633 416.994 73.0938C416.854 72.8125 416.637 72.6074 416.344 72.4785C416.062 72.3379 415.658 72.2207 415.131 72.127V71.1953L419.244 71.0371H420.316L420.123 73.9023L420.369 73.9727C421.236 73.0938 421.934 72.4668 422.461 72.0918C423 71.7168 423.539 71.4297 424.078 71.2305C424.629 71.0195 425.209 70.9141 425.818 70.9141C426.451 70.9141 427.014 70.9902 427.506 71.1426C428.01 71.2832 428.449 71.5059 428.824 71.8105C429.211 72.1152 429.527 72.4961 429.773 72.9531C430.02 73.3984 430.201 73.9375 430.318 74.5703C430.447 75.2031 430.512 76.0059 430.512 76.9785V83.6055C430.512 84.4141 430.535 85 430.582 85.3633C430.629 85.7266 430.711 86.0078 430.828 86.207C430.945 86.4062 431.115 86.5762 431.338 86.7168C431.561 86.8457 431.947 86.9863 432.498 87.1387V88ZM439.986 79.1055C439.986 83.207 440.643 86.5879 441.955 89.248C443.279 91.9082 445.295 93.6895 448.002 94.5918L447.58 95.9453C444.146 95.043 441.516 93.0977 439.688 90.1094C437.859 87.1328 436.945 83.5234 436.945 79.2812C436.945 75.0508 437.859 71.4414 439.688 68.4531C441.527 65.4531 444.158 63.502 447.58 62.5996L448.055 63.9531C445.312 64.8555 443.279 66.6191 441.955 69.2441C440.643 71.8574 439.986 75.1445 439.986 79.1055ZM457.863 89.4414C457.219 90.8945 456.592 92.0723 455.982 92.9746C455.373 93.877 454.699 94.5566 453.961 95.0137C453.234 95.4707 452.367 95.6992 451.359 95.6992C450.715 95.6992 449.988 95.623 449.18 95.4707V91.9902H450.744C450.885 92.4707 451.061 92.8047 451.271 92.9922C451.482 93.1797 451.787 93.2734 452.186 93.2734C452.537 93.2734 452.848 93.2031 453.117 93.0625C453.398 92.9336 453.686 92.7051 453.979 92.377C454.283 92.0488 454.635 91.5449 455.033 90.8652C455.443 90.1855 455.9 89.3242 456.404 88.2812L451.482 75.0449C451.166 74.1895 450.908 73.5918 450.709 73.252C450.521 72.9121 450.316 72.6543 450.094 72.4785C449.871 72.3027 449.531 72.1621 449.074 72.0566V71.1953H456.229V72.0566C455.678 72.1855 455.291 72.3145 455.068 72.4434C454.846 72.5605 454.682 72.7188 454.576 72.918C454.471 73.1055 454.418 73.3516 454.418 73.6562C454.418 73.9727 454.453 74.3008 454.523 74.6406C454.605 74.9805 454.729 75.3789 454.893 75.8359L458.021 84.6426L461.537 76.2051C461.736 75.7363 461.889 75.3086 461.994 74.9219C462.111 74.5234 462.17 74.1543 462.17 73.8145C462.17 73.3105 462.029 72.9297 461.748 72.6719C461.479 72.4141 461.004 72.209 460.324 72.0566V71.1953H466.898V72.0566C466.441 72.1504 466.09 72.2969 465.844 72.4961C465.598 72.6836 465.352 72.9883 465.105 73.4102C464.859 73.8203 464.566 74.4004 464.227 75.1504L457.863 89.4414ZM475.6 79.1055C475.6 75.1445 474.943 71.8574 473.631 69.2441C472.318 66.6191 470.285 64.8555 467.531 63.9531L468.006 62.5996C471.428 63.502 474.053 65.4531 475.881 68.4531C477.721 71.4414 478.641 75.0508 478.641 79.2812C478.641 83.5234 477.727 87.1328 475.898 90.1094C474.07 93.0977 471.439 95.043 468.006 95.9453L467.584 94.5918C470.291 93.6895 472.301 91.9082 473.613 89.248C474.938 86.5879 475.6 83.207 475.6 79.1055Z" fill="white"/>
</svg>
