<svg width="494" height="100" viewBox="0 0 494 100" fill="none" xmlns="http://www.w3.org/2000/svg">
<path d="M0.650391 44.0742C1.23633 43.9805 1.71094 43.8164 2.07422 43.582C2.4375 43.3477 2.71875 43.0488 2.91797 42.6855C3.12891 42.3105 3.29297 41.8477 3.41016 41.2969C3.52734 40.7344 3.65039 39.9199 3.7793 38.8535H6.27539V43.1953H11.9531V44.9707H6.27539V52.793C6.27539 53.9297 6.32227 54.8379 6.41602 55.5176C6.50977 56.1855 6.68555 56.7129 6.94336 57.0996C7.20117 57.4746 7.49414 57.7441 7.82227 57.9082C8.15039 58.0723 8.57227 58.1543 9.08789 58.1543C9.55664 58.1543 9.99609 58.0605 10.4062 57.873C10.8164 57.6738 11.2207 57.3926 11.6191 57.0293L12.4102 57.9785C11.5781 58.7871 10.7871 59.373 10.0371 59.7363C9.29883 60.0996 8.53125 60.2812 7.73438 60.2812C6.22266 60.2812 5.09766 59.8359 4.35938 58.9453C3.62109 58.043 3.25195 56.6367 3.25195 54.7266V44.9707H0.650391V44.0742ZM24.0645 57.4863L23.8008 57.416C22.7812 58.459 21.8203 59.1973 20.918 59.6309C20.0273 60.0645 19.0781 60.2812 18.0703 60.2812C17.1797 60.2812 16.3945 60.1113 15.7148 59.7715C15.0352 59.4199 14.5137 58.9336 14.1504 58.3125C13.7871 57.6797 13.6055 56.9531 13.6055 56.1328C13.6055 54.4219 14.4492 53.1035 16.1367 52.1777C17.8359 51.2402 20.3789 50.6953 23.7656 50.543V49.4004C23.7656 48.1816 23.6484 47.2207 23.4141 46.5176C23.1797 45.8145 22.8105 45.2988 22.3066 44.9707C21.8027 44.6426 21.1289 44.4785 20.2852 44.4785C19.3711 44.4785 18.6328 44.7188 18.0703 45.1992C17.5195 45.6797 17.1035 46.4004 16.8223 47.3613H14.5195V45.0762C15.6445 44.4902 16.582 44.0625 17.332 43.793C18.082 43.5117 18.832 43.2949 19.582 43.1426C20.332 42.9785 21.0938 42.8965 21.8672 42.8965C23.0273 42.8965 23.959 43.084 24.6621 43.459C25.3652 43.8223 25.8926 44.3848 26.2441 45.1465C26.5957 45.9082 26.7715 47.0566 26.7715 48.5918V54.709C26.7715 55.5762 26.7773 56.1914 26.7891 56.5547C26.8008 56.9062 26.8359 57.2344 26.8945 57.5391C26.9531 57.8438 27.041 58.0898 27.1582 58.2773C27.2754 58.4531 27.4453 58.6055 27.668 58.7344C27.9023 58.8633 28.2773 58.998 28.793 59.1387V60H23.9766L24.0645 57.4863ZM23.7656 51.9844C21.3867 52.0078 19.6055 52.3242 18.4219 52.9336C17.2383 53.543 16.6465 54.4629 16.6465 55.6934C16.6465 56.3613 16.7812 56.8887 17.0508 57.2754C17.3203 57.6621 17.6602 57.9316 18.0703 58.084C18.4805 58.2246 18.9668 58.2949 19.5293 58.2949C20.3262 58.2949 21.0469 58.1016 21.6914 57.7148C22.3477 57.3281 22.8574 56.8359 23.2207 56.2383C23.584 55.6406 23.7656 55.0488 23.7656 54.4629V51.9844ZM48.6035 60H41.6777V59.1387C42.1348 58.998 42.4629 58.875 42.6621 58.7695C42.8613 58.6641 43.0254 58.5176 43.1543 58.3301C43.2949 58.1426 43.4004 57.8555 43.4707 57.4688C43.5527 57.0703 43.5938 56.4727 43.5938 55.6758V51.0703C43.5938 50.25 43.5703 49.5059 43.5234 48.8379C43.4766 48.1699 43.3945 47.625 43.2773 47.2031C43.1719 46.7695 43.0371 46.4355 42.873 46.2012C42.7207 45.9551 42.5332 45.75 42.3105 45.5859C42.0996 45.4102 41.8535 45.2754 41.5723 45.1816C41.291 45.0762 40.9219 45.0234 40.4648 45.0234C40.0078 45.0234 39.5742 45.1172 39.1641 45.3047C38.7539 45.4805 38.3027 45.791 37.8105 46.2363C37.3184 46.6816 36.9609 47.1211 36.7383 47.5547C36.5156 47.9883 36.4043 48.4863 36.4043 49.0488V55.6055C36.4043 56.6133 36.4512 57.3164 36.5449 57.7148C36.6387 58.1016 36.8145 58.4004 37.0723 58.6113C37.3418 58.8105 37.7754 58.9863 38.373 59.1387V60H31.4824V59.1387C31.9395 58.998 32.2617 58.875 32.4492 58.7695C32.6484 58.6641 32.8125 58.5176 32.9414 58.3301C33.082 58.1426 33.1875 57.8555 33.2578 57.4688C33.3398 57.082 33.3809 56.4785 33.3809 55.6582V47.9941C33.3809 47.2441 33.3691 46.6406 33.3457 46.1836C33.3223 45.7266 33.2402 45.3633 33.0996 45.0938C32.959 44.8125 32.7422 44.6074 32.4492 44.4785C32.168 44.3379 31.7637 44.2207 31.2363 44.127V43.1953L35.3496 43.0371H36.4219L36.2285 45.9023L36.4746 45.9727C37.3418 45.0938 38.0391 44.4668 38.5664 44.0918C39.1055 43.7168 39.6445 43.4297 40.1836 43.2305C40.7344 43.0195 41.3145 42.9141 41.9238 42.9141C42.5566 42.9141 43.1191 42.9902 43.6113 43.1426C44.1152 43.2832 44.5547 43.5059 44.9297 43.8105C45.3164 44.1152 45.6328 44.4961 45.8789 44.9531C46.125 45.3984 46.3066 45.9375 46.4238 46.5703C46.5527 47.2031 46.6172 48.0059 46.6172 48.9785V55.6055C46.6172 56.4141 46.6406 57 46.6875 57.3633C46.7344 57.7266 46.8164 58.0078 46.9336 58.207C47.0508 58.4062 47.2207 58.5762 47.4434 58.7168C47.666 58.8457 48.0527 58.9863 48.6035 59.1387V60ZM56.0918 51.1055C56.0918 55.207 56.748 58.5879 58.0605 61.248C59.3848 63.9082 61.4004 65.6895 64.1074 66.5918L63.6855 67.9453C60.252 67.043 57.6211 65.0977 55.793 62.1094C53.9648 59.1328 53.0508 55.5234 53.0508 51.2812C53.0508 47.0508 53.9648 43.4414 55.793 40.4531C57.6328 37.4531 60.2637 35.502 63.6855 34.5996L64.1602 35.9531C61.418 36.8555 59.3848 38.6191 58.0605 41.2441C56.748 43.8574 56.0918 47.1445 56.0918 51.1055ZM73.9688 49.8574L76.2539 46.957C76.5 46.6406 76.6992 46.3359 76.8516 46.043C77.0039 45.7383 77.0801 45.4277 77.0801 45.1113C77.0801 44.8418 76.9805 44.6191 76.7812 44.4434C76.582 44.2676 76.2715 44.1387 75.8496 44.0566V43.1953H81.5977V44.0566C81.1523 44.1855 80.6953 44.4375 80.2266 44.8125C79.7695 45.1875 79.207 45.791 78.5391 46.623L74.9004 51.0879L78.9082 56.4844C79.4824 57.2578 79.998 57.8496 80.4551 58.2598C80.9121 58.6699 81.3691 58.9629 81.8262 59.1387V60H74.7598V59.1387C75.7324 59.0215 76.2188 58.6582 76.2188 58.0488C76.2188 57.8027 76.1777 57.5684 76.0957 57.3457C76.0137 57.123 75.8613 56.8652 75.6387 56.5723L73.0898 53.0215L70.3828 56.5371C70.1836 56.7949 70.0254 57.0352 69.9082 57.2578C69.8027 57.4688 69.75 57.709 69.75 57.9785C69.75 58.2949 69.8555 58.5586 70.0664 58.7695C70.2891 58.9688 70.6348 59.0918 71.1035 59.1387V60H65.2324V59.1387C65.6191 58.998 65.9648 58.8223 66.2695 58.6113C66.5859 58.4004 66.9023 58.1309 67.2188 57.8027C67.5469 57.4629 67.9746 56.9707 68.502 56.3262L72.1582 51.791L68.4141 46.6582C67.8984 45.9551 67.4883 45.4453 67.1836 45.1289C66.8789 44.8125 66.5977 44.5723 66.3398 44.4082C66.082 44.2441 65.8242 44.127 65.5664 44.0566V43.1953H72.457V44.0566C71.5312 44.1973 71.0684 44.5605 71.0684 45.1465C71.0684 45.416 71.127 45.6855 71.2441 45.9551C71.373 46.2246 71.5664 46.5234 71.8242 46.8516L73.9688 49.8574ZM100.23 52.1074H92.0742V49.3828H100.23V52.1074ZM119.215 61.4414C118.57 62.8945 117.943 64.0723 117.334 64.9746C116.725 65.877 116.051 66.5566 115.312 67.0137C114.586 67.4707 113.719 67.6992 112.711 67.6992C112.066 67.6992 111.34 67.623 110.531 67.4707V63.9902H112.096C112.236 64.4707 112.412 64.8047 112.623 64.9922C112.834 65.1797 113.139 65.2734 113.537 65.2734C113.889 65.2734 114.199 65.2031 114.469 65.0625C114.75 64.9336 115.037 64.7051 115.33 64.377C115.635 64.0488 115.986 63.5449 116.385 62.8652C116.795 62.1855 117.252 61.3242 117.756 60.2812L112.834 47.0449C112.518 46.1895 112.26 45.5918 112.061 45.252C111.873 44.9121 111.668 44.6543 111.445 44.4785C111.223 44.3027 110.883 44.1621 110.426 44.0566V43.1953H117.58V44.0566C117.029 44.1855 116.643 44.3145 116.42 44.4434C116.197 44.5605 116.033 44.7188 115.928 44.918C115.822 45.1055 115.77 45.3516 115.77 45.6562C115.77 45.9727 115.805 46.3008 115.875 46.6406C115.957 46.9805 116.08 47.3789 116.244 47.8359L119.373 56.6426L122.889 48.2051C123.088 47.7363 123.24 47.3086 123.346 46.9219C123.463 46.5234 123.521 46.1543 123.521 45.8145C123.521 45.3105 123.381 44.9297 123.1 44.6719C122.83 44.4141 122.355 44.209 121.676 44.0566V43.1953H128.25V44.0566C127.793 44.1504 127.441 44.2969 127.195 44.4961C126.949 44.6836 126.703 44.9883 126.457 45.4102C126.211 45.8203 125.918 46.4004 125.578 47.1504L119.215 61.4414ZM136.951 51.1055C136.951 47.1445 136.295 43.8574 134.982 41.2441C133.67 38.6191 131.637 36.8555 128.883 35.9531L129.357 34.5996C132.779 35.502 135.404 37.4531 137.232 40.4531C139.072 43.4414 139.992 47.0508 139.992 51.2812C139.992 55.5234 139.078 59.1328 137.25 62.1094C135.422 65.0977 132.791 67.043 129.357 67.9453L128.936 66.5918C131.643 65.6895 133.652 63.9082 134.965 61.248C136.289 58.5879 136.951 55.207 136.951 51.1055ZM153.721 47.2383V44.9004H175.377V47.2383H153.721ZM153.721 54.5332V52.1953H175.377V54.5332H153.721Z" fill="white"/>
<line x1="194" y1="49" x2="494" y2="49" stroke="white" stroke-width="2"/>
<path d="M232.65 15.0742C233.236 14.9805 233.711 14.8164 234.074 14.582C234.438 14.3477 234.719 14.0488 234.918 13.6855C235.129 13.3105 235.293 12.8477 235.41 12.2969C235.527 11.7344 235.65 10.9199 235.779 9.85352H238.275V14.1953H243.953V15.9707H238.275V23.793C238.275 24.9297 238.322 25.8379 238.416 26.5176C238.51 27.1855 238.686 27.7129 238.943 28.0996C239.201 28.4746 239.494 28.7441 239.822 28.9082C240.15 29.0723 240.572 29.1543 241.088 29.1543C241.557 29.1543 241.996 29.0605 242.406 28.873C242.816 28.6738 243.221 28.3926 243.619 28.0293L244.41 28.9785C243.578 29.7871 242.787 30.373 242.037 30.7363C241.299 31.0996 240.531 31.2812 239.734 31.2812C238.223 31.2812 237.098 30.8359 236.359 29.9453C235.621 29.043 235.252 27.6367 235.252 25.7266V15.9707H232.65V15.0742ZM256.064 28.4863L255.801 28.416C254.781 29.459 253.82 30.1973 252.918 30.6309C252.027 31.0645 251.078 31.2812 250.07 31.2812C249.18 31.2812 248.395 31.1113 247.715 30.7715C247.035 30.4199 246.514 29.9336 246.15 29.3125C245.787 28.6797 245.605 27.9531 245.605 27.1328C245.605 25.4219 246.449 24.1035 248.137 23.1777C249.836 22.2402 252.379 21.6953 255.766 21.543V20.4004C255.766 19.1816 255.648 18.2207 255.414 17.5176C255.18 16.8145 254.811 16.2988 254.307 15.9707C253.803 15.6426 253.129 15.4785 252.285 15.4785C251.371 15.4785 250.633 15.7188 250.07 16.1992C249.52 16.6797 249.104 17.4004 248.822 18.3613H246.52V16.0762C247.645 15.4902 248.582 15.0625 249.332 14.793C250.082 14.5117 250.832 14.2949 251.582 14.1426C252.332 13.9785 253.094 13.8965 253.867 13.8965C255.027 13.8965 255.959 14.084 256.662 14.459C257.365 14.8223 257.893 15.3848 258.244 16.1465C258.596 16.9082 258.771 18.0566 258.771 19.5918V25.709C258.771 26.5762 258.777 27.1914 258.789 27.5547C258.801 27.9062 258.836 28.2344 258.895 28.5391C258.953 28.8438 259.041 29.0898 259.158 29.2773C259.275 29.4531 259.445 29.6055 259.668 29.7344C259.902 29.8633 260.277 29.998 260.793 30.1387V31H255.977L256.064 28.4863ZM255.766 22.9844C253.387 23.0078 251.605 23.3242 250.422 23.9336C249.238 24.543 248.646 25.4629 248.646 26.6934C248.646 27.3613 248.781 27.8887 249.051 28.2754C249.32 28.6621 249.66 28.9316 250.07 29.084C250.48 29.2246 250.967 29.2949 251.529 29.2949C252.326 29.2949 253.047 29.1016 253.691 28.7148C254.348 28.3281 254.857 27.8359 255.221 27.2383C255.584 26.6406 255.766 26.0488 255.766 25.4629V22.9844ZM280.604 31H273.678V30.1387C274.135 29.998 274.463 29.875 274.662 29.7695C274.861 29.6641 275.025 29.5176 275.154 29.3301C275.295 29.1426 275.4 28.8555 275.471 28.4688C275.553 28.0703 275.594 27.4727 275.594 26.6758V22.0703C275.594 21.25 275.57 20.5059 275.523 19.8379C275.477 19.1699 275.395 18.625 275.277 18.2031C275.172 17.7695 275.037 17.4355 274.873 17.2012C274.721 16.9551 274.533 16.75 274.311 16.5859C274.1 16.4102 273.854 16.2754 273.572 16.1816C273.291 16.0762 272.922 16.0234 272.465 16.0234C272.008 16.0234 271.574 16.1172 271.164 16.3047C270.754 16.4805 270.303 16.791 269.811 17.2363C269.318 17.6816 268.961 18.1211 268.738 18.5547C268.516 18.9883 268.404 19.4863 268.404 20.0488V26.6055C268.404 27.6133 268.451 28.3164 268.545 28.7148C268.639 29.1016 268.814 29.4004 269.072 29.6113C269.342 29.8105 269.775 29.9863 270.373 30.1387V31H263.482V30.1387C263.939 29.998 264.262 29.875 264.449 29.7695C264.648 29.6641 264.812 29.5176 264.941 29.3301C265.082 29.1426 265.188 28.8555 265.258 28.4688C265.34 28.082 265.381 27.4785 265.381 26.6582V18.9941C265.381 18.2441 265.369 17.6406 265.346 17.1836C265.322 16.7266 265.24 16.3633 265.1 16.0938C264.959 15.8125 264.742 15.6074 264.449 15.4785C264.168 15.3379 263.764 15.2207 263.236 15.127V14.1953L267.35 14.0371H268.422L268.229 16.9023L268.475 16.9727C269.342 16.0938 270.039 15.4668 270.566 15.0918C271.105 14.7168 271.645 14.4297 272.184 14.2305C272.734 14.0195 273.314 13.9141 273.924 13.9141C274.557 13.9141 275.119 13.9902 275.611 14.1426C276.115 14.2832 276.555 14.5059 276.93 14.8105C277.316 15.1152 277.633 15.4961 277.879 15.9531C278.125 16.3984 278.307 16.9375 278.424 17.5703C278.553 18.2031 278.617 19.0059 278.617 19.9785V26.6055C278.617 27.4141 278.641 28 278.688 28.3633C278.734 28.7266 278.816 29.0078 278.934 29.207C279.051 29.4062 279.221 29.5762 279.443 29.7168C279.666 29.8457 280.053 29.9863 280.604 30.1387V31ZM288.092 22.1055C288.092 26.207 288.748 29.5879 290.061 32.248C291.385 34.9082 293.4 36.6895 296.107 37.5918L295.686 38.9453C292.252 38.043 289.621 36.0977 287.793 33.1094C285.965 30.1328 285.051 26.5234 285.051 22.2812C285.051 18.0508 285.965 14.4414 287.793 11.4531C289.633 8.45312 292.264 6.50195 295.686 5.59961L296.16 6.95312C293.418 7.85547 291.385 9.61914 290.061 12.2441C288.748 14.8574 288.092 18.1445 288.092 22.1055ZM305.969 20.8574L308.254 17.957C308.5 17.6406 308.699 17.3359 308.852 17.043C309.004 16.7383 309.08 16.4277 309.08 16.1113C309.08 15.8418 308.98 15.6191 308.781 15.4434C308.582 15.2676 308.271 15.1387 307.85 15.0566V14.1953H313.598V15.0566C313.152 15.1855 312.695 15.4375 312.227 15.8125C311.77 16.1875 311.207 16.791 310.539 17.623L306.9 22.0879L310.908 27.4844C311.482 28.2578 311.998 28.8496 312.455 29.2598C312.912 29.6699 313.369 29.9629 313.826 30.1387V31H306.76V30.1387C307.732 30.0215 308.219 29.6582 308.219 29.0488C308.219 28.8027 308.178 28.5684 308.096 28.3457C308.014 28.123 307.861 27.8652 307.639 27.5723L305.09 24.0215L302.383 27.5371C302.184 27.7949 302.025 28.0352 301.908 28.2578C301.803 28.4688 301.75 28.709 301.75 28.9785C301.75 29.2949 301.855 29.5586 302.066 29.7695C302.289 29.9688 302.635 30.0918 303.104 30.1387V31H297.232V30.1387C297.619 29.998 297.965 29.8223 298.27 29.6113C298.586 29.4004 298.902 29.1309 299.219 28.8027C299.547 28.4629 299.975 27.9707 300.502 27.3262L304.158 22.791L300.414 17.6582C299.898 16.9551 299.488 16.4453 299.184 16.1289C298.879 15.8125 298.598 15.5723 298.34 15.4082C298.082 15.2441 297.824 15.127 297.566 15.0566V14.1953H304.457V15.0566C303.531 15.1973 303.068 15.5605 303.068 16.1465C303.068 16.416 303.127 16.6855 303.244 16.9551C303.373 17.2246 303.566 17.5234 303.824 17.8516L305.969 20.8574ZM322.967 22.1055C322.967 18.1445 322.311 14.8574 320.998 12.2441C319.686 9.61914 317.652 7.85547 314.898 6.95312L315.373 5.59961C318.795 6.50195 321.42 8.45312 323.248 11.4531C325.088 14.4414 326.008 18.0508 326.008 22.2812C326.008 26.5234 325.094 30.1328 323.266 33.1094C321.438 36.0977 318.807 38.043 315.373 38.9453L314.951 37.5918C317.658 36.6895 319.668 34.9082 320.98 32.248C322.305 29.5879 322.967 26.207 322.967 22.1055ZM347.172 23.1074H339.016V20.3828H347.172V23.1074ZM357.666 15.0742C358.252 14.9805 358.727 14.8164 359.09 14.582C359.453 14.3477 359.734 14.0488 359.934 13.6855C360.145 13.3105 360.309 12.8477 360.426 12.2969C360.543 11.7344 360.666 10.9199 360.795 9.85352H363.291V14.1953H368.969V15.9707H363.291V23.793C363.291 24.9297 363.338 25.8379 363.432 26.5176C363.525 27.1855 363.701 27.7129 363.959 28.0996C364.217 28.4746 364.51 28.7441 364.838 28.9082C365.166 29.0723 365.588 29.1543 366.104 29.1543C366.572 29.1543 367.012 29.0605 367.422 28.873C367.832 28.6738 368.236 28.3926 368.635 28.0293L369.426 28.9785C368.594 29.7871 367.803 30.373 367.053 30.7363C366.314 31.0996 365.547 31.2812 364.75 31.2812C363.238 31.2812 362.113 30.8359 361.375 29.9453C360.637 29.043 360.268 27.6367 360.268 25.7266V15.9707H357.666V15.0742ZM381.08 28.4863L380.816 28.416C379.797 29.459 378.836 30.1973 377.934 30.6309C377.043 31.0645 376.094 31.2812 375.086 31.2812C374.195 31.2812 373.41 31.1113 372.73 30.7715C372.051 30.4199 371.529 29.9336 371.166 29.3125C370.803 28.6797 370.621 27.9531 370.621 27.1328C370.621 25.4219 371.465 24.1035 373.152 23.1777C374.852 22.2402 377.395 21.6953 380.781 21.543V20.4004C380.781 19.1816 380.664 18.2207 380.43 17.5176C380.195 16.8145 379.826 16.2988 379.322 15.9707C378.818 15.6426 378.145 15.4785 377.301 15.4785C376.387 15.4785 375.648 15.7188 375.086 16.1992C374.535 16.6797 374.119 17.4004 373.838 18.3613H371.535V16.0762C372.66 15.4902 373.598 15.0625 374.348 14.793C375.098 14.5117 375.848 14.2949 376.598 14.1426C377.348 13.9785 378.109 13.8965 378.883 13.8965C380.043 13.8965 380.975 14.084 381.678 14.459C382.381 14.8223 382.908 15.3848 383.26 16.1465C383.611 16.9082 383.787 18.0566 383.787 19.5918V25.709C383.787 26.5762 383.793 27.1914 383.805 27.5547C383.816 27.9062 383.852 28.2344 383.91 28.5391C383.969 28.8438 384.057 29.0898 384.174 29.2773C384.291 29.4531 384.461 29.6055 384.684 29.7344C384.918 29.8633 385.293 29.998 385.809 30.1387V31H380.992L381.08 28.4863ZM380.781 22.9844C378.402 23.0078 376.621 23.3242 375.438 23.9336C374.254 24.543 373.662 25.4629 373.662 26.6934C373.662 27.3613 373.797 27.8887 374.066 28.2754C374.336 28.6621 374.676 28.9316 375.086 29.084C375.496 29.2246 375.982 29.2949 376.545 29.2949C377.342 29.2949 378.062 29.1016 378.707 28.7148C379.363 28.3281 379.873 27.8359 380.236 27.2383C380.6 26.6406 380.781 26.0488 380.781 25.4629V22.9844ZM405.619 31H398.693V30.1387C399.15 29.998 399.479 29.875 399.678 29.7695C399.877 29.6641 400.041 29.5176 400.17 29.3301C400.311 29.1426 400.416 28.8555 400.486 28.4688C400.568 28.0703 400.609 27.4727 400.609 26.6758V22.0703C400.609 21.25 400.586 20.5059 400.539 19.8379C400.492 19.1699 400.41 18.625 400.293 18.2031C400.188 17.7695 400.053 17.4355 399.889 17.2012C399.736 16.9551 399.549 16.75 399.326 16.5859C399.115 16.4102 398.869 16.2754 398.588 16.1816C398.307 16.0762 397.938 16.0234 397.48 16.0234C397.023 16.0234 396.59 16.1172 396.18 16.3047C395.77 16.4805 395.318 16.791 394.826 17.2363C394.334 17.6816 393.977 18.1211 393.754 18.5547C393.531 18.9883 393.42 19.4863 393.42 20.0488V26.6055C393.42 27.6133 393.467 28.3164 393.561 28.7148C393.654 29.1016 393.83 29.4004 394.088 29.6113C394.357 29.8105 394.791 29.9863 395.389 30.1387V31H388.498V30.1387C388.955 29.998 389.277 29.875 389.465 29.7695C389.664 29.6641 389.828 29.5176 389.957 29.3301C390.098 29.1426 390.203 28.8555 390.273 28.4688C390.355 28.082 390.396 27.4785 390.396 26.6582V18.9941C390.396 18.2441 390.385 17.6406 390.361 17.1836C390.338 16.7266 390.256 16.3633 390.115 16.0938C389.975 15.8125 389.758 15.6074 389.465 15.4785C389.184 15.3379 388.779 15.2207 388.252 15.127V14.1953L392.365 14.0371H393.438L393.244 16.9023L393.49 16.9727C394.357 16.0938 395.055 15.4668 395.582 15.0918C396.121 14.7168 396.66 14.4297 397.199 14.2305C397.75 14.0195 398.33 13.9141 398.939 13.9141C399.572 13.9141 400.135 13.9902 400.627 14.1426C401.131 14.2832 401.57 14.5059 401.945 14.8105C402.332 15.1152 402.648 15.4961 402.895 15.9531C403.141 16.3984 403.322 16.9375 403.439 17.5703C403.568 18.2031 403.633 19.0059 403.633 19.9785V26.6055C403.633 27.4141 403.656 28 403.703 28.3633C403.75 28.7266 403.832 29.0078 403.949 29.207C404.066 29.4062 404.236 29.5762 404.459 29.7168C404.682 29.8457 405.068 29.9863 405.619 30.1387V31ZM413.107 22.1055C413.107 26.207 413.764 29.5879 415.076 32.248C416.4 34.9082 418.416 36.6895 421.123 37.5918L420.701 38.9453C417.268 38.043 414.637 36.0977 412.809 33.1094C410.98 30.1328 410.066 26.5234 410.066 22.2812C410.066 18.0508 410.98 14.4414 412.809 11.4531C414.648 8.45312 417.279 6.50195 420.701 5.59961L421.176 6.95312C418.434 7.85547 416.4 9.61914 415.076 12.2441C413.764 14.8574 413.107 18.1445 413.107 22.1055ZM430.984 32.4414C430.34 33.8945 429.713 35.0723 429.104 35.9746C428.494 36.877 427.82 37.5566 427.082 38.0137C426.355 38.4707 425.488 38.6992 424.48 38.6992C423.836 38.6992 423.109 38.623 422.301 38.4707V34.9902H423.865C424.006 35.4707 424.182 35.8047 424.393 35.9922C424.604 36.1797 424.908 36.2734 425.307 36.2734C425.658 36.2734 425.969 36.2031 426.238 36.0625C426.52 35.9336 426.807 35.7051 427.1 35.377C427.404 35.0488 427.756 34.5449 428.154 33.8652C428.564 33.1855 429.021 32.3242 429.525 31.2812L424.604 18.0449C424.287 17.1895 424.029 16.5918 423.83 16.252C423.643 15.9121 423.438 15.6543 423.215 15.4785C422.992 15.3027 422.652 15.1621 422.195 15.0566V14.1953H429.35V15.0566C428.799 15.1855 428.412 15.3145 428.189 15.4434C427.967 15.5605 427.803 15.7188 427.697 15.918C427.592 16.1055 427.539 16.3516 427.539 16.6562C427.539 16.9727 427.574 17.3008 427.645 17.6406C427.727 17.9805 427.85 18.3789 428.014 18.8359L431.143 27.6426L434.658 19.2051C434.857 18.7363 435.01 18.3086 435.115 17.9219C435.232 17.5234 435.291 17.1543 435.291 16.8145C435.291 16.3105 435.15 15.9297 434.869 15.6719C434.6 15.4141 434.125 15.209 433.445 15.0566V14.1953H440.02V15.0566C439.562 15.1504 439.211 15.2969 438.965 15.4961C438.719 15.6836 438.473 15.9883 438.227 16.4102C437.98 16.8203 437.688 17.4004 437.348 18.1504L430.984 32.4414ZM448.721 22.1055C448.721 18.1445 448.064 14.8574 446.752 12.2441C445.439 9.61914 443.406 7.85547 440.652 6.95312L441.127 5.59961C444.549 6.50195 447.174 8.45312 449.002 11.4531C450.842 14.4414 451.762 18.0508 451.762 22.2812C451.762 26.5234 450.848 30.1328 449.02 33.1094C447.191 36.0977 444.561 38.043 441.127 38.9453L440.705 37.5918C443.412 36.6895 445.422 34.9082 446.734 32.248C448.059 29.5879 448.721 26.207 448.721 22.1055Z" fill="white"/>
<path d="M223.217 84.4121C223.217 85.0918 223.252 85.6074 223.322 85.959C223.404 86.2988 223.539 86.5801 223.727 86.8027C223.926 87.0137 224.207 87.1836 224.57 87.3125C224.934 87.4297 225.391 87.5234 225.941 87.5938C226.492 87.6523 227.219 87.6934 228.121 87.7168V89H215.131V87.7168C216.432 87.6582 217.357 87.582 217.908 87.4883C218.471 87.3828 218.898 87.2305 219.191 87.0312C219.484 86.832 219.695 86.5508 219.824 86.1875C219.965 85.8242 220.035 85.2324 220.035 84.4121V70.1562C220.035 69.6875 219.953 69.3477 219.789 69.1367C219.625 68.9141 219.385 68.8027 219.068 68.8027C218.693 68.8027 218.16 68.9961 217.469 69.3828C216.777 69.7695 215.922 70.3027 214.902 70.9824L214.129 69.6289L222.355 64.7246H223.322C223.252 65.8496 223.217 67.4082 223.217 69.4004V84.4121ZM253.574 79.877V90.002H251.078V79.877H241.498V77.5391H251.078V67.4141H253.574V77.5391H263.154V79.877H253.574ZM274.369 73.0742C274.955 72.9805 275.43 72.8164 275.793 72.582C276.156 72.3477 276.438 72.0488 276.637 71.6855C276.848 71.3105 277.012 70.8477 277.129 70.2969C277.246 69.7344 277.369 68.9199 277.498 67.8535H279.994V72.1953H285.672V73.9707H279.994V81.793C279.994 82.9297 280.041 83.8379 280.135 84.5176C280.229 85.1855 280.404 85.7129 280.662 86.0996C280.92 86.4746 281.213 86.7441 281.541 86.9082C281.869 87.0723 282.291 87.1543 282.807 87.1543C283.275 87.1543 283.715 87.0605 284.125 86.873C284.535 86.6738 284.939 86.3926 285.338 86.0293L286.129 86.9785C285.297 87.7871 284.506 88.373 283.756 88.7363C283.018 89.0996 282.25 89.2812 281.453 89.2812C279.941 89.2812 278.816 88.8359 278.078 87.9453C277.34 87.043 276.971 85.6367 276.971 83.7266V73.9707H274.369V73.0742ZM297.783 86.4863L297.52 86.416C296.5 87.459 295.539 88.1973 294.637 88.6309C293.746 89.0645 292.797 89.2812 291.789 89.2812C290.898 89.2812 290.113 89.1113 289.434 88.7715C288.754 88.4199 288.232 87.9336 287.869 87.3125C287.506 86.6797 287.324 85.9531 287.324 85.1328C287.324 83.4219 288.168 82.1035 289.855 81.1777C291.555 80.2402 294.098 79.6953 297.484 79.543V78.4004C297.484 77.1816 297.367 76.2207 297.133 75.5176C296.898 74.8145 296.529 74.2988 296.025 73.9707C295.521 73.6426 294.848 73.4785 294.004 73.4785C293.09 73.4785 292.352 73.7188 291.789 74.1992C291.238 74.6797 290.822 75.4004 290.541 76.3613H288.238V74.0762C289.363 73.4902 290.301 73.0625 291.051 72.793C291.801 72.5117 292.551 72.2949 293.301 72.1426C294.051 71.9785 294.812 71.8965 295.586 71.8965C296.746 71.8965 297.678 72.084 298.381 72.459C299.084 72.8223 299.611 73.3848 299.963 74.1465C300.314 74.9082 300.49 76.0566 300.49 77.5918V83.709C300.49 84.5762 300.496 85.1914 300.508 85.5547C300.52 85.9062 300.555 86.2344 300.613 86.5391C300.672 86.8438 300.76 87.0898 300.877 87.2773C300.994 87.4531 301.164 87.6055 301.387 87.7344C301.621 87.8633 301.996 87.998 302.512 88.1387V89H297.695L297.783 86.4863ZM297.484 80.9844C295.105 81.0078 293.324 81.3242 292.141 81.9336C290.957 82.543 290.365 83.4629 290.365 84.6934C290.365 85.3613 290.5 85.8887 290.77 86.2754C291.039 86.6621 291.379 86.9316 291.789 87.084C292.199 87.2246 292.686 87.2949 293.248 87.2949C294.045 87.2949 294.766 87.1016 295.41 86.7148C296.066 86.3281 296.576 85.8359 296.939 85.2383C297.303 84.6406 297.484 84.0488 297.484 83.4629V80.9844ZM322.322 89H315.396V88.1387C315.854 87.998 316.182 87.875 316.381 87.7695C316.58 87.6641 316.744 87.5176 316.873 87.3301C317.014 87.1426 317.119 86.8555 317.189 86.4688C317.271 86.0703 317.312 85.4727 317.312 84.6758V80.0703C317.312 79.25 317.289 78.5059 317.242 77.8379C317.195 77.1699 317.113 76.625 316.996 76.2031C316.891 75.7695 316.756 75.4355 316.592 75.2012C316.439 74.9551 316.252 74.75 316.029 74.5859C315.818 74.4102 315.572 74.2754 315.291 74.1816C315.01 74.0762 314.641 74.0234 314.184 74.0234C313.727 74.0234 313.293 74.1172 312.883 74.3047C312.473 74.4805 312.021 74.791 311.529 75.2363C311.037 75.6816 310.68 76.1211 310.457 76.5547C310.234 76.9883 310.123 77.4863 310.123 78.0488V84.6055C310.123 85.6133 310.17 86.3164 310.264 86.7148C310.357 87.1016 310.533 87.4004 310.791 87.6113C311.061 87.8105 311.494 87.9863 312.092 88.1387V89H305.201V88.1387C305.658 87.998 305.98 87.875 306.168 87.7695C306.367 87.6641 306.531 87.5176 306.66 87.3301C306.801 87.1426 306.906 86.8555 306.977 86.4688C307.059 86.082 307.1 85.4785 307.1 84.6582V76.9941C307.1 76.2441 307.088 75.6406 307.064 75.1836C307.041 74.7266 306.959 74.3633 306.818 74.0938C306.678 73.8125 306.461 73.6074 306.168 73.4785C305.887 73.3379 305.482 73.2207 304.955 73.127V72.1953L309.068 72.0371H310.141L309.947 74.9023L310.193 74.9727C311.061 74.0938 311.758 73.4668 312.285 73.0918C312.824 72.7168 313.363 72.4297 313.902 72.2305C314.453 72.0195 315.033 71.9141 315.643 71.9141C316.275 71.9141 316.838 71.9902 317.33 72.1426C317.834 72.2832 318.273 72.5059 318.648 72.8105C319.035 73.1152 319.352 73.4961 319.598 73.9531C319.844 74.3984 320.025 74.9375 320.143 75.5703C320.271 76.2031 320.336 77.0059 320.336 77.9785V84.6055C320.336 85.4141 320.359 86 320.406 86.3633C320.453 86.7266 320.535 87.0078 320.652 87.207C320.77 87.4062 320.939 87.5762 321.162 87.7168C321.385 87.8457 321.771 87.9863 322.322 88.1387V89ZM329.811 80.1055C329.811 84.207 330.467 87.5879 331.779 90.248C333.104 92.9082 335.119 94.6895 337.826 95.5918L337.404 96.9453C333.971 96.043 331.34 94.0977 329.512 91.1094C327.684 88.1328 326.77 84.5234 326.77 80.2812C326.77 76.0508 327.684 72.4414 329.512 69.4531C331.352 66.4531 333.982 64.502 337.404 63.5996L337.879 64.9531C335.137 65.8555 333.104 67.6191 331.779 70.2441C330.467 72.8574 329.811 76.1445 329.811 80.1055ZM347.688 78.8574L349.973 75.957C350.219 75.6406 350.418 75.3359 350.57 75.043C350.723 74.7383 350.799 74.4277 350.799 74.1113C350.799 73.8418 350.699 73.6191 350.5 73.4434C350.301 73.2676 349.99 73.1387 349.568 73.0566V72.1953H355.316V73.0566C354.871 73.1855 354.414 73.4375 353.945 73.8125C353.488 74.1875 352.926 74.791 352.258 75.623L348.619 80.0879L352.627 85.4844C353.201 86.2578 353.717 86.8496 354.174 87.2598C354.631 87.6699 355.088 87.9629 355.545 88.1387V89H348.479V88.1387C349.451 88.0215 349.938 87.6582 349.938 87.0488C349.938 86.8027 349.896 86.5684 349.814 86.3457C349.732 86.123 349.58 85.8652 349.357 85.5723L346.809 82.0215L344.102 85.5371C343.902 85.7949 343.744 86.0352 343.627 86.2578C343.521 86.4688 343.469 86.709 343.469 86.9785C343.469 87.2949 343.574 87.5586 343.785 87.7695C344.008 87.9688 344.354 88.0918 344.822 88.1387V89H338.951V88.1387C339.338 87.998 339.684 87.8223 339.988 87.6113C340.305 87.4004 340.621 87.1309 340.938 86.8027C341.266 86.4629 341.693 85.9707 342.221 85.3262L345.877 80.791L342.133 75.6582C341.617 74.9551 341.207 74.4453 340.902 74.1289C340.598 73.8125 340.316 73.5723 340.059 73.4082C339.801 73.2441 339.543 73.127 339.285 73.0566V72.1953H346.176V73.0566C345.25 73.1973 344.787 73.5605 344.787 74.1465C344.787 74.416 344.846 74.6855 344.963 74.9551C345.092 75.2246 345.285 75.5234 345.543 75.8516L347.688 78.8574ZM364.686 80.1055C364.686 76.1445 364.029 72.8574 362.717 70.2441C361.404 67.6191 359.371 65.8555 356.617 64.9531L357.092 63.5996C360.514 64.502 363.139 66.4531 364.967 69.4531C366.807 72.4414 367.727 76.0508 367.727 80.2812C367.727 84.5234 366.812 88.1328 364.984 91.1094C363.156 94.0977 360.525 96.043 357.092 96.9453L356.67 95.5918C359.377 94.6895 361.387 92.9082 362.699 90.248C364.023 87.5879 364.686 84.207 364.686 80.1055ZM379.486 73.0742C380.072 72.9805 380.547 72.8164 380.91 72.582C381.273 72.3477 381.555 72.0488 381.754 71.6855C381.965 71.3105 382.129 70.8477 382.246 70.2969C382.363 69.7344 382.486 68.9199 382.615 67.8535H385.111V72.1953H390.789V73.9707H385.111V81.793C385.111 82.9297 385.158 83.8379 385.252 84.5176C385.346 85.1855 385.521 85.7129 385.779 86.0996C386.037 86.4746 386.33 86.7441 386.658 86.9082C386.986 87.0723 387.408 87.1543 387.924 87.1543C388.393 87.1543 388.832 87.0605 389.242 86.873C389.652 86.6738 390.057 86.3926 390.455 86.0293L391.246 86.9785C390.414 87.7871 389.623 88.373 388.873 88.7363C388.135 89.0996 387.367 89.2812 386.57 89.2812C385.059 89.2812 383.934 88.8359 383.195 87.9453C382.457 87.043 382.088 85.6367 382.088 83.7266V73.9707H379.486V73.0742ZM402.9 86.4863L402.637 86.416C401.617 87.459 400.656 88.1973 399.754 88.6309C398.863 89.0645 397.914 89.2812 396.906 89.2812C396.016 89.2812 395.23 89.1113 394.551 88.7715C393.871 88.4199 393.35 87.9336 392.986 87.3125C392.623 86.6797 392.441 85.9531 392.441 85.1328C392.441 83.4219 393.285 82.1035 394.973 81.1777C396.672 80.2402 399.215 79.6953 402.602 79.543V78.4004C402.602 77.1816 402.484 76.2207 402.25 75.5176C402.016 74.8145 401.646 74.2988 401.143 73.9707C400.639 73.6426 399.965 73.4785 399.121 73.4785C398.207 73.4785 397.469 73.7188 396.906 74.1992C396.355 74.6797 395.939 75.4004 395.658 76.3613H393.355V74.0762C394.48 73.4902 395.418 73.0625 396.168 72.793C396.918 72.5117 397.668 72.2949 398.418 72.1426C399.168 71.9785 399.93 71.8965 400.703 71.8965C401.863 71.8965 402.795 72.084 403.498 72.459C404.201 72.8223 404.729 73.3848 405.08 74.1465C405.432 74.9082 405.607 76.0566 405.607 77.5918V83.709C405.607 84.5762 405.613 85.1914 405.625 85.5547C405.637 85.9062 405.672 86.2344 405.73 86.5391C405.789 86.8438 405.877 87.0898 405.994 87.2773C406.111 87.4531 406.281 87.6055 406.504 87.7344C406.738 87.8633 407.113 87.998 407.629 88.1387V89H402.812L402.9 86.4863ZM402.602 80.9844C400.223 81.0078 398.441 81.3242 397.258 81.9336C396.074 82.543 395.482 83.4629 395.482 84.6934C395.482 85.3613 395.617 85.8887 395.887 86.2754C396.156 86.6621 396.496 86.9316 396.906 87.084C397.316 87.2246 397.803 87.2949 398.365 87.2949C399.162 87.2949 399.883 87.1016 400.527 86.7148C401.184 86.3281 401.693 85.8359 402.057 85.2383C402.42 84.6406 402.602 84.0488 402.602 83.4629V80.9844ZM427.439 89H420.514V88.1387C420.971 87.998 421.299 87.875 421.498 87.7695C421.697 87.6641 421.861 87.5176 421.99 87.3301C422.131 87.1426 422.236 86.8555 422.307 86.4688C422.389 86.0703 422.43 85.4727 422.43 84.6758V80.0703C422.43 79.25 422.406 78.5059 422.359 77.8379C422.312 77.1699 422.23 76.625 422.113 76.2031C422.008 75.7695 421.873 75.4355 421.709 75.2012C421.557 74.9551 421.369 74.75 421.146 74.5859C420.936 74.4102 420.689 74.2754 420.408 74.1816C420.127 74.0762 419.758 74.0234 419.301 74.0234C418.844 74.0234 418.41 74.1172 418 74.3047C417.59 74.4805 417.139 74.791 416.646 75.2363C416.154 75.6816 415.797 76.1211 415.574 76.5547C415.352 76.9883 415.24 77.4863 415.24 78.0488V84.6055C415.24 85.6133 415.287 86.3164 415.381 86.7148C415.475 87.1016 415.65 87.4004 415.908 87.6113C416.178 87.8105 416.611 87.9863 417.209 88.1387V89H410.318V88.1387C410.775 87.998 411.098 87.875 411.285 87.7695C411.484 87.6641 411.648 87.5176 411.777 87.3301C411.918 87.1426 412.023 86.8555 412.094 86.4688C412.176 86.082 412.217 85.4785 412.217 84.6582V76.9941C412.217 76.2441 412.205 75.6406 412.182 75.1836C412.158 74.7266 412.076 74.3633 411.936 74.0938C411.795 73.8125 411.578 73.6074 411.285 73.4785C411.004 73.3379 410.6 73.2207 410.072 73.127V72.1953L414.186 72.0371H415.258L415.064 74.9023L415.311 74.9727C416.178 74.0938 416.875 73.4668 417.402 73.0918C417.941 72.7168 418.48 72.4297 419.02 72.2305C419.57 72.0195 420.15 71.9141 420.76 71.9141C421.393 71.9141 421.955 71.9902 422.447 72.1426C422.951 72.2832 423.391 72.5059 423.766 72.8105C424.152 73.1152 424.469 73.4961 424.715 73.9531C424.961 74.3984 425.143 74.9375 425.26 75.5703C425.389 76.2031 425.453 77.0059 425.453 77.9785V84.6055C425.453 85.4141 425.477 86 425.523 86.3633C425.57 86.7266 425.652 87.0078 425.77 87.207C425.887 87.4062 426.057 87.5762 426.279 87.7168C426.502 87.8457 426.889 87.9863 427.439 88.1387V89ZM434.928 80.1055C434.928 84.207 435.584 87.5879 436.896 90.248C438.221 92.9082 440.236 94.6895 442.943 95.5918L442.521 96.9453C439.088 96.043 436.457 94.0977 434.629 91.1094C432.801 88.1328 431.887 84.5234 431.887 80.2812C431.887 76.0508 432.801 72.4414 434.629 69.4531C436.469 66.4531 439.1 64.502 442.521 63.5996L442.996 64.9531C440.254 65.8555 438.221 67.6191 436.896 70.2441C435.584 72.8574 434.928 76.1445 434.928 80.1055ZM452.805 90.4414C452.16 91.8945 451.533 93.0723 450.924 93.9746C450.314 94.877 449.641 95.5566 448.902 96.0137C448.176 96.4707 447.309 96.6992 446.301 96.6992C445.656 96.6992 444.93 96.623 444.121 96.4707V92.9902H445.686C445.826 93.4707 446.002 93.8047 446.213 93.9922C446.424 94.1797 446.729 94.2734 447.127 94.2734C447.479 94.2734 447.789 94.2031 448.059 94.0625C448.34 93.9336 448.627 93.7051 448.92 93.377C449.225 93.0488 449.576 92.5449 449.975 91.8652C450.385 91.1855 450.842 90.3242 451.346 89.2812L446.424 76.0449C446.107 75.1895 445.85 74.5918 445.65 74.252C445.463 73.9121 445.258 73.6543 445.035 73.4785C444.812 73.3027 444.473 73.1621 444.016 73.0566V72.1953H451.17V73.0566C450.619 73.1855 450.232 73.3145 450.01 73.4434C449.787 73.5605 449.623 73.7188 449.518 73.918C449.412 74.1055 449.359 74.3516 449.359 74.6562C449.359 74.9727 449.395 75.3008 449.465 75.6406C449.547 75.9805 449.67 76.3789 449.834 76.8359L452.963 85.6426L456.479 77.2051C456.678 76.7363 456.83 76.3086 456.936 75.9219C457.053 75.5234 457.111 75.1543 457.111 74.8145C457.111 74.3105 456.971 73.9297 456.689 73.6719C456.42 73.4141 455.945 73.209 455.266 73.0566V72.1953H461.84V73.0566C461.383 73.1504 461.031 73.2969 460.785 73.4961C460.539 73.6836 460.293 73.9883 460.047 74.4102C459.801 74.8203 459.508 75.4004 459.168 76.1504L452.805 90.4414ZM470.541 80.1055C470.541 76.1445 469.885 72.8574 468.572 70.2441C467.26 67.6191 465.227 65.8555 462.473 64.9531L462.947 63.5996C466.369 64.502 468.994 66.4531 470.822 69.4531C472.662 72.4414 473.582 76.0508 473.582 80.2812C473.582 84.5234 472.668 88.1328 470.84 91.1094C469.012 94.0977 466.381 96.043 462.947 96.9453L462.525 95.5918C465.232 94.6895 467.242 92.9082 468.555 90.248C469.879 87.5879 470.541 84.207 470.541 80.1055Z" fill="white"/>
</svg>
