<svg width="418" height="85" viewBox="0 0 418 85" fill="none" xmlns="http://www.w3.org/2000/svg">
<path d="M13.4824 39.0449H11.7949C11.5371 38.3418 11.2324 37.791 10.8809 37.3926C10.5293 36.9824 10.1309 36.6953 9.68555 36.5312C9.24023 36.3672 8.69531 36.2852 8.05078 36.2852C7.11328 36.2852 6.36328 36.5078 5.80078 36.9531C5.25 37.3867 4.97461 37.9844 4.97461 38.7461C4.97461 39.2852 5.08594 39.7305 5.30859 40.082C5.53125 40.4336 5.87695 40.7617 6.3457 41.0664C6.81445 41.3711 7.64062 41.7754 8.82422 42.2793C10.0195 42.7949 10.9395 43.2695 11.584 43.7031C12.2402 44.1367 12.75 44.6406 13.1133 45.2148C13.4883 45.7891 13.6758 46.4746 13.6758 47.2715C13.6758 48.1973 13.5176 48.9766 13.2012 49.6094C12.8848 50.2422 12.4395 50.7578 11.8652 51.1562C11.291 51.5547 10.6055 51.8418 9.80859 52.0176C9.02344 52.1934 8.16211 52.2812 7.22461 52.2812C6.24023 52.2812 5.28516 52.2051 4.35938 52.0527C3.43359 51.9121 2.53125 51.7246 1.65234 51.4902V47.8164H3.375C3.69141 48.8945 4.16016 49.6797 4.78125 50.1719C5.40234 50.6523 6.25781 50.8926 7.34766 50.8926C7.76953 50.8926 8.17969 50.8516 8.57812 50.7695C8.98828 50.6758 9.35156 50.5293 9.66797 50.3301C9.98438 50.1191 10.2363 49.8379 10.4238 49.4863C10.6113 49.1348 10.7051 48.6953 10.7051 48.168C10.7051 47.5703 10.5879 47.084 10.3535 46.709C10.1191 46.334 9.75586 45.9941 9.26367 45.6895C8.77148 45.373 7.9043 44.9512 6.66211 44.4238C5.5957 43.9785 4.74023 43.5449 4.0957 43.123C3.45117 42.7012 2.94141 42.2031 2.56641 41.6289C2.20312 41.0547 2.02148 40.375 2.02148 39.5898C2.02148 38.6289 2.2793 37.7969 2.79492 37.0938C3.32227 36.3789 4.07812 35.834 5.0625 35.459C6.04688 35.084 7.20117 34.8965 8.52539 34.8965C9.29883 34.8965 10.043 34.9375 10.7578 35.0195C11.4844 35.0898 12.3926 35.2363 13.4824 35.459V39.0449ZM22.2012 28.3047V31.7148H18.9668V28.3047H22.2012ZM17.1738 51.1387C17.6309 50.998 17.9531 50.875 18.1406 50.7695C18.3398 50.6641 18.5039 50.5176 18.6328 50.3301C18.7734 50.1426 18.8789 49.8555 18.9492 49.4688C19.0312 49.082 19.0723 48.4785 19.0723 47.6582V39.9941C19.0723 39.2441 19.0605 38.6406 19.0371 38.1836C19.0137 37.7266 18.9316 37.3633 18.791 37.0938C18.6504 36.8125 18.4336 36.6074 18.1406 36.4785C17.8594 36.3379 17.4551 36.2207 16.9277 36.127V35.1953L21.0234 35.0371H22.0957V47.6055C22.0957 48.6133 22.1426 49.3164 22.2363 49.7148C22.3301 50.1016 22.5059 50.4004 22.7637 50.6113C23.0332 50.8105 23.4668 50.9863 24.0645 51.1387V52H17.1738V51.1387ZM44.3145 52H37.3887V51.1387C37.8457 50.998 38.1738 50.875 38.373 50.7695C38.5723 50.6641 38.7363 50.5176 38.8652 50.3301C39.0059 50.1426 39.1113 49.8555 39.1816 49.4688C39.2637 49.0703 39.3047 48.4727 39.3047 47.6758V43.0703C39.3047 42.25 39.2812 41.5059 39.2344 40.8379C39.1875 40.1699 39.1055 39.625 38.9883 39.2031C38.8828 38.7695 38.748 38.4355 38.584 38.2012C38.4316 37.9551 38.2441 37.75 38.0215 37.5859C37.8105 37.4102 37.5645 37.2754 37.2832 37.1816C37.002 37.0762 36.6328 37.0234 36.1758 37.0234C35.7188 37.0234 35.2852 37.1172 34.875 37.3047C34.4648 37.4805 34.0137 37.791 33.5215 38.2363C33.0293 38.6816 32.6719 39.1211 32.4492 39.5547C32.2266 39.9883 32.1152 40.4863 32.1152 41.0488V47.6055C32.1152 48.6133 32.1621 49.3164 32.2559 49.7148C32.3496 50.1016 32.5254 50.4004 32.7832 50.6113C33.0527 50.8105 33.4863 50.9863 34.084 51.1387V52H27.1934V51.1387C27.6504 50.998 27.9727 50.875 28.1602 50.7695C28.3594 50.6641 28.5234 50.5176 28.6523 50.3301C28.793 50.1426 28.8984 49.8555 28.9688 49.4688C29.0508 49.082 29.0918 48.4785 29.0918 47.6582V39.9941C29.0918 39.2441 29.0801 38.6406 29.0566 38.1836C29.0332 37.7266 28.9512 37.3633 28.8105 37.0938C28.6699 36.8125 28.4531 36.6074 28.1602 36.4785C27.8789 36.3379 27.4746 36.2207 26.9473 36.127V35.1953L31.0605 35.0371H32.1328L31.9395 37.9023L32.1855 37.9727C33.0527 37.0938 33.75 36.4668 34.2773 36.0918C34.8164 35.7168 35.3555 35.4297 35.8945 35.2305C36.4453 35.0195 37.0254 34.9141 37.6348 34.9141C38.2676 34.9141 38.8301 34.9902 39.3223 35.1426C39.8262 35.2832 40.2656 35.5059 40.6406 35.8105C41.0273 36.1152 41.3438 36.4961 41.5898 36.9531C41.8359 37.3984 42.0176 37.9375 42.1348 38.5703C42.2637 39.2031 42.3281 40.0059 42.3281 40.9785V47.6055C42.3281 48.4141 42.3516 49 42.3984 49.3633C42.4453 49.7266 42.5273 50.0078 42.6445 50.207C42.7617 50.4062 42.9316 50.5762 43.1543 50.7168C43.377 50.8457 43.7637 50.9863 44.3145 51.1387V52ZM54.4922 35.4414C54.9023 35.4414 55.2129 35.4238 55.4238 35.3887C55.6465 35.3418 55.8223 35.2773 55.9512 35.1953C56.0801 35.1133 56.1855 35.0078 56.2676 34.8789C56.3613 34.75 56.4961 34.4688 56.6719 34.0352H57.8848L57.6387 37.4277H47.3379V36.7598C47.7363 35.9043 48.2754 35.0605 48.9551 34.2285C49.6348 33.3965 50.4316 32.541 51.3457 31.6621C52.4355 30.6191 53.209 29.834 53.666 29.3066C54.123 28.7676 54.4629 28.2637 54.6855 27.7949C54.9082 27.3145 55.0195 26.834 55.0195 26.3535C55.0195 25.5566 54.791 24.9297 54.334 24.4727C53.8887 24.0156 53.2441 23.7871 52.4004 23.7871C51.6738 23.7871 51.0527 23.9805 50.5371 24.3672C50.0332 24.7539 49.6465 25.3223 49.377 26.0723H47.707V23.6992C48.75 23.2773 49.7109 22.9785 50.5898 22.8027C51.4688 22.6152 52.248 22.5215 52.9277 22.5215C53.8535 22.5215 54.6152 22.6211 55.2129 22.8203C55.8223 23.0195 56.3086 23.2832 56.6719 23.6113C57.0352 23.9277 57.2871 24.3027 57.4277 24.7363C57.5801 25.1699 57.6562 25.6152 57.6562 26.0723C57.6562 26.6465 57.5391 27.1855 57.3047 27.6895C57.0703 28.1816 56.6836 28.7207 56.1445 29.3066C55.6172 29.8809 54.6738 30.7832 53.3145 32.0137C51.8613 33.3379 50.8066 34.4805 50.1504 35.4414H54.4922ZM66.4629 43.1055C66.4629 47.207 67.1191 50.5879 68.4316 53.248C69.7559 55.9082 71.7715 57.6895 74.4785 58.5918L74.0566 59.9453C70.623 59.043 67.9922 57.0977 66.1641 54.1094C64.3359 51.1328 63.4219 47.5234 63.4219 43.2812C63.4219 39.0508 64.3359 35.4414 66.1641 32.4531C68.0039 29.4531 70.6348 27.502 74.0566 26.5996L74.5312 27.9531C71.7891 28.8555 69.7559 30.6191 68.4316 33.2441C67.1191 35.8574 66.4629 39.1445 66.4629 43.1055ZM84.3398 41.8574L86.625 38.957C86.8711 38.6406 87.0703 38.3359 87.2227 38.043C87.375 37.7383 87.4512 37.4277 87.4512 37.1113C87.4512 36.8418 87.3516 36.6191 87.1523 36.4434C86.9531 36.2676 86.6426 36.1387 86.2207 36.0566V35.1953H91.9688V36.0566C91.5234 36.1855 91.0664 36.4375 90.5977 36.8125C90.1406 37.1875 89.5781 37.791 88.9102 38.623L85.2715 43.0879L89.2793 48.4844C89.8535 49.2578 90.3691 49.8496 90.8262 50.2598C91.2832 50.6699 91.7402 50.9629 92.1973 51.1387V52H85.1309V51.1387C86.1035 51.0215 86.5898 50.6582 86.5898 50.0488C86.5898 49.8027 86.5488 49.5684 86.4668 49.3457C86.3848 49.123 86.2324 48.8652 86.0098 48.5723L83.4609 45.0215L80.7539 48.5371C80.5547 48.7949 80.3965 49.0352 80.2793 49.2578C80.1738 49.4688 80.1211 49.709 80.1211 49.9785C80.1211 50.2949 80.2266 50.5586 80.4375 50.7695C80.6602 50.9688 81.0059 51.0918 81.4746 51.1387V52H75.6035V51.1387C75.9902 50.998 76.3359 50.8223 76.6406 50.6113C76.957 50.4004 77.2734 50.1309 77.5898 49.8027C77.918 49.4629 78.3457 48.9707 78.873 48.3262L82.5293 43.791L78.7852 38.6582C78.2695 37.9551 77.8594 37.4453 77.5547 37.1289C77.25 36.8125 76.9688 36.5723 76.7109 36.4082C76.4531 36.2441 76.1953 36.127 75.9375 36.0566V35.1953H82.8281V36.0566C81.9023 36.1973 81.4395 36.5605 81.4395 37.1465C81.4395 37.416 81.498 37.6855 81.6152 37.9551C81.7441 38.2246 81.9375 38.5234 82.1953 38.8516L84.3398 41.8574ZM101.338 43.1055C101.338 39.1445 100.682 35.8574 99.3691 33.2441C98.0566 30.6191 96.0234 28.8555 93.2695 27.9531L93.7441 26.5996C97.166 27.502 99.791 29.4531 101.619 32.4531C103.459 35.4414 104.379 39.0508 104.379 43.2812C104.379 47.5234 103.465 51.1328 101.637 54.1094C99.8086 57.0977 97.1777 59.043 93.7441 59.9453L93.3223 58.5918C96.0293 57.6895 98.0391 55.9082 99.3516 53.248C100.676 50.5879 101.338 47.207 101.338 43.1055ZM118.107 39.2383V36.9004H139.764V39.2383H118.107ZM118.107 46.5332V44.1953H139.764V46.5332H118.107ZM228.041 43.1055C228.041 47.207 228.697 50.5879 230.01 53.248C231.334 55.9082 233.35 57.6895 236.057 58.5918L235.635 59.9453C232.201 59.043 229.57 57.0977 227.742 54.1094C225.914 51.1328 225 47.5234 225 43.2812C225 39.0508 225.914 35.4414 227.742 32.4531C229.582 29.4531 232.213 27.502 235.635 26.5996L236.109 27.9531C233.367 28.8555 231.334 30.6191 230.01 33.2441C228.697 35.8574 228.041 39.1445 228.041 43.1055ZM248.994 47.4121C248.994 48.0918 249.029 48.6074 249.1 48.959C249.182 49.2988 249.316 49.5801 249.504 49.8027C249.703 50.0137 249.984 50.1836 250.348 50.3125C250.711 50.4297 251.168 50.5234 251.719 50.5938C252.27 50.6523 252.996 50.6934 253.898 50.7168V52H240.908V50.7168C242.209 50.6582 243.135 50.582 243.686 50.4883C244.248 50.3828 244.676 50.2305 244.969 50.0312C245.262 49.832 245.473 49.5508 245.602 49.1875C245.742 48.8242 245.812 48.2324 245.812 47.4121V33.1562C245.812 32.6875 245.73 32.3477 245.566 32.1367C245.402 31.9141 245.162 31.8027 244.846 31.8027C244.471 31.8027 243.938 31.9961 243.246 32.3828C242.555 32.7695 241.699 33.3027 240.68 33.9824L239.906 32.6289L248.133 27.7246H249.1C249.029 28.8496 248.994 30.4082 248.994 32.4004V47.4121ZM274.711 44.1074H266.555V41.3828H274.711V44.1074ZM299.355 35.5996V39.2734H297.123C296.924 38.5117 296.678 37.9141 296.385 37.4805C296.092 37.0352 295.752 36.7246 295.365 36.5488C294.979 36.373 294.498 36.2852 293.924 36.2852C293.104 36.2852 292.377 36.5488 291.744 37.0762C291.111 37.6035 290.607 38.4062 290.232 39.4844C289.869 40.5625 289.688 41.8809 289.688 43.4395C289.688 44.4355 289.758 45.3496 289.898 46.1816C290.039 47.002 290.279 47.7051 290.619 48.291C290.959 48.877 291.41 49.334 291.973 49.6621C292.535 49.9902 293.232 50.1543 294.064 50.1543C294.873 50.1543 295.623 49.9961 296.314 49.6797C297.018 49.3633 297.744 48.8066 298.494 48.0098L299.496 49.1699C298.898 49.8262 298.371 50.3359 297.914 50.6992C297.457 51.0508 296.965 51.3496 296.438 51.5957C295.922 51.8301 295.406 52 294.891 52.1055C294.387 52.2227 293.836 52.2812 293.238 52.2812C291.023 52.2812 289.33 51.5488 288.158 50.084C286.986 48.6074 286.4 46.4805 286.4 43.7031C286.4 41.9688 286.729 40.4336 287.385 39.0977C288.041 37.75 288.961 36.7129 290.145 35.9863C291.328 35.2598 292.693 34.8965 294.24 34.8965C295.201 34.8965 296.086 34.9551 296.895 35.0723C297.715 35.1777 298.535 35.3535 299.355 35.5996ZM309.797 52.2812C307.359 52.2812 305.496 51.5664 304.207 50.1367C302.93 48.6953 302.291 46.5684 302.291 43.7559C302.291 41.8223 302.625 40.1875 303.293 38.8516C303.973 37.5156 304.898 36.5254 306.07 35.8809C307.242 35.2246 308.578 34.8965 310.078 34.8965C312.586 34.8965 314.484 35.6289 315.773 37.0938C317.062 38.5469 317.707 40.6387 317.707 43.3691C317.707 45.3145 317.385 46.9551 316.74 48.291C316.096 49.627 315.182 50.6289 313.998 51.2969C312.814 51.9531 311.414 52.2812 309.797 52.2812ZM305.613 43.3867C305.613 45.8008 305.994 47.6582 306.756 48.959C307.529 50.248 308.631 50.8926 310.061 50.8926C310.846 50.8926 311.514 50.7051 312.064 50.3301C312.615 49.9434 313.061 49.4277 313.4 48.7832C313.752 48.1387 314.004 47.3945 314.156 46.5508C314.309 45.6953 314.385 44.8047 314.385 43.8789C314.385 42.1562 314.191 40.7266 313.805 39.5898C313.43 38.4531 312.914 37.6211 312.258 37.0938C311.602 36.5547 310.852 36.2852 310.008 36.2852C308.59 36.2852 307.5 36.9004 306.738 38.1309C305.988 39.3613 305.613 41.1133 305.613 43.3867ZM333.053 39.0449H331.365C331.107 38.3418 330.803 37.791 330.451 37.3926C330.1 36.9824 329.701 36.6953 329.256 36.5312C328.811 36.3672 328.266 36.2852 327.621 36.2852C326.684 36.2852 325.934 36.5078 325.371 36.9531C324.82 37.3867 324.545 37.9844 324.545 38.7461C324.545 39.2852 324.656 39.7305 324.879 40.082C325.102 40.4336 325.447 40.7617 325.916 41.0664C326.385 41.3711 327.211 41.7754 328.395 42.2793C329.59 42.7949 330.51 43.2695 331.154 43.7031C331.811 44.1367 332.32 44.6406 332.684 45.2148C333.059 45.7891 333.246 46.4746 333.246 47.2715C333.246 48.1973 333.088 48.9766 332.771 49.6094C332.455 50.2422 332.01 50.7578 331.436 51.1562C330.861 51.5547 330.176 51.8418 329.379 52.0176C328.594 52.1934 327.732 52.2812 326.795 52.2812C325.811 52.2812 324.855 52.2051 323.93 52.0527C323.004 51.9121 322.102 51.7246 321.223 51.4902V47.8164H322.945C323.262 48.8945 323.73 49.6797 324.352 50.1719C324.973 50.6523 325.828 50.8926 326.918 50.8926C327.34 50.8926 327.75 50.8516 328.148 50.7695C328.559 50.6758 328.922 50.5293 329.238 50.3301C329.555 50.1191 329.807 49.8379 329.994 49.4863C330.182 49.1348 330.275 48.6953 330.275 48.168C330.275 47.5703 330.158 47.084 329.924 46.709C329.689 46.334 329.326 45.9941 328.834 45.6895C328.342 45.373 327.475 44.9512 326.232 44.4238C325.166 43.9785 324.311 43.5449 323.666 43.123C323.021 42.7012 322.512 42.2031 322.137 41.6289C321.773 41.0547 321.592 40.375 321.592 39.5898C321.592 38.6289 321.85 37.7969 322.365 37.0938C322.893 36.3789 323.648 35.834 324.633 35.459C325.617 35.084 326.771 34.8965 328.096 34.8965C328.869 34.8965 329.613 34.9375 330.328 35.0195C331.055 35.0898 331.963 35.2363 333.053 35.459V39.0449ZM341.244 43.1055C341.244 47.207 341.9 50.5879 343.213 53.248C344.537 55.9082 346.553 57.6895 349.26 58.5918L348.838 59.9453C345.404 59.043 342.773 57.0977 340.945 54.1094C339.117 51.1328 338.203 47.5234 338.203 43.2812C338.203 39.0508 339.117 35.4414 340.945 32.4531C342.785 29.4531 345.416 27.502 348.838 26.5996L349.312 27.9531C346.57 28.8555 344.537 30.6191 343.213 33.2441C341.9 35.8574 341.244 39.1445 341.244 43.1055ZM362.32 49.1875C362.895 49.1875 363.357 49.1523 363.709 49.082C364.061 49.0117 364.342 48.8945 364.553 48.7305C364.764 48.5664 364.928 48.3555 365.045 48.0977C365.174 47.8281 365.332 47.418 365.52 46.8672H367.014L366.715 52H352.248V51.1562C352.752 49.9258 353.432 48.666 354.287 47.377C355.143 46.0879 356.355 44.5703 357.926 42.8242C359.285 41.3242 360.264 40.1875 360.861 39.4141C361.518 38.5703 362.004 37.8438 362.32 37.2344C362.648 36.6133 362.883 36.0332 363.023 35.4941C363.164 34.9434 363.234 34.3926 363.234 33.8418C363.234 32.9629 363.094 32.1895 362.812 31.5215C362.531 30.8418 362.098 30.3086 361.512 29.9219C360.938 29.5352 360.211 29.3418 359.332 29.3418C357.141 29.3418 355.664 30.5605 354.902 32.998H352.775V29.623C354.193 28.9551 355.518 28.4746 356.748 28.1816C357.99 27.877 359.104 27.7246 360.088 27.7246C362.268 27.7246 363.914 28.2051 365.027 29.166C366.141 30.1152 366.697 31.498 366.697 33.3145C366.697 33.9355 366.633 34.5098 366.504 35.0371C366.387 35.5527 366.193 36.0684 365.924 36.584C365.666 37.0879 365.314 37.6328 364.869 38.2188C364.424 38.8047 363.932 39.4023 363.393 40.0117C362.854 40.6094 361.922 41.6113 360.598 43.0176C358.371 45.373 356.736 47.4297 355.693 49.1875H362.32ZM379.055 41.8574L381.34 38.957C381.586 38.6406 381.785 38.3359 381.938 38.043C382.09 37.7383 382.166 37.4277 382.166 37.1113C382.166 36.8418 382.066 36.6191 381.867 36.4434C381.668 36.2676 381.357 36.1387 380.936 36.0566V35.1953H386.684V36.0566C386.238 36.1855 385.781 36.4375 385.312 36.8125C384.855 37.1875 384.293 37.791 383.625 38.623L379.986 43.0879L383.994 48.4844C384.568 49.2578 385.084 49.8496 385.541 50.2598C385.998 50.6699 386.455 50.9629 386.912 51.1387V52H379.846V51.1387C380.818 51.0215 381.305 50.6582 381.305 50.0488C381.305 49.8027 381.264 49.5684 381.182 49.3457C381.1 49.123 380.947 48.8652 380.725 48.5723L378.176 45.0215L375.469 48.5371C375.27 48.7949 375.111 49.0352 374.994 49.2578C374.889 49.4688 374.836 49.709 374.836 49.9785C374.836 50.2949 374.941 50.5586 375.152 50.7695C375.375 50.9688 375.721 51.0918 376.189 51.1387V52H370.318V51.1387C370.705 50.998 371.051 50.8223 371.355 50.6113C371.672 50.4004 371.988 50.1309 372.305 49.8027C372.633 49.4629 373.061 48.9707 373.588 48.3262L377.244 43.791L373.5 38.6582C372.984 37.9551 372.574 37.4453 372.27 37.1289C371.965 36.8125 371.684 36.5723 371.426 36.4082C371.168 36.2441 370.91 36.127 370.652 36.0566V35.1953H377.543V36.0566C376.617 36.1973 376.154 36.5605 376.154 37.1465C376.154 37.416 376.213 37.6855 376.33 37.9551C376.459 38.2246 376.652 38.5234 376.91 38.8516L379.055 41.8574ZM396.053 43.1055C396.053 39.1445 395.396 35.8574 394.084 33.2441C392.771 30.6191 390.738 28.8555 387.984 27.9531L388.459 26.5996C391.881 27.502 394.506 29.4531 396.334 32.4531C398.174 35.4414 399.094 39.0508 399.094 43.2812C399.094 47.5234 398.18 51.1328 396.352 54.1094C394.523 57.0977 391.893 59.043 388.459 59.9453L388.037 58.5918C390.744 57.6895 392.754 55.9082 394.066 53.248C395.391 50.5879 396.053 47.207 396.053 43.1055ZM410.994 43.1055C410.994 39.1445 410.338 35.8574 409.025 33.2441C407.713 30.6191 405.68 28.8555 402.926 27.9531L403.4 26.5996C406.822 27.502 409.447 29.4531 411.275 32.4531C413.115 35.4414 414.035 39.0508 414.035 43.2812C414.035 47.5234 413.121 51.1328 411.293 54.1094C409.465 57.0977 406.834 59.043 403.4 59.9453L402.979 58.5918C405.686 57.6895 407.695 55.9082 409.008 53.248C410.332 50.5879 410.994 47.207 410.994 43.1055Z" fill="white"/>
<line x1="162" y1="41" x2="212" y2="41" stroke="white" stroke-width="2"/>
<path d="M190.217 26.4121C190.217 27.0918 190.252 27.6074 190.322 27.959C190.404 28.2988 190.539 28.5801 190.727 28.8027C190.926 29.0137 191.207 29.1836 191.57 29.3125C191.934 29.4297 192.391 29.5234 192.941 29.5938C193.492 29.6523 194.219 29.6934 195.121 29.7168V31H182.131V29.7168C183.432 29.6582 184.357 29.582 184.908 29.4883C185.471 29.3828 185.898 29.2305 186.191 29.0312C186.484 28.832 186.695 28.5508 186.824 28.1875C186.965 27.8242 187.035 27.2324 187.035 26.4121V12.1562C187.035 11.6875 186.953 11.3477 186.789 11.1367C186.625 10.9141 186.385 10.8027 186.068 10.8027C185.693 10.8027 185.16 10.9961 184.469 11.3828C183.777 11.7695 182.922 12.3027 181.902 12.9824L181.129 11.6289L189.355 6.72461H190.322C190.252 7.84961 190.217 9.4082 190.217 11.4004V26.4121Z" fill="white"/>
<path d="M190.34 71.1875C190.914 71.1875 191.377 71.1523 191.729 71.082C192.08 71.0117 192.361 70.8945 192.572 70.7305C192.783 70.5664 192.947 70.3555 193.064 70.0977C193.193 69.8281 193.352 69.418 193.539 68.8672H195.033L194.734 74H180.268V73.1562C180.771 71.9258 181.451 70.666 182.307 69.377C183.162 68.0879 184.375 66.5703 185.945 64.8242C187.305 63.3242 188.283 62.1875 188.881 61.4141C189.537 60.5703 190.023 59.8438 190.34 59.2344C190.668 58.6133 190.902 58.0332 191.043 57.4941C191.184 56.9434 191.254 56.3926 191.254 55.8418C191.254 54.9629 191.113 54.1895 190.832 53.5215C190.551 52.8418 190.117 52.3086 189.531 51.9219C188.957 51.5352 188.23 51.3418 187.352 51.3418C185.16 51.3418 183.684 52.5605 182.922 54.998H180.795V51.623C182.213 50.9551 183.537 50.4746 184.768 50.1816C186.01 49.877 187.123 49.7246 188.107 49.7246C190.287 49.7246 191.934 50.2051 193.047 51.166C194.16 52.1152 194.717 53.498 194.717 55.3145C194.717 55.9355 194.652 56.5098 194.523 57.0371C194.406 57.5527 194.213 58.0684 193.943 58.584C193.686 59.0879 193.334 59.6328 192.889 60.2188C192.443 60.8047 191.951 61.4023 191.412 62.0117C190.873 62.6094 189.941 63.6113 188.617 65.0176C186.391 67.373 184.756 69.4297 183.713 71.1875H190.34Z" fill="white"/>
</svg>
