<svg width="438" height="85" viewBox="0 0 438 85" fill="none" xmlns="http://www.w3.org/2000/svg">
<path d="M14.8008 35.5996V39.2734H12.5684C12.3691 38.5117 12.123 37.9141 11.8301 37.4805C11.5371 37.0352 11.1973 36.7246 10.8105 36.5488C10.4238 36.373 9.94336 36.2852 9.36914 36.2852C8.54883 36.2852 7.82227 36.5488 7.18945 37.0762C6.55664 37.6035 6.05273 38.4062 5.67773 39.4844C5.31445 40.5625 5.13281 41.8809 5.13281 43.4395C5.13281 44.4355 5.20312 45.3496 5.34375 46.1816C5.48438 47.002 5.72461 47.7051 6.06445 48.291C6.4043 48.877 6.85547 49.334 7.41797 49.6621C7.98047 49.9902 8.67773 50.1543 9.50977 50.1543C10.3184 50.1543 11.0684 49.9961 11.7598 49.6797C12.4629 49.3633 13.1895 48.8066 13.9395 48.0098L14.9414 49.1699C14.3438 49.8262 13.8164 50.3359 13.3594 50.6992C12.9023 51.0508 12.4102 51.3496 11.8828 51.5957C11.3672 51.8301 10.8516 52 10.3359 52.1055C9.83203 52.2227 9.28125 52.2812 8.68359 52.2812C6.46875 52.2812 4.77539 51.5488 3.60352 50.084C2.43164 48.6074 1.8457 46.4805 1.8457 43.7031C1.8457 41.9688 2.17383 40.4336 2.83008 39.0977C3.48633 37.75 4.40625 36.7129 5.58984 35.9863C6.77344 35.2598 8.13867 34.8965 9.68555 34.8965C10.6465 34.8965 11.5312 34.9551 12.3398 35.0723C13.1602 35.1777 13.9805 35.3535 14.8008 35.5996ZM25.2422 52.2812C22.8047 52.2812 20.9414 51.5664 19.6523 50.1367C18.375 48.6953 17.7363 46.5684 17.7363 43.7559C17.7363 41.8223 18.0703 40.1875 18.7383 38.8516C19.418 37.5156 20.3438 36.5254 21.5156 35.8809C22.6875 35.2246 24.0234 34.8965 25.5234 34.8965C28.0312 34.8965 29.9297 35.6289 31.2188 37.0938C32.5078 38.5469 33.1523 40.6387 33.1523 43.3691C33.1523 45.3145 32.8301 46.9551 32.1855 48.291C31.541 49.627 30.627 50.6289 29.4434 51.2969C28.2598 51.9531 26.8594 52.2812 25.2422 52.2812ZM21.0586 43.3867C21.0586 45.8008 21.4395 47.6582 22.2012 48.959C22.9746 50.248 24.0762 50.8926 25.5059 50.8926C26.291 50.8926 26.959 50.7051 27.5098 50.3301C28.0605 49.9434 28.5059 49.4277 28.8457 48.7832C29.1973 48.1387 29.4492 47.3945 29.6016 46.5508C29.7539 45.6953 29.8301 44.8047 29.8301 43.8789C29.8301 42.1562 29.6367 40.7266 29.25 39.5898C28.875 38.4531 28.3594 37.6211 27.7031 37.0938C27.0469 36.5547 26.2969 36.2852 25.4531 36.2852C24.0352 36.2852 22.9453 36.9004 22.1836 38.1309C21.4336 39.3613 21.0586 41.1133 21.0586 43.3867ZM48.498 39.0449H46.8105C46.5527 38.3418 46.248 37.791 45.8965 37.3926C45.5449 36.9824 45.1465 36.6953 44.7012 36.5312C44.2559 36.3672 43.7109 36.2852 43.0664 36.2852C42.1289 36.2852 41.3789 36.5078 40.8164 36.9531C40.2656 37.3867 39.9902 37.9844 39.9902 38.7461C39.9902 39.2852 40.1016 39.7305 40.3242 40.082C40.5469 40.4336 40.8926 40.7617 41.3613 41.0664C41.8301 41.3711 42.6562 41.7754 43.8398 42.2793C45.0352 42.7949 45.9551 43.2695 46.5996 43.7031C47.2559 44.1367 47.7656 44.6406 48.1289 45.2148C48.5039 45.7891 48.6914 46.4746 48.6914 47.2715C48.6914 48.1973 48.5332 48.9766 48.2168 49.6094C47.9004 50.2422 47.4551 50.7578 46.8809 51.1562C46.3066 51.5547 45.6211 51.8418 44.8242 52.0176C44.0391 52.1934 43.1777 52.2812 42.2402 52.2812C41.2559 52.2812 40.3008 52.2051 39.375 52.0527C38.4492 51.9121 37.5469 51.7246 36.668 51.4902V47.8164H38.3906C38.707 48.8945 39.1758 49.6797 39.7969 50.1719C40.418 50.6523 41.2734 50.8926 42.3633 50.8926C42.7852 50.8926 43.1953 50.8516 43.5938 50.7695C44.0039 50.6758 44.3672 50.5293 44.6836 50.3301C45 50.1191 45.252 49.8379 45.4395 49.4863C45.627 49.1348 45.7207 48.6953 45.7207 48.168C45.7207 47.5703 45.6035 47.084 45.3691 46.709C45.1348 46.334 44.7715 45.9941 44.2793 45.6895C43.7871 45.373 42.9199 44.9512 41.6777 44.4238C40.6113 43.9785 39.7559 43.5449 39.1113 43.123C38.4668 42.7012 37.957 42.2031 37.582 41.6289C37.2188 41.0547 37.0371 40.375 37.0371 39.5898C37.0371 38.6289 37.2949 37.7969 37.8105 37.0938C38.3379 36.3789 39.0938 35.834 40.0781 35.459C41.0625 35.084 42.2168 34.8965 43.541 34.8965C44.3145 34.8965 45.0586 34.9375 45.7734 35.0195C46.5 35.0898 47.4082 35.2363 48.498 35.459V39.0449ZM59.3789 35.4414C59.7891 35.4414 60.0996 35.4238 60.3105 35.3887C60.5332 35.3418 60.709 35.2773 60.8379 35.1953C60.9668 35.1133 61.0723 35.0078 61.1543 34.8789C61.248 34.75 61.3828 34.4688 61.5586 34.0352H62.7715L62.5254 37.4277H52.2246V36.7598C52.623 35.9043 53.1621 35.0605 53.8418 34.2285C54.5215 33.3965 55.3184 32.541 56.2324 31.6621C57.3223 30.6191 58.0957 29.834 58.5527 29.3066C59.0098 28.7676 59.3496 28.2637 59.5723 27.7949C59.7949 27.3145 59.9062 26.834 59.9062 26.3535C59.9062 25.5566 59.6777 24.9297 59.2207 24.4727C58.7754 24.0156 58.1309 23.7871 57.2871 23.7871C56.5605 23.7871 55.9395 23.9805 55.4238 24.3672C54.9199 24.7539 54.5332 25.3223 54.2637 26.0723H52.5938V23.6992C53.6367 23.2773 54.5977 22.9785 55.4766 22.8027C56.3555 22.6152 57.1348 22.5215 57.8145 22.5215C58.7402 22.5215 59.502 22.6211 60.0996 22.8203C60.709 23.0195 61.1953 23.2832 61.5586 23.6113C61.9219 23.9277 62.1738 24.3027 62.3145 24.7363C62.4668 25.1699 62.543 25.6152 62.543 26.0723C62.543 26.6465 62.4258 27.1855 62.1914 27.6895C61.957 28.1816 61.5703 28.7207 61.0312 29.3066C60.5039 29.8809 59.5605 30.7832 58.2012 32.0137C56.748 33.3379 55.6934 34.4805 55.0371 35.4414H59.3789ZM71.3496 43.1055C71.3496 47.207 72.0059 50.5879 73.3184 53.248C74.6426 55.9082 76.6582 57.6895 79.3652 58.5918L78.9434 59.9453C75.5098 59.043 72.8789 57.0977 71.0508 54.1094C69.2227 51.1328 68.3086 47.5234 68.3086 43.2812C68.3086 39.0508 69.2227 35.4414 71.0508 32.4531C72.8906 29.4531 75.5215 27.502 78.9434 26.5996L79.418 27.9531C76.6758 28.8555 74.6426 30.6191 73.3184 33.2441C72.0059 35.8574 71.3496 39.1445 71.3496 43.1055ZM89.2266 41.8574L91.5117 38.957C91.7578 38.6406 91.957 38.3359 92.1094 38.043C92.2617 37.7383 92.3379 37.4277 92.3379 37.1113C92.3379 36.8418 92.2383 36.6191 92.0391 36.4434C91.8398 36.2676 91.5293 36.1387 91.1074 36.0566V35.1953H96.8555V36.0566C96.4102 36.1855 95.9531 36.4375 95.4844 36.8125C95.0273 37.1875 94.4648 37.791 93.7969 38.623L90.1582 43.0879L94.166 48.4844C94.7402 49.2578 95.2559 49.8496 95.7129 50.2598C96.1699 50.6699 96.627 50.9629 97.084 51.1387V52H90.0176V51.1387C90.9902 51.0215 91.4766 50.6582 91.4766 50.0488C91.4766 49.8027 91.4355 49.5684 91.3535 49.3457C91.2715 49.123 91.1191 48.8652 90.8965 48.5723L88.3477 45.0215L85.6406 48.5371C85.4414 48.7949 85.2832 49.0352 85.166 49.2578C85.0605 49.4688 85.0078 49.709 85.0078 49.9785C85.0078 50.2949 85.1133 50.5586 85.3242 50.7695C85.5469 50.9688 85.8926 51.0918 86.3613 51.1387V52H80.4902V51.1387C80.877 50.998 81.2227 50.8223 81.5273 50.6113C81.8438 50.4004 82.1602 50.1309 82.4766 49.8027C82.8047 49.4629 83.2324 48.9707 83.7598 48.3262L87.416 43.791L83.6719 38.6582C83.1562 37.9551 82.7461 37.4453 82.4414 37.1289C82.1367 36.8125 81.8555 36.5723 81.5977 36.4082C81.3398 36.2441 81.082 36.127 80.8242 36.0566V35.1953H87.7148V36.0566C86.7891 36.1973 86.3262 36.5605 86.3262 37.1465C86.3262 37.416 86.3848 37.6855 86.502 37.9551C86.6309 38.2246 86.8242 38.5234 87.082 38.8516L89.2266 41.8574ZM106.225 43.1055C106.225 39.1445 105.568 35.8574 104.256 33.2441C102.943 30.6191 100.91 28.8555 98.1562 27.9531L98.6309 26.5996C102.053 27.502 104.678 29.4531 106.506 32.4531C108.346 35.4414 109.266 39.0508 109.266 43.2812C109.266 47.5234 108.352 51.1328 106.523 54.1094C104.695 57.0977 102.064 59.043 98.6309 59.9453L98.209 58.5918C100.916 57.6895 102.926 55.9082 104.238 53.248C105.562 50.5879 106.225 47.207 106.225 43.1055ZM122.994 39.2383V36.9004H144.65V39.2383H122.994ZM122.994 46.5332V44.1953H144.65V46.5332H122.994ZM232.928 43.1055C232.928 47.207 233.584 50.5879 234.896 53.248C236.221 55.9082 238.236 57.6895 240.943 58.5918L240.521 59.9453C237.088 59.043 234.457 57.0977 232.629 54.1094C230.801 51.1328 229.887 47.5234 229.887 43.2812C229.887 39.0508 230.801 35.4414 232.629 32.4531C234.469 29.4531 237.1 27.502 240.521 26.5996L240.996 27.9531C238.254 28.8555 236.221 30.6191 234.896 33.2441C233.584 35.8574 232.928 39.1445 232.928 43.1055ZM253.881 47.4121C253.881 48.0918 253.916 48.6074 253.986 48.959C254.068 49.2988 254.203 49.5801 254.391 49.8027C254.59 50.0137 254.871 50.1836 255.234 50.3125C255.598 50.4297 256.055 50.5234 256.605 50.5938C257.156 50.6523 257.883 50.6934 258.785 50.7168V52H245.795V50.7168C247.096 50.6582 248.021 50.582 248.572 50.4883C249.135 50.3828 249.562 50.2305 249.855 50.0312C250.148 49.832 250.359 49.5508 250.488 49.1875C250.629 48.8242 250.699 48.2324 250.699 47.4121V33.1562C250.699 32.6875 250.617 32.3477 250.453 32.1367C250.289 31.9141 250.049 31.8027 249.732 31.8027C249.357 31.8027 248.824 31.9961 248.133 32.3828C247.441 32.7695 246.586 33.3027 245.566 33.9824L244.793 32.6289L253.02 27.7246H253.986C253.916 28.8496 253.881 30.4082 253.881 32.4004V47.4121ZM284.238 42.877V53.002H281.742V42.877H272.162V40.5391H281.742V30.4141H284.238V40.5391H293.818V42.877H284.238ZM319.184 35.5996V39.2734H316.951C316.752 38.5117 316.506 37.9141 316.213 37.4805C315.92 37.0352 315.58 36.7246 315.193 36.5488C314.807 36.373 314.326 36.2852 313.752 36.2852C312.932 36.2852 312.205 36.5488 311.572 37.0762C310.939 37.6035 310.436 38.4062 310.061 39.4844C309.697 40.5625 309.516 41.8809 309.516 43.4395C309.516 44.4355 309.586 45.3496 309.727 46.1816C309.867 47.002 310.107 47.7051 310.447 48.291C310.787 48.877 311.238 49.334 311.801 49.6621C312.363 49.9902 313.061 50.1543 313.893 50.1543C314.701 50.1543 315.451 49.9961 316.143 49.6797C316.846 49.3633 317.572 48.8066 318.322 48.0098L319.324 49.1699C318.727 49.8262 318.199 50.3359 317.742 50.6992C317.285 51.0508 316.793 51.3496 316.266 51.5957C315.75 51.8301 315.234 52 314.719 52.1055C314.215 52.2227 313.664 52.2812 313.066 52.2812C310.852 52.2812 309.158 51.5488 307.986 50.084C306.814 48.6074 306.229 46.4805 306.229 43.7031C306.229 41.9688 306.557 40.4336 307.213 39.0977C307.869 37.75 308.789 36.7129 309.973 35.9863C311.156 35.2598 312.521 34.8965 314.068 34.8965C315.029 34.8965 315.914 34.9551 316.723 35.0723C317.543 35.1777 318.363 35.3535 319.184 35.5996ZM329.625 52.2812C327.188 52.2812 325.324 51.5664 324.035 50.1367C322.758 48.6953 322.119 46.5684 322.119 43.7559C322.119 41.8223 322.453 40.1875 323.121 38.8516C323.801 37.5156 324.727 36.5254 325.898 35.8809C327.07 35.2246 328.406 34.8965 329.906 34.8965C332.414 34.8965 334.312 35.6289 335.602 37.0938C336.891 38.5469 337.535 40.6387 337.535 43.3691C337.535 45.3145 337.213 46.9551 336.568 48.291C335.924 49.627 335.01 50.6289 333.826 51.2969C332.643 51.9531 331.242 52.2812 329.625 52.2812ZM325.441 43.3867C325.441 45.8008 325.822 47.6582 326.584 48.959C327.357 50.248 328.459 50.8926 329.889 50.8926C330.674 50.8926 331.342 50.7051 331.893 50.3301C332.443 49.9434 332.889 49.4277 333.229 48.7832C333.58 48.1387 333.832 47.3945 333.984 46.5508C334.137 45.6953 334.213 44.8047 334.213 43.8789C334.213 42.1562 334.02 40.7266 333.633 39.5898C333.258 38.4531 332.742 37.6211 332.086 37.0938C331.43 36.5547 330.68 36.2852 329.836 36.2852C328.418 36.2852 327.328 36.9004 326.566 38.1309C325.816 39.3613 325.441 41.1133 325.441 43.3867ZM352.881 39.0449H351.193C350.936 38.3418 350.631 37.791 350.279 37.3926C349.928 36.9824 349.529 36.6953 349.084 36.5312C348.639 36.3672 348.094 36.2852 347.449 36.2852C346.512 36.2852 345.762 36.5078 345.199 36.9531C344.648 37.3867 344.373 37.9844 344.373 38.7461C344.373 39.2852 344.484 39.7305 344.707 40.082C344.93 40.4336 345.275 40.7617 345.744 41.0664C346.213 41.3711 347.039 41.7754 348.223 42.2793C349.418 42.7949 350.338 43.2695 350.982 43.7031C351.639 44.1367 352.148 44.6406 352.512 45.2148C352.887 45.7891 353.074 46.4746 353.074 47.2715C353.074 48.1973 352.916 48.9766 352.6 49.6094C352.283 50.2422 351.838 50.7578 351.264 51.1562C350.689 51.5547 350.004 51.8418 349.207 52.0176C348.422 52.1934 347.561 52.2812 346.623 52.2812C345.639 52.2812 344.684 52.2051 343.758 52.0527C342.832 51.9121 341.93 51.7246 341.051 51.4902V47.8164H342.773C343.09 48.8945 343.559 49.6797 344.18 50.1719C344.801 50.6523 345.656 50.8926 346.746 50.8926C347.168 50.8926 347.578 50.8516 347.977 50.7695C348.387 50.6758 348.75 50.5293 349.066 50.3301C349.383 50.1191 349.635 49.8379 349.822 49.4863C350.01 49.1348 350.104 48.6953 350.104 48.168C350.104 47.5703 349.986 47.084 349.752 46.709C349.518 46.334 349.154 45.9941 348.662 45.6895C348.17 45.373 347.303 44.9512 346.061 44.4238C344.994 43.9785 344.139 43.5449 343.494 43.123C342.85 42.7012 342.34 42.2031 341.965 41.6289C341.602 41.0547 341.42 40.375 341.42 39.5898C341.42 38.6289 341.678 37.7969 342.193 37.0938C342.721 36.3789 343.477 35.834 344.461 35.459C345.445 35.084 346.6 34.8965 347.924 34.8965C348.697 34.8965 349.441 34.9375 350.156 35.0195C350.883 35.0898 351.791 35.2363 352.881 35.459V39.0449ZM361.072 43.1055C361.072 47.207 361.729 50.5879 363.041 53.248C364.365 55.9082 366.381 57.6895 369.088 58.5918L368.666 59.9453C365.232 59.043 362.602 57.0977 360.773 54.1094C358.945 51.1328 358.031 47.5234 358.031 43.2812C358.031 39.0508 358.945 35.4414 360.773 32.4531C362.613 29.4531 365.244 27.502 368.666 26.5996L369.141 27.9531C366.398 28.8555 364.365 30.6191 363.041 33.2441C361.729 35.8574 361.072 39.1445 361.072 43.1055ZM382.148 49.1875C382.723 49.1875 383.186 49.1523 383.537 49.082C383.889 49.0117 384.17 48.8945 384.381 48.7305C384.592 48.5664 384.756 48.3555 384.873 48.0977C385.002 47.8281 385.16 47.418 385.348 46.8672H386.842L386.543 52H372.076V51.1562C372.58 49.9258 373.26 48.666 374.115 47.377C374.971 46.0879 376.184 44.5703 377.754 42.8242C379.113 41.3242 380.092 40.1875 380.689 39.4141C381.346 38.5703 381.832 37.8438 382.148 37.2344C382.477 36.6133 382.711 36.0332 382.852 35.4941C382.992 34.9434 383.062 34.3926 383.062 33.8418C383.062 32.9629 382.922 32.1895 382.641 31.5215C382.359 30.8418 381.926 30.3086 381.34 29.9219C380.766 29.5352 380.039 29.3418 379.16 29.3418C376.969 29.3418 375.492 30.5605 374.73 32.998H372.604V29.623C374.021 28.9551 375.346 28.4746 376.576 28.1816C377.818 27.877 378.932 27.7246 379.916 27.7246C382.096 27.7246 383.742 28.2051 384.855 29.166C385.969 30.1152 386.525 31.498 386.525 33.3145C386.525 33.9355 386.461 34.5098 386.332 35.0371C386.215 35.5527 386.021 36.0684 385.752 36.584C385.494 37.0879 385.143 37.6328 384.697 38.2188C384.252 38.8047 383.76 39.4023 383.221 40.0117C382.682 40.6094 381.75 41.6113 380.426 43.0176C378.199 45.373 376.564 47.4297 375.521 49.1875H382.148ZM398.883 41.8574L401.168 38.957C401.414 38.6406 401.613 38.3359 401.766 38.043C401.918 37.7383 401.994 37.4277 401.994 37.1113C401.994 36.8418 401.895 36.6191 401.695 36.4434C401.496 36.2676 401.186 36.1387 400.764 36.0566V35.1953H406.512V36.0566C406.066 36.1855 405.609 36.4375 405.141 36.8125C404.684 37.1875 404.121 37.791 403.453 38.623L399.814 43.0879L403.822 48.4844C404.396 49.2578 404.912 49.8496 405.369 50.2598C405.826 50.6699 406.283 50.9629 406.74 51.1387V52H399.674V51.1387C400.646 51.0215 401.133 50.6582 401.133 50.0488C401.133 49.8027 401.092 49.5684 401.01 49.3457C400.928 49.123 400.775 48.8652 400.553 48.5723L398.004 45.0215L395.297 48.5371C395.098 48.7949 394.939 49.0352 394.822 49.2578C394.717 49.4688 394.664 49.709 394.664 49.9785C394.664 50.2949 394.77 50.5586 394.98 50.7695C395.203 50.9688 395.549 51.0918 396.018 51.1387V52H390.146V51.1387C390.533 50.998 390.879 50.8223 391.184 50.6113C391.5 50.4004 391.816 50.1309 392.133 49.8027C392.461 49.4629 392.889 48.9707 393.416 48.3262L397.072 43.791L393.328 38.6582C392.812 37.9551 392.402 37.4453 392.098 37.1289C391.793 36.8125 391.512 36.5723 391.254 36.4082C390.996 36.2441 390.738 36.127 390.48 36.0566V35.1953H397.371V36.0566C396.445 36.1973 395.982 36.5605 395.982 37.1465C395.982 37.416 396.041 37.6855 396.158 37.9551C396.287 38.2246 396.48 38.5234 396.738 38.8516L398.883 41.8574ZM415.881 43.1055C415.881 39.1445 415.225 35.8574 413.912 33.2441C412.6 30.6191 410.566 28.8555 407.812 27.9531L408.287 26.5996C411.709 27.502 414.334 29.4531 416.162 32.4531C418.002 35.4414 418.922 39.0508 418.922 43.2812C418.922 47.5234 418.008 51.1328 416.18 54.1094C414.352 57.0977 411.721 59.043 408.287 59.9453L407.865 58.5918C410.572 57.6895 412.582 55.9082 413.895 53.248C415.219 50.5879 415.881 47.207 415.881 43.1055ZM430.822 43.1055C430.822 39.1445 430.166 35.8574 428.854 33.2441C427.541 30.6191 425.508 28.8555 422.754 27.9531L423.229 26.5996C426.65 27.502 429.275 29.4531 431.104 32.4531C432.943 35.4414 433.863 39.0508 433.863 43.2812C433.863 47.5234 432.949 51.1328 431.121 54.1094C429.293 57.0977 426.662 59.043 423.229 59.9453L422.807 58.5918C425.514 57.6895 427.523 55.9082 428.836 53.248C430.16 50.5879 430.822 47.207 430.822 43.1055Z" fill="white"/>
<line x1="162" y1="41" x2="212" y2="41" stroke="white" stroke-width="2"/>
<path d="M190.217 26.4121C190.217 27.0918 190.252 27.6074 190.322 27.959C190.404 28.2988 190.539 28.5801 190.727 28.8027C190.926 29.0137 191.207 29.1836 191.57 29.3125C191.934 29.4297 192.391 29.5234 192.941 29.5938C193.492 29.6523 194.219 29.6934 195.121 29.7168V31H182.131V29.7168C183.432 29.6582 184.357 29.582 184.908 29.4883C185.471 29.3828 185.898 29.2305 186.191 29.0312C186.484 28.832 186.695 28.5508 186.824 28.1875C186.965 27.8242 187.035 27.2324 187.035 26.4121V12.1562C187.035 11.6875 186.953 11.3477 186.789 11.1367C186.625 10.9141 186.385 10.8027 186.068 10.8027C185.693 10.8027 185.16 10.9961 184.469 11.3828C183.777 11.7695 182.922 12.3027 181.902 12.9824L181.129 11.6289L189.355 6.72461H190.322C190.252 7.84961 190.217 9.4082 190.217 11.4004V26.4121Z" fill="white"/>
<path d="M190.34 71.1875C190.914 71.1875 191.377 71.1523 191.729 71.082C192.08 71.0117 192.361 70.8945 192.572 70.7305C192.783 70.5664 192.947 70.3555 193.064 70.0977C193.193 69.8281 193.352 69.418 193.539 68.8672H195.033L194.734 74H180.268V73.1562C180.771 71.9258 181.451 70.666 182.307 69.377C183.162 68.0879 184.375 66.5703 185.945 64.8242C187.305 63.3242 188.283 62.1875 188.881 61.4141C189.537 60.5703 190.023 59.8438 190.34 59.2344C190.668 58.6133 190.902 58.0332 191.043 57.4941C191.184 56.9434 191.254 56.3926 191.254 55.8418C191.254 54.9629 191.113 54.1895 190.832 53.5215C190.551 52.8418 190.117 52.3086 189.531 51.9219C188.957 51.5352 188.23 51.3418 187.352 51.3418C185.16 51.3418 183.684 52.5605 182.922 54.998H180.795V51.623C182.213 50.9551 183.537 50.4746 184.768 50.1816C186.01 49.877 187.123 49.7246 188.107 49.7246C190.287 49.7246 191.934 50.2051 193.047 51.166C194.16 52.1152 194.717 53.498 194.717 55.3145C194.717 55.9355 194.652 56.5098 194.523 57.0371C194.406 57.5527 194.213 58.0684 193.943 58.584C193.686 59.0879 193.334 59.6328 192.889 60.2188C192.443 60.8047 191.951 61.4023 191.412 62.0117C190.873 62.6094 189.941 63.6113 188.617 65.0176C186.391 67.373 184.756 69.4297 183.713 71.1875H190.34Z" fill="white"/>
</svg>
