<svg width="426" height="85" viewBox="0 0 426 85" fill="none" xmlns="http://www.w3.org/2000/svg">
<path d="M13.4824 39.0449H11.7949C11.5371 38.3418 11.2324 37.791 10.8809 37.3926C10.5293 36.9824 10.1309 36.6953 9.68555 36.5312C9.24023 36.3672 8.69531 36.2852 8.05078 36.2852C7.11328 36.2852 6.36328 36.5078 5.80078 36.9531C5.25 37.3867 4.97461 37.9844 4.97461 38.7461C4.97461 39.2852 5.08594 39.7305 5.30859 40.082C5.53125 40.4336 5.87695 40.7617 6.3457 41.0664C6.81445 41.3711 7.64062 41.7754 8.82422 42.2793C10.0195 42.7949 10.9395 43.2695 11.584 43.7031C12.2402 44.1367 12.75 44.6406 13.1133 45.2148C13.4883 45.7891 13.6758 46.4746 13.6758 47.2715C13.6758 48.1973 13.5176 48.9766 13.2012 49.6094C12.8848 50.2422 12.4395 50.7578 11.8652 51.1562C11.291 51.5547 10.6055 51.8418 9.80859 52.0176C9.02344 52.1934 8.16211 52.2812 7.22461 52.2812C6.24023 52.2812 5.28516 52.2051 4.35938 52.0527C3.43359 51.9121 2.53125 51.7246 1.65234 51.4902V47.8164H3.375C3.69141 48.8945 4.16016 49.6797 4.78125 50.1719C5.40234 50.6523 6.25781 50.8926 7.34766 50.8926C7.76953 50.8926 8.17969 50.8516 8.57812 50.7695C8.98828 50.6758 9.35156 50.5293 9.66797 50.3301C9.98438 50.1191 10.2363 49.8379 10.4238 49.4863C10.6113 49.1348 10.7051 48.6953 10.7051 48.168C10.7051 47.5703 10.5879 47.084 10.3535 46.709C10.1191 46.334 9.75586 45.9941 9.26367 45.6895C8.77148 45.373 7.9043 44.9512 6.66211 44.4238C5.5957 43.9785 4.74023 43.5449 4.0957 43.123C3.45117 42.7012 2.94141 42.2031 2.56641 41.6289C2.20312 41.0547 2.02148 40.375 2.02148 39.5898C2.02148 38.6289 2.2793 37.7969 2.79492 37.0938C3.32227 36.3789 4.07812 35.834 5.0625 35.459C6.04688 35.084 7.20117 34.8965 8.52539 34.8965C9.29883 34.8965 10.043 34.9375 10.7578 35.0195C11.4844 35.0898 12.3926 35.2363 13.4824 35.459V39.0449ZM22.2012 28.3047V31.7148H18.9668V28.3047H22.2012ZM17.1738 51.1387C17.6309 50.998 17.9531 50.875 18.1406 50.7695C18.3398 50.6641 18.5039 50.5176 18.6328 50.3301C18.7734 50.1426 18.8789 49.8555 18.9492 49.4688C19.0312 49.082 19.0723 48.4785 19.0723 47.6582V39.9941C19.0723 39.2441 19.0605 38.6406 19.0371 38.1836C19.0137 37.7266 18.9316 37.3633 18.791 37.0938C18.6504 36.8125 18.4336 36.6074 18.1406 36.4785C17.8594 36.3379 17.4551 36.2207 16.9277 36.127V35.1953L21.0234 35.0371H22.0957V47.6055C22.0957 48.6133 22.1426 49.3164 22.2363 49.7148C22.3301 50.1016 22.5059 50.4004 22.7637 50.6113C23.0332 50.8105 23.4668 50.9863 24.0645 51.1387V52H17.1738V51.1387ZM44.3145 52H37.3887V51.1387C37.8457 50.998 38.1738 50.875 38.373 50.7695C38.5723 50.6641 38.7363 50.5176 38.8652 50.3301C39.0059 50.1426 39.1113 49.8555 39.1816 49.4688C39.2637 49.0703 39.3047 48.4727 39.3047 47.6758V43.0703C39.3047 42.25 39.2812 41.5059 39.2344 40.8379C39.1875 40.1699 39.1055 39.625 38.9883 39.2031C38.8828 38.7695 38.748 38.4355 38.584 38.2012C38.4316 37.9551 38.2441 37.75 38.0215 37.5859C37.8105 37.4102 37.5645 37.2754 37.2832 37.1816C37.002 37.0762 36.6328 37.0234 36.1758 37.0234C35.7188 37.0234 35.2852 37.1172 34.875 37.3047C34.4648 37.4805 34.0137 37.791 33.5215 38.2363C33.0293 38.6816 32.6719 39.1211 32.4492 39.5547C32.2266 39.9883 32.1152 40.4863 32.1152 41.0488V47.6055C32.1152 48.6133 32.1621 49.3164 32.2559 49.7148C32.3496 50.1016 32.5254 50.4004 32.7832 50.6113C33.0527 50.8105 33.4863 50.9863 34.084 51.1387V52H27.1934V51.1387C27.6504 50.998 27.9727 50.875 28.1602 50.7695C28.3594 50.6641 28.5234 50.5176 28.6523 50.3301C28.793 50.1426 28.8984 49.8555 28.9688 49.4688C29.0508 49.082 29.0918 48.4785 29.0918 47.6582V39.9941C29.0918 39.2441 29.0801 38.6406 29.0566 38.1836C29.0332 37.7266 28.9512 37.3633 28.8105 37.0938C28.6699 36.8125 28.4531 36.6074 28.1602 36.4785C27.8789 36.3379 27.4746 36.2207 26.9473 36.127V35.1953L31.0605 35.0371H32.1328L31.9395 37.9023L32.1855 37.9727C33.0527 37.0938 33.75 36.4668 34.2773 36.0918C34.8164 35.7168 35.3555 35.4297 35.8945 35.2305C36.4453 35.0195 37.0254 34.9141 37.6348 34.9141C38.2676 34.9141 38.8301 34.9902 39.3223 35.1426C39.8262 35.2832 40.2656 35.5059 40.6406 35.8105C41.0273 36.1152 41.3438 36.4961 41.5898 36.9531C41.8359 37.3984 42.0176 37.9375 42.1348 38.5703C42.2637 39.2031 42.3281 40.0059 42.3281 40.9785V47.6055C42.3281 48.4141 42.3516 49 42.3984 49.3633C42.4453 49.7266 42.5273 50.0078 42.6445 50.207C42.7617 50.4062 42.9316 50.5762 43.1543 50.7168C43.377 50.8457 43.7637 50.9863 44.3145 51.1387V52ZM51.8027 43.1055C51.8027 47.207 52.459 50.5879 53.7715 53.248C55.0957 55.9082 57.1113 57.6895 59.8184 58.5918L59.3965 59.9453C55.9629 59.043 53.332 57.0977 51.5039 54.1094C49.6758 51.1328 48.7617 47.5234 48.7617 43.2812C48.7617 39.0508 49.6758 35.4414 51.5039 32.4531C53.3438 29.4531 55.9746 27.502 59.3965 26.5996L59.8711 27.9531C57.1289 28.8555 55.0957 30.6191 53.7715 33.2441C52.459 35.8574 51.8027 39.1445 51.8027 43.1055ZM69.6797 41.8574L71.9648 38.957C72.2109 38.6406 72.4102 38.3359 72.5625 38.043C72.7148 37.7383 72.791 37.4277 72.791 37.1113C72.791 36.8418 72.6914 36.6191 72.4922 36.4434C72.293 36.2676 71.9824 36.1387 71.5605 36.0566V35.1953H77.3086V36.0566C76.8633 36.1855 76.4062 36.4375 75.9375 36.8125C75.4805 37.1875 74.918 37.791 74.25 38.623L70.6113 43.0879L74.6191 48.4844C75.1934 49.2578 75.709 49.8496 76.166 50.2598C76.623 50.6699 77.0801 50.9629 77.5371 51.1387V52H70.4707V51.1387C71.4434 51.0215 71.9297 50.6582 71.9297 50.0488C71.9297 49.8027 71.8887 49.5684 71.8066 49.3457C71.7246 49.123 71.5723 48.8652 71.3496 48.5723L68.8008 45.0215L66.0938 48.5371C65.8945 48.7949 65.7363 49.0352 65.6191 49.2578C65.5137 49.4688 65.4609 49.709 65.4609 49.9785C65.4609 50.2949 65.5664 50.5586 65.7773 50.7695C66 50.9688 66.3457 51.0918 66.8145 51.1387V52H60.9434V51.1387C61.3301 50.998 61.6758 50.8223 61.9805 50.6113C62.2969 50.4004 62.6133 50.1309 62.9297 49.8027C63.2578 49.4629 63.6855 48.9707 64.2129 48.3262L67.8691 43.791L64.125 38.6582C63.6094 37.9551 63.1992 37.4453 62.8945 37.1289C62.5898 36.8125 62.3086 36.5723 62.0508 36.4082C61.793 36.2441 61.5352 36.127 61.2773 36.0566V35.1953H68.168V36.0566C67.2422 36.1973 66.7793 36.5605 66.7793 37.1465C66.7793 37.416 66.8379 37.6855 66.9551 37.9551C67.084 38.2246 67.2773 38.5234 67.5352 38.8516L69.6797 41.8574ZM86.6777 43.1055C86.6777 39.1445 86.0215 35.8574 84.709 33.2441C83.3965 30.6191 81.3633 28.8555 78.6094 27.9531L79.084 26.5996C82.5059 27.502 85.1309 29.4531 86.959 32.4531C88.7988 35.4414 89.7188 39.0508 89.7188 43.2812C89.7188 47.5234 88.8047 51.1328 86.9766 54.1094C85.1484 57.0977 82.5176 59.043 79.084 59.9453L78.6621 58.5918C81.3691 57.6895 83.3789 55.9082 84.6914 53.248C86.0156 50.5879 86.6777 47.207 86.6777 43.1055ZM115.629 35.5996V39.2734H113.396C113.197 38.5117 112.951 37.9141 112.658 37.4805C112.365 37.0352 112.025 36.7246 111.639 36.5488C111.252 36.373 110.771 36.2852 110.197 36.2852C109.377 36.2852 108.65 36.5488 108.018 37.0762C107.385 37.6035 106.881 38.4062 106.506 39.4844C106.143 40.5625 105.961 41.8809 105.961 43.4395C105.961 44.4355 106.031 45.3496 106.172 46.1816C106.312 47.002 106.553 47.7051 106.893 48.291C107.232 48.877 107.684 49.334 108.246 49.6621C108.809 49.9902 109.506 50.1543 110.338 50.1543C111.146 50.1543 111.896 49.9961 112.588 49.6797C113.291 49.3633 114.018 48.8066 114.768 48.0098L115.77 49.1699C115.172 49.8262 114.645 50.3359 114.188 50.6992C113.73 51.0508 113.238 51.3496 112.711 51.5957C112.195 51.8301 111.68 52 111.164 52.1055C110.66 52.2227 110.109 52.2812 109.512 52.2812C107.297 52.2812 105.604 51.5488 104.432 50.084C103.26 48.6074 102.674 46.4805 102.674 43.7031C102.674 41.9688 103.002 40.4336 103.658 39.0977C104.314 37.75 105.234 36.7129 106.418 35.9863C107.602 35.2598 108.967 34.8965 110.514 34.8965C111.475 34.8965 112.359 34.9551 113.168 35.0723C113.988 35.1777 114.809 35.3535 115.629 35.5996ZM126.07 52.2812C123.633 52.2812 121.77 51.5664 120.48 50.1367C119.203 48.6953 118.564 46.5684 118.564 43.7559C118.564 41.8223 118.898 40.1875 119.566 38.8516C120.246 37.5156 121.172 36.5254 122.344 35.8809C123.516 35.2246 124.852 34.8965 126.352 34.8965C128.859 34.8965 130.758 35.6289 132.047 37.0938C133.336 38.5469 133.98 40.6387 133.98 43.3691C133.98 45.3145 133.658 46.9551 133.014 48.291C132.369 49.627 131.455 50.6289 130.271 51.2969C129.088 51.9531 127.688 52.2812 126.07 52.2812ZM121.887 43.3867C121.887 45.8008 122.268 47.6582 123.029 48.959C123.803 50.248 124.904 50.8926 126.334 50.8926C127.119 50.8926 127.787 50.7051 128.338 50.3301C128.889 49.9434 129.334 49.4277 129.674 48.7832C130.025 48.1387 130.277 47.3945 130.43 46.5508C130.582 45.6953 130.658 44.8047 130.658 43.8789C130.658 42.1562 130.465 40.7266 130.078 39.5898C129.703 38.4531 129.188 37.6211 128.531 37.0938C127.875 36.5547 127.125 36.2852 126.281 36.2852C124.863 36.2852 123.773 36.9004 123.012 38.1309C122.262 39.3613 121.887 41.1133 121.887 43.3867ZM149.326 39.0449H147.639C147.381 38.3418 147.076 37.791 146.725 37.3926C146.373 36.9824 145.975 36.6953 145.529 36.5312C145.084 36.3672 144.539 36.2852 143.895 36.2852C142.957 36.2852 142.207 36.5078 141.645 36.9531C141.094 37.3867 140.818 37.9844 140.818 38.7461C140.818 39.2852 140.93 39.7305 141.152 40.082C141.375 40.4336 141.721 40.7617 142.189 41.0664C142.658 41.3711 143.484 41.7754 144.668 42.2793C145.863 42.7949 146.783 43.2695 147.428 43.7031C148.084 44.1367 148.594 44.6406 148.957 45.2148C149.332 45.7891 149.52 46.4746 149.52 47.2715C149.52 48.1973 149.361 48.9766 149.045 49.6094C148.729 50.2422 148.283 50.7578 147.709 51.1562C147.135 51.5547 146.449 51.8418 145.652 52.0176C144.867 52.1934 144.006 52.2812 143.068 52.2812C142.084 52.2812 141.129 52.2051 140.203 52.0527C139.277 51.9121 138.375 51.7246 137.496 51.4902V47.8164H139.219C139.535 48.8945 140.004 49.6797 140.625 50.1719C141.246 50.6523 142.102 50.8926 143.191 50.8926C143.613 50.8926 144.023 50.8516 144.422 50.7695C144.832 50.6758 145.195 50.5293 145.512 50.3301C145.828 50.1191 146.08 49.8379 146.268 49.4863C146.455 49.1348 146.549 48.6953 146.549 48.168C146.549 47.5703 146.432 47.084 146.197 46.709C145.963 46.334 145.6 45.9941 145.107 45.6895C144.615 45.373 143.748 44.9512 142.506 44.4238C141.439 43.9785 140.584 43.5449 139.939 43.123C139.295 42.7012 138.785 42.2031 138.41 41.6289C138.047 41.0547 137.865 40.375 137.865 39.5898C137.865 38.6289 138.123 37.7969 138.639 37.0938C139.166 36.3789 139.922 35.834 140.906 35.459C141.891 35.084 143.045 34.8965 144.369 34.8965C145.143 34.8965 145.887 34.9375 146.602 35.0195C147.328 35.0898 148.236 35.2363 149.326 35.459V39.0449ZM157.518 43.1055C157.518 47.207 158.174 50.5879 159.486 53.248C160.811 55.9082 162.826 57.6895 165.533 58.5918L165.111 59.9453C161.678 59.043 159.047 57.0977 157.219 54.1094C155.391 51.1328 154.477 47.5234 154.477 43.2812C154.477 39.0508 155.391 35.4414 157.219 32.4531C159.059 29.4531 161.689 27.502 165.111 26.5996L165.586 27.9531C162.844 28.8555 160.811 30.6191 159.486 33.2441C158.174 35.8574 157.518 39.1445 157.518 43.1055ZM175.395 41.8574L177.68 38.957C177.926 38.6406 178.125 38.3359 178.277 38.043C178.43 37.7383 178.506 37.4277 178.506 37.1113C178.506 36.8418 178.406 36.6191 178.207 36.4434C178.008 36.2676 177.697 36.1387 177.275 36.0566V35.1953H183.023V36.0566C182.578 36.1855 182.121 36.4375 181.652 36.8125C181.195 37.1875 180.633 37.791 179.965 38.623L176.326 43.0879L180.334 48.4844C180.908 49.2578 181.424 49.8496 181.881 50.2598C182.338 50.6699 182.795 50.9629 183.252 51.1387V52H176.186V51.1387C177.158 51.0215 177.645 50.6582 177.645 50.0488C177.645 49.8027 177.604 49.5684 177.521 49.3457C177.439 49.123 177.287 48.8652 177.064 48.5723L174.516 45.0215L171.809 48.5371C171.609 48.7949 171.451 49.0352 171.334 49.2578C171.229 49.4688 171.176 49.709 171.176 49.9785C171.176 50.2949 171.281 50.5586 171.492 50.7695C171.715 50.9688 172.061 51.0918 172.529 51.1387V52H166.658V51.1387C167.045 50.998 167.391 50.8223 167.695 50.6113C168.012 50.4004 168.328 50.1309 168.645 49.8027C168.973 49.4629 169.4 48.9707 169.928 48.3262L173.584 43.791L169.84 38.6582C169.324 37.9551 168.914 37.4453 168.609 37.1289C168.305 36.8125 168.023 36.5723 167.766 36.4082C167.508 36.2441 167.25 36.127 166.992 36.0566V35.1953H173.883V36.0566C172.957 36.1973 172.494 36.5605 172.494 37.1465C172.494 37.416 172.553 37.6855 172.67 37.9551C172.799 38.2246 172.992 38.5234 173.25 38.8516L175.395 41.8574ZM192.393 43.1055C192.393 39.1445 191.736 35.8574 190.424 33.2441C189.111 30.6191 187.078 28.8555 184.324 27.9531L184.799 26.5996C188.221 27.502 190.846 29.4531 192.674 32.4531C194.514 35.4414 195.434 39.0508 195.434 43.2812C195.434 47.5234 194.52 51.1328 192.691 54.1094C190.863 57.0977 188.232 59.043 184.799 59.9453L184.377 58.5918C187.084 57.6895 189.094 55.9082 190.406 53.248C191.73 50.5879 192.393 47.207 192.393 43.1055ZM209.162 39.2383V36.9004H230.818V39.2383H209.162ZM209.162 46.5332V44.1953H230.818V46.5332H209.162ZM326.373 39.0449H324.686C324.428 38.3418 324.123 37.791 323.771 37.3926C323.42 36.9824 323.021 36.6953 322.576 36.5312C322.131 36.3672 321.586 36.2852 320.941 36.2852C320.004 36.2852 319.254 36.5078 318.691 36.9531C318.141 37.3867 317.865 37.9844 317.865 38.7461C317.865 39.2852 317.977 39.7305 318.199 40.082C318.422 40.4336 318.768 40.7617 319.236 41.0664C319.705 41.3711 320.531 41.7754 321.715 42.2793C322.91 42.7949 323.83 43.2695 324.475 43.7031C325.131 44.1367 325.641 44.6406 326.004 45.2148C326.379 45.7891 326.566 46.4746 326.566 47.2715C326.566 48.1973 326.408 48.9766 326.092 49.6094C325.775 50.2422 325.33 50.7578 324.756 51.1562C324.182 51.5547 323.496 51.8418 322.699 52.0176C321.914 52.1934 321.053 52.2812 320.115 52.2812C319.131 52.2812 318.176 52.2051 317.25 52.0527C316.324 51.9121 315.422 51.7246 314.543 51.4902V47.8164H316.266C316.582 48.8945 317.051 49.6797 317.672 50.1719C318.293 50.6523 319.148 50.8926 320.238 50.8926C320.66 50.8926 321.07 50.8516 321.469 50.7695C321.879 50.6758 322.242 50.5293 322.559 50.3301C322.875 50.1191 323.127 49.8379 323.314 49.4863C323.502 49.1348 323.596 48.6953 323.596 48.168C323.596 47.5703 323.479 47.084 323.244 46.709C323.01 46.334 322.646 45.9941 322.154 45.6895C321.662 45.373 320.795 44.9512 319.553 44.4238C318.486 43.9785 317.631 43.5449 316.986 43.123C316.342 42.7012 315.832 42.2031 315.457 41.6289C315.094 41.0547 314.912 40.375 314.912 39.5898C314.912 38.6289 315.17 37.7969 315.686 37.0938C316.213 36.3789 316.969 35.834 317.953 35.459C318.938 35.084 320.092 34.8965 321.416 34.8965C322.189 34.8965 322.934 34.9375 323.648 35.0195C324.375 35.0898 325.283 35.2363 326.373 35.459V39.0449ZM335.092 28.3047V31.7148H331.857V28.3047H335.092ZM330.064 51.1387C330.521 50.998 330.844 50.875 331.031 50.7695C331.23 50.6641 331.395 50.5176 331.523 50.3301C331.664 50.1426 331.77 49.8555 331.84 49.4688C331.922 49.082 331.963 48.4785 331.963 47.6582V39.9941C331.963 39.2441 331.951 38.6406 331.928 38.1836C331.904 37.7266 331.822 37.3633 331.682 37.0938C331.541 36.8125 331.324 36.6074 331.031 36.4785C330.75 36.3379 330.346 36.2207 329.818 36.127V35.1953L333.914 35.0371H334.986V47.6055C334.986 48.6133 335.033 49.3164 335.127 49.7148C335.221 50.1016 335.396 50.4004 335.654 50.6113C335.924 50.8105 336.357 50.9863 336.955 51.1387V52H330.064V51.1387ZM357.205 52H350.279V51.1387C350.736 50.998 351.064 50.875 351.264 50.7695C351.463 50.6641 351.627 50.5176 351.756 50.3301C351.896 50.1426 352.002 49.8555 352.072 49.4688C352.154 49.0703 352.195 48.4727 352.195 47.6758V43.0703C352.195 42.25 352.172 41.5059 352.125 40.8379C352.078 40.1699 351.996 39.625 351.879 39.2031C351.773 38.7695 351.639 38.4355 351.475 38.2012C351.322 37.9551 351.135 37.75 350.912 37.5859C350.701 37.4102 350.455 37.2754 350.174 37.1816C349.893 37.0762 349.523 37.0234 349.066 37.0234C348.609 37.0234 348.176 37.1172 347.766 37.3047C347.355 37.4805 346.904 37.791 346.412 38.2363C345.92 38.6816 345.562 39.1211 345.34 39.5547C345.117 39.9883 345.006 40.4863 345.006 41.0488V47.6055C345.006 48.6133 345.053 49.3164 345.146 49.7148C345.24 50.1016 345.416 50.4004 345.674 50.6113C345.943 50.8105 346.377 50.9863 346.975 51.1387V52H340.084V51.1387C340.541 50.998 340.863 50.875 341.051 50.7695C341.25 50.6641 341.414 50.5176 341.543 50.3301C341.684 50.1426 341.789 49.8555 341.859 49.4688C341.941 49.082 341.982 48.4785 341.982 47.6582V39.9941C341.982 39.2441 341.971 38.6406 341.947 38.1836C341.924 37.7266 341.842 37.3633 341.701 37.0938C341.561 36.8125 341.344 36.6074 341.051 36.4785C340.77 36.3379 340.365 36.2207 339.838 36.127V35.1953L343.951 35.0371H345.023L344.83 37.9023L345.076 37.9727C345.943 37.0938 346.641 36.4668 347.168 36.0918C347.707 35.7168 348.246 35.4297 348.785 35.2305C349.336 35.0195 349.916 34.9141 350.525 34.9141C351.158 34.9141 351.721 34.9902 352.213 35.1426C352.717 35.2832 353.156 35.5059 353.531 35.8105C353.918 36.1152 354.234 36.4961 354.48 36.9531C354.727 37.3984 354.908 37.9375 355.025 38.5703C355.154 39.2031 355.219 40.0059 355.219 40.9785V47.6055C355.219 48.4141 355.242 49 355.289 49.3633C355.336 49.7266 355.418 50.0078 355.535 50.207C355.652 50.4062 355.822 50.5762 356.045 50.7168C356.268 50.8457 356.654 50.9863 357.205 51.1387V52ZM364.693 43.1055C364.693 47.207 365.35 50.5879 366.662 53.248C367.986 55.9082 370.002 57.6895 372.709 58.5918L372.287 59.9453C368.854 59.043 366.223 57.0977 364.395 54.1094C362.566 51.1328 361.652 47.5234 361.652 43.2812C361.652 39.0508 362.566 35.4414 364.395 32.4531C366.234 29.4531 368.865 27.502 372.287 26.5996L372.762 27.9531C370.02 28.8555 367.986 30.6191 366.662 33.2441C365.35 35.8574 364.693 39.1445 364.693 43.1055ZM385.77 49.1875C386.344 49.1875 386.807 49.1523 387.158 49.082C387.51 49.0117 387.791 48.8945 388.002 48.7305C388.213 48.5664 388.377 48.3555 388.494 48.0977C388.623 47.8281 388.781 47.418 388.969 46.8672H390.463L390.164 52H375.697V51.1562C376.201 49.9258 376.881 48.666 377.736 47.377C378.592 46.0879 379.805 44.5703 381.375 42.8242C382.734 41.3242 383.713 40.1875 384.311 39.4141C384.967 38.5703 385.453 37.8438 385.77 37.2344C386.098 36.6133 386.332 36.0332 386.473 35.4941C386.613 34.9434 386.684 34.3926 386.684 33.8418C386.684 32.9629 386.543 32.1895 386.262 31.5215C385.98 30.8418 385.547 30.3086 384.961 29.9219C384.387 29.5352 383.66 29.3418 382.781 29.3418C380.59 29.3418 379.113 30.5605 378.352 32.998H376.225V29.623C377.643 28.9551 378.967 28.4746 380.197 28.1816C381.439 27.877 382.553 27.7246 383.537 27.7246C385.717 27.7246 387.363 28.2051 388.477 29.166C389.59 30.1152 390.146 31.498 390.146 33.3145C390.146 33.9355 390.082 34.5098 389.953 35.0371C389.836 35.5527 389.643 36.0684 389.373 36.584C389.115 37.0879 388.764 37.6328 388.318 38.2188C387.873 38.8047 387.381 39.4023 386.842 40.0117C386.303 40.6094 385.371 41.6113 384.047 43.0176C381.82 45.373 380.186 47.4297 379.143 49.1875H385.77ZM402.504 41.8574L404.789 38.957C405.035 38.6406 405.234 38.3359 405.387 38.043C405.539 37.7383 405.615 37.4277 405.615 37.1113C405.615 36.8418 405.516 36.6191 405.316 36.4434C405.117 36.2676 404.807 36.1387 404.385 36.0566V35.1953H410.133V36.0566C409.688 36.1855 409.23 36.4375 408.762 36.8125C408.305 37.1875 407.742 37.791 407.074 38.623L403.436 43.0879L407.443 48.4844C408.018 49.2578 408.533 49.8496 408.99 50.2598C409.447 50.6699 409.904 50.9629 410.361 51.1387V52H403.295V51.1387C404.268 51.0215 404.754 50.6582 404.754 50.0488C404.754 49.8027 404.713 49.5684 404.631 49.3457C404.549 49.123 404.396 48.8652 404.174 48.5723L401.625 45.0215L398.918 48.5371C398.719 48.7949 398.561 49.0352 398.443 49.2578C398.338 49.4688 398.285 49.709 398.285 49.9785C398.285 50.2949 398.391 50.5586 398.602 50.7695C398.824 50.9688 399.17 51.0918 399.639 51.1387V52H393.768V51.1387C394.154 50.998 394.5 50.8223 394.805 50.6113C395.121 50.4004 395.438 50.1309 395.754 49.8027C396.082 49.4629 396.51 48.9707 397.037 48.3262L400.693 43.791L396.949 38.6582C396.434 37.9551 396.023 37.4453 395.719 37.1289C395.414 36.8125 395.133 36.5723 394.875 36.4082C394.617 36.2441 394.359 36.127 394.102 36.0566V35.1953H400.992V36.0566C400.066 36.1973 399.604 36.5605 399.604 37.1465C399.604 37.416 399.662 37.6855 399.779 37.9551C399.908 38.2246 400.102 38.5234 400.359 38.8516L402.504 41.8574ZM419.502 43.1055C419.502 39.1445 418.846 35.8574 417.533 33.2441C416.221 30.6191 414.188 28.8555 411.434 27.9531L411.908 26.5996C415.33 27.502 417.955 29.4531 419.783 32.4531C421.623 35.4414 422.543 39.0508 422.543 43.2812C422.543 47.5234 421.629 51.1328 419.801 54.1094C417.973 57.0977 415.342 59.043 411.908 59.9453L411.486 58.5918C414.193 57.6895 416.203 55.9082 417.516 53.248C418.84 50.5879 419.502 47.207 419.502 43.1055Z" fill="white"/>
<line x1="252" y1="41" x2="302" y2="41" stroke="white" stroke-width="2"/>
<path d="M280.217 26.4121C280.217 27.0918 280.252 27.6074 280.322 27.959C280.404 28.2988 280.539 28.5801 280.727 28.8027C280.926 29.0137 281.207 29.1836 281.57 29.3125C281.934 29.4297 282.391 29.5234 282.941 29.5938C283.492 29.6523 284.219 29.6934 285.121 29.7168V31H272.131V29.7168C273.432 29.6582 274.357 29.582 274.908 29.4883C275.471 29.3828 275.898 29.2305 276.191 29.0312C276.484 28.832 276.695 28.5508 276.824 28.1875C276.965 27.8242 277.035 27.2324 277.035 26.4121V12.1562C277.035 11.6875 276.953 11.3477 276.789 11.1367C276.625 10.9141 276.385 10.8027 276.068 10.8027C275.693 10.8027 275.16 10.9961 274.469 11.3828C273.777 11.7695 272.922 12.3027 271.902 12.9824L271.129 11.6289L279.355 6.72461H280.322C280.252 7.84961 280.217 9.4082 280.217 11.4004V26.4121Z" fill="white"/>
<path d="M280.34 71.1875C280.914 71.1875 281.377 71.1523 281.729 71.082C282.08 71.0117 282.361 70.8945 282.572 70.7305C282.783 70.5664 282.947 70.3555 283.064 70.0977C283.193 69.8281 283.352 69.418 283.539 68.8672H285.033L284.734 74H270.268V73.1562C270.771 71.9258 271.451 70.666 272.307 69.377C273.162 68.0879 274.375 66.5703 275.945 64.8242C277.305 63.3242 278.283 62.1875 278.881 61.4141C279.537 60.5703 280.023 59.8438 280.34 59.2344C280.668 58.6133 280.902 58.0332 281.043 57.4941C281.184 56.9434 281.254 56.3926 281.254 55.8418C281.254 54.9629 281.113 54.1895 280.832 53.5215C280.551 52.8418 280.117 52.3086 279.531 51.9219C278.957 51.5352 278.23 51.3418 277.352 51.3418C275.16 51.3418 273.684 52.5605 272.922 54.998H270.795V51.623C272.213 50.9551 273.537 50.4746 274.768 50.1816C276.01 49.877 277.123 49.7246 278.107 49.7246C280.287 49.7246 281.934 50.2051 283.047 51.166C284.16 52.1152 284.717 53.498 284.717 55.3145C284.717 55.9355 284.652 56.5098 284.523 57.0371C284.406 57.5527 284.213 58.0684 283.943 58.584C283.686 59.0879 283.334 59.6328 282.889 60.2188C282.443 60.8047 281.951 61.4023 281.412 62.0117C280.873 62.6094 279.941 63.6113 278.617 65.0176C276.391 67.373 274.756 69.4297 273.713 71.1875H280.34Z" fill="white"/>
</svg>
