<svg width="669" height="85" viewBox="0 0 669 85" fill="none" xmlns="http://www.w3.org/2000/svg">
<path d="M13.4824 39.0449H11.7949C11.5371 38.3418 11.2324 37.791 10.8809 37.3926C10.5293 36.9824 10.1309 36.6953 9.68555 36.5312C9.24023 36.3672 8.69531 36.2852 8.05078 36.2852C7.11328 36.2852 6.36328 36.5078 5.80078 36.9531C5.25 37.3867 4.97461 37.9844 4.97461 38.7461C4.97461 39.2852 5.08594 39.7305 5.30859 40.082C5.53125 40.4336 5.87695 40.7617 6.3457 41.0664C6.81445 41.3711 7.64062 41.7754 8.82422 42.2793C10.0195 42.7949 10.9395 43.2695 11.584 43.7031C12.2402 44.1367 12.75 44.6406 13.1133 45.2148C13.4883 45.7891 13.6758 46.4746 13.6758 47.2715C13.6758 48.1973 13.5176 48.9766 13.2012 49.6094C12.8848 50.2422 12.4395 50.7578 11.8652 51.1562C11.291 51.5547 10.6055 51.8418 9.80859 52.0176C9.02344 52.1934 8.16211 52.2812 7.22461 52.2812C6.24023 52.2812 5.28516 52.2051 4.35938 52.0527C3.43359 51.9121 2.53125 51.7246 1.65234 51.4902V47.8164H3.375C3.69141 48.8945 4.16016 49.6797 4.78125 50.1719C5.40234 50.6523 6.25781 50.8926 7.34766 50.8926C7.76953 50.8926 8.17969 50.8516 8.57812 50.7695C8.98828 50.6758 9.35156 50.5293 9.66797 50.3301C9.98438 50.1191 10.2363 49.8379 10.4238 49.4863C10.6113 49.1348 10.7051 48.6953 10.7051 48.168C10.7051 47.5703 10.5879 47.084 10.3535 46.709C10.1191 46.334 9.75586 45.9941 9.26367 45.6895C8.77148 45.373 7.9043 44.9512 6.66211 44.4238C5.5957 43.9785 4.74023 43.5449 4.0957 43.123C3.45117 42.7012 2.94141 42.2031 2.56641 41.6289C2.20312 41.0547 2.02148 40.375 2.02148 39.5898C2.02148 38.6289 2.2793 37.7969 2.79492 37.0938C3.32227 36.3789 4.07812 35.834 5.0625 35.459C6.04688 35.084 7.20117 34.8965 8.52539 34.8965C9.29883 34.8965 10.043 34.9375 10.7578 35.0195C11.4844 35.0898 12.3926 35.2363 13.4824 35.459V39.0449ZM22.2012 28.3047V31.7148H18.9668V28.3047H22.2012ZM17.1738 51.1387C17.6309 50.998 17.9531 50.875 18.1406 50.7695C18.3398 50.6641 18.5039 50.5176 18.6328 50.3301C18.7734 50.1426 18.8789 49.8555 18.9492 49.4688C19.0312 49.082 19.0723 48.4785 19.0723 47.6582V39.9941C19.0723 39.2441 19.0605 38.6406 19.0371 38.1836C19.0137 37.7266 18.9316 37.3633 18.791 37.0938C18.6504 36.8125 18.4336 36.6074 18.1406 36.4785C17.8594 36.3379 17.4551 36.2207 16.9277 36.127V35.1953L21.0234 35.0371H22.0957V47.6055C22.0957 48.6133 22.1426 49.3164 22.2363 49.7148C22.3301 50.1016 22.5059 50.4004 22.7637 50.6113C23.0332 50.8105 23.4668 50.9863 24.0645 51.1387V52H17.1738V51.1387ZM44.3145 52H37.3887V51.1387C37.8457 50.998 38.1738 50.875 38.373 50.7695C38.5723 50.6641 38.7363 50.5176 38.8652 50.3301C39.0059 50.1426 39.1113 49.8555 39.1816 49.4688C39.2637 49.0703 39.3047 48.4727 39.3047 47.6758V43.0703C39.3047 42.25 39.2812 41.5059 39.2344 40.8379C39.1875 40.1699 39.1055 39.625 38.9883 39.2031C38.8828 38.7695 38.748 38.4355 38.584 38.2012C38.4316 37.9551 38.2441 37.75 38.0215 37.5859C37.8105 37.4102 37.5645 37.2754 37.2832 37.1816C37.002 37.0762 36.6328 37.0234 36.1758 37.0234C35.7188 37.0234 35.2852 37.1172 34.875 37.3047C34.4648 37.4805 34.0137 37.791 33.5215 38.2363C33.0293 38.6816 32.6719 39.1211 32.4492 39.5547C32.2266 39.9883 32.1152 40.4863 32.1152 41.0488V47.6055C32.1152 48.6133 32.1621 49.3164 32.2559 49.7148C32.3496 50.1016 32.5254 50.4004 32.7832 50.6113C33.0527 50.8105 33.4863 50.9863 34.084 51.1387V52H27.1934V51.1387C27.6504 50.998 27.9727 50.875 28.1602 50.7695C28.3594 50.6641 28.5234 50.5176 28.6523 50.3301C28.793 50.1426 28.8984 49.8555 28.9688 49.4688C29.0508 49.082 29.0918 48.4785 29.0918 47.6582V39.9941C29.0918 39.2441 29.0801 38.6406 29.0566 38.1836C29.0332 37.7266 28.9512 37.3633 28.8105 37.0938C28.6699 36.8125 28.4531 36.6074 28.1602 36.4785C27.8789 36.3379 27.4746 36.2207 26.9473 36.127V35.1953L31.0605 35.0371H32.1328L31.9395 37.9023L32.1855 37.9727C33.0527 37.0938 33.75 36.4668 34.2773 36.0918C34.8164 35.7168 35.3555 35.4297 35.8945 35.2305C36.4453 35.0195 37.0254 34.9141 37.6348 34.9141C38.2676 34.9141 38.8301 34.9902 39.3223 35.1426C39.8262 35.2832 40.2656 35.5059 40.6406 35.8105C41.0273 36.1152 41.3438 36.4961 41.5898 36.9531C41.8359 37.3984 42.0176 37.9375 42.1348 38.5703C42.2637 39.2031 42.3281 40.0059 42.3281 40.9785V47.6055C42.3281 48.4141 42.3516 49 42.3984 49.3633C42.4453 49.7266 42.5273 50.0078 42.6445 50.207C42.7617 50.4062 42.9316 50.5762 43.1543 50.7168C43.377 50.8457 43.7637 50.9863 44.3145 51.1387V52ZM51.8027 43.1055C51.8027 47.207 52.459 50.5879 53.7715 53.248C55.0957 55.9082 57.1113 57.6895 59.8184 58.5918L59.3965 59.9453C55.9629 59.043 53.332 57.0977 51.5039 54.1094C49.6758 51.1328 48.7617 47.5234 48.7617 43.2812C48.7617 39.0508 49.6758 35.4414 51.5039 32.4531C53.3438 29.4531 55.9746 27.502 59.3965 26.5996L59.8711 27.9531C57.1289 28.8555 55.0957 30.6191 53.7715 33.2441C52.459 35.8574 51.8027 39.1445 51.8027 43.1055ZM69.6797 41.8574L71.9648 38.957C72.2109 38.6406 72.4102 38.3359 72.5625 38.043C72.7148 37.7383 72.791 37.4277 72.791 37.1113C72.791 36.8418 72.6914 36.6191 72.4922 36.4434C72.293 36.2676 71.9824 36.1387 71.5605 36.0566V35.1953H77.3086V36.0566C76.8633 36.1855 76.4062 36.4375 75.9375 36.8125C75.4805 37.1875 74.918 37.791 74.25 38.623L70.6113 43.0879L74.6191 48.4844C75.1934 49.2578 75.709 49.8496 76.166 50.2598C76.623 50.6699 77.0801 50.9629 77.5371 51.1387V52H70.4707V51.1387C71.4434 51.0215 71.9297 50.6582 71.9297 50.0488C71.9297 49.8027 71.8887 49.5684 71.8066 49.3457C71.7246 49.123 71.5723 48.8652 71.3496 48.5723L68.8008 45.0215L66.0938 48.5371C65.8945 48.7949 65.7363 49.0352 65.6191 49.2578C65.5137 49.4688 65.4609 49.709 65.4609 49.9785C65.4609 50.2949 65.5664 50.5586 65.7773 50.7695C66 50.9688 66.3457 51.0918 66.8145 51.1387V52H60.9434V51.1387C61.3301 50.998 61.6758 50.8223 61.9805 50.6113C62.2969 50.4004 62.6133 50.1309 62.9297 49.8027C63.2578 49.4629 63.6855 48.9707 64.2129 48.3262L67.8691 43.791L64.125 38.6582C63.6094 37.9551 63.1992 37.4453 62.8945 37.1289C62.5898 36.8125 62.3086 36.5723 62.0508 36.4082C61.793 36.2441 61.5352 36.127 61.2773 36.0566V35.1953H68.168V36.0566C67.2422 36.1973 66.7793 36.5605 66.7793 37.1465C66.7793 37.416 66.8379 37.6855 66.9551 37.9551C67.084 38.2246 67.2773 38.5234 67.5352 38.8516L69.6797 41.8574ZM86.6777 43.1055C86.6777 39.1445 86.0215 35.8574 84.709 33.2441C83.3965 30.6191 81.3633 28.8555 78.6094 27.9531L79.084 26.5996C82.5059 27.502 85.1309 29.4531 86.959 32.4531C88.7988 35.4414 89.7188 39.0508 89.7188 43.2812C89.7188 47.5234 88.8047 51.1328 86.9766 54.1094C85.1484 57.0977 82.5176 59.043 79.084 59.9453L78.6621 58.5918C81.3691 57.6895 83.3789 55.9082 84.6914 53.248C86.0156 50.5879 86.6777 47.207 86.6777 43.1055ZM114.311 39.0449H112.623C112.365 38.3418 112.061 37.791 111.709 37.3926C111.357 36.9824 110.959 36.6953 110.514 36.5312C110.068 36.3672 109.523 36.2852 108.879 36.2852C107.941 36.2852 107.191 36.5078 106.629 36.9531C106.078 37.3867 105.803 37.9844 105.803 38.7461C105.803 39.2852 105.914 39.7305 106.137 40.082C106.359 40.4336 106.705 40.7617 107.174 41.0664C107.643 41.3711 108.469 41.7754 109.652 42.2793C110.848 42.7949 111.768 43.2695 112.412 43.7031C113.068 44.1367 113.578 44.6406 113.941 45.2148C114.316 45.7891 114.504 46.4746 114.504 47.2715C114.504 48.1973 114.346 48.9766 114.029 49.6094C113.713 50.2422 113.268 50.7578 112.693 51.1562C112.119 51.5547 111.434 51.8418 110.637 52.0176C109.852 52.1934 108.99 52.2812 108.053 52.2812C107.068 52.2812 106.113 52.2051 105.188 52.0527C104.262 51.9121 103.359 51.7246 102.48 51.4902V47.8164H104.203C104.52 48.8945 104.988 49.6797 105.609 50.1719C106.23 50.6523 107.086 50.8926 108.176 50.8926C108.598 50.8926 109.008 50.8516 109.406 50.7695C109.816 50.6758 110.18 50.5293 110.496 50.3301C110.812 50.1191 111.064 49.8379 111.252 49.4863C111.439 49.1348 111.533 48.6953 111.533 48.168C111.533 47.5703 111.416 47.084 111.182 46.709C110.947 46.334 110.584 45.9941 110.092 45.6895C109.6 45.373 108.732 44.9512 107.49 44.4238C106.424 43.9785 105.568 43.5449 104.924 43.123C104.279 42.7012 103.77 42.2031 103.395 41.6289C103.031 41.0547 102.85 40.375 102.85 39.5898C102.85 38.6289 103.107 37.7969 103.623 37.0938C104.15 36.3789 104.906 35.834 105.891 35.459C106.875 35.084 108.029 34.8965 109.354 34.8965C110.127 34.8965 110.871 34.9375 111.586 35.0195C112.312 35.0898 113.221 35.2363 114.311 35.459V39.0449ZM123.029 28.3047V31.7148H119.795V28.3047H123.029ZM118.002 51.1387C118.459 50.998 118.781 50.875 118.969 50.7695C119.168 50.6641 119.332 50.5176 119.461 50.3301C119.602 50.1426 119.707 49.8555 119.777 49.4688C119.859 49.082 119.9 48.4785 119.9 47.6582V39.9941C119.9 39.2441 119.889 38.6406 119.865 38.1836C119.842 37.7266 119.76 37.3633 119.619 37.0938C119.479 36.8125 119.262 36.6074 118.969 36.4785C118.688 36.3379 118.283 36.2207 117.756 36.127V35.1953L121.852 35.0371H122.924V47.6055C122.924 48.6133 122.971 49.3164 123.064 49.7148C123.158 50.1016 123.334 50.4004 123.592 50.6113C123.861 50.8105 124.295 50.9863 124.893 51.1387V52H118.002V51.1387ZM145.143 52H138.217V51.1387C138.674 50.998 139.002 50.875 139.201 50.7695C139.4 50.6641 139.564 50.5176 139.693 50.3301C139.834 50.1426 139.939 49.8555 140.01 49.4688C140.092 49.0703 140.133 48.4727 140.133 47.6758V43.0703C140.133 42.25 140.109 41.5059 140.062 40.8379C140.016 40.1699 139.934 39.625 139.816 39.2031C139.711 38.7695 139.576 38.4355 139.412 38.2012C139.26 37.9551 139.072 37.75 138.85 37.5859C138.639 37.4102 138.393 37.2754 138.111 37.1816C137.83 37.0762 137.461 37.0234 137.004 37.0234C136.547 37.0234 136.113 37.1172 135.703 37.3047C135.293 37.4805 134.842 37.791 134.35 38.2363C133.857 38.6816 133.5 39.1211 133.277 39.5547C133.055 39.9883 132.943 40.4863 132.943 41.0488V47.6055C132.943 48.6133 132.99 49.3164 133.084 49.7148C133.178 50.1016 133.354 50.4004 133.611 50.6113C133.881 50.8105 134.314 50.9863 134.912 51.1387V52H128.021V51.1387C128.479 50.998 128.801 50.875 128.988 50.7695C129.188 50.6641 129.352 50.5176 129.48 50.3301C129.621 50.1426 129.727 49.8555 129.797 49.4688C129.879 49.082 129.92 48.4785 129.92 47.6582V39.9941C129.92 39.2441 129.908 38.6406 129.885 38.1836C129.861 37.7266 129.779 37.3633 129.639 37.0938C129.498 36.8125 129.281 36.6074 128.988 36.4785C128.707 36.3379 128.303 36.2207 127.775 36.127V35.1953L131.889 35.0371H132.961L132.768 37.9023L133.014 37.9727C133.881 37.0938 134.578 36.4668 135.105 36.0918C135.645 35.7168 136.184 35.4297 136.723 35.2305C137.273 35.0195 137.854 34.9141 138.463 34.9141C139.096 34.9141 139.658 34.9902 140.15 35.1426C140.654 35.2832 141.094 35.5059 141.469 35.8105C141.855 36.1152 142.172 36.4961 142.418 36.9531C142.664 37.3984 142.846 37.9375 142.963 38.5703C143.092 39.2031 143.156 40.0059 143.156 40.9785V47.6055C143.156 48.4141 143.18 49 143.227 49.3633C143.273 49.7266 143.355 50.0078 143.473 50.207C143.59 50.4062 143.76 50.5762 143.982 50.7168C144.205 50.8457 144.592 50.9863 145.143 51.1387V52ZM152.631 43.1055C152.631 47.207 153.287 50.5879 154.6 53.248C155.924 55.9082 157.939 57.6895 160.646 58.5918L160.225 59.9453C156.791 59.043 154.16 57.0977 152.332 54.1094C150.504 51.1328 149.59 47.5234 149.59 43.2812C149.59 39.0508 150.504 35.4414 152.332 32.4531C154.172 29.4531 156.803 27.502 160.225 26.5996L160.699 27.9531C157.957 28.8555 155.924 30.6191 154.6 33.2441C153.287 35.8574 152.631 39.1445 152.631 43.1055ZM170.508 53.4414C169.863 54.8945 169.236 56.0723 168.627 56.9746C168.018 57.877 167.344 58.5566 166.605 59.0137C165.879 59.4707 165.012 59.6992 164.004 59.6992C163.359 59.6992 162.633 59.623 161.824 59.4707V55.9902H163.389C163.529 56.4707 163.705 56.8047 163.916 56.9922C164.127 57.1797 164.432 57.2734 164.83 57.2734C165.182 57.2734 165.492 57.2031 165.762 57.0625C166.043 56.9336 166.33 56.7051 166.623 56.377C166.928 56.0488 167.279 55.5449 167.678 54.8652C168.088 54.1855 168.545 53.3242 169.049 52.2812L164.127 39.0449C163.811 38.1895 163.553 37.5918 163.354 37.252C163.166 36.9121 162.961 36.6543 162.738 36.4785C162.516 36.3027 162.176 36.1621 161.719 36.0566V35.1953H168.873V36.0566C168.322 36.1855 167.936 36.3145 167.713 36.4434C167.49 36.5605 167.326 36.7188 167.221 36.918C167.115 37.1055 167.062 37.3516 167.062 37.6562C167.062 37.9727 167.098 38.3008 167.168 38.6406C167.25 38.9805 167.373 39.3789 167.537 39.8359L170.666 48.6426L174.182 40.2051C174.381 39.7363 174.533 39.3086 174.639 38.9219C174.756 38.5234 174.814 38.1543 174.814 37.8145C174.814 37.3105 174.674 36.9297 174.393 36.6719C174.123 36.4141 173.648 36.209 172.969 36.0566V35.1953H179.543V36.0566C179.086 36.1504 178.734 36.2969 178.488 36.4961C178.242 36.6836 177.996 36.9883 177.75 37.4102C177.504 37.8203 177.211 38.4004 176.871 39.1504L170.508 53.4414ZM188.244 43.1055C188.244 39.1445 187.588 35.8574 186.275 33.2441C184.963 30.6191 182.93 28.8555 180.176 27.9531L180.65 26.5996C184.072 27.502 186.697 29.4531 188.525 32.4531C190.365 35.4414 191.285 39.0508 191.285 43.2812C191.285 47.5234 190.371 51.1328 188.543 54.1094C186.715 57.0977 184.084 59.043 180.65 59.9453L180.229 58.5918C182.936 57.6895 184.945 55.9082 186.258 53.248C187.582 50.5879 188.244 47.207 188.244 43.1055ZM205.014 39.2383V36.9004H226.67V39.2383H205.014ZM205.014 46.5332V44.1953H226.67V46.5332H205.014ZM314.947 43.1055C314.947 47.207 315.604 50.5879 316.916 53.248C318.24 55.9082 320.256 57.6895 322.963 58.5918L322.541 59.9453C319.107 59.043 316.477 57.0977 314.648 54.1094C312.82 51.1328 311.906 47.5234 311.906 43.2812C311.906 39.0508 312.82 35.4414 314.648 32.4531C316.488 29.4531 319.119 27.502 322.541 26.5996L323.016 27.9531C320.273 28.8555 318.24 30.6191 316.916 33.2441C315.604 35.8574 314.947 39.1445 314.947 43.1055ZM338.484 35.5996V39.2734H336.252C336.053 38.5117 335.807 37.9141 335.514 37.4805C335.221 37.0352 334.881 36.7246 334.494 36.5488C334.107 36.373 333.627 36.2852 333.053 36.2852C332.232 36.2852 331.506 36.5488 330.873 37.0762C330.24 37.6035 329.736 38.4062 329.361 39.4844C328.998 40.5625 328.816 41.8809 328.816 43.4395C328.816 44.4355 328.887 45.3496 329.027 46.1816C329.168 47.002 329.408 47.7051 329.748 48.291C330.088 48.877 330.539 49.334 331.102 49.6621C331.664 49.9902 332.361 50.1543 333.193 50.1543C334.002 50.1543 334.752 49.9961 335.443 49.6797C336.146 49.3633 336.873 48.8066 337.623 48.0098L338.625 49.1699C338.027 49.8262 337.5 50.3359 337.043 50.6992C336.586 51.0508 336.094 51.3496 335.566 51.5957C335.051 51.8301 334.535 52 334.02 52.1055C333.516 52.2227 332.965 52.2812 332.367 52.2812C330.152 52.2812 328.459 51.5488 327.287 50.084C326.115 48.6074 325.529 46.4805 325.529 43.7031C325.529 41.9688 325.857 40.4336 326.514 39.0977C327.17 37.75 328.09 36.7129 329.273 35.9863C330.457 35.2598 331.822 34.8965 333.369 34.8965C334.33 34.8965 335.215 34.9551 336.023 35.0723C336.844 35.1777 337.664 35.3535 338.484 35.5996ZM348.926 52.2812C346.488 52.2812 344.625 51.5664 343.336 50.1367C342.059 48.6953 341.42 46.5684 341.42 43.7559C341.42 41.8223 341.754 40.1875 342.422 38.8516C343.102 37.5156 344.027 36.5254 345.199 35.8809C346.371 35.2246 347.707 34.8965 349.207 34.8965C351.715 34.8965 353.613 35.6289 354.902 37.0938C356.191 38.5469 356.836 40.6387 356.836 43.3691C356.836 45.3145 356.514 46.9551 355.869 48.291C355.225 49.627 354.311 50.6289 353.127 51.2969C351.943 51.9531 350.543 52.2812 348.926 52.2812ZM344.742 43.3867C344.742 45.8008 345.123 47.6582 345.885 48.959C346.658 50.248 347.76 50.8926 349.189 50.8926C349.975 50.8926 350.643 50.7051 351.193 50.3301C351.744 49.9434 352.189 49.4277 352.529 48.7832C352.881 48.1387 353.133 47.3945 353.285 46.5508C353.438 45.6953 353.514 44.8047 353.514 43.8789C353.514 42.1562 353.32 40.7266 352.934 39.5898C352.559 38.4531 352.043 37.6211 351.387 37.0938C350.73 36.5547 349.98 36.2852 349.137 36.2852C347.719 36.2852 346.629 36.9004 345.867 38.1309C345.117 39.3613 344.742 41.1133 344.742 43.3867ZM372.182 39.0449H370.494C370.236 38.3418 369.932 37.791 369.58 37.3926C369.229 36.9824 368.83 36.6953 368.385 36.5312C367.939 36.3672 367.395 36.2852 366.75 36.2852C365.812 36.2852 365.062 36.5078 364.5 36.9531C363.949 37.3867 363.674 37.9844 363.674 38.7461C363.674 39.2852 363.785 39.7305 364.008 40.082C364.23 40.4336 364.576 40.7617 365.045 41.0664C365.514 41.3711 366.34 41.7754 367.523 42.2793C368.719 42.7949 369.639 43.2695 370.283 43.7031C370.939 44.1367 371.449 44.6406 371.812 45.2148C372.188 45.7891 372.375 46.4746 372.375 47.2715C372.375 48.1973 372.217 48.9766 371.9 49.6094C371.584 50.2422 371.139 50.7578 370.564 51.1562C369.99 51.5547 369.305 51.8418 368.508 52.0176C367.723 52.1934 366.861 52.2812 365.924 52.2812C364.939 52.2812 363.984 52.2051 363.059 52.0527C362.133 51.9121 361.23 51.7246 360.352 51.4902V47.8164H362.074C362.391 48.8945 362.859 49.6797 363.48 50.1719C364.102 50.6523 364.957 50.8926 366.047 50.8926C366.469 50.8926 366.879 50.8516 367.277 50.7695C367.688 50.6758 368.051 50.5293 368.367 50.3301C368.684 50.1191 368.936 49.8379 369.123 49.4863C369.311 49.1348 369.404 48.6953 369.404 48.168C369.404 47.5703 369.287 47.084 369.053 46.709C368.818 46.334 368.455 45.9941 367.963 45.6895C367.471 45.373 366.604 44.9512 365.361 44.4238C364.295 43.9785 363.439 43.5449 362.795 43.123C362.15 42.7012 361.641 42.2031 361.266 41.6289C360.902 41.0547 360.721 40.375 360.721 39.5898C360.721 38.6289 360.979 37.7969 361.494 37.0938C362.021 36.3789 362.777 35.834 363.762 35.459C364.746 35.084 365.9 34.8965 367.225 34.8965C367.998 34.8965 368.742 34.9375 369.457 35.0195C370.184 35.0898 371.092 35.2363 372.182 35.459V39.0449ZM380.373 43.1055C380.373 47.207 381.029 50.5879 382.342 53.248C383.666 55.9082 385.682 57.6895 388.389 58.5918L387.967 59.9453C384.533 59.043 381.902 57.0977 380.074 54.1094C378.246 51.1328 377.332 47.5234 377.332 43.2812C377.332 39.0508 378.246 35.4414 380.074 32.4531C381.914 29.4531 384.545 27.502 387.967 26.5996L388.441 27.9531C385.699 28.8555 383.666 30.6191 382.342 33.2441C381.029 35.8574 380.373 39.1445 380.373 43.1055ZM398.25 41.8574L400.535 38.957C400.781 38.6406 400.98 38.3359 401.133 38.043C401.285 37.7383 401.361 37.4277 401.361 37.1113C401.361 36.8418 401.262 36.6191 401.062 36.4434C400.863 36.2676 400.553 36.1387 400.131 36.0566V35.1953H405.879V36.0566C405.434 36.1855 404.977 36.4375 404.508 36.8125C404.051 37.1875 403.488 37.791 402.82 38.623L399.182 43.0879L403.189 48.4844C403.764 49.2578 404.279 49.8496 404.736 50.2598C405.193 50.6699 405.65 50.9629 406.107 51.1387V52H399.041V51.1387C400.014 51.0215 400.5 50.6582 400.5 50.0488C400.5 49.8027 400.459 49.5684 400.377 49.3457C400.295 49.123 400.143 48.8652 399.92 48.5723L397.371 45.0215L394.664 48.5371C394.465 48.7949 394.307 49.0352 394.189 49.2578C394.084 49.4688 394.031 49.709 394.031 49.9785C394.031 50.2949 394.137 50.5586 394.348 50.7695C394.57 50.9688 394.916 51.0918 395.385 51.1387V52H389.514V51.1387C389.9 50.998 390.246 50.8223 390.551 50.6113C390.867 50.4004 391.184 50.1309 391.5 49.8027C391.828 49.4629 392.256 48.9707 392.783 48.3262L396.439 43.791L392.695 38.6582C392.18 37.9551 391.77 37.4453 391.465 37.1289C391.16 36.8125 390.879 36.5723 390.621 36.4082C390.363 36.2441 390.105 36.127 389.848 36.0566V35.1953H396.738V36.0566C395.812 36.1973 395.35 36.5605 395.35 37.1465C395.35 37.416 395.408 37.6855 395.525 37.9551C395.654 38.2246 395.848 38.5234 396.105 38.8516L398.25 41.8574ZM424.512 44.1074H416.355V41.3828H424.512V44.1074ZM443.496 53.4414C442.852 54.8945 442.225 56.0723 441.615 56.9746C441.006 57.877 440.332 58.5566 439.594 59.0137C438.867 59.4707 438 59.6992 436.992 59.6992C436.348 59.6992 435.621 59.623 434.812 59.4707V55.9902H436.377C436.518 56.4707 436.693 56.8047 436.904 56.9922C437.115 57.1797 437.42 57.2734 437.818 57.2734C438.17 57.2734 438.48 57.2031 438.75 57.0625C439.031 56.9336 439.318 56.7051 439.611 56.377C439.916 56.0488 440.268 55.5449 440.666 54.8652C441.076 54.1855 441.533 53.3242 442.037 52.2812L437.115 39.0449C436.799 38.1895 436.541 37.5918 436.342 37.252C436.154 36.9121 435.949 36.6543 435.727 36.4785C435.504 36.3027 435.164 36.1621 434.707 36.0566V35.1953H441.861V36.0566C441.311 36.1855 440.924 36.3145 440.701 36.4434C440.479 36.5605 440.314 36.7188 440.209 36.918C440.104 37.1055 440.051 37.3516 440.051 37.6562C440.051 37.9727 440.086 38.3008 440.156 38.6406C440.238 38.9805 440.361 39.3789 440.525 39.8359L443.654 48.6426L447.17 40.2051C447.369 39.7363 447.521 39.3086 447.627 38.9219C447.744 38.5234 447.803 38.1543 447.803 37.8145C447.803 37.3105 447.662 36.9297 447.381 36.6719C447.111 36.4141 446.637 36.209 445.957 36.0566V35.1953H452.531V36.0566C452.074 36.1504 451.723 36.2969 451.477 36.4961C451.23 36.6836 450.984 36.9883 450.738 37.4102C450.492 37.8203 450.199 38.4004 449.859 39.1504L443.496 53.4414ZM461.232 43.1055C461.232 39.1445 460.576 35.8574 459.264 33.2441C457.951 30.6191 455.918 28.8555 453.164 27.9531L453.639 26.5996C457.061 27.502 459.686 29.4531 461.514 32.4531C463.354 35.4414 464.273 39.0508 464.273 43.2812C464.273 47.5234 463.359 51.1328 461.531 54.1094C459.703 57.0977 457.072 59.043 453.639 59.9453L453.217 58.5918C455.924 57.6895 457.934 55.9082 459.246 53.248C460.57 50.5879 461.232 47.207 461.232 43.1055ZM485.438 44.1074H477.281V41.3828H485.438V44.1074ZM510.082 35.5996V39.2734H507.85C507.65 38.5117 507.404 37.9141 507.111 37.4805C506.818 37.0352 506.479 36.7246 506.092 36.5488C505.705 36.373 505.225 36.2852 504.65 36.2852C503.83 36.2852 503.104 36.5488 502.471 37.0762C501.838 37.6035 501.334 38.4062 500.959 39.4844C500.596 40.5625 500.414 41.8809 500.414 43.4395C500.414 44.4355 500.484 45.3496 500.625 46.1816C500.766 47.002 501.006 47.7051 501.346 48.291C501.686 48.877 502.137 49.334 502.699 49.6621C503.262 49.9902 503.959 50.1543 504.791 50.1543C505.6 50.1543 506.35 49.9961 507.041 49.6797C507.744 49.3633 508.471 48.8066 509.221 48.0098L510.223 49.1699C509.625 49.8262 509.098 50.3359 508.641 50.6992C508.184 51.0508 507.691 51.3496 507.164 51.5957C506.648 51.8301 506.133 52 505.617 52.1055C505.113 52.2227 504.562 52.2812 503.965 52.2812C501.75 52.2812 500.057 51.5488 498.885 50.084C497.713 48.6074 497.127 46.4805 497.127 43.7031C497.127 41.9688 497.455 40.4336 498.111 39.0977C498.768 37.75 499.688 36.7129 500.871 35.9863C502.055 35.2598 503.42 34.8965 504.967 34.8965C505.928 34.8965 506.812 34.9551 507.621 35.0723C508.441 35.1777 509.262 35.3535 510.082 35.5996ZM520.523 52.2812C518.086 52.2812 516.223 51.5664 514.934 50.1367C513.656 48.6953 513.018 46.5684 513.018 43.7559C513.018 41.8223 513.352 40.1875 514.02 38.8516C514.699 37.5156 515.625 36.5254 516.797 35.8809C517.969 35.2246 519.305 34.8965 520.805 34.8965C523.312 34.8965 525.211 35.6289 526.5 37.0938C527.789 38.5469 528.434 40.6387 528.434 43.3691C528.434 45.3145 528.111 46.9551 527.467 48.291C526.822 49.627 525.908 50.6289 524.725 51.2969C523.541 51.9531 522.141 52.2812 520.523 52.2812ZM516.34 43.3867C516.34 45.8008 516.721 47.6582 517.482 48.959C518.256 50.248 519.357 50.8926 520.787 50.8926C521.572 50.8926 522.24 50.7051 522.791 50.3301C523.342 49.9434 523.787 49.4277 524.127 48.7832C524.479 48.1387 524.73 47.3945 524.883 46.5508C525.035 45.6953 525.111 44.8047 525.111 43.8789C525.111 42.1562 524.918 40.7266 524.531 39.5898C524.156 38.4531 523.641 37.6211 522.984 37.0938C522.328 36.5547 521.578 36.2852 520.734 36.2852C519.316 36.2852 518.227 36.9004 517.465 38.1309C516.715 39.3613 516.34 41.1133 516.34 43.3867ZM543.779 39.0449H542.092C541.834 38.3418 541.529 37.791 541.178 37.3926C540.826 36.9824 540.428 36.6953 539.982 36.5312C539.537 36.3672 538.992 36.2852 538.348 36.2852C537.41 36.2852 536.66 36.5078 536.098 36.9531C535.547 37.3867 535.271 37.9844 535.271 38.7461C535.271 39.2852 535.383 39.7305 535.605 40.082C535.828 40.4336 536.174 40.7617 536.643 41.0664C537.111 41.3711 537.938 41.7754 539.121 42.2793C540.316 42.7949 541.236 43.2695 541.881 43.7031C542.537 44.1367 543.047 44.6406 543.41 45.2148C543.785 45.7891 543.973 46.4746 543.973 47.2715C543.973 48.1973 543.814 48.9766 543.498 49.6094C543.182 50.2422 542.736 50.7578 542.162 51.1562C541.588 51.5547 540.902 51.8418 540.105 52.0176C539.32 52.1934 538.459 52.2812 537.521 52.2812C536.537 52.2812 535.582 52.2051 534.656 52.0527C533.73 51.9121 532.828 51.7246 531.949 51.4902V47.8164H533.672C533.988 48.8945 534.457 49.6797 535.078 50.1719C535.699 50.6523 536.555 50.8926 537.645 50.8926C538.066 50.8926 538.477 50.8516 538.875 50.7695C539.285 50.6758 539.648 50.5293 539.965 50.3301C540.281 50.1191 540.533 49.8379 540.721 49.4863C540.908 49.1348 541.002 48.6953 541.002 48.168C541.002 47.5703 540.885 47.084 540.65 46.709C540.416 46.334 540.053 45.9941 539.561 45.6895C539.068 45.373 538.201 44.9512 536.959 44.4238C535.893 43.9785 535.037 43.5449 534.393 43.123C533.748 42.7012 533.238 42.2031 532.863 41.6289C532.5 41.0547 532.318 40.375 532.318 39.5898C532.318 38.6289 532.576 37.7969 533.092 37.0938C533.619 36.3789 534.375 35.834 535.359 35.459C536.344 35.084 537.498 34.8965 538.822 34.8965C539.596 34.8965 540.34 34.9375 541.055 35.0195C541.781 35.0898 542.689 35.2363 543.779 35.459V39.0449ZM551.971 43.1055C551.971 47.207 552.627 50.5879 553.939 53.248C555.264 55.9082 557.279 57.6895 559.986 58.5918L559.564 59.9453C556.131 59.043 553.5 57.0977 551.672 54.1094C549.844 51.1328 548.93 47.5234 548.93 43.2812C548.93 39.0508 549.844 35.4414 551.672 32.4531C553.512 29.4531 556.143 27.502 559.564 26.5996L560.039 27.9531C557.297 28.8555 555.264 30.6191 553.939 33.2441C552.627 35.8574 551.971 39.1445 551.971 43.1055ZM569.848 41.8574L572.133 38.957C572.379 38.6406 572.578 38.3359 572.73 38.043C572.883 37.7383 572.959 37.4277 572.959 37.1113C572.959 36.8418 572.859 36.6191 572.66 36.4434C572.461 36.2676 572.15 36.1387 571.729 36.0566V35.1953H577.477V36.0566C577.031 36.1855 576.574 36.4375 576.105 36.8125C575.648 37.1875 575.086 37.791 574.418 38.623L570.779 43.0879L574.787 48.4844C575.361 49.2578 575.877 49.8496 576.334 50.2598C576.791 50.6699 577.248 50.9629 577.705 51.1387V52H570.639V51.1387C571.611 51.0215 572.098 50.6582 572.098 50.0488C572.098 49.8027 572.057 49.5684 571.975 49.3457C571.893 49.123 571.74 48.8652 571.518 48.5723L568.969 45.0215L566.262 48.5371C566.062 48.7949 565.904 49.0352 565.787 49.2578C565.682 49.4688 565.629 49.709 565.629 49.9785C565.629 50.2949 565.734 50.5586 565.945 50.7695C566.168 50.9688 566.514 51.0918 566.982 51.1387V52H561.111V51.1387C561.498 50.998 561.844 50.8223 562.148 50.6113C562.465 50.4004 562.781 50.1309 563.098 49.8027C563.426 49.4629 563.854 48.9707 564.381 48.3262L568.037 43.791L564.293 38.6582C563.777 37.9551 563.367 37.4453 563.062 37.1289C562.758 36.8125 562.477 36.5723 562.219 36.4082C561.961 36.2441 561.703 36.127 561.445 36.0566V35.1953H568.336V36.0566C567.41 36.1973 566.947 36.5605 566.947 37.1465C566.947 37.416 567.006 37.6855 567.123 37.9551C567.252 38.2246 567.445 38.5234 567.703 38.8516L569.848 41.8574ZM600.75 42.877V53.002H598.254V42.877H588.674V40.5391H598.254V30.4141H600.75V40.5391H610.33V42.877H600.75ZM630.035 53.4414C629.391 54.8945 628.764 56.0723 628.154 56.9746C627.545 57.877 626.871 58.5566 626.133 59.0137C625.406 59.4707 624.539 59.6992 623.531 59.6992C622.887 59.6992 622.16 59.623 621.352 59.4707V55.9902H622.916C623.057 56.4707 623.232 56.8047 623.443 56.9922C623.654 57.1797 623.959 57.2734 624.357 57.2734C624.709 57.2734 625.02 57.2031 625.289 57.0625C625.57 56.9336 625.857 56.7051 626.15 56.377C626.455 56.0488 626.807 55.5449 627.205 54.8652C627.615 54.1855 628.072 53.3242 628.576 52.2812L623.654 39.0449C623.338 38.1895 623.08 37.5918 622.881 37.252C622.693 36.9121 622.488 36.6543 622.266 36.4785C622.043 36.3027 621.703 36.1621 621.246 36.0566V35.1953H628.4V36.0566C627.85 36.1855 627.463 36.3145 627.24 36.4434C627.018 36.5605 626.854 36.7188 626.748 36.918C626.643 37.1055 626.59 37.3516 626.59 37.6562C626.59 37.9727 626.625 38.3008 626.695 38.6406C626.777 38.9805 626.9 39.3789 627.064 39.8359L630.193 48.6426L633.709 40.2051C633.908 39.7363 634.061 39.3086 634.166 38.9219C634.283 38.5234 634.342 38.1543 634.342 37.8145C634.342 37.3105 634.201 36.9297 633.92 36.6719C633.65 36.4141 633.176 36.209 632.496 36.0566V35.1953H639.07V36.0566C638.613 36.1504 638.262 36.2969 638.016 36.4961C637.77 36.6836 637.523 36.9883 637.277 37.4102C637.031 37.8203 636.738 38.4004 636.398 39.1504L630.035 53.4414ZM647.771 43.1055C647.771 39.1445 647.115 35.8574 645.803 33.2441C644.49 30.6191 642.457 28.8555 639.703 27.9531L640.178 26.5996C643.6 27.502 646.225 29.4531 648.053 32.4531C649.893 35.4414 650.812 39.0508 650.812 43.2812C650.812 47.5234 649.898 51.1328 648.07 54.1094C646.242 57.0977 643.611 59.043 640.178 59.9453L639.756 58.5918C642.463 57.6895 644.473 55.9082 645.785 53.248C647.109 50.5879 647.771 47.207 647.771 43.1055ZM662.713 43.1055C662.713 39.1445 662.057 35.8574 660.744 33.2441C659.432 30.6191 657.398 28.8555 654.645 27.9531L655.119 26.5996C658.541 27.502 661.166 29.4531 662.994 32.4531C664.834 35.4414 665.754 39.0508 665.754 43.2812C665.754 47.5234 664.84 51.1328 663.012 54.1094C661.184 57.0977 658.553 59.043 655.119 59.9453L654.697 58.5918C657.404 57.6895 659.414 55.9082 660.727 53.248C662.051 50.5879 662.713 47.207 662.713 43.1055Z" fill="white"/>
<line x1="252" y1="41" x2="302" y2="41" stroke="white" stroke-width="2"/>
<path d="M280.217 26.4121C280.217 27.0918 280.252 27.6074 280.322 27.959C280.404 28.2988 280.539 28.5801 280.727 28.8027C280.926 29.0137 281.207 29.1836 281.57 29.3125C281.934 29.4297 282.391 29.5234 282.941 29.5938C283.492 29.6523 284.219 29.6934 285.121 29.7168V31H272.131V29.7168C273.432 29.6582 274.357 29.582 274.908 29.4883C275.471 29.3828 275.898 29.2305 276.191 29.0312C276.484 28.832 276.695 28.5508 276.824 28.1875C276.965 27.8242 277.035 27.2324 277.035 26.4121V12.1562C277.035 11.6875 276.953 11.3477 276.789 11.1367C276.625 10.9141 276.385 10.8027 276.068 10.8027C275.693 10.8027 275.16 10.9961 274.469 11.3828C273.777 11.7695 272.922 12.3027 271.902 12.9824L271.129 11.6289L279.355 6.72461H280.322C280.252 7.84961 280.217 9.4082 280.217 11.4004V26.4121Z" fill="white"/>
<path d="M280.34 71.1875C280.914 71.1875 281.377 71.1523 281.729 71.082C282.08 71.0117 282.361 70.8945 282.572 70.7305C282.783 70.5664 282.947 70.3555 283.064 70.0977C283.193 69.8281 283.352 69.418 283.539 68.8672H285.033L284.734 74H270.268V73.1562C270.771 71.9258 271.451 70.666 272.307 69.377C273.162 68.0879 274.375 66.5703 275.945 64.8242C277.305 63.3242 278.283 62.1875 278.881 61.4141C279.537 60.5703 280.023 59.8438 280.34 59.2344C280.668 58.6133 280.902 58.0332 281.043 57.4941C281.184 56.9434 281.254 56.3926 281.254 55.8418C281.254 54.9629 281.113 54.1895 280.832 53.5215C280.551 52.8418 280.117 52.3086 279.531 51.9219C278.957 51.5352 278.23 51.3418 277.352 51.3418C275.16 51.3418 273.684 52.5605 272.922 54.998H270.795V51.623C272.213 50.9551 273.537 50.4746 274.768 50.1816C276.01 49.877 277.123 49.7246 278.107 49.7246C280.287 49.7246 281.934 50.2051 283.047 51.166C284.16 52.1152 284.717 53.498 284.717 55.3145C284.717 55.9355 284.652 56.5098 284.523 57.0371C284.406 57.5527 284.213 58.0684 283.943 58.584C283.686 59.0879 283.334 59.6328 282.889 60.2188C282.443 60.8047 281.951 61.4023 281.412 62.0117C280.873 62.6094 279.941 63.6113 278.617 65.0176C276.391 67.373 274.756 69.4297 273.713 71.1875H280.34Z" fill="white"/>
</svg>
