<svg width="679" height="85" viewBox="0 0 679 85" fill="none" xmlns="http://www.w3.org/2000/svg">
<path d="M13.4824 39.0449H11.7949C11.5371 38.3418 11.2324 37.791 10.8809 37.3926C10.5293 36.9824 10.1309 36.6953 9.68555 36.5312C9.24023 36.3672 8.69531 36.2852 8.05078 36.2852C7.11328 36.2852 6.36328 36.5078 5.80078 36.9531C5.25 37.3867 4.97461 37.9844 4.97461 38.7461C4.97461 39.2852 5.08594 39.7305 5.30859 40.082C5.53125 40.4336 5.87695 40.7617 6.3457 41.0664C6.81445 41.3711 7.64062 41.7754 8.82422 42.2793C10.0195 42.7949 10.9395 43.2695 11.584 43.7031C12.2402 44.1367 12.75 44.6406 13.1133 45.2148C13.4883 45.7891 13.6758 46.4746 13.6758 47.2715C13.6758 48.1973 13.5176 48.9766 13.2012 49.6094C12.8848 50.2422 12.4395 50.7578 11.8652 51.1562C11.291 51.5547 10.6055 51.8418 9.80859 52.0176C9.02344 52.1934 8.16211 52.2812 7.22461 52.2812C6.24023 52.2812 5.28516 52.2051 4.35938 52.0527C3.43359 51.9121 2.53125 51.7246 1.65234 51.4902V47.8164H3.375C3.69141 48.8945 4.16016 49.6797 4.78125 50.1719C5.40234 50.6523 6.25781 50.8926 7.34766 50.8926C7.76953 50.8926 8.17969 50.8516 8.57812 50.7695C8.98828 50.6758 9.35156 50.5293 9.66797 50.3301C9.98438 50.1191 10.2363 49.8379 10.4238 49.4863C10.6113 49.1348 10.7051 48.6953 10.7051 48.168C10.7051 47.5703 10.5879 47.084 10.3535 46.709C10.1191 46.334 9.75586 45.9941 9.26367 45.6895C8.77148 45.373 7.9043 44.9512 6.66211 44.4238C5.5957 43.9785 4.74023 43.5449 4.0957 43.123C3.45117 42.7012 2.94141 42.2031 2.56641 41.6289C2.20312 41.0547 2.02148 40.375 2.02148 39.5898C2.02148 38.6289 2.2793 37.7969 2.79492 37.0938C3.32227 36.3789 4.07812 35.834 5.0625 35.459C6.04688 35.084 7.20117 34.8965 8.52539 34.8965C9.29883 34.8965 10.043 34.9375 10.7578 35.0195C11.4844 35.0898 12.3926 35.2363 13.4824 35.459V39.0449ZM22.2012 28.3047V31.7148H18.9668V28.3047H22.2012ZM17.1738 51.1387C17.6309 50.998 17.9531 50.875 18.1406 50.7695C18.3398 50.6641 18.5039 50.5176 18.6328 50.3301C18.7734 50.1426 18.8789 49.8555 18.9492 49.4688C19.0312 49.082 19.0723 48.4785 19.0723 47.6582V39.9941C19.0723 39.2441 19.0605 38.6406 19.0371 38.1836C19.0137 37.7266 18.9316 37.3633 18.791 37.0938C18.6504 36.8125 18.4336 36.6074 18.1406 36.4785C17.8594 36.3379 17.4551 36.2207 16.9277 36.127V35.1953L21.0234 35.0371H22.0957V47.6055C22.0957 48.6133 22.1426 49.3164 22.2363 49.7148C22.3301 50.1016 22.5059 50.4004 22.7637 50.6113C23.0332 50.8105 23.4668 50.9863 24.0645 51.1387V52H17.1738V51.1387ZM44.3145 52H37.3887V51.1387C37.8457 50.998 38.1738 50.875 38.373 50.7695C38.5723 50.6641 38.7363 50.5176 38.8652 50.3301C39.0059 50.1426 39.1113 49.8555 39.1816 49.4688C39.2637 49.0703 39.3047 48.4727 39.3047 47.6758V43.0703C39.3047 42.25 39.2812 41.5059 39.2344 40.8379C39.1875 40.1699 39.1055 39.625 38.9883 39.2031C38.8828 38.7695 38.748 38.4355 38.584 38.2012C38.4316 37.9551 38.2441 37.75 38.0215 37.5859C37.8105 37.4102 37.5645 37.2754 37.2832 37.1816C37.002 37.0762 36.6328 37.0234 36.1758 37.0234C35.7188 37.0234 35.2852 37.1172 34.875 37.3047C34.4648 37.4805 34.0137 37.791 33.5215 38.2363C33.0293 38.6816 32.6719 39.1211 32.4492 39.5547C32.2266 39.9883 32.1152 40.4863 32.1152 41.0488V47.6055C32.1152 48.6133 32.1621 49.3164 32.2559 49.7148C32.3496 50.1016 32.5254 50.4004 32.7832 50.6113C33.0527 50.8105 33.4863 50.9863 34.084 51.1387V52H27.1934V51.1387C27.6504 50.998 27.9727 50.875 28.1602 50.7695C28.3594 50.6641 28.5234 50.5176 28.6523 50.3301C28.793 50.1426 28.8984 49.8555 28.9688 49.4688C29.0508 49.082 29.0918 48.4785 29.0918 47.6582V39.9941C29.0918 39.2441 29.0801 38.6406 29.0566 38.1836C29.0332 37.7266 28.9512 37.3633 28.8105 37.0938C28.6699 36.8125 28.4531 36.6074 28.1602 36.4785C27.8789 36.3379 27.4746 36.2207 26.9473 36.127V35.1953L31.0605 35.0371H32.1328L31.9395 37.9023L32.1855 37.9727C33.0527 37.0938 33.75 36.4668 34.2773 36.0918C34.8164 35.7168 35.3555 35.4297 35.8945 35.2305C36.4453 35.0195 37.0254 34.9141 37.6348 34.9141C38.2676 34.9141 38.8301 34.9902 39.3223 35.1426C39.8262 35.2832 40.2656 35.5059 40.6406 35.8105C41.0273 36.1152 41.3438 36.4961 41.5898 36.9531C41.8359 37.3984 42.0176 37.9375 42.1348 38.5703C42.2637 39.2031 42.3281 40.0059 42.3281 40.9785V47.6055C42.3281 48.4141 42.3516 49 42.3984 49.3633C42.4453 49.7266 42.5273 50.0078 42.6445 50.207C42.7617 50.4062 42.9316 50.5762 43.1543 50.7168C43.377 50.8457 43.7637 50.9863 44.3145 51.1387V52ZM51.8027 43.1055C51.8027 47.207 52.459 50.5879 53.7715 53.248C55.0957 55.9082 57.1113 57.6895 59.8184 58.5918L59.3965 59.9453C55.9629 59.043 53.332 57.0977 51.5039 54.1094C49.6758 51.1328 48.7617 47.5234 48.7617 43.2812C48.7617 39.0508 49.6758 35.4414 51.5039 32.4531C53.3438 29.4531 55.9746 27.502 59.3965 26.5996L59.8711 27.9531C57.1289 28.8555 55.0957 30.6191 53.7715 33.2441C52.459 35.8574 51.8027 39.1445 51.8027 43.1055ZM69.6797 41.8574L71.9648 38.957C72.2109 38.6406 72.4102 38.3359 72.5625 38.043C72.7148 37.7383 72.791 37.4277 72.791 37.1113C72.791 36.8418 72.6914 36.6191 72.4922 36.4434C72.293 36.2676 71.9824 36.1387 71.5605 36.0566V35.1953H77.3086V36.0566C76.8633 36.1855 76.4062 36.4375 75.9375 36.8125C75.4805 37.1875 74.918 37.791 74.25 38.623L70.6113 43.0879L74.6191 48.4844C75.1934 49.2578 75.709 49.8496 76.166 50.2598C76.623 50.6699 77.0801 50.9629 77.5371 51.1387V52H70.4707V51.1387C71.4434 51.0215 71.9297 50.6582 71.9297 50.0488C71.9297 49.8027 71.8887 49.5684 71.8066 49.3457C71.7246 49.123 71.5723 48.8652 71.3496 48.5723L68.8008 45.0215L66.0938 48.5371C65.8945 48.7949 65.7363 49.0352 65.6191 49.2578C65.5137 49.4688 65.4609 49.709 65.4609 49.9785C65.4609 50.2949 65.5664 50.5586 65.7773 50.7695C66 50.9688 66.3457 51.0918 66.8145 51.1387V52H60.9434V51.1387C61.3301 50.998 61.6758 50.8223 61.9805 50.6113C62.2969 50.4004 62.6133 50.1309 62.9297 49.8027C63.2578 49.4629 63.6855 48.9707 64.2129 48.3262L67.8691 43.791L64.125 38.6582C63.6094 37.9551 63.1992 37.4453 62.8945 37.1289C62.5898 36.8125 62.3086 36.5723 62.0508 36.4082C61.793 36.2441 61.5352 36.127 61.2773 36.0566V35.1953H68.168V36.0566C67.2422 36.1973 66.7793 36.5605 66.7793 37.1465C66.7793 37.416 66.8379 37.6855 66.9551 37.9551C67.084 38.2246 67.2773 38.5234 67.5352 38.8516L69.6797 41.8574ZM86.6777 43.1055C86.6777 39.1445 86.0215 35.8574 84.709 33.2441C83.3965 30.6191 81.3633 28.8555 78.6094 27.9531L79.084 26.5996C82.5059 27.502 85.1309 29.4531 86.959 32.4531C88.7988 35.4414 89.7188 39.0508 89.7188 43.2812C89.7188 47.5234 88.8047 51.1328 86.9766 54.1094C85.1484 57.0977 82.5176 59.043 79.084 59.9453L78.6621 58.5918C81.3691 57.6895 83.3789 55.9082 84.6914 53.248C86.0156 50.5879 86.6777 47.207 86.6777 43.1055ZM115.629 35.5996V39.2734H113.396C113.197 38.5117 112.951 37.9141 112.658 37.4805C112.365 37.0352 112.025 36.7246 111.639 36.5488C111.252 36.373 110.771 36.2852 110.197 36.2852C109.377 36.2852 108.65 36.5488 108.018 37.0762C107.385 37.6035 106.881 38.4062 106.506 39.4844C106.143 40.5625 105.961 41.8809 105.961 43.4395C105.961 44.4355 106.031 45.3496 106.172 46.1816C106.312 47.002 106.553 47.7051 106.893 48.291C107.232 48.877 107.684 49.334 108.246 49.6621C108.809 49.9902 109.506 50.1543 110.338 50.1543C111.146 50.1543 111.896 49.9961 112.588 49.6797C113.291 49.3633 114.018 48.8066 114.768 48.0098L115.77 49.1699C115.172 49.8262 114.645 50.3359 114.188 50.6992C113.73 51.0508 113.238 51.3496 112.711 51.5957C112.195 51.8301 111.68 52 111.164 52.1055C110.66 52.2227 110.109 52.2812 109.512 52.2812C107.297 52.2812 105.604 51.5488 104.432 50.084C103.26 48.6074 102.674 46.4805 102.674 43.7031C102.674 41.9688 103.002 40.4336 103.658 39.0977C104.314 37.75 105.234 36.7129 106.418 35.9863C107.602 35.2598 108.967 34.8965 110.514 34.8965C111.475 34.8965 112.359 34.9551 113.168 35.0723C113.988 35.1777 114.809 35.3535 115.629 35.5996ZM126.07 52.2812C123.633 52.2812 121.77 51.5664 120.48 50.1367C119.203 48.6953 118.564 46.5684 118.564 43.7559C118.564 41.8223 118.898 40.1875 119.566 38.8516C120.246 37.5156 121.172 36.5254 122.344 35.8809C123.516 35.2246 124.852 34.8965 126.352 34.8965C128.859 34.8965 130.758 35.6289 132.047 37.0938C133.336 38.5469 133.98 40.6387 133.98 43.3691C133.98 45.3145 133.658 46.9551 133.014 48.291C132.369 49.627 131.455 50.6289 130.271 51.2969C129.088 51.9531 127.688 52.2812 126.07 52.2812ZM121.887 43.3867C121.887 45.8008 122.268 47.6582 123.029 48.959C123.803 50.248 124.904 50.8926 126.334 50.8926C127.119 50.8926 127.787 50.7051 128.338 50.3301C128.889 49.9434 129.334 49.4277 129.674 48.7832C130.025 48.1387 130.277 47.3945 130.43 46.5508C130.582 45.6953 130.658 44.8047 130.658 43.8789C130.658 42.1562 130.465 40.7266 130.078 39.5898C129.703 38.4531 129.188 37.6211 128.531 37.0938C127.875 36.5547 127.125 36.2852 126.281 36.2852C124.863 36.2852 123.773 36.9004 123.012 38.1309C122.262 39.3613 121.887 41.1133 121.887 43.3867ZM149.326 39.0449H147.639C147.381 38.3418 147.076 37.791 146.725 37.3926C146.373 36.9824 145.975 36.6953 145.529 36.5312C145.084 36.3672 144.539 36.2852 143.895 36.2852C142.957 36.2852 142.207 36.5078 141.645 36.9531C141.094 37.3867 140.818 37.9844 140.818 38.7461C140.818 39.2852 140.93 39.7305 141.152 40.082C141.375 40.4336 141.721 40.7617 142.189 41.0664C142.658 41.3711 143.484 41.7754 144.668 42.2793C145.863 42.7949 146.783 43.2695 147.428 43.7031C148.084 44.1367 148.594 44.6406 148.957 45.2148C149.332 45.7891 149.52 46.4746 149.52 47.2715C149.52 48.1973 149.361 48.9766 149.045 49.6094C148.729 50.2422 148.283 50.7578 147.709 51.1562C147.135 51.5547 146.449 51.8418 145.652 52.0176C144.867 52.1934 144.006 52.2812 143.068 52.2812C142.084 52.2812 141.129 52.2051 140.203 52.0527C139.277 51.9121 138.375 51.7246 137.496 51.4902V47.8164H139.219C139.535 48.8945 140.004 49.6797 140.625 50.1719C141.246 50.6523 142.102 50.8926 143.191 50.8926C143.613 50.8926 144.023 50.8516 144.422 50.7695C144.832 50.6758 145.195 50.5293 145.512 50.3301C145.828 50.1191 146.08 49.8379 146.268 49.4863C146.455 49.1348 146.549 48.6953 146.549 48.168C146.549 47.5703 146.432 47.084 146.197 46.709C145.963 46.334 145.6 45.9941 145.107 45.6895C144.615 45.373 143.748 44.9512 142.506 44.4238C141.439 43.9785 140.584 43.5449 139.939 43.123C139.295 42.7012 138.785 42.2031 138.41 41.6289C138.047 41.0547 137.865 40.375 137.865 39.5898C137.865 38.6289 138.123 37.7969 138.639 37.0938C139.166 36.3789 139.922 35.834 140.906 35.459C141.891 35.084 143.045 34.8965 144.369 34.8965C145.143 34.8965 145.887 34.9375 146.602 35.0195C147.328 35.0898 148.236 35.2363 149.326 35.459V39.0449ZM157.518 43.1055C157.518 47.207 158.174 50.5879 159.486 53.248C160.811 55.9082 162.826 57.6895 165.533 58.5918L165.111 59.9453C161.678 59.043 159.047 57.0977 157.219 54.1094C155.391 51.1328 154.477 47.5234 154.477 43.2812C154.477 39.0508 155.391 35.4414 157.219 32.4531C159.059 29.4531 161.689 27.502 165.111 26.5996L165.586 27.9531C162.844 28.8555 160.811 30.6191 159.486 33.2441C158.174 35.8574 157.518 39.1445 157.518 43.1055ZM175.395 53.4414C174.75 54.8945 174.123 56.0723 173.514 56.9746C172.904 57.877 172.23 58.5566 171.492 59.0137C170.766 59.4707 169.898 59.6992 168.891 59.6992C168.246 59.6992 167.52 59.623 166.711 59.4707V55.9902H168.275C168.416 56.4707 168.592 56.8047 168.803 56.9922C169.014 57.1797 169.318 57.2734 169.717 57.2734C170.068 57.2734 170.379 57.2031 170.648 57.0625C170.93 56.9336 171.217 56.7051 171.51 56.377C171.814 56.0488 172.166 55.5449 172.564 54.8652C172.975 54.1855 173.432 53.3242 173.936 52.2812L169.014 39.0449C168.697 38.1895 168.439 37.5918 168.24 37.252C168.053 36.9121 167.848 36.6543 167.625 36.4785C167.402 36.3027 167.062 36.1621 166.605 36.0566V35.1953H173.76V36.0566C173.209 36.1855 172.822 36.3145 172.6 36.4434C172.377 36.5605 172.213 36.7188 172.107 36.918C172.002 37.1055 171.949 37.3516 171.949 37.6562C171.949 37.9727 171.984 38.3008 172.055 38.6406C172.137 38.9805 172.26 39.3789 172.424 39.8359L175.553 48.6426L179.068 40.2051C179.268 39.7363 179.42 39.3086 179.525 38.9219C179.643 38.5234 179.701 38.1543 179.701 37.8145C179.701 37.3105 179.561 36.9297 179.279 36.6719C179.01 36.4141 178.535 36.209 177.855 36.0566V35.1953H184.43V36.0566C183.973 36.1504 183.621 36.2969 183.375 36.4961C183.129 36.6836 182.883 36.9883 182.637 37.4102C182.391 37.8203 182.098 38.4004 181.758 39.1504L175.395 53.4414ZM193.131 43.1055C193.131 39.1445 192.475 35.8574 191.162 33.2441C189.85 30.6191 187.816 28.8555 185.062 27.9531L185.537 26.5996C188.959 27.502 191.584 29.4531 193.412 32.4531C195.252 35.4414 196.172 39.0508 196.172 43.2812C196.172 47.5234 195.258 51.1328 193.43 54.1094C191.602 57.0977 188.971 59.043 185.537 59.9453L185.115 58.5918C187.822 57.6895 189.832 55.9082 191.145 53.248C192.469 50.5879 193.131 47.207 193.131 43.1055ZM209.9 39.2383V36.9004H231.557V39.2383H209.9ZM209.9 46.5332V44.1953H231.557V46.5332H209.9ZM319.834 43.1055C319.834 47.207 320.49 50.5879 321.803 53.248C323.127 55.9082 325.143 57.6895 327.85 58.5918L327.428 59.9453C323.994 59.043 321.363 57.0977 319.535 54.1094C317.707 51.1328 316.793 47.5234 316.793 43.2812C316.793 39.0508 317.707 35.4414 319.535 32.4531C321.375 29.4531 324.006 27.502 327.428 26.5996L327.902 27.9531C325.16 28.8555 323.127 30.6191 321.803 33.2441C320.49 35.8574 319.834 39.1445 319.834 43.1055ZM342.053 39.0449H340.365C340.107 38.3418 339.803 37.791 339.451 37.3926C339.1 36.9824 338.701 36.6953 338.256 36.5312C337.811 36.3672 337.266 36.2852 336.621 36.2852C335.684 36.2852 334.934 36.5078 334.371 36.9531C333.82 37.3867 333.545 37.9844 333.545 38.7461C333.545 39.2852 333.656 39.7305 333.879 40.082C334.102 40.4336 334.447 40.7617 334.916 41.0664C335.385 41.3711 336.211 41.7754 337.395 42.2793C338.59 42.7949 339.51 43.2695 340.154 43.7031C340.811 44.1367 341.32 44.6406 341.684 45.2148C342.059 45.7891 342.246 46.4746 342.246 47.2715C342.246 48.1973 342.088 48.9766 341.771 49.6094C341.455 50.2422 341.01 50.7578 340.436 51.1562C339.861 51.5547 339.176 51.8418 338.379 52.0176C337.594 52.1934 336.732 52.2812 335.795 52.2812C334.811 52.2812 333.855 52.2051 332.93 52.0527C332.004 51.9121 331.102 51.7246 330.223 51.4902V47.8164H331.945C332.262 48.8945 332.73 49.6797 333.352 50.1719C333.973 50.6523 334.828 50.8926 335.918 50.8926C336.34 50.8926 336.75 50.8516 337.148 50.7695C337.559 50.6758 337.922 50.5293 338.238 50.3301C338.555 50.1191 338.807 49.8379 338.994 49.4863C339.182 49.1348 339.275 48.6953 339.275 48.168C339.275 47.5703 339.158 47.084 338.924 46.709C338.689 46.334 338.326 45.9941 337.834 45.6895C337.342 45.373 336.475 44.9512 335.232 44.4238C334.166 43.9785 333.311 43.5449 332.666 43.123C332.021 42.7012 331.512 42.2031 331.137 41.6289C330.773 41.0547 330.592 40.375 330.592 39.5898C330.592 38.6289 330.85 37.7969 331.365 37.0938C331.893 36.3789 332.648 35.834 333.633 35.459C334.617 35.084 335.771 34.8965 337.096 34.8965C337.869 34.8965 338.613 34.9375 339.328 35.0195C340.055 35.0898 340.963 35.2363 342.053 35.459V39.0449ZM350.771 28.3047V31.7148H347.537V28.3047H350.771ZM345.744 51.1387C346.201 50.998 346.523 50.875 346.711 50.7695C346.91 50.6641 347.074 50.5176 347.203 50.3301C347.344 50.1426 347.449 49.8555 347.52 49.4688C347.602 49.082 347.643 48.4785 347.643 47.6582V39.9941C347.643 39.2441 347.631 38.6406 347.607 38.1836C347.584 37.7266 347.502 37.3633 347.361 37.0938C347.221 36.8125 347.004 36.6074 346.711 36.4785C346.43 36.3379 346.025 36.2207 345.498 36.127V35.1953L349.594 35.0371H350.666V47.6055C350.666 48.6133 350.713 49.3164 350.807 49.7148C350.9 50.1016 351.076 50.4004 351.334 50.6113C351.604 50.8105 352.037 50.9863 352.635 51.1387V52H345.744V51.1387ZM372.885 52H365.959V51.1387C366.416 50.998 366.744 50.875 366.943 50.7695C367.143 50.6641 367.307 50.5176 367.436 50.3301C367.576 50.1426 367.682 49.8555 367.752 49.4688C367.834 49.0703 367.875 48.4727 367.875 47.6758V43.0703C367.875 42.25 367.852 41.5059 367.805 40.8379C367.758 40.1699 367.676 39.625 367.559 39.2031C367.453 38.7695 367.318 38.4355 367.154 38.2012C367.002 37.9551 366.814 37.75 366.592 37.5859C366.381 37.4102 366.135 37.2754 365.854 37.1816C365.572 37.0762 365.203 37.0234 364.746 37.0234C364.289 37.0234 363.855 37.1172 363.445 37.3047C363.035 37.4805 362.584 37.791 362.092 38.2363C361.6 38.6816 361.242 39.1211 361.02 39.5547C360.797 39.9883 360.686 40.4863 360.686 41.0488V47.6055C360.686 48.6133 360.732 49.3164 360.826 49.7148C360.92 50.1016 361.096 50.4004 361.354 50.6113C361.623 50.8105 362.057 50.9863 362.654 51.1387V52H355.764V51.1387C356.221 50.998 356.543 50.875 356.73 50.7695C356.93 50.6641 357.094 50.5176 357.223 50.3301C357.363 50.1426 357.469 49.8555 357.539 49.4688C357.621 49.082 357.662 48.4785 357.662 47.6582V39.9941C357.662 39.2441 357.65 38.6406 357.627 38.1836C357.604 37.7266 357.521 37.3633 357.381 37.0938C357.24 36.8125 357.023 36.6074 356.73 36.4785C356.449 36.3379 356.045 36.2207 355.518 36.127V35.1953L359.631 35.0371H360.703L360.51 37.9023L360.756 37.9727C361.623 37.0938 362.32 36.4668 362.848 36.0918C363.387 35.7168 363.926 35.4297 364.465 35.2305C365.016 35.0195 365.596 34.9141 366.205 34.9141C366.838 34.9141 367.4 34.9902 367.893 35.1426C368.396 35.2832 368.836 35.5059 369.211 35.8105C369.598 36.1152 369.914 36.4961 370.16 36.9531C370.406 37.3984 370.588 37.9375 370.705 38.5703C370.834 39.2031 370.898 40.0059 370.898 40.9785V47.6055C370.898 48.4141 370.922 49 370.969 49.3633C371.016 49.7266 371.098 50.0078 371.215 50.207C371.332 50.4062 371.502 50.5762 371.725 50.7168C371.947 50.8457 372.334 50.9863 372.885 51.1387V52ZM380.373 43.1055C380.373 47.207 381.029 50.5879 382.342 53.248C383.666 55.9082 385.682 57.6895 388.389 58.5918L387.967 59.9453C384.533 59.043 381.902 57.0977 380.074 54.1094C378.246 51.1328 377.332 47.5234 377.332 43.2812C377.332 39.0508 378.246 35.4414 380.074 32.4531C381.914 29.4531 384.545 27.502 387.967 26.5996L388.441 27.9531C385.699 28.8555 383.666 30.6191 382.342 33.2441C381.029 35.8574 380.373 39.1445 380.373 43.1055ZM398.25 41.8574L400.535 38.957C400.781 38.6406 400.98 38.3359 401.133 38.043C401.285 37.7383 401.361 37.4277 401.361 37.1113C401.361 36.8418 401.262 36.6191 401.062 36.4434C400.863 36.2676 400.553 36.1387 400.131 36.0566V35.1953H405.879V36.0566C405.434 36.1855 404.977 36.4375 404.508 36.8125C404.051 37.1875 403.488 37.791 402.82 38.623L399.182 43.0879L403.189 48.4844C403.764 49.2578 404.279 49.8496 404.736 50.2598C405.193 50.6699 405.65 50.9629 406.107 51.1387V52H399.041V51.1387C400.014 51.0215 400.5 50.6582 400.5 50.0488C400.5 49.8027 400.459 49.5684 400.377 49.3457C400.295 49.123 400.143 48.8652 399.92 48.5723L397.371 45.0215L394.664 48.5371C394.465 48.7949 394.307 49.0352 394.189 49.2578C394.084 49.4688 394.031 49.709 394.031 49.9785C394.031 50.2949 394.137 50.5586 394.348 50.7695C394.57 50.9688 394.916 51.0918 395.385 51.1387V52H389.514V51.1387C389.9 50.998 390.246 50.8223 390.551 50.6113C390.867 50.4004 391.184 50.1309 391.5 49.8027C391.828 49.4629 392.256 48.9707 392.783 48.3262L396.439 43.791L392.695 38.6582C392.18 37.9551 391.77 37.4453 391.465 37.1289C391.16 36.8125 390.879 36.5723 390.621 36.4082C390.363 36.2441 390.105 36.127 389.848 36.0566V35.1953H396.738V36.0566C395.812 36.1973 395.35 36.5605 395.35 37.1465C395.35 37.416 395.408 37.6855 395.525 37.9551C395.654 38.2246 395.848 38.5234 396.105 38.8516L398.25 41.8574ZM424.512 44.1074H416.355V41.3828H424.512V44.1074ZM443.496 53.4414C442.852 54.8945 442.225 56.0723 441.615 56.9746C441.006 57.877 440.332 58.5566 439.594 59.0137C438.867 59.4707 438 59.6992 436.992 59.6992C436.348 59.6992 435.621 59.623 434.812 59.4707V55.9902H436.377C436.518 56.4707 436.693 56.8047 436.904 56.9922C437.115 57.1797 437.42 57.2734 437.818 57.2734C438.17 57.2734 438.48 57.2031 438.75 57.0625C439.031 56.9336 439.318 56.7051 439.611 56.377C439.916 56.0488 440.268 55.5449 440.666 54.8652C441.076 54.1855 441.533 53.3242 442.037 52.2812L437.115 39.0449C436.799 38.1895 436.541 37.5918 436.342 37.252C436.154 36.9121 435.949 36.6543 435.727 36.4785C435.504 36.3027 435.164 36.1621 434.707 36.0566V35.1953H441.861V36.0566C441.311 36.1855 440.924 36.3145 440.701 36.4434C440.479 36.5605 440.314 36.7188 440.209 36.918C440.104 37.1055 440.051 37.3516 440.051 37.6562C440.051 37.9727 440.086 38.3008 440.156 38.6406C440.238 38.9805 440.361 39.3789 440.525 39.8359L443.654 48.6426L447.17 40.2051C447.369 39.7363 447.521 39.3086 447.627 38.9219C447.744 38.5234 447.803 38.1543 447.803 37.8145C447.803 37.3105 447.662 36.9297 447.381 36.6719C447.111 36.4141 446.637 36.209 445.957 36.0566V35.1953H452.531V36.0566C452.074 36.1504 451.723 36.2969 451.477 36.4961C451.23 36.6836 450.984 36.9883 450.738 37.4102C450.492 37.8203 450.199 38.4004 449.859 39.1504L443.496 53.4414ZM461.232 43.1055C461.232 39.1445 460.576 35.8574 459.264 33.2441C457.951 30.6191 455.918 28.8555 453.164 27.9531L453.639 26.5996C457.061 27.502 459.686 29.4531 461.514 32.4531C463.354 35.4414 464.273 39.0508 464.273 43.2812C464.273 47.5234 463.359 51.1328 461.531 54.1094C459.703 57.0977 457.072 59.043 453.639 59.9453L453.217 58.5918C455.924 57.6895 457.934 55.9082 459.246 53.248C460.57 50.5879 461.232 47.207 461.232 43.1055ZM490.078 42.877V53.002H487.582V42.877H478.002V40.5391H487.582V30.4141H490.078V40.5391H499.658V42.877H490.078ZM523.705 39.0449H522.018C521.76 38.3418 521.455 37.791 521.104 37.3926C520.752 36.9824 520.354 36.6953 519.908 36.5312C519.463 36.3672 518.918 36.2852 518.273 36.2852C517.336 36.2852 516.586 36.5078 516.023 36.9531C515.473 37.3867 515.197 37.9844 515.197 38.7461C515.197 39.2852 515.309 39.7305 515.531 40.082C515.754 40.4336 516.1 40.7617 516.568 41.0664C517.037 41.3711 517.863 41.7754 519.047 42.2793C520.242 42.7949 521.162 43.2695 521.807 43.7031C522.463 44.1367 522.973 44.6406 523.336 45.2148C523.711 45.7891 523.898 46.4746 523.898 47.2715C523.898 48.1973 523.74 48.9766 523.424 49.6094C523.107 50.2422 522.662 50.7578 522.088 51.1562C521.514 51.5547 520.828 51.8418 520.031 52.0176C519.246 52.1934 518.385 52.2812 517.447 52.2812C516.463 52.2812 515.508 52.2051 514.582 52.0527C513.656 51.9121 512.754 51.7246 511.875 51.4902V47.8164H513.598C513.914 48.8945 514.383 49.6797 515.004 50.1719C515.625 50.6523 516.48 50.8926 517.57 50.8926C517.992 50.8926 518.402 50.8516 518.801 50.7695C519.211 50.6758 519.574 50.5293 519.891 50.3301C520.207 50.1191 520.459 49.8379 520.646 49.4863C520.834 49.1348 520.928 48.6953 520.928 48.168C520.928 47.5703 520.811 47.084 520.576 46.709C520.342 46.334 519.979 45.9941 519.486 45.6895C518.994 45.373 518.127 44.9512 516.885 44.4238C515.818 43.9785 514.963 43.5449 514.318 43.123C513.674 42.7012 513.164 42.2031 512.789 41.6289C512.426 41.0547 512.244 40.375 512.244 39.5898C512.244 38.6289 512.502 37.7969 513.018 37.0938C513.545 36.3789 514.301 35.834 515.285 35.459C516.27 35.084 517.424 34.8965 518.748 34.8965C519.521 34.8965 520.266 34.9375 520.98 35.0195C521.707 35.0898 522.615 35.2363 523.705 35.459V39.0449ZM532.424 28.3047V31.7148H529.189V28.3047H532.424ZM527.396 51.1387C527.854 50.998 528.176 50.875 528.363 50.7695C528.562 50.6641 528.727 50.5176 528.855 50.3301C528.996 50.1426 529.102 49.8555 529.172 49.4688C529.254 49.082 529.295 48.4785 529.295 47.6582V39.9941C529.295 39.2441 529.283 38.6406 529.26 38.1836C529.236 37.7266 529.154 37.3633 529.014 37.0938C528.873 36.8125 528.656 36.6074 528.363 36.4785C528.082 36.3379 527.678 36.2207 527.15 36.127V35.1953L531.246 35.0371H532.318V47.6055C532.318 48.6133 532.365 49.3164 532.459 49.7148C532.553 50.1016 532.729 50.4004 532.986 50.6113C533.256 50.8105 533.689 50.9863 534.287 51.1387V52H527.396V51.1387ZM554.537 52H547.611V51.1387C548.068 50.998 548.396 50.875 548.596 50.7695C548.795 50.6641 548.959 50.5176 549.088 50.3301C549.229 50.1426 549.334 49.8555 549.404 49.4688C549.486 49.0703 549.527 48.4727 549.527 47.6758V43.0703C549.527 42.25 549.504 41.5059 549.457 40.8379C549.41 40.1699 549.328 39.625 549.211 39.2031C549.105 38.7695 548.971 38.4355 548.807 38.2012C548.654 37.9551 548.467 37.75 548.244 37.5859C548.033 37.4102 547.787 37.2754 547.506 37.1816C547.225 37.0762 546.855 37.0234 546.398 37.0234C545.941 37.0234 545.508 37.1172 545.098 37.3047C544.688 37.4805 544.236 37.791 543.744 38.2363C543.252 38.6816 542.895 39.1211 542.672 39.5547C542.449 39.9883 542.338 40.4863 542.338 41.0488V47.6055C542.338 48.6133 542.385 49.3164 542.479 49.7148C542.572 50.1016 542.748 50.4004 543.006 50.6113C543.275 50.8105 543.709 50.9863 544.307 51.1387V52H537.416V51.1387C537.873 50.998 538.195 50.875 538.383 50.7695C538.582 50.6641 538.746 50.5176 538.875 50.3301C539.016 50.1426 539.121 49.8555 539.191 49.4688C539.273 49.082 539.314 48.4785 539.314 47.6582V39.9941C539.314 39.2441 539.303 38.6406 539.279 38.1836C539.256 37.7266 539.174 37.3633 539.033 37.0938C538.893 36.8125 538.676 36.6074 538.383 36.4785C538.102 36.3379 537.697 36.2207 537.17 36.127V35.1953L541.283 35.0371H542.355L542.162 37.9023L542.408 37.9727C543.275 37.0938 543.973 36.4668 544.5 36.0918C545.039 35.7168 545.578 35.4297 546.117 35.2305C546.668 35.0195 547.248 34.9141 547.857 34.9141C548.49 34.9141 549.053 34.9902 549.545 35.1426C550.049 35.2832 550.488 35.5059 550.863 35.8105C551.25 36.1152 551.566 36.4961 551.812 36.9531C552.059 37.3984 552.24 37.9375 552.357 38.5703C552.486 39.2031 552.551 40.0059 552.551 40.9785V47.6055C552.551 48.4141 552.574 49 552.621 49.3633C552.668 49.7266 552.75 50.0078 552.867 50.207C552.984 50.4062 553.154 50.5762 553.377 50.7168C553.6 50.8457 553.986 50.9863 554.537 51.1387V52ZM562.025 43.1055C562.025 47.207 562.682 50.5879 563.994 53.248C565.318 55.9082 567.334 57.6895 570.041 58.5918L569.619 59.9453C566.186 59.043 563.555 57.0977 561.727 54.1094C559.898 51.1328 558.984 47.5234 558.984 43.2812C558.984 39.0508 559.898 35.4414 561.727 32.4531C563.566 29.4531 566.197 27.502 569.619 26.5996L570.094 27.9531C567.352 28.8555 565.318 30.6191 563.994 33.2441C562.682 35.8574 562.025 39.1445 562.025 43.1055ZM579.902 41.8574L582.188 38.957C582.434 38.6406 582.633 38.3359 582.785 38.043C582.938 37.7383 583.014 37.4277 583.014 37.1113C583.014 36.8418 582.914 36.6191 582.715 36.4434C582.516 36.2676 582.205 36.1387 581.783 36.0566V35.1953H587.531V36.0566C587.086 36.1855 586.629 36.4375 586.16 36.8125C585.703 37.1875 585.141 37.791 584.473 38.623L580.834 43.0879L584.842 48.4844C585.416 49.2578 585.932 49.8496 586.389 50.2598C586.846 50.6699 587.303 50.9629 587.76 51.1387V52H580.693V51.1387C581.666 51.0215 582.152 50.6582 582.152 50.0488C582.152 49.8027 582.111 49.5684 582.029 49.3457C581.947 49.123 581.795 48.8652 581.572 48.5723L579.023 45.0215L576.316 48.5371C576.117 48.7949 575.959 49.0352 575.842 49.2578C575.736 49.4688 575.684 49.709 575.684 49.9785C575.684 50.2949 575.789 50.5586 576 50.7695C576.223 50.9688 576.568 51.0918 577.037 51.1387V52H571.166V51.1387C571.553 50.998 571.898 50.8223 572.203 50.6113C572.52 50.4004 572.836 50.1309 573.152 49.8027C573.48 49.4629 573.908 48.9707 574.436 48.3262L578.092 43.791L574.348 38.6582C573.832 37.9551 573.422 37.4453 573.117 37.1289C572.812 36.8125 572.531 36.5723 572.273 36.4082C572.016 36.2441 571.758 36.127 571.5 36.0566V35.1953H578.391V36.0566C577.465 36.1973 577.002 36.5605 577.002 37.1465C577.002 37.416 577.061 37.6855 577.178 37.9551C577.307 38.2246 577.5 38.5234 577.758 38.8516L579.902 41.8574ZM610.805 42.877V53.002H608.309V42.877H598.729V40.5391H608.309V30.4141H610.805V40.5391H620.385V42.877H610.805ZM640.09 53.4414C639.445 54.8945 638.818 56.0723 638.209 56.9746C637.6 57.877 636.926 58.5566 636.188 59.0137C635.461 59.4707 634.594 59.6992 633.586 59.6992C632.941 59.6992 632.215 59.623 631.406 59.4707V55.9902H632.971C633.111 56.4707 633.287 56.8047 633.498 56.9922C633.709 57.1797 634.014 57.2734 634.412 57.2734C634.764 57.2734 635.074 57.2031 635.344 57.0625C635.625 56.9336 635.912 56.7051 636.205 56.377C636.51 56.0488 636.861 55.5449 637.26 54.8652C637.67 54.1855 638.127 53.3242 638.631 52.2812L633.709 39.0449C633.393 38.1895 633.135 37.5918 632.936 37.252C632.748 36.9121 632.543 36.6543 632.32 36.4785C632.098 36.3027 631.758 36.1621 631.301 36.0566V35.1953H638.455V36.0566C637.904 36.1855 637.518 36.3145 637.295 36.4434C637.072 36.5605 636.908 36.7188 636.803 36.918C636.697 37.1055 636.645 37.3516 636.645 37.6562C636.645 37.9727 636.68 38.3008 636.75 38.6406C636.832 38.9805 636.955 39.3789 637.119 39.8359L640.248 48.6426L643.764 40.2051C643.963 39.7363 644.115 39.3086 644.221 38.9219C644.338 38.5234 644.396 38.1543 644.396 37.8145C644.396 37.3105 644.256 36.9297 643.975 36.6719C643.705 36.4141 643.23 36.209 642.551 36.0566V35.1953H649.125V36.0566C648.668 36.1504 648.316 36.2969 648.07 36.4961C647.824 36.6836 647.578 36.9883 647.332 37.4102C647.086 37.8203 646.793 38.4004 646.453 39.1504L640.09 53.4414ZM657.826 43.1055C657.826 39.1445 657.17 35.8574 655.857 33.2441C654.545 30.6191 652.512 28.8555 649.758 27.9531L650.232 26.5996C653.654 27.502 656.279 29.4531 658.107 32.4531C659.947 35.4414 660.867 39.0508 660.867 43.2812C660.867 47.5234 659.953 51.1328 658.125 54.1094C656.297 57.0977 653.666 59.043 650.232 59.9453L649.811 58.5918C652.518 57.6895 654.527 55.9082 655.84 53.248C657.164 50.5879 657.826 47.207 657.826 43.1055ZM672.768 43.1055C672.768 39.1445 672.111 35.8574 670.799 33.2441C669.486 30.6191 667.453 28.8555 664.699 27.9531L665.174 26.5996C668.596 27.502 671.221 29.4531 673.049 32.4531C674.889 35.4414 675.809 39.0508 675.809 43.2812C675.809 47.5234 674.895 51.1328 673.066 54.1094C671.238 57.0977 668.607 59.043 665.174 59.9453L664.752 58.5918C667.459 57.6895 669.469 55.9082 670.781 53.248C672.105 50.5879 672.768 47.207 672.768 43.1055Z" fill="white"/>
<line x1="252" y1="41" x2="302" y2="41" stroke="white" stroke-width="2"/>
<path d="M280.217 26.4121C280.217 27.0918 280.252 27.6074 280.322 27.959C280.404 28.2988 280.539 28.5801 280.727 28.8027C280.926 29.0137 281.207 29.1836 281.57 29.3125C281.934 29.4297 282.391 29.5234 282.941 29.5938C283.492 29.6523 284.219 29.6934 285.121 29.7168V31H272.131V29.7168C273.432 29.6582 274.357 29.582 274.908 29.4883C275.471 29.3828 275.898 29.2305 276.191 29.0312C276.484 28.832 276.695 28.5508 276.824 28.1875C276.965 27.8242 277.035 27.2324 277.035 26.4121V12.1562C277.035 11.6875 276.953 11.3477 276.789 11.1367C276.625 10.9141 276.385 10.8027 276.068 10.8027C275.693 10.8027 275.16 10.9961 274.469 11.3828C273.777 11.7695 272.922 12.3027 271.902 12.9824L271.129 11.6289L279.355 6.72461H280.322C280.252 7.84961 280.217 9.4082 280.217 11.4004V26.4121Z" fill="white"/>
<path d="M280.34 71.1875C280.914 71.1875 281.377 71.1523 281.729 71.082C282.08 71.0117 282.361 70.8945 282.572 70.7305C282.783 70.5664 282.947 70.3555 283.064 70.0977C283.193 69.8281 283.352 69.418 283.539 68.8672H285.033L284.734 74H270.268V73.1562C270.771 71.9258 271.451 70.666 272.307 69.377C273.162 68.0879 274.375 66.5703 275.945 64.8242C277.305 63.3242 278.283 62.1875 278.881 61.4141C279.537 60.5703 280.023 59.8438 280.34 59.2344C280.668 58.6133 280.902 58.0332 281.043 57.4941C281.184 56.9434 281.254 56.3926 281.254 55.8418C281.254 54.9629 281.113 54.1895 280.832 53.5215C280.551 52.8418 280.117 52.3086 279.531 51.9219C278.957 51.5352 278.23 51.3418 277.352 51.3418C275.16 51.3418 273.684 52.5605 272.922 54.998H270.795V51.623C272.213 50.9551 273.537 50.4746 274.768 50.1816C276.01 49.877 277.123 49.7246 278.107 49.7246C280.287 49.7246 281.934 50.2051 283.047 51.166C284.16 52.1152 284.717 53.498 284.717 55.3145C284.717 55.9355 284.652 56.5098 284.523 57.0371C284.406 57.5527 284.213 58.0684 283.943 58.584C283.686 59.0879 283.334 59.6328 282.889 60.2188C282.443 60.8047 281.951 61.4023 281.412 62.0117C280.873 62.6094 279.941 63.6113 278.617 65.0176C276.391 67.373 274.756 69.4297 273.713 71.1875H280.34Z" fill="white"/>
</svg>
