<svg width="694" height="85" viewBox="0 0 694 85" fill="none" xmlns="http://www.w3.org/2000/svg">
<path d="M14.8008 35.5996V39.2734H12.5684C12.3691 38.5117 12.123 37.9141 11.8301 37.4805C11.5371 37.0352 11.1973 36.7246 10.8105 36.5488C10.4238 36.373 9.94336 36.2852 9.36914 36.2852C8.54883 36.2852 7.82227 36.5488 7.18945 37.0762C6.55664 37.6035 6.05273 38.4062 5.67773 39.4844C5.31445 40.5625 5.13281 41.8809 5.13281 43.4395C5.13281 44.4355 5.20312 45.3496 5.34375 46.1816C5.48438 47.002 5.72461 47.7051 6.06445 48.291C6.4043 48.877 6.85547 49.334 7.41797 49.6621C7.98047 49.9902 8.67773 50.1543 9.50977 50.1543C10.3184 50.1543 11.0684 49.9961 11.7598 49.6797C12.4629 49.3633 13.1895 48.8066 13.9395 48.0098L14.9414 49.1699C14.3438 49.8262 13.8164 50.3359 13.3594 50.6992C12.9023 51.0508 12.4102 51.3496 11.8828 51.5957C11.3672 51.8301 10.8516 52 10.3359 52.1055C9.83203 52.2227 9.28125 52.2812 8.68359 52.2812C6.46875 52.2812 4.77539 51.5488 3.60352 50.084C2.43164 48.6074 1.8457 46.4805 1.8457 43.7031C1.8457 41.9688 2.17383 40.4336 2.83008 39.0977C3.48633 37.75 4.40625 36.7129 5.58984 35.9863C6.77344 35.2598 8.13867 34.8965 9.68555 34.8965C10.6465 34.8965 11.5312 34.9551 12.3398 35.0723C13.1602 35.1777 13.9805 35.3535 14.8008 35.5996ZM25.2422 52.2812C22.8047 52.2812 20.9414 51.5664 19.6523 50.1367C18.375 48.6953 17.7363 46.5684 17.7363 43.7559C17.7363 41.8223 18.0703 40.1875 18.7383 38.8516C19.418 37.5156 20.3438 36.5254 21.5156 35.8809C22.6875 35.2246 24.0234 34.8965 25.5234 34.8965C28.0312 34.8965 29.9297 35.6289 31.2188 37.0938C32.5078 38.5469 33.1523 40.6387 33.1523 43.3691C33.1523 45.3145 32.8301 46.9551 32.1855 48.291C31.541 49.627 30.627 50.6289 29.4434 51.2969C28.2598 51.9531 26.8594 52.2812 25.2422 52.2812ZM21.0586 43.3867C21.0586 45.8008 21.4395 47.6582 22.2012 48.959C22.9746 50.248 24.0762 50.8926 25.5059 50.8926C26.291 50.8926 26.959 50.7051 27.5098 50.3301C28.0605 49.9434 28.5059 49.4277 28.8457 48.7832C29.1973 48.1387 29.4492 47.3945 29.6016 46.5508C29.7539 45.6953 29.8301 44.8047 29.8301 43.8789C29.8301 42.1562 29.6367 40.7266 29.25 39.5898C28.875 38.4531 28.3594 37.6211 27.7031 37.0938C27.0469 36.5547 26.2969 36.2852 25.4531 36.2852C24.0352 36.2852 22.9453 36.9004 22.1836 38.1309C21.4336 39.3613 21.0586 41.1133 21.0586 43.3867ZM48.498 39.0449H46.8105C46.5527 38.3418 46.248 37.791 45.8965 37.3926C45.5449 36.9824 45.1465 36.6953 44.7012 36.5312C44.2559 36.3672 43.7109 36.2852 43.0664 36.2852C42.1289 36.2852 41.3789 36.5078 40.8164 36.9531C40.2656 37.3867 39.9902 37.9844 39.9902 38.7461C39.9902 39.2852 40.1016 39.7305 40.3242 40.082C40.5469 40.4336 40.8926 40.7617 41.3613 41.0664C41.8301 41.3711 42.6562 41.7754 43.8398 42.2793C45.0352 42.7949 45.9551 43.2695 46.5996 43.7031C47.2559 44.1367 47.7656 44.6406 48.1289 45.2148C48.5039 45.7891 48.6914 46.4746 48.6914 47.2715C48.6914 48.1973 48.5332 48.9766 48.2168 49.6094C47.9004 50.2422 47.4551 50.7578 46.8809 51.1562C46.3066 51.5547 45.6211 51.8418 44.8242 52.0176C44.0391 52.1934 43.1777 52.2812 42.2402 52.2812C41.2559 52.2812 40.3008 52.2051 39.375 52.0527C38.4492 51.9121 37.5469 51.7246 36.668 51.4902V47.8164H38.3906C38.707 48.8945 39.1758 49.6797 39.7969 50.1719C40.418 50.6523 41.2734 50.8926 42.3633 50.8926C42.7852 50.8926 43.1953 50.8516 43.5938 50.7695C44.0039 50.6758 44.3672 50.5293 44.6836 50.3301C45 50.1191 45.252 49.8379 45.4395 49.4863C45.627 49.1348 45.7207 48.6953 45.7207 48.168C45.7207 47.5703 45.6035 47.084 45.3691 46.709C45.1348 46.334 44.7715 45.9941 44.2793 45.6895C43.7871 45.373 42.9199 44.9512 41.6777 44.4238C40.6113 43.9785 39.7559 43.5449 39.1113 43.123C38.4668 42.7012 37.957 42.2031 37.582 41.6289C37.2188 41.0547 37.0371 40.375 37.0371 39.5898C37.0371 38.6289 37.2949 37.7969 37.8105 37.0938C38.3379 36.3789 39.0938 35.834 40.0781 35.459C41.0625 35.084 42.2168 34.8965 43.541 34.8965C44.3145 34.8965 45.0586 34.9375 45.7734 35.0195C46.5 35.0898 47.4082 35.2363 48.498 35.459V39.0449ZM56.6895 43.1055C56.6895 47.207 57.3457 50.5879 58.6582 53.248C59.9824 55.9082 61.998 57.6895 64.7051 58.5918L64.2832 59.9453C60.8496 59.043 58.2188 57.0977 56.3906 54.1094C54.5625 51.1328 53.6484 47.5234 53.6484 43.2812C53.6484 39.0508 54.5625 35.4414 56.3906 32.4531C58.2305 29.4531 60.8613 27.502 64.2832 26.5996L64.7578 27.9531C62.0156 28.8555 59.9824 30.6191 58.6582 33.2441C57.3457 35.8574 56.6895 39.1445 56.6895 43.1055ZM74.5664 41.8574L76.8516 38.957C77.0977 38.6406 77.2969 38.3359 77.4492 38.043C77.6016 37.7383 77.6777 37.4277 77.6777 37.1113C77.6777 36.8418 77.5781 36.6191 77.3789 36.4434C77.1797 36.2676 76.8691 36.1387 76.4473 36.0566V35.1953H82.1953V36.0566C81.75 36.1855 81.293 36.4375 80.8242 36.8125C80.3672 37.1875 79.8047 37.791 79.1367 38.623L75.498 43.0879L79.5059 48.4844C80.0801 49.2578 80.5957 49.8496 81.0527 50.2598C81.5098 50.6699 81.9668 50.9629 82.4238 51.1387V52H75.3574V51.1387C76.3301 51.0215 76.8164 50.6582 76.8164 50.0488C76.8164 49.8027 76.7754 49.5684 76.6934 49.3457C76.6113 49.123 76.459 48.8652 76.2363 48.5723L73.6875 45.0215L70.9805 48.5371C70.7812 48.7949 70.623 49.0352 70.5059 49.2578C70.4004 49.4688 70.3477 49.709 70.3477 49.9785C70.3477 50.2949 70.4531 50.5586 70.6641 50.7695C70.8867 50.9688 71.2324 51.0918 71.7012 51.1387V52H65.8301V51.1387C66.2168 50.998 66.5625 50.8223 66.8672 50.6113C67.1836 50.4004 67.5 50.1309 67.8164 49.8027C68.1445 49.4629 68.5723 48.9707 69.0996 48.3262L72.7559 43.791L69.0117 38.6582C68.4961 37.9551 68.0859 37.4453 67.7812 37.1289C67.4766 36.8125 67.1953 36.5723 66.9375 36.4082C66.6797 36.2441 66.4219 36.127 66.1641 36.0566V35.1953H73.0547V36.0566C72.1289 36.1973 71.666 36.5605 71.666 37.1465C71.666 37.416 71.7246 37.6855 71.8418 37.9551C71.9707 38.2246 72.1641 38.5234 72.4219 38.8516L74.5664 41.8574ZM91.5645 43.1055C91.5645 39.1445 90.9082 35.8574 89.5957 33.2441C88.2832 30.6191 86.25 28.8555 83.4961 27.9531L83.9707 26.5996C87.3926 27.502 90.0176 29.4531 91.8457 32.4531C93.6855 35.4414 94.6055 39.0508 94.6055 43.2812C94.6055 47.5234 93.6914 51.1328 91.8633 54.1094C90.0352 57.0977 87.4043 59.043 83.9707 59.9453L83.5488 58.5918C86.2559 57.6895 88.2656 55.9082 89.5781 53.248C90.9023 50.5879 91.5645 47.207 91.5645 43.1055ZM120.516 35.5996V39.2734H118.283C118.084 38.5117 117.838 37.9141 117.545 37.4805C117.252 37.0352 116.912 36.7246 116.525 36.5488C116.139 36.373 115.658 36.2852 115.084 36.2852C114.264 36.2852 113.537 36.5488 112.904 37.0762C112.271 37.6035 111.768 38.4062 111.393 39.4844C111.029 40.5625 110.848 41.8809 110.848 43.4395C110.848 44.4355 110.918 45.3496 111.059 46.1816C111.199 47.002 111.439 47.7051 111.779 48.291C112.119 48.877 112.57 49.334 113.133 49.6621C113.695 49.9902 114.393 50.1543 115.225 50.1543C116.033 50.1543 116.783 49.9961 117.475 49.6797C118.178 49.3633 118.904 48.8066 119.654 48.0098L120.656 49.1699C120.059 49.8262 119.531 50.3359 119.074 50.6992C118.617 51.0508 118.125 51.3496 117.598 51.5957C117.082 51.8301 116.566 52 116.051 52.1055C115.547 52.2227 114.996 52.2812 114.398 52.2812C112.184 52.2812 110.49 51.5488 109.318 50.084C108.146 48.6074 107.561 46.4805 107.561 43.7031C107.561 41.9688 107.889 40.4336 108.545 39.0977C109.201 37.75 110.121 36.7129 111.305 35.9863C112.488 35.2598 113.854 34.8965 115.4 34.8965C116.361 34.8965 117.246 34.9551 118.055 35.0723C118.875 35.1777 119.695 35.3535 120.516 35.5996ZM130.957 52.2812C128.52 52.2812 126.656 51.5664 125.367 50.1367C124.09 48.6953 123.451 46.5684 123.451 43.7559C123.451 41.8223 123.785 40.1875 124.453 38.8516C125.133 37.5156 126.059 36.5254 127.23 35.8809C128.402 35.2246 129.738 34.8965 131.238 34.8965C133.746 34.8965 135.645 35.6289 136.934 37.0938C138.223 38.5469 138.867 40.6387 138.867 43.3691C138.867 45.3145 138.545 46.9551 137.9 48.291C137.256 49.627 136.342 50.6289 135.158 51.2969C133.975 51.9531 132.574 52.2812 130.957 52.2812ZM126.773 43.3867C126.773 45.8008 127.154 47.6582 127.916 48.959C128.689 50.248 129.791 50.8926 131.221 50.8926C132.006 50.8926 132.674 50.7051 133.225 50.3301C133.775 49.9434 134.221 49.4277 134.561 48.7832C134.912 48.1387 135.164 47.3945 135.316 46.5508C135.469 45.6953 135.545 44.8047 135.545 43.8789C135.545 42.1562 135.352 40.7266 134.965 39.5898C134.59 38.4531 134.074 37.6211 133.418 37.0938C132.762 36.5547 132.012 36.2852 131.168 36.2852C129.75 36.2852 128.66 36.9004 127.898 38.1309C127.148 39.3613 126.773 41.1133 126.773 43.3867ZM154.213 39.0449H152.525C152.268 38.3418 151.963 37.791 151.611 37.3926C151.26 36.9824 150.861 36.6953 150.416 36.5312C149.971 36.3672 149.426 36.2852 148.781 36.2852C147.844 36.2852 147.094 36.5078 146.531 36.9531C145.98 37.3867 145.705 37.9844 145.705 38.7461C145.705 39.2852 145.816 39.7305 146.039 40.082C146.262 40.4336 146.607 40.7617 147.076 41.0664C147.545 41.3711 148.371 41.7754 149.555 42.2793C150.75 42.7949 151.67 43.2695 152.314 43.7031C152.971 44.1367 153.48 44.6406 153.844 45.2148C154.219 45.7891 154.406 46.4746 154.406 47.2715C154.406 48.1973 154.248 48.9766 153.932 49.6094C153.615 50.2422 153.17 50.7578 152.596 51.1562C152.021 51.5547 151.336 51.8418 150.539 52.0176C149.754 52.1934 148.893 52.2812 147.955 52.2812C146.971 52.2812 146.016 52.2051 145.09 52.0527C144.164 51.9121 143.262 51.7246 142.383 51.4902V47.8164H144.105C144.422 48.8945 144.891 49.6797 145.512 50.1719C146.133 50.6523 146.988 50.8926 148.078 50.8926C148.5 50.8926 148.91 50.8516 149.309 50.7695C149.719 50.6758 150.082 50.5293 150.398 50.3301C150.715 50.1191 150.967 49.8379 151.154 49.4863C151.342 49.1348 151.436 48.6953 151.436 48.168C151.436 47.5703 151.318 47.084 151.084 46.709C150.85 46.334 150.486 45.9941 149.994 45.6895C149.502 45.373 148.635 44.9512 147.393 44.4238C146.326 43.9785 145.471 43.5449 144.826 43.123C144.182 42.7012 143.672 42.2031 143.297 41.6289C142.934 41.0547 142.752 40.375 142.752 39.5898C142.752 38.6289 143.01 37.7969 143.525 37.0938C144.053 36.3789 144.809 35.834 145.793 35.459C146.777 35.084 147.932 34.8965 149.256 34.8965C150.029 34.8965 150.773 34.9375 151.488 35.0195C152.215 35.0898 153.123 35.2363 154.213 35.459V39.0449ZM162.404 43.1055C162.404 47.207 163.061 50.5879 164.373 53.248C165.697 55.9082 167.713 57.6895 170.42 58.5918L169.998 59.9453C166.564 59.043 163.934 57.0977 162.105 54.1094C160.277 51.1328 159.363 47.5234 159.363 43.2812C159.363 39.0508 160.277 35.4414 162.105 32.4531C163.945 29.4531 166.576 27.502 169.998 26.5996L170.473 27.9531C167.73 28.8555 165.697 30.6191 164.373 33.2441C163.061 35.8574 162.404 39.1445 162.404 43.1055ZM180.281 53.4414C179.637 54.8945 179.01 56.0723 178.4 56.9746C177.791 57.877 177.117 58.5566 176.379 59.0137C175.652 59.4707 174.785 59.6992 173.777 59.6992C173.133 59.6992 172.406 59.623 171.598 59.4707V55.9902H173.162C173.303 56.4707 173.479 56.8047 173.689 56.9922C173.9 57.1797 174.205 57.2734 174.604 57.2734C174.955 57.2734 175.266 57.2031 175.535 57.0625C175.816 56.9336 176.104 56.7051 176.396 56.377C176.701 56.0488 177.053 55.5449 177.451 54.8652C177.861 54.1855 178.318 53.3242 178.822 52.2812L173.9 39.0449C173.584 38.1895 173.326 37.5918 173.127 37.252C172.939 36.9121 172.734 36.6543 172.512 36.4785C172.289 36.3027 171.949 36.1621 171.492 36.0566V35.1953H178.646V36.0566C178.096 36.1855 177.709 36.3145 177.486 36.4434C177.264 36.5605 177.1 36.7188 176.994 36.918C176.889 37.1055 176.836 37.3516 176.836 37.6562C176.836 37.9727 176.871 38.3008 176.941 38.6406C177.023 38.9805 177.146 39.3789 177.311 39.8359L180.439 48.6426L183.955 40.2051C184.154 39.7363 184.307 39.3086 184.412 38.9219C184.529 38.5234 184.588 38.1543 184.588 37.8145C184.588 37.3105 184.447 36.9297 184.166 36.6719C183.896 36.4141 183.422 36.209 182.742 36.0566V35.1953H189.316V36.0566C188.859 36.1504 188.508 36.2969 188.262 36.4961C188.016 36.6836 187.77 36.9883 187.523 37.4102C187.277 37.8203 186.984 38.4004 186.645 39.1504L180.281 53.4414ZM198.018 43.1055C198.018 39.1445 197.361 35.8574 196.049 33.2441C194.736 30.6191 192.703 28.8555 189.949 27.9531L190.424 26.5996C193.846 27.502 196.471 29.4531 198.299 32.4531C200.139 35.4414 201.059 39.0508 201.059 43.2812C201.059 47.5234 200.145 51.1328 198.316 54.1094C196.488 57.0977 193.857 59.043 190.424 59.9453L190.002 58.5918C192.709 57.6895 194.719 55.9082 196.031 53.248C197.355 50.5879 198.018 47.207 198.018 43.1055ZM214.787 39.2383V36.9004H236.443V39.2383H214.787ZM214.787 46.5332V44.1953H236.443V46.5332H214.787ZM324.721 43.1055C324.721 47.207 325.377 50.5879 326.689 53.248C328.014 55.9082 330.029 57.6895 332.736 58.5918L332.314 59.9453C328.881 59.043 326.25 57.0977 324.422 54.1094C322.594 51.1328 321.68 47.5234 321.68 43.2812C321.68 39.0508 322.594 35.4414 324.422 32.4531C326.262 29.4531 328.893 27.502 332.314 26.5996L332.789 27.9531C330.047 28.8555 328.014 30.6191 326.689 33.2441C325.377 35.8574 324.721 39.1445 324.721 43.1055ZM348.258 35.5996V39.2734H346.025C345.826 38.5117 345.58 37.9141 345.287 37.4805C344.994 37.0352 344.654 36.7246 344.268 36.5488C343.881 36.373 343.4 36.2852 342.826 36.2852C342.006 36.2852 341.279 36.5488 340.646 37.0762C340.014 37.6035 339.51 38.4062 339.135 39.4844C338.771 40.5625 338.59 41.8809 338.59 43.4395C338.59 44.4355 338.66 45.3496 338.801 46.1816C338.941 47.002 339.182 47.7051 339.521 48.291C339.861 48.877 340.312 49.334 340.875 49.6621C341.438 49.9902 342.135 50.1543 342.967 50.1543C343.775 50.1543 344.525 49.9961 345.217 49.6797C345.92 49.3633 346.646 48.8066 347.396 48.0098L348.398 49.1699C347.801 49.8262 347.273 50.3359 346.816 50.6992C346.359 51.0508 345.867 51.3496 345.34 51.5957C344.824 51.8301 344.309 52 343.793 52.1055C343.289 52.2227 342.738 52.2812 342.141 52.2812C339.926 52.2812 338.232 51.5488 337.061 50.084C335.889 48.6074 335.303 46.4805 335.303 43.7031C335.303 41.9688 335.631 40.4336 336.287 39.0977C336.943 37.75 337.863 36.7129 339.047 35.9863C340.23 35.2598 341.596 34.8965 343.143 34.8965C344.104 34.8965 344.988 34.9551 345.797 35.0723C346.617 35.1777 347.438 35.3535 348.258 35.5996ZM358.699 52.2812C356.262 52.2812 354.398 51.5664 353.109 50.1367C351.832 48.6953 351.193 46.5684 351.193 43.7559C351.193 41.8223 351.527 40.1875 352.195 38.8516C352.875 37.5156 353.801 36.5254 354.973 35.8809C356.145 35.2246 357.48 34.8965 358.98 34.8965C361.488 34.8965 363.387 35.6289 364.676 37.0938C365.965 38.5469 366.609 40.6387 366.609 43.3691C366.609 45.3145 366.287 46.9551 365.643 48.291C364.998 49.627 364.084 50.6289 362.9 51.2969C361.717 51.9531 360.316 52.2812 358.699 52.2812ZM354.516 43.3867C354.516 45.8008 354.896 47.6582 355.658 48.959C356.432 50.248 357.533 50.8926 358.963 50.8926C359.748 50.8926 360.416 50.7051 360.967 50.3301C361.518 49.9434 361.963 49.4277 362.303 48.7832C362.654 48.1387 362.906 47.3945 363.059 46.5508C363.211 45.6953 363.287 44.8047 363.287 43.8789C363.287 42.1562 363.094 40.7266 362.707 39.5898C362.332 38.4531 361.816 37.6211 361.16 37.0938C360.504 36.5547 359.754 36.2852 358.91 36.2852C357.492 36.2852 356.402 36.9004 355.641 38.1309C354.891 39.3613 354.516 41.1133 354.516 43.3867ZM381.955 39.0449H380.268C380.01 38.3418 379.705 37.791 379.354 37.3926C379.002 36.9824 378.604 36.6953 378.158 36.5312C377.713 36.3672 377.168 36.2852 376.523 36.2852C375.586 36.2852 374.836 36.5078 374.273 36.9531C373.723 37.3867 373.447 37.9844 373.447 38.7461C373.447 39.2852 373.559 39.7305 373.781 40.082C374.004 40.4336 374.35 40.7617 374.818 41.0664C375.287 41.3711 376.113 41.7754 377.297 42.2793C378.492 42.7949 379.412 43.2695 380.057 43.7031C380.713 44.1367 381.223 44.6406 381.586 45.2148C381.961 45.7891 382.148 46.4746 382.148 47.2715C382.148 48.1973 381.99 48.9766 381.674 49.6094C381.357 50.2422 380.912 50.7578 380.338 51.1562C379.764 51.5547 379.078 51.8418 378.281 52.0176C377.496 52.1934 376.635 52.2812 375.697 52.2812C374.713 52.2812 373.758 52.2051 372.832 52.0527C371.906 51.9121 371.004 51.7246 370.125 51.4902V47.8164H371.848C372.164 48.8945 372.633 49.6797 373.254 50.1719C373.875 50.6523 374.73 50.8926 375.82 50.8926C376.242 50.8926 376.652 50.8516 377.051 50.7695C377.461 50.6758 377.824 50.5293 378.141 50.3301C378.457 50.1191 378.709 49.8379 378.896 49.4863C379.084 49.1348 379.178 48.6953 379.178 48.168C379.178 47.5703 379.061 47.084 378.826 46.709C378.592 46.334 378.229 45.9941 377.736 45.6895C377.244 45.373 376.377 44.9512 375.135 44.4238C374.068 43.9785 373.213 43.5449 372.568 43.123C371.924 42.7012 371.414 42.2031 371.039 41.6289C370.676 41.0547 370.494 40.375 370.494 39.5898C370.494 38.6289 370.752 37.7969 371.268 37.0938C371.795 36.3789 372.551 35.834 373.535 35.459C374.52 35.084 375.674 34.8965 376.998 34.8965C377.771 34.8965 378.516 34.9375 379.23 35.0195C379.957 35.0898 380.865 35.2363 381.955 35.459V39.0449ZM390.146 43.1055C390.146 47.207 390.803 50.5879 392.115 53.248C393.439 55.9082 395.455 57.6895 398.162 58.5918L397.74 59.9453C394.307 59.043 391.676 57.0977 389.848 54.1094C388.02 51.1328 387.105 47.5234 387.105 43.2812C387.105 39.0508 388.02 35.4414 389.848 32.4531C391.688 29.4531 394.318 27.502 397.74 26.5996L398.215 27.9531C395.473 28.8555 393.439 30.6191 392.115 33.2441C390.803 35.8574 390.146 39.1445 390.146 43.1055ZM408.023 41.8574L410.309 38.957C410.555 38.6406 410.754 38.3359 410.906 38.043C411.059 37.7383 411.135 37.4277 411.135 37.1113C411.135 36.8418 411.035 36.6191 410.836 36.4434C410.637 36.2676 410.326 36.1387 409.904 36.0566V35.1953H415.652V36.0566C415.207 36.1855 414.75 36.4375 414.281 36.8125C413.824 37.1875 413.262 37.791 412.594 38.623L408.955 43.0879L412.963 48.4844C413.537 49.2578 414.053 49.8496 414.51 50.2598C414.967 50.6699 415.424 50.9629 415.881 51.1387V52H408.814V51.1387C409.787 51.0215 410.273 50.6582 410.273 50.0488C410.273 49.8027 410.232 49.5684 410.15 49.3457C410.068 49.123 409.916 48.8652 409.693 48.5723L407.145 45.0215L404.438 48.5371C404.238 48.7949 404.08 49.0352 403.963 49.2578C403.857 49.4688 403.805 49.709 403.805 49.9785C403.805 50.2949 403.91 50.5586 404.121 50.7695C404.344 50.9688 404.689 51.0918 405.158 51.1387V52H399.287V51.1387C399.674 50.998 400.02 50.8223 400.324 50.6113C400.641 50.4004 400.957 50.1309 401.273 49.8027C401.602 49.4629 402.029 48.9707 402.557 48.3262L406.213 43.791L402.469 38.6582C401.953 37.9551 401.543 37.4453 401.238 37.1289C400.934 36.8125 400.652 36.5723 400.395 36.4082C400.137 36.2441 399.879 36.127 399.621 36.0566V35.1953H406.512V36.0566C405.586 36.1973 405.123 36.5605 405.123 37.1465C405.123 37.416 405.182 37.6855 405.299 37.9551C405.428 38.2246 405.621 38.5234 405.879 38.8516L408.023 41.8574ZM434.285 44.1074H426.129V41.3828H434.285V44.1074ZM453.27 53.4414C452.625 54.8945 451.998 56.0723 451.389 56.9746C450.779 57.877 450.105 58.5566 449.367 59.0137C448.641 59.4707 447.773 59.6992 446.766 59.6992C446.121 59.6992 445.395 59.623 444.586 59.4707V55.9902H446.15C446.291 56.4707 446.467 56.8047 446.678 56.9922C446.889 57.1797 447.193 57.2734 447.592 57.2734C447.943 57.2734 448.254 57.2031 448.523 57.0625C448.805 56.9336 449.092 56.7051 449.385 56.377C449.689 56.0488 450.041 55.5449 450.439 54.8652C450.85 54.1855 451.307 53.3242 451.811 52.2812L446.889 39.0449C446.572 38.1895 446.314 37.5918 446.115 37.252C445.928 36.9121 445.723 36.6543 445.5 36.4785C445.277 36.3027 444.938 36.1621 444.48 36.0566V35.1953H451.635V36.0566C451.084 36.1855 450.697 36.3145 450.475 36.4434C450.252 36.5605 450.088 36.7188 449.982 36.918C449.877 37.1055 449.824 37.3516 449.824 37.6562C449.824 37.9727 449.859 38.3008 449.93 38.6406C450.012 38.9805 450.135 39.3789 450.299 39.8359L453.428 48.6426L456.943 40.2051C457.143 39.7363 457.295 39.3086 457.4 38.9219C457.518 38.5234 457.576 38.1543 457.576 37.8145C457.576 37.3105 457.436 36.9297 457.154 36.6719C456.885 36.4141 456.41 36.209 455.73 36.0566V35.1953H462.305V36.0566C461.848 36.1504 461.496 36.2969 461.25 36.4961C461.004 36.6836 460.758 36.9883 460.512 37.4102C460.266 37.8203 459.973 38.4004 459.633 39.1504L453.27 53.4414ZM471.006 43.1055C471.006 39.1445 470.35 35.8574 469.037 33.2441C467.725 30.6191 465.691 28.8555 462.938 27.9531L463.412 26.5996C466.834 27.502 469.459 29.4531 471.287 32.4531C473.127 35.4414 474.047 39.0508 474.047 43.2812C474.047 47.5234 473.133 51.1328 471.305 54.1094C469.477 57.0977 466.846 59.043 463.412 59.9453L462.99 58.5918C465.697 57.6895 467.707 55.9082 469.02 53.248C470.344 50.5879 471.006 47.207 471.006 43.1055ZM499.852 42.877V53.002H497.355V42.877H487.775V40.5391H497.355V30.4141H499.852V40.5391H509.432V42.877H499.852ZM534.797 35.5996V39.2734H532.564C532.365 38.5117 532.119 37.9141 531.826 37.4805C531.533 37.0352 531.193 36.7246 530.807 36.5488C530.42 36.373 529.939 36.2852 529.365 36.2852C528.545 36.2852 527.818 36.5488 527.186 37.0762C526.553 37.6035 526.049 38.4062 525.674 39.4844C525.311 40.5625 525.129 41.8809 525.129 43.4395C525.129 44.4355 525.199 45.3496 525.34 46.1816C525.48 47.002 525.721 47.7051 526.061 48.291C526.4 48.877 526.852 49.334 527.414 49.6621C527.977 49.9902 528.674 50.1543 529.506 50.1543C530.314 50.1543 531.064 49.9961 531.756 49.6797C532.459 49.3633 533.186 48.8066 533.936 48.0098L534.938 49.1699C534.34 49.8262 533.812 50.3359 533.355 50.6992C532.898 51.0508 532.406 51.3496 531.879 51.5957C531.363 51.8301 530.848 52 530.332 52.1055C529.828 52.2227 529.277 52.2812 528.68 52.2812C526.465 52.2812 524.771 51.5488 523.6 50.084C522.428 48.6074 521.842 46.4805 521.842 43.7031C521.842 41.9688 522.17 40.4336 522.826 39.0977C523.482 37.75 524.402 36.7129 525.586 35.9863C526.77 35.2598 528.135 34.8965 529.682 34.8965C530.643 34.8965 531.527 34.9551 532.336 35.0723C533.156 35.1777 533.977 35.3535 534.797 35.5996ZM545.238 52.2812C542.801 52.2812 540.938 51.5664 539.648 50.1367C538.371 48.6953 537.732 46.5684 537.732 43.7559C537.732 41.8223 538.066 40.1875 538.734 38.8516C539.414 37.5156 540.34 36.5254 541.512 35.8809C542.684 35.2246 544.02 34.8965 545.52 34.8965C548.027 34.8965 549.926 35.6289 551.215 37.0938C552.504 38.5469 553.148 40.6387 553.148 43.3691C553.148 45.3145 552.826 46.9551 552.182 48.291C551.537 49.627 550.623 50.6289 549.439 51.2969C548.256 51.9531 546.855 52.2812 545.238 52.2812ZM541.055 43.3867C541.055 45.8008 541.436 47.6582 542.197 48.959C542.971 50.248 544.072 50.8926 545.502 50.8926C546.287 50.8926 546.955 50.7051 547.506 50.3301C548.057 49.9434 548.502 49.4277 548.842 48.7832C549.193 48.1387 549.445 47.3945 549.598 46.5508C549.75 45.6953 549.826 44.8047 549.826 43.8789C549.826 42.1562 549.633 40.7266 549.246 39.5898C548.871 38.4531 548.355 37.6211 547.699 37.0938C547.043 36.5547 546.293 36.2852 545.449 36.2852C544.031 36.2852 542.941 36.9004 542.18 38.1309C541.43 39.3613 541.055 41.1133 541.055 43.3867ZM568.494 39.0449H566.807C566.549 38.3418 566.244 37.791 565.893 37.3926C565.541 36.9824 565.143 36.6953 564.697 36.5312C564.252 36.3672 563.707 36.2852 563.062 36.2852C562.125 36.2852 561.375 36.5078 560.812 36.9531C560.262 37.3867 559.986 37.9844 559.986 38.7461C559.986 39.2852 560.098 39.7305 560.32 40.082C560.543 40.4336 560.889 40.7617 561.357 41.0664C561.826 41.3711 562.652 41.7754 563.836 42.2793C565.031 42.7949 565.951 43.2695 566.596 43.7031C567.252 44.1367 567.762 44.6406 568.125 45.2148C568.5 45.7891 568.688 46.4746 568.688 47.2715C568.688 48.1973 568.529 48.9766 568.213 49.6094C567.896 50.2422 567.451 50.7578 566.877 51.1562C566.303 51.5547 565.617 51.8418 564.82 52.0176C564.035 52.1934 563.174 52.2812 562.236 52.2812C561.252 52.2812 560.297 52.2051 559.371 52.0527C558.445 51.9121 557.543 51.7246 556.664 51.4902V47.8164H558.387C558.703 48.8945 559.172 49.6797 559.793 50.1719C560.414 50.6523 561.27 50.8926 562.359 50.8926C562.781 50.8926 563.191 50.8516 563.59 50.7695C564 50.6758 564.363 50.5293 564.68 50.3301C564.996 50.1191 565.248 49.8379 565.436 49.4863C565.623 49.1348 565.717 48.6953 565.717 48.168C565.717 47.5703 565.6 47.084 565.365 46.709C565.131 46.334 564.768 45.9941 564.275 45.6895C563.783 45.373 562.916 44.9512 561.674 44.4238C560.607 43.9785 559.752 43.5449 559.107 43.123C558.463 42.7012 557.953 42.2031 557.578 41.6289C557.215 41.0547 557.033 40.375 557.033 39.5898C557.033 38.6289 557.291 37.7969 557.807 37.0938C558.334 36.3789 559.09 35.834 560.074 35.459C561.059 35.084 562.213 34.8965 563.537 34.8965C564.311 34.8965 565.055 34.9375 565.77 35.0195C566.496 35.0898 567.404 35.2363 568.494 35.459V39.0449ZM576.686 43.1055C576.686 47.207 577.342 50.5879 578.654 53.248C579.979 55.9082 581.994 57.6895 584.701 58.5918L584.279 59.9453C580.846 59.043 578.215 57.0977 576.387 54.1094C574.559 51.1328 573.645 47.5234 573.645 43.2812C573.645 39.0508 574.559 35.4414 576.387 32.4531C578.227 29.4531 580.857 27.502 584.279 26.5996L584.754 27.9531C582.012 28.8555 579.979 30.6191 578.654 33.2441C577.342 35.8574 576.686 39.1445 576.686 43.1055ZM594.562 41.8574L596.848 38.957C597.094 38.6406 597.293 38.3359 597.445 38.043C597.598 37.7383 597.674 37.4277 597.674 37.1113C597.674 36.8418 597.574 36.6191 597.375 36.4434C597.176 36.2676 596.865 36.1387 596.443 36.0566V35.1953H602.191V36.0566C601.746 36.1855 601.289 36.4375 600.82 36.8125C600.363 37.1875 599.801 37.791 599.133 38.623L595.494 43.0879L599.502 48.4844C600.076 49.2578 600.592 49.8496 601.049 50.2598C601.506 50.6699 601.963 50.9629 602.42 51.1387V52H595.354V51.1387C596.326 51.0215 596.812 50.6582 596.812 50.0488C596.812 49.8027 596.771 49.5684 596.689 49.3457C596.607 49.123 596.455 48.8652 596.232 48.5723L593.684 45.0215L590.977 48.5371C590.777 48.7949 590.619 49.0352 590.502 49.2578C590.396 49.4688 590.344 49.709 590.344 49.9785C590.344 50.2949 590.449 50.5586 590.66 50.7695C590.883 50.9688 591.229 51.0918 591.697 51.1387V52H585.826V51.1387C586.213 50.998 586.559 50.8223 586.863 50.6113C587.18 50.4004 587.496 50.1309 587.812 49.8027C588.141 49.4629 588.568 48.9707 589.096 48.3262L592.752 43.791L589.008 38.6582C588.492 37.9551 588.082 37.4453 587.777 37.1289C587.473 36.8125 587.191 36.5723 586.934 36.4082C586.676 36.2441 586.418 36.127 586.16 36.0566V35.1953H593.051V36.0566C592.125 36.1973 591.662 36.5605 591.662 37.1465C591.662 37.416 591.721 37.6855 591.838 37.9551C591.967 38.2246 592.16 38.5234 592.418 38.8516L594.562 41.8574ZM625.465 42.877V53.002H622.969V42.877H613.389V40.5391H622.969V30.4141H625.465V40.5391H635.045V42.877H625.465ZM654.75 53.4414C654.105 54.8945 653.479 56.0723 652.869 56.9746C652.26 57.877 651.586 58.5566 650.848 59.0137C650.121 59.4707 649.254 59.6992 648.246 59.6992C647.602 59.6992 646.875 59.623 646.066 59.4707V55.9902H647.631C647.771 56.4707 647.947 56.8047 648.158 56.9922C648.369 57.1797 648.674 57.2734 649.072 57.2734C649.424 57.2734 649.734 57.2031 650.004 57.0625C650.285 56.9336 650.572 56.7051 650.865 56.377C651.17 56.0488 651.521 55.5449 651.92 54.8652C652.33 54.1855 652.787 53.3242 653.291 52.2812L648.369 39.0449C648.053 38.1895 647.795 37.5918 647.596 37.252C647.408 36.9121 647.203 36.6543 646.98 36.4785C646.758 36.3027 646.418 36.1621 645.961 36.0566V35.1953H653.115V36.0566C652.564 36.1855 652.178 36.3145 651.955 36.4434C651.732 36.5605 651.568 36.7188 651.463 36.918C651.357 37.1055 651.305 37.3516 651.305 37.6562C651.305 37.9727 651.34 38.3008 651.41 38.6406C651.492 38.9805 651.615 39.3789 651.779 39.8359L654.908 48.6426L658.424 40.2051C658.623 39.7363 658.775 39.3086 658.881 38.9219C658.998 38.5234 659.057 38.1543 659.057 37.8145C659.057 37.3105 658.916 36.9297 658.635 36.6719C658.365 36.4141 657.891 36.209 657.211 36.0566V35.1953H663.785V36.0566C663.328 36.1504 662.977 36.2969 662.73 36.4961C662.484 36.6836 662.238 36.9883 661.992 37.4102C661.746 37.8203 661.453 38.4004 661.113 39.1504L654.75 53.4414ZM672.486 43.1055C672.486 39.1445 671.83 35.8574 670.518 33.2441C669.205 30.6191 667.172 28.8555 664.418 27.9531L664.893 26.5996C668.314 27.502 670.939 29.4531 672.768 32.4531C674.607 35.4414 675.527 39.0508 675.527 43.2812C675.527 47.5234 674.613 51.1328 672.785 54.1094C670.957 57.0977 668.326 59.043 664.893 59.9453L664.471 58.5918C667.178 57.6895 669.188 55.9082 670.5 53.248C671.824 50.5879 672.486 47.207 672.486 43.1055ZM687.428 43.1055C687.428 39.1445 686.771 35.8574 685.459 33.2441C684.146 30.6191 682.113 28.8555 679.359 27.9531L679.834 26.5996C683.256 27.502 685.881 29.4531 687.709 32.4531C689.549 35.4414 690.469 39.0508 690.469 43.2812C690.469 47.5234 689.555 51.1328 687.727 54.1094C685.898 57.0977 683.268 59.043 679.834 59.9453L679.412 58.5918C682.119 57.6895 684.129 55.9082 685.441 53.248C686.766 50.5879 687.428 47.207 687.428 43.1055Z" fill="white"/>
<line x1="252" y1="41" x2="302" y2="41" stroke="white" stroke-width="2"/>
<path d="M280.217 26.4121C280.217 27.0918 280.252 27.6074 280.322 27.959C280.404 28.2988 280.539 28.5801 280.727 28.8027C280.926 29.0137 281.207 29.1836 281.57 29.3125C281.934 29.4297 282.391 29.5234 282.941 29.5938C283.492 29.6523 284.219 29.6934 285.121 29.7168V31H272.131V29.7168C273.432 29.6582 274.357 29.582 274.908 29.4883C275.471 29.3828 275.898 29.2305 276.191 29.0312C276.484 28.832 276.695 28.5508 276.824 28.1875C276.965 27.8242 277.035 27.2324 277.035 26.4121V12.1562C277.035 11.6875 276.953 11.3477 276.789 11.1367C276.625 10.9141 276.385 10.8027 276.068 10.8027C275.693 10.8027 275.16 10.9961 274.469 11.3828C273.777 11.7695 272.922 12.3027 271.902 12.9824L271.129 11.6289L279.355 6.72461H280.322C280.252 7.84961 280.217 9.4082 280.217 11.4004V26.4121Z" fill="white"/>
<path d="M280.34 71.1875C280.914 71.1875 281.377 71.1523 281.729 71.082C282.08 71.0117 282.361 70.8945 282.572 70.7305C282.783 70.5664 282.947 70.3555 283.064 70.0977C283.193 69.8281 283.352 69.418 283.539 68.8672H285.033L284.734 74H270.268V73.1562C270.771 71.9258 271.451 70.666 272.307 69.377C273.162 68.0879 274.375 66.5703 275.945 64.8242C277.305 63.3242 278.283 62.1875 278.881 61.4141C279.537 60.5703 280.023 59.8438 280.34 59.2344C280.668 58.6133 280.902 58.0332 281.043 57.4941C281.184 56.9434 281.254 56.3926 281.254 55.8418C281.254 54.9629 281.113 54.1895 280.832 53.5215C280.551 52.8418 280.117 52.3086 279.531 51.9219C278.957 51.5352 278.23 51.3418 277.352 51.3418C275.16 51.3418 273.684 52.5605 272.922 54.998H270.795V51.623C272.213 50.9551 273.537 50.4746 274.768 50.1816C276.01 49.877 277.123 49.7246 278.107 49.7246C280.287 49.7246 281.934 50.2051 283.047 51.166C284.16 52.1152 284.717 53.498 284.717 55.3145C284.717 55.9355 284.652 56.5098 284.523 57.0371C284.406 57.5527 284.213 58.0684 283.943 58.584C283.686 59.0879 283.334 59.6328 282.889 60.2188C282.443 60.8047 281.951 61.4023 281.412 62.0117C280.873 62.6094 279.941 63.6113 278.617 65.0176C276.391 67.373 274.756 69.4297 273.713 71.1875H280.34Z" fill="white"/>
</svg>
