<svg width="383" height="42" viewBox="0 0 383 42" fill="none" xmlns="http://www.w3.org/2000/svg">
<path d="M13.4824 18.0449H11.7949C11.5371 17.3418 11.2324 16.791 10.8809 16.3926C10.5293 15.9824 10.1309 15.6953 9.68555 15.5312C9.24023 15.3672 8.69531 15.2852 8.05078 15.2852C7.11328 15.2852 6.36328 15.5078 5.80078 15.9531C5.25 16.3867 4.97461 16.9844 4.97461 17.7461C4.97461 18.2852 5.08594 18.7305 5.30859 19.082C5.53125 19.4336 5.87695 19.7617 6.3457 20.0664C6.81445 20.3711 7.64062 20.7754 8.82422 21.2793C10.0195 21.7949 10.9395 22.2695 11.584 22.7031C12.2402 23.1367 12.75 23.6406 13.1133 24.2148C13.4883 24.7891 13.6758 25.4746 13.6758 26.2715C13.6758 27.1973 13.5176 27.9766 13.2012 28.6094C12.8848 29.2422 12.4395 29.7578 11.8652 30.1562C11.291 30.5547 10.6055 30.8418 9.80859 31.0176C9.02344 31.1934 8.16211 31.2812 7.22461 31.2812C6.24023 31.2812 5.28516 31.2051 4.35938 31.0527C3.43359 30.9121 2.53125 30.7246 1.65234 30.4902V26.8164H3.375C3.69141 27.8945 4.16016 28.6797 4.78125 29.1719C5.40234 29.6523 6.25781 29.8926 7.34766 29.8926C7.76953 29.8926 8.17969 29.8516 8.57812 29.7695C8.98828 29.6758 9.35156 29.5293 9.66797 29.3301C9.98438 29.1191 10.2363 28.8379 10.4238 28.4863C10.6113 28.1348 10.7051 27.6953 10.7051 27.168C10.7051 26.5703 10.5879 26.084 10.3535 25.709C10.1191 25.334 9.75586 24.9941 9.26367 24.6895C8.77148 24.373 7.9043 23.9512 6.66211 23.4238C5.5957 22.9785 4.74023 22.5449 4.0957 22.123C3.45117 21.7012 2.94141 21.2031 2.56641 20.6289C2.20312 20.0547 2.02148 19.375 2.02148 18.5898C2.02148 17.6289 2.2793 16.7969 2.79492 16.0938C3.32227 15.3789 4.07812 14.834 5.0625 14.459C6.04688 14.084 7.20117 13.8965 8.52539 13.8965C9.29883 13.8965 10.043 13.9375 10.7578 14.0195C11.4844 14.0898 12.3926 14.2363 13.4824 14.459V18.0449ZM22.2012 7.30469V10.7148H18.9668V7.30469H22.2012ZM17.1738 30.1387C17.6309 29.998 17.9531 29.875 18.1406 29.7695C18.3398 29.6641 18.5039 29.5176 18.6328 29.3301C18.7734 29.1426 18.8789 28.8555 18.9492 28.4688C19.0312 28.082 19.0723 27.4785 19.0723 26.6582V18.9941C19.0723 18.2441 19.0605 17.6406 19.0371 17.1836C19.0137 16.7266 18.9316 16.3633 18.791 16.0938C18.6504 15.8125 18.4336 15.6074 18.1406 15.4785C17.8594 15.3379 17.4551 15.2207 16.9277 15.127V14.1953L21.0234 14.0371H22.0957V26.6055C22.0957 27.6133 22.1426 28.3164 22.2363 28.7148C22.3301 29.1016 22.5059 29.4004 22.7637 29.6113C23.0332 29.8105 23.4668 29.9863 24.0645 30.1387V31H17.1738V30.1387ZM44.3145 31H37.3887V30.1387C37.8457 29.998 38.1738 29.875 38.373 29.7695C38.5723 29.6641 38.7363 29.5176 38.8652 29.3301C39.0059 29.1426 39.1113 28.8555 39.1816 28.4688C39.2637 28.0703 39.3047 27.4727 39.3047 26.6758V22.0703C39.3047 21.25 39.2812 20.5059 39.2344 19.8379C39.1875 19.1699 39.1055 18.625 38.9883 18.2031C38.8828 17.7695 38.748 17.4355 38.584 17.2012C38.4316 16.9551 38.2441 16.75 38.0215 16.5859C37.8105 16.4102 37.5645 16.2754 37.2832 16.1816C37.002 16.0762 36.6328 16.0234 36.1758 16.0234C35.7188 16.0234 35.2852 16.1172 34.875 16.3047C34.4648 16.4805 34.0137 16.791 33.5215 17.2363C33.0293 17.6816 32.6719 18.1211 32.4492 18.5547C32.2266 18.9883 32.1152 19.4863 32.1152 20.0488V26.6055C32.1152 27.6133 32.1621 28.3164 32.2559 28.7148C32.3496 29.1016 32.5254 29.4004 32.7832 29.6113C33.0527 29.8105 33.4863 29.9863 34.084 30.1387V31H27.1934V30.1387C27.6504 29.998 27.9727 29.875 28.1602 29.7695C28.3594 29.6641 28.5234 29.5176 28.6523 29.3301C28.793 29.1426 28.8984 28.8555 28.9688 28.4688C29.0508 28.082 29.0918 27.4785 29.0918 26.6582V18.9941C29.0918 18.2441 29.0801 17.6406 29.0566 17.1836C29.0332 16.7266 28.9512 16.3633 28.8105 16.0938C28.6699 15.8125 28.4531 15.6074 28.1602 15.4785C27.8789 15.3379 27.4746 15.2207 26.9473 15.127V14.1953L31.0605 14.0371H32.1328L31.9395 16.9023L32.1855 16.9727C33.0527 16.0938 33.75 15.4668 34.2773 15.0918C34.8164 14.7168 35.3555 14.4297 35.8945 14.2305C36.4453 14.0195 37.0254 13.9141 37.6348 13.9141C38.2676 13.9141 38.8301 13.9902 39.3223 14.1426C39.8262 14.2832 40.2656 14.5059 40.6406 14.8105C41.0273 15.1152 41.3438 15.4961 41.5898 15.9531C41.8359 16.3984 42.0176 16.9375 42.1348 17.5703C42.2637 18.2031 42.3281 19.0059 42.3281 19.9785V26.6055C42.3281 27.4141 42.3516 28 42.3984 28.3633C42.4453 28.7266 42.5273 29.0078 42.6445 29.207C42.7617 29.4062 42.9316 29.5762 43.1543 29.7168C43.377 29.8457 43.7637 29.9863 44.3145 30.1387V31ZM51.8027 22.1055C51.8027 26.207 52.459 29.5879 53.7715 32.248C55.0957 34.9082 57.1113 36.6895 59.8184 37.5918L59.3965 38.9453C55.9629 38.043 53.332 36.0977 51.5039 33.1094C49.6758 30.1328 48.7617 26.5234 48.7617 22.2812C48.7617 18.0508 49.6758 14.4414 51.5039 11.4531C53.3438 8.45312 55.9746 6.50195 59.3965 5.59961L59.8711 6.95312C57.1289 7.85547 55.0957 9.61914 53.7715 12.2441C52.459 14.8574 51.8027 18.1445 51.8027 22.1055ZM72.8789 28.1875C73.4531 28.1875 73.916 28.1523 74.2676 28.082C74.6191 28.0117 74.9004 27.8945 75.1113 27.7305C75.3223 27.5664 75.4863 27.3555 75.6035 27.0977C75.7324 26.8281 75.8906 26.418 76.0781 25.8672H77.5723L77.2734 31H62.8066V30.1562C63.3105 28.9258 63.9902 27.666 64.8457 26.377C65.7012 25.0879 66.9141 23.5703 68.4844 21.8242C69.8438 20.3242 70.8223 19.1875 71.4199 18.4141C72.0762 17.5703 72.5625 16.8438 72.8789 16.2344C73.207 15.6133 73.4414 15.0332 73.582 14.4941C73.7227 13.9434 73.793 13.3926 73.793 12.8418C73.793 11.9629 73.6523 11.1895 73.3711 10.5215C73.0898 9.8418 72.6562 9.30859 72.0703 8.92188C71.4961 8.53516 70.7695 8.3418 69.8906 8.3418C67.6992 8.3418 66.2227 9.56055 65.4609 11.998H63.334V8.62305C64.752 7.95508 66.0762 7.47461 67.3066 7.18164C68.5488 6.87695 69.6621 6.72461 70.6465 6.72461C72.8262 6.72461 74.4727 7.20508 75.5859 8.16602C76.6992 9.11523 77.2559 10.498 77.2559 12.3145C77.2559 12.9355 77.1914 13.5098 77.0625 14.0371C76.9453 14.5527 76.752 15.0684 76.4824 15.584C76.2246 16.0879 75.873 16.6328 75.4277 17.2188C74.9824 17.8047 74.4902 18.4023 73.9512 19.0117C73.4121 19.6094 72.4805 20.6113 71.1562 22.0176C68.9297 24.373 67.2949 26.4297 66.252 28.1875H72.8789ZM89.6133 20.8574L91.8984 17.957C92.1445 17.6406 92.3438 17.3359 92.4961 17.043C92.6484 16.7383 92.7246 16.4277 92.7246 16.1113C92.7246 15.8418 92.625 15.6191 92.4258 15.4434C92.2266 15.2676 91.916 15.1387 91.4941 15.0566V14.1953H97.2422V15.0566C96.7969 15.1855 96.3398 15.4375 95.8711 15.8125C95.4141 16.1875 94.8516 16.791 94.1836 17.623L90.5449 22.0879L94.5527 27.4844C95.127 28.2578 95.6426 28.8496 96.0996 29.2598C96.5566 29.6699 97.0137 29.9629 97.4707 30.1387V31H90.4043V30.1387C91.377 30.0215 91.8633 29.6582 91.8633 29.0488C91.8633 28.8027 91.8223 28.5684 91.7402 28.3457C91.6582 28.123 91.5059 27.8652 91.2832 27.5723L88.7344 24.0215L86.0273 27.5371C85.8281 27.7949 85.6699 28.0352 85.5527 28.2578C85.4473 28.4688 85.3945 28.709 85.3945 28.9785C85.3945 29.2949 85.5 29.5586 85.7109 29.7695C85.9336 29.9688 86.2793 30.0918 86.748 30.1387V31H80.877V30.1387C81.2637 29.998 81.6094 29.8223 81.9141 29.6113C82.2305 29.4004 82.5469 29.1309 82.8633 28.8027C83.1914 28.4629 83.6191 27.9707 84.1465 27.3262L87.8027 22.791L84.0586 17.6582C83.543 16.9551 83.1328 16.4453 82.8281 16.1289C82.5234 15.8125 82.2422 15.5723 81.9844 15.4082C81.7266 15.2441 81.4688 15.127 81.2109 15.0566V14.1953H88.1016V15.0566C87.1758 15.1973 86.7129 15.5605 86.7129 16.1465C86.7129 16.416 86.7715 16.6855 86.8887 16.9551C87.0176 17.2246 87.2109 17.5234 87.4688 17.8516L89.6133 20.8574ZM106.611 22.1055C106.611 18.1445 105.955 14.8574 104.643 12.2441C103.33 9.61914 101.297 7.85547 98.543 6.95312L99.0176 5.59961C102.439 6.50195 105.064 8.45312 106.893 11.4531C108.732 14.4414 109.652 18.0508 109.652 22.2812C109.652 26.5234 108.738 30.1328 106.91 33.1094C105.082 36.0977 102.451 38.043 99.0176 38.9453L98.5957 37.5918C101.303 36.6895 103.312 34.9082 104.625 32.248C105.949 29.5879 106.611 26.207 106.611 22.1055ZM123.381 18.2383V15.9004H145.037V18.2383H123.381ZM123.381 25.5332V23.1953H145.037V25.5332H123.381ZM167.941 28.1875C168.516 28.1875 168.979 28.1523 169.33 28.082C169.682 28.0117 169.963 27.8945 170.174 27.7305C170.385 27.5664 170.549 27.3555 170.666 27.0977C170.795 26.8281 170.953 26.418 171.141 25.8672H172.635L172.336 31H157.869V30.1562C158.373 28.9258 159.053 27.666 159.908 26.377C160.764 25.0879 161.977 23.5703 163.547 21.8242C164.906 20.3242 165.885 19.1875 166.482 18.4141C167.139 17.5703 167.625 16.8438 167.941 16.2344C168.27 15.6133 168.504 15.0332 168.645 14.4941C168.785 13.9434 168.855 13.3926 168.855 12.8418C168.855 11.9629 168.715 11.1895 168.434 10.5215C168.152 9.8418 167.719 9.30859 167.133 8.92188C166.559 8.53516 165.832 8.3418 164.953 8.3418C162.762 8.3418 161.285 9.56055 160.523 11.998H158.396V8.62305C159.814 7.95508 161.139 7.47461 162.369 7.18164C163.611 6.87695 164.725 6.72461 165.709 6.72461C167.889 6.72461 169.535 7.20508 170.648 8.16602C171.762 9.11523 172.318 10.498 172.318 12.3145C172.318 12.9355 172.254 13.5098 172.125 14.0371C172.008 14.5527 171.814 15.0684 171.545 15.584C171.287 16.0879 170.936 16.6328 170.49 17.2188C170.045 17.8047 169.553 18.4023 169.014 19.0117C168.475 19.6094 167.543 20.6113 166.219 22.0176C163.992 24.373 162.357 26.4297 161.314 28.1875H167.941ZM196.963 18.0449H195.275C195.018 17.3418 194.713 16.791 194.361 16.3926C194.01 15.9824 193.611 15.6953 193.166 15.5312C192.721 15.3672 192.176 15.2852 191.531 15.2852C190.594 15.2852 189.844 15.5078 189.281 15.9531C188.73 16.3867 188.455 16.9844 188.455 17.7461C188.455 18.2852 188.566 18.7305 188.789 19.082C189.012 19.4336 189.357 19.7617 189.826 20.0664C190.295 20.3711 191.121 20.7754 192.305 21.2793C193.5 21.7949 194.42 22.2695 195.064 22.7031C195.721 23.1367 196.23 23.6406 196.594 24.2148C196.969 24.7891 197.156 25.4746 197.156 26.2715C197.156 27.1973 196.998 27.9766 196.682 28.6094C196.365 29.2422 195.92 29.7578 195.346 30.1562C194.771 30.5547 194.086 30.8418 193.289 31.0176C192.504 31.1934 191.643 31.2812 190.705 31.2812C189.721 31.2812 188.766 31.2051 187.84 31.0527C186.914 30.9121 186.012 30.7246 185.133 30.4902V26.8164H186.855C187.172 27.8945 187.641 28.6797 188.262 29.1719C188.883 29.6523 189.738 29.8926 190.828 29.8926C191.25 29.8926 191.66 29.8516 192.059 29.7695C192.469 29.6758 192.832 29.5293 193.148 29.3301C193.465 29.1191 193.717 28.8379 193.904 28.4863C194.092 28.1348 194.186 27.6953 194.186 27.168C194.186 26.5703 194.068 26.084 193.834 25.709C193.6 25.334 193.236 24.9941 192.744 24.6895C192.252 24.373 191.385 23.9512 190.143 23.4238C189.076 22.9785 188.221 22.5449 187.576 22.123C186.932 21.7012 186.422 21.2031 186.047 20.6289C185.684 20.0547 185.502 19.375 185.502 18.5898C185.502 17.6289 185.76 16.7969 186.275 16.0938C186.803 15.3789 187.559 14.834 188.543 14.459C189.527 14.084 190.682 13.8965 192.006 13.8965C192.779 13.8965 193.523 13.9375 194.238 14.0195C194.965 14.0898 195.873 14.2363 196.963 14.459V18.0449ZM205.682 7.30469V10.7148H202.447V7.30469H205.682ZM200.654 30.1387C201.111 29.998 201.434 29.875 201.621 29.7695C201.82 29.6641 201.984 29.5176 202.113 29.3301C202.254 29.1426 202.359 28.8555 202.43 28.4688C202.512 28.082 202.553 27.4785 202.553 26.6582V18.9941C202.553 18.2441 202.541 17.6406 202.518 17.1836C202.494 16.7266 202.412 16.3633 202.271 16.0938C202.131 15.8125 201.914 15.6074 201.621 15.4785C201.34 15.3379 200.936 15.2207 200.408 15.127V14.1953L204.504 14.0371H205.576V26.6055C205.576 27.6133 205.623 28.3164 205.717 28.7148C205.811 29.1016 205.986 29.4004 206.244 29.6113C206.514 29.8105 206.947 29.9863 207.545 30.1387V31H200.654V30.1387ZM227.795 31H220.869V30.1387C221.326 29.998 221.654 29.875 221.854 29.7695C222.053 29.6641 222.217 29.5176 222.346 29.3301C222.486 29.1426 222.592 28.8555 222.662 28.4688C222.744 28.0703 222.785 27.4727 222.785 26.6758V22.0703C222.785 21.25 222.762 20.5059 222.715 19.8379C222.668 19.1699 222.586 18.625 222.469 18.2031C222.363 17.7695 222.229 17.4355 222.064 17.2012C221.912 16.9551 221.725 16.75 221.502 16.5859C221.291 16.4102 221.045 16.2754 220.764 16.1816C220.482 16.0762 220.113 16.0234 219.656 16.0234C219.199 16.0234 218.766 16.1172 218.355 16.3047C217.945 16.4805 217.494 16.791 217.002 17.2363C216.51 17.6816 216.152 18.1211 215.93 18.5547C215.707 18.9883 215.596 19.4863 215.596 20.0488V26.6055C215.596 27.6133 215.643 28.3164 215.736 28.7148C215.83 29.1016 216.006 29.4004 216.264 29.6113C216.533 29.8105 216.967 29.9863 217.564 30.1387V31H210.674V30.1387C211.131 29.998 211.453 29.875 211.641 29.7695C211.84 29.6641 212.004 29.5176 212.133 29.3301C212.273 29.1426 212.379 28.8555 212.449 28.4688C212.531 28.082 212.572 27.4785 212.572 26.6582V18.9941C212.572 18.2441 212.561 17.6406 212.537 17.1836C212.514 16.7266 212.432 16.3633 212.291 16.0938C212.15 15.8125 211.934 15.6074 211.641 15.4785C211.359 15.3379 210.955 15.2207 210.428 15.127V14.1953L214.541 14.0371H215.613L215.42 16.9023L215.666 16.9727C216.533 16.0938 217.23 15.4668 217.758 15.0918C218.297 14.7168 218.836 14.4297 219.375 14.2305C219.926 14.0195 220.506 13.9141 221.115 13.9141C221.748 13.9141 222.311 13.9902 222.803 14.1426C223.307 14.2832 223.746 14.5059 224.121 14.8105C224.508 15.1152 224.824 15.4961 225.07 15.9531C225.316 16.3984 225.498 16.9375 225.615 17.5703C225.744 18.2031 225.809 19.0059 225.809 19.9785V26.6055C225.809 27.4141 225.832 28 225.879 28.3633C225.926 28.7266 226.008 29.0078 226.125 29.207C226.242 29.4062 226.412 29.5762 226.635 29.7168C226.857 29.8457 227.244 29.9863 227.795 30.1387V31ZM235.283 22.1055C235.283 26.207 235.939 29.5879 237.252 32.248C238.576 34.9082 240.592 36.6895 243.299 37.5918L242.877 38.9453C239.443 38.043 236.812 36.0977 234.984 33.1094C233.156 30.1328 232.242 26.5234 232.242 22.2812C232.242 18.0508 233.156 14.4414 234.984 11.4531C236.824 8.45312 239.455 6.50195 242.877 5.59961L243.352 6.95312C240.609 7.85547 238.576 9.61914 237.252 12.2441C235.939 14.8574 235.283 18.1445 235.283 22.1055ZM253.16 20.8574L255.445 17.957C255.691 17.6406 255.891 17.3359 256.043 17.043C256.195 16.7383 256.271 16.4277 256.271 16.1113C256.271 15.8418 256.172 15.6191 255.973 15.4434C255.773 15.2676 255.463 15.1387 255.041 15.0566V14.1953H260.789V15.0566C260.344 15.1855 259.887 15.4375 259.418 15.8125C258.961 16.1875 258.398 16.791 257.73 17.623L254.092 22.0879L258.1 27.4844C258.674 28.2578 259.189 28.8496 259.646 29.2598C260.104 29.6699 260.561 29.9629 261.018 30.1387V31H253.951V30.1387C254.924 30.0215 255.41 29.6582 255.41 29.0488C255.41 28.8027 255.369 28.5684 255.287 28.3457C255.205 28.123 255.053 27.8652 254.83 27.5723L252.281 24.0215L249.574 27.5371C249.375 27.7949 249.217 28.0352 249.1 28.2578C248.994 28.4688 248.941 28.709 248.941 28.9785C248.941 29.2949 249.047 29.5586 249.258 29.7695C249.48 29.9688 249.826 30.0918 250.295 30.1387V31H244.424V30.1387C244.811 29.998 245.156 29.8223 245.461 29.6113C245.777 29.4004 246.094 29.1309 246.41 28.8027C246.738 28.4629 247.166 27.9707 247.693 27.3262L251.35 22.791L247.605 17.6582C247.09 16.9551 246.68 16.4453 246.375 16.1289C246.07 15.8125 245.789 15.5723 245.531 15.4082C245.273 15.2441 245.016 15.127 244.758 15.0566V14.1953H251.648V15.0566C250.723 15.1973 250.26 15.5605 250.26 16.1465C250.26 16.416 250.318 16.6855 250.436 16.9551C250.564 17.2246 250.758 17.5234 251.016 17.8516L253.16 20.8574ZM270.158 22.1055C270.158 18.1445 269.502 14.8574 268.189 12.2441C266.877 9.61914 264.844 7.85547 262.09 6.95312L262.564 5.59961C265.986 6.50195 268.611 8.45312 270.439 11.4531C272.279 14.4414 273.199 18.0508 273.199 22.2812C273.199 26.5234 272.285 30.1328 270.457 33.1094C268.629 36.0977 265.998 38.043 262.564 38.9453L262.143 37.5918C264.85 36.6895 266.859 34.9082 268.172 32.248C269.496 29.5879 270.158 26.207 270.158 22.1055ZM299.109 14.5996V18.2734H296.877C296.678 17.5117 296.432 16.9141 296.139 16.4805C295.846 16.0352 295.506 15.7246 295.119 15.5488C294.732 15.373 294.252 15.2852 293.678 15.2852C292.857 15.2852 292.131 15.5488 291.498 16.0762C290.865 16.6035 290.361 17.4062 289.986 18.4844C289.623 19.5625 289.441 20.8809 289.441 22.4395C289.441 23.4355 289.512 24.3496 289.652 25.1816C289.793 26.002 290.033 26.7051 290.373 27.291C290.713 27.877 291.164 28.334 291.727 28.6621C292.289 28.9902 292.986 29.1543 293.818 29.1543C294.627 29.1543 295.377 28.9961 296.068 28.6797C296.771 28.3633 297.498 27.8066 298.248 27.0098L299.25 28.1699C298.652 28.8262 298.125 29.3359 297.668 29.6992C297.211 30.0508 296.719 30.3496 296.191 30.5957C295.676 30.8301 295.16 31 294.645 31.1055C294.141 31.2227 293.59 31.2812 292.992 31.2812C290.777 31.2812 289.084 30.5488 287.912 29.084C286.74 27.6074 286.154 25.4805 286.154 22.7031C286.154 20.9688 286.482 19.4336 287.139 18.0977C287.795 16.75 288.715 15.7129 289.898 14.9863C291.082 14.2598 292.447 13.8965 293.994 13.8965C294.955 13.8965 295.84 13.9551 296.648 14.0723C297.469 14.1777 298.289 14.3535 299.109 14.5996ZM309.551 31.2812C307.113 31.2812 305.25 30.5664 303.961 29.1367C302.684 27.6953 302.045 25.5684 302.045 22.7559C302.045 20.8223 302.379 19.1875 303.047 17.8516C303.727 16.5156 304.652 15.5254 305.824 14.8809C306.996 14.2246 308.332 13.8965 309.832 13.8965C312.34 13.8965 314.238 14.6289 315.527 16.0938C316.816 17.5469 317.461 19.6387 317.461 22.3691C317.461 24.3145 317.139 25.9551 316.494 27.291C315.85 28.627 314.936 29.6289 313.752 30.2969C312.568 30.9531 311.168 31.2812 309.551 31.2812ZM305.367 22.3867C305.367 24.8008 305.748 26.6582 306.51 27.959C307.283 29.248 308.385 29.8926 309.814 29.8926C310.6 29.8926 311.268 29.7051 311.818 29.3301C312.369 28.9434 312.814 28.4277 313.154 27.7832C313.506 27.1387 313.758 26.3945 313.91 25.5508C314.062 24.6953 314.139 23.8047 314.139 22.8789C314.139 21.1562 313.945 19.7266 313.559 18.5898C313.184 17.4531 312.668 16.6211 312.012 16.0938C311.355 15.5547 310.605 15.2852 309.762 15.2852C308.344 15.2852 307.254 15.9004 306.492 17.1309C305.742 18.3613 305.367 20.1133 305.367 22.3867ZM332.807 18.0449H331.119C330.861 17.3418 330.557 16.791 330.205 16.3926C329.854 15.9824 329.455 15.6953 329.01 15.5312C328.564 15.3672 328.02 15.2852 327.375 15.2852C326.438 15.2852 325.688 15.5078 325.125 15.9531C324.574 16.3867 324.299 16.9844 324.299 17.7461C324.299 18.2852 324.41 18.7305 324.633 19.082C324.855 19.4336 325.201 19.7617 325.67 20.0664C326.139 20.3711 326.965 20.7754 328.148 21.2793C329.344 21.7949 330.264 22.2695 330.908 22.7031C331.564 23.1367 332.074 23.6406 332.438 24.2148C332.812 24.7891 333 25.4746 333 26.2715C333 27.1973 332.842 27.9766 332.525 28.6094C332.209 29.2422 331.764 29.7578 331.189 30.1562C330.615 30.5547 329.93 30.8418 329.133 31.0176C328.348 31.1934 327.486 31.2812 326.549 31.2812C325.564 31.2812 324.609 31.2051 323.684 31.0527C322.758 30.9121 321.855 30.7246 320.977 30.4902V26.8164H322.699C323.016 27.8945 323.484 28.6797 324.105 29.1719C324.727 29.6523 325.582 29.8926 326.672 29.8926C327.094 29.8926 327.504 29.8516 327.902 29.7695C328.312 29.6758 328.676 29.5293 328.992 29.3301C329.309 29.1191 329.561 28.8379 329.748 28.4863C329.936 28.1348 330.029 27.6953 330.029 27.168C330.029 26.5703 329.912 26.084 329.678 25.709C329.443 25.334 329.08 24.9941 328.588 24.6895C328.096 24.373 327.229 23.9512 325.986 23.4238C324.92 22.9785 324.064 22.5449 323.42 22.123C322.775 21.7012 322.266 21.2031 321.891 20.6289C321.527 20.0547 321.346 19.375 321.346 18.5898C321.346 17.6289 321.604 16.7969 322.119 16.0938C322.646 15.3789 323.402 14.834 324.387 14.459C325.371 14.084 326.525 13.8965 327.85 13.8965C328.623 13.8965 329.367 13.9375 330.082 14.0195C330.809 14.0898 331.717 14.2363 332.807 14.459V18.0449ZM340.998 22.1055C340.998 26.207 341.654 29.5879 342.967 32.248C344.291 34.9082 346.307 36.6895 349.014 37.5918L348.592 38.9453C345.158 38.043 342.527 36.0977 340.699 33.1094C338.871 30.1328 337.957 26.5234 337.957 22.2812C337.957 18.0508 338.871 14.4414 340.699 11.4531C342.539 8.45312 345.17 6.50195 348.592 5.59961L349.066 6.95312C346.324 7.85547 344.291 9.61914 342.967 12.2441C341.654 14.8574 340.998 18.1445 340.998 22.1055ZM358.875 20.8574L361.16 17.957C361.406 17.6406 361.605 17.3359 361.758 17.043C361.91 16.7383 361.986 16.4277 361.986 16.1113C361.986 15.8418 361.887 15.6191 361.688 15.4434C361.488 15.2676 361.178 15.1387 360.756 15.0566V14.1953H366.504V15.0566C366.059 15.1855 365.602 15.4375 365.133 15.8125C364.676 16.1875 364.113 16.791 363.445 17.623L359.807 22.0879L363.814 27.4844C364.389 28.2578 364.904 28.8496 365.361 29.2598C365.818 29.6699 366.275 29.9629 366.732 30.1387V31H359.666V30.1387C360.639 30.0215 361.125 29.6582 361.125 29.0488C361.125 28.8027 361.084 28.5684 361.002 28.3457C360.92 28.123 360.768 27.8652 360.545 27.5723L357.996 24.0215L355.289 27.5371C355.09 27.7949 354.932 28.0352 354.814 28.2578C354.709 28.4688 354.656 28.709 354.656 28.9785C354.656 29.2949 354.762 29.5586 354.973 29.7695C355.195 29.9688 355.541 30.0918 356.01 30.1387V31H350.139V30.1387C350.525 29.998 350.871 29.8223 351.176 29.6113C351.492 29.4004 351.809 29.1309 352.125 28.8027C352.453 28.4629 352.881 27.9707 353.408 27.3262L357.064 22.791L353.32 17.6582C352.805 16.9551 352.395 16.4453 352.09 16.1289C351.785 15.8125 351.504 15.5723 351.246 15.4082C350.988 15.2441 350.73 15.127 350.473 15.0566V14.1953H357.363V15.0566C356.438 15.1973 355.975 15.5605 355.975 16.1465C355.975 16.416 356.033 16.6855 356.15 16.9551C356.279 17.2246 356.473 17.5234 356.73 17.8516L358.875 20.8574ZM375.873 22.1055C375.873 18.1445 375.217 14.8574 373.904 12.2441C372.592 9.61914 370.559 7.85547 367.805 6.95312L368.279 5.59961C371.701 6.50195 374.326 8.45312 376.154 11.4531C377.994 14.4414 378.914 18.0508 378.914 22.2812C378.914 26.5234 378 30.1328 376.172 33.1094C374.344 36.0977 371.713 38.043 368.279 38.9453L367.857 37.5918C370.564 36.6895 372.574 34.9082 373.887 32.248C375.211 29.5879 375.873 26.207 375.873 22.1055Z" fill="white"/>
</svg>
