<svg width="409" height="42" viewBox="0 0 409 42" fill="none" xmlns="http://www.w3.org/2000/svg">
<path d="M14.8008 14.5996V18.2734H12.5684C12.3691 17.5117 12.123 16.9141 11.8301 16.4805C11.5371 16.0352 11.1973 15.7246 10.8105 15.5488C10.4238 15.373 9.94336 15.2852 9.36914 15.2852C8.54883 15.2852 7.82227 15.5488 7.18945 16.0762C6.55664 16.6035 6.05273 17.4062 5.67773 18.4844C5.31445 19.5625 5.13281 20.8809 5.13281 22.4395C5.13281 23.4355 5.20312 24.3496 5.34375 25.1816C5.48438 26.002 5.72461 26.7051 6.06445 27.291C6.4043 27.877 6.85547 28.334 7.41797 28.6621C7.98047 28.9902 8.67773 29.1543 9.50977 29.1543C10.3184 29.1543 11.0684 28.9961 11.7598 28.6797C12.4629 28.3633 13.1895 27.8066 13.9395 27.0098L14.9414 28.1699C14.3438 28.8262 13.8164 29.3359 13.3594 29.6992C12.9023 30.0508 12.4102 30.3496 11.8828 30.5957C11.3672 30.8301 10.8516 31 10.3359 31.1055C9.83203 31.2227 9.28125 31.2812 8.68359 31.2812C6.46875 31.2812 4.77539 30.5488 3.60352 29.084C2.43164 27.6074 1.8457 25.4805 1.8457 22.7031C1.8457 20.9688 2.17383 19.4336 2.83008 18.0977C3.48633 16.75 4.40625 15.7129 5.58984 14.9863C6.77344 14.2598 8.13867 13.8965 9.68555 13.8965C10.6465 13.8965 11.5312 13.9551 12.3398 14.0723C13.1602 14.1777 13.9805 14.3535 14.8008 14.5996ZM25.2422 31.2812C22.8047 31.2812 20.9414 30.5664 19.6523 29.1367C18.375 27.6953 17.7363 25.5684 17.7363 22.7559C17.7363 20.8223 18.0703 19.1875 18.7383 17.8516C19.418 16.5156 20.3438 15.5254 21.5156 14.8809C22.6875 14.2246 24.0234 13.8965 25.5234 13.8965C28.0312 13.8965 29.9297 14.6289 31.2188 16.0938C32.5078 17.5469 33.1523 19.6387 33.1523 22.3691C33.1523 24.3145 32.8301 25.9551 32.1855 27.291C31.541 28.627 30.627 29.6289 29.4434 30.2969C28.2598 30.9531 26.8594 31.2812 25.2422 31.2812ZM21.0586 22.3867C21.0586 24.8008 21.4395 26.6582 22.2012 27.959C22.9746 29.248 24.0762 29.8926 25.5059 29.8926C26.291 29.8926 26.959 29.7051 27.5098 29.3301C28.0605 28.9434 28.5059 28.4277 28.8457 27.7832C29.1973 27.1387 29.4492 26.3945 29.6016 25.5508C29.7539 24.6953 29.8301 23.8047 29.8301 22.8789C29.8301 21.1562 29.6367 19.7266 29.25 18.5898C28.875 17.4531 28.3594 16.6211 27.7031 16.0938C27.0469 15.5547 26.2969 15.2852 25.4531 15.2852C24.0352 15.2852 22.9453 15.9004 22.1836 17.1309C21.4336 18.3613 21.0586 20.1133 21.0586 22.3867ZM48.498 18.0449H46.8105C46.5527 17.3418 46.248 16.791 45.8965 16.3926C45.5449 15.9824 45.1465 15.6953 44.7012 15.5312C44.2559 15.3672 43.7109 15.2852 43.0664 15.2852C42.1289 15.2852 41.3789 15.5078 40.8164 15.9531C40.2656 16.3867 39.9902 16.9844 39.9902 17.7461C39.9902 18.2852 40.1016 18.7305 40.3242 19.082C40.5469 19.4336 40.8926 19.7617 41.3613 20.0664C41.8301 20.3711 42.6562 20.7754 43.8398 21.2793C45.0352 21.7949 45.9551 22.2695 46.5996 22.7031C47.2559 23.1367 47.7656 23.6406 48.1289 24.2148C48.5039 24.7891 48.6914 25.4746 48.6914 26.2715C48.6914 27.1973 48.5332 27.9766 48.2168 28.6094C47.9004 29.2422 47.4551 29.7578 46.8809 30.1562C46.3066 30.5547 45.6211 30.8418 44.8242 31.0176C44.0391 31.1934 43.1777 31.2812 42.2402 31.2812C41.2559 31.2812 40.3008 31.2051 39.375 31.0527C38.4492 30.9121 37.5469 30.7246 36.668 30.4902V26.8164H38.3906C38.707 27.8945 39.1758 28.6797 39.7969 29.1719C40.418 29.6523 41.2734 29.8926 42.3633 29.8926C42.7852 29.8926 43.1953 29.8516 43.5938 29.7695C44.0039 29.6758 44.3672 29.5293 44.6836 29.3301C45 29.1191 45.252 28.8379 45.4395 28.4863C45.627 28.1348 45.7207 27.6953 45.7207 27.168C45.7207 26.5703 45.6035 26.084 45.3691 25.709C45.1348 25.334 44.7715 24.9941 44.2793 24.6895C43.7871 24.373 42.9199 23.9512 41.6777 23.4238C40.6113 22.9785 39.7559 22.5449 39.1113 22.123C38.4668 21.7012 37.957 21.2031 37.582 20.6289C37.2188 20.0547 37.0371 19.375 37.0371 18.5898C37.0371 17.6289 37.2949 16.7969 37.8105 16.0938C38.3379 15.3789 39.0938 14.834 40.0781 14.459C41.0625 14.084 42.2168 13.8965 43.541 13.8965C44.3145 13.8965 45.0586 13.9375 45.7734 14.0195C46.5 14.0898 47.4082 14.2363 48.498 14.459V18.0449ZM56.6895 22.1055C56.6895 26.207 57.3457 29.5879 58.6582 32.248C59.9824 34.9082 61.998 36.6895 64.7051 37.5918L64.2832 38.9453C60.8496 38.043 58.2188 36.0977 56.3906 33.1094C54.5625 30.1328 53.6484 26.5234 53.6484 22.2812C53.6484 18.0508 54.5625 14.4414 56.3906 11.4531C58.2305 8.45312 60.8613 6.50195 64.2832 5.59961L64.7578 6.95312C62.0156 7.85547 59.9824 9.61914 58.6582 12.2441C57.3457 14.8574 56.6895 18.1445 56.6895 22.1055ZM77.7656 28.1875C78.3398 28.1875 78.8027 28.1523 79.1543 28.082C79.5059 28.0117 79.7871 27.8945 79.998 27.7305C80.209 27.5664 80.373 27.3555 80.4902 27.0977C80.6191 26.8281 80.7773 26.418 80.9648 25.8672H82.459L82.1602 31H67.6934V30.1562C68.1973 28.9258 68.877 27.666 69.7324 26.377C70.5879 25.0879 71.8008 23.5703 73.3711 21.8242C74.7305 20.3242 75.709 19.1875 76.3066 18.4141C76.9629 17.5703 77.4492 16.8438 77.7656 16.2344C78.0938 15.6133 78.3281 15.0332 78.4688 14.4941C78.6094 13.9434 78.6797 13.3926 78.6797 12.8418C78.6797 11.9629 78.5391 11.1895 78.2578 10.5215C77.9766 9.8418 77.543 9.30859 76.957 8.92188C76.3828 8.53516 75.6562 8.3418 74.7773 8.3418C72.5859 8.3418 71.1094 9.56055 70.3477 11.998H68.2207V8.62305C69.6387 7.95508 70.9629 7.47461 72.1934 7.18164C73.4355 6.87695 74.5488 6.72461 75.5332 6.72461C77.7129 6.72461 79.3594 7.20508 80.4727 8.16602C81.5859 9.11523 82.1426 10.498 82.1426 12.3145C82.1426 12.9355 82.0781 13.5098 81.9492 14.0371C81.832 14.5527 81.6387 15.0684 81.3691 15.584C81.1113 16.0879 80.7598 16.6328 80.3145 17.2188C79.8691 17.8047 79.377 18.4023 78.8379 19.0117C78.2988 19.6094 77.3672 20.6113 76.043 22.0176C73.8164 24.373 72.1816 26.4297 71.1387 28.1875H77.7656ZM94.5 20.8574L96.7852 17.957C97.0312 17.6406 97.2305 17.3359 97.3828 17.043C97.5352 16.7383 97.6113 16.4277 97.6113 16.1113C97.6113 15.8418 97.5117 15.6191 97.3125 15.4434C97.1133 15.2676 96.8027 15.1387 96.3809 15.0566V14.1953H102.129V15.0566C101.684 15.1855 101.227 15.4375 100.758 15.8125C100.301 16.1875 99.7383 16.791 99.0703 17.623L95.4316 22.0879L99.4395 27.4844C100.014 28.2578 100.529 28.8496 100.986 29.2598C101.443 29.6699 101.9 29.9629 102.357 30.1387V31H95.291V30.1387C96.2637 30.0215 96.75 29.6582 96.75 29.0488C96.75 28.8027 96.709 28.5684 96.627 28.3457C96.5449 28.123 96.3926 27.8652 96.1699 27.5723L93.6211 24.0215L90.9141 27.5371C90.7148 27.7949 90.5566 28.0352 90.4395 28.2578C90.334 28.4688 90.2812 28.709 90.2812 28.9785C90.2812 29.2949 90.3867 29.5586 90.5977 29.7695C90.8203 29.9688 91.166 30.0918 91.6348 30.1387V31H85.7637V30.1387C86.1504 29.998 86.4961 29.8223 86.8008 29.6113C87.1172 29.4004 87.4336 29.1309 87.75 28.8027C88.0781 28.4629 88.5059 27.9707 89.0332 27.3262L92.6895 22.791L88.9453 17.6582C88.4297 16.9551 88.0195 16.4453 87.7148 16.1289C87.4102 15.8125 87.1289 15.5723 86.8711 15.4082C86.6133 15.2441 86.3555 15.127 86.0977 15.0566V14.1953H92.9883V15.0566C92.0625 15.1973 91.5996 15.5605 91.5996 16.1465C91.5996 16.416 91.6582 16.6855 91.7754 16.9551C91.9043 17.2246 92.0977 17.5234 92.3555 17.8516L94.5 20.8574ZM111.498 22.1055C111.498 18.1445 110.842 14.8574 109.529 12.2441C108.217 9.61914 106.184 7.85547 103.43 6.95312L103.904 5.59961C107.326 6.50195 109.951 8.45312 111.779 11.4531C113.619 14.4414 114.539 18.0508 114.539 22.2812C114.539 26.5234 113.625 30.1328 111.797 33.1094C109.969 36.0977 107.338 38.043 103.904 38.9453L103.482 37.5918C106.189 36.6895 108.199 34.9082 109.512 32.248C110.836 29.5879 111.498 26.207 111.498 22.1055ZM128.268 18.2383V15.9004H149.924V18.2383H128.268ZM128.268 25.5332V23.1953H149.924V25.5332H128.268ZM175.289 14.5996V18.2734H173.057C172.857 17.5117 172.611 16.9141 172.318 16.4805C172.025 16.0352 171.686 15.7246 171.299 15.5488C170.912 15.373 170.432 15.2852 169.857 15.2852C169.037 15.2852 168.311 15.5488 167.678 16.0762C167.045 16.6035 166.541 17.4062 166.166 18.4844C165.803 19.5625 165.621 20.8809 165.621 22.4395C165.621 23.4355 165.691 24.3496 165.832 25.1816C165.973 26.002 166.213 26.7051 166.553 27.291C166.893 27.877 167.344 28.334 167.906 28.6621C168.469 28.9902 169.166 29.1543 169.998 29.1543C170.807 29.1543 171.557 28.9961 172.248 28.6797C172.951 28.3633 173.678 27.8066 174.428 27.0098L175.43 28.1699C174.832 28.8262 174.305 29.3359 173.848 29.6992C173.391 30.0508 172.898 30.3496 172.371 30.5957C171.855 30.8301 171.34 31 170.824 31.1055C170.32 31.2227 169.77 31.2812 169.172 31.2812C166.957 31.2812 165.264 30.5488 164.092 29.084C162.92 27.6074 162.334 25.4805 162.334 22.7031C162.334 20.9688 162.662 19.4336 163.318 18.0977C163.975 16.75 164.895 15.7129 166.078 14.9863C167.262 14.2598 168.627 13.8965 170.174 13.8965C171.135 13.8965 172.02 13.9551 172.828 14.0723C173.648 14.1777 174.469 14.3535 175.289 14.5996ZM185.73 31.2812C183.293 31.2812 181.43 30.5664 180.141 29.1367C178.863 27.6953 178.225 25.5684 178.225 22.7559C178.225 20.8223 178.559 19.1875 179.227 17.8516C179.906 16.5156 180.832 15.5254 182.004 14.8809C183.176 14.2246 184.512 13.8965 186.012 13.8965C188.52 13.8965 190.418 14.6289 191.707 16.0938C192.996 17.5469 193.641 19.6387 193.641 22.3691C193.641 24.3145 193.318 25.9551 192.674 27.291C192.029 28.627 191.115 29.6289 189.932 30.2969C188.748 30.9531 187.348 31.2812 185.73 31.2812ZM181.547 22.3867C181.547 24.8008 181.928 26.6582 182.689 27.959C183.463 29.248 184.564 29.8926 185.994 29.8926C186.779 29.8926 187.447 29.7051 187.998 29.3301C188.549 28.9434 188.994 28.4277 189.334 27.7832C189.686 27.1387 189.938 26.3945 190.09 25.5508C190.242 24.6953 190.318 23.8047 190.318 22.8789C190.318 21.1562 190.125 19.7266 189.738 18.5898C189.363 17.4531 188.848 16.6211 188.191 16.0938C187.535 15.5547 186.785 15.2852 185.941 15.2852C184.523 15.2852 183.434 15.9004 182.672 17.1309C181.922 18.3613 181.547 20.1133 181.547 22.3867ZM208.986 18.0449H207.299C207.041 17.3418 206.736 16.791 206.385 16.3926C206.033 15.9824 205.635 15.6953 205.189 15.5312C204.744 15.3672 204.199 15.2852 203.555 15.2852C202.617 15.2852 201.867 15.5078 201.305 15.9531C200.754 16.3867 200.479 16.9844 200.479 17.7461C200.479 18.2852 200.59 18.7305 200.812 19.082C201.035 19.4336 201.381 19.7617 201.85 20.0664C202.318 20.3711 203.145 20.7754 204.328 21.2793C205.523 21.7949 206.443 22.2695 207.088 22.7031C207.744 23.1367 208.254 23.6406 208.617 24.2148C208.992 24.7891 209.18 25.4746 209.18 26.2715C209.18 27.1973 209.021 27.9766 208.705 28.6094C208.389 29.2422 207.943 29.7578 207.369 30.1562C206.795 30.5547 206.109 30.8418 205.312 31.0176C204.527 31.1934 203.666 31.2812 202.729 31.2812C201.744 31.2812 200.789 31.2051 199.863 31.0527C198.938 30.9121 198.035 30.7246 197.156 30.4902V26.8164H198.879C199.195 27.8945 199.664 28.6797 200.285 29.1719C200.906 29.6523 201.762 29.8926 202.852 29.8926C203.273 29.8926 203.684 29.8516 204.082 29.7695C204.492 29.6758 204.855 29.5293 205.172 29.3301C205.488 29.1191 205.74 28.8379 205.928 28.4863C206.115 28.1348 206.209 27.6953 206.209 27.168C206.209 26.5703 206.092 26.084 205.857 25.709C205.623 25.334 205.26 24.9941 204.768 24.6895C204.275 24.373 203.408 23.9512 202.166 23.4238C201.1 22.9785 200.244 22.5449 199.6 22.123C198.955 21.7012 198.445 21.2031 198.07 20.6289C197.707 20.0547 197.525 19.375 197.525 18.5898C197.525 17.6289 197.783 16.7969 198.299 16.0938C198.826 15.3789 199.582 14.834 200.566 14.459C201.551 14.084 202.705 13.8965 204.029 13.8965C204.803 13.8965 205.547 13.9375 206.262 14.0195C206.988 14.0898 207.896 14.2363 208.986 14.459V18.0449ZM219.867 14.4414C220.277 14.4414 220.588 14.4238 220.799 14.3887C221.021 14.3418 221.197 14.2773 221.326 14.1953C221.455 14.1133 221.561 14.0078 221.643 13.8789C221.736 13.75 221.871 13.4688 222.047 13.0352H223.26L223.014 16.4277H212.713V15.7598C213.111 14.9043 213.65 14.0605 214.33 13.2285C215.01 12.3965 215.807 11.541 216.721 10.6621C217.811 9.61914 218.584 8.83398 219.041 8.30664C219.498 7.76758 219.838 7.26367 220.061 6.79492C220.283 6.31445 220.395 5.83398 220.395 5.35352C220.395 4.55664 220.166 3.92969 219.709 3.47266C219.264 3.01562 218.619 2.78711 217.775 2.78711C217.049 2.78711 216.428 2.98047 215.912 3.36719C215.408 3.75391 215.021 4.32227 214.752 5.07227H213.082V2.69922C214.125 2.27734 215.086 1.97852 215.965 1.80273C216.844 1.61523 217.623 1.52148 218.303 1.52148C219.229 1.52148 219.99 1.62109 220.588 1.82031C221.197 2.01953 221.684 2.2832 222.047 2.61133C222.41 2.92773 222.662 3.30273 222.803 3.73633C222.955 4.16992 223.031 4.61523 223.031 5.07227C223.031 5.64648 222.914 6.18555 222.68 6.68945C222.445 7.18164 222.059 7.7207 221.52 8.30664C220.992 8.88086 220.049 9.7832 218.689 11.0137C217.236 12.3379 216.182 13.4805 215.525 14.4414H219.867ZM231.838 22.1055C231.838 26.207 232.494 29.5879 233.807 32.248C235.131 34.9082 237.146 36.6895 239.854 37.5918L239.432 38.9453C235.998 38.043 233.367 36.0977 231.539 33.1094C229.711 30.1328 228.797 26.5234 228.797 22.2812C228.797 18.0508 229.711 14.4414 231.539 11.4531C233.379 8.45312 236.01 6.50195 239.432 5.59961L239.906 6.95312C237.164 7.85547 235.131 9.61914 233.807 12.2441C232.494 14.8574 231.838 18.1445 231.838 22.1055ZM249.715 20.8574L252 17.957C252.246 17.6406 252.445 17.3359 252.598 17.043C252.75 16.7383 252.826 16.4277 252.826 16.1113C252.826 15.8418 252.727 15.6191 252.527 15.4434C252.328 15.2676 252.018 15.1387 251.596 15.0566V14.1953H257.344V15.0566C256.898 15.1855 256.441 15.4375 255.973 15.8125C255.516 16.1875 254.953 16.791 254.285 17.623L250.646 22.0879L254.654 27.4844C255.229 28.2578 255.744 28.8496 256.201 29.2598C256.658 29.6699 257.115 29.9629 257.572 30.1387V31H250.506V30.1387C251.479 30.0215 251.965 29.6582 251.965 29.0488C251.965 28.8027 251.924 28.5684 251.842 28.3457C251.76 28.123 251.607 27.8652 251.385 27.5723L248.836 24.0215L246.129 27.5371C245.93 27.7949 245.771 28.0352 245.654 28.2578C245.549 28.4688 245.496 28.709 245.496 28.9785C245.496 29.2949 245.602 29.5586 245.812 29.7695C246.035 29.9688 246.381 30.0918 246.85 30.1387V31H240.979V30.1387C241.365 29.998 241.711 29.8223 242.016 29.6113C242.332 29.4004 242.648 29.1309 242.965 28.8027C243.293 28.4629 243.721 27.9707 244.248 27.3262L247.904 22.791L244.16 17.6582C243.645 16.9551 243.234 16.4453 242.93 16.1289C242.625 15.8125 242.344 15.5723 242.086 15.4082C241.828 15.2441 241.57 15.127 241.312 15.0566V14.1953H248.203V15.0566C247.277 15.1973 246.814 15.5605 246.814 16.1465C246.814 16.416 246.873 16.6855 246.99 16.9551C247.119 17.2246 247.312 17.5234 247.57 17.8516L249.715 20.8574ZM266.713 22.1055C266.713 18.1445 266.057 14.8574 264.744 12.2441C263.432 9.61914 261.398 7.85547 258.645 6.95312L259.119 5.59961C262.541 6.50195 265.166 8.45312 266.994 11.4531C268.834 14.4414 269.754 18.0508 269.754 22.2812C269.754 26.5234 268.84 30.1328 267.012 33.1094C265.184 36.0977 262.553 38.043 259.119 38.9453L258.697 37.5918C261.404 36.6895 263.414 34.9082 264.727 32.248C266.051 29.5879 266.713 26.207 266.713 22.1055ZM290.918 23.1074H282.762V20.3828H290.918V23.1074ZM314.244 18.0449H312.557C312.299 17.3418 311.994 16.791 311.643 16.3926C311.291 15.9824 310.893 15.6953 310.447 15.5312C310.002 15.3672 309.457 15.2852 308.812 15.2852C307.875 15.2852 307.125 15.5078 306.562 15.9531C306.012 16.3867 305.736 16.9844 305.736 17.7461C305.736 18.2852 305.848 18.7305 306.07 19.082C306.293 19.4336 306.639 19.7617 307.107 20.0664C307.576 20.3711 308.402 20.7754 309.586 21.2793C310.781 21.7949 311.701 22.2695 312.346 22.7031C313.002 23.1367 313.512 23.6406 313.875 24.2148C314.25 24.7891 314.438 25.4746 314.438 26.2715C314.438 27.1973 314.279 27.9766 313.963 28.6094C313.646 29.2422 313.201 29.7578 312.627 30.1562C312.053 30.5547 311.367 30.8418 310.57 31.0176C309.785 31.1934 308.924 31.2812 307.986 31.2812C307.002 31.2812 306.047 31.2051 305.121 31.0527C304.195 30.9121 303.293 30.7246 302.414 30.4902V26.8164H304.137C304.453 27.8945 304.922 28.6797 305.543 29.1719C306.164 29.6523 307.02 29.8926 308.109 29.8926C308.531 29.8926 308.941 29.8516 309.34 29.7695C309.75 29.6758 310.113 29.5293 310.43 29.3301C310.746 29.1191 310.998 28.8379 311.186 28.4863C311.373 28.1348 311.467 27.6953 311.467 27.168C311.467 26.5703 311.35 26.084 311.115 25.709C310.881 25.334 310.518 24.9941 310.025 24.6895C309.533 24.373 308.666 23.9512 307.424 23.4238C306.357 22.9785 305.502 22.5449 304.857 22.123C304.213 21.7012 303.703 21.2031 303.328 20.6289C302.965 20.0547 302.783 19.375 302.783 18.5898C302.783 17.6289 303.041 16.7969 303.557 16.0938C304.084 15.3789 304.84 14.834 305.824 14.459C306.809 14.084 307.963 13.8965 309.287 13.8965C310.061 13.8965 310.805 13.9375 311.52 14.0195C312.246 14.0898 313.154 14.2363 314.244 14.459V18.0449ZM322.963 7.30469V10.7148H319.729V7.30469H322.963ZM317.936 30.1387C318.393 29.998 318.715 29.875 318.902 29.7695C319.102 29.6641 319.266 29.5176 319.395 29.3301C319.535 29.1426 319.641 28.8555 319.711 28.4688C319.793 28.082 319.834 27.4785 319.834 26.6582V18.9941C319.834 18.2441 319.822 17.6406 319.799 17.1836C319.775 16.7266 319.693 16.3633 319.553 16.0938C319.412 15.8125 319.195 15.6074 318.902 15.4785C318.621 15.3379 318.217 15.2207 317.689 15.127V14.1953L321.785 14.0371H322.857V26.6055C322.857 27.6133 322.904 28.3164 322.998 28.7148C323.092 29.1016 323.268 29.4004 323.525 29.6113C323.795 29.8105 324.229 29.9863 324.826 30.1387V31H317.936V30.1387ZM345.076 31H338.15V30.1387C338.607 29.998 338.936 29.875 339.135 29.7695C339.334 29.6641 339.498 29.5176 339.627 29.3301C339.768 29.1426 339.873 28.8555 339.943 28.4688C340.025 28.0703 340.066 27.4727 340.066 26.6758V22.0703C340.066 21.25 340.043 20.5059 339.996 19.8379C339.949 19.1699 339.867 18.625 339.75 18.2031C339.645 17.7695 339.51 17.4355 339.346 17.2012C339.193 16.9551 339.006 16.75 338.783 16.5859C338.572 16.4102 338.326 16.2754 338.045 16.1816C337.764 16.0762 337.395 16.0234 336.938 16.0234C336.48 16.0234 336.047 16.1172 335.637 16.3047C335.227 16.4805 334.775 16.791 334.283 17.2363C333.791 17.6816 333.434 18.1211 333.211 18.5547C332.988 18.9883 332.877 19.4863 332.877 20.0488V26.6055C332.877 27.6133 332.924 28.3164 333.018 28.7148C333.111 29.1016 333.287 29.4004 333.545 29.6113C333.814 29.8105 334.248 29.9863 334.846 30.1387V31H327.955V30.1387C328.412 29.998 328.734 29.875 328.922 29.7695C329.121 29.6641 329.285 29.5176 329.414 29.3301C329.555 29.1426 329.66 28.8555 329.73 28.4688C329.812 28.082 329.854 27.4785 329.854 26.6582V18.9941C329.854 18.2441 329.842 17.6406 329.818 17.1836C329.795 16.7266 329.713 16.3633 329.572 16.0938C329.432 15.8125 329.215 15.6074 328.922 15.4785C328.641 15.3379 328.236 15.2207 327.709 15.127V14.1953L331.822 14.0371H332.895L332.701 16.9023L332.947 16.9727C333.814 16.0938 334.512 15.4668 335.039 15.0918C335.578 14.7168 336.117 14.4297 336.656 14.2305C337.207 14.0195 337.787 13.9141 338.396 13.9141C339.029 13.9141 339.592 13.9902 340.084 14.1426C340.588 14.2832 341.027 14.5059 341.402 14.8105C341.789 15.1152 342.105 15.4961 342.352 15.9531C342.598 16.3984 342.779 16.9375 342.896 17.5703C343.025 18.2031 343.09 19.0059 343.09 19.9785V26.6055C343.09 27.4141 343.113 28 343.16 28.3633C343.207 28.7266 343.289 29.0078 343.406 29.207C343.523 29.4062 343.693 29.5762 343.916 29.7168C344.139 29.8457 344.525 29.9863 345.076 30.1387V31ZM355.254 14.4414C355.664 14.4414 355.975 14.4238 356.186 14.3887C356.408 14.3418 356.584 14.2773 356.713 14.1953C356.842 14.1133 356.947 14.0078 357.029 13.8789C357.123 13.75 357.258 13.4688 357.434 13.0352H358.646L358.4 16.4277H348.1V15.7598C348.498 14.9043 349.037 14.0605 349.717 13.2285C350.396 12.3965 351.193 11.541 352.107 10.6621C353.197 9.61914 353.971 8.83398 354.428 8.30664C354.885 7.76758 355.225 7.26367 355.447 6.79492C355.67 6.31445 355.781 5.83398 355.781 5.35352C355.781 4.55664 355.553 3.92969 355.096 3.47266C354.65 3.01562 354.006 2.78711 353.162 2.78711C352.436 2.78711 351.814 2.98047 351.299 3.36719C350.795 3.75391 350.408 4.32227 350.139 5.07227H348.469V2.69922C349.512 2.27734 350.473 1.97852 351.352 1.80273C352.23 1.61523 353.01 1.52148 353.689 1.52148C354.615 1.52148 355.377 1.62109 355.975 1.82031C356.584 2.01953 357.07 2.2832 357.434 2.61133C357.797 2.92773 358.049 3.30273 358.189 3.73633C358.342 4.16992 358.418 4.61523 358.418 5.07227C358.418 5.64648 358.301 6.18555 358.066 6.68945C357.832 7.18164 357.445 7.7207 356.906 8.30664C356.379 8.88086 355.436 9.7832 354.076 11.0137C352.623 12.3379 351.568 13.4805 350.912 14.4414H355.254ZM367.225 22.1055C367.225 26.207 367.881 29.5879 369.193 32.248C370.518 34.9082 372.533 36.6895 375.24 37.5918L374.818 38.9453C371.385 38.043 368.754 36.0977 366.926 33.1094C365.098 30.1328 364.184 26.5234 364.184 22.2812C364.184 18.0508 365.098 14.4414 366.926 11.4531C368.766 8.45312 371.396 6.50195 374.818 5.59961L375.293 6.95312C372.551 7.85547 370.518 9.61914 369.193 12.2441C367.881 14.8574 367.225 18.1445 367.225 22.1055ZM385.102 20.8574L387.387 17.957C387.633 17.6406 387.832 17.3359 387.984 17.043C388.137 16.7383 388.213 16.4277 388.213 16.1113C388.213 15.8418 388.113 15.6191 387.914 15.4434C387.715 15.2676 387.404 15.1387 386.982 15.0566V14.1953H392.73V15.0566C392.285 15.1855 391.828 15.4375 391.359 15.8125C390.902 16.1875 390.34 16.791 389.672 17.623L386.033 22.0879L390.041 27.4844C390.615 28.2578 391.131 28.8496 391.588 29.2598C392.045 29.6699 392.502 29.9629 392.959 30.1387V31H385.893V30.1387C386.865 30.0215 387.352 29.6582 387.352 29.0488C387.352 28.8027 387.311 28.5684 387.229 28.3457C387.146 28.123 386.994 27.8652 386.771 27.5723L384.223 24.0215L381.516 27.5371C381.316 27.7949 381.158 28.0352 381.041 28.2578C380.936 28.4688 380.883 28.709 380.883 28.9785C380.883 29.2949 380.988 29.5586 381.199 29.7695C381.422 29.9688 381.768 30.0918 382.236 30.1387V31H376.365V30.1387C376.752 29.998 377.098 29.8223 377.402 29.6113C377.719 29.4004 378.035 29.1309 378.352 28.8027C378.68 28.4629 379.107 27.9707 379.635 27.3262L383.291 22.791L379.547 17.6582C379.031 16.9551 378.621 16.4453 378.316 16.1289C378.012 15.8125 377.73 15.5723 377.473 15.4082C377.215 15.2441 376.957 15.127 376.699 15.0566V14.1953H383.59V15.0566C382.664 15.1973 382.201 15.5605 382.201 16.1465C382.201 16.416 382.26 16.6855 382.377 16.9551C382.506 17.2246 382.699 17.5234 382.957 17.8516L385.102 20.8574ZM402.1 22.1055C402.1 18.1445 401.443 14.8574 400.131 12.2441C398.818 9.61914 396.785 7.85547 394.031 6.95312L394.506 5.59961C397.928 6.50195 400.553 8.45312 402.381 11.4531C404.221 14.4414 405.141 18.0508 405.141 22.2812C405.141 26.5234 404.227 30.1328 402.398 33.1094C400.57 36.0977 397.939 38.043 394.506 38.9453L394.084 37.5918C396.791 36.6895 398.801 34.9082 400.113 32.248C401.438 29.5879 402.1 26.207 402.1 22.1055Z" fill="white"/>
</svg>
