<svg width="349" height="42" viewBox="0 0 349 42" fill="none" xmlns="http://www.w3.org/2000/svg">
<path d="M14.8008 14.5996V18.2734H12.5684C12.3691 17.5117 12.123 16.9141 11.8301 16.4805C11.5371 16.0352 11.1973 15.7246 10.8105 15.5488C10.4238 15.373 9.94336 15.2852 9.36914 15.2852C8.54883 15.2852 7.82227 15.5488 7.18945 16.0762C6.55664 16.6035 6.05273 17.4062 5.67773 18.4844C5.31445 19.5625 5.13281 20.8809 5.13281 22.4395C5.13281 23.4355 5.20312 24.3496 5.34375 25.1816C5.48438 26.002 5.72461 26.7051 6.06445 27.291C6.4043 27.877 6.85547 28.334 7.41797 28.6621C7.98047 28.9902 8.67773 29.1543 9.50977 29.1543C10.3184 29.1543 11.0684 28.9961 11.7598 28.6797C12.4629 28.3633 13.1895 27.8066 13.9395 27.0098L14.9414 28.1699C14.3438 28.8262 13.8164 29.3359 13.3594 29.6992C12.9023 30.0508 12.4102 30.3496 11.8828 30.5957C11.3672 30.8301 10.8516 31 10.3359 31.1055C9.83203 31.2227 9.28125 31.2812 8.68359 31.2812C6.46875 31.2812 4.77539 30.5488 3.60352 29.084C2.43164 27.6074 1.8457 25.4805 1.8457 22.7031C1.8457 20.9688 2.17383 19.4336 2.83008 18.0977C3.48633 16.75 4.40625 15.7129 5.58984 14.9863C6.77344 14.2598 8.13867 13.8965 9.68555 13.8965C10.6465 13.8965 11.5312 13.9551 12.3398 14.0723C13.1602 14.1777 13.9805 14.3535 14.8008 14.5996ZM25.2422 31.2812C22.8047 31.2812 20.9414 30.5664 19.6523 29.1367C18.375 27.6953 17.7363 25.5684 17.7363 22.7559C17.7363 20.8223 18.0703 19.1875 18.7383 17.8516C19.418 16.5156 20.3438 15.5254 21.5156 14.8809C22.6875 14.2246 24.0234 13.8965 25.5234 13.8965C28.0312 13.8965 29.9297 14.6289 31.2188 16.0938C32.5078 17.5469 33.1523 19.6387 33.1523 22.3691C33.1523 24.3145 32.8301 25.9551 32.1855 27.291C31.541 28.627 30.627 29.6289 29.4434 30.2969C28.2598 30.9531 26.8594 31.2812 25.2422 31.2812ZM21.0586 22.3867C21.0586 24.8008 21.4395 26.6582 22.2012 27.959C22.9746 29.248 24.0762 29.8926 25.5059 29.8926C26.291 29.8926 26.959 29.7051 27.5098 29.3301C28.0605 28.9434 28.5059 28.4277 28.8457 27.7832C29.1973 27.1387 29.4492 26.3945 29.6016 25.5508C29.7539 24.6953 29.8301 23.8047 29.8301 22.8789C29.8301 21.1562 29.6367 19.7266 29.25 18.5898C28.875 17.4531 28.3594 16.6211 27.7031 16.0938C27.0469 15.5547 26.2969 15.2852 25.4531 15.2852C24.0352 15.2852 22.9453 15.9004 22.1836 17.1309C21.4336 18.3613 21.0586 20.1133 21.0586 22.3867ZM48.498 18.0449H46.8105C46.5527 17.3418 46.248 16.791 45.8965 16.3926C45.5449 15.9824 45.1465 15.6953 44.7012 15.5312C44.2559 15.3672 43.7109 15.2852 43.0664 15.2852C42.1289 15.2852 41.3789 15.5078 40.8164 15.9531C40.2656 16.3867 39.9902 16.9844 39.9902 17.7461C39.9902 18.2852 40.1016 18.7305 40.3242 19.082C40.5469 19.4336 40.8926 19.7617 41.3613 20.0664C41.8301 20.3711 42.6562 20.7754 43.8398 21.2793C45.0352 21.7949 45.9551 22.2695 46.5996 22.7031C47.2559 23.1367 47.7656 23.6406 48.1289 24.2148C48.5039 24.7891 48.6914 25.4746 48.6914 26.2715C48.6914 27.1973 48.5332 27.9766 48.2168 28.6094C47.9004 29.2422 47.4551 29.7578 46.8809 30.1562C46.3066 30.5547 45.6211 30.8418 44.8242 31.0176C44.0391 31.1934 43.1777 31.2812 42.2402 31.2812C41.2559 31.2812 40.3008 31.2051 39.375 31.0527C38.4492 30.9121 37.5469 30.7246 36.668 30.4902V26.8164H38.3906C38.707 27.8945 39.1758 28.6797 39.7969 29.1719C40.418 29.6523 41.2734 29.8926 42.3633 29.8926C42.7852 29.8926 43.1953 29.8516 43.5938 29.7695C44.0039 29.6758 44.3672 29.5293 44.6836 29.3301C45 29.1191 45.252 28.8379 45.4395 28.4863C45.627 28.1348 45.7207 27.6953 45.7207 27.168C45.7207 26.5703 45.6035 26.084 45.3691 25.709C45.1348 25.334 44.7715 24.9941 44.2793 24.6895C43.7871 24.373 42.9199 23.9512 41.6777 23.4238C40.6113 22.9785 39.7559 22.5449 39.1113 22.123C38.4668 21.7012 37.957 21.2031 37.582 20.6289C37.2188 20.0547 37.0371 19.375 37.0371 18.5898C37.0371 17.6289 37.2949 16.7969 37.8105 16.0938C38.3379 15.3789 39.0938 14.834 40.0781 14.459C41.0625 14.084 42.2168 13.8965 43.541 13.8965C44.3145 13.8965 45.0586 13.9375 45.7734 14.0195C46.5 14.0898 47.4082 14.2363 48.498 14.459V18.0449ZM56.6895 22.1055C56.6895 26.207 57.3457 29.5879 58.6582 32.248C59.9824 34.9082 61.998 36.6895 64.7051 37.5918L64.2832 38.9453C60.8496 38.043 58.2188 36.0977 56.3906 33.1094C54.5625 30.1328 53.6484 26.5234 53.6484 22.2812C53.6484 18.0508 54.5625 14.4414 56.3906 11.4531C58.2305 8.45312 60.8613 6.50195 64.2832 5.59961L64.7578 6.95312C62.0156 7.85547 59.9824 9.61914 58.6582 12.2441C57.3457 14.8574 56.6895 18.1445 56.6895 22.1055ZM77.7656 28.1875C78.3398 28.1875 78.8027 28.1523 79.1543 28.082C79.5059 28.0117 79.7871 27.8945 79.998 27.7305C80.209 27.5664 80.373 27.3555 80.4902 27.0977C80.6191 26.8281 80.7773 26.418 80.9648 25.8672H82.459L82.1602 31H67.6934V30.1562C68.1973 28.9258 68.877 27.666 69.7324 26.377C70.5879 25.0879 71.8008 23.5703 73.3711 21.8242C74.7305 20.3242 75.709 19.1875 76.3066 18.4141C76.9629 17.5703 77.4492 16.8438 77.7656 16.2344C78.0938 15.6133 78.3281 15.0332 78.4688 14.4941C78.6094 13.9434 78.6797 13.3926 78.6797 12.8418C78.6797 11.9629 78.5391 11.1895 78.2578 10.5215C77.9766 9.8418 77.543 9.30859 76.957 8.92188C76.3828 8.53516 75.6562 8.3418 74.7773 8.3418C72.5859 8.3418 71.1094 9.56055 70.3477 11.998H68.2207V8.62305C69.6387 7.95508 70.9629 7.47461 72.1934 7.18164C73.4355 6.87695 74.5488 6.72461 75.5332 6.72461C77.7129 6.72461 79.3594 7.20508 80.4727 8.16602C81.5859 9.11523 82.1426 10.498 82.1426 12.3145C82.1426 12.9355 82.0781 13.5098 81.9492 14.0371C81.832 14.5527 81.6387 15.0684 81.3691 15.584C81.1113 16.0879 80.7598 16.6328 80.3145 17.2188C79.8691 17.8047 79.377 18.4023 78.8379 19.0117C78.2988 19.6094 77.3672 20.6113 76.043 22.0176C73.8164 24.373 72.1816 26.4297 71.1387 28.1875H77.7656ZM94.5 20.8574L96.7852 17.957C97.0312 17.6406 97.2305 17.3359 97.3828 17.043C97.5352 16.7383 97.6113 16.4277 97.6113 16.1113C97.6113 15.8418 97.5117 15.6191 97.3125 15.4434C97.1133 15.2676 96.8027 15.1387 96.3809 15.0566V14.1953H102.129V15.0566C101.684 15.1855 101.227 15.4375 100.758 15.8125C100.301 16.1875 99.7383 16.791 99.0703 17.623L95.4316 22.0879L99.4395 27.4844C100.014 28.2578 100.529 28.8496 100.986 29.2598C101.443 29.6699 101.9 29.9629 102.357 30.1387V31H95.291V30.1387C96.2637 30.0215 96.75 29.6582 96.75 29.0488C96.75 28.8027 96.709 28.5684 96.627 28.3457C96.5449 28.123 96.3926 27.8652 96.1699 27.5723L93.6211 24.0215L90.9141 27.5371C90.7148 27.7949 90.5566 28.0352 90.4395 28.2578C90.334 28.4688 90.2812 28.709 90.2812 28.9785C90.2812 29.2949 90.3867 29.5586 90.5977 29.7695C90.8203 29.9688 91.166 30.0918 91.6348 30.1387V31H85.7637V30.1387C86.1504 29.998 86.4961 29.8223 86.8008 29.6113C87.1172 29.4004 87.4336 29.1309 87.75 28.8027C88.0781 28.4629 88.5059 27.9707 89.0332 27.3262L92.6895 22.791L88.9453 17.6582C88.4297 16.9551 88.0195 16.4453 87.7148 16.1289C87.4102 15.8125 87.1289 15.5723 86.8711 15.4082C86.6133 15.2441 86.3555 15.127 86.0977 15.0566V14.1953H92.9883V15.0566C92.0625 15.1973 91.5996 15.5605 91.5996 16.1465C91.5996 16.416 91.6582 16.6855 91.7754 16.9551C91.9043 17.2246 92.0977 17.5234 92.3555 17.8516L94.5 20.8574ZM111.498 22.1055C111.498 18.1445 110.842 14.8574 109.529 12.2441C108.217 9.61914 106.184 7.85547 103.43 6.95312L103.904 5.59961C107.326 6.50195 109.951 8.45312 111.779 11.4531C113.619 14.4414 114.539 18.0508 114.539 22.2812C114.539 26.5234 113.625 30.1328 111.797 33.1094C109.969 36.0977 107.338 38.043 103.904 38.9453L103.482 37.5918C106.189 36.6895 108.199 34.9082 109.512 32.248C110.836 29.5879 111.498 26.207 111.498 22.1055ZM128.268 18.2383V15.9004H149.924V18.2383H128.268ZM128.268 25.5332V23.1953H149.924V25.5332H128.268ZM172.828 28.1875C173.402 28.1875 173.865 28.1523 174.217 28.082C174.568 28.0117 174.85 27.8945 175.061 27.7305C175.271 27.5664 175.436 27.3555 175.553 27.0977C175.682 26.8281 175.84 26.418 176.027 25.8672H177.521L177.223 31H162.756V30.1562C163.26 28.9258 163.939 27.666 164.795 26.377C165.65 25.0879 166.863 23.5703 168.434 21.8242C169.793 20.3242 170.771 19.1875 171.369 18.4141C172.025 17.5703 172.512 16.8438 172.828 16.2344C173.156 15.6133 173.391 15.0332 173.531 14.4941C173.672 13.9434 173.742 13.3926 173.742 12.8418C173.742 11.9629 173.602 11.1895 173.32 10.5215C173.039 9.8418 172.605 9.30859 172.02 8.92188C171.445 8.53516 170.719 8.3418 169.84 8.3418C167.648 8.3418 166.172 9.56055 165.41 11.998H163.283V8.62305C164.701 7.95508 166.025 7.47461 167.256 7.18164C168.498 6.87695 169.611 6.72461 170.596 6.72461C172.775 6.72461 174.422 7.20508 175.535 8.16602C176.648 9.11523 177.205 10.498 177.205 12.3145C177.205 12.9355 177.141 13.5098 177.012 14.0371C176.895 14.5527 176.701 15.0684 176.432 15.584C176.174 16.0879 175.822 16.6328 175.377 17.2188C174.932 17.8047 174.439 18.4023 173.9 19.0117C173.361 19.6094 172.43 20.6113 171.105 22.0176C168.879 24.373 167.244 26.4297 166.201 28.1875H172.828ZM203.168 14.5996V18.2734H200.936C200.736 17.5117 200.49 16.9141 200.197 16.4805C199.904 16.0352 199.564 15.7246 199.178 15.5488C198.791 15.373 198.311 15.2852 197.736 15.2852C196.916 15.2852 196.189 15.5488 195.557 16.0762C194.924 16.6035 194.42 17.4062 194.045 18.4844C193.682 19.5625 193.5 20.8809 193.5 22.4395C193.5 23.4355 193.57 24.3496 193.711 25.1816C193.852 26.002 194.092 26.7051 194.432 27.291C194.771 27.877 195.223 28.334 195.785 28.6621C196.348 28.9902 197.045 29.1543 197.877 29.1543C198.686 29.1543 199.436 28.9961 200.127 28.6797C200.83 28.3633 201.557 27.8066 202.307 27.0098L203.309 28.1699C202.711 28.8262 202.184 29.3359 201.727 29.6992C201.27 30.0508 200.777 30.3496 200.25 30.5957C199.734 30.8301 199.219 31 198.703 31.1055C198.199 31.2227 197.648 31.2812 197.051 31.2812C194.836 31.2812 193.143 30.5488 191.971 29.084C190.799 27.6074 190.213 25.4805 190.213 22.7031C190.213 20.9688 190.541 19.4336 191.197 18.0977C191.854 16.75 192.773 15.7129 193.957 14.9863C195.141 14.2598 196.506 13.8965 198.053 13.8965C199.014 13.8965 199.898 13.9551 200.707 14.0723C201.527 14.1777 202.348 14.3535 203.168 14.5996ZM213.609 31.2812C211.172 31.2812 209.309 30.5664 208.02 29.1367C206.742 27.6953 206.104 25.5684 206.104 22.7559C206.104 20.8223 206.438 19.1875 207.105 17.8516C207.785 16.5156 208.711 15.5254 209.883 14.8809C211.055 14.2246 212.391 13.8965 213.891 13.8965C216.398 13.8965 218.297 14.6289 219.586 16.0938C220.875 17.5469 221.52 19.6387 221.52 22.3691C221.52 24.3145 221.197 25.9551 220.553 27.291C219.908 28.627 218.994 29.6289 217.811 30.2969C216.627 30.9531 215.227 31.2812 213.609 31.2812ZM209.426 22.3867C209.426 24.8008 209.807 26.6582 210.568 27.959C211.342 29.248 212.443 29.8926 213.873 29.8926C214.658 29.8926 215.326 29.7051 215.877 29.3301C216.428 28.9434 216.873 28.4277 217.213 27.7832C217.564 27.1387 217.816 26.3945 217.969 25.5508C218.121 24.6953 218.197 23.8047 218.197 22.8789C218.197 21.1562 218.004 19.7266 217.617 18.5898C217.242 17.4531 216.727 16.6211 216.07 16.0938C215.414 15.5547 214.664 15.2852 213.82 15.2852C212.402 15.2852 211.312 15.9004 210.551 17.1309C209.801 18.3613 209.426 20.1133 209.426 22.3867ZM236.865 18.0449H235.178C234.92 17.3418 234.615 16.791 234.264 16.3926C233.912 15.9824 233.514 15.6953 233.068 15.5312C232.623 15.3672 232.078 15.2852 231.434 15.2852C230.496 15.2852 229.746 15.5078 229.184 15.9531C228.633 16.3867 228.357 16.9844 228.357 17.7461C228.357 18.2852 228.469 18.7305 228.691 19.082C228.914 19.4336 229.26 19.7617 229.729 20.0664C230.197 20.3711 231.023 20.7754 232.207 21.2793C233.402 21.7949 234.322 22.2695 234.967 22.7031C235.623 23.1367 236.133 23.6406 236.496 24.2148C236.871 24.7891 237.059 25.4746 237.059 26.2715C237.059 27.1973 236.9 27.9766 236.584 28.6094C236.268 29.2422 235.822 29.7578 235.248 30.1562C234.674 30.5547 233.988 30.8418 233.191 31.0176C232.406 31.1934 231.545 31.2812 230.607 31.2812C229.623 31.2812 228.668 31.2051 227.742 31.0527C226.816 30.9121 225.914 30.7246 225.035 30.4902V26.8164H226.758C227.074 27.8945 227.543 28.6797 228.164 29.1719C228.785 29.6523 229.641 29.8926 230.73 29.8926C231.152 29.8926 231.562 29.8516 231.961 29.7695C232.371 29.6758 232.734 29.5293 233.051 29.3301C233.367 29.1191 233.619 28.8379 233.807 28.4863C233.994 28.1348 234.088 27.6953 234.088 27.168C234.088 26.5703 233.971 26.084 233.736 25.709C233.502 25.334 233.139 24.9941 232.646 24.6895C232.154 24.373 231.287 23.9512 230.045 23.4238C228.979 22.9785 228.123 22.5449 227.479 22.123C226.834 21.7012 226.324 21.2031 225.949 20.6289C225.586 20.0547 225.404 19.375 225.404 18.5898C225.404 17.6289 225.662 16.7969 226.178 16.0938C226.705 15.3789 227.461 14.834 228.445 14.459C229.43 14.084 230.584 13.8965 231.908 13.8965C232.682 13.8965 233.426 13.9375 234.141 14.0195C234.867 14.0898 235.775 14.2363 236.865 14.459V18.0449ZM247.746 14.4414C248.156 14.4414 248.467 14.4238 248.678 14.3887C248.9 14.3418 249.076 14.2773 249.205 14.1953C249.334 14.1133 249.439 14.0078 249.521 13.8789C249.615 13.75 249.75 13.4688 249.926 13.0352H251.139L250.893 16.4277H240.592V15.7598C240.99 14.9043 241.529 14.0605 242.209 13.2285C242.889 12.3965 243.686 11.541 244.6 10.6621C245.689 9.61914 246.463 8.83398 246.92 8.30664C247.377 7.76758 247.717 7.26367 247.939 6.79492C248.162 6.31445 248.273 5.83398 248.273 5.35352C248.273 4.55664 248.045 3.92969 247.588 3.47266C247.143 3.01562 246.498 2.78711 245.654 2.78711C244.928 2.78711 244.307 2.98047 243.791 3.36719C243.287 3.75391 242.9 4.32227 242.631 5.07227H240.961V2.69922C242.004 2.27734 242.965 1.97852 243.844 1.80273C244.723 1.61523 245.502 1.52148 246.182 1.52148C247.107 1.52148 247.869 1.62109 248.467 1.82031C249.076 2.01953 249.562 2.2832 249.926 2.61133C250.289 2.92773 250.541 3.30273 250.682 3.73633C250.834 4.16992 250.91 4.61523 250.91 5.07227C250.91 5.64648 250.793 6.18555 250.559 6.68945C250.324 7.18164 249.938 7.7207 249.398 8.30664C248.871 8.88086 247.928 9.7832 246.568 11.0137C245.115 12.3379 244.061 13.4805 243.404 14.4414H247.746ZM259.717 22.1055C259.717 26.207 260.373 29.5879 261.686 32.248C263.01 34.9082 265.025 36.6895 267.732 37.5918L267.311 38.9453C263.877 38.043 261.246 36.0977 259.418 33.1094C257.59 30.1328 256.676 26.5234 256.676 22.2812C256.676 18.0508 257.59 14.4414 259.418 11.4531C261.258 8.45312 263.889 6.50195 267.311 5.59961L267.785 6.95312C265.043 7.85547 263.01 9.61914 261.686 12.2441C260.373 14.8574 259.717 18.1445 259.717 22.1055ZM277.594 20.8574L279.879 17.957C280.125 17.6406 280.324 17.3359 280.477 17.043C280.629 16.7383 280.705 16.4277 280.705 16.1113C280.705 15.8418 280.605 15.6191 280.406 15.4434C280.207 15.2676 279.896 15.1387 279.475 15.0566V14.1953H285.223V15.0566C284.777 15.1855 284.32 15.4375 283.852 15.8125C283.395 16.1875 282.832 16.791 282.164 17.623L278.525 22.0879L282.533 27.4844C283.107 28.2578 283.623 28.8496 284.08 29.2598C284.537 29.6699 284.994 29.9629 285.451 30.1387V31H278.385V30.1387C279.357 30.0215 279.844 29.6582 279.844 29.0488C279.844 28.8027 279.803 28.5684 279.721 28.3457C279.639 28.123 279.486 27.8652 279.264 27.5723L276.715 24.0215L274.008 27.5371C273.809 27.7949 273.65 28.0352 273.533 28.2578C273.428 28.4688 273.375 28.709 273.375 28.9785C273.375 29.2949 273.48 29.5586 273.691 29.7695C273.914 29.9688 274.26 30.0918 274.729 30.1387V31H268.857V30.1387C269.244 29.998 269.59 29.8223 269.895 29.6113C270.211 29.4004 270.527 29.1309 270.844 28.8027C271.172 28.4629 271.6 27.9707 272.127 27.3262L275.783 22.791L272.039 17.6582C271.523 16.9551 271.113 16.4453 270.809 16.1289C270.504 15.8125 270.223 15.5723 269.965 15.4082C269.707 15.2441 269.449 15.127 269.191 15.0566V14.1953H276.082V15.0566C275.156 15.1973 274.693 15.5605 274.693 16.1465C274.693 16.416 274.752 16.6855 274.869 16.9551C274.998 17.2246 275.191 17.5234 275.449 17.8516L277.594 20.8574ZM294.592 22.1055C294.592 18.1445 293.936 14.8574 292.623 12.2441C291.311 9.61914 289.277 7.85547 286.523 6.95312L286.998 5.59961C290.42 6.50195 293.045 8.45312 294.873 11.4531C296.713 14.4414 297.633 18.0508 297.633 22.2812C297.633 26.5234 296.719 30.1328 294.891 33.1094C293.062 36.0977 290.432 38.043 286.998 38.9453L286.576 37.5918C289.283 36.6895 291.293 34.9082 292.605 32.248C293.93 29.5879 294.592 26.207 294.592 22.1055ZM318.797 23.1074H310.641V20.3828H318.797V23.1074ZM340.857 26.4121C340.857 27.0918 340.893 27.6074 340.963 27.959C341.045 28.2988 341.18 28.5801 341.367 28.8027C341.566 29.0137 341.848 29.1836 342.211 29.3125C342.574 29.4297 343.031 29.5234 343.582 29.5938C344.133 29.6523 344.859 29.6934 345.762 29.7168V31H332.771V29.7168C334.072 29.6582 334.998 29.582 335.549 29.4883C336.111 29.3828 336.539 29.2305 336.832 29.0312C337.125 28.832 337.336 28.5508 337.465 28.1875C337.605 27.8242 337.676 27.2324 337.676 26.4121V12.1562C337.676 11.6875 337.594 11.3477 337.43 11.1367C337.266 10.9141 337.025 10.8027 336.709 10.8027C336.334 10.8027 335.801 10.9961 335.109 11.3828C334.418 11.7695 333.562 12.3027 332.543 12.9824L331.77 11.6289L339.996 6.72461H340.963C340.893 7.84961 340.857 9.4082 340.857 11.4004V26.4121Z" fill="white"/>
</svg>
