<svg width="372" height="99" viewBox="0 0 372 99" fill="none" xmlns="http://www.w3.org/2000/svg">
<path d="M0.650391 43.0742C1.23633 42.9805 1.71094 42.8164 2.07422 42.582C2.4375 42.3477 2.71875 42.0488 2.91797 41.6855C3.12891 41.3105 3.29297 40.8477 3.41016 40.2969C3.52734 39.7344 3.65039 38.9199 3.7793 37.8535H6.27539V42.1953H11.9531V43.9707H6.27539V51.793C6.27539 52.9297 6.32227 53.8379 6.41602 54.5176C6.50977 55.1855 6.68555 55.7129 6.94336 56.0996C7.20117 56.4746 7.49414 56.7441 7.82227 56.9082C8.15039 57.0723 8.57227 57.1543 9.08789 57.1543C9.55664 57.1543 9.99609 57.0605 10.4062 56.873C10.8164 56.6738 11.2207 56.3926 11.6191 56.0293L12.4102 56.9785C11.5781 57.7871 10.7871 58.373 10.0371 58.7363C9.29883 59.0996 8.53125 59.2812 7.73438 59.2812C6.22266 59.2812 5.09766 58.8359 4.35938 57.9453C3.62109 57.043 3.25195 55.6367 3.25195 53.7266V43.9707H0.650391V43.0742ZM24.0645 56.4863L23.8008 56.416C22.7812 57.459 21.8203 58.1973 20.918 58.6309C20.0273 59.0645 19.0781 59.2812 18.0703 59.2812C17.1797 59.2812 16.3945 59.1113 15.7148 58.7715C15.0352 58.4199 14.5137 57.9336 14.1504 57.3125C13.7871 56.6797 13.6055 55.9531 13.6055 55.1328C13.6055 53.4219 14.4492 52.1035 16.1367 51.1777C17.8359 50.2402 20.3789 49.6953 23.7656 49.543V48.4004C23.7656 47.1816 23.6484 46.2207 23.4141 45.5176C23.1797 44.8145 22.8105 44.2988 22.3066 43.9707C21.8027 43.6426 21.1289 43.4785 20.2852 43.4785C19.3711 43.4785 18.6328 43.7188 18.0703 44.1992C17.5195 44.6797 17.1035 45.4004 16.8223 46.3613H14.5195V44.0762C15.6445 43.4902 16.582 43.0625 17.332 42.793C18.082 42.5117 18.832 42.2949 19.582 42.1426C20.332 41.9785 21.0938 41.8965 21.8672 41.8965C23.0273 41.8965 23.959 42.084 24.6621 42.459C25.3652 42.8223 25.8926 43.3848 26.2441 44.1465C26.5957 44.9082 26.7715 46.0566 26.7715 47.5918V53.709C26.7715 54.5762 26.7773 55.1914 26.7891 55.5547C26.8008 55.9062 26.8359 56.2344 26.8945 56.5391C26.9531 56.8438 27.041 57.0898 27.1582 57.2773C27.2754 57.4531 27.4453 57.6055 27.668 57.7344C27.9023 57.8633 28.2773 57.998 28.793 58.1387V59H23.9766L24.0645 56.4863ZM23.7656 50.9844C21.3867 51.0078 19.6055 51.3242 18.4219 51.9336C17.2383 52.543 16.6465 53.4629 16.6465 54.6934C16.6465 55.3613 16.7812 55.8887 17.0508 56.2754C17.3203 56.6621 17.6602 56.9316 18.0703 57.084C18.4805 57.2246 18.9668 57.2949 19.5293 57.2949C20.3262 57.2949 21.0469 57.1016 21.6914 56.7148C22.3477 56.3281 22.8574 55.8359 23.2207 55.2383C23.584 54.6406 23.7656 54.0488 23.7656 53.4629V50.9844ZM48.6035 59H41.6777V58.1387C42.1348 57.998 42.4629 57.875 42.6621 57.7695C42.8613 57.6641 43.0254 57.5176 43.1543 57.3301C43.2949 57.1426 43.4004 56.8555 43.4707 56.4688C43.5527 56.0703 43.5938 55.4727 43.5938 54.6758V50.0703C43.5938 49.25 43.5703 48.5059 43.5234 47.8379C43.4766 47.1699 43.3945 46.625 43.2773 46.2031C43.1719 45.7695 43.0371 45.4355 42.873 45.2012C42.7207 44.9551 42.5332 44.75 42.3105 44.5859C42.0996 44.4102 41.8535 44.2754 41.5723 44.1816C41.291 44.0762 40.9219 44.0234 40.4648 44.0234C40.0078 44.0234 39.5742 44.1172 39.1641 44.3047C38.7539 44.4805 38.3027 44.791 37.8105 45.2363C37.3184 45.6816 36.9609 46.1211 36.7383 46.5547C36.5156 46.9883 36.4043 47.4863 36.4043 48.0488V54.6055C36.4043 55.6133 36.4512 56.3164 36.5449 56.7148C36.6387 57.1016 36.8145 57.4004 37.0723 57.6113C37.3418 57.8105 37.7754 57.9863 38.373 58.1387V59H31.4824V58.1387C31.9395 57.998 32.2617 57.875 32.4492 57.7695C32.6484 57.6641 32.8125 57.5176 32.9414 57.3301C33.082 57.1426 33.1875 56.8555 33.2578 56.4688C33.3398 56.082 33.3809 55.4785 33.3809 54.6582V46.9941C33.3809 46.2441 33.3691 45.6406 33.3457 45.1836C33.3223 44.7266 33.2402 44.3633 33.0996 44.0938C32.959 43.8125 32.7422 43.6074 32.4492 43.4785C32.168 43.3379 31.7637 43.2207 31.2363 43.127V42.1953L35.3496 42.0371H36.4219L36.2285 44.9023L36.4746 44.9727C37.3418 44.0938 38.0391 43.4668 38.5664 43.0918C39.1055 42.7168 39.6445 42.4297 40.1836 42.2305C40.7344 42.0195 41.3145 41.9141 41.9238 41.9141C42.5566 41.9141 43.1191 41.9902 43.6113 42.1426C44.1152 42.2832 44.5547 42.5059 44.9297 42.8105C45.3164 43.1152 45.6328 43.4961 45.8789 43.9531C46.125 44.3984 46.3066 44.9375 46.4238 45.5703C46.5527 46.2031 46.6172 47.0059 46.6172 47.9785V54.6055C46.6172 55.4141 46.6406 56 46.6875 56.3633C46.7344 56.7266 46.8164 57.0078 46.9336 57.207C47.0508 57.4062 47.2207 57.5762 47.4434 57.7168C47.666 57.8457 48.0527 57.9863 48.6035 58.1387V59ZM56.0918 50.1055C56.0918 54.207 56.748 57.5879 58.0605 60.248C59.3848 62.9082 61.4004 64.6895 64.1074 65.5918L63.6855 66.9453C60.252 66.043 57.6211 64.0977 55.793 61.1094C53.9648 58.1328 53.0508 54.5234 53.0508 50.2812C53.0508 46.0508 53.9648 42.4414 55.793 39.4531C57.6328 36.4531 60.2637 34.502 63.6855 33.5996L64.1602 34.9531C61.418 35.8555 59.3848 37.6191 58.0605 40.2441C56.748 42.8574 56.0918 46.1445 56.0918 50.1055ZM77.168 56.1875C77.7422 56.1875 78.2051 56.1523 78.5566 56.082C78.9082 56.0117 79.1895 55.8945 79.4004 55.7305C79.6113 55.5664 79.7754 55.3555 79.8926 55.0977C80.0215 54.8281 80.1797 54.418 80.3672 53.8672H81.8613L81.5625 59H67.0957V58.1562C67.5996 56.9258 68.2793 55.666 69.1348 54.377C69.9902 53.0879 71.2031 51.5703 72.7734 49.8242C74.1328 48.3242 75.1113 47.1875 75.709 46.4141C76.3652 45.5703 76.8516 44.8438 77.168 44.2344C77.4961 43.6133 77.7305 43.0332 77.8711 42.4941C78.0117 41.9434 78.082 41.3926 78.082 40.8418C78.082 39.9629 77.9414 39.1895 77.6602 38.5215C77.3789 37.8418 76.9453 37.3086 76.3594 36.9219C75.7852 36.5352 75.0586 36.3418 74.1797 36.3418C71.9883 36.3418 70.5117 37.5605 69.75 39.998H67.623V36.623C69.041 35.9551 70.3652 35.4746 71.5957 35.1816C72.8379 34.877 73.9512 34.7246 74.9355 34.7246C77.1152 34.7246 78.7617 35.2051 79.875 36.166C80.9883 37.1152 81.5449 38.498 81.5449 40.3145C81.5449 40.9355 81.4805 41.5098 81.3516 42.0371C81.2344 42.5527 81.041 43.0684 80.7715 43.584C80.5137 44.0879 80.1621 44.6328 79.7168 45.2188C79.2715 45.8047 78.7793 46.4023 78.2402 47.0117C77.7012 47.6094 76.7695 48.6113 75.4453 50.0176C73.2188 52.373 71.584 54.4297 70.541 56.1875H77.168ZM93.9023 48.8574L96.1875 45.957C96.4336 45.6406 96.6328 45.3359 96.7852 45.043C96.9375 44.7383 97.0137 44.4277 97.0137 44.1113C97.0137 43.8418 96.9141 43.6191 96.7148 43.4434C96.5156 43.2676 96.2051 43.1387 95.7832 43.0566V42.1953H101.531V43.0566C101.086 43.1855 100.629 43.4375 100.16 43.8125C99.7031 44.1875 99.1406 44.791 98.4727 45.623L94.834 50.0879L98.8418 55.4844C99.416 56.2578 99.9316 56.8496 100.389 57.2598C100.846 57.6699 101.303 57.9629 101.76 58.1387V59H94.6934V58.1387C95.666 58.0215 96.1523 57.6582 96.1523 57.0488C96.1523 56.8027 96.1113 56.5684 96.0293 56.3457C95.9473 56.123 95.7949 55.8652 95.5723 55.5723L93.0234 52.0215L90.3164 55.5371C90.1172 55.7949 89.959 56.0352 89.8418 56.2578C89.7363 56.4688 89.6836 56.709 89.6836 56.9785C89.6836 57.2949 89.7891 57.5586 90 57.7695C90.2227 57.9688 90.5684 58.0918 91.0371 58.1387V59H85.166V58.1387C85.5527 57.998 85.8984 57.8223 86.2031 57.6113C86.5195 57.4004 86.8359 57.1309 87.1523 56.8027C87.4805 56.4629 87.9082 55.9707 88.4355 55.3262L92.0918 50.791L88.3477 45.6582C87.832 44.9551 87.4219 44.4453 87.1172 44.1289C86.8125 43.8125 86.5312 43.5723 86.2734 43.4082C86.0156 43.2441 85.7578 43.127 85.5 43.0566V42.1953H92.3906V43.0566C91.4648 43.1973 91.002 43.5605 91.002 44.1465C91.002 44.416 91.0605 44.6855 91.1777 44.9551C91.3066 45.2246 91.5 45.5234 91.7578 45.8516L93.9023 48.8574ZM110.9 50.1055C110.9 46.1445 110.244 42.8574 108.932 40.2441C107.619 37.6191 105.586 35.8555 102.832 34.9531L103.307 33.5996C106.729 34.502 109.354 36.4531 111.182 39.4531C113.021 42.4414 113.941 46.0508 113.941 50.2812C113.941 54.5234 113.027 58.1328 111.199 61.1094C109.371 64.0977 106.74 66.043 103.307 66.9453L102.885 65.5918C105.592 64.6895 107.602 62.9082 108.914 60.248C110.238 57.5879 110.9 54.207 110.9 50.1055ZM127.67 46.2383V43.9004H149.326V46.2383H127.67ZM127.67 53.5332V51.1953H149.326V53.5332H127.67Z" fill="white"/>
<line x1="172" y1="48" x2="372" y2="48" stroke="white" stroke-width="2"/>
<path d="M221.34 28.1875C221.914 28.1875 222.377 28.1523 222.729 28.082C223.08 28.0117 223.361 27.8945 223.572 27.7305C223.783 27.5664 223.947 27.3555 224.064 27.0977C224.193 26.8281 224.352 26.418 224.539 25.8672H226.033L225.734 31H211.268V30.1562C211.771 28.9258 212.451 27.666 213.307 26.377C214.162 25.0879 215.375 23.5703 216.945 21.8242C218.305 20.3242 219.283 19.1875 219.881 18.4141C220.537 17.5703 221.023 16.8438 221.34 16.2344C221.668 15.6133 221.902 15.0332 222.043 14.4941C222.184 13.9434 222.254 13.3926 222.254 12.8418C222.254 11.9629 222.113 11.1895 221.832 10.5215C221.551 9.8418 221.117 9.30859 220.531 8.92188C219.957 8.53516 219.23 8.3418 218.352 8.3418C216.16 8.3418 214.684 9.56055 213.922 11.998H211.795V8.62305C213.213 7.95508 214.537 7.47461 215.768 7.18164C217.01 6.87695 218.123 6.72461 219.107 6.72461C221.287 6.72461 222.934 7.20508 224.047 8.16602C225.16 9.11523 225.717 10.498 225.717 12.3145C225.717 12.9355 225.652 13.5098 225.523 14.0371C225.406 14.5527 225.213 15.0684 224.943 15.584C224.686 16.0879 224.334 16.6328 223.889 17.2188C223.443 17.8047 222.951 18.4023 222.412 19.0117C221.873 19.6094 220.941 20.6113 219.617 22.0176C217.391 24.373 215.756 26.4297 214.713 28.1875H221.34ZM237.529 15.0742C238.115 14.9805 238.59 14.8164 238.953 14.582C239.316 14.3477 239.598 14.0488 239.797 13.6855C240.008 13.3105 240.172 12.8477 240.289 12.2969C240.406 11.7344 240.529 10.9199 240.658 9.85352H243.154V14.1953H248.832V15.9707H243.154V23.793C243.154 24.9297 243.201 25.8379 243.295 26.5176C243.389 27.1855 243.564 27.7129 243.822 28.0996C244.08 28.4746 244.373 28.7441 244.701 28.9082C245.029 29.0723 245.451 29.1543 245.967 29.1543C246.436 29.1543 246.875 29.0605 247.285 28.873C247.695 28.6738 248.1 28.3926 248.498 28.0293L249.289 28.9785C248.457 29.7871 247.666 30.373 246.916 30.7363C246.178 31.0996 245.41 31.2812 244.613 31.2812C243.102 31.2812 241.977 30.8359 241.238 29.9453C240.5 29.043 240.131 27.6367 240.131 25.7266V15.9707H237.529V15.0742ZM260.943 28.4863L260.68 28.416C259.66 29.459 258.699 30.1973 257.797 30.6309C256.906 31.0645 255.957 31.2812 254.949 31.2812C254.059 31.2812 253.273 31.1113 252.594 30.7715C251.914 30.4199 251.393 29.9336 251.029 29.3125C250.666 28.6797 250.484 27.9531 250.484 27.1328C250.484 25.4219 251.328 24.1035 253.016 23.1777C254.715 22.2402 257.258 21.6953 260.645 21.543V20.4004C260.645 19.1816 260.527 18.2207 260.293 17.5176C260.059 16.8145 259.689 16.2988 259.186 15.9707C258.682 15.6426 258.008 15.4785 257.164 15.4785C256.25 15.4785 255.512 15.7188 254.949 16.1992C254.398 16.6797 253.982 17.4004 253.701 18.3613H251.398V16.0762C252.523 15.4902 253.461 15.0625 254.211 14.793C254.961 14.5117 255.711 14.2949 256.461 14.1426C257.211 13.9785 257.973 13.8965 258.746 13.8965C259.906 13.8965 260.838 14.084 261.541 14.459C262.244 14.8223 262.771 15.3848 263.123 16.1465C263.475 16.9082 263.65 18.0566 263.65 19.5918V25.709C263.65 26.5762 263.656 27.1914 263.668 27.5547C263.68 27.9062 263.715 28.2344 263.773 28.5391C263.832 28.8438 263.92 29.0898 264.037 29.2773C264.154 29.4531 264.324 29.6055 264.547 29.7344C264.781 29.8633 265.156 29.998 265.672 30.1387V31H260.855L260.943 28.4863ZM260.645 22.9844C258.266 23.0078 256.484 23.3242 255.301 23.9336C254.117 24.543 253.525 25.4629 253.525 26.6934C253.525 27.3613 253.66 27.8887 253.93 28.2754C254.199 28.6621 254.539 28.9316 254.949 29.084C255.359 29.2246 255.846 29.2949 256.408 29.2949C257.205 29.2949 257.926 29.1016 258.57 28.7148C259.227 28.3281 259.736 27.8359 260.1 27.2383C260.463 26.6406 260.645 26.0488 260.645 25.4629V22.9844ZM285.482 31H278.557V30.1387C279.014 29.998 279.342 29.875 279.541 29.7695C279.74 29.6641 279.904 29.5176 280.033 29.3301C280.174 29.1426 280.279 28.8555 280.35 28.4688C280.432 28.0703 280.473 27.4727 280.473 26.6758V22.0703C280.473 21.25 280.449 20.5059 280.402 19.8379C280.355 19.1699 280.273 18.625 280.156 18.2031C280.051 17.7695 279.916 17.4355 279.752 17.2012C279.6 16.9551 279.412 16.75 279.189 16.5859C278.979 16.4102 278.732 16.2754 278.451 16.1816C278.17 16.0762 277.801 16.0234 277.344 16.0234C276.887 16.0234 276.453 16.1172 276.043 16.3047C275.633 16.4805 275.182 16.791 274.689 17.2363C274.197 17.6816 273.84 18.1211 273.617 18.5547C273.395 18.9883 273.283 19.4863 273.283 20.0488V26.6055C273.283 27.6133 273.33 28.3164 273.424 28.7148C273.518 29.1016 273.693 29.4004 273.951 29.6113C274.221 29.8105 274.654 29.9863 275.252 30.1387V31H268.361V30.1387C268.818 29.998 269.141 29.875 269.328 29.7695C269.527 29.6641 269.691 29.5176 269.82 29.3301C269.961 29.1426 270.066 28.8555 270.137 28.4688C270.219 28.082 270.26 27.4785 270.26 26.6582V18.9941C270.26 18.2441 270.248 17.6406 270.225 17.1836C270.201 16.7266 270.119 16.3633 269.979 16.0938C269.838 15.8125 269.621 15.6074 269.328 15.4785C269.047 15.3379 268.643 15.2207 268.115 15.127V14.1953L272.229 14.0371H273.301L273.107 16.9023L273.354 16.9727C274.221 16.0938 274.918 15.4668 275.445 15.0918C275.984 14.7168 276.523 14.4297 277.062 14.2305C277.613 14.0195 278.193 13.9141 278.803 13.9141C279.436 13.9141 279.998 13.9902 280.49 14.1426C280.994 14.2832 281.434 14.5059 281.809 14.8105C282.195 15.1152 282.512 15.4961 282.758 15.9531C283.004 16.3984 283.186 16.9375 283.303 17.5703C283.432 18.2031 283.496 19.0059 283.496 19.9785V26.6055C283.496 27.4141 283.52 28 283.566 28.3633C283.613 28.7266 283.695 29.0078 283.812 29.207C283.93 29.4062 284.1 29.5762 284.322 29.7168C284.545 29.8457 284.932 29.9863 285.482 30.1387V31ZM292.971 22.1055C292.971 26.207 293.627 29.5879 294.939 32.248C296.264 34.9082 298.279 36.6895 300.986 37.5918L300.564 38.9453C297.131 38.043 294.5 36.0977 292.672 33.1094C290.844 30.1328 289.93 26.5234 289.93 22.2812C289.93 18.0508 290.844 14.4414 292.672 11.4531C294.512 8.45312 297.143 6.50195 300.564 5.59961L301.039 6.95312C298.297 7.85547 296.264 9.61914 294.939 12.2441C293.627 14.8574 292.971 18.1445 292.971 22.1055ZM310.848 20.8574L313.133 17.957C313.379 17.6406 313.578 17.3359 313.73 17.043C313.883 16.7383 313.959 16.4277 313.959 16.1113C313.959 15.8418 313.859 15.6191 313.66 15.4434C313.461 15.2676 313.15 15.1387 312.729 15.0566V14.1953H318.477V15.0566C318.031 15.1855 317.574 15.4375 317.105 15.8125C316.648 16.1875 316.086 16.791 315.418 17.623L311.779 22.0879L315.787 27.4844C316.361 28.2578 316.877 28.8496 317.334 29.2598C317.791 29.6699 318.248 29.9629 318.705 30.1387V31H311.639V30.1387C312.611 30.0215 313.098 29.6582 313.098 29.0488C313.098 28.8027 313.057 28.5684 312.975 28.3457C312.893 28.123 312.74 27.8652 312.518 27.5723L309.969 24.0215L307.262 27.5371C307.062 27.7949 306.904 28.0352 306.787 28.2578C306.682 28.4688 306.629 28.709 306.629 28.9785C306.629 29.2949 306.734 29.5586 306.945 29.7695C307.168 29.9688 307.514 30.0918 307.982 30.1387V31H302.111V30.1387C302.498 29.998 302.844 29.8223 303.148 29.6113C303.465 29.4004 303.781 29.1309 304.098 28.8027C304.426 28.4629 304.854 27.9707 305.381 27.3262L309.037 22.791L305.293 17.6582C304.777 16.9551 304.367 16.4453 304.062 16.1289C303.758 15.8125 303.477 15.5723 303.219 15.4082C302.961 15.2441 302.703 15.127 302.445 15.0566V14.1953H309.336V15.0566C308.41 15.1973 307.947 15.5605 307.947 16.1465C307.947 16.416 308.006 16.6855 308.123 16.9551C308.252 17.2246 308.445 17.5234 308.703 17.8516L310.848 20.8574ZM327.846 22.1055C327.846 18.1445 327.189 14.8574 325.877 12.2441C324.564 9.61914 322.531 7.85547 319.777 6.95312L320.252 5.59961C323.674 6.50195 326.299 8.45312 328.127 11.4531C329.967 14.4414 330.887 18.0508 330.887 22.2812C330.887 26.5234 329.973 30.1328 328.145 33.1094C326.316 36.0977 323.686 38.043 320.252 38.9453L319.83 37.5918C322.537 36.6895 324.547 34.9082 325.859 32.248C327.184 29.5879 327.846 26.207 327.846 22.1055Z" fill="white"/>
<path d="M204.217 83.4121C204.217 84.0918 204.252 84.6074 204.322 84.959C204.404 85.2988 204.539 85.5801 204.727 85.8027C204.926 86.0137 205.207 86.1836 205.57 86.3125C205.934 86.4297 206.391 86.5234 206.941 86.5938C207.492 86.6523 208.219 86.6934 209.121 86.7168V88H196.131V86.7168C197.432 86.6582 198.357 86.582 198.908 86.4883C199.471 86.3828 199.898 86.2305 200.191 86.0312C200.484 85.832 200.695 85.5508 200.824 85.1875C200.965 84.8242 201.035 84.2324 201.035 83.4121V69.1562C201.035 68.6875 200.953 68.3477 200.789 68.1367C200.625 67.9141 200.385 67.8027 200.068 67.8027C199.693 67.8027 199.16 67.9961 198.469 68.3828C197.777 68.7695 196.922 69.3027 195.902 69.9824L195.129 68.6289L203.355 63.7246H204.322C204.252 64.8496 204.217 66.4082 204.217 68.4004V83.4121ZM229.934 80.1074H221.777V77.3828H229.934V80.1074ZM240.428 72.0742C241.014 71.9805 241.488 71.8164 241.852 71.582C242.215 71.3477 242.496 71.0488 242.695 70.6855C242.906 70.3105 243.07 69.8477 243.188 69.2969C243.305 68.7344 243.428 67.9199 243.557 66.8535H246.053V71.1953H251.73V72.9707H246.053V80.793C246.053 81.9297 246.1 82.8379 246.193 83.5176C246.287 84.1855 246.463 84.7129 246.721 85.0996C246.979 85.4746 247.271 85.7441 247.6 85.9082C247.928 86.0723 248.35 86.1543 248.865 86.1543C249.334 86.1543 249.773 86.0605 250.184 85.873C250.594 85.6738 250.998 85.3926 251.396 85.0293L252.188 85.9785C251.355 86.7871 250.564 87.373 249.814 87.7363C249.076 88.0996 248.309 88.2812 247.512 88.2812C246 88.2812 244.875 87.8359 244.137 86.9453C243.398 86.043 243.029 84.6367 243.029 82.7266V72.9707H240.428V72.0742ZM263.842 85.4863L263.578 85.416C262.559 86.459 261.598 87.1973 260.695 87.6309C259.805 88.0645 258.855 88.2812 257.848 88.2812C256.957 88.2812 256.172 88.1113 255.492 87.7715C254.812 87.4199 254.291 86.9336 253.928 86.3125C253.564 85.6797 253.383 84.9531 253.383 84.1328C253.383 82.4219 254.227 81.1035 255.914 80.1777C257.613 79.2402 260.156 78.6953 263.543 78.543V77.4004C263.543 76.1816 263.426 75.2207 263.191 74.5176C262.957 73.8145 262.588 73.2988 262.084 72.9707C261.58 72.6426 260.906 72.4785 260.062 72.4785C259.148 72.4785 258.41 72.7188 257.848 73.1992C257.297 73.6797 256.881 74.4004 256.6 75.3613H254.297V73.0762C255.422 72.4902 256.359 72.0625 257.109 71.793C257.859 71.5117 258.609 71.2949 259.359 71.1426C260.109 70.9785 260.871 70.8965 261.645 70.8965C262.805 70.8965 263.736 71.084 264.439 71.459C265.143 71.8223 265.67 72.3848 266.021 73.1465C266.373 73.9082 266.549 75.0566 266.549 76.5918V82.709C266.549 83.5762 266.555 84.1914 266.566 84.5547C266.578 84.9062 266.613 85.2344 266.672 85.5391C266.73 85.8438 266.818 86.0898 266.936 86.2773C267.053 86.4531 267.223 86.6055 267.445 86.7344C267.68 86.8633 268.055 86.998 268.57 87.1387V88H263.754L263.842 85.4863ZM263.543 79.9844C261.164 80.0078 259.383 80.3242 258.199 80.9336C257.016 81.543 256.424 82.4629 256.424 83.6934C256.424 84.3613 256.559 84.8887 256.828 85.2754C257.098 85.6621 257.438 85.9316 257.848 86.084C258.258 86.2246 258.744 86.2949 259.307 86.2949C260.104 86.2949 260.824 86.1016 261.469 85.7148C262.125 85.3281 262.635 84.8359 262.998 84.2383C263.361 83.6406 263.543 83.0488 263.543 82.4629V79.9844ZM288.381 88H281.455V87.1387C281.912 86.998 282.24 86.875 282.439 86.7695C282.639 86.6641 282.803 86.5176 282.932 86.3301C283.072 86.1426 283.178 85.8555 283.248 85.4688C283.33 85.0703 283.371 84.4727 283.371 83.6758V79.0703C283.371 78.25 283.348 77.5059 283.301 76.8379C283.254 76.1699 283.172 75.625 283.055 75.2031C282.949 74.7695 282.814 74.4355 282.65 74.2012C282.498 73.9551 282.311 73.75 282.088 73.5859C281.877 73.4102 281.631 73.2754 281.35 73.1816C281.068 73.0762 280.699 73.0234 280.242 73.0234C279.785 73.0234 279.352 73.1172 278.941 73.3047C278.531 73.4805 278.08 73.791 277.588 74.2363C277.096 74.6816 276.738 75.1211 276.516 75.5547C276.293 75.9883 276.182 76.4863 276.182 77.0488V83.6055C276.182 84.6133 276.229 85.3164 276.322 85.7148C276.416 86.1016 276.592 86.4004 276.85 86.6113C277.119 86.8105 277.553 86.9863 278.15 87.1387V88H271.26V87.1387C271.717 86.998 272.039 86.875 272.227 86.7695C272.426 86.6641 272.59 86.5176 272.719 86.3301C272.859 86.1426 272.965 85.8555 273.035 85.4688C273.117 85.082 273.158 84.4785 273.158 83.6582V75.9941C273.158 75.2441 273.146 74.6406 273.123 74.1836C273.1 73.7266 273.018 73.3633 272.877 73.0938C272.736 72.8125 272.52 72.6074 272.227 72.4785C271.945 72.3379 271.541 72.2207 271.014 72.127V71.1953L275.127 71.0371H276.199L276.006 73.9023L276.252 73.9727C277.119 73.0938 277.816 72.4668 278.344 72.0918C278.883 71.7168 279.422 71.4297 279.961 71.2305C280.512 71.0195 281.092 70.9141 281.701 70.9141C282.334 70.9141 282.896 70.9902 283.389 71.1426C283.893 71.2832 284.332 71.5059 284.707 71.8105C285.094 72.1152 285.41 72.4961 285.656 72.9531C285.902 73.3984 286.084 73.9375 286.201 74.5703C286.33 75.2031 286.395 76.0059 286.395 76.9785V83.6055C286.395 84.4141 286.418 85 286.465 85.3633C286.512 85.7266 286.594 86.0078 286.711 86.207C286.828 86.4062 286.998 86.5762 287.221 86.7168C287.443 86.8457 287.83 86.9863 288.381 87.1387V88ZM298.559 71.4414C298.969 71.4414 299.279 71.4238 299.49 71.3887C299.713 71.3418 299.889 71.2773 300.018 71.1953C300.146 71.1133 300.252 71.0078 300.334 70.8789C300.428 70.75 300.562 70.4688 300.738 70.0352H301.951L301.705 73.4277H291.404V72.7598C291.803 71.9043 292.342 71.0605 293.021 70.2285C293.701 69.3965 294.498 68.541 295.412 67.6621C296.502 66.6191 297.275 65.834 297.732 65.3066C298.189 64.7676 298.529 64.2637 298.752 63.7949C298.975 63.3145 299.086 62.834 299.086 62.3535C299.086 61.5566 298.857 60.9297 298.4 60.4727C297.955 60.0156 297.311 59.7871 296.467 59.7871C295.74 59.7871 295.119 59.9805 294.604 60.3672C294.1 60.7539 293.713 61.3223 293.443 62.0723H291.773V59.6992C292.816 59.2773 293.777 58.9785 294.656 58.8027C295.535 58.6152 296.314 58.5215 296.994 58.5215C297.92 58.5215 298.682 58.6211 299.279 58.8203C299.889 59.0195 300.375 59.2832 300.738 59.6113C301.102 59.9277 301.354 60.3027 301.494 60.7363C301.646 61.1699 301.723 61.6152 301.723 62.0723C301.723 62.6465 301.605 63.1855 301.371 63.6895C301.137 64.1816 300.75 64.7207 300.211 65.3066C299.684 65.8809 298.74 66.7832 297.381 68.0137C295.928 69.3379 294.873 70.4805 294.217 71.4414H298.559ZM310.529 79.1055C310.529 83.207 311.186 86.5879 312.498 89.248C313.822 91.9082 315.838 93.6895 318.545 94.5918L318.123 95.9453C314.689 95.043 312.059 93.0977 310.23 90.1094C308.402 87.1328 307.488 83.5234 307.488 79.2812C307.488 75.0508 308.402 71.4414 310.23 68.4531C312.07 65.4531 314.701 63.502 318.123 62.5996L318.598 63.9531C315.855 64.8555 313.822 66.6191 312.498 69.2441C311.186 71.8574 310.529 75.1445 310.529 79.1055ZM328.406 77.8574L330.691 74.957C330.938 74.6406 331.137 74.3359 331.289 74.043C331.441 73.7383 331.518 73.4277 331.518 73.1113C331.518 72.8418 331.418 72.6191 331.219 72.4434C331.02 72.2676 330.709 72.1387 330.287 72.0566V71.1953H336.035V72.0566C335.59 72.1855 335.133 72.4375 334.664 72.8125C334.207 73.1875 333.645 73.791 332.977 74.623L329.338 79.0879L333.346 84.4844C333.92 85.2578 334.436 85.8496 334.893 86.2598C335.35 86.6699 335.807 86.9629 336.264 87.1387V88H329.197V87.1387C330.17 87.0215 330.656 86.6582 330.656 86.0488C330.656 85.8027 330.615 85.5684 330.533 85.3457C330.451 85.123 330.299 84.8652 330.076 84.5723L327.527 81.0215L324.82 84.5371C324.621 84.7949 324.463 85.0352 324.346 85.2578C324.24 85.4688 324.188 85.709 324.188 85.9785C324.188 86.2949 324.293 86.5586 324.504 86.7695C324.727 86.9688 325.072 87.0918 325.541 87.1387V88H319.67V87.1387C320.057 86.998 320.402 86.8223 320.707 86.6113C321.023 86.4004 321.34 86.1309 321.656 85.8027C321.984 85.4629 322.412 84.9707 322.939 84.3262L326.596 79.791L322.852 74.6582C322.336 73.9551 321.926 73.4453 321.621 73.1289C321.316 72.8125 321.035 72.5723 320.777 72.4082C320.52 72.2441 320.262 72.127 320.004 72.0566V71.1953H326.895V72.0566C325.969 72.1973 325.506 72.5605 325.506 73.1465C325.506 73.416 325.564 73.6855 325.682 73.9551C325.811 74.2246 326.004 74.5234 326.262 74.8516L328.406 77.8574ZM345.404 79.1055C345.404 75.1445 344.748 71.8574 343.436 69.2441C342.123 66.6191 340.09 64.8555 337.336 63.9531L337.811 62.5996C341.232 63.502 343.857 65.4531 345.686 68.4531C347.525 71.4414 348.445 75.0508 348.445 79.2812C348.445 83.5234 347.531 87.1328 345.703 90.1094C343.875 93.0977 341.244 95.043 337.811 95.9453L337.389 94.5918C340.096 93.6895 342.105 91.9082 343.418 89.248C344.742 86.5879 345.404 83.207 345.404 79.1055Z" fill="white"/>
</svg>
