<svg id="Capa_1" enable-background="new 0 0 512.001 512.001" height="512" viewBox="0 0 512.001 512.001" width="512" xmlns="http://www.w3.org/2000/svg"><g><g><path d="m229.079 117.491h-28.55l-11.687 57.766c-16.203 80.083-15.546 161.176 1.952 241.025l9.683 44.188h28.646l-10.996-50.178c-16.66-76.027-17.286-153.238-1.859-229.486z" fill="#0ed290"/><path d="m201.735 460.47h27.388l-10.996-50.178c-16.66-76.027-17.286-153.238-1.859-229.486l12.81-63.315h-27.172c6.741 0 11.792 6.175 10.455 12.782l-10.224 50.533c-15.427 76.248-14.802 153.459 1.859 229.486l8.158 37.228c1.458 6.653-3.608 12.95-10.419 12.95z" fill="#00c285"/><path d="m452.582 117.491h28.55l11.687 57.766c16.203 80.083 15.546 161.176-1.952 241.025l-9.683 44.188h-28.646l10.996-50.178c16.66-76.027 17.286-153.238 1.859-229.486z" fill="#0ed290"/><path d="m492.819 175.257-11.688-57.766h-22.856c5.076 0 9.448 3.577 10.455 8.552l9.957 49.214c16.203 80.083 15.546 161.176-1.952 241.025l-7.846 35.804c-1.073 4.895-5.408 8.384-10.42 8.384h22.713l9.683-44.188c17.501-79.849 18.157-160.942 1.954-241.025z" fill="#00c285"/><g><path d="m251.856 253.003h174.475v27.982h-174.475z" fill="#537983"/></g><path d="m399.464 253.003c3.72 0 6.737 3.016 6.737 6.737v14.509c0 3.72-3.016 6.737-6.737 6.737h26.867v-27.982h-26.867z" fill="#3e5959"/><g><path d="m60.723 477.75c-.681.073-1.37.131-2.069.176-32.832 2.114-47.817-20.861-51.154-33.305l27.028-7.247s1.941 4.444 4.543 7.062c4.219 4.244 10.037 6.065 17.786 5.566 18.052-1.151 21.926-27.92 21.961-28.19l40.602-335.064c2.199-17.343 15.023-50.549 47.933-52.672 32.832-2.113 47.818 20.862 51.154 33.305l-27.028 7.247s-1.161-3.659-4.543-7.062c-4.219-4.244-10.037-6.065-17.786-5.566-18.042 1.168-21.927 27.92-21.961 28.19l-40.602 335.063c-2.153 16.976-14.493 49.153-45.864 52.497z" fill="#6c7fd8"/></g><g fill="#4f66d0"><path d="m23.68 444.401.03.03c4.21 4.25 10.03 6.07 17.78 5.57 1.8-.12 3.46-.49 4.98-1.06-2.88-.93-5.33-2.43-7.4-4.51-2.6-2.61-4.54-7.06-4.54-7.06l-13.44 3.61-4.826 1.292c2.676-.716 5.465.163 7.416 2.128z"/><path d="m167.35 34.071c-1.2.08-2.37.2-3.51.36 21.608 2.883 33.296 17.697 37.809 28.606.939 2.27-.382 4.846-2.755 5.481l-9.234 2.473c1.32 2.05 1.82 3.64 1.82 3.64l27.03-7.25c-3.34-12.44-18.33-35.42-51.16-33.31z"/><path d="m153.78 62.001c-18.04 1.17-21.92 27.92-21.96 28.19l-40.6 335.06c-2.12 16.71-14.11 48.15-44.4 52.32 3.65.49 7.59.63 11.83.36.7-.05 1.39-.11 2.07-.18 31.37-3.35 43.71-35.52 45.87-52.5l40.6-335.06c.03-.24 3.18-21.95 16.98-27.13-2.99-.97-6.44-1.32-10.39-1.06z"/></g></g><g><path d="m375.873 316.659c-3.921-1.355-8.186.725-9.539 4.638l-26.677 77.16-27.37-77.215c-1.385-3.904-5.67-5.947-9.575-4.563-3.904 1.384-5.947 5.67-4.563 9.575l33.65 94.933-12.595 36.429c-1.354 3.915.723 8.186 4.638 9.539.812.281 1.638.414 2.45.414 3.109 0 6.016-1.948 7.088-5.051l47.13-136.318c1.353-3.917-.723-8.188-4.637-9.541z"/><path d="m299.407 222.93c1.353 1.02 2.938 1.512 4.51 1.512 2.273 0 4.521-1.03 5.994-2.985l30.208-40.062 31.645 41.698c1.476 1.944 3.715 2.966 5.98 2.966 1.58 0 3.173-.498 4.528-1.526 3.3-2.504 3.944-7.208 1.44-10.508l-34.209-45.076 29.09-38.579c2.494-3.308 1.834-8.01-1.473-10.504-3.309-2.494-8.012-1.834-10.504 1.473l-26.537 35.194-26.723-35.212c-2.505-3.299-7.209-3.945-10.509-1.44-3.3 2.504-3.944 7.208-1.44 10.508l29.287 38.591-32.76 43.448c-2.494 3.306-1.833 8.008 1.473 10.502z"/><path d="m225.454 408.687c-16.436-75.003-17.053-151.173-1.834-226.394l12.811-63.315c.446-2.205-.121-4.494-1.546-6.236-1.424-1.741-3.555-2.751-5.805-2.751h-28.55c-3.569 0-6.644 2.515-7.351 6.013l-11.688 57.766c-16.411 81.111-15.746 163.244 1.977 244.118l9.683 44.188c.754 3.442 3.803 5.895 7.326 5.895h28.646c2.271 0 4.42-1.029 5.843-2.798 1.424-1.77 1.969-4.089 1.483-6.307zm-18.942 44.283-8.392-38.293c-17.274-78.825-17.922-158.876-1.927-237.932l10.471-51.753h13.246l-10.992 54.328c-15.635 77.276-15.001 155.527 1.884 232.579l9 41.072h-13.29z"/><path d="m500.17 173.77-11.688-57.766c-.707-3.498-3.782-6.013-7.351-6.013h-28.55c-2.25 0-4.381 1.01-5.806 2.751-1.424 1.742-1.991 4.031-1.545 6.236l7.637 37.75c.822 4.061 4.779 6.688 8.839 5.864 4.06-.821 6.686-4.778 5.863-8.838l-5.819-28.763h13.246l10.472 51.753c15.995 79.055 15.346 159.107-1.929 237.932l-8.391 38.293h-13.29l9-41.072c16.197-73.91 17.438-149.02 3.692-223.245-.755-4.074-4.667-6.766-8.741-6.009-4.072.754-6.763 4.667-6.009 8.74 13.381 72.247 12.172 145.358-3.595 217.303l-10.995 50.178c-.486 2.219.06 4.538 1.482 6.307 1.424 1.77 3.572 2.798 5.844 2.798h28.646c3.523 0 6.572-2.453 7.326-5.895l9.683-44.188c17.725-80.873 18.39-163.005 1.979-244.116z"/><path d="m426.332 245.503h-174.476c-4.142 0-7.5 3.358-7.5 7.5v27.982c0 4.142 3.358 7.5 7.5 7.5h174.476c4.143 0 7.5-3.358 7.5-7.5v-27.982c0-4.142-3.357-7.5-7.5-7.5zm-7.5 27.983h-159.475v-12.982h159.476v12.982z"/><path d="m181.617 72.854c1.798 1.81 2.599 3.761 2.729 4.099 1.14 3.91 5.131 5.978 9.075 4.92l27.028-7.247c4.001-1.073 6.375-5.186 5.302-9.187-3.887-14.498-21.198-41.285-58.881-38.847-16.656 1.074-30.876 9.297-41.123 23.781-10.485 14.821-13.189 30.867-13.773 35.473l-40.59 334.961c-.162.993-3.608 20.983-15.01 21.71-7.275.466-10.324-1.698-11.984-3.369-1.086-1.092-2.406-3.46-2.989-4.776-1.485-3.4-5.233-5.202-8.816-4.243l-27.028 7.247c-1.921.515-3.559 1.772-4.553 3.495-.995 1.723-1.264 3.771-.749 5.691 3.721 13.877 19.735 39.002 54.148 39.002 1.926-.085 1.603.123 7.113-.357 36.105-3.849 50.135-40.283 52.515-59.051l40.59-334.956c.157-.967 3.609-20.977 15.01-21.715 7.28-.467 10.326 1.699 11.986 3.369zm-12.952-18.338c-24.44 1.582-28.875 34.402-28.922 34.772l-40.596 335.023c-1.858 14.656-12.447 43.127-39.219 45.981-.757.073-2.649.253-5.386.268-20.162-.001-31.686-11.268-36.927-20.887l13.226-3.546c.836 1.233 1.813 2.492 2.911 3.596 5.754 5.789 13.688 8.401 23.582 7.764 24.445-1.559 28.882-34.402 28.929-34.773l40.597-335.023c1.923-15.166 12.962-44.324 40.975-46.13 22.414-1.438 35.01 10.585 40.558 20.768l-13.138 3.522c-.817-1.156-1.808-2.373-2.999-3.572-5.755-5.788-13.691-8.398-23.591-7.763z"/></g></g></svg>