<svg width="404" height="40" viewBox="0 0 404 40" fill="none" xmlns="http://www.w3.org/2000/svg">
<path d="M17.5273 4.41992H15.7168C15.623 3.9043 15.4355 3.48242 15.1543 3.1543C14.873 2.81445 14.498 2.64453 14.0293 2.64453C12.7754 2.64453 11.9492 3.66406 11.5508 5.70312C11.1641 7.73047 10.9707 12.3887 10.9707 19.6777C10.9707 25.7246 10.4141 30.5234 9.30078 34.0742C8.19922 37.625 6.24805 39.4004 3.44727 39.4004C2.88477 39.4004 2.39258 39.3535 1.9707 39.2598C1.54883 39.166 1.13867 39.0137 0.740234 38.8027L0.96875 35.3398H2.62109C2.77344 35.9023 2.99609 36.3652 3.28906 36.7285C3.59375 37.0918 4.02148 37.2734 4.57227 37.2734C5.80273 37.2734 6.57617 35.9961 6.89258 33.4414C7.20898 30.8984 7.36719 27.1836 7.36719 22.2969C7.36719 14.6797 7.94141 9.13086 9.08984 5.65039C10.25 2.16992 12.2539 0.429688 15.1016 0.429688C15.5117 0.429688 15.9629 0.488281 16.4551 0.605469C16.959 0.710938 17.3867 0.845703 17.7383 1.00977L17.5273 4.41992ZM26.334 23.1055C26.334 27.207 26.9902 30.5879 28.3027 33.248C29.627 35.9082 31.6426 37.6895 34.3496 38.5918L33.9277 39.9453C30.4941 39.043 27.8633 37.0977 26.0352 34.1094C24.207 31.1328 23.293 27.5234 23.293 23.2812C23.293 19.0508 24.207 15.4414 26.0352 12.4531C27.875 9.45312 30.5059 7.50195 33.9277 6.59961L34.4023 7.95312C31.6602 8.85547 29.627 10.6191 28.3027 13.2441C26.9902 15.8574 26.334 19.1445 26.334 23.1055ZM75.1133 22.877V33.002H72.6172V22.877H63.0371V20.5391H72.6172V10.4141H75.1133V20.5391H84.6934V22.877H75.1133ZM122.135 23.1055C122.135 19.1445 121.479 15.8574 120.166 13.2441C118.854 10.6191 116.82 8.85547 114.066 7.95312L114.541 6.59961C117.963 7.50195 120.588 9.45312 122.416 12.4531C124.256 15.4414 125.176 19.0508 125.176 23.2812C125.176 27.5234 124.262 31.1328 122.434 34.1094C120.605 37.0977 117.975 39.043 114.541 39.9453L114.119 38.5918C116.826 37.6895 118.836 35.9082 120.148 33.248C121.473 30.5879 122.135 27.207 122.135 23.1055ZM141.91 12.8926C141.91 11.7676 141.898 10.9824 141.875 10.5371C141.863 10.0918 141.816 9.7168 141.734 9.41211C141.664 9.0957 141.559 8.84961 141.418 8.67383C141.289 8.49805 141.107 8.35742 140.873 8.25195C140.65 8.14648 140.24 8.04102 139.643 7.93555V7.02148L143.896 6.8457H144.934V27.2012C144.934 28.1152 144.951 28.7715 144.986 29.1699C145.021 29.5566 145.098 29.8672 145.215 30.1016C145.332 30.3359 145.514 30.5293 145.76 30.6816C146.018 30.8223 146.463 30.957 147.096 31.0859V32L142.947 32.1758H141.893L142.104 29.293L141.84 29.2227C141.102 30.0078 140.457 30.5996 139.906 30.998C139.367 31.3848 138.787 31.6953 138.166 31.9297C137.557 32.1641 136.9 32.2812 136.197 32.2812C134.275 32.2812 132.793 31.5547 131.75 30.1016C130.707 28.6367 130.186 26.5273 130.186 23.7734C130.186 21.8516 130.525 20.2227 131.205 18.8867C131.885 17.5391 132.799 16.5371 133.947 15.8809C135.107 15.2246 136.408 14.8965 137.85 14.8965C138.623 14.8965 139.326 14.9609 139.959 15.0898C140.592 15.207 141.242 15.4062 141.91 15.6875V12.8926ZM141.91 21.5762C141.91 20.6621 141.869 19.9297 141.787 19.3789C141.705 18.8281 141.564 18.3652 141.365 17.9902C141.178 17.6152 140.92 17.2988 140.592 17.041C140.264 16.7832 139.9 16.5957 139.502 16.4785C139.115 16.3613 138.646 16.3027 138.096 16.3027C136.596 16.3027 135.453 16.9062 134.668 18.1133C133.883 19.3086 133.49 21.0312 133.49 23.2812C133.49 25.5312 133.812 27.2422 134.457 28.4141C135.102 29.5859 136.08 30.1719 137.393 30.1719C137.908 30.1719 138.336 30.1309 138.676 30.0488C139.016 29.9551 139.35 29.8145 139.678 29.627C140.006 29.4277 140.34 29.1582 140.68 28.8184C141.02 28.4785 141.266 28.168 141.418 27.8867C141.582 27.6055 141.705 27.2832 141.787 26.9199C141.869 26.5566 141.91 26.0879 141.91 25.5137V21.5762ZM157.449 21.8574L159.734 18.957C159.98 18.6406 160.18 18.3359 160.332 18.043C160.484 17.7383 160.561 17.4277 160.561 17.1113C160.561 16.8418 160.461 16.6191 160.262 16.4434C160.062 16.2676 159.752 16.1387 159.33 16.0566V15.1953H165.078V16.0566C164.633 16.1855 164.176 16.4375 163.707 16.8125C163.25 17.1875 162.688 17.791 162.02 18.623L158.381 23.0879L162.389 28.4844C162.963 29.2578 163.479 29.8496 163.936 30.2598C164.393 30.6699 164.85 30.9629 165.307 31.1387V32H158.24V31.1387C159.213 31.0215 159.699 30.6582 159.699 30.0488C159.699 29.8027 159.658 29.5684 159.576 29.3457C159.494 29.123 159.342 28.8652 159.119 28.5723L156.57 25.0215L153.863 28.5371C153.664 28.7949 153.506 29.0352 153.389 29.2578C153.283 29.4688 153.23 29.709 153.23 29.9785C153.23 30.2949 153.336 30.5586 153.547 30.7695C153.77 30.9688 154.115 31.0918 154.584 31.1387V32H148.713V31.1387C149.1 30.998 149.445 30.8223 149.75 30.6113C150.066 30.4004 150.383 30.1309 150.699 29.8027C151.027 29.4629 151.455 28.9707 151.982 28.3262L155.639 23.791L151.895 18.6582C151.379 17.9551 150.969 17.4453 150.664 17.1289C150.359 16.8125 150.078 16.5723 149.82 16.4082C149.562 16.2441 149.305 16.127 149.047 16.0566V15.1953H155.938V16.0566C155.012 16.1973 154.549 16.5605 154.549 17.1465C154.549 17.416 154.607 17.6855 154.725 17.9551C154.854 18.2246 155.047 18.5234 155.305 18.8516L157.449 21.8574ZM176.275 19.2383V16.9004H197.932V19.2383H176.275ZM176.275 26.5332V24.1953H197.932V26.5332H176.275ZM227.023 4.41992H225.213C225.119 3.9043 224.932 3.48242 224.65 3.1543C224.369 2.81445 223.994 2.64453 223.525 2.64453C222.271 2.64453 221.445 3.66406 221.047 5.70312C220.66 7.73047 220.467 12.3887 220.467 19.6777C220.467 25.7246 219.91 30.5234 218.797 34.0742C217.695 37.625 215.744 39.4004 212.943 39.4004C212.381 39.4004 211.889 39.3535 211.467 39.2598C211.045 39.166 210.635 39.0137 210.236 38.8027L210.465 35.3398H212.117C212.27 35.9023 212.492 36.3652 212.785 36.7285C213.09 37.0918 213.518 37.2734 214.068 37.2734C215.299 37.2734 216.072 35.9961 216.389 33.4414C216.705 30.8984 216.863 27.1836 216.863 22.2969C216.863 14.6797 217.438 9.13086 218.586 5.65039C219.746 2.16992 221.75 0.429688 224.598 0.429688C225.008 0.429688 225.459 0.488281 225.951 0.605469C226.455 0.710938 226.883 0.845703 227.234 1.00977L227.023 4.41992ZM260.598 12.8926C260.598 11.7676 260.586 10.9824 260.562 10.5371C260.551 10.0918 260.504 9.7168 260.422 9.41211C260.352 9.0957 260.246 8.84961 260.105 8.67383C259.977 8.49805 259.795 8.35742 259.561 8.25195C259.338 8.14648 258.928 8.04102 258.33 7.93555V7.02148L262.584 6.8457H263.621V27.2012C263.621 28.1152 263.639 28.7715 263.674 29.1699C263.709 29.5566 263.785 29.8672 263.902 30.1016C264.02 30.3359 264.201 30.5293 264.447 30.6816C264.705 30.8223 265.15 30.957 265.783 31.0859V32L261.635 32.1758H260.58L260.791 29.293L260.527 29.2227C259.789 30.0078 259.145 30.5996 258.594 30.998C258.055 31.3848 257.475 31.6953 256.854 31.9297C256.244 32.1641 255.588 32.2812 254.885 32.2812C252.963 32.2812 251.48 31.5547 250.438 30.1016C249.395 28.6367 248.873 26.5273 248.873 23.7734C248.873 21.8516 249.213 20.2227 249.893 18.8867C250.572 17.5391 251.486 16.5371 252.635 15.8809C253.795 15.2246 255.096 14.8965 256.537 14.8965C257.311 14.8965 258.014 14.9609 258.646 15.0898C259.279 15.207 259.93 15.4062 260.598 15.6875V12.8926ZM260.598 21.5762C260.598 20.6621 260.557 19.9297 260.475 19.3789C260.393 18.8281 260.252 18.3652 260.053 17.9902C259.865 17.6152 259.607 17.2988 259.279 17.041C258.951 16.7832 258.588 16.5957 258.189 16.4785C257.803 16.3613 257.334 16.3027 256.783 16.3027C255.283 16.3027 254.141 16.9062 253.355 18.1133C252.57 19.3086 252.178 21.0312 252.178 23.2812C252.178 25.5312 252.5 27.2422 253.145 28.4141C253.789 29.5859 254.768 30.1719 256.08 30.1719C256.596 30.1719 257.023 30.1309 257.363 30.0488C257.703 29.9551 258.037 29.8145 258.365 29.627C258.693 29.4277 259.027 29.1582 259.367 28.8184C259.707 28.4785 259.953 28.168 260.105 27.8867C260.27 27.6055 260.393 27.2832 260.475 26.9199C260.557 26.5566 260.598 26.0879 260.598 25.5137V21.5762ZM276.137 21.8574L278.422 18.957C278.668 18.6406 278.867 18.3359 279.02 18.043C279.172 17.7383 279.248 17.4277 279.248 17.1113C279.248 16.8418 279.148 16.6191 278.949 16.4434C278.75 16.2676 278.439 16.1387 278.018 16.0566V15.1953H283.766V16.0566C283.32 16.1855 282.863 16.4375 282.395 16.8125C281.938 17.1875 281.375 17.791 280.707 18.623L277.068 23.0879L281.076 28.4844C281.65 29.2578 282.166 29.8496 282.623 30.2598C283.08 30.6699 283.537 30.9629 283.994 31.1387V32H276.928V31.1387C277.9 31.0215 278.387 30.6582 278.387 30.0488C278.387 29.8027 278.346 29.5684 278.264 29.3457C278.182 29.123 278.029 28.8652 277.807 28.5723L275.258 25.0215L272.551 28.5371C272.352 28.7949 272.193 29.0352 272.076 29.2578C271.971 29.4688 271.918 29.709 271.918 29.9785C271.918 30.2949 272.023 30.5586 272.234 30.7695C272.457 30.9688 272.803 31.0918 273.271 31.1387V32H267.4V31.1387C267.787 30.998 268.133 30.8223 268.438 30.6113C268.754 30.4004 269.07 30.1309 269.387 29.8027C269.715 29.4629 270.143 28.9707 270.67 28.3262L274.326 23.791L270.582 18.6582C270.066 17.9551 269.656 17.4453 269.352 17.1289C269.047 16.8125 268.766 16.5723 268.508 16.4082C268.25 16.2441 267.992 16.127 267.734 16.0566V15.1953H274.625V16.0566C273.699 16.1973 273.236 16.5605 273.236 17.1465C273.236 17.416 273.295 17.6855 273.412 17.9551C273.541 18.2246 273.734 18.5234 273.992 18.8516L276.137 21.8574ZM307.039 22.877V33.002H304.543V22.877H294.963V20.5391H304.543V10.4141H307.039V20.5391H316.619V22.877H307.039ZM345.711 4.41992H343.9C343.807 3.9043 343.619 3.48242 343.338 3.1543C343.057 2.81445 342.682 2.64453 342.213 2.64453C340.959 2.64453 340.133 3.66406 339.734 5.70312C339.348 7.73047 339.154 12.3887 339.154 19.6777C339.154 25.7246 338.598 30.5234 337.484 34.0742C336.383 37.625 334.432 39.4004 331.631 39.4004C331.068 39.4004 330.576 39.3535 330.154 39.2598C329.732 39.166 329.322 39.0137 328.924 38.8027L329.152 35.3398H330.805C330.957 35.9023 331.18 36.3652 331.473 36.7285C331.777 37.0918 332.205 37.2734 332.756 37.2734C333.986 37.2734 334.76 35.9961 335.076 33.4414C335.393 30.8984 335.551 27.1836 335.551 22.2969C335.551 14.6797 336.125 9.13086 337.273 5.65039C338.434 2.16992 340.438 0.429688 343.285 0.429688C343.695 0.429688 344.146 0.488281 344.639 0.605469C345.143 0.710938 345.57 0.845703 345.922 1.00977L345.711 4.41992ZM380.023 12.8926C380.023 11.7676 380.012 10.9824 379.988 10.5371C379.977 10.0918 379.93 9.7168 379.848 9.41211C379.777 9.0957 379.672 8.84961 379.531 8.67383C379.402 8.49805 379.221 8.35742 378.986 8.25195C378.764 8.14648 378.354 8.04102 377.756 7.93555V7.02148L382.01 6.8457H383.047V27.2012C383.047 28.1152 383.064 28.7715 383.1 29.1699C383.135 29.5566 383.211 29.8672 383.328 30.1016C383.445 30.3359 383.627 30.5293 383.873 30.6816C384.131 30.8223 384.576 30.957 385.209 31.0859V32L381.061 32.1758H380.006L380.217 29.293L379.953 29.2227C379.215 30.0078 378.57 30.5996 378.02 30.998C377.48 31.3848 376.9 31.6953 376.279 31.9297C375.67 32.1641 375.014 32.2812 374.311 32.2812C372.389 32.2812 370.906 31.5547 369.863 30.1016C368.82 28.6367 368.299 26.5273 368.299 23.7734C368.299 21.8516 368.639 20.2227 369.318 18.8867C369.998 17.5391 370.912 16.5371 372.061 15.8809C373.221 15.2246 374.521 14.8965 375.963 14.8965C376.736 14.8965 377.439 14.9609 378.072 15.0898C378.705 15.207 379.355 15.4062 380.023 15.6875V12.8926ZM380.023 21.5762C380.023 20.6621 379.982 19.9297 379.9 19.3789C379.818 18.8281 379.678 18.3652 379.479 17.9902C379.291 17.6152 379.033 17.2988 378.705 17.041C378.377 16.7832 378.014 16.5957 377.615 16.4785C377.229 16.3613 376.76 16.3027 376.209 16.3027C374.709 16.3027 373.566 16.9062 372.781 18.1133C371.996 19.3086 371.604 21.0312 371.604 23.2812C371.604 25.5312 371.926 27.2422 372.57 28.4141C373.215 29.5859 374.193 30.1719 375.506 30.1719C376.021 30.1719 376.449 30.1309 376.789 30.0488C377.129 29.9551 377.463 29.8145 377.791 29.627C378.119 29.4277 378.453 29.1582 378.793 28.8184C379.133 28.4785 379.379 28.168 379.531 27.8867C379.695 27.6055 379.818 27.2832 379.9 26.9199C379.982 26.5566 380.023 26.0879 380.023 25.5137V21.5762ZM395.562 21.8574L397.848 18.957C398.094 18.6406 398.293 18.3359 398.445 18.043C398.598 17.7383 398.674 17.4277 398.674 17.1113C398.674 16.8418 398.574 16.6191 398.375 16.4434C398.176 16.2676 397.865 16.1387 397.443 16.0566V15.1953H403.191V16.0566C402.746 16.1855 402.289 16.4375 401.82 16.8125C401.363 17.1875 400.801 17.791 400.133 18.623L396.494 23.0879L400.502 28.4844C401.076 29.2578 401.592 29.8496 402.049 30.2598C402.506 30.6699 402.963 30.9629 403.42 31.1387V32H396.354V31.1387C397.326 31.0215 397.812 30.6582 397.812 30.0488C397.812 29.8027 397.771 29.5684 397.689 29.3457C397.607 29.123 397.455 28.8652 397.232 28.5723L394.684 25.0215L391.977 28.5371C391.777 28.7949 391.619 29.0352 391.502 29.2578C391.396 29.4688 391.344 29.709 391.344 29.9785C391.344 30.2949 391.449 30.5586 391.66 30.7695C391.883 30.9688 392.229 31.0918 392.697 31.1387V32H386.826V31.1387C387.213 30.998 387.559 30.8223 387.863 30.6113C388.18 30.4004 388.496 30.1309 388.812 29.8027C389.141 29.4629 389.568 28.9707 390.096 28.3262L393.752 23.791L390.008 18.6582C389.492 17.9551 389.082 17.4453 388.777 17.1289C388.473 16.8125 388.191 16.5723 387.934 16.4082C387.676 16.2441 387.418 16.127 387.16 16.0566V15.1953H394.051V16.0566C393.125 16.1973 392.662 16.5605 392.662 17.1465C392.662 17.416 392.721 17.6855 392.838 17.9551C392.967 18.2246 393.16 18.5234 393.418 18.8516L395.562 21.8574Z" fill="white"/>
<path d="M44.2109 21.8574L46.4961 18.957C46.7422 18.6406 46.9414 18.3359 47.0938 18.043C47.2461 17.7383 47.3223 17.4277 47.3223 17.1113C47.3223 16.8418 47.2227 16.6191 47.0234 16.4434C46.8242 16.2676 46.5137 16.1387 46.0918 16.0566V15.1953H51.8398V16.0566C51.3945 16.1855 50.9375 16.4375 50.4688 16.8125C50.0117 17.1875 49.4492 17.791 48.7812 18.623L45.1426 23.0879L49.1504 28.4844C49.7246 29.2578 50.2402 29.8496 50.6973 30.2598C51.1543 30.6699 51.6113 30.9629 52.0684 31.1387V32H45.002V31.1387C45.9746 31.0215 46.4609 30.6582 46.4609 30.0488C46.4609 29.8027 46.4199 29.5684 46.3379 29.3457C46.2559 29.123 46.1035 28.8652 45.8809 28.5723L43.332 25.0215L40.625 28.5371C40.4258 28.7949 40.2676 29.0352 40.1504 29.2578C40.0449 29.4688 39.9922 29.709 39.9922 29.9785C39.9922 30.2949 40.0977 30.5586 40.3086 30.7695C40.5312 30.9688 40.877 31.0918 41.3457 31.1387V32H35.4746V31.1387C35.8613 30.998 36.207 30.8223 36.5117 30.6113C36.8281 30.4004 37.1445 30.1309 37.4609 29.8027C37.7891 29.4629 38.2168 28.9707 38.7441 28.3262L42.4004 23.791L38.6562 18.6582C38.1406 17.9551 37.7305 17.4453 37.4258 17.1289C37.1211 16.8125 36.8398 16.5723 36.582 16.4082C36.3242 16.2441 36.0664 16.127 35.8086 16.0566V15.1953H42.6992V16.0566C41.7734 16.1973 41.3105 16.5605 41.3105 17.1465C41.3105 17.416 41.3691 17.6855 41.4863 17.9551C41.6152 18.2246 41.8086 18.5234 42.0664 18.8516L44.2109 21.8574ZM104.398 33.4414C103.754 34.8945 103.127 36.0723 102.518 36.9746C101.908 37.877 101.234 38.5566 100.496 39.0137C99.7695 39.4707 98.9023 39.6992 97.8945 39.6992C97.25 39.6992 96.5234 39.623 95.7148 39.4707V35.9902H97.2793C97.4199 36.4707 97.5957 36.8047 97.8066 36.9922C98.0176 37.1797 98.3223 37.2734 98.7207 37.2734C99.0723 37.2734 99.3828 37.2031 99.6523 37.0625C99.9336 36.9336 100.221 36.7051 100.514 36.377C100.818 36.0488 101.17 35.5449 101.568 34.8652C101.979 34.1855 102.436 33.3242 102.939 32.2812L98.0176 19.0449C97.7012 18.1895 97.4434 17.5918 97.2441 17.252C97.0566 16.9121 96.8516 16.6543 96.6289 16.4785C96.4062 16.3027 96.0664 16.1621 95.6094 16.0566V15.1953H102.764V16.0566C102.213 16.1855 101.826 16.3145 101.604 16.4434C101.381 16.5605 101.217 16.7188 101.111 16.918C101.006 17.1055 100.953 17.3516 100.953 17.6562C100.953 17.9727 100.988 18.3008 101.059 18.6406C101.141 18.9805 101.264 19.3789 101.428 19.8359L104.557 28.6426L108.072 20.2051C108.271 19.7363 108.424 19.3086 108.529 18.9219C108.646 18.5234 108.705 18.1543 108.705 17.8145C108.705 17.3105 108.564 16.9297 108.283 16.6719C108.014 16.4141 107.539 16.209 106.859 16.0566V15.1953H113.434V16.0566C112.977 16.1504 112.625 16.2969 112.379 16.4961C112.133 16.6836 111.887 16.9883 111.641 17.4102C111.395 17.8203 111.102 18.4004 110.762 19.1504L104.398 33.4414ZM238.766 21.8574L241.051 18.957C241.297 18.6406 241.496 18.3359 241.648 18.043C241.801 17.7383 241.877 17.4277 241.877 17.1113C241.877 16.8418 241.777 16.6191 241.578 16.4434C241.379 16.2676 241.068 16.1387 240.646 16.0566V15.1953H246.395V16.0566C245.949 16.1855 245.492 16.4375 245.023 16.8125C244.566 17.1875 244.004 17.791 243.336 18.623L239.697 23.0879L243.705 28.4844C244.279 29.2578 244.795 29.8496 245.252 30.2598C245.709 30.6699 246.166 30.9629 246.623 31.1387V32H239.557V31.1387C240.529 31.0215 241.016 30.6582 241.016 30.0488C241.016 29.8027 240.975 29.5684 240.893 29.3457C240.811 29.123 240.658 28.8652 240.436 28.5723L237.887 25.0215L235.18 28.5371C234.98 28.7949 234.822 29.0352 234.705 29.2578C234.6 29.4688 234.547 29.709 234.547 29.9785C234.547 30.2949 234.652 30.5586 234.863 30.7695C235.086 30.9688 235.432 31.0918 235.9 31.1387V32H230.029V31.1387C230.416 30.998 230.762 30.8223 231.066 30.6113C231.383 30.4004 231.699 30.1309 232.016 29.8027C232.344 29.4629 232.771 28.9707 233.299 28.3262L236.955 23.791L233.211 18.6582C232.695 17.9551 232.285 17.4453 231.98 17.1289C231.676 16.8125 231.395 16.5723 231.137 16.4082C230.879 16.2441 230.621 16.127 230.363 16.0566V15.1953H237.254V16.0566C236.328 16.1973 235.865 16.5605 235.865 17.1465C235.865 17.416 235.924 17.6855 236.041 17.9551C236.17 18.2246 236.363 18.5234 236.621 18.8516L238.766 21.8574ZM357.453 33.4414C356.809 34.8945 356.182 36.0723 355.572 36.9746C354.963 37.877 354.289 38.5566 353.551 39.0137C352.824 39.4707 351.957 39.6992 350.949 39.6992C350.305 39.6992 349.578 39.623 348.77 39.4707V35.9902H350.334C350.475 36.4707 350.65 36.8047 350.861 36.9922C351.072 37.1797 351.377 37.2734 351.775 37.2734C352.127 37.2734 352.438 37.2031 352.707 37.0625C352.988 36.9336 353.275 36.7051 353.568 36.377C353.873 36.0488 354.225 35.5449 354.623 34.8652C355.033 34.1855 355.49 33.3242 355.994 32.2812L351.072 19.0449C350.756 18.1895 350.498 17.5918 350.299 17.252C350.111 16.9121 349.906 16.6543 349.684 16.4785C349.461 16.3027 349.121 16.1621 348.664 16.0566V15.1953H355.818V16.0566C355.268 16.1855 354.881 16.3145 354.658 16.4434C354.436 16.5605 354.271 16.7188 354.166 16.918C354.061 17.1055 354.008 17.3516 354.008 17.6562C354.008 17.9727 354.043 18.3008 354.113 18.6406C354.195 18.9805 354.318 19.3789 354.482 19.8359L357.611 28.6426L361.127 20.2051C361.326 19.7363 361.479 19.3086 361.584 18.9219C361.701 18.5234 361.76 18.1543 361.76 17.8145C361.76 17.3105 361.619 16.9297 361.338 16.6719C361.068 16.4141 360.594 16.209 359.914 16.0566V15.1953H366.488V16.0566C366.031 16.1504 365.68 16.2969 365.434 16.4961C365.188 16.6836 364.941 16.9883 364.695 17.4102C364.449 17.8203 364.156 18.4004 363.816 19.1504L357.453 33.4414Z" fill="#89B8FF"/>
</svg>
