<svg width="337" height="90" viewBox="0 0 337 90" fill="none" xmlns="http://www.w3.org/2000/svg">
<path d="M20.5273 32.4199H18.7168C18.623 31.9043 18.4355 31.4824 18.1543 31.1543C17.873 30.8145 17.498 30.6445 17.0293 30.6445C15.7754 30.6445 14.9492 31.6641 14.5508 33.7031C14.1641 35.7305 13.9707 40.3887 13.9707 47.6777C13.9707 53.7246 13.4141 58.5234 12.3008 62.0742C11.1992 65.625 9.24805 67.4004 6.44727 67.4004C5.88477 67.4004 5.39258 67.3535 4.9707 67.2598C4.54883 67.166 4.13867 67.0137 3.74023 66.8027L3.96875 63.3398H5.62109C5.77344 63.9023 5.99609 64.3652 6.28906 64.7285C6.59375 65.0918 7.02148 65.2734 7.57227 65.2734C8.80273 65.2734 9.57617 63.9961 9.89258 61.4414C10.209 58.8984 10.3672 55.1836 10.3672 50.2969C10.3672 42.6797 10.9414 37.1309 12.0898 33.6504C13.25 30.1699 15.2539 28.4297 18.1016 28.4297C18.5117 28.4297 18.9629 28.4883 19.4551 28.6055C19.959 28.7109 20.3867 28.8457 20.7383 29.0098L20.5273 32.4199ZM139.988 40.8926C139.988 39.7676 139.977 38.9824 139.953 38.5371C139.941 38.0918 139.895 37.7168 139.812 37.4121C139.742 37.0957 139.637 36.8496 139.496 36.6738C139.367 36.498 139.186 36.3574 138.951 36.252C138.729 36.1465 138.318 36.041 137.721 35.9355V35.0215L141.975 34.8457H143.012V55.2012C143.012 56.1152 143.029 56.7715 143.064 57.1699C143.1 57.5566 143.176 57.8672 143.293 58.1016C143.41 58.3359 143.592 58.5293 143.838 58.6816C144.096 58.8223 144.541 58.957 145.174 59.0859V60L141.025 60.1758H139.971L140.182 57.293L139.918 57.2227C139.18 58.0078 138.535 58.5996 137.984 58.998C137.445 59.3848 136.865 59.6953 136.244 59.9297C135.635 60.1641 134.979 60.2812 134.275 60.2812C132.354 60.2812 130.871 59.5547 129.828 58.1016C128.785 56.6367 128.264 54.5273 128.264 51.7734C128.264 49.8516 128.604 48.2227 129.283 46.8867C129.963 45.5391 130.877 44.5371 132.025 43.8809C133.186 43.2246 134.486 42.8965 135.928 42.8965C136.701 42.8965 137.404 42.9609 138.037 43.0898C138.67 43.207 139.32 43.4062 139.988 43.6875V40.8926ZM139.988 49.5762C139.988 48.6621 139.947 47.9297 139.865 47.3789C139.783 46.8281 139.643 46.3652 139.443 45.9902C139.256 45.6152 138.998 45.2988 138.67 45.041C138.342 44.7832 137.979 44.5957 137.58 44.4785C137.193 44.3613 136.725 44.3027 136.174 44.3027C134.674 44.3027 133.531 44.9062 132.746 46.1133C131.961 47.3086 131.568 49.0312 131.568 51.2812C131.568 53.5312 131.891 55.2422 132.535 56.4141C133.18 57.5859 134.158 58.1719 135.471 58.1719C135.986 58.1719 136.414 58.1309 136.754 58.0488C137.094 57.9551 137.428 57.8145 137.756 57.627C138.084 57.4277 138.418 57.1582 138.758 56.8184C139.098 56.4785 139.344 56.168 139.496 55.8867C139.66 55.6055 139.783 55.2832 139.865 54.9199C139.947 54.5566 139.988 54.0879 139.988 53.5137V49.5762ZM155.527 49.8574L157.812 46.957C158.059 46.6406 158.258 46.3359 158.41 46.043C158.562 45.7383 158.639 45.4277 158.639 45.1113C158.639 44.8418 158.539 44.6191 158.34 44.4434C158.141 44.2676 157.83 44.1387 157.408 44.0566V43.1953H163.156V44.0566C162.711 44.1855 162.254 44.4375 161.785 44.8125C161.328 45.1875 160.766 45.791 160.098 46.623L156.459 51.0879L160.467 56.4844C161.041 57.2578 161.557 57.8496 162.014 58.2598C162.471 58.6699 162.928 58.9629 163.385 59.1387V60H156.318V59.1387C157.291 59.0215 157.777 58.6582 157.777 58.0488C157.777 57.8027 157.736 57.5684 157.654 57.3457C157.572 57.123 157.42 56.8652 157.197 56.5723L154.648 53.0215L151.941 56.5371C151.742 56.7949 151.584 57.0352 151.467 57.2578C151.361 57.4688 151.309 57.709 151.309 57.9785C151.309 58.2949 151.414 58.5586 151.625 58.7695C151.848 58.9688 152.193 59.0918 152.662 59.1387V60H146.791V59.1387C147.178 58.998 147.523 58.8223 147.828 58.6113C148.145 58.4004 148.461 58.1309 148.777 57.8027C149.105 57.4629 149.533 56.9707 150.061 56.3262L153.717 51.791L149.973 46.6582C149.457 45.9551 149.047 45.4453 148.742 45.1289C148.438 44.8125 148.156 44.5723 147.898 44.4082C147.641 44.2441 147.383 44.127 147.125 44.0566V43.1953H154.016V44.0566C153.09 44.1973 152.627 44.5605 152.627 45.1465C152.627 45.416 152.686 45.6855 152.803 45.9551C152.932 46.2246 153.125 46.5234 153.383 46.8516L155.527 49.8574ZM174.354 47.2383V44.9004H196.01V47.2383H174.354ZM174.354 54.5332V52.1953H196.01V54.5332H174.354ZM207.225 44.0742C207.811 43.9805 208.285 43.8164 208.648 43.582C209.012 43.3477 209.293 43.0488 209.492 42.6855C209.703 42.3105 209.867 41.8477 209.984 41.2969C210.102 40.7344 210.225 39.9199 210.354 38.8535H212.85V43.1953H218.527V44.9707H212.85V52.793C212.85 53.9297 212.896 54.8379 212.99 55.5176C213.084 56.1855 213.26 56.7129 213.518 57.0996C213.775 57.4746 214.068 57.7441 214.396 57.9082C214.725 58.0723 215.146 58.1543 215.662 58.1543C216.131 58.1543 216.57 58.0605 216.98 57.873C217.391 57.6738 217.795 57.3926 218.193 57.0293L218.984 57.9785C218.152 58.7871 217.361 59.373 216.611 59.7363C215.873 60.0996 215.105 60.2812 214.309 60.2812C212.797 60.2812 211.672 59.8359 210.934 58.9453C210.195 58.043 209.826 56.6367 209.826 54.7266V44.9707H207.225V44.0742ZM230.639 57.4863L230.375 57.416C229.355 58.459 228.395 59.1973 227.492 59.6309C226.602 60.0645 225.652 60.2812 224.645 60.2812C223.754 60.2812 222.969 60.1113 222.289 59.7715C221.609 59.4199 221.088 58.9336 220.725 58.3125C220.361 57.6797 220.18 56.9531 220.18 56.1328C220.18 54.4219 221.023 53.1035 222.711 52.1777C224.41 51.2402 226.953 50.6953 230.34 50.543V49.4004C230.34 48.1816 230.223 47.2207 229.988 46.5176C229.754 45.8145 229.385 45.2988 228.881 44.9707C228.377 44.6426 227.703 44.4785 226.859 44.4785C225.945 44.4785 225.207 44.7188 224.645 45.1992C224.094 45.6797 223.678 46.4004 223.396 47.3613H221.094V45.0762C222.219 44.4902 223.156 44.0625 223.906 43.793C224.656 43.5117 225.406 43.2949 226.156 43.1426C226.906 42.9785 227.668 42.8965 228.441 42.8965C229.602 42.8965 230.533 43.084 231.236 43.459C231.939 43.8223 232.467 44.3848 232.818 45.1465C233.17 45.9082 233.346 47.0566 233.346 48.5918V54.709C233.346 55.5762 233.352 56.1914 233.363 56.5547C233.375 56.9062 233.41 57.2344 233.469 57.5391C233.527 57.8438 233.615 58.0898 233.732 58.2773C233.85 58.4531 234.02 58.6055 234.242 58.7344C234.477 58.8633 234.852 58.998 235.367 59.1387V60H230.551L230.639 57.4863ZM230.34 51.9844C227.961 52.0078 226.18 52.3242 224.996 52.9336C223.812 53.543 223.221 54.4629 223.221 55.6934C223.221 56.3613 223.355 56.8887 223.625 57.2754C223.895 57.6621 224.234 57.9316 224.645 58.084C225.055 58.2246 225.541 58.2949 226.104 58.2949C226.9 58.2949 227.621 58.1016 228.266 57.7148C228.922 57.3281 229.432 56.8359 229.795 56.2383C230.158 55.6406 230.34 55.0488 230.34 54.4629V51.9844ZM255.178 60H248.252V59.1387C248.709 58.998 249.037 58.875 249.236 58.7695C249.436 58.6641 249.6 58.5176 249.729 58.3301C249.869 58.1426 249.975 57.8555 250.045 57.4688C250.127 57.0703 250.168 56.4727 250.168 55.6758V51.0703C250.168 50.25 250.145 49.5059 250.098 48.8379C250.051 48.1699 249.969 47.625 249.852 47.2031C249.746 46.7695 249.611 46.4355 249.447 46.2012C249.295 45.9551 249.107 45.75 248.885 45.5859C248.674 45.4102 248.428 45.2754 248.146 45.1816C247.865 45.0762 247.496 45.0234 247.039 45.0234C246.582 45.0234 246.148 45.1172 245.738 45.3047C245.328 45.4805 244.877 45.791 244.385 46.2363C243.893 46.6816 243.535 47.1211 243.312 47.5547C243.09 47.9883 242.979 48.4863 242.979 49.0488V55.6055C242.979 56.6133 243.025 57.3164 243.119 57.7148C243.213 58.1016 243.389 58.4004 243.646 58.6113C243.916 58.8105 244.35 58.9863 244.947 59.1387V60H238.057V59.1387C238.514 58.998 238.836 58.875 239.023 58.7695C239.223 58.6641 239.387 58.5176 239.516 58.3301C239.656 58.1426 239.762 57.8555 239.832 57.4688C239.914 57.082 239.955 56.4785 239.955 55.6582V47.9941C239.955 47.2441 239.943 46.6406 239.92 46.1836C239.896 45.7266 239.814 45.3633 239.674 45.0938C239.533 44.8125 239.316 44.6074 239.023 44.4785C238.742 44.3379 238.338 44.2207 237.811 44.127V43.1953L241.924 43.0371H242.996L242.803 45.9023L243.049 45.9727C243.916 45.0938 244.613 44.4668 245.141 44.0918C245.68 43.7168 246.219 43.4297 246.758 43.2305C247.309 43.0195 247.889 42.9141 248.498 42.9141C249.131 42.9141 249.693 42.9902 250.186 43.1426C250.689 43.2832 251.129 43.5059 251.504 43.8105C251.891 44.1152 252.207 44.4961 252.453 44.9531C252.699 45.3984 252.881 45.9375 252.998 46.5703C253.127 47.2031 253.191 48.0059 253.191 48.9785V55.6055C253.191 56.4141 253.215 57 253.262 57.3633C253.309 57.7266 253.391 58.0078 253.508 58.207C253.625 58.4062 253.795 58.5762 254.018 58.7168C254.24 58.8457 254.627 58.9863 255.178 59.1387V60ZM296.504 50.877V61.002H294.008V50.877H284.428V48.5391H294.008V38.4141H296.504V48.5391H306.084V50.877H296.504ZM334.965 36.5156V41.3848H333.225C332.943 40.3652 332.586 39.5566 332.152 38.959C331.719 38.3496 331.215 37.916 330.641 37.6582C330.066 37.4004 329.375 37.2715 328.566 37.2715C327.359 37.2715 326.281 37.6758 325.332 38.4844C324.395 39.2812 323.656 40.4883 323.117 42.1055C322.578 43.7109 322.309 45.6562 322.309 47.9414C322.309 50.2383 322.531 52.2012 322.977 53.8301C323.422 55.4473 324.078 56.6719 324.945 57.5039C325.812 58.3242 326.879 58.7344 328.145 58.7344C329.105 58.7344 329.891 58.5996 330.5 58.3301C331.109 58.0488 331.619 57.6094 332.029 57.0117C332.451 56.4141 332.85 55.5352 333.225 54.375H334.965V59.4023C333.863 59.6953 332.732 59.9121 331.572 60.0527C330.424 60.2051 329.158 60.2812 327.775 60.2812C324.799 60.2812 322.549 59.2734 321.025 57.2578C319.502 55.2422 318.74 52.2363 318.74 48.2402C318.74 45.7324 319.133 43.5352 319.918 41.6484C320.715 39.7617 321.881 38.3027 323.416 37.2715C324.951 36.2402 326.785 35.7246 328.918 35.7246C329.984 35.7246 330.969 35.7832 331.871 35.9004C332.773 36.0059 333.805 36.2109 334.965 36.5156Z" fill="white"/>
<path d="M265.602 49.8574L267.887 46.957C268.133 46.6406 268.332 46.3359 268.484 46.043C268.637 45.7383 268.713 45.4277 268.713 45.1113C268.713 44.8418 268.613 44.6191 268.414 44.4434C268.215 44.2676 267.904 44.1387 267.482 44.0566V43.1953H273.23V44.0566C272.785 44.1855 272.328 44.4375 271.859 44.8125C271.402 45.1875 270.84 45.791 270.172 46.623L266.533 51.0879L270.541 56.4844C271.115 57.2578 271.631 57.8496 272.088 58.2598C272.545 58.6699 273.002 58.9629 273.459 59.1387V60H266.393V59.1387C267.365 59.0215 267.852 58.6582 267.852 58.0488C267.852 57.8027 267.811 57.5684 267.729 57.3457C267.646 57.123 267.494 56.8652 267.271 56.5723L264.723 53.0215L262.016 56.5371C261.816 56.7949 261.658 57.0352 261.541 57.2578C261.436 57.4688 261.383 57.709 261.383 57.9785C261.383 58.2949 261.488 58.5586 261.699 58.7695C261.922 58.9688 262.268 59.0918 262.736 59.1387V60H256.865V59.1387C257.252 58.998 257.598 58.8223 257.902 58.6113C258.219 58.4004 258.535 58.1309 258.852 57.8027C259.18 57.4629 259.607 56.9707 260.135 56.3262L263.791 51.791L260.047 46.6582C259.531 45.9551 259.121 45.4453 258.816 45.1289C258.512 44.8125 258.23 44.5723 257.973 44.4082C257.715 44.2441 257.457 44.127 257.199 44.0566V43.1953H264.09V44.0566C263.164 44.1973 262.701 44.5605 262.701 45.1465C262.701 45.416 262.76 45.6855 262.877 45.9551C263.006 46.2246 263.199 46.5234 263.457 46.8516L265.602 49.8574Z" fill="#89B8FF"/>
<line x1="18" y1="49" x2="118" y2="49" stroke="white" stroke-width="2"/>
<path d="M70.2168 34.4121C70.2168 35.0918 70.252 35.6074 70.3223 35.959C70.4043 36.2988 70.5391 36.5801 70.7266 36.8027C70.9258 37.0137 71.207 37.1836 71.5703 37.3125C71.9336 37.4297 72.3906 37.5234 72.9414 37.5938C73.4922 37.6523 74.2188 37.6934 75.1211 37.7168V39H62.1309V37.7168C63.4316 37.6582 64.3574 37.582 64.9082 37.4883C65.4707 37.3828 65.8984 37.2305 66.1914 37.0312C66.4844 36.832 66.6953 36.5508 66.8242 36.1875C66.9648 35.8242 67.0352 35.2324 67.0352 34.4121V20.1562C67.0352 19.6875 66.9531 19.3477 66.7891 19.1367C66.625 18.9141 66.3848 18.8027 66.0684 18.8027C65.6934 18.8027 65.1602 18.9961 64.4688 19.3828C63.7773 19.7695 62.9219 20.3027 61.9023 20.9824L61.1289 19.6289L69.3555 14.7246H70.3223C70.252 15.8496 70.2168 17.4082 70.2168 19.4004V34.4121Z" fill="white"/>
<path d="M42.4824 66.0449H40.7949C40.5371 65.3418 40.2324 64.791 39.8809 64.3926C39.5293 63.9824 39.1309 63.6953 38.6855 63.5312C38.2402 63.3672 37.6953 63.2852 37.0508 63.2852C36.1133 63.2852 35.3633 63.5078 34.8008 63.9531C34.25 64.3867 33.9746 64.9844 33.9746 65.7461C33.9746 66.2852 34.0859 66.7305 34.3086 67.082C34.5312 67.4336 34.877 67.7617 35.3457 68.0664C35.8145 68.3711 36.6406 68.7754 37.8242 69.2793C39.0195 69.7949 39.9395 70.2695 40.584 70.7031C41.2402 71.1367 41.75 71.6406 42.1133 72.2148C42.4883 72.7891 42.6758 73.4746 42.6758 74.2715C42.6758 75.1973 42.5176 75.9766 42.2012 76.6094C41.8848 77.2422 41.4395 77.7578 40.8652 78.1562C40.291 78.5547 39.6055 78.8418 38.8086 79.0176C38.0234 79.1934 37.1621 79.2812 36.2246 79.2812C35.2402 79.2812 34.2852 79.2051 33.3594 79.0527C32.4336 78.9121 31.5312 78.7246 30.6523 78.4902V74.8164H32.375C32.6914 75.8945 33.1602 76.6797 33.7812 77.1719C34.4023 77.6523 35.2578 77.8926 36.3477 77.8926C36.7695 77.8926 37.1797 77.8516 37.5781 77.7695C37.9883 77.6758 38.3516 77.5293 38.668 77.3301C38.9844 77.1191 39.2363 76.8379 39.4238 76.4863C39.6113 76.1348 39.7051 75.6953 39.7051 75.168C39.7051 74.5703 39.5879 74.084 39.3535 73.709C39.1191 73.334 38.7559 72.9941 38.2637 72.6895C37.7715 72.373 36.9043 71.9512 35.6621 71.4238C34.5957 70.9785 33.7402 70.5449 33.0957 70.123C32.4512 69.7012 31.9414 69.2031 31.5664 68.6289C31.2031 68.0547 31.0215 67.375 31.0215 66.5898C31.0215 65.6289 31.2793 64.7969 31.7949 64.0938C32.3223 63.3789 33.0781 62.834 34.0625 62.459C35.0469 62.084 36.2012 61.8965 37.5254 61.8965C38.2988 61.8965 39.043 61.9375 39.7578 62.0195C40.4844 62.0898 41.3926 62.2363 42.4824 62.459V66.0449ZM51.2012 55.3047V58.7148H47.9668V55.3047H51.2012ZM46.1738 78.1387C46.6309 77.998 46.9531 77.875 47.1406 77.7695C47.3398 77.6641 47.5039 77.5176 47.6328 77.3301C47.7734 77.1426 47.8789 76.8555 47.9492 76.4688C48.0312 76.082 48.0723 75.4785 48.0723 74.6582V66.9941C48.0723 66.2441 48.0605 65.6406 48.0371 65.1836C48.0137 64.7266 47.9316 64.3633 47.791 64.0938C47.6504 63.8125 47.4336 63.6074 47.1406 63.4785C46.8594 63.3379 46.4551 63.2207 45.9277 63.127V62.1953L50.0234 62.0371H51.0957V74.6055C51.0957 75.6133 51.1426 76.3164 51.2363 76.7148C51.3301 77.1016 51.5059 77.4004 51.7637 77.6113C52.0332 77.8105 52.4668 77.9863 53.0645 78.1387V79H46.1738V78.1387ZM73.3145 79H66.3887V78.1387C66.8457 77.998 67.1738 77.875 67.373 77.7695C67.5723 77.6641 67.7363 77.5176 67.8652 77.3301C68.0059 77.1426 68.1113 76.8555 68.1816 76.4688C68.2637 76.0703 68.3047 75.4727 68.3047 74.6758V70.0703C68.3047 69.25 68.2812 68.5059 68.2344 67.8379C68.1875 67.1699 68.1055 66.625 67.9883 66.2031C67.8828 65.7695 67.748 65.4355 67.584 65.2012C67.4316 64.9551 67.2441 64.75 67.0215 64.5859C66.8105 64.4102 66.5645 64.2754 66.2832 64.1816C66.002 64.0762 65.6328 64.0234 65.1758 64.0234C64.7188 64.0234 64.2852 64.1172 63.875 64.3047C63.4648 64.4805 63.0137 64.791 62.5215 65.2363C62.0293 65.6816 61.6719 66.1211 61.4492 66.5547C61.2266 66.9883 61.1152 67.4863 61.1152 68.0488V74.6055C61.1152 75.6133 61.1621 76.3164 61.2559 76.7148C61.3496 77.1016 61.5254 77.4004 61.7832 77.6113C62.0527 77.8105 62.4863 77.9863 63.084 78.1387V79H56.1934V78.1387C56.6504 77.998 56.9727 77.875 57.1602 77.7695C57.3594 77.6641 57.5234 77.5176 57.6523 77.3301C57.793 77.1426 57.8984 76.8555 57.9688 76.4688C58.0508 76.082 58.0918 75.4785 58.0918 74.6582V66.9941C58.0918 66.2441 58.0801 65.6406 58.0566 65.1836C58.0332 64.7266 57.9512 64.3633 57.8105 64.0938C57.6699 63.8125 57.4531 63.6074 57.1602 63.4785C56.8789 63.3379 56.4746 63.2207 55.9473 63.127V62.1953L60.0605 62.0371H61.1328L60.9395 64.9023L61.1855 64.9727C62.0527 64.0938 62.75 63.4668 63.2773 63.0918C63.8164 62.7168 64.3555 62.4297 64.8945 62.2305C65.4453 62.0195 66.0254 61.9141 66.6348 61.9141C67.2676 61.9141 67.8301 61.9902 68.3223 62.1426C68.8262 62.2832 69.2656 62.5059 69.6406 62.8105C70.0273 63.1152 70.3438 63.4961 70.5898 63.9531C70.8359 64.3984 71.0176 64.9375 71.1348 65.5703C71.2637 66.2031 71.3281 67.0059 71.3281 67.9785V74.6055C71.3281 75.4141 71.3516 76 71.3984 76.3633C71.4453 76.7266 71.5273 77.0078 71.6445 77.207C71.7617 77.4062 71.9316 77.5762 72.1543 77.7168C72.377 77.8457 72.7637 77.9863 73.3145 78.1387V79ZM83.4922 62.4414C83.9023 62.4414 84.2129 62.4238 84.4238 62.3887C84.6465 62.3418 84.8223 62.2773 84.9512 62.1953C85.0801 62.1133 85.1855 62.0078 85.2676 61.8789C85.3613 61.75 85.4961 61.4688 85.6719 61.0352H86.8848L86.6387 64.4277H76.3379V63.7598C76.7363 62.9043 77.2754 62.0605 77.9551 61.2285C78.6348 60.3965 79.4316 59.541 80.3457 58.6621C81.4355 57.6191 82.209 56.834 82.666 56.3066C83.123 55.7676 83.4629 55.2637 83.6855 54.7949C83.9082 54.3145 84.0195 53.834 84.0195 53.3535C84.0195 52.5566 83.791 51.9297 83.334 51.4727C82.8887 51.0156 82.2441 50.7871 81.4004 50.7871C80.6738 50.7871 80.0527 50.9805 79.5371 51.3672C79.0332 51.7539 78.6465 52.3223 78.377 53.0723H76.707V50.6992C77.75 50.2773 78.7109 49.9785 79.5898 49.8027C80.4688 49.6152 81.248 49.5215 81.9277 49.5215C82.8535 49.5215 83.6152 49.6211 84.2129 49.8203C84.8223 50.0195 85.3086 50.2832 85.6719 50.6113C86.0352 50.9277 86.2871 51.3027 86.4277 51.7363C86.5801 52.1699 86.6562 52.6152 86.6562 53.0723C86.6562 53.6465 86.5391 54.1855 86.3047 54.6895C86.0703 55.1816 85.6836 55.7207 85.1445 56.3066C84.6172 56.8809 83.6738 57.7832 82.3145 59.0137C80.8613 60.3379 79.8066 61.4805 79.1504 62.4414H83.4922Z" fill="white"/>
<path d="M98.3984 68.8574L100.684 65.957C100.93 65.6406 101.129 65.3359 101.281 65.043C101.434 64.7383 101.51 64.4277 101.51 64.1113C101.51 63.8418 101.41 63.6191 101.211 63.4434C101.012 63.2676 100.701 63.1387 100.279 63.0566V62.1953H106.027V63.0566C105.582 63.1855 105.125 63.4375 104.656 63.8125C104.199 64.1875 103.637 64.791 102.969 65.623L99.3301 70.0879L103.338 75.4844C103.912 76.2578 104.428 76.8496 104.885 77.2598C105.342 77.6699 105.799 77.9629 106.256 78.1387V79H99.1895V78.1387C100.162 78.0215 100.648 77.6582 100.648 77.0488C100.648 76.8027 100.607 76.5684 100.525 76.3457C100.443 76.123 100.291 75.8652 100.068 75.5723L97.5195 72.0215L94.8125 75.5371C94.6133 75.7949 94.4551 76.0352 94.3379 76.2578C94.2324 76.4688 94.1797 76.709 94.1797 76.9785C94.1797 77.2949 94.2852 77.5586 94.4961 77.7695C94.7188 77.9688 95.0645 78.0918 95.5332 78.1387V79H89.6621V78.1387C90.0488 77.998 90.3945 77.8223 90.6992 77.6113C91.0156 77.4004 91.332 77.1309 91.6484 76.8027C91.9766 76.4629 92.4043 75.9707 92.9316 75.3262L96.5879 70.791L92.8438 65.6582C92.3281 64.9551 91.918 64.4453 91.6133 64.1289C91.3086 63.8125 91.0273 63.5723 90.7695 63.4082C90.5117 63.2441 90.2539 63.127 89.9961 63.0566V62.1953H96.8867V63.0566C95.9609 63.1973 95.498 63.5605 95.498 64.1465C95.498 64.416 95.5566 64.6855 95.6738 64.9551C95.8027 65.2246 95.9961 65.5234 96.2539 65.8516L98.3984 68.8574Z" fill="#89B8FF"/>
<path d="M8.03223 4.12695H4.83301V13H3.52734V4.12695H0.334961V3.04688H8.03223V4.12695ZM13.0977 13C13.0247 12.8542 12.9655 12.5944 12.9199 12.2207C12.332 12.8314 11.6302 13.1367 10.8145 13.1367C10.0853 13.1367 9.486 12.9316 9.0166 12.5215C8.55176 12.1068 8.31934 11.5827 8.31934 10.9492C8.31934 10.179 8.611 9.58203 9.19434 9.1582C9.78223 8.72982 10.6071 8.51562 11.6689 8.51562H12.8994V7.93457C12.8994 7.49251 12.7673 7.1416 12.5029 6.88184C12.2386 6.61751 11.849 6.48535 11.334 6.48535C10.8828 6.48535 10.5046 6.59928 10.1992 6.82715C9.89388 7.05501 9.74121 7.33073 9.74121 7.6543H8.46973C8.46973 7.28516 8.59961 6.92969 8.85938 6.58789C9.1237 6.24154 9.47917 5.9681 9.92578 5.76758C10.377 5.56706 10.8714 5.4668 11.4092 5.4668C12.2614 5.4668 12.929 5.68099 13.4121 6.10938C13.8952 6.5332 14.1458 7.11882 14.1641 7.86621V11.2705C14.1641 11.9495 14.2507 12.4896 14.4238 12.8906V13H13.0977ZM10.999 12.0361C11.3955 12.0361 11.7715 11.9336 12.127 11.7285C12.4824 11.5234 12.7399 11.2568 12.8994 10.9287V9.41113H11.9082C10.3587 9.41113 9.58398 9.86458 9.58398 10.7715C9.58398 11.168 9.71615 11.4779 9.98047 11.7012C10.2448 11.9245 10.5843 12.0361 10.999 12.0361ZM17.3428 5.60352L17.3838 6.5332C17.9489 5.82227 18.6872 5.4668 19.5986 5.4668C21.1618 5.4668 21.9502 6.34863 21.9639 8.1123V13H20.6992V8.10547C20.6947 7.57227 20.5716 7.17806 20.3301 6.92285C20.0931 6.66764 19.7217 6.54004 19.2158 6.54004C18.8057 6.54004 18.4456 6.64941 18.1357 6.86816C17.8258 7.08691 17.5843 7.37402 17.4111 7.72949V13H16.1465V5.60352H17.3428ZM23.5703 9.24023C23.5703 8.08724 23.8369 7.17122 24.3701 6.49219C24.9033 5.80859 25.6097 5.4668 26.4893 5.4668C27.3916 5.4668 28.0957 5.78581 28.6016 6.42383L28.6631 5.60352H29.8184V12.8223C29.8184 13.7793 29.5335 14.5335 28.9639 15.085C28.3988 15.6364 27.6377 15.9121 26.6807 15.9121C26.1475 15.9121 25.6257 15.7982 25.1152 15.5703C24.6048 15.3424 24.2152 15.0303 23.9463 14.6338L24.6025 13.875C25.1449 14.5449 25.8079 14.8799 26.5918 14.8799C27.207 14.8799 27.6855 14.7067 28.0273 14.3604C28.3737 14.014 28.5469 13.5264 28.5469 12.8975V12.2617C28.041 12.8451 27.3506 13.1367 26.4756 13.1367C25.6097 13.1367 24.9079 12.7881 24.3701 12.0908C23.8369 11.3936 23.5703 10.4434 23.5703 9.24023ZM24.8418 9.38379C24.8418 10.2178 25.0127 10.874 25.3545 11.3525C25.6963 11.8265 26.1748 12.0635 26.79 12.0635C27.5876 12.0635 28.1732 11.7012 28.5469 10.9766V7.59961C28.1595 6.89323 27.5785 6.54004 26.8037 6.54004C26.1885 6.54004 25.7077 6.7793 25.3613 7.25781C25.015 7.73633 24.8418 8.44499 24.8418 9.38379ZM34.8018 13.1367C33.7992 13.1367 32.9834 12.8086 32.3545 12.1523C31.7256 11.4915 31.4111 10.6097 31.4111 9.50684V9.27441C31.4111 8.54069 31.5501 7.88672 31.8281 7.3125C32.1107 6.73372 32.5026 6.28255 33.0039 5.95898C33.5098 5.63086 34.0566 5.4668 34.6445 5.4668C35.6061 5.4668 36.3535 5.78353 36.8867 6.41699C37.4199 7.05046 37.6865 7.95736 37.6865 9.1377V9.66406H32.6758C32.694 10.3932 32.9059 10.9834 33.3115 11.4346C33.7217 11.8812 34.2412 12.1045 34.8701 12.1045C35.3167 12.1045 35.695 12.0133 36.0049 11.8311C36.3148 11.6488 36.5859 11.4072 36.8184 11.1064L37.5908 11.708C36.971 12.6605 36.0413 13.1367 34.8018 13.1367ZM34.6445 6.50586C34.1341 6.50586 33.7057 6.69271 33.3594 7.06641C33.013 7.43555 32.7988 7.95508 32.7168 8.625H36.4219V8.5293C36.3854 7.88672 36.2122 7.38997 35.9023 7.03906C35.5924 6.68359 35.1732 6.50586 34.6445 6.50586ZM40.3525 5.60352L40.3936 6.5332C40.9587 5.82227 41.6969 5.4668 42.6084 5.4668C44.1715 5.4668 44.96 6.34863 44.9736 8.1123V13H43.709V8.10547C43.7044 7.57227 43.5814 7.17806 43.3398 6.92285C43.1029 6.66764 42.7314 6.54004 42.2256 6.54004C41.8154 6.54004 41.4554 6.64941 41.1455 6.86816C40.8356 7.08691 40.5941 7.37402 40.4209 7.72949V13H39.1562V5.60352H40.3525ZM48.5967 3.8125V5.60352H49.9775V6.58105H48.5967V11.168C48.5967 11.4642 48.6582 11.6875 48.7812 11.8379C48.9043 11.9837 49.1139 12.0566 49.4102 12.0566C49.556 12.0566 49.7565 12.0293 50.0117 11.9746V13C49.679 13.0911 49.3555 13.1367 49.041 13.1367C48.4759 13.1367 48.0498 12.9658 47.7627 12.624C47.4756 12.2822 47.332 11.7969 47.332 11.168V6.58105H45.9854V5.60352H47.332V3.8125H48.5967ZM54.5303 13.1367C53.5277 13.1367 52.7119 12.8086 52.083 12.1523C51.4541 11.4915 51.1396 10.6097 51.1396 9.50684V9.27441C51.1396 8.54069 51.2786 7.88672 51.5566 7.3125C51.8392 6.73372 52.2311 6.28255 52.7324 5.95898C53.2383 5.63086 53.7852 5.4668 54.373 5.4668C55.3346 5.4668 56.082 5.78353 56.6152 6.41699C57.1484 7.05046 57.415 7.95736 57.415 9.1377V9.66406H52.4043C52.4225 10.3932 52.6344 10.9834 53.04 11.4346C53.4502 11.8812 53.9697 12.1045 54.5986 12.1045C55.0452 12.1045 55.4235 12.0133 55.7334 11.8311C56.0433 11.6488 56.3145 11.4072 56.5469 11.1064L57.3193 11.708C56.6995 12.6605 55.7699 13.1367 54.5303 13.1367ZM54.373 6.50586C53.8626 6.50586 53.4342 6.69271 53.0879 7.06641C52.7415 7.43555 52.5273 7.95508 52.4453 8.625H56.1504V8.5293C56.1139 7.88672 55.9408 7.38997 55.6309 7.03906C55.321 6.68359 54.9017 6.50586 54.373 6.50586Z" fill="#41D17A"/>
</svg>
