<svg width="423" height="63" viewBox="0 0 423 63" fill="none" xmlns="http://www.w3.org/2000/svg">
<path d="M18.5273 27.4199H16.7168C16.623 26.9043 16.4355 26.4824 16.1543 26.1543C15.873 25.8145 15.498 25.6445 15.0293 25.6445C13.7754 25.6445 12.9492 26.6641 12.5508 28.7031C12.1641 30.7305 11.9707 35.3887 11.9707 42.6777C11.9707 48.7246 11.4141 53.5234 10.3008 57.0742C9.19922 60.625 7.24805 62.4004 4.44727 62.4004C3.88477 62.4004 3.39258 62.3535 2.9707 62.2598C2.54883 62.166 2.13867 62.0137 1.74023 61.8027L1.96875 58.3398H3.62109C3.77344 58.9023 3.99609 59.3652 4.28906 59.7285C4.59375 60.0918 5.02148 60.2734 5.57227 60.2734C6.80273 60.2734 7.57617 58.9961 7.89258 56.4414C8.20898 53.8984 8.36719 50.1836 8.36719 45.2969C8.36719 37.6797 8.94141 32.1309 10.0898 28.6504C11.25 25.1699 13.2539 23.4297 16.1016 23.4297C16.5117 23.4297 16.9629 23.4883 17.4551 23.6055C17.959 23.7109 18.3867 23.8457 18.7383 24.0098L18.5273 27.4199ZM27.334 46.1055C27.334 50.207 27.9902 53.5879 29.3027 56.248C30.627 58.9082 32.6426 60.6895 35.3496 61.5918L34.9277 62.9453C31.4941 62.043 28.8633 60.0977 27.0352 57.1094C25.207 54.1328 24.293 50.5234 24.293 46.2812C24.293 42.0508 25.207 38.4414 27.0352 35.4531C28.875 32.4531 31.5059 30.502 34.9277 29.5996L35.4023 30.9531C32.6602 31.8555 30.627 33.6191 29.3027 36.2441C27.9902 38.8574 27.334 42.1445 27.334 46.1055ZM48.2871 50.4121C48.2871 51.0918 48.3223 51.6074 48.3926 51.959C48.4746 52.2988 48.6094 52.5801 48.7969 52.8027C48.9961 53.0137 49.2773 53.1836 49.6406 53.3125C50.0039 53.4297 50.4609 53.5234 51.0117 53.5938C51.5625 53.6523 52.2891 53.6934 53.1914 53.7168V55H40.2012V53.7168C41.502 53.6582 42.4277 53.582 42.9785 53.4883C43.541 53.3828 43.9688 53.2305 44.2617 53.0312C44.5547 52.832 44.7656 52.5508 44.8945 52.1875C45.0352 51.8242 45.1055 51.2324 45.1055 50.4121V36.1562C45.1055 35.6875 45.0234 35.3477 44.8594 35.1367C44.6953 34.9141 44.4551 34.8027 44.1387 34.8027C43.7637 34.8027 43.2305 34.9961 42.5391 35.3828C41.8477 35.7695 40.9922 36.3027 39.9727 36.9824L39.1992 35.6289L47.4258 30.7246H48.3926C48.3223 31.8496 48.2871 33.4082 48.2871 35.4004V50.4121ZM86.6953 38.5996V42.2734H84.4629C84.2637 41.5117 84.0176 40.9141 83.7246 40.4805C83.4316 40.0352 83.0918 39.7246 82.7051 39.5488C82.3184 39.373 81.8379 39.2852 81.2637 39.2852C80.4434 39.2852 79.7168 39.5488 79.084 40.0762C78.4512 40.6035 77.9473 41.4062 77.5723 42.4844C77.209 43.5625 77.0273 44.8809 77.0273 46.4395C77.0273 47.4355 77.0977 48.3496 77.2383 49.1816C77.3789 50.002 77.6191 50.7051 77.959 51.291C78.2988 51.877 78.75 52.334 79.3125 52.6621C79.875 52.9902 80.5723 53.1543 81.4043 53.1543C82.2129 53.1543 82.9629 52.9961 83.6543 52.6797C84.3574 52.3633 85.084 51.8066 85.834 51.0098L86.8359 52.1699C86.2383 52.8262 85.7109 53.3359 85.2539 53.6992C84.7969 54.0508 84.3047 54.3496 83.7773 54.5957C83.2617 54.8301 82.7461 55 82.2305 55.1055C81.7266 55.2227 81.1758 55.2812 80.5781 55.2812C78.3633 55.2812 76.6699 54.5488 75.498 53.084C74.3262 51.6074 73.7402 49.4805 73.7402 46.7031C73.7402 44.9688 74.0684 43.4336 74.7246 42.0977C75.3809 40.75 76.3008 39.7129 77.4844 38.9863C78.668 38.2598 80.0332 37.8965 81.5801 37.8965C82.541 37.8965 83.4258 37.9551 84.2344 38.0723C85.0547 38.1777 85.875 38.3535 86.6953 38.5996ZM97.1367 55.2812C94.6992 55.2812 92.8359 54.5664 91.5469 53.1367C90.2695 51.6953 89.6309 49.5684 89.6309 46.7559C89.6309 44.8223 89.9648 43.1875 90.6328 41.8516C91.3125 40.5156 92.2383 39.5254 93.4102 38.8809C94.582 38.2246 95.918 37.8965 97.418 37.8965C99.9258 37.8965 101.824 38.6289 103.113 40.0938C104.402 41.5469 105.047 43.6387 105.047 46.3691C105.047 48.3145 104.725 49.9551 104.08 51.291C103.436 52.627 102.521 53.6289 101.338 54.2969C100.154 54.9531 98.7539 55.2812 97.1367 55.2812ZM92.9531 46.3867C92.9531 48.8008 93.334 50.6582 94.0957 51.959C94.8691 53.248 95.9707 53.8926 97.4004 53.8926C98.1855 53.8926 98.8535 53.7051 99.4043 53.3301C99.9551 52.9434 100.4 52.4277 100.74 51.7832C101.092 51.1387 101.344 50.3945 101.496 49.5508C101.648 48.6953 101.725 47.8047 101.725 46.8789C101.725 45.1562 101.531 43.7266 101.145 42.5898C100.77 41.4531 100.254 40.6211 99.5977 40.0938C98.9414 39.5547 98.1914 39.2852 97.3477 39.2852C95.9297 39.2852 94.8398 39.9004 94.0781 41.1309C93.3281 42.3613 92.9531 44.1133 92.9531 46.3867ZM107.561 39.0742C108.146 38.9805 108.621 38.8164 108.984 38.582C109.348 38.3477 109.629 38.0488 109.828 37.6855C110.039 37.3105 110.203 36.8477 110.32 36.2969C110.438 35.7344 110.561 34.9199 110.689 33.8535H113.186V38.1953H118.863V39.9707H113.186V47.793C113.186 48.9297 113.232 49.8379 113.326 50.5176C113.42 51.1855 113.596 51.7129 113.854 52.0996C114.111 52.4746 114.404 52.7441 114.732 52.9082C115.061 53.0723 115.482 53.1543 115.998 53.1543C116.467 53.1543 116.906 53.0605 117.316 52.873C117.727 52.6738 118.131 52.3926 118.529 52.0293L119.32 52.9785C118.488 53.7871 117.697 54.373 116.947 54.7363C116.209 55.0996 115.441 55.2812 114.645 55.2812C113.133 55.2812 112.008 54.8359 111.27 53.9453C110.531 53.043 110.162 51.6367 110.162 49.7266V39.9707H107.561V39.0742ZM136.301 39.9707L133.049 39.8477L132.891 40.041C133.254 40.4043 133.541 40.9023 133.752 41.5352C133.963 42.1562 134.068 42.8301 134.068 43.5566C134.068 45.4668 133.477 46.9434 132.293 47.9863C131.121 49.0176 129.451 49.5332 127.283 49.5332C126.311 49.5332 125.473 49.4102 124.77 49.1641C123.879 49.8438 123.434 50.5117 123.434 51.168C123.434 51.6016 123.516 51.9297 123.68 52.1523C123.855 52.375 124.137 52.5332 124.523 52.627C124.922 52.7207 125.52 52.7676 126.316 52.7676H130.535C131.777 52.7676 132.791 52.9609 133.576 53.3477C134.361 53.7344 134.918 54.2559 135.246 54.9121C135.586 55.5566 135.756 56.3125 135.756 57.1797C135.756 58.2812 135.439 59.2598 134.807 60.1152C134.174 60.9824 133.26 61.6562 132.064 62.1367C130.869 62.6172 129.475 62.8574 127.881 62.8574C126.697 62.8574 125.613 62.7871 124.629 62.6465C123.656 62.5059 122.818 62.2656 122.115 61.9258C121.424 61.5977 120.885 61.1582 120.498 60.6074C120.123 60.0684 119.936 59.3887 119.936 58.5684C119.936 57.8301 120.182 57.1562 120.674 56.5469C121.166 55.9492 121.863 55.4219 122.766 54.9648C122.215 54.7422 121.781 54.4141 121.465 53.9805C121.148 53.5469 120.99 53.0371 120.99 52.4512C120.99 51.7832 121.178 51.1738 121.553 50.623C121.928 50.0605 122.59 49.4219 123.539 48.707C122.695 48.2148 122.051 47.5469 121.605 46.7031C121.172 45.8594 120.955 44.8984 120.955 43.8203C120.955 42.8125 121.119 41.9395 121.447 41.2012C121.787 40.4512 122.25 39.8359 122.836 39.3555C123.434 38.8633 124.137 38.5 124.945 38.2656C125.754 38.0195 126.627 37.8965 127.564 37.8965C128.408 37.8965 129.246 37.9961 130.078 38.1953H136.301V39.9707ZM124.102 43.5391C124.102 45.0039 124.4 46.1348 124.998 46.9316C125.596 47.7285 126.457 48.127 127.582 48.127C128.18 48.127 128.689 48.0156 129.111 47.793C129.533 47.5586 129.873 47.2422 130.131 46.8438C130.4 46.4453 130.594 45.9883 130.711 45.4727C130.84 44.9453 130.904 44.3945 130.904 43.8203C130.904 42.7891 130.758 41.9277 130.465 41.2363C130.172 40.5449 129.773 40.041 129.27 39.7246C128.766 39.3965 128.186 39.2324 127.529 39.2324C126.416 39.2324 125.566 39.6016 124.98 40.3398C124.395 41.0781 124.102 42.1445 124.102 43.5391ZM124.541 55.2812C123.943 55.7266 123.492 56.1953 123.188 56.6875C122.895 57.1914 122.748 57.7598 122.748 58.3926C122.748 59.4473 123.164 60.2207 123.996 60.7129C124.84 61.2168 126.123 61.4688 127.846 61.4688C128.9 61.4688 129.803 61.3281 130.553 61.0469C131.314 60.7656 131.895 60.3613 132.293 59.834C132.691 59.3066 132.891 58.6914 132.891 57.9883C132.891 57.6602 132.85 57.3379 132.768 57.0215C132.686 56.7168 132.527 56.4414 132.293 56.1953C132.07 55.9492 131.748 55.75 131.326 55.5977C130.904 55.457 130.354 55.3867 129.674 55.3867H127.055C126.105 55.3867 125.268 55.3516 124.541 55.2812ZM145.512 38.4414C145.922 38.4414 146.232 38.4238 146.443 38.3887C146.666 38.3418 146.842 38.2773 146.971 38.1953C147.1 38.1133 147.205 38.0078 147.287 37.8789C147.381 37.75 147.516 37.4688 147.691 37.0352H148.904L148.658 40.4277H138.357V39.7598C138.756 38.9043 139.295 38.0605 139.975 37.2285C140.654 36.3965 141.451 35.541 142.365 34.6621C143.455 33.6191 144.229 32.834 144.686 32.3066C145.143 31.7676 145.482 31.2637 145.705 30.7949C145.928 30.3145 146.039 29.834 146.039 29.3535C146.039 28.5566 145.811 27.9297 145.354 27.4727C144.908 27.0156 144.264 26.7871 143.42 26.7871C142.693 26.7871 142.072 26.9805 141.557 27.3672C141.053 27.7539 140.666 28.3223 140.396 29.0723H138.727V26.6992C139.77 26.2773 140.73 25.9785 141.609 25.8027C142.488 25.6152 143.268 25.5215 143.947 25.5215C144.873 25.5215 145.635 25.6211 146.232 25.8203C146.842 26.0195 147.328 26.2832 147.691 26.6113C148.055 26.9277 148.307 27.3027 148.447 27.7363C148.6 28.1699 148.676 28.6152 148.676 29.0723C148.676 29.6465 148.559 30.1855 148.324 30.6895C148.09 31.1816 147.703 31.7207 147.164 32.3066C146.637 32.8809 145.693 33.7832 144.334 35.0137C142.881 36.3379 141.826 37.4805 141.17 38.4414H145.512ZM177.416 46.1055C177.416 42.1445 176.76 38.8574 175.447 36.2441C174.135 33.6191 172.102 31.8555 169.348 30.9531L169.822 29.5996C173.244 30.502 175.869 32.4531 177.697 35.4531C179.537 38.4414 180.457 42.0508 180.457 46.2812C180.457 50.5234 179.543 54.1328 177.715 57.1094C175.887 60.0977 173.256 62.043 169.822 62.9453L169.4 61.5918C172.107 60.6895 174.117 58.9082 175.43 56.248C176.754 53.5879 177.416 50.207 177.416 46.1055ZM197.191 35.8926C197.191 34.7676 197.18 33.9824 197.156 33.5371C197.145 33.0918 197.098 32.7168 197.016 32.4121C196.945 32.0957 196.84 31.8496 196.699 31.6738C196.57 31.498 196.389 31.3574 196.154 31.252C195.932 31.1465 195.521 31.041 194.924 30.9355V30.0215L199.178 29.8457H200.215V50.2012C200.215 51.1152 200.232 51.7715 200.268 52.1699C200.303 52.5566 200.379 52.8672 200.496 53.1016C200.613 53.3359 200.795 53.5293 201.041 53.6816C201.299 53.8223 201.744 53.957 202.377 54.0859V55L198.229 55.1758H197.174L197.385 52.293L197.121 52.2227C196.383 53.0078 195.738 53.5996 195.188 53.998C194.648 54.3848 194.068 54.6953 193.447 54.9297C192.838 55.1641 192.182 55.2812 191.479 55.2812C189.557 55.2812 188.074 54.5547 187.031 53.1016C185.988 51.6367 185.467 49.5273 185.467 46.7734C185.467 44.8516 185.807 43.2227 186.486 41.8867C187.166 40.5391 188.08 39.5371 189.229 38.8809C190.389 38.2246 191.689 37.8965 193.131 37.8965C193.904 37.8965 194.607 37.9609 195.24 38.0898C195.873 38.207 196.523 38.4062 197.191 38.6875V35.8926ZM197.191 44.5762C197.191 43.6621 197.15 42.9297 197.068 42.3789C196.986 41.8281 196.846 41.3652 196.646 40.9902C196.459 40.6152 196.201 40.2988 195.873 40.041C195.545 39.7832 195.182 39.5957 194.783 39.4785C194.396 39.3613 193.928 39.3027 193.377 39.3027C191.877 39.3027 190.734 39.9062 189.949 41.1133C189.164 42.3086 188.771 44.0312 188.771 46.2812C188.771 48.5312 189.094 50.2422 189.738 51.4141C190.383 52.5859 191.361 53.1719 192.674 53.1719C193.189 53.1719 193.617 53.1309 193.957 53.0488C194.297 52.9551 194.631 52.8145 194.959 52.627C195.287 52.4277 195.621 52.1582 195.961 51.8184C196.301 51.4785 196.547 51.168 196.699 50.8867C196.863 50.6055 196.986 50.2832 197.068 49.9199C197.15 49.5566 197.191 49.0879 197.191 48.5137V44.5762ZM212.73 44.8574L215.016 41.957C215.262 41.6406 215.461 41.3359 215.613 41.043C215.766 40.7383 215.842 40.4277 215.842 40.1113C215.842 39.8418 215.742 39.6191 215.543 39.4434C215.344 39.2676 215.033 39.1387 214.611 39.0566V38.1953H220.359V39.0566C219.914 39.1855 219.457 39.4375 218.988 39.8125C218.531 40.1875 217.969 40.791 217.301 41.623L213.662 46.0879L217.67 51.4844C218.244 52.2578 218.76 52.8496 219.217 53.2598C219.674 53.6699 220.131 53.9629 220.588 54.1387V55H213.521V54.1387C214.494 54.0215 214.98 53.6582 214.98 53.0488C214.98 52.8027 214.939 52.5684 214.857 52.3457C214.775 52.123 214.623 51.8652 214.4 51.5723L211.852 48.0215L209.145 51.5371C208.945 51.7949 208.787 52.0352 208.67 52.2578C208.564 52.4688 208.512 52.709 208.512 52.9785C208.512 53.2949 208.617 53.5586 208.828 53.7695C209.051 53.9688 209.396 54.0918 209.865 54.1387V55H203.994V54.1387C204.381 53.998 204.727 53.8223 205.031 53.6113C205.348 53.4004 205.664 53.1309 205.98 52.8027C206.309 52.4629 206.736 51.9707 207.264 51.3262L210.92 46.791L207.176 41.6582C206.66 40.9551 206.25 40.4453 205.945 40.1289C205.641 39.8125 205.359 39.5723 205.102 39.4082C204.844 39.2441 204.586 39.127 204.328 39.0566V38.1953H211.219V39.0566C210.293 39.1973 209.83 39.5605 209.83 40.1465C209.83 40.416 209.889 40.6855 210.006 40.9551C210.135 41.2246 210.328 41.5234 210.586 41.8516L212.73 44.8574ZM231.557 42.2383V39.9004H253.213V42.2383H231.557ZM231.557 49.5332V47.1953H253.213V49.5332H231.557ZM273.832 47.1074H265.676V44.3828H273.832V47.1074ZM290.531 38.5996V42.2734H288.299C288.1 41.5117 287.854 40.9141 287.561 40.4805C287.268 40.0352 286.928 39.7246 286.541 39.5488C286.154 39.373 285.674 39.2852 285.1 39.2852C284.279 39.2852 283.553 39.5488 282.92 40.0762C282.287 40.6035 281.783 41.4062 281.408 42.4844C281.045 43.5625 280.863 44.8809 280.863 46.4395C280.863 47.4355 280.934 48.3496 281.074 49.1816C281.215 50.002 281.455 50.7051 281.795 51.291C282.135 51.877 282.586 52.334 283.148 52.6621C283.711 52.9902 284.408 53.1543 285.24 53.1543C286.049 53.1543 286.799 52.9961 287.49 52.6797C288.193 52.3633 288.92 51.8066 289.67 51.0098L290.672 52.1699C290.074 52.8262 289.547 53.3359 289.09 53.6992C288.633 54.0508 288.141 54.3496 287.613 54.5957C287.098 54.8301 286.582 55 286.066 55.1055C285.562 55.2227 285.012 55.2812 284.414 55.2812C282.199 55.2812 280.506 54.5488 279.334 53.084C278.162 51.6074 277.576 49.4805 277.576 46.7031C277.576 44.9688 277.904 43.4336 278.561 42.0977C279.217 40.75 280.137 39.7129 281.32 38.9863C282.504 38.2598 283.869 37.8965 285.416 37.8965C286.377 37.8965 287.262 37.9551 288.07 38.0723C288.891 38.1777 289.711 38.3535 290.531 38.5996ZM300.973 55.2812C298.535 55.2812 296.672 54.5664 295.383 53.1367C294.105 51.6953 293.467 49.5684 293.467 46.7559C293.467 44.8223 293.801 43.1875 294.469 41.8516C295.148 40.5156 296.074 39.5254 297.246 38.8809C298.418 38.2246 299.754 37.8965 301.254 37.8965C303.762 37.8965 305.66 38.6289 306.949 40.0938C308.238 41.5469 308.883 43.6387 308.883 46.3691C308.883 48.3145 308.561 49.9551 307.916 51.291C307.271 52.627 306.357 53.6289 305.174 54.2969C303.99 54.9531 302.59 55.2812 300.973 55.2812ZM296.789 46.3867C296.789 48.8008 297.17 50.6582 297.932 51.959C298.705 53.248 299.807 53.8926 301.236 53.8926C302.021 53.8926 302.689 53.7051 303.24 53.3301C303.791 52.9434 304.236 52.4277 304.576 51.7832C304.928 51.1387 305.18 50.3945 305.332 49.5508C305.484 48.6953 305.561 47.8047 305.561 46.8789C305.561 45.1562 305.367 43.7266 304.98 42.5898C304.605 41.4531 304.09 40.6211 303.434 40.0938C302.777 39.5547 302.027 39.2852 301.184 39.2852C299.766 39.2852 298.676 39.9004 297.914 41.1309C297.164 42.3613 296.789 44.1133 296.789 46.3867ZM311.396 39.0742C311.982 38.9805 312.457 38.8164 312.82 38.582C313.184 38.3477 313.465 38.0488 313.664 37.6855C313.875 37.3105 314.039 36.8477 314.156 36.2969C314.273 35.7344 314.396 34.9199 314.525 33.8535H317.021V38.1953H322.699V39.9707H317.021V47.793C317.021 48.9297 317.068 49.8379 317.162 50.5176C317.256 51.1855 317.432 51.7129 317.689 52.0996C317.947 52.4746 318.24 52.7441 318.568 52.9082C318.896 53.0723 319.318 53.1543 319.834 53.1543C320.303 53.1543 320.742 53.0605 321.152 52.873C321.562 52.6738 321.967 52.3926 322.365 52.0293L323.156 52.9785C322.324 53.7871 321.533 54.373 320.783 54.7363C320.045 55.0996 319.277 55.2812 318.48 55.2812C316.969 55.2812 315.844 54.8359 315.105 53.9453C314.367 53.043 313.998 51.6367 313.998 49.7266V39.9707H311.396V39.0742ZM340.137 39.9707L336.885 39.8477L336.727 40.041C337.09 40.4043 337.377 40.9023 337.588 41.5352C337.799 42.1562 337.904 42.8301 337.904 43.5566C337.904 45.4668 337.312 46.9434 336.129 47.9863C334.957 49.0176 333.287 49.5332 331.119 49.5332C330.146 49.5332 329.309 49.4102 328.605 49.1641C327.715 49.8438 327.27 50.5117 327.27 51.168C327.27 51.6016 327.352 51.9297 327.516 52.1523C327.691 52.375 327.973 52.5332 328.359 52.627C328.758 52.7207 329.355 52.7676 330.152 52.7676H334.371C335.613 52.7676 336.627 52.9609 337.412 53.3477C338.197 53.7344 338.754 54.2559 339.082 54.9121C339.422 55.5566 339.592 56.3125 339.592 57.1797C339.592 58.2812 339.275 59.2598 338.643 60.1152C338.01 60.9824 337.096 61.6562 335.9 62.1367C334.705 62.6172 333.311 62.8574 331.717 62.8574C330.533 62.8574 329.449 62.7871 328.465 62.6465C327.492 62.5059 326.654 62.2656 325.951 61.9258C325.26 61.5977 324.721 61.1582 324.334 60.6074C323.959 60.0684 323.771 59.3887 323.771 58.5684C323.771 57.8301 324.018 57.1562 324.51 56.5469C325.002 55.9492 325.699 55.4219 326.602 54.9648C326.051 54.7422 325.617 54.4141 325.301 53.9805C324.984 53.5469 324.826 53.0371 324.826 52.4512C324.826 51.7832 325.014 51.1738 325.389 50.623C325.764 50.0605 326.426 49.4219 327.375 48.707C326.531 48.2148 325.887 47.5469 325.441 46.7031C325.008 45.8594 324.791 44.8984 324.791 43.8203C324.791 42.8125 324.955 41.9395 325.283 41.2012C325.623 40.4512 326.086 39.8359 326.672 39.3555C327.27 38.8633 327.973 38.5 328.781 38.2656C329.59 38.0195 330.463 37.8965 331.4 37.8965C332.244 37.8965 333.082 37.9961 333.914 38.1953H340.137V39.9707ZM327.938 43.5391C327.938 45.0039 328.236 46.1348 328.834 46.9316C329.432 47.7285 330.293 48.127 331.418 48.127C332.016 48.127 332.525 48.0156 332.947 47.793C333.369 47.5586 333.709 47.2422 333.967 46.8438C334.236 46.4453 334.43 45.9883 334.547 45.4727C334.676 44.9453 334.74 44.3945 334.74 43.8203C334.74 42.7891 334.594 41.9277 334.301 41.2363C334.008 40.5449 333.609 40.041 333.105 39.7246C332.602 39.3965 332.021 39.2324 331.365 39.2324C330.252 39.2324 329.402 39.6016 328.816 40.3398C328.23 41.0781 327.938 42.1445 327.938 43.5391ZM328.377 55.2812C327.779 55.7266 327.328 56.1953 327.023 56.6875C326.73 57.1914 326.584 57.7598 326.584 58.3926C326.584 59.4473 327 60.2207 327.832 60.7129C328.676 61.2168 329.959 61.4688 331.682 61.4688C332.736 61.4688 333.639 61.3281 334.389 61.0469C335.15 60.7656 335.73 60.3613 336.129 59.834C336.527 59.3066 336.727 58.6914 336.727 57.9883C336.727 57.6602 336.686 57.3379 336.604 57.0215C336.521 56.7168 336.363 56.4414 336.129 56.1953C335.906 55.9492 335.584 55.75 335.162 55.5977C334.74 55.457 334.189 55.3867 333.51 55.3867H330.891C329.941 55.3867 329.104 55.3516 328.377 55.2812ZM380.496 45.877V56.002H378V45.877H368.42V43.5391H378V33.4141H380.496V43.5391H390.076V45.877H380.496ZM418.957 31.5156V36.3848H417.217C416.936 35.3652 416.578 34.5566 416.145 33.959C415.711 33.3496 415.207 32.916 414.633 32.6582C414.059 32.4004 413.367 32.2715 412.559 32.2715C411.352 32.2715 410.273 32.6758 409.324 33.4844C408.387 34.2812 407.648 35.4883 407.109 37.1055C406.57 38.7109 406.301 40.6562 406.301 42.9414C406.301 45.2383 406.523 47.2012 406.969 48.8301C407.414 50.4473 408.07 51.6719 408.938 52.5039C409.805 53.3242 410.871 53.7344 412.137 53.7344C413.098 53.7344 413.883 53.5996 414.492 53.3301C415.102 53.0488 415.611 52.6094 416.021 52.0117C416.443 51.4141 416.842 50.5352 417.217 49.375H418.957V54.4023C417.855 54.6953 416.725 54.9121 415.564 55.0527C414.416 55.2051 413.15 55.2812 411.768 55.2812C408.791 55.2812 406.541 54.2734 405.018 52.2578C403.494 50.2422 402.732 47.2363 402.732 43.2402C402.732 40.7324 403.125 38.5352 403.91 36.6484C404.707 34.7617 405.873 33.3027 407.408 32.2715C408.943 31.2402 410.777 30.7246 412.91 30.7246C413.977 30.7246 414.961 30.7832 415.863 30.9004C416.766 31.0059 417.797 31.2109 418.957 31.5156Z" fill="white"/>
<path d="M160.418 44.8574L162.703 41.957C162.949 41.6406 163.148 41.3359 163.301 41.043C163.453 40.7383 163.529 40.4277 163.529 40.1113C163.529 39.8418 163.43 39.6191 163.23 39.4434C163.031 39.2676 162.721 39.1387 162.299 39.0566V38.1953H168.047V39.0566C167.602 39.1855 167.145 39.4375 166.676 39.8125C166.219 40.1875 165.656 40.791 164.988 41.623L161.35 46.0879L165.357 51.4844C165.932 52.2578 166.447 52.8496 166.904 53.2598C167.361 53.6699 167.818 53.9629 168.275 54.1387V55H161.209V54.1387C162.182 54.0215 162.668 53.6582 162.668 53.0488C162.668 52.8027 162.627 52.5684 162.545 52.3457C162.463 52.123 162.311 51.8652 162.088 51.5723L159.539 48.0215L156.832 51.5371C156.633 51.7949 156.475 52.0352 156.357 52.2578C156.252 52.4688 156.199 52.709 156.199 52.9785C156.199 53.2949 156.305 53.5586 156.516 53.7695C156.738 53.9688 157.084 54.0918 157.553 54.1387V55H151.682V54.1387C152.068 53.998 152.414 53.8223 152.719 53.6113C153.035 53.4004 153.352 53.1309 153.668 52.8027C153.996 52.4629 154.424 51.9707 154.951 51.3262L158.607 46.791L154.863 41.6582C154.348 40.9551 153.938 40.4453 153.633 40.1289C153.328 39.8125 153.047 39.5723 152.789 39.4082C152.531 39.2441 152.273 39.127 152.016 39.0566V38.1953H158.906V39.0566C157.98 39.1973 157.518 39.5605 157.518 40.1465C157.518 40.416 157.576 40.6855 157.693 40.9551C157.822 41.2246 158.016 41.5234 158.273 41.8516L160.418 44.8574ZM349.594 44.8574L351.879 41.957C352.125 41.6406 352.324 41.3359 352.477 41.043C352.629 40.7383 352.705 40.4277 352.705 40.1113C352.705 39.8418 352.605 39.6191 352.406 39.4434C352.207 39.2676 351.896 39.1387 351.475 39.0566V38.1953H357.223V39.0566C356.777 39.1855 356.32 39.4375 355.852 39.8125C355.395 40.1875 354.832 40.791 354.164 41.623L350.525 46.0879L354.533 51.4844C355.107 52.2578 355.623 52.8496 356.08 53.2598C356.537 53.6699 356.994 53.9629 357.451 54.1387V55H350.385V54.1387C351.357 54.0215 351.844 53.6582 351.844 53.0488C351.844 52.8027 351.803 52.5684 351.721 52.3457C351.639 52.123 351.486 51.8652 351.264 51.5723L348.715 48.0215L346.008 51.5371C345.809 51.7949 345.65 52.0352 345.533 52.2578C345.428 52.4688 345.375 52.709 345.375 52.9785C345.375 53.2949 345.48 53.5586 345.691 53.7695C345.914 53.9688 346.26 54.0918 346.729 54.1387V55H340.857V54.1387C341.244 53.998 341.59 53.8223 341.895 53.6113C342.211 53.4004 342.527 53.1309 342.844 52.8027C343.172 52.4629 343.6 51.9707 344.127 51.3262L347.783 46.791L344.039 41.6582C343.523 40.9551 343.113 40.4453 342.809 40.1289C342.504 39.8125 342.223 39.5723 341.965 39.4082C341.707 39.2441 341.449 39.127 341.191 39.0566V38.1953H348.082V39.0566C347.156 39.1973 346.693 39.5605 346.693 40.1465C346.693 40.416 346.752 40.6855 346.869 40.9551C346.998 41.2246 347.191 41.5234 347.449 41.8516L349.594 44.8574Z" fill="#89B8FF"/>
<path d="M8.47656 9.8418C8.35352 10.8945 7.96387 11.708 7.30762 12.2822C6.65592 12.8519 5.78776 13.1367 4.70312 13.1367C3.52734 13.1367 2.58398 12.7152 1.87305 11.8721C1.16667 11.029 0.813477 9.90104 0.813477 8.48828V7.53125C0.813477 6.60612 0.977539 5.79264 1.30566 5.09082C1.63835 4.389 2.10775 3.85124 2.71387 3.47754C3.31999 3.09928 4.02181 2.91016 4.81934 2.91016C5.87663 2.91016 6.72428 3.20638 7.3623 3.79883C8.00033 4.38672 8.37174 5.20247 8.47656 6.24609H7.15723C7.04329 5.45312 6.79492 4.87891 6.41211 4.52344C6.03385 4.16797 5.50293 3.99023 4.81934 3.99023C3.98079 3.99023 3.32227 4.30013 2.84375 4.91992C2.36979 5.53971 2.13281 6.42155 2.13281 7.56543V8.5293C2.13281 9.60938 2.3584 10.4684 2.80957 11.1064C3.26074 11.7445 3.89193 12.0635 4.70312 12.0635C5.43229 12.0635 5.99056 11.8994 6.37793 11.5713C6.76986 11.2386 7.02962 10.6621 7.15723 9.8418H8.47656ZM9.74121 9.2334C9.74121 8.50879 9.88249 7.8571 10.165 7.27832C10.4521 6.69954 10.8486 6.25293 11.3545 5.93848C11.8649 5.62402 12.446 5.4668 13.0977 5.4668C14.1048 5.4668 14.9183 5.81543 15.5381 6.5127C16.1624 7.20996 16.4746 8.13737 16.4746 9.29492V9.38379C16.4746 10.1038 16.3356 10.751 16.0576 11.3252C15.7842 11.8949 15.39 12.3392 14.875 12.6582C14.3646 12.9772 13.7767 13.1367 13.1113 13.1367C12.1087 13.1367 11.2952 12.7881 10.6709 12.0908C10.0511 11.3936 9.74121 10.4707 9.74121 9.32227V9.2334ZM11.0127 9.38379C11.0127 10.2041 11.2018 10.8626 11.5801 11.3594C11.9629 11.8561 12.4733 12.1045 13.1113 12.1045C13.7539 12.1045 14.2643 11.8538 14.6426 11.3525C15.0208 10.8467 15.21 10.1403 15.21 9.2334C15.21 8.4222 15.0163 7.76595 14.6289 7.26465C14.2461 6.75879 13.7357 6.50586 13.0977 6.50586C12.4733 6.50586 11.9697 6.75423 11.5869 7.25098C11.2041 7.74772 11.0127 8.45866 11.0127 9.38379ZM19.7764 3.8125V5.60352H21.1572V6.58105H19.7764V11.168C19.7764 11.4642 19.8379 11.6875 19.9609 11.8379C20.084 11.9837 20.2936 12.0566 20.5898 12.0566C20.7357 12.0566 20.9362 12.0293 21.1914 11.9746V13C20.8587 13.0911 20.5352 13.1367 20.2207 13.1367C19.6556 13.1367 19.2295 12.9658 18.9424 12.624C18.6553 12.2822 18.5117 11.7969 18.5117 11.168V6.58105H17.165V5.60352H18.5117V3.8125H19.7764ZM27.207 13C27.1341 12.8542 27.0749 12.5944 27.0293 12.2207C26.4414 12.8314 25.7396 13.1367 24.9238 13.1367C24.1947 13.1367 23.5954 12.9316 23.126 12.5215C22.6611 12.1068 22.4287 11.5827 22.4287 10.9492C22.4287 10.179 22.7204 9.58203 23.3037 9.1582C23.8916 8.72982 24.7165 8.51562 25.7783 8.51562H27.0088V7.93457C27.0088 7.49251 26.8766 7.1416 26.6123 6.88184C26.348 6.61751 25.9583 6.48535 25.4434 6.48535C24.9922 6.48535 24.6139 6.59928 24.3086 6.82715C24.0033 7.05501 23.8506 7.33073 23.8506 7.6543H22.5791C22.5791 7.28516 22.709 6.92969 22.9688 6.58789C23.2331 6.24154 23.5885 5.9681 24.0352 5.76758C24.4863 5.56706 24.9808 5.4668 25.5186 5.4668C26.3708 5.4668 27.0384 5.68099 27.5215 6.10938C28.0046 6.5332 28.2552 7.11882 28.2734 7.86621V11.2705C28.2734 11.9495 28.36 12.4896 28.5332 12.8906V13H27.207ZM25.1084 12.0361C25.5049 12.0361 25.8809 11.9336 26.2363 11.7285C26.5918 11.5234 26.8493 11.2568 27.0088 10.9287V9.41113H26.0176C24.4681 9.41113 23.6934 9.86458 23.6934 10.7715C23.6934 11.168 23.8255 11.4779 24.0898 11.7012C24.3542 11.9245 24.6937 12.0361 25.1084 12.0361ZM31.4521 5.60352L31.4932 6.5332C32.0583 5.82227 32.7965 5.4668 33.708 5.4668C35.2712 5.4668 36.0596 6.34863 36.0732 8.1123V13H34.8086V8.10547C34.804 7.57227 34.681 7.17806 34.4395 6.92285C34.2025 6.66764 33.8311 6.54004 33.3252 6.54004C32.915 6.54004 32.555 6.64941 32.2451 6.86816C31.9352 7.08691 31.6937 7.37402 31.5205 7.72949V13H30.2559V5.60352H31.4521ZM37.6797 9.24023C37.6797 8.08724 37.9463 7.17122 38.4795 6.49219C39.0127 5.80859 39.7191 5.4668 40.5986 5.4668C41.501 5.4668 42.2051 5.78581 42.7109 6.42383L42.7725 5.60352H43.9277V12.8223C43.9277 13.7793 43.6429 14.5335 43.0732 15.085C42.5081 15.6364 41.7471 15.9121 40.79 15.9121C40.2568 15.9121 39.735 15.7982 39.2246 15.5703C38.7142 15.3424 38.3245 15.0303 38.0557 14.6338L38.7119 13.875C39.2542 14.5449 39.9173 14.8799 40.7012 14.8799C41.3164 14.8799 41.7949 14.7067 42.1367 14.3604C42.4831 14.014 42.6562 13.5264 42.6562 12.8975V12.2617C42.1504 12.8451 41.46 13.1367 40.585 13.1367C39.7191 13.1367 39.0173 12.7881 38.4795 12.0908C37.9463 11.3936 37.6797 10.4434 37.6797 9.24023ZM38.9512 9.38379C38.9512 10.2178 39.1221 10.874 39.4639 11.3525C39.8057 11.8265 40.2842 12.0635 40.8994 12.0635C41.6969 12.0635 42.2826 11.7012 42.6562 10.9766V7.59961C42.2689 6.89323 41.6878 6.54004 40.9131 6.54004C40.2979 6.54004 39.8171 6.7793 39.4707 7.25781C39.1243 7.73633 38.9512 8.44499 38.9512 9.38379ZM48.9111 13.1367C47.9085 13.1367 47.0928 12.8086 46.4639 12.1523C45.835 11.4915 45.5205 10.6097 45.5205 9.50684V9.27441C45.5205 8.54069 45.6595 7.88672 45.9375 7.3125C46.2201 6.73372 46.612 6.28255 47.1133 5.95898C47.6191 5.63086 48.166 5.4668 48.7539 5.4668C49.7155 5.4668 50.4629 5.78353 50.9961 6.41699C51.5293 7.05046 51.7959 7.95736 51.7959 9.1377V9.66406H46.7852C46.8034 10.3932 47.0153 10.9834 47.4209 11.4346C47.8311 11.8812 48.3506 12.1045 48.9795 12.1045C49.4261 12.1045 49.8044 12.0133 50.1143 11.8311C50.4242 11.6488 50.6953 11.4072 50.9277 11.1064L51.7002 11.708C51.0804 12.6605 50.1507 13.1367 48.9111 13.1367ZM48.7539 6.50586C48.2435 6.50586 47.8151 6.69271 47.4688 7.06641C47.1224 7.43555 46.9082 7.95508 46.8262 8.625H50.5312V8.5293C50.4948 7.88672 50.3216 7.38997 50.0117 7.03906C49.7018 6.68359 49.2826 6.50586 48.7539 6.50586ZM54.4619 5.60352L54.5029 6.5332C55.068 5.82227 55.8063 5.4668 56.7178 5.4668C58.2809 5.4668 59.0693 6.34863 59.083 8.1123V13H57.8184V8.10547C57.8138 7.57227 57.6908 7.17806 57.4492 6.92285C57.2122 6.66764 56.8408 6.54004 56.335 6.54004C55.9248 6.54004 55.5648 6.64941 55.2549 6.86816C54.945 7.08691 54.7035 7.37402 54.5303 7.72949V13H53.2656V5.60352H54.4619ZM62.7061 3.8125V5.60352H64.0869V6.58105H62.7061V11.168C62.7061 11.4642 62.7676 11.6875 62.8906 11.8379C63.0137 11.9837 63.2233 12.0566 63.5195 12.0566C63.6654 12.0566 63.8659 12.0293 64.1211 11.9746V13C63.7884 13.0911 63.4648 13.1367 63.1504 13.1367C62.5853 13.1367 62.1592 12.9658 61.8721 12.624C61.585 12.2822 61.4414 11.7969 61.4414 11.168V6.58105H60.0947V5.60352H61.4414V3.8125H62.7061ZM68.6396 13.1367C67.637 13.1367 66.8213 12.8086 66.1924 12.1523C65.5635 11.4915 65.249 10.6097 65.249 9.50684V9.27441C65.249 8.54069 65.388 7.88672 65.666 7.3125C65.9486 6.73372 66.3405 6.28255 66.8418 5.95898C67.3477 5.63086 67.8945 5.4668 68.4824 5.4668C69.444 5.4668 70.1914 5.78353 70.7246 6.41699C71.2578 7.05046 71.5244 7.95736 71.5244 9.1377V9.66406H66.5137C66.5319 10.3932 66.7438 10.9834 67.1494 11.4346C67.5596 11.8812 68.0791 12.1045 68.708 12.1045C69.1546 12.1045 69.5329 12.0133 69.8428 11.8311C70.1527 11.6488 70.4238 11.4072 70.6562 11.1064L71.4287 11.708C70.8089 12.6605 69.8792 13.1367 68.6396 13.1367ZM68.4824 6.50586C67.972 6.50586 67.5436 6.69271 67.1973 7.06641C66.8509 7.43555 66.6367 7.95508 66.5547 8.625H70.2598V8.5293C70.2233 7.88672 70.0501 7.38997 69.7402 7.03906C69.4303 6.68359 69.0111 6.50586 68.4824 6.50586Z" fill="#41D17A"/>
</svg>
