<svg width="364" height="90" viewBox="0 0 364 90" fill="none" xmlns="http://www.w3.org/2000/svg">
<path d="M20.5273 32.4199H18.7168C18.623 31.9043 18.4355 31.4824 18.1543 31.1543C17.873 30.8145 17.498 30.6445 17.0293 30.6445C15.7754 30.6445 14.9492 31.6641 14.5508 33.7031C14.1641 35.7305 13.9707 40.3887 13.9707 47.6777C13.9707 53.7246 13.4141 58.5234 12.3008 62.0742C11.1992 65.625 9.24805 67.4004 6.44727 67.4004C5.88477 67.4004 5.39258 67.3535 4.9707 67.2598C4.54883 67.166 4.13867 67.0137 3.74023 66.8027L3.96875 63.3398H5.62109C5.77344 63.9023 5.99609 64.3652 6.28906 64.7285C6.59375 65.0918 7.02148 65.2734 7.57227 65.2734C8.80273 65.2734 9.57617 63.9961 9.89258 61.4414C10.209 58.8984 10.3672 55.1836 10.3672 50.2969C10.3672 42.6797 10.9414 37.1309 12.0898 33.6504C13.25 30.1699 15.2539 28.4297 18.1016 28.4297C18.5117 28.4297 18.9629 28.4883 19.4551 28.6055C19.959 28.7109 20.3867 28.8457 20.7383 29.0098L20.5273 32.4199ZM139.988 40.8926C139.988 39.7676 139.977 38.9824 139.953 38.5371C139.941 38.0918 139.895 37.7168 139.812 37.4121C139.742 37.0957 139.637 36.8496 139.496 36.6738C139.367 36.498 139.186 36.3574 138.951 36.252C138.729 36.1465 138.318 36.041 137.721 35.9355V35.0215L141.975 34.8457H143.012V55.2012C143.012 56.1152 143.029 56.7715 143.064 57.1699C143.1 57.5566 143.176 57.8672 143.293 58.1016C143.41 58.3359 143.592 58.5293 143.838 58.6816C144.096 58.8223 144.541 58.957 145.174 59.0859V60L141.025 60.1758H139.971L140.182 57.293L139.918 57.2227C139.18 58.0078 138.535 58.5996 137.984 58.998C137.445 59.3848 136.865 59.6953 136.244 59.9297C135.635 60.1641 134.979 60.2812 134.275 60.2812C132.354 60.2812 130.871 59.5547 129.828 58.1016C128.785 56.6367 128.264 54.5273 128.264 51.7734C128.264 49.8516 128.604 48.2227 129.283 46.8867C129.963 45.5391 130.877 44.5371 132.025 43.8809C133.186 43.2246 134.486 42.8965 135.928 42.8965C136.701 42.8965 137.404 42.9609 138.037 43.0898C138.67 43.207 139.32 43.4062 139.988 43.6875V40.8926ZM139.988 49.5762C139.988 48.6621 139.947 47.9297 139.865 47.3789C139.783 46.8281 139.643 46.3652 139.443 45.9902C139.256 45.6152 138.998 45.2988 138.67 45.041C138.342 44.7832 137.979 44.5957 137.58 44.4785C137.193 44.3613 136.725 44.3027 136.174 44.3027C134.674 44.3027 133.531 44.9062 132.746 46.1133C131.961 47.3086 131.568 49.0312 131.568 51.2812C131.568 53.5312 131.891 55.2422 132.535 56.4141C133.18 57.5859 134.158 58.1719 135.471 58.1719C135.986 58.1719 136.414 58.1309 136.754 58.0488C137.094 57.9551 137.428 57.8145 137.756 57.627C138.084 57.4277 138.418 57.1582 138.758 56.8184C139.098 56.4785 139.344 56.168 139.496 55.8867C139.66 55.6055 139.783 55.2832 139.865 54.9199C139.947 54.5566 139.988 54.0879 139.988 53.5137V49.5762ZM155.527 49.8574L157.812 46.957C158.059 46.6406 158.258 46.3359 158.41 46.043C158.562 45.7383 158.639 45.4277 158.639 45.1113C158.639 44.8418 158.539 44.6191 158.34 44.4434C158.141 44.2676 157.83 44.1387 157.408 44.0566V43.1953H163.156V44.0566C162.711 44.1855 162.254 44.4375 161.785 44.8125C161.328 45.1875 160.766 45.791 160.098 46.623L156.459 51.0879L160.467 56.4844C161.041 57.2578 161.557 57.8496 162.014 58.2598C162.471 58.6699 162.928 58.9629 163.385 59.1387V60H156.318V59.1387C157.291 59.0215 157.777 58.6582 157.777 58.0488C157.777 57.8027 157.736 57.5684 157.654 57.3457C157.572 57.123 157.42 56.8652 157.197 56.5723L154.648 53.0215L151.941 56.5371C151.742 56.7949 151.584 57.0352 151.467 57.2578C151.361 57.4688 151.309 57.709 151.309 57.9785C151.309 58.2949 151.414 58.5586 151.625 58.7695C151.848 58.9688 152.193 59.0918 152.662 59.1387V60H146.791V59.1387C147.178 58.998 147.523 58.8223 147.828 58.6113C148.145 58.4004 148.461 58.1309 148.777 57.8027C149.105 57.4629 149.533 56.9707 150.061 56.3262L153.717 51.791L149.973 46.6582C149.457 45.9551 149.047 45.4453 148.742 45.1289C148.438 44.8125 148.156 44.5723 147.898 44.4082C147.641 44.2441 147.383 44.127 147.125 44.0566V43.1953H154.016V44.0566C153.09 44.1973 152.627 44.5605 152.627 45.1465C152.627 45.416 152.686 45.6855 152.803 45.9551C152.932 46.2246 153.125 46.5234 153.383 46.8516L155.527 49.8574ZM174.354 47.2383V44.9004H196.01V47.2383H174.354ZM174.354 54.5332V52.1953H196.01V54.5332H174.354ZM216.629 52.1074H208.473V49.3828H216.629V52.1074ZM233.328 43.5996V47.2734H231.096C230.896 46.5117 230.65 45.9141 230.357 45.4805C230.064 45.0352 229.725 44.7246 229.338 44.5488C228.951 44.373 228.471 44.2852 227.896 44.2852C227.076 44.2852 226.35 44.5488 225.717 45.0762C225.084 45.6035 224.58 46.4062 224.205 47.4844C223.842 48.5625 223.66 49.8809 223.66 51.4395C223.66 52.4355 223.73 53.3496 223.871 54.1816C224.012 55.002 224.252 55.7051 224.592 56.291C224.932 56.877 225.383 57.334 225.945 57.6621C226.508 57.9902 227.205 58.1543 228.037 58.1543C228.846 58.1543 229.596 57.9961 230.287 57.6797C230.99 57.3633 231.717 56.8066 232.467 56.0098L233.469 57.1699C232.871 57.8262 232.344 58.3359 231.887 58.6992C231.43 59.0508 230.938 59.3496 230.41 59.5957C229.895 59.8301 229.379 60 228.863 60.1055C228.359 60.2227 227.809 60.2812 227.211 60.2812C224.996 60.2812 223.303 59.5488 222.131 58.084C220.959 56.6074 220.373 54.4805 220.373 51.7031C220.373 49.9688 220.701 48.4336 221.357 47.0977C222.014 45.75 222.934 44.7129 224.117 43.9863C225.301 43.2598 226.666 42.8965 228.213 42.8965C229.174 42.8965 230.059 42.9551 230.867 43.0723C231.688 43.1777 232.508 43.3535 233.328 43.5996ZM243.77 60.2812C241.332 60.2812 239.469 59.5664 238.18 58.1367C236.902 56.6953 236.264 54.5684 236.264 51.7559C236.264 49.8223 236.598 48.1875 237.266 46.8516C237.945 45.5156 238.871 44.5254 240.043 43.8809C241.215 43.2246 242.551 42.8965 244.051 42.8965C246.559 42.8965 248.457 43.6289 249.746 45.0938C251.035 46.5469 251.68 48.6387 251.68 51.3691C251.68 53.3145 251.357 54.9551 250.713 56.291C250.068 57.627 249.154 58.6289 247.971 59.2969C246.787 59.9531 245.387 60.2812 243.77 60.2812ZM239.586 51.3867C239.586 53.8008 239.967 55.6582 240.729 56.959C241.502 58.248 242.604 58.8926 244.033 58.8926C244.818 58.8926 245.486 58.7051 246.037 58.3301C246.588 57.9434 247.033 57.4277 247.373 56.7832C247.725 56.1387 247.977 55.3945 248.129 54.5508C248.281 53.6953 248.357 52.8047 248.357 51.8789C248.357 50.1562 248.164 48.7266 247.777 47.5898C247.402 46.4531 246.887 45.6211 246.23 45.0938C245.574 44.5547 244.824 44.2852 243.98 44.2852C242.562 44.2852 241.473 44.9004 240.711 46.1309C239.961 47.3613 239.586 49.1133 239.586 51.3867ZM254.193 44.0742C254.779 43.9805 255.254 43.8164 255.617 43.582C255.98 43.3477 256.262 43.0488 256.461 42.6855C256.672 42.3105 256.836 41.8477 256.953 41.2969C257.07 40.7344 257.193 39.9199 257.322 38.8535H259.818V43.1953H265.496V44.9707H259.818V52.793C259.818 53.9297 259.865 54.8379 259.959 55.5176C260.053 56.1855 260.229 56.7129 260.486 57.0996C260.744 57.4746 261.037 57.7441 261.365 57.9082C261.693 58.0723 262.115 58.1543 262.631 58.1543C263.1 58.1543 263.539 58.0605 263.949 57.873C264.359 57.6738 264.764 57.3926 265.162 57.0293L265.953 57.9785C265.121 58.7871 264.33 59.373 263.58 59.7363C262.842 60.0996 262.074 60.2812 261.277 60.2812C259.766 60.2812 258.641 59.8359 257.902 58.9453C257.164 58.043 256.795 56.6367 256.795 54.7266V44.9707H254.193V44.0742ZM282.934 44.9707L279.682 44.8477L279.523 45.041C279.887 45.4043 280.174 45.9023 280.385 46.5352C280.596 47.1562 280.701 47.8301 280.701 48.5566C280.701 50.4668 280.109 51.9434 278.926 52.9863C277.754 54.0176 276.084 54.5332 273.916 54.5332C272.943 54.5332 272.105 54.4102 271.402 54.1641C270.512 54.8438 270.066 55.5117 270.066 56.168C270.066 56.6016 270.148 56.9297 270.312 57.1523C270.488 57.375 270.77 57.5332 271.156 57.627C271.555 57.7207 272.152 57.7676 272.949 57.7676H277.168C278.41 57.7676 279.424 57.9609 280.209 58.3477C280.994 58.7344 281.551 59.2559 281.879 59.9121C282.219 60.5566 282.389 61.3125 282.389 62.1797C282.389 63.2812 282.072 64.2598 281.439 65.1152C280.807 65.9824 279.893 66.6562 278.697 67.1367C277.502 67.6172 276.107 67.8574 274.514 67.8574C273.33 67.8574 272.246 67.7871 271.262 67.6465C270.289 67.5059 269.451 67.2656 268.748 66.9258C268.057 66.5977 267.518 66.1582 267.131 65.6074C266.756 65.0684 266.568 64.3887 266.568 63.5684C266.568 62.8301 266.814 62.1562 267.307 61.5469C267.799 60.9492 268.496 60.4219 269.398 59.9648C268.848 59.7422 268.414 59.4141 268.098 58.9805C267.781 58.5469 267.623 58.0371 267.623 57.4512C267.623 56.7832 267.811 56.1738 268.186 55.623C268.561 55.0605 269.223 54.4219 270.172 53.707C269.328 53.2148 268.684 52.5469 268.238 51.7031C267.805 50.8594 267.588 49.8984 267.588 48.8203C267.588 47.8125 267.752 46.9395 268.08 46.2012C268.42 45.4512 268.883 44.8359 269.469 44.3555C270.066 43.8633 270.77 43.5 271.578 43.2656C272.387 43.0195 273.26 42.8965 274.197 42.8965C275.041 42.8965 275.879 42.9961 276.711 43.1953H282.934V44.9707ZM270.734 48.5391C270.734 50.0039 271.033 51.1348 271.631 51.9316C272.229 52.7285 273.09 53.127 274.215 53.127C274.812 53.127 275.322 53.0156 275.744 52.793C276.166 52.5586 276.506 52.2422 276.764 51.8438C277.033 51.4453 277.227 50.9883 277.344 50.4727C277.473 49.9453 277.537 49.3945 277.537 48.8203C277.537 47.7891 277.391 46.9277 277.098 46.2363C276.805 45.5449 276.406 45.041 275.902 44.7246C275.398 44.3965 274.818 44.2324 274.162 44.2324C273.049 44.2324 272.199 44.6016 271.613 45.3398C271.027 46.0781 270.734 47.1445 270.734 48.5391ZM271.174 60.2812C270.576 60.7266 270.125 61.1953 269.82 61.6875C269.527 62.1914 269.381 62.7598 269.381 63.3926C269.381 64.4473 269.797 65.2207 270.629 65.7129C271.473 66.2168 272.756 66.4688 274.479 66.4688C275.533 66.4688 276.436 66.3281 277.186 66.0469C277.947 65.7656 278.527 65.3613 278.926 64.834C279.324 64.3066 279.523 63.6914 279.523 62.9883C279.523 62.6602 279.482 62.3379 279.4 62.0215C279.318 61.7168 279.16 61.4414 278.926 61.1953C278.703 60.9492 278.381 60.75 277.959 60.5977C277.537 60.457 276.986 60.3867 276.307 60.3867H273.688C272.738 60.3867 271.9 60.3516 271.174 60.2812ZM323.293 50.877V61.002H320.797V50.877H311.217V48.5391H320.797V38.4141H323.293V48.5391H332.873V50.877H323.293ZM361.754 36.5156V41.3848H360.014C359.732 40.3652 359.375 39.5566 358.941 38.959C358.508 38.3496 358.004 37.916 357.43 37.6582C356.855 37.4004 356.164 37.2715 355.355 37.2715C354.148 37.2715 353.07 37.6758 352.121 38.4844C351.184 39.2812 350.445 40.4883 349.906 42.1055C349.367 43.7109 349.098 45.6562 349.098 47.9414C349.098 50.2383 349.32 52.2012 349.766 53.8301C350.211 55.4473 350.867 56.6719 351.734 57.5039C352.602 58.3242 353.668 58.7344 354.934 58.7344C355.895 58.7344 356.68 58.5996 357.289 58.3301C357.898 58.0488 358.408 57.6094 358.818 57.0117C359.24 56.4141 359.639 55.5352 360.014 54.375H361.754V59.4023C360.652 59.6953 359.521 59.9121 358.361 60.0527C357.213 60.2051 355.947 60.2812 354.564 60.2812C351.588 60.2812 349.338 59.2734 347.814 57.2578C346.291 55.2422 345.529 52.2363 345.529 48.2402C345.529 45.7324 345.922 43.5352 346.707 41.6484C347.504 39.7617 348.67 38.3027 350.205 37.2715C351.74 36.2402 353.574 35.7246 355.707 35.7246C356.773 35.7246 357.758 35.7832 358.66 35.9004C359.562 36.0059 360.594 36.2109 361.754 36.5156Z" fill="white"/>
<path d="M292.391 49.8574L294.676 46.957C294.922 46.6406 295.121 46.3359 295.273 46.043C295.426 45.7383 295.502 45.4277 295.502 45.1113C295.502 44.8418 295.402 44.6191 295.203 44.4434C295.004 44.2676 294.693 44.1387 294.271 44.0566V43.1953H300.02V44.0566C299.574 44.1855 299.117 44.4375 298.648 44.8125C298.191 45.1875 297.629 45.791 296.961 46.623L293.322 51.0879L297.33 56.4844C297.904 57.2578 298.42 57.8496 298.877 58.2598C299.334 58.6699 299.791 58.9629 300.248 59.1387V60H293.182V59.1387C294.154 59.0215 294.641 58.6582 294.641 58.0488C294.641 57.8027 294.6 57.5684 294.518 57.3457C294.436 57.123 294.283 56.8652 294.061 56.5723L291.512 53.0215L288.805 56.5371C288.605 56.7949 288.447 57.0352 288.33 57.2578C288.225 57.4688 288.172 57.709 288.172 57.9785C288.172 58.2949 288.277 58.5586 288.488 58.7695C288.711 58.9688 289.057 59.0918 289.525 59.1387V60H283.654V59.1387C284.041 58.998 284.387 58.8223 284.691 58.6113C285.008 58.4004 285.324 58.1309 285.641 57.8027C285.969 57.4629 286.396 56.9707 286.924 56.3262L290.58 51.791L286.836 46.6582C286.32 45.9551 285.91 45.4453 285.605 45.1289C285.301 44.8125 285.02 44.5723 284.762 44.4082C284.504 44.2441 284.246 44.127 283.988 44.0566V43.1953H290.879V44.0566C289.953 44.1973 289.49 44.5605 289.49 45.1465C289.49 45.416 289.549 45.6855 289.666 45.9551C289.795 46.2246 289.988 46.5234 290.246 46.8516L292.391 49.8574Z" fill="#89B8FF"/>
<line x1="18" y1="49" x2="118" y2="49" stroke="white" stroke-width="2"/>
<path d="M70.2168 34.4121C70.2168 35.0918 70.252 35.6074 70.3223 35.959C70.4043 36.2988 70.5391 36.5801 70.7266 36.8027C70.9258 37.0137 71.207 37.1836 71.5703 37.3125C71.9336 37.4297 72.3906 37.5234 72.9414 37.5938C73.4922 37.6523 74.2188 37.6934 75.1211 37.7168V39H62.1309V37.7168C63.4316 37.6582 64.3574 37.582 64.9082 37.4883C65.4707 37.3828 65.8984 37.2305 66.1914 37.0312C66.4844 36.832 66.6953 36.5508 66.8242 36.1875C66.9648 35.8242 67.0352 35.2324 67.0352 34.4121V20.1562C67.0352 19.6875 66.9531 19.3477 66.7891 19.1367C66.625 18.9141 66.3848 18.8027 66.0684 18.8027C65.6934 18.8027 65.1602 18.9961 64.4688 19.3828C63.7773 19.7695 62.9219 20.3027 61.9023 20.9824L61.1289 19.6289L69.3555 14.7246H70.3223C70.252 15.8496 70.2168 17.4082 70.2168 19.4004V34.4121Z" fill="white"/>
<path d="M42.4824 66.0449H40.7949C40.5371 65.3418 40.2324 64.791 39.8809 64.3926C39.5293 63.9824 39.1309 63.6953 38.6855 63.5312C38.2402 63.3672 37.6953 63.2852 37.0508 63.2852C36.1133 63.2852 35.3633 63.5078 34.8008 63.9531C34.25 64.3867 33.9746 64.9844 33.9746 65.7461C33.9746 66.2852 34.0859 66.7305 34.3086 67.082C34.5312 67.4336 34.877 67.7617 35.3457 68.0664C35.8145 68.3711 36.6406 68.7754 37.8242 69.2793C39.0195 69.7949 39.9395 70.2695 40.584 70.7031C41.2402 71.1367 41.75 71.6406 42.1133 72.2148C42.4883 72.7891 42.6758 73.4746 42.6758 74.2715C42.6758 75.1973 42.5176 75.9766 42.2012 76.6094C41.8848 77.2422 41.4395 77.7578 40.8652 78.1562C40.291 78.5547 39.6055 78.8418 38.8086 79.0176C38.0234 79.1934 37.1621 79.2812 36.2246 79.2812C35.2402 79.2812 34.2852 79.2051 33.3594 79.0527C32.4336 78.9121 31.5312 78.7246 30.6523 78.4902V74.8164H32.375C32.6914 75.8945 33.1602 76.6797 33.7812 77.1719C34.4023 77.6523 35.2578 77.8926 36.3477 77.8926C36.7695 77.8926 37.1797 77.8516 37.5781 77.7695C37.9883 77.6758 38.3516 77.5293 38.668 77.3301C38.9844 77.1191 39.2363 76.8379 39.4238 76.4863C39.6113 76.1348 39.7051 75.6953 39.7051 75.168C39.7051 74.5703 39.5879 74.084 39.3535 73.709C39.1191 73.334 38.7559 72.9941 38.2637 72.6895C37.7715 72.373 36.9043 71.9512 35.6621 71.4238C34.5957 70.9785 33.7402 70.5449 33.0957 70.123C32.4512 69.7012 31.9414 69.2031 31.5664 68.6289C31.2031 68.0547 31.0215 67.375 31.0215 66.5898C31.0215 65.6289 31.2793 64.7969 31.7949 64.0938C32.3223 63.3789 33.0781 62.834 34.0625 62.459C35.0469 62.084 36.2012 61.8965 37.5254 61.8965C38.2988 61.8965 39.043 61.9375 39.7578 62.0195C40.4844 62.0898 41.3926 62.2363 42.4824 62.459V66.0449ZM51.2012 55.3047V58.7148H47.9668V55.3047H51.2012ZM46.1738 78.1387C46.6309 77.998 46.9531 77.875 47.1406 77.7695C47.3398 77.6641 47.5039 77.5176 47.6328 77.3301C47.7734 77.1426 47.8789 76.8555 47.9492 76.4688C48.0312 76.082 48.0723 75.4785 48.0723 74.6582V66.9941C48.0723 66.2441 48.0605 65.6406 48.0371 65.1836C48.0137 64.7266 47.9316 64.3633 47.791 64.0938C47.6504 63.8125 47.4336 63.6074 47.1406 63.4785C46.8594 63.3379 46.4551 63.2207 45.9277 63.127V62.1953L50.0234 62.0371H51.0957V74.6055C51.0957 75.6133 51.1426 76.3164 51.2363 76.7148C51.3301 77.1016 51.5059 77.4004 51.7637 77.6113C52.0332 77.8105 52.4668 77.9863 53.0645 78.1387V79H46.1738V78.1387ZM73.3145 79H66.3887V78.1387C66.8457 77.998 67.1738 77.875 67.373 77.7695C67.5723 77.6641 67.7363 77.5176 67.8652 77.3301C68.0059 77.1426 68.1113 76.8555 68.1816 76.4688C68.2637 76.0703 68.3047 75.4727 68.3047 74.6758V70.0703C68.3047 69.25 68.2812 68.5059 68.2344 67.8379C68.1875 67.1699 68.1055 66.625 67.9883 66.2031C67.8828 65.7695 67.748 65.4355 67.584 65.2012C67.4316 64.9551 67.2441 64.75 67.0215 64.5859C66.8105 64.4102 66.5645 64.2754 66.2832 64.1816C66.002 64.0762 65.6328 64.0234 65.1758 64.0234C64.7188 64.0234 64.2852 64.1172 63.875 64.3047C63.4648 64.4805 63.0137 64.791 62.5215 65.2363C62.0293 65.6816 61.6719 66.1211 61.4492 66.5547C61.2266 66.9883 61.1152 67.4863 61.1152 68.0488V74.6055C61.1152 75.6133 61.1621 76.3164 61.2559 76.7148C61.3496 77.1016 61.5254 77.4004 61.7832 77.6113C62.0527 77.8105 62.4863 77.9863 63.084 78.1387V79H56.1934V78.1387C56.6504 77.998 56.9727 77.875 57.1602 77.7695C57.3594 77.6641 57.5234 77.5176 57.6523 77.3301C57.793 77.1426 57.8984 76.8555 57.9688 76.4688C58.0508 76.082 58.0918 75.4785 58.0918 74.6582V66.9941C58.0918 66.2441 58.0801 65.6406 58.0566 65.1836C58.0332 64.7266 57.9512 64.3633 57.8105 64.0938C57.6699 63.8125 57.4531 63.6074 57.1602 63.4785C56.8789 63.3379 56.4746 63.2207 55.9473 63.127V62.1953L60.0605 62.0371H61.1328L60.9395 64.9023L61.1855 64.9727C62.0527 64.0938 62.75 63.4668 63.2773 63.0918C63.8164 62.7168 64.3555 62.4297 64.8945 62.2305C65.4453 62.0195 66.0254 61.9141 66.6348 61.9141C67.2676 61.9141 67.8301 61.9902 68.3223 62.1426C68.8262 62.2832 69.2656 62.5059 69.6406 62.8105C70.0273 63.1152 70.3438 63.4961 70.5898 63.9531C70.8359 64.3984 71.0176 64.9375 71.1348 65.5703C71.2637 66.2031 71.3281 67.0059 71.3281 67.9785V74.6055C71.3281 75.4141 71.3516 76 71.3984 76.3633C71.4453 76.7266 71.5273 77.0078 71.6445 77.207C71.7617 77.4062 71.9316 77.5762 72.1543 77.7168C72.377 77.8457 72.7637 77.9863 73.3145 78.1387V79ZM83.4922 62.4414C83.9023 62.4414 84.2129 62.4238 84.4238 62.3887C84.6465 62.3418 84.8223 62.2773 84.9512 62.1953C85.0801 62.1133 85.1855 62.0078 85.2676 61.8789C85.3613 61.75 85.4961 61.4688 85.6719 61.0352H86.8848L86.6387 64.4277H76.3379V63.7598C76.7363 62.9043 77.2754 62.0605 77.9551 61.2285C78.6348 60.3965 79.4316 59.541 80.3457 58.6621C81.4355 57.6191 82.209 56.834 82.666 56.3066C83.123 55.7676 83.4629 55.2637 83.6855 54.7949C83.9082 54.3145 84.0195 53.834 84.0195 53.3535C84.0195 52.5566 83.791 51.9297 83.334 51.4727C82.8887 51.0156 82.2441 50.7871 81.4004 50.7871C80.6738 50.7871 80.0527 50.9805 79.5371 51.3672C79.0332 51.7539 78.6465 52.3223 78.377 53.0723H76.707V50.6992C77.75 50.2773 78.7109 49.9785 79.5898 49.8027C80.4688 49.6152 81.248 49.5215 81.9277 49.5215C82.8535 49.5215 83.6152 49.6211 84.2129 49.8203C84.8223 50.0195 85.3086 50.2832 85.6719 50.6113C86.0352 50.9277 86.2871 51.3027 86.4277 51.7363C86.5801 52.1699 86.6562 52.6152 86.6562 53.0723C86.6562 53.6465 86.5391 54.1855 86.3047 54.6895C86.0703 55.1816 85.6836 55.7207 85.1445 56.3066C84.6172 56.8809 83.6738 57.7832 82.3145 59.0137C80.8613 60.3379 79.8066 61.4805 79.1504 62.4414H83.4922Z" fill="white"/>
<path d="M98.3984 68.8574L100.684 65.957C100.93 65.6406 101.129 65.3359 101.281 65.043C101.434 64.7383 101.51 64.4277 101.51 64.1113C101.51 63.8418 101.41 63.6191 101.211 63.4434C101.012 63.2676 100.701 63.1387 100.279 63.0566V62.1953H106.027V63.0566C105.582 63.1855 105.125 63.4375 104.656 63.8125C104.199 64.1875 103.637 64.791 102.969 65.623L99.3301 70.0879L103.338 75.4844C103.912 76.2578 104.428 76.8496 104.885 77.2598C105.342 77.6699 105.799 77.9629 106.256 78.1387V79H99.1895V78.1387C100.162 78.0215 100.648 77.6582 100.648 77.0488C100.648 76.8027 100.607 76.5684 100.525 76.3457C100.443 76.123 100.291 75.8652 100.068 75.5723L97.5195 72.0215L94.8125 75.5371C94.6133 75.7949 94.4551 76.0352 94.3379 76.2578C94.2324 76.4688 94.1797 76.709 94.1797 76.9785C94.1797 77.2949 94.2852 77.5586 94.4961 77.7695C94.7188 77.9688 95.0645 78.0918 95.5332 78.1387V79H89.6621V78.1387C90.0488 77.998 90.3945 77.8223 90.6992 77.6113C91.0156 77.4004 91.332 77.1309 91.6484 76.8027C91.9766 76.4629 92.4043 75.9707 92.9316 75.3262L96.5879 70.791L92.8438 65.6582C92.3281 64.9551 91.918 64.4453 91.6133 64.1289C91.3086 63.8125 91.0273 63.5723 90.7695 63.4082C90.5117 63.2441 90.2539 63.127 89.9961 63.0566V62.1953H96.8867V63.0566C95.9609 63.1973 95.498 63.5605 95.498 64.1465C95.498 64.416 95.5566 64.6855 95.6738 64.9551C95.8027 65.2246 95.9961 65.5234 96.2539 65.8516L98.3984 68.8574Z" fill="#89B8FF"/>
<path d="M8.47656 9.8418C8.35352 10.8945 7.96387 11.708 7.30762 12.2822C6.65592 12.8519 5.78776 13.1367 4.70312 13.1367C3.52734 13.1367 2.58398 12.7152 1.87305 11.8721C1.16667 11.029 0.813477 9.90104 0.813477 8.48828V7.53125C0.813477 6.60612 0.977539 5.79264 1.30566 5.09082C1.63835 4.389 2.10775 3.85124 2.71387 3.47754C3.31999 3.09928 4.02181 2.91016 4.81934 2.91016C5.87663 2.91016 6.72428 3.20638 7.3623 3.79883C8.00033 4.38672 8.37174 5.20247 8.47656 6.24609H7.15723C7.04329 5.45312 6.79492 4.87891 6.41211 4.52344C6.03385 4.16797 5.50293 3.99023 4.81934 3.99023C3.98079 3.99023 3.32227 4.30013 2.84375 4.91992C2.36979 5.53971 2.13281 6.42155 2.13281 7.56543V8.5293C2.13281 9.60938 2.3584 10.4684 2.80957 11.1064C3.26074 11.7445 3.89193 12.0635 4.70312 12.0635C5.43229 12.0635 5.99056 11.8994 6.37793 11.5713C6.76986 11.2386 7.02962 10.6621 7.15723 9.8418H8.47656ZM9.74121 9.2334C9.74121 8.50879 9.88249 7.8571 10.165 7.27832C10.4521 6.69954 10.8486 6.25293 11.3545 5.93848C11.8649 5.62402 12.446 5.4668 13.0977 5.4668C14.1048 5.4668 14.9183 5.81543 15.5381 6.5127C16.1624 7.20996 16.4746 8.13737 16.4746 9.29492V9.38379C16.4746 10.1038 16.3356 10.751 16.0576 11.3252C15.7842 11.8949 15.39 12.3392 14.875 12.6582C14.3646 12.9772 13.7767 13.1367 13.1113 13.1367C12.1087 13.1367 11.2952 12.7881 10.6709 12.0908C10.0511 11.3936 9.74121 10.4707 9.74121 9.32227V9.2334ZM11.0127 9.38379C11.0127 10.2041 11.2018 10.8626 11.5801 11.3594C11.9629 11.8561 12.4733 12.1045 13.1113 12.1045C13.7539 12.1045 14.2643 11.8538 14.6426 11.3525C15.0208 10.8467 15.21 10.1403 15.21 9.2334C15.21 8.4222 15.0163 7.76595 14.6289 7.26465C14.2461 6.75879 13.7357 6.50586 13.0977 6.50586C12.4733 6.50586 11.9697 6.75423 11.5869 7.25098C11.2041 7.74772 11.0127 8.45866 11.0127 9.38379ZM19.7764 3.8125V5.60352H21.1572V6.58105H19.7764V11.168C19.7764 11.4642 19.8379 11.6875 19.9609 11.8379C20.084 11.9837 20.2936 12.0566 20.5898 12.0566C20.7357 12.0566 20.9362 12.0293 21.1914 11.9746V13C20.8587 13.0911 20.5352 13.1367 20.2207 13.1367C19.6556 13.1367 19.2295 12.9658 18.9424 12.624C18.6553 12.2822 18.5117 11.7969 18.5117 11.168V6.58105H17.165V5.60352H18.5117V3.8125H19.7764ZM27.207 13C27.1341 12.8542 27.0749 12.5944 27.0293 12.2207C26.4414 12.8314 25.7396 13.1367 24.9238 13.1367C24.1947 13.1367 23.5954 12.9316 23.126 12.5215C22.6611 12.1068 22.4287 11.5827 22.4287 10.9492C22.4287 10.179 22.7204 9.58203 23.3037 9.1582C23.8916 8.72982 24.7165 8.51562 25.7783 8.51562H27.0088V7.93457C27.0088 7.49251 26.8766 7.1416 26.6123 6.88184C26.348 6.61751 25.9583 6.48535 25.4434 6.48535C24.9922 6.48535 24.6139 6.59928 24.3086 6.82715C24.0033 7.05501 23.8506 7.33073 23.8506 7.6543H22.5791C22.5791 7.28516 22.709 6.92969 22.9688 6.58789C23.2331 6.24154 23.5885 5.9681 24.0352 5.76758C24.4863 5.56706 24.9808 5.4668 25.5186 5.4668C26.3708 5.4668 27.0384 5.68099 27.5215 6.10938C28.0046 6.5332 28.2552 7.11882 28.2734 7.86621V11.2705C28.2734 11.9495 28.36 12.4896 28.5332 12.8906V13H27.207ZM25.1084 12.0361C25.5049 12.0361 25.8809 11.9336 26.2363 11.7285C26.5918 11.5234 26.8493 11.2568 27.0088 10.9287V9.41113H26.0176C24.4681 9.41113 23.6934 9.86458 23.6934 10.7715C23.6934 11.168 23.8255 11.4779 24.0898 11.7012C24.3542 11.9245 24.6937 12.0361 25.1084 12.0361ZM31.4521 5.60352L31.4932 6.5332C32.0583 5.82227 32.7965 5.4668 33.708 5.4668C35.2712 5.4668 36.0596 6.34863 36.0732 8.1123V13H34.8086V8.10547C34.804 7.57227 34.681 7.17806 34.4395 6.92285C34.2025 6.66764 33.8311 6.54004 33.3252 6.54004C32.915 6.54004 32.555 6.64941 32.2451 6.86816C31.9352 7.08691 31.6937 7.37402 31.5205 7.72949V13H30.2559V5.60352H31.4521ZM37.6797 9.24023C37.6797 8.08724 37.9463 7.17122 38.4795 6.49219C39.0127 5.80859 39.7191 5.4668 40.5986 5.4668C41.501 5.4668 42.2051 5.78581 42.7109 6.42383L42.7725 5.60352H43.9277V12.8223C43.9277 13.7793 43.6429 14.5335 43.0732 15.085C42.5081 15.6364 41.7471 15.9121 40.79 15.9121C40.2568 15.9121 39.735 15.7982 39.2246 15.5703C38.7142 15.3424 38.3245 15.0303 38.0557 14.6338L38.7119 13.875C39.2542 14.5449 39.9173 14.8799 40.7012 14.8799C41.3164 14.8799 41.7949 14.7067 42.1367 14.3604C42.4831 14.014 42.6562 13.5264 42.6562 12.8975V12.2617C42.1504 12.8451 41.46 13.1367 40.585 13.1367C39.7191 13.1367 39.0173 12.7881 38.4795 12.0908C37.9463 11.3936 37.6797 10.4434 37.6797 9.24023ZM38.9512 9.38379C38.9512 10.2178 39.1221 10.874 39.4639 11.3525C39.8057 11.8265 40.2842 12.0635 40.8994 12.0635C41.6969 12.0635 42.2826 11.7012 42.6562 10.9766V7.59961C42.2689 6.89323 41.6878 6.54004 40.9131 6.54004C40.2979 6.54004 39.8171 6.7793 39.4707 7.25781C39.1243 7.73633 38.9512 8.44499 38.9512 9.38379ZM48.9111 13.1367C47.9085 13.1367 47.0928 12.8086 46.4639 12.1523C45.835 11.4915 45.5205 10.6097 45.5205 9.50684V9.27441C45.5205 8.54069 45.6595 7.88672 45.9375 7.3125C46.2201 6.73372 46.612 6.28255 47.1133 5.95898C47.6191 5.63086 48.166 5.4668 48.7539 5.4668C49.7155 5.4668 50.4629 5.78353 50.9961 6.41699C51.5293 7.05046 51.7959 7.95736 51.7959 9.1377V9.66406H46.7852C46.8034 10.3932 47.0153 10.9834 47.4209 11.4346C47.8311 11.8812 48.3506 12.1045 48.9795 12.1045C49.4261 12.1045 49.8044 12.0133 50.1143 11.8311C50.4242 11.6488 50.6953 11.4072 50.9277 11.1064L51.7002 11.708C51.0804 12.6605 50.1507 13.1367 48.9111 13.1367ZM48.7539 6.50586C48.2435 6.50586 47.8151 6.69271 47.4688 7.06641C47.1224 7.43555 46.9082 7.95508 46.8262 8.625H50.5312V8.5293C50.4948 7.88672 50.3216 7.38997 50.0117 7.03906C49.7018 6.68359 49.2826 6.50586 48.7539 6.50586ZM54.4619 5.60352L54.5029 6.5332C55.068 5.82227 55.8063 5.4668 56.7178 5.4668C58.2809 5.4668 59.0693 6.34863 59.083 8.1123V13H57.8184V8.10547C57.8138 7.57227 57.6908 7.17806 57.4492 6.92285C57.2122 6.66764 56.8408 6.54004 56.335 6.54004C55.9248 6.54004 55.5648 6.64941 55.2549 6.86816C54.945 7.08691 54.7035 7.37402 54.5303 7.72949V13H53.2656V5.60352H54.4619ZM62.7061 3.8125V5.60352H64.0869V6.58105H62.7061V11.168C62.7061 11.4642 62.7676 11.6875 62.8906 11.8379C63.0137 11.9837 63.2233 12.0566 63.5195 12.0566C63.6654 12.0566 63.8659 12.0293 64.1211 11.9746V13C63.7884 13.0911 63.4648 13.1367 63.1504 13.1367C62.5853 13.1367 62.1592 12.9658 61.8721 12.624C61.585 12.2822 61.4414 11.7969 61.4414 11.168V6.58105H60.0947V5.60352H61.4414V3.8125H62.7061ZM68.6396 13.1367C67.637 13.1367 66.8213 12.8086 66.1924 12.1523C65.5635 11.4915 65.249 10.6097 65.249 9.50684V9.27441C65.249 8.54069 65.388 7.88672 65.666 7.3125C65.9486 6.73372 66.3405 6.28255 66.8418 5.95898C67.3477 5.63086 67.8945 5.4668 68.4824 5.4668C69.444 5.4668 70.1914 5.78353 70.7246 6.41699C71.2578 7.05046 71.5244 7.95736 71.5244 9.1377V9.66406H66.5137C66.5319 10.3932 66.7438 10.9834 67.1494 11.4346C67.5596 11.8812 68.0791 12.1045 68.708 12.1045C69.1546 12.1045 69.5329 12.0133 69.8428 11.8311C70.1527 11.6488 70.4238 11.4072 70.6562 11.1064L71.4287 11.708C70.8089 12.6605 69.8792 13.1367 68.6396 13.1367ZM68.4824 6.50586C67.972 6.50586 67.5436 6.69271 67.1973 7.06641C66.8509 7.43555 66.6367 7.95508 66.5547 8.625H70.2598V8.5293C70.2233 7.88672 70.0501 7.38997 69.7402 7.03906C69.4303 6.68359 69.0111 6.50586 68.4824 6.50586Z" fill="#41D17A"/>
</svg>
