<svg width="389" height="97" viewBox="0 0 389 97" fill="none" xmlns="http://www.w3.org/2000/svg">
<path d="M20.5273 32.4199H18.7168C18.623 31.9043 18.4355 31.4824 18.1543 31.1543C17.873 30.8145 17.498 30.6445 17.0293 30.6445C15.7754 30.6445 14.9492 31.6641 14.5508 33.7031C14.1641 35.7305 13.9707 40.3887 13.9707 47.6777C13.9707 53.7246 13.4141 58.5234 12.3008 62.0742C11.1992 65.625 9.24805 67.4004 6.44727 67.4004C5.88477 67.4004 5.39258 67.3535 4.9707 67.2598C4.54883 67.166 4.13867 67.0137 3.74023 66.8027L3.96875 63.3398H5.62109C5.77344 63.9023 5.99609 64.3652 6.28906 64.7285C6.59375 65.0918 7.02148 65.2734 7.57227 65.2734C8.80273 65.2734 9.57617 63.9961 9.89258 61.4414C10.209 58.8984 10.3672 55.1836 10.3672 50.2969C10.3672 42.6797 10.9414 37.1309 12.0898 33.6504C13.25 30.1699 15.2539 28.4297 18.1016 28.4297C18.5117 28.4297 18.9629 28.4883 19.4551 28.6055C19.959 28.7109 20.3867 28.8457 20.7383 29.0098L20.5273 32.4199ZM139.988 40.8926C139.988 39.7676 139.977 38.9824 139.953 38.5371C139.941 38.0918 139.895 37.7168 139.812 37.4121C139.742 37.0957 139.637 36.8496 139.496 36.6738C139.367 36.498 139.186 36.3574 138.951 36.252C138.729 36.1465 138.318 36.041 137.721 35.9355V35.0215L141.975 34.8457H143.012V55.2012C143.012 56.1152 143.029 56.7715 143.064 57.1699C143.1 57.5566 143.176 57.8672 143.293 58.1016C143.41 58.3359 143.592 58.5293 143.838 58.6816C144.096 58.8223 144.541 58.957 145.174 59.0859V60L141.025 60.1758H139.971L140.182 57.293L139.918 57.2227C139.18 58.0078 138.535 58.5996 137.984 58.998C137.445 59.3848 136.865 59.6953 136.244 59.9297C135.635 60.1641 134.979 60.2812 134.275 60.2812C132.354 60.2812 130.871 59.5547 129.828 58.1016C128.785 56.6367 128.264 54.5273 128.264 51.7734C128.264 49.8516 128.604 48.2227 129.283 46.8867C129.963 45.5391 130.877 44.5371 132.025 43.8809C133.186 43.2246 134.486 42.8965 135.928 42.8965C136.701 42.8965 137.404 42.9609 138.037 43.0898C138.67 43.207 139.32 43.4062 139.988 43.6875V40.8926ZM139.988 49.5762C139.988 48.6621 139.947 47.9297 139.865 47.3789C139.783 46.8281 139.643 46.3652 139.443 45.9902C139.256 45.6152 138.998 45.2988 138.67 45.041C138.342 44.7832 137.979 44.5957 137.58 44.4785C137.193 44.3613 136.725 44.3027 136.174 44.3027C134.674 44.3027 133.531 44.9062 132.746 46.1133C131.961 47.3086 131.568 49.0312 131.568 51.2812C131.568 53.5312 131.891 55.2422 132.535 56.4141C133.18 57.5859 134.158 58.1719 135.471 58.1719C135.986 58.1719 136.414 58.1309 136.754 58.0488C137.094 57.9551 137.428 57.8145 137.756 57.627C138.084 57.4277 138.418 57.1582 138.758 56.8184C139.098 56.4785 139.344 56.168 139.496 55.8867C139.66 55.6055 139.783 55.2832 139.865 54.9199C139.947 54.5566 139.988 54.0879 139.988 53.5137V49.5762ZM155.527 49.8574L157.812 46.957C158.059 46.6406 158.258 46.3359 158.41 46.043C158.562 45.7383 158.639 45.4277 158.639 45.1113C158.639 44.8418 158.539 44.6191 158.34 44.4434C158.141 44.2676 157.83 44.1387 157.408 44.0566V43.1953H163.156V44.0566C162.711 44.1855 162.254 44.4375 161.785 44.8125C161.328 45.1875 160.766 45.791 160.098 46.623L156.459 51.0879L160.467 56.4844C161.041 57.2578 161.557 57.8496 162.014 58.2598C162.471 58.6699 162.928 58.9629 163.385 59.1387V60H156.318V59.1387C157.291 59.0215 157.777 58.6582 157.777 58.0488C157.777 57.8027 157.736 57.5684 157.654 57.3457C157.572 57.123 157.42 56.8652 157.197 56.5723L154.648 53.0215L151.941 56.5371C151.742 56.7949 151.584 57.0352 151.467 57.2578C151.361 57.4688 151.309 57.709 151.309 57.9785C151.309 58.2949 151.414 58.5586 151.625 58.7695C151.848 58.9688 152.193 59.0918 152.662 59.1387V60H146.791V59.1387C147.178 58.998 147.523 58.8223 147.828 58.6113C148.145 58.4004 148.461 58.1309 148.777 57.8027C149.105 57.4629 149.533 56.9707 150.061 56.3262L153.717 51.791L149.973 46.6582C149.457 45.9551 149.047 45.4453 148.742 45.1289C148.438 44.8125 148.156 44.5723 147.898 44.4082C147.641 44.2441 147.383 44.127 147.125 44.0566V43.1953H154.016V44.0566C153.09 44.1973 152.627 44.5605 152.627 45.1465C152.627 45.416 152.686 45.6855 152.803 45.9551C152.932 46.2246 153.125 46.5234 153.383 46.8516L155.527 49.8574ZM174.354 47.2383V44.9004H196.01V47.2383H174.354ZM174.354 54.5332V52.1953H196.01V54.5332H174.354ZM218.439 57.4863L218.176 57.416C217.156 58.459 216.195 59.1973 215.293 59.6309C214.402 60.0645 213.453 60.2812 212.445 60.2812C211.555 60.2812 210.77 60.1113 210.09 59.7715C209.41 59.4199 208.889 58.9336 208.525 58.3125C208.162 57.6797 207.98 56.9531 207.98 56.1328C207.98 54.4219 208.824 53.1035 210.512 52.1777C212.211 51.2402 214.754 50.6953 218.141 50.543V49.4004C218.141 48.1816 218.023 47.2207 217.789 46.5176C217.555 45.8145 217.186 45.2988 216.682 44.9707C216.178 44.6426 215.504 44.4785 214.66 44.4785C213.746 44.4785 213.008 44.7188 212.445 45.1992C211.895 45.6797 211.479 46.4004 211.197 47.3613H208.895V45.0762C210.02 44.4902 210.957 44.0625 211.707 43.793C212.457 43.5117 213.207 43.2949 213.957 43.1426C214.707 42.9785 215.469 42.8965 216.242 42.8965C217.402 42.8965 218.334 43.084 219.037 43.459C219.74 43.8223 220.268 44.3848 220.619 45.1465C220.971 45.9082 221.146 47.0566 221.146 48.5918V54.709C221.146 55.5762 221.152 56.1914 221.164 56.5547C221.176 56.9062 221.211 57.2344 221.27 57.5391C221.328 57.8438 221.416 58.0898 221.533 58.2773C221.65 58.4531 221.82 58.6055 222.043 58.7344C222.277 58.8633 222.652 58.998 223.168 59.1387V60H218.352L218.439 57.4863ZM218.141 51.9844C215.762 52.0078 213.98 52.3242 212.797 52.9336C211.613 53.543 211.021 54.4629 211.021 55.6934C211.021 56.3613 211.156 56.8887 211.426 57.2754C211.695 57.6621 212.035 57.9316 212.445 58.084C212.855 58.2246 213.342 58.2949 213.904 58.2949C214.701 58.2949 215.422 58.1016 216.066 57.7148C216.723 57.3281 217.232 56.8359 217.596 56.2383C217.959 55.6406 218.141 55.0488 218.141 54.4629V51.9844ZM230.604 46.1133L230.85 46.166C231.494 45.3809 232.092 44.7656 232.643 44.3203C233.193 43.8633 233.785 43.5117 234.418 43.2656C235.062 43.0195 235.789 42.8965 236.598 42.8965C237.277 42.8965 237.893 42.9316 238.443 43.002V47.0449H236.457C236.176 46.4121 235.877 45.9551 235.561 45.6738C235.244 45.3809 234.811 45.2344 234.26 45.2344C233.838 45.2344 233.416 45.3574 232.994 45.6035C232.584 45.8496 232.186 46.207 231.799 46.6758C231.412 47.1445 231.143 47.584 230.99 47.9941C230.85 48.4043 230.779 48.8906 230.779 49.4531V55.6055C230.779 56.6719 230.844 57.4102 230.973 57.8203C231.102 58.2188 231.312 58.5117 231.605 58.6992C231.91 58.8867 232.361 59.0332 232.959 59.1387V60H225.875V59.1387C226.32 58.998 226.637 58.875 226.824 58.7695C227.023 58.6641 227.193 58.5176 227.334 58.3301C227.475 58.1426 227.58 57.8555 227.65 57.4688C227.721 57.082 227.756 56.4785 227.756 55.6582V47.9941C227.756 47.2441 227.744 46.6406 227.721 46.1836C227.697 45.7266 227.615 45.3633 227.475 45.0938C227.334 44.8125 227.117 44.6074 226.824 44.4785C226.543 44.3379 226.139 44.2207 225.611 44.127V43.2129L229.725 43.0371H230.797L230.604 46.1133ZM253.332 43.5996V47.2734H251.1C250.9 46.5117 250.654 45.9141 250.361 45.4805C250.068 45.0352 249.729 44.7246 249.342 44.5488C248.955 44.373 248.475 44.2852 247.9 44.2852C247.08 44.2852 246.354 44.5488 245.721 45.0762C245.088 45.6035 244.584 46.4062 244.209 47.4844C243.846 48.5625 243.664 49.8809 243.664 51.4395C243.664 52.4355 243.734 53.3496 243.875 54.1816C244.016 55.002 244.256 55.7051 244.596 56.291C244.936 56.877 245.387 57.334 245.949 57.6621C246.512 57.9902 247.209 58.1543 248.041 58.1543C248.85 58.1543 249.6 57.9961 250.291 57.6797C250.994 57.3633 251.721 56.8066 252.471 56.0098L253.473 57.1699C252.875 57.8262 252.348 58.3359 251.891 58.6992C251.434 59.0508 250.941 59.3496 250.414 59.5957C249.898 59.8301 249.383 60 248.867 60.1055C248.363 60.2227 247.812 60.2812 247.215 60.2812C245 60.2812 243.307 59.5488 242.135 58.084C240.963 56.6074 240.377 54.4805 240.377 51.7031C240.377 49.9688 240.705 48.4336 241.361 47.0977C242.018 45.75 242.938 44.7129 244.121 43.9863C245.305 43.2598 246.67 42.8965 248.217 42.8965C249.178 42.8965 250.062 42.9551 250.871 43.0723C251.691 43.1777 252.512 43.3535 253.332 43.5996ZM267.904 47.0449H266.217C265.959 46.3418 265.654 45.791 265.303 45.3926C264.951 44.9824 264.553 44.6953 264.107 44.5312C263.662 44.3672 263.117 44.2852 262.473 44.2852C261.535 44.2852 260.785 44.5078 260.223 44.9531C259.672 45.3867 259.396 45.9844 259.396 46.7461C259.396 47.2852 259.508 47.7305 259.73 48.082C259.953 48.4336 260.299 48.7617 260.768 49.0664C261.236 49.3711 262.062 49.7754 263.246 50.2793C264.441 50.7949 265.361 51.2695 266.006 51.7031C266.662 52.1367 267.172 52.6406 267.535 53.2148C267.91 53.7891 268.098 54.4746 268.098 55.2715C268.098 56.1973 267.939 56.9766 267.623 57.6094C267.307 58.2422 266.861 58.7578 266.287 59.1562C265.713 59.5547 265.027 59.8418 264.23 60.0176C263.445 60.1934 262.584 60.2812 261.646 60.2812C260.662 60.2812 259.707 60.2051 258.781 60.0527C257.855 59.9121 256.953 59.7246 256.074 59.4902V55.8164H257.797C258.113 56.8945 258.582 57.6797 259.203 58.1719C259.824 58.6523 260.68 58.8926 261.77 58.8926C262.191 58.8926 262.602 58.8516 263 58.7695C263.41 58.6758 263.773 58.5293 264.09 58.3301C264.406 58.1191 264.658 57.8379 264.846 57.4863C265.033 57.1348 265.127 56.6953 265.127 56.168C265.127 55.5703 265.01 55.084 264.775 54.709C264.541 54.334 264.178 53.9941 263.686 53.6895C263.193 53.373 262.326 52.9512 261.084 52.4238C260.018 51.9785 259.162 51.5449 258.518 51.123C257.873 50.7012 257.363 50.2031 256.988 49.6289C256.625 49.0547 256.443 48.375 256.443 47.5898C256.443 46.6289 256.701 45.7969 257.217 45.0938C257.744 44.3789 258.5 43.834 259.484 43.459C260.469 43.084 261.623 42.8965 262.947 42.8965C263.721 42.8965 264.465 42.9375 265.18 43.0195C265.906 43.0898 266.814 43.2363 267.904 43.459V47.0449ZM285.641 57.0117C284.891 57.7969 284.199 58.4121 283.566 58.8574C282.945 59.3027 282.26 59.6543 281.51 59.9121C280.76 60.1582 279.934 60.2812 279.031 60.2812C276.617 60.2812 274.795 59.5605 273.564 58.1191C272.334 56.666 271.719 54.5273 271.719 51.7031C271.719 49.957 272.029 48.416 272.65 47.0801C273.283 45.7441 274.18 44.7129 275.34 43.9863C276.5 43.2598 277.836 42.8965 279.348 42.8965C280.531 42.8965 281.539 43.084 282.371 43.459C283.203 43.834 283.865 44.3496 284.357 45.0059C284.861 45.6504 285.248 46.4707 285.518 47.4668C285.799 48.4512 285.957 49.7402 285.992 51.334H274.918V51.6504C274.918 53.0332 275.07 54.1992 275.375 55.1484C275.691 56.0859 276.201 56.8242 276.904 57.3633C277.619 57.8906 278.545 58.1543 279.682 58.1543C280.643 58.1543 281.504 57.9785 282.266 57.627C283.039 57.2637 283.807 56.6777 284.568 55.8691L285.641 57.0117ZM282.688 49.875C282.617 48.6094 282.459 47.5781 282.213 46.7812C281.967 45.9727 281.598 45.3574 281.105 44.9355C280.613 44.502 279.969 44.2852 279.172 44.2852C277.965 44.2852 276.998 44.7715 276.271 45.7441C275.557 46.7051 275.135 48.082 275.006 49.875H282.688ZM306.295 60H299.369V59.1387C299.826 58.998 300.154 58.875 300.354 58.7695C300.553 58.6641 300.717 58.5176 300.846 58.3301C300.986 58.1426 301.092 57.8555 301.162 57.4688C301.244 57.0703 301.285 56.4727 301.285 55.6758V51.0703C301.285 50.25 301.262 49.5059 301.215 48.8379C301.168 48.1699 301.086 47.625 300.969 47.2031C300.863 46.7695 300.729 46.4355 300.564 46.2012C300.412 45.9551 300.225 45.75 300.002 45.5859C299.791 45.4102 299.545 45.2754 299.264 45.1816C298.982 45.0762 298.613 45.0234 298.156 45.0234C297.699 45.0234 297.266 45.1172 296.855 45.3047C296.445 45.4805 295.994 45.791 295.502 46.2363C295.01 46.6816 294.652 47.1211 294.43 47.5547C294.207 47.9883 294.096 48.4863 294.096 49.0488V55.6055C294.096 56.6133 294.143 57.3164 294.236 57.7148C294.33 58.1016 294.506 58.4004 294.764 58.6113C295.033 58.8105 295.467 58.9863 296.064 59.1387V60H289.174V59.1387C289.631 58.998 289.953 58.875 290.141 58.7695C290.34 58.6641 290.504 58.5176 290.633 58.3301C290.773 58.1426 290.879 57.8555 290.949 57.4688C291.031 57.082 291.072 56.4785 291.072 55.6582V47.9941C291.072 47.2441 291.061 46.6406 291.037 46.1836C291.014 45.7266 290.932 45.3633 290.791 45.0938C290.65 44.8125 290.434 44.6074 290.141 44.4785C289.859 44.3379 289.455 44.2207 288.928 44.127V43.1953L293.041 43.0371H294.113L293.92 45.9023L294.166 45.9727C295.033 45.0938 295.73 44.4668 296.258 44.0918C296.797 43.7168 297.336 43.4297 297.875 43.2305C298.426 43.0195 299.006 42.9141 299.615 42.9141C300.248 42.9141 300.811 42.9902 301.303 43.1426C301.807 43.2832 302.246 43.5059 302.621 43.8105C303.008 44.1152 303.324 44.4961 303.57 44.9531C303.816 45.3984 303.998 45.9375 304.115 46.5703C304.244 47.2031 304.309 48.0059 304.309 48.9785V55.6055C304.309 56.4141 304.332 57 304.379 57.3633C304.426 57.7266 304.508 58.0078 304.625 58.207C304.742 58.4062 304.912 58.5762 305.135 58.7168C305.357 58.8457 305.744 58.9863 306.295 59.1387V60ZM347.621 50.877V61.002H345.125V50.877H335.545V48.5391H345.125V38.4141H347.621V48.5391H357.201V50.877H347.621ZM386.082 36.5156V41.3848H384.342C384.061 40.3652 383.703 39.5566 383.27 38.959C382.836 38.3496 382.332 37.916 381.758 37.6582C381.184 37.4004 380.492 37.2715 379.684 37.2715C378.477 37.2715 377.398 37.6758 376.449 38.4844C375.512 39.2812 374.773 40.4883 374.234 42.1055C373.695 43.7109 373.426 45.6562 373.426 47.9414C373.426 50.2383 373.648 52.2012 374.094 53.8301C374.539 55.4473 375.195 56.6719 376.062 57.5039C376.93 58.3242 377.996 58.7344 379.262 58.7344C380.223 58.7344 381.008 58.5996 381.617 58.3301C382.227 58.0488 382.736 57.6094 383.146 57.0117C383.568 56.4141 383.967 55.5352 384.342 54.375H386.082V59.4023C384.98 59.6953 383.85 59.9121 382.689 60.0527C381.541 60.2051 380.275 60.2812 378.893 60.2812C375.916 60.2812 373.666 59.2734 372.143 57.2578C370.619 55.2422 369.857 52.2363 369.857 48.2402C369.857 45.7324 370.25 43.5352 371.035 41.6484C371.832 39.7617 372.998 38.3027 374.533 37.2715C376.068 36.2402 377.902 35.7246 380.035 35.7246C381.102 35.7246 382.086 35.7832 382.988 35.9004C383.891 36.0059 384.922 36.2109 386.082 36.5156Z" fill="white"/>
<path d="M316.719 49.8574L319.004 46.957C319.25 46.6406 319.449 46.3359 319.602 46.043C319.754 45.7383 319.83 45.4277 319.83 45.1113C319.83 44.8418 319.73 44.6191 319.531 44.4434C319.332 44.2676 319.021 44.1387 318.6 44.0566V43.1953H324.348V44.0566C323.902 44.1855 323.445 44.4375 322.977 44.8125C322.52 45.1875 321.957 45.791 321.289 46.623L317.65 51.0879L321.658 56.4844C322.232 57.2578 322.748 57.8496 323.205 58.2598C323.662 58.6699 324.119 58.9629 324.576 59.1387V60H317.51V59.1387C318.482 59.0215 318.969 58.6582 318.969 58.0488C318.969 57.8027 318.928 57.5684 318.846 57.3457C318.764 57.123 318.611 56.8652 318.389 56.5723L315.84 53.0215L313.133 56.5371C312.934 56.7949 312.775 57.0352 312.658 57.2578C312.553 57.4688 312.5 57.709 312.5 57.9785C312.5 58.2949 312.605 58.5586 312.816 58.7695C313.039 58.9688 313.385 59.0918 313.854 59.1387V60H307.982V59.1387C308.369 58.998 308.715 58.8223 309.02 58.6113C309.336 58.4004 309.652 58.1309 309.969 57.8027C310.297 57.4629 310.725 56.9707 311.252 56.3262L314.908 51.791L311.164 46.6582C310.648 45.9551 310.238 45.4453 309.934 45.1289C309.629 44.8125 309.348 44.5723 309.09 44.4082C308.832 44.2441 308.574 44.127 308.316 44.0566V43.1953H315.207V44.0566C314.281 44.1973 313.818 44.5605 313.818 45.1465C313.818 45.416 313.877 45.6855 313.994 45.9551C314.123 46.2246 314.316 46.5234 314.574 46.8516L316.719 49.8574Z" fill="#89B8FF"/>
<line x1="18" y1="49" x2="118" y2="49" stroke="white" stroke-width="2"/>
<path d="M70.2168 34.4121C70.2168 35.0918 70.252 35.6074 70.3223 35.959C70.4043 36.2988 70.5391 36.5801 70.7266 36.8027C70.9258 37.0137 71.207 37.1836 71.5703 37.3125C71.9336 37.4297 72.3906 37.5234 72.9414 37.5938C73.4922 37.6523 74.2188 37.6934 75.1211 37.7168V39H62.1309V37.7168C63.4316 37.6582 64.3574 37.582 64.9082 37.4883C65.4707 37.3828 65.8984 37.2305 66.1914 37.0312C66.4844 36.832 66.6953 36.5508 66.8242 36.1875C66.9648 35.8242 67.0352 35.2324 67.0352 34.4121V20.1562C67.0352 19.6875 66.9531 19.3477 66.7891 19.1367C66.625 18.9141 66.3848 18.8027 66.0684 18.8027C65.6934 18.8027 65.1602 18.9961 64.4688 19.3828C63.7773 19.7695 62.9219 20.3027 61.9023 20.9824L61.1289 19.6289L69.3555 14.7246H70.3223C70.252 15.8496 70.2168 17.4082 70.2168 19.4004V34.4121Z" fill="white"/>
<path d="M22.3809 69.2129L28.5859 82.8535L37.2695 52.8477H41.752V55.1855H38.5703L29.1133 87.4941H27.4082L20.1309 71.8496L17.1602 73.168L16.6152 71.8496L22.3809 69.2129ZM51.877 81.4121C51.877 82.0918 51.9121 82.6074 51.9824 82.959C52.0645 83.2988 52.1992 83.5801 52.3867 83.8027C52.5859 84.0137 52.8672 84.1836 53.2305 84.3125C53.5938 84.4297 54.0508 84.5234 54.6016 84.5938C55.1523 84.6523 55.8789 84.6934 56.7812 84.7168V86H43.791V84.7168C45.0918 84.6582 46.0176 84.582 46.5684 84.4883C47.1309 84.3828 47.5586 84.2305 47.8516 84.0312C48.1445 83.832 48.3555 83.5508 48.4844 83.1875C48.625 82.8242 48.6953 82.2324 48.6953 81.4121V67.1562C48.6953 66.6875 48.6133 66.3477 48.4492 66.1367C48.2852 65.9141 48.0449 65.8027 47.7285 65.8027C47.3535 65.8027 46.8203 65.9961 46.1289 66.3828C45.4375 66.7695 44.582 67.3027 43.5625 67.9824L42.7891 66.6289L51.0156 61.7246H51.9824C51.9121 62.8496 51.877 64.4082 51.877 66.4004V81.4121ZM77.5938 78.1074H69.4375V75.3828H77.5938V78.1074ZM113.734 69.4414C114.145 69.4414 114.455 69.4238 114.666 69.3887C114.889 69.3418 115.064 69.2773 115.193 69.1953C115.322 69.1133 115.428 69.0078 115.51 68.8789C115.604 68.75 115.738 68.4688 115.914 68.0352H117.127L116.881 71.4277H106.58V70.7598C106.979 69.9043 107.518 69.0605 108.197 68.2285C108.877 67.3965 109.674 66.541 110.588 65.6621C111.678 64.6191 112.451 63.834 112.908 63.3066C113.365 62.7676 113.705 62.2637 113.928 61.7949C114.15 61.3145 114.262 60.834 114.262 60.3535C114.262 59.5566 114.033 58.9297 113.576 58.4727C113.131 58.0156 112.486 57.7871 111.643 57.7871C110.916 57.7871 110.295 57.9805 109.779 58.3672C109.275 58.7539 108.889 59.3223 108.619 60.0723H106.949V57.6992C107.992 57.2773 108.953 56.9785 109.832 56.8027C110.711 56.6152 111.49 56.5215 112.17 56.5215C113.096 56.5215 113.857 56.6211 114.455 56.8203C115.064 57.0195 115.551 57.2832 115.914 57.6113C116.277 57.9277 116.529 58.3027 116.67 58.7363C116.822 59.1699 116.898 59.6152 116.898 60.0723C116.898 60.6465 116.781 61.1855 116.547 61.6895C116.312 62.1816 115.926 62.7207 115.387 63.3066C114.859 63.8809 113.916 64.7832 112.557 66.0137C111.104 67.3379 110.049 68.4805 109.393 69.4414H113.734Z" fill="white"/>
<path d="M96.5781 75.8574L98.8633 72.957C99.1094 72.6406 99.3086 72.3359 99.4609 72.043C99.6133 71.7383 99.6895 71.4277 99.6895 71.1113C99.6895 70.8418 99.5898 70.6191 99.3906 70.4434C99.1914 70.2676 98.8809 70.1387 98.459 70.0566V69.1953H104.207V70.0566C103.762 70.1855 103.305 70.4375 102.836 70.8125C102.379 71.1875 101.816 71.791 101.148 72.623L97.5098 77.0879L101.518 82.4844C102.092 83.2578 102.607 83.8496 103.064 84.2598C103.521 84.6699 103.979 84.9629 104.436 85.1387V86H97.3691V85.1387C98.3418 85.0215 98.8281 84.6582 98.8281 84.0488C98.8281 83.8027 98.7871 83.5684 98.7051 83.3457C98.623 83.123 98.4707 82.8652 98.248 82.5723L95.6992 79.0215L92.9922 82.5371C92.793 82.7949 92.6348 83.0352 92.5176 83.2578C92.4121 83.4688 92.3594 83.709 92.3594 83.9785C92.3594 84.2949 92.4648 84.5586 92.6758 84.7695C92.8984 84.9688 93.2441 85.0918 93.7129 85.1387V86H87.8418V85.1387C88.2285 84.998 88.5742 84.8223 88.8789 84.6113C89.1953 84.4004 89.5117 84.1309 89.8281 83.8027C90.1562 83.4629 90.584 82.9707 91.1113 82.3262L94.7676 77.791L91.0234 72.6582C90.5078 71.9551 90.0977 71.4453 89.793 71.1289C89.4883 70.8125 89.207 70.5723 88.9492 70.4082C88.6914 70.2441 88.4336 70.127 88.1758 70.0566V69.1953H95.0664V70.0566C94.1406 70.1973 93.6777 70.5605 93.6777 71.1465C93.6777 71.416 93.7363 71.6855 93.8535 71.9551C93.9824 72.2246 94.1758 72.5234 94.4336 72.8516L96.5781 75.8574Z" fill="#89B8FF"/>
<path d="M6.65137 10.4023H2.48145L1.54492 13H0.191406L3.99219 3.04688H5.14062L8.94824 13H7.60156L6.65137 10.4023ZM2.87793 9.32227H6.26172L4.56641 4.66699L2.87793 9.32227ZM13.665 6.73828C13.4736 6.70638 13.2663 6.69043 13.043 6.69043C12.2135 6.69043 11.6507 7.04362 11.3545 7.75V13H10.0898V5.60352H11.3203L11.3408 6.45801C11.7555 5.7972 12.3434 5.4668 13.1045 5.4668C13.3506 5.4668 13.5374 5.4987 13.665 5.5625V6.73828ZM17.6641 12.1045C18.1152 12.1045 18.5094 11.9678 18.8467 11.6943C19.1839 11.4209 19.3708 11.0791 19.4072 10.6689H20.6035C20.5807 11.0928 20.4349 11.4961 20.166 11.8789C19.8971 12.2617 19.5371 12.5671 19.0859 12.7949C18.6393 13.0228 18.1654 13.1367 17.6641 13.1367C16.6569 13.1367 15.8548 12.8018 15.2578 12.1318C14.6654 11.4574 14.3691 10.5368 14.3691 9.37012V9.1582C14.3691 8.43815 14.5013 7.79785 14.7656 7.2373C15.0299 6.67676 15.4082 6.24154 15.9004 5.93164C16.3971 5.62174 16.9827 5.4668 17.6572 5.4668C18.4867 5.4668 19.1748 5.71517 19.7217 6.21191C20.2731 6.70866 20.5671 7.35352 20.6035 8.14648H19.4072C19.3708 7.66797 19.1885 7.27604 18.8604 6.9707C18.5368 6.66081 18.1357 6.50586 17.6572 6.50586C17.0146 6.50586 16.5156 6.73828 16.1602 7.20312C15.8092 7.66341 15.6338 8.33105 15.6338 9.20605V9.44531C15.6338 10.2975 15.8092 10.9538 16.1602 11.4141C16.5111 11.8743 17.0124 12.1045 17.6641 12.1045ZM21.6904 9.2334C21.6904 8.50879 21.8317 7.8571 22.1143 7.27832C22.4014 6.69954 22.7979 6.25293 23.3037 5.93848C23.8141 5.62402 24.3952 5.4668 25.0469 5.4668C26.054 5.4668 26.8675 5.81543 27.4873 6.5127C28.1117 7.20996 28.4238 8.13737 28.4238 9.29492V9.38379C28.4238 10.1038 28.2848 10.751 28.0068 11.3252C27.7334 11.8949 27.3392 12.3392 26.8242 12.6582C26.3138 12.9772 25.7259 13.1367 25.0605 13.1367C24.0579 13.1367 23.2445 12.7881 22.6201 12.0908C22.0003 11.3936 21.6904 10.4707 21.6904 9.32227V9.2334ZM22.9619 9.38379C22.9619 10.2041 23.151 10.8626 23.5293 11.3594C23.9121 11.8561 24.4225 12.1045 25.0605 12.1045C25.7031 12.1045 26.2135 11.8538 26.5918 11.3525C26.9701 10.8467 27.1592 10.1403 27.1592 9.2334C27.1592 8.4222 26.9655 7.76595 26.5781 7.26465C26.1953 6.75879 25.6849 6.50586 25.0469 6.50586C24.4225 6.50586 23.9189 6.75423 23.5361 7.25098C23.1533 7.74772 22.9619 8.45866 22.9619 9.38379ZM34.3164 11.0381C34.3164 10.6963 34.1865 10.432 33.9268 10.2451C33.6715 10.0537 33.2227 9.88965 32.5801 9.75293C31.9421 9.61621 31.4339 9.45215 31.0557 9.26074C30.682 9.06934 30.404 8.84147 30.2217 8.57715C30.0439 8.31283 29.9551 7.99837 29.9551 7.63379C29.9551 7.02767 30.2103 6.51497 30.7207 6.0957C31.2357 5.67643 31.8919 5.4668 32.6895 5.4668C33.528 5.4668 34.207 5.68327 34.7266 6.11621C35.2507 6.54915 35.5127 7.10286 35.5127 7.77734H34.2412C34.2412 7.43099 34.0931 7.13249 33.7969 6.88184C33.5052 6.63118 33.1361 6.50586 32.6895 6.50586C32.2292 6.50586 31.8691 6.60612 31.6094 6.80664C31.3496 7.00716 31.2197 7.26921 31.2197 7.59277C31.2197 7.89811 31.3405 8.12826 31.582 8.2832C31.8236 8.43815 32.2588 8.58626 32.8877 8.72754C33.5212 8.86882 34.0339 9.03743 34.4258 9.2334C34.8177 9.42936 35.1071 9.66634 35.2939 9.94434C35.4854 10.2178 35.5811 10.5527 35.5811 10.9492C35.5811 11.61 35.3167 12.141 34.7881 12.542C34.2594 12.9385 33.5736 13.1367 32.7305 13.1367C32.138 13.1367 31.6139 13.0319 31.1582 12.8223C30.7025 12.6126 30.3447 12.321 30.085 11.9473C29.8298 11.569 29.7021 11.1611 29.7021 10.7236H30.9668C30.9896 11.1475 31.1582 11.4847 31.4727 11.7354C31.7917 11.9814 32.2109 12.1045 32.7305 12.1045C33.209 12.1045 33.5918 12.0088 33.8789 11.8174C34.1706 11.6214 34.3164 11.3617 34.3164 11.0381ZM40.2979 13.1367C39.2952 13.1367 38.4795 12.8086 37.8506 12.1523C37.2217 11.4915 36.9072 10.6097 36.9072 9.50684V9.27441C36.9072 8.54069 37.0462 7.88672 37.3242 7.3125C37.6068 6.73372 37.9987 6.28255 38.5 5.95898C39.0059 5.63086 39.5527 5.4668 40.1406 5.4668C41.1022 5.4668 41.8496 5.78353 42.3828 6.41699C42.916 7.05046 43.1826 7.95736 43.1826 9.1377V9.66406H38.1719C38.1901 10.3932 38.402 10.9834 38.8076 11.4346C39.2178 11.8812 39.7373 12.1045 40.3662 12.1045C40.8128 12.1045 41.1911 12.0133 41.501 11.8311C41.8109 11.6488 42.082 11.4072 42.3145 11.1064L43.0869 11.708C42.4671 12.6605 41.5374 13.1367 40.2979 13.1367ZM40.1406 6.50586C39.6302 6.50586 39.2018 6.69271 38.8555 7.06641C38.5091 7.43555 38.2949 7.95508 38.2129 8.625H41.918V8.5293C41.8815 7.88672 41.7083 7.38997 41.3984 7.03906C41.0885 6.68359 40.6693 6.50586 40.1406 6.50586ZM45.8486 5.60352L45.8896 6.5332C46.4548 5.82227 47.193 5.4668 48.1045 5.4668C49.6676 5.4668 50.4561 6.34863 50.4697 8.1123V13H49.2051V8.10547C49.2005 7.57227 49.0775 7.17806 48.8359 6.92285C48.599 6.66764 48.2275 6.54004 47.7217 6.54004C47.3115 6.54004 46.9515 6.64941 46.6416 6.86816C46.3317 7.08691 46.0902 7.37402 45.917 7.72949V13H44.6523V5.60352H45.8486ZM52.042 9.2334C52.042 8.50879 52.1833 7.8571 52.4658 7.27832C52.7529 6.69954 53.1494 6.25293 53.6553 5.93848C54.1657 5.62402 54.7467 5.4668 55.3984 5.4668C56.4056 5.4668 57.2191 5.81543 57.8389 6.5127C58.4632 7.20996 58.7754 8.13737 58.7754 9.29492V9.38379C58.7754 10.1038 58.6364 10.751 58.3584 11.3252C58.085 11.8949 57.6908 12.3392 57.1758 12.6582C56.6654 12.9772 56.0775 13.1367 55.4121 13.1367C54.4095 13.1367 53.596 12.7881 52.9717 12.0908C52.3519 11.3936 52.042 10.4707 52.042 9.32227V9.2334ZM53.3135 9.38379C53.3135 10.2041 53.5026 10.8626 53.8809 11.3594C54.2637 11.8561 54.7741 12.1045 55.4121 12.1045C56.0547 12.1045 56.5651 11.8538 56.9434 11.3525C57.3216 10.8467 57.5107 10.1403 57.5107 9.2334C57.5107 8.4222 57.3171 7.76595 56.9297 7.26465C56.5469 6.75879 56.0365 6.50586 55.3984 6.50586C54.7741 6.50586 54.2705 6.75423 53.8877 7.25098C53.5049 7.74772 53.3135 8.45866 53.3135 9.38379Z" fill="#41D17A"/>
</svg>
