<svg width="393" height="98" viewBox="0 0 393 98" fill="none" xmlns="http://www.w3.org/2000/svg">
<path d="M20.5273 32.4199H18.7168C18.623 31.9043 18.4355 31.4824 18.1543 31.1543C17.873 30.8145 17.498 30.6445 17.0293 30.6445C15.7754 30.6445 14.9492 31.6641 14.5508 33.7031C14.1641 35.7305 13.9707 40.3887 13.9707 47.6777C13.9707 53.7246 13.4141 58.5234 12.3008 62.0742C11.1992 65.625 9.24805 67.4004 6.44727 67.4004C5.88477 67.4004 5.39258 67.3535 4.9707 67.2598C4.54883 67.166 4.13867 67.0137 3.74023 66.8027L3.96875 63.3398H5.62109C5.77344 63.9023 5.99609 64.3652 6.28906 64.7285C6.59375 65.0918 7.02148 65.2734 7.57227 65.2734C8.80273 65.2734 9.57617 63.9961 9.89258 61.4414C10.209 58.8984 10.3672 55.1836 10.3672 50.2969C10.3672 42.6797 10.9414 37.1309 12.0898 33.6504C13.25 30.1699 15.2539 28.4297 18.1016 28.4297C18.5117 28.4297 18.9629 28.4883 19.4551 28.6055C19.959 28.7109 20.3867 28.8457 20.7383 29.0098L20.5273 32.4199ZM147.934 40.8926C147.934 39.7676 147.922 38.9824 147.898 38.5371C147.887 38.0918 147.84 37.7168 147.758 37.4121C147.688 37.0957 147.582 36.8496 147.441 36.6738C147.312 36.498 147.131 36.3574 146.896 36.252C146.674 36.1465 146.264 36.041 145.666 35.9355V35.0215L149.92 34.8457H150.957V55.2012C150.957 56.1152 150.975 56.7715 151.01 57.1699C151.045 57.5566 151.121 57.8672 151.238 58.1016C151.355 58.3359 151.537 58.5293 151.783 58.6816C152.041 58.8223 152.486 58.957 153.119 59.0859V60L148.971 60.1758H147.916L148.127 57.293L147.863 57.2227C147.125 58.0078 146.48 58.5996 145.93 58.998C145.391 59.3848 144.811 59.6953 144.189 59.9297C143.58 60.1641 142.924 60.2812 142.221 60.2812C140.299 60.2812 138.816 59.5547 137.773 58.1016C136.73 56.6367 136.209 54.5273 136.209 51.7734C136.209 49.8516 136.549 48.2227 137.229 46.8867C137.908 45.5391 138.822 44.5371 139.971 43.8809C141.131 43.2246 142.432 42.8965 143.873 42.8965C144.646 42.8965 145.35 42.9609 145.982 43.0898C146.615 43.207 147.266 43.4062 147.934 43.6875V40.8926ZM147.934 49.5762C147.934 48.6621 147.893 47.9297 147.811 47.3789C147.729 46.8281 147.588 46.3652 147.389 45.9902C147.201 45.6152 146.943 45.2988 146.615 45.041C146.287 44.7832 145.924 44.5957 145.525 44.4785C145.139 44.3613 144.67 44.3027 144.119 44.3027C142.619 44.3027 141.477 44.9062 140.691 46.1133C139.906 47.3086 139.514 49.0312 139.514 51.2812C139.514 53.5312 139.836 55.2422 140.48 56.4141C141.125 57.5859 142.104 58.1719 143.416 58.1719C143.932 58.1719 144.359 58.1309 144.699 58.0488C145.039 57.9551 145.373 57.8145 145.701 57.627C146.029 57.4277 146.363 57.1582 146.703 56.8184C147.043 56.4785 147.289 56.168 147.441 55.8867C147.605 55.6055 147.729 55.2832 147.811 54.9199C147.893 54.5566 147.934 54.0879 147.934 53.5137V49.5762ZM163.473 49.8574L165.758 46.957C166.004 46.6406 166.203 46.3359 166.355 46.043C166.508 45.7383 166.584 45.4277 166.584 45.1113C166.584 44.8418 166.484 44.6191 166.285 44.4434C166.086 44.2676 165.775 44.1387 165.354 44.0566V43.1953H171.102V44.0566C170.656 44.1855 170.199 44.4375 169.73 44.8125C169.273 45.1875 168.711 45.791 168.043 46.623L164.404 51.0879L168.412 56.4844C168.986 57.2578 169.502 57.8496 169.959 58.2598C170.416 58.6699 170.873 58.9629 171.33 59.1387V60H164.264V59.1387C165.236 59.0215 165.723 58.6582 165.723 58.0488C165.723 57.8027 165.682 57.5684 165.6 57.3457C165.518 57.123 165.365 56.8652 165.143 56.5723L162.594 53.0215L159.887 56.5371C159.688 56.7949 159.529 57.0352 159.412 57.2578C159.307 57.4688 159.254 57.709 159.254 57.9785C159.254 58.2949 159.359 58.5586 159.57 58.7695C159.793 58.9688 160.139 59.0918 160.607 59.1387V60H154.736V59.1387C155.123 58.998 155.469 58.8223 155.773 58.6113C156.09 58.4004 156.406 58.1309 156.723 57.8027C157.051 57.4629 157.479 56.9707 158.006 56.3262L161.662 51.791L157.918 46.6582C157.402 45.9551 156.992 45.4453 156.688 45.1289C156.383 44.8125 156.102 44.5723 155.844 44.4082C155.586 44.2441 155.328 44.127 155.07 44.0566V43.1953H161.961V44.0566C161.035 44.1973 160.572 44.5605 160.572 45.1465C160.572 45.416 160.631 45.6855 160.748 45.9551C160.877 46.2246 161.07 46.5234 161.328 46.8516L163.473 49.8574ZM182.299 47.2383V44.9004H203.955V47.2383H182.299ZM182.299 54.5332V52.1953H203.955V54.5332H182.299ZM226.385 57.4863L226.121 57.416C225.102 58.459 224.141 59.1973 223.238 59.6309C222.348 60.0645 221.398 60.2812 220.391 60.2812C219.5 60.2812 218.715 60.1113 218.035 59.7715C217.355 59.4199 216.834 58.9336 216.471 58.3125C216.107 57.6797 215.926 56.9531 215.926 56.1328C215.926 54.4219 216.77 53.1035 218.457 52.1777C220.156 51.2402 222.699 50.6953 226.086 50.543V49.4004C226.086 48.1816 225.969 47.2207 225.734 46.5176C225.5 45.8145 225.131 45.2988 224.627 44.9707C224.123 44.6426 223.449 44.4785 222.605 44.4785C221.691 44.4785 220.953 44.7188 220.391 45.1992C219.84 45.6797 219.424 46.4004 219.143 47.3613H216.84V45.0762C217.965 44.4902 218.902 44.0625 219.652 43.793C220.402 43.5117 221.152 43.2949 221.902 43.1426C222.652 42.9785 223.414 42.8965 224.188 42.8965C225.348 42.8965 226.279 43.084 226.982 43.459C227.686 43.8223 228.213 44.3848 228.564 45.1465C228.916 45.9082 229.092 47.0566 229.092 48.5918V54.709C229.092 55.5762 229.098 56.1914 229.109 56.5547C229.121 56.9062 229.156 57.2344 229.215 57.5391C229.273 57.8438 229.361 58.0898 229.479 58.2773C229.596 58.4531 229.766 58.6055 229.988 58.7344C230.223 58.8633 230.598 58.998 231.113 59.1387V60H226.297L226.385 57.4863ZM226.086 51.9844C223.707 52.0078 221.926 52.3242 220.742 52.9336C219.559 53.543 218.967 54.4629 218.967 55.6934C218.967 56.3613 219.102 56.8887 219.371 57.2754C219.641 57.6621 219.98 57.9316 220.391 58.084C220.801 58.2246 221.287 58.2949 221.85 58.2949C222.646 58.2949 223.367 58.1016 224.012 57.7148C224.668 57.3281 225.178 56.8359 225.541 56.2383C225.904 55.6406 226.086 55.0488 226.086 54.4629V51.9844ZM238.549 46.1133L238.795 46.166C239.439 45.3809 240.037 44.7656 240.588 44.3203C241.139 43.8633 241.73 43.5117 242.363 43.2656C243.008 43.0195 243.734 42.8965 244.543 42.8965C245.223 42.8965 245.838 42.9316 246.389 43.002V47.0449H244.402C244.121 46.4121 243.822 45.9551 243.506 45.6738C243.189 45.3809 242.756 45.2344 242.205 45.2344C241.783 45.2344 241.361 45.3574 240.939 45.6035C240.529 45.8496 240.131 46.207 239.744 46.6758C239.357 47.1445 239.088 47.584 238.936 47.9941C238.795 48.4043 238.725 48.8906 238.725 49.4531V55.6055C238.725 56.6719 238.789 57.4102 238.918 57.8203C239.047 58.2188 239.258 58.5117 239.551 58.6992C239.855 58.8867 240.307 59.0332 240.904 59.1387V60H233.82V59.1387C234.266 58.998 234.582 58.875 234.77 58.7695C234.969 58.6641 235.139 58.5176 235.279 58.3301C235.42 58.1426 235.525 57.8555 235.596 57.4688C235.666 57.082 235.701 56.4785 235.701 55.6582V47.9941C235.701 47.2441 235.689 46.6406 235.666 46.1836C235.643 45.7266 235.561 45.3633 235.42 45.0938C235.279 44.8125 235.062 44.6074 234.77 44.4785C234.488 44.3379 234.084 44.2207 233.557 44.127V43.2129L237.67 43.0371H238.742L238.549 46.1133ZM261.277 43.5996V47.2734H259.045C258.846 46.5117 258.6 45.9141 258.307 45.4805C258.014 45.0352 257.674 44.7246 257.287 44.5488C256.9 44.373 256.42 44.2852 255.846 44.2852C255.025 44.2852 254.299 44.5488 253.666 45.0762C253.033 45.6035 252.529 46.4062 252.154 47.4844C251.791 48.5625 251.609 49.8809 251.609 51.4395C251.609 52.4355 251.68 53.3496 251.82 54.1816C251.961 55.002 252.201 55.7051 252.541 56.291C252.881 56.877 253.332 57.334 253.895 57.6621C254.457 57.9902 255.154 58.1543 255.986 58.1543C256.795 58.1543 257.545 57.9961 258.236 57.6797C258.939 57.3633 259.666 56.8066 260.416 56.0098L261.418 57.1699C260.82 57.8262 260.293 58.3359 259.836 58.6992C259.379 59.0508 258.887 59.3496 258.359 59.5957C257.844 59.8301 257.328 60 256.812 60.1055C256.309 60.2227 255.758 60.2812 255.16 60.2812C252.945 60.2812 251.252 59.5488 250.08 58.084C248.908 56.6074 248.322 54.4805 248.322 51.7031C248.322 49.9688 248.65 48.4336 249.307 47.0977C249.963 45.75 250.883 44.7129 252.066 43.9863C253.25 43.2598 254.615 42.8965 256.162 42.8965C257.123 42.8965 258.008 42.9551 258.816 43.0723C259.637 43.1777 260.457 43.3535 261.277 43.5996ZM263.018 44.0742C263.604 43.9805 264.078 43.8164 264.441 43.582C264.805 43.3477 265.086 43.0488 265.285 42.6855C265.496 42.3105 265.66 41.8477 265.777 41.2969C265.895 40.7344 266.018 39.9199 266.146 38.8535H268.643V43.1953H274.32V44.9707H268.643V52.793C268.643 53.9297 268.689 54.8379 268.783 55.5176C268.877 56.1855 269.053 56.7129 269.311 57.0996C269.568 57.4746 269.861 57.7441 270.189 57.9082C270.518 58.0723 270.939 58.1543 271.455 58.1543C271.924 58.1543 272.363 58.0605 272.773 57.873C273.184 57.6738 273.588 57.3926 273.986 57.0293L274.777 57.9785C273.945 58.7871 273.154 59.373 272.404 59.7363C271.666 60.0996 270.898 60.2812 270.102 60.2812C268.59 60.2812 267.465 59.8359 266.727 58.9453C265.988 58.043 265.619 56.6367 265.619 54.7266V44.9707H263.018V44.0742ZM286.432 57.4863L286.168 57.416C285.148 58.459 284.188 59.1973 283.285 59.6309C282.395 60.0645 281.445 60.2812 280.438 60.2812C279.547 60.2812 278.762 60.1113 278.082 59.7715C277.402 59.4199 276.881 58.9336 276.518 58.3125C276.154 57.6797 275.973 56.9531 275.973 56.1328C275.973 54.4219 276.816 53.1035 278.504 52.1777C280.203 51.2402 282.746 50.6953 286.133 50.543V49.4004C286.133 48.1816 286.016 47.2207 285.781 46.5176C285.547 45.8145 285.178 45.2988 284.674 44.9707C284.17 44.6426 283.496 44.4785 282.652 44.4785C281.738 44.4785 281 44.7188 280.438 45.1992C279.887 45.6797 279.471 46.4004 279.189 47.3613H276.887V45.0762C278.012 44.4902 278.949 44.0625 279.699 43.793C280.449 43.5117 281.199 43.2949 281.949 43.1426C282.699 42.9785 283.461 42.8965 284.234 42.8965C285.395 42.8965 286.326 43.084 287.029 43.459C287.732 43.8223 288.26 44.3848 288.611 45.1465C288.963 45.9082 289.139 47.0566 289.139 48.5918V54.709C289.139 55.5762 289.145 56.1914 289.156 56.5547C289.168 56.9062 289.203 57.2344 289.262 57.5391C289.32 57.8438 289.408 58.0898 289.525 58.2773C289.643 58.4531 289.812 58.6055 290.035 58.7344C290.27 58.8633 290.645 58.998 291.16 59.1387V60H286.344L286.432 57.4863ZM286.133 51.9844C283.754 52.0078 281.973 52.3242 280.789 52.9336C279.605 53.543 279.014 54.4629 279.014 55.6934C279.014 56.3613 279.148 56.8887 279.418 57.2754C279.688 57.6621 280.027 57.9316 280.438 58.084C280.848 58.2246 281.334 58.2949 281.896 58.2949C282.693 58.2949 283.414 58.1016 284.059 57.7148C284.715 57.3281 285.225 56.8359 285.588 56.2383C285.951 55.6406 286.133 55.0488 286.133 54.4629V51.9844ZM310.971 60H304.045V59.1387C304.502 58.998 304.83 58.875 305.029 58.7695C305.229 58.6641 305.393 58.5176 305.521 58.3301C305.662 58.1426 305.768 57.8555 305.838 57.4688C305.92 57.0703 305.961 56.4727 305.961 55.6758V51.0703C305.961 50.25 305.938 49.5059 305.891 48.8379C305.844 48.1699 305.762 47.625 305.645 47.2031C305.539 46.7695 305.404 46.4355 305.24 46.2012C305.088 45.9551 304.9 45.75 304.678 45.5859C304.467 45.4102 304.221 45.2754 303.939 45.1816C303.658 45.0762 303.289 45.0234 302.832 45.0234C302.375 45.0234 301.941 45.1172 301.531 45.3047C301.121 45.4805 300.67 45.791 300.178 46.2363C299.686 46.6816 299.328 47.1211 299.105 47.5547C298.883 47.9883 298.771 48.4863 298.771 49.0488V55.6055C298.771 56.6133 298.818 57.3164 298.912 57.7148C299.006 58.1016 299.182 58.4004 299.439 58.6113C299.709 58.8105 300.143 58.9863 300.74 59.1387V60H293.85V59.1387C294.307 58.998 294.629 58.875 294.816 58.7695C295.016 58.6641 295.18 58.5176 295.309 58.3301C295.449 58.1426 295.555 57.8555 295.625 57.4688C295.707 57.082 295.748 56.4785 295.748 55.6582V47.9941C295.748 47.2441 295.736 46.6406 295.713 46.1836C295.689 45.7266 295.607 45.3633 295.467 45.0938C295.326 44.8125 295.109 44.6074 294.816 44.4785C294.535 44.3379 294.131 44.2207 293.604 44.127V43.1953L297.717 43.0371H298.789L298.596 45.9023L298.842 45.9727C299.709 45.0938 300.406 44.4668 300.934 44.0918C301.473 43.7168 302.012 43.4297 302.551 43.2305C303.102 43.0195 303.682 42.9141 304.291 42.9141C304.924 42.9141 305.486 42.9902 305.979 43.1426C306.482 43.2832 306.922 43.5059 307.297 43.8105C307.684 44.1152 308 44.4961 308.246 44.9531C308.492 45.3984 308.674 45.9375 308.791 46.5703C308.92 47.2031 308.984 48.0059 308.984 48.9785V55.6055C308.984 56.4141 309.008 57 309.055 57.3633C309.102 57.7266 309.184 58.0078 309.301 58.207C309.418 58.4062 309.588 58.5762 309.811 58.7168C310.033 58.8457 310.42 58.9863 310.971 59.1387V60ZM352.297 50.877V61.002H349.801V50.877H340.221V48.5391H349.801V38.4141H352.297V48.5391H361.877V50.877H352.297ZM390.758 36.5156V41.3848H389.018C388.736 40.3652 388.379 39.5566 387.945 38.959C387.512 38.3496 387.008 37.916 386.434 37.6582C385.859 37.4004 385.168 37.2715 384.359 37.2715C383.152 37.2715 382.074 37.6758 381.125 38.4844C380.188 39.2812 379.449 40.4883 378.91 42.1055C378.371 43.7109 378.102 45.6562 378.102 47.9414C378.102 50.2383 378.324 52.2012 378.77 53.8301C379.215 55.4473 379.871 56.6719 380.738 57.5039C381.605 58.3242 382.672 58.7344 383.938 58.7344C384.898 58.7344 385.684 58.5996 386.293 58.3301C386.902 58.0488 387.412 57.6094 387.822 57.0117C388.244 56.4141 388.643 55.5352 389.018 54.375H390.758V59.4023C389.656 59.6953 388.525 59.9121 387.365 60.0527C386.217 60.2051 384.951 60.2812 383.568 60.2812C380.592 60.2812 378.342 59.2734 376.818 57.2578C375.295 55.2422 374.533 52.2363 374.533 48.2402C374.533 45.7324 374.926 43.5352 375.711 41.6484C376.508 39.7617 377.674 38.3027 379.209 37.2715C380.744 36.2402 382.578 35.7246 384.711 35.7246C385.777 35.7246 386.762 35.7832 387.664 35.9004C388.566 36.0059 389.598 36.2109 390.758 36.5156Z" fill="white"/>
<path d="M321.395 49.8574L323.68 46.957C323.926 46.6406 324.125 46.3359 324.277 46.043C324.43 45.7383 324.506 45.4277 324.506 45.1113C324.506 44.8418 324.406 44.6191 324.207 44.4434C324.008 44.2676 323.697 44.1387 323.275 44.0566V43.1953H329.023V44.0566C328.578 44.1855 328.121 44.4375 327.652 44.8125C327.195 45.1875 326.633 45.791 325.965 46.623L322.326 51.0879L326.334 56.4844C326.908 57.2578 327.424 57.8496 327.881 58.2598C328.338 58.6699 328.795 58.9629 329.252 59.1387V60H322.186V59.1387C323.158 59.0215 323.645 58.6582 323.645 58.0488C323.645 57.8027 323.604 57.5684 323.521 57.3457C323.439 57.123 323.287 56.8652 323.064 56.5723L320.516 53.0215L317.809 56.5371C317.609 56.7949 317.451 57.0352 317.334 57.2578C317.229 57.4688 317.176 57.709 317.176 57.9785C317.176 58.2949 317.281 58.5586 317.492 58.7695C317.715 58.9688 318.061 59.0918 318.529 59.1387V60H312.658V59.1387C313.045 58.998 313.391 58.8223 313.695 58.6113C314.012 58.4004 314.328 58.1309 314.645 57.8027C314.973 57.4629 315.4 56.9707 315.928 56.3262L319.584 51.791L315.84 46.6582C315.324 45.9551 314.914 45.4453 314.609 45.1289C314.305 44.8125 314.023 44.5723 313.766 44.4082C313.508 44.2441 313.25 44.127 312.992 44.0566V43.1953H319.883V44.0566C318.957 44.1973 318.494 44.5605 318.494 45.1465C318.494 45.416 318.553 45.6855 318.67 45.9551C318.799 46.2246 318.992 46.5234 319.25 46.8516L321.395 49.8574Z" fill="#89B8FF"/>
<line x1="18" y1="49" x2="118" y2="49" stroke="white" stroke-width="2"/>
<path d="M70.2168 34.4121C70.2168 35.0918 70.252 35.6074 70.3223 35.959C70.4043 36.2988 70.5391 36.5801 70.7266 36.8027C70.9258 37.0137 71.207 37.1836 71.5703 37.3125C71.9336 37.4297 72.3906 37.5234 72.9414 37.5938C73.4922 37.6523 74.2188 37.6934 75.1211 37.7168V39H62.1309V37.7168C63.4316 37.6582 64.3574 37.582 64.9082 37.4883C65.4707 37.3828 65.8984 37.2305 66.1914 37.0312C66.4844 36.832 66.6953 36.5508 66.8242 36.1875C66.9648 35.8242 67.0352 35.2324 67.0352 34.4121V20.1562C67.0352 19.6875 66.9531 19.3477 66.7891 19.1367C66.625 18.9141 66.3848 18.8027 66.0684 18.8027C65.6934 18.8027 65.1602 18.9961 64.4688 19.3828C63.7773 19.7695 62.9219 20.3027 61.9023 20.9824L61.1289 19.6289L69.3555 14.7246H70.3223C70.252 15.8496 70.2168 17.4082 70.2168 19.4004V34.4121Z" fill="white"/>
<path d="M23.3809 70.2129L29.5859 83.8535L38.2695 53.8477H42.752V56.1855H39.5703L30.1133 88.4941H28.4082L21.1309 72.8496L18.1602 74.168L17.6152 72.8496L23.3809 70.2129ZM52.877 82.4121C52.877 83.0918 52.9121 83.6074 52.9824 83.959C53.0645 84.2988 53.1992 84.5801 53.3867 84.8027C53.5859 85.0137 53.8672 85.1836 54.2305 85.3125C54.5938 85.4297 55.0508 85.5234 55.6016 85.5938C56.1523 85.6523 56.8789 85.6934 57.7812 85.7168V87H44.791V85.7168C46.0918 85.6582 47.0176 85.582 47.5684 85.4883C48.1309 85.3828 48.5586 85.2305 48.8516 85.0312C49.1445 84.832 49.3555 84.5508 49.4844 84.1875C49.625 83.8242 49.6953 83.2324 49.6953 82.4121V68.1562C49.6953 67.6875 49.6133 67.3477 49.4492 67.1367C49.2852 66.9141 49.0449 66.8027 48.7285 66.8027C48.3535 66.8027 47.8203 66.9961 47.1289 67.3828C46.4375 67.7695 45.582 68.3027 44.5625 68.9824L43.7891 67.6289L52.0156 62.7246H52.9824C52.9121 63.8496 52.877 65.4082 52.877 67.4004V82.4121ZM83.2344 77.877V88.002H80.7383V77.877H71.1582V75.5391H80.7383V65.4141H83.2344V75.5391H92.8145V77.877H83.2344ZM129.676 70.4414C130.086 70.4414 130.396 70.4238 130.607 70.3887C130.83 70.3418 131.006 70.2773 131.135 70.1953C131.264 70.1133 131.369 70.0078 131.451 69.8789C131.545 69.75 131.68 69.4688 131.855 69.0352H133.068L132.822 72.4277H122.521V71.7598C122.92 70.9043 123.459 70.0605 124.139 69.2285C124.818 68.3965 125.615 67.541 126.529 66.6621C127.619 65.6191 128.393 64.834 128.85 64.3066C129.307 63.7676 129.646 63.2637 129.869 62.7949C130.092 62.3145 130.203 61.834 130.203 61.3535C130.203 60.5566 129.975 59.9297 129.518 59.4727C129.072 59.0156 128.428 58.7871 127.584 58.7871C126.857 58.7871 126.236 58.9805 125.721 59.3672C125.217 59.7539 124.83 60.3223 124.561 61.0723H122.891V58.6992C123.934 58.2773 124.895 57.9785 125.773 57.8027C126.652 57.6152 127.432 57.5215 128.111 57.5215C129.037 57.5215 129.799 57.6211 130.396 57.8203C131.006 58.0195 131.492 58.2832 131.855 58.6113C132.219 58.9277 132.471 59.3027 132.611 59.7363C132.764 60.1699 132.84 60.6152 132.84 61.0723C132.84 61.6465 132.723 62.1855 132.488 62.6895C132.254 63.1816 131.867 63.7207 131.328 64.3066C130.801 64.8809 129.857 65.7832 128.498 67.0137C127.045 68.3379 125.99 69.4805 125.334 70.4414H129.676Z" fill="white"/>
<path d="M112.52 76.8574L114.805 73.957C115.051 73.6406 115.25 73.3359 115.402 73.043C115.555 72.7383 115.631 72.4277 115.631 72.1113C115.631 71.8418 115.531 71.6191 115.332 71.4434C115.133 71.2676 114.822 71.1387 114.4 71.0566V70.1953H120.148V71.0566C119.703 71.1855 119.246 71.4375 118.777 71.8125C118.32 72.1875 117.758 72.791 117.09 73.623L113.451 78.0879L117.459 83.4844C118.033 84.2578 118.549 84.8496 119.006 85.2598C119.463 85.6699 119.92 85.9629 120.377 86.1387V87H113.311V86.1387C114.283 86.0215 114.77 85.6582 114.77 85.0488C114.77 84.8027 114.729 84.5684 114.646 84.3457C114.564 84.123 114.412 83.8652 114.189 83.5723L111.641 80.0215L108.934 83.5371C108.734 83.7949 108.576 84.0352 108.459 84.2578C108.354 84.4688 108.301 84.709 108.301 84.9785C108.301 85.2949 108.406 85.5586 108.617 85.7695C108.84 85.9688 109.186 86.0918 109.654 86.1387V87H103.783V86.1387C104.17 85.998 104.516 85.8223 104.82 85.6113C105.137 85.4004 105.453 85.1309 105.77 84.8027C106.098 84.4629 106.525 83.9707 107.053 83.3262L110.709 78.791L106.965 73.6582C106.449 72.9551 106.039 72.4453 105.734 72.1289C105.43 71.8125 105.148 71.5723 104.891 71.4082C104.633 71.2441 104.375 71.127 104.117 71.0566V70.1953H111.008V71.0566C110.082 71.1973 109.619 71.5605 109.619 72.1465C109.619 72.416 109.678 72.6855 109.795 72.9551C109.924 73.2246 110.117 73.5234 110.375 73.8516L112.52 76.8574Z" fill="#89B8FF"/>
<path d="M6.65137 10.4023H2.48145L1.54492 13H0.191406L3.99219 3.04688H5.14062L8.94824 13H7.60156L6.65137 10.4023ZM2.87793 9.32227H6.26172L4.56641 4.66699L2.87793 9.32227ZM13.665 6.73828C13.4736 6.70638 13.2663 6.69043 13.043 6.69043C12.2135 6.69043 11.6507 7.04362 11.3545 7.75V13H10.0898V5.60352H11.3203L11.3408 6.45801C11.7555 5.7972 12.3434 5.4668 13.1045 5.4668C13.3506 5.4668 13.5374 5.4987 13.665 5.5625V6.73828ZM17.6641 12.1045C18.1152 12.1045 18.5094 11.9678 18.8467 11.6943C19.1839 11.4209 19.3708 11.0791 19.4072 10.6689H20.6035C20.5807 11.0928 20.4349 11.4961 20.166 11.8789C19.8971 12.2617 19.5371 12.5671 19.0859 12.7949C18.6393 13.0228 18.1654 13.1367 17.6641 13.1367C16.6569 13.1367 15.8548 12.8018 15.2578 12.1318C14.6654 11.4574 14.3691 10.5368 14.3691 9.37012V9.1582C14.3691 8.43815 14.5013 7.79785 14.7656 7.2373C15.0299 6.67676 15.4082 6.24154 15.9004 5.93164C16.3971 5.62174 16.9827 5.4668 17.6572 5.4668C18.4867 5.4668 19.1748 5.71517 19.7217 6.21191C20.2731 6.70866 20.5671 7.35352 20.6035 8.14648H19.4072C19.3708 7.66797 19.1885 7.27604 18.8604 6.9707C18.5368 6.66081 18.1357 6.50586 17.6572 6.50586C17.0146 6.50586 16.5156 6.73828 16.1602 7.20312C15.8092 7.66341 15.6338 8.33105 15.6338 9.20605V9.44531C15.6338 10.2975 15.8092 10.9538 16.1602 11.4141C16.5111 11.8743 17.0124 12.1045 17.6641 12.1045ZM21.6904 9.2334C21.6904 8.50879 21.8317 7.8571 22.1143 7.27832C22.4014 6.69954 22.7979 6.25293 23.3037 5.93848C23.8141 5.62402 24.3952 5.4668 25.0469 5.4668C26.054 5.4668 26.8675 5.81543 27.4873 6.5127C28.1117 7.20996 28.4238 8.13737 28.4238 9.29492V9.38379C28.4238 10.1038 28.2848 10.751 28.0068 11.3252C27.7334 11.8949 27.3392 12.3392 26.8242 12.6582C26.3138 12.9772 25.7259 13.1367 25.0605 13.1367C24.0579 13.1367 23.2445 12.7881 22.6201 12.0908C22.0003 11.3936 21.6904 10.4707 21.6904 9.32227V9.2334ZM22.9619 9.38379C22.9619 10.2041 23.151 10.8626 23.5293 11.3594C23.9121 11.8561 24.4225 12.1045 25.0605 12.1045C25.7031 12.1045 26.2135 11.8538 26.5918 11.3525C26.9701 10.8467 27.1592 10.1403 27.1592 9.2334C27.1592 8.4222 26.9655 7.76595 26.5781 7.26465C26.1953 6.75879 25.6849 6.50586 25.0469 6.50586C24.4225 6.50586 23.9189 6.75423 23.5361 7.25098C23.1533 7.74772 22.9619 8.45866 22.9619 9.38379ZM31.7256 3.8125V5.60352H33.1064V6.58105H31.7256V11.168C31.7256 11.4642 31.7871 11.6875 31.9102 11.8379C32.0332 11.9837 32.2428 12.0566 32.5391 12.0566C32.6849 12.0566 32.8854 12.0293 33.1406 11.9746V13C32.8079 13.0911 32.4844 13.1367 32.1699 13.1367C31.6048 13.1367 31.1787 12.9658 30.8916 12.624C30.6045 12.2822 30.4609 11.7969 30.4609 11.168V6.58105H29.1143V5.60352H30.4609V3.8125H31.7256ZM39.1562 13C39.0833 12.8542 39.0241 12.5944 38.9785 12.2207C38.3906 12.8314 37.6888 13.1367 36.873 13.1367C36.1439 13.1367 35.5446 12.9316 35.0752 12.5215C34.6104 12.1068 34.3779 11.5827 34.3779 10.9492C34.3779 10.179 34.6696 9.58203 35.2529 9.1582C35.8408 8.72982 36.6657 8.51562 37.7275 8.51562H38.958V7.93457C38.958 7.49251 38.8258 7.1416 38.5615 6.88184C38.2972 6.61751 37.9076 6.48535 37.3926 6.48535C36.9414 6.48535 36.5632 6.59928 36.2578 6.82715C35.9525 7.05501 35.7998 7.33073 35.7998 7.6543H34.5283C34.5283 7.28516 34.6582 6.92969 34.918 6.58789C35.1823 6.24154 35.5378 5.9681 35.9844 5.76758C36.4355 5.56706 36.93 5.4668 37.4678 5.4668C38.32 5.4668 38.9876 5.68099 39.4707 6.10938C39.9538 6.5332 40.2044 7.11882 40.2227 7.86621V11.2705C40.2227 11.9495 40.3092 12.4896 40.4824 12.8906V13H39.1562ZM37.0576 12.0361C37.4541 12.0361 37.8301 11.9336 38.1855 11.7285C38.541 11.5234 38.7985 11.2568 38.958 10.9287V9.41113H37.9668C36.4173 9.41113 35.6426 9.86458 35.6426 10.7715C35.6426 11.168 35.7747 11.4779 36.0391 11.7012C36.3034 11.9245 36.6429 12.0361 37.0576 12.0361ZM43.4014 5.60352L43.4424 6.5332C44.0075 5.82227 44.7458 5.4668 45.6572 5.4668C47.2204 5.4668 48.0088 6.34863 48.0225 8.1123V13H46.7578V8.10547C46.7533 7.57227 46.6302 7.17806 46.3887 6.92285C46.1517 6.66764 45.7803 6.54004 45.2744 6.54004C44.8643 6.54004 44.5042 6.64941 44.1943 6.86816C43.8844 7.08691 43.6429 7.37402 43.4697 7.72949V13H42.2051V5.60352H43.4014ZM49.6289 9.24023C49.6289 8.08724 49.8955 7.17122 50.4287 6.49219C50.9619 5.80859 51.6683 5.4668 52.5479 5.4668C53.4502 5.4668 54.1543 5.78581 54.6602 6.42383L54.7217 5.60352H55.877V12.8223C55.877 13.7793 55.5921 14.5335 55.0225 15.085C54.4574 15.6364 53.6963 15.9121 52.7393 15.9121C52.2061 15.9121 51.6842 15.7982 51.1738 15.5703C50.6634 15.3424 50.2738 15.0303 50.0049 14.6338L50.6611 13.875C51.2035 14.5449 51.8665 14.8799 52.6504 14.8799C53.2656 14.8799 53.7441 14.7067 54.0859 14.3604C54.4323 14.014 54.6055 13.5264 54.6055 12.8975V12.2617C54.0996 12.8451 53.4092 13.1367 52.5342 13.1367C51.6683 13.1367 50.9665 12.7881 50.4287 12.0908C49.8955 11.3936 49.6289 10.4434 49.6289 9.24023ZM50.9004 9.38379C50.9004 10.2178 51.0713 10.874 51.4131 11.3525C51.7549 11.8265 52.2334 12.0635 52.8486 12.0635C53.6462 12.0635 54.2318 11.7012 54.6055 10.9766V7.59961C54.2181 6.89323 53.637 6.54004 52.8623 6.54004C52.2471 6.54004 51.7663 6.7793 51.4199 7.25781C51.0736 7.73633 50.9004 8.44499 50.9004 9.38379ZM60.8604 13.1367C59.8577 13.1367 59.042 12.8086 58.4131 12.1523C57.7842 11.4915 57.4697 10.6097 57.4697 9.50684V9.27441C57.4697 8.54069 57.6087 7.88672 57.8867 7.3125C58.1693 6.73372 58.5612 6.28255 59.0625 5.95898C59.5684 5.63086 60.1152 5.4668 60.7031 5.4668C61.6647 5.4668 62.4121 5.78353 62.9453 6.41699C63.4785 7.05046 63.7451 7.95736 63.7451 9.1377V9.66406H58.7344C58.7526 10.3932 58.9645 10.9834 59.3701 11.4346C59.7803 11.8812 60.2998 12.1045 60.9287 12.1045C61.3753 12.1045 61.7536 12.0133 62.0635 11.8311C62.3734 11.6488 62.6445 11.4072 62.877 11.1064L63.6494 11.708C63.0296 12.6605 62.0999 13.1367 60.8604 13.1367ZM60.7031 6.50586C60.1927 6.50586 59.7643 6.69271 59.418 7.06641C59.0716 7.43555 58.8574 7.95508 58.7754 8.625H62.4805V8.5293C62.444 7.88672 62.2708 7.38997 61.9609 7.03906C61.651 6.68359 61.2318 6.50586 60.7031 6.50586ZM66.4111 5.60352L66.4521 6.5332C67.0173 5.82227 67.7555 5.4668 68.667 5.4668C70.2301 5.4668 71.0186 6.34863 71.0322 8.1123V13H69.7676V8.10547C69.763 7.57227 69.64 7.17806 69.3984 6.92285C69.1615 6.66764 68.79 6.54004 68.2842 6.54004C67.874 6.54004 67.514 6.64941 67.2041 6.86816C66.8942 7.08691 66.6527 7.37402 66.4795 7.72949V13H65.2148V5.60352H66.4111ZM74.6553 3.8125V5.60352H76.0361V6.58105H74.6553V11.168C74.6553 11.4642 74.7168 11.6875 74.8398 11.8379C74.9629 11.9837 75.1725 12.0566 75.4688 12.0566C75.6146 12.0566 75.8151 12.0293 76.0703 11.9746V13C75.7376 13.0911 75.4141 13.1367 75.0996 13.1367C74.5345 13.1367 74.1084 12.9658 73.8213 12.624C73.5342 12.2822 73.3906 11.7969 73.3906 11.168V6.58105H72.0439V5.60352H73.3906V3.8125H74.6553ZM80.5889 13.1367C79.5863 13.1367 78.7705 12.8086 78.1416 12.1523C77.5127 11.4915 77.1982 10.6097 77.1982 9.50684V9.27441C77.1982 8.54069 77.3372 7.88672 77.6152 7.3125C77.8978 6.73372 78.2897 6.28255 78.791 5.95898C79.2969 5.63086 79.8438 5.4668 80.4316 5.4668C81.3932 5.4668 82.1406 5.78353 82.6738 6.41699C83.207 7.05046 83.4736 7.95736 83.4736 9.1377V9.66406H78.4629C78.4811 10.3932 78.693 10.9834 79.0986 11.4346C79.5088 11.8812 80.0283 12.1045 80.6572 12.1045C81.1038 12.1045 81.4821 12.0133 81.792 11.8311C82.1019 11.6488 82.373 11.4072 82.6055 11.1064L83.3779 11.708C82.7581 12.6605 81.8285 13.1367 80.5889 13.1367ZM80.4316 6.50586C79.9212 6.50586 79.4928 6.69271 79.1465 7.06641C78.8001 7.43555 78.5859 7.95508 78.5039 8.625H82.209V8.5293C82.1725 7.88672 81.9993 7.38997 81.6895 7.03906C81.3796 6.68359 80.9603 6.50586 80.4316 6.50586Z" fill="#41D17A"/>
</svg>
