<svg width="396" height="112" viewBox="0 0 396 112" fill="none" xmlns="http://www.w3.org/2000/svg">
<path d="M6.65137 10.4023H2.48145L1.54492 13H0.191406L3.99219 3.04688H5.14062L8.94824 13H7.60156L6.65137 10.4023ZM2.87793 9.32227H6.26172L4.56641 4.66699L2.87793 9.32227ZM13.665 6.73828C13.4736 6.70638 13.2663 6.69043 13.043 6.69043C12.2135 6.69043 11.6507 7.04362 11.3545 7.75V13H10.0898V5.60352H11.3203L11.3408 6.45801C11.7555 5.7972 12.3434 5.4668 13.1045 5.4668C13.3506 5.4668 13.5374 5.4987 13.665 5.5625V6.73828ZM17.6641 12.1045C18.1152 12.1045 18.5094 11.9678 18.8467 11.6943C19.1839 11.4209 19.3708 11.0791 19.4072 10.6689H20.6035C20.5807 11.0928 20.4349 11.4961 20.166 11.8789C19.8971 12.2617 19.5371 12.5671 19.0859 12.7949C18.6393 13.0228 18.1654 13.1367 17.6641 13.1367C16.6569 13.1367 15.8548 12.8018 15.2578 12.1318C14.6654 11.4574 14.3691 10.5368 14.3691 9.37012V9.1582C14.3691 8.43815 14.5013 7.79785 14.7656 7.2373C15.0299 6.67676 15.4082 6.24154 15.9004 5.93164C16.3971 5.62174 16.9827 5.4668 17.6572 5.4668C18.4867 5.4668 19.1748 5.71517 19.7217 6.21191C20.2731 6.70866 20.5671 7.35352 20.6035 8.14648H19.4072C19.3708 7.66797 19.1885 7.27604 18.8604 6.9707C18.5368 6.66081 18.1357 6.50586 17.6572 6.50586C17.0146 6.50586 16.5156 6.73828 16.1602 7.20312C15.8092 7.66341 15.6338 8.33105 15.6338 9.20605V9.44531C15.6338 10.2975 15.8092 10.9538 16.1602 11.4141C16.5111 11.8743 17.0124 12.1045 17.6641 12.1045ZM26.332 11.0381C26.332 10.6963 26.2021 10.432 25.9424 10.2451C25.6872 10.0537 25.2383 9.88965 24.5957 9.75293C23.9577 9.61621 23.4495 9.45215 23.0713 9.26074C22.6976 9.06934 22.4196 8.84147 22.2373 8.57715C22.0596 8.31283 21.9707 7.99837 21.9707 7.63379C21.9707 7.02767 22.2259 6.51497 22.7363 6.0957C23.2513 5.67643 23.9076 5.4668 24.7051 5.4668C25.5436 5.4668 26.2227 5.68327 26.7422 6.11621C27.2663 6.54915 27.5283 7.10286 27.5283 7.77734H26.2568C26.2568 7.43099 26.1087 7.13249 25.8125 6.88184C25.5208 6.63118 25.1517 6.50586 24.7051 6.50586C24.2448 6.50586 23.8848 6.60612 23.625 6.80664C23.3652 7.00716 23.2354 7.26921 23.2354 7.59277C23.2354 7.89811 23.3561 8.12826 23.5977 8.2832C23.8392 8.43815 24.2744 8.58626 24.9033 8.72754C25.5368 8.86882 26.0495 9.03743 26.4414 9.2334C26.8333 9.42936 27.1227 9.66634 27.3096 9.94434C27.501 10.2178 27.5967 10.5527 27.5967 10.9492C27.5967 11.61 27.3324 12.141 26.8037 12.542C26.2751 12.9385 25.5892 13.1367 24.7461 13.1367C24.1536 13.1367 23.6296 13.0319 23.1738 12.8223C22.7181 12.6126 22.3604 12.321 22.1006 11.9473C21.8454 11.569 21.7178 11.1611 21.7178 10.7236H22.9824C23.0052 11.1475 23.1738 11.4847 23.4883 11.7354C23.8073 11.9814 24.2266 12.1045 24.7461 12.1045C25.2246 12.1045 25.6074 12.0088 25.8945 11.8174C26.1862 11.6214 26.332 11.3617 26.332 11.0381ZM30.6182 13H29.3535V5.60352H30.6182V13ZM29.251 3.6416C29.251 3.43652 29.3125 3.26335 29.4355 3.12207C29.5632 2.98079 29.75 2.91016 29.9961 2.91016C30.2422 2.91016 30.429 2.98079 30.5566 3.12207C30.6842 3.26335 30.748 3.43652 30.748 3.6416C30.748 3.84668 30.6842 4.01758 30.5566 4.1543C30.429 4.29102 30.2422 4.35938 29.9961 4.35938C29.75 4.35938 29.5632 4.29102 29.4355 4.1543C29.3125 4.01758 29.251 3.84668 29.251 3.6416ZM33.8447 5.60352L33.8857 6.5332C34.4508 5.82227 35.1891 5.4668 36.1006 5.4668C37.6637 5.4668 38.4521 6.34863 38.4658 8.1123V13H37.2012V8.10547C37.1966 7.57227 37.0736 7.17806 36.832 6.92285C36.5951 6.66764 36.2236 6.54004 35.7178 6.54004C35.3076 6.54004 34.9476 6.64941 34.6377 6.86816C34.3278 7.08691 34.0863 7.37402 33.9131 7.72949V13H32.6484V5.60352H33.8447ZM40.3252 8.95996C40.3252 7.93001 40.4619 6.94108 40.7354 5.99316C41.0133 5.04525 41.4258 4.18392 41.9727 3.40918C42.5195 2.63444 43.0869 2.08757 43.6748 1.76855L43.9346 2.60254C43.2692 3.11296 42.7223 3.89225 42.2939 4.94043C41.8701 5.98861 41.6377 7.16211 41.5967 8.46094L41.5898 9.04199C41.5898 10.8011 41.9111 12.3278 42.5537 13.6221C42.9411 14.3968 43.4014 15.0029 43.9346 15.4404L43.6748 16.2129C43.0687 15.8757 42.4899 15.3105 41.9385 14.5176C40.863 12.9681 40.3252 11.1156 40.3252 8.95996ZM49.7246 12.2686C49.2324 12.8473 48.5101 13.1367 47.5576 13.1367C46.7692 13.1367 46.1676 12.9089 45.7529 12.4531C45.3428 11.9928 45.1354 11.3138 45.1309 10.416V5.60352H46.3955V10.3818C46.3955 11.5029 46.8512 12.0635 47.7627 12.0635C48.7288 12.0635 49.3714 11.7035 49.6904 10.9834V5.60352H50.9551V13H49.752L49.7246 12.2686ZM55.8018 9.02832C55.8018 10.0446 55.6673 11.0199 55.3984 11.9541C55.1341 12.8838 54.7262 13.7428 54.1748 14.5312C53.6279 15.3197 53.0537 15.8802 52.4521 16.2129L52.1855 15.4404C52.8874 14.9027 53.4502 14.0687 53.874 12.9385C54.3024 11.8037 54.5212 10.5459 54.5303 9.16504V8.94629C54.5303 7.98926 54.43 7.10059 54.2295 6.28027C54.029 5.4554 53.7487 4.71712 53.3887 4.06543C53.0332 3.41374 52.6322 2.9056 52.1855 2.54102L52.4521 1.76855C53.0537 2.10124 53.6257 2.65723 54.168 3.43652C54.7148 4.21582 55.1227 5.07487 55.3916 6.01367C55.665 6.95247 55.8018 7.95736 55.8018 9.02832Z" fill="#41D17A"/>
<line x1="40" y1="58" x2="204.305" y2="58" stroke="white" stroke-width="2"/>
<path d="M120.217 44.4121C120.217 45.0918 120.252 45.6074 120.322 45.959C120.404 46.2988 120.539 46.5801 120.727 46.8027C120.926 47.0137 121.207 47.1836 121.57 47.3125C121.934 47.4297 122.391 47.5234 122.941 47.5938C123.492 47.6523 124.219 47.6934 125.121 47.7168V49H112.131V47.7168C113.432 47.6582 114.357 47.582 114.908 47.4883C115.471 47.3828 115.898 47.2305 116.191 47.0312C116.484 46.832 116.695 46.5508 116.824 46.1875C116.965 45.8242 117.035 45.2324 117.035 44.4121V30.1562C117.035 29.6875 116.953 29.3477 116.789 29.1367C116.625 28.9141 116.385 28.8027 116.068 28.8027C115.693 28.8027 115.16 28.9961 114.469 29.3828C113.777 29.7695 112.922 30.3027 111.902 30.9824L111.129 29.6289L119.355 24.7246H120.322C120.252 25.8496 120.217 27.4082 120.217 29.4004V44.4121Z" fill="white"/>
<path d="M76.3809 84.2129L82.5859 97.8535L91.2695 67.8477H95.752V70.1855H92.5703L83.1133 102.494H81.4082L74.1309 86.8496L71.1602 88.168L70.6152 86.8496L76.3809 84.2129ZM105.877 96.4121C105.877 97.0918 105.912 97.6074 105.982 97.959C106.064 98.2988 106.199 98.5801 106.387 98.8027C106.586 99.0137 106.867 99.1836 107.23 99.3125C107.594 99.4297 108.051 99.5234 108.602 99.5938C109.152 99.6523 109.879 99.6934 110.781 99.7168V101H97.791V99.7168C99.0918 99.6582 100.018 99.582 100.568 99.4883C101.131 99.3828 101.559 99.2305 101.852 99.0312C102.145 98.832 102.355 98.5508 102.484 98.1875C102.625 97.8242 102.695 97.2324 102.695 96.4121V82.1562C102.695 81.6875 102.613 81.3477 102.449 81.1367C102.285 80.9141 102.045 80.8027 101.729 80.8027C101.354 80.8027 100.82 80.9961 100.129 81.3828C99.4375 81.7695 98.582 82.3027 97.5625 82.9824L96.7891 81.6289L105.016 76.7246H105.982C105.912 77.8496 105.877 79.4082 105.877 81.4004V96.4121ZM131.594 93.1074H123.438V90.3828H131.594V93.1074ZM150.578 90.8574L152.863 87.957C153.109 87.6406 153.309 87.3359 153.461 87.043C153.613 86.7383 153.689 86.4277 153.689 86.1113C153.689 85.8418 153.59 85.6191 153.391 85.4434C153.191 85.2676 152.881 85.1387 152.459 85.0566V84.1953H158.207V85.0566C157.762 85.1855 157.305 85.4375 156.836 85.8125C156.379 86.1875 155.816 86.791 155.148 87.623L151.51 92.0879L155.518 97.4844C156.092 98.2578 156.607 98.8496 157.064 99.2598C157.521 99.6699 157.979 99.9629 158.436 100.139V101H151.369V100.139C152.342 100.021 152.828 99.6582 152.828 99.0488C152.828 98.8027 152.787 98.5684 152.705 98.3457C152.623 98.123 152.471 97.8652 152.248 97.5723L149.699 94.0215L146.992 97.5371C146.793 97.7949 146.635 98.0352 146.518 98.2578C146.412 98.4688 146.359 98.709 146.359 98.9785C146.359 99.2949 146.465 99.5586 146.676 99.7695C146.898 99.9688 147.244 100.092 147.713 100.139V101H141.842V100.139C142.229 99.998 142.574 99.8223 142.879 99.6113C143.195 99.4004 143.512 99.1309 143.828 98.8027C144.156 98.4629 144.584 97.9707 145.111 97.3262L148.768 92.791L145.023 87.6582C144.508 86.9551 144.098 86.4453 143.793 86.1289C143.488 85.8125 143.207 85.5723 142.949 85.4082C142.691 85.2441 142.434 85.127 142.176 85.0566V84.1953H149.066V85.0566C148.141 85.1973 147.678 85.5605 147.678 86.1465C147.678 86.416 147.736 86.6855 147.854 86.9551C147.982 87.2246 148.176 87.5234 148.434 87.8516L150.578 90.8574ZM167.734 84.4414C168.145 84.4414 168.455 84.4238 168.666 84.3887C168.889 84.3418 169.064 84.2773 169.193 84.1953C169.322 84.1133 169.428 84.0078 169.51 83.8789C169.604 83.75 169.738 83.4688 169.914 83.0352H171.127L170.881 86.4277H160.58V85.7598C160.979 84.9043 161.518 84.0605 162.197 83.2285C162.877 82.3965 163.674 81.541 164.588 80.6621C165.678 79.6191 166.451 78.834 166.908 78.3066C167.365 77.7676 167.705 77.2637 167.928 76.7949C168.15 76.3145 168.262 75.834 168.262 75.3535C168.262 74.5566 168.033 73.9297 167.576 73.4727C167.131 73.0156 166.486 72.7871 165.643 72.7871C164.916 72.7871 164.295 72.9805 163.779 73.3672C163.275 73.7539 162.889 74.3223 162.619 75.0723H160.949V72.6992C161.992 72.2773 162.953 71.9785 163.832 71.8027C164.711 71.6152 165.49 71.5215 166.17 71.5215C167.096 71.5215 167.857 71.6211 168.455 71.8203C169.064 72.0195 169.551 72.2832 169.914 72.6113C170.277 72.9277 170.529 73.3027 170.67 73.7363C170.822 74.1699 170.898 74.6152 170.898 75.0723C170.898 75.6465 170.781 76.1855 170.547 76.6895C170.312 77.1816 169.926 77.7207 169.387 78.3066C168.859 78.8809 167.916 79.7832 166.557 81.0137C165.104 82.3379 164.049 83.4805 163.393 84.4414H167.734Z" fill="white"/>
<path d="M225.865 66.4863L225.602 66.416C224.582 67.459 223.621 68.1973 222.719 68.6309C221.828 69.0645 220.879 69.2812 219.871 69.2812C218.98 69.2812 218.195 69.1113 217.516 68.7715C216.836 68.4199 216.314 67.9336 215.951 67.3125C215.588 66.6797 215.406 65.9531 215.406 65.1328C215.406 63.4219 216.25 62.1035 217.938 61.1777C219.637 60.2402 222.18 59.6953 225.566 59.543V58.4004C225.566 57.1816 225.449 56.2207 225.215 55.5176C224.98 54.8145 224.611 54.2988 224.107 53.9707C223.604 53.6426 222.93 53.4785 222.086 53.4785C221.172 53.4785 220.434 53.7188 219.871 54.1992C219.32 54.6797 218.904 55.4004 218.623 56.3613H216.32V54.0762C217.445 53.4902 218.383 53.0625 219.133 52.793C219.883 52.5117 220.633 52.2949 221.383 52.1426C222.133 51.9785 222.895 51.8965 223.668 51.8965C224.828 51.8965 225.76 52.084 226.463 52.459C227.166 52.8223 227.693 53.3848 228.045 54.1465C228.396 54.9082 228.572 56.0566 228.572 57.5918V63.709C228.572 64.5762 228.578 65.1914 228.59 65.5547C228.602 65.9062 228.637 66.2344 228.695 66.5391C228.754 66.8438 228.842 67.0898 228.959 67.2773C229.076 67.4531 229.246 67.6055 229.469 67.7344C229.703 67.8633 230.078 67.998 230.594 68.1387V69H225.777L225.865 66.4863ZM225.566 60.9844C223.188 61.0078 221.406 61.3242 220.223 61.9336C219.039 62.543 218.447 63.4629 218.447 64.6934C218.447 65.3613 218.582 65.8887 218.852 66.2754C219.121 66.6621 219.461 66.9316 219.871 67.084C220.281 67.2246 220.768 67.2949 221.33 67.2949C222.127 67.2949 222.848 67.1016 223.492 66.7148C224.148 66.3281 224.658 65.8359 225.021 65.2383C225.385 64.6406 225.566 64.0488 225.566 63.4629V60.9844ZM238.029 55.1133L238.275 55.166C238.92 54.3809 239.518 53.7656 240.068 53.3203C240.619 52.8633 241.211 52.5117 241.844 52.2656C242.488 52.0195 243.215 51.8965 244.023 51.8965C244.703 51.8965 245.318 51.9316 245.869 52.002V56.0449H243.883C243.602 55.4121 243.303 54.9551 242.986 54.6738C242.67 54.3809 242.236 54.2344 241.686 54.2344C241.264 54.2344 240.842 54.3574 240.42 54.6035C240.01 54.8496 239.611 55.207 239.225 55.6758C238.838 56.1445 238.568 56.584 238.416 56.9941C238.275 57.4043 238.205 57.8906 238.205 58.4531V64.6055C238.205 65.6719 238.27 66.4102 238.398 66.8203C238.527 67.2188 238.738 67.5117 239.031 67.6992C239.336 67.8867 239.787 68.0332 240.385 68.1387V69H233.301V68.1387C233.746 67.998 234.062 67.875 234.25 67.7695C234.449 67.6641 234.619 67.5176 234.76 67.3301C234.9 67.1426 235.006 66.8555 235.076 66.4688C235.146 66.082 235.182 65.4785 235.182 64.6582V56.9941C235.182 56.2441 235.17 55.6406 235.146 55.1836C235.123 54.7266 235.041 54.3633 234.9 54.0938C234.76 53.8125 234.543 53.6074 234.25 53.4785C233.969 53.3379 233.564 53.2207 233.037 53.127V52.2129L237.15 52.0371H238.223L238.029 55.1133ZM260.758 52.5996V56.2734H258.525C258.326 55.5117 258.08 54.9141 257.787 54.4805C257.494 54.0352 257.154 53.7246 256.768 53.5488C256.381 53.373 255.9 53.2852 255.326 53.2852C254.506 53.2852 253.779 53.5488 253.146 54.0762C252.514 54.6035 252.01 55.4062 251.635 56.4844C251.271 57.5625 251.09 58.8809 251.09 60.4395C251.09 61.4355 251.16 62.3496 251.301 63.1816C251.441 64.002 251.682 64.7051 252.021 65.291C252.361 65.877 252.812 66.334 253.375 66.6621C253.938 66.9902 254.635 67.1543 255.467 67.1543C256.275 67.1543 257.025 66.9961 257.717 66.6797C258.42 66.3633 259.146 65.8066 259.896 65.0098L260.898 66.1699C260.301 66.8262 259.773 67.3359 259.316 67.6992C258.859 68.0508 258.367 68.3496 257.84 68.5957C257.324 68.8301 256.809 69 256.293 69.1055C255.789 69.2227 255.238 69.2812 254.641 69.2812C252.426 69.2812 250.732 68.5488 249.561 67.084C248.389 65.6074 247.803 63.4805 247.803 60.7031C247.803 58.9688 248.131 57.4336 248.787 56.0977C249.443 54.75 250.363 53.7129 251.547 52.9863C252.73 52.2598 254.096 51.8965 255.643 51.8965C256.604 51.8965 257.488 51.9551 258.297 52.0723C259.117 52.1777 259.938 52.3535 260.758 52.5996ZM283.275 56.0449H281.588C281.33 55.3418 281.025 54.791 280.674 54.3926C280.322 53.9824 279.924 53.6953 279.479 53.5312C279.033 53.3672 278.488 53.2852 277.844 53.2852C276.906 53.2852 276.156 53.5078 275.594 53.9531C275.043 54.3867 274.768 54.9844 274.768 55.7461C274.768 56.2852 274.879 56.7305 275.102 57.082C275.324 57.4336 275.67 57.7617 276.139 58.0664C276.607 58.3711 277.434 58.7754 278.617 59.2793C279.812 59.7949 280.732 60.2695 281.377 60.7031C282.033 61.1367 282.543 61.6406 282.906 62.2148C283.281 62.7891 283.469 63.4746 283.469 64.2715C283.469 65.1973 283.311 65.9766 282.994 66.6094C282.678 67.2422 282.232 67.7578 281.658 68.1562C281.084 68.5547 280.398 68.8418 279.602 69.0176C278.816 69.1934 277.955 69.2812 277.018 69.2812C276.033 69.2812 275.078 69.2051 274.152 69.0527C273.227 68.9121 272.324 68.7246 271.445 68.4902V64.8164H273.168C273.484 65.8945 273.953 66.6797 274.574 67.1719C275.195 67.6523 276.051 67.8926 277.141 67.8926C277.562 67.8926 277.973 67.8516 278.371 67.7695C278.781 67.6758 279.145 67.5293 279.461 67.3301C279.777 67.1191 280.029 66.8379 280.217 66.4863C280.404 66.1348 280.498 65.6953 280.498 65.168C280.498 64.5703 280.381 64.084 280.146 63.709C279.912 63.334 279.549 62.9941 279.057 62.6895C278.564 62.373 277.697 61.9512 276.455 61.4238C275.389 60.9785 274.533 60.5449 273.889 60.123C273.244 59.7012 272.734 59.2031 272.359 58.6289C271.996 58.0547 271.814 57.375 271.814 56.5898C271.814 55.6289 272.072 54.7969 272.588 54.0938C273.115 53.3789 273.871 52.834 274.855 52.459C275.84 52.084 276.994 51.8965 278.318 51.8965C279.092 51.8965 279.836 51.9375 280.551 52.0195C281.277 52.0898 282.186 52.2363 283.275 52.459V56.0449ZM291.994 45.3047V48.7148H288.76V45.3047H291.994ZM286.967 68.1387C287.424 67.998 287.746 67.875 287.934 67.7695C288.133 67.6641 288.297 67.5176 288.426 67.3301C288.566 67.1426 288.672 66.8555 288.742 66.4688C288.824 66.082 288.865 65.4785 288.865 64.6582V56.9941C288.865 56.2441 288.854 55.6406 288.83 55.1836C288.807 54.7266 288.725 54.3633 288.584 54.0938C288.443 53.8125 288.227 53.6074 287.934 53.4785C287.652 53.3379 287.248 53.2207 286.721 53.127V52.1953L290.816 52.0371H291.889V64.6055C291.889 65.6133 291.936 66.3164 292.029 66.7148C292.123 67.1016 292.299 67.4004 292.557 67.6113C292.826 67.8105 293.26 67.9863 293.857 68.1387V69H286.967V68.1387ZM314.107 69H307.182V68.1387C307.639 67.998 307.967 67.875 308.166 67.7695C308.365 67.6641 308.529 67.5176 308.658 67.3301C308.799 67.1426 308.904 66.8555 308.975 66.4688C309.057 66.0703 309.098 65.4727 309.098 64.6758V60.0703C309.098 59.25 309.074 58.5059 309.027 57.8379C308.98 57.1699 308.898 56.625 308.781 56.2031C308.676 55.7695 308.541 55.4355 308.377 55.2012C308.225 54.9551 308.037 54.75 307.814 54.5859C307.604 54.4102 307.357 54.2754 307.076 54.1816C306.795 54.0762 306.426 54.0234 305.969 54.0234C305.512 54.0234 305.078 54.1172 304.668 54.3047C304.258 54.4805 303.807 54.791 303.314 55.2363C302.822 55.6816 302.465 56.1211 302.242 56.5547C302.02 56.9883 301.908 57.4863 301.908 58.0488V64.6055C301.908 65.6133 301.955 66.3164 302.049 66.7148C302.143 67.1016 302.318 67.4004 302.576 67.6113C302.846 67.8105 303.279 67.9863 303.877 68.1387V69H296.986V68.1387C297.443 67.998 297.766 67.875 297.953 67.7695C298.152 67.6641 298.316 67.5176 298.445 67.3301C298.586 67.1426 298.691 66.8555 298.762 66.4688C298.844 66.082 298.885 65.4785 298.885 64.6582V56.9941C298.885 56.2441 298.873 55.6406 298.85 55.1836C298.826 54.7266 298.744 54.3633 298.604 54.0938C298.463 53.8125 298.246 53.6074 297.953 53.4785C297.672 53.3379 297.268 53.2207 296.74 53.127V52.1953L300.854 52.0371H301.926L301.732 54.9023L301.979 54.9727C302.846 54.0938 303.543 53.4668 304.07 53.0918C304.609 52.7168 305.148 52.4297 305.688 52.2305C306.238 52.0195 306.818 51.9141 307.428 51.9141C308.061 51.9141 308.623 51.9902 309.115 52.1426C309.619 52.2832 310.059 52.5059 310.434 52.8105C310.82 53.1152 311.137 53.4961 311.383 53.9531C311.629 54.3984 311.811 54.9375 311.928 55.5703C312.057 56.2031 312.121 57.0059 312.121 57.9785V64.6055C312.121 65.4141 312.145 66 312.191 66.3633C312.238 66.7266 312.32 67.0078 312.438 67.207C312.555 67.4062 312.725 67.5762 312.947 67.7168C313.17 67.8457 313.557 67.9863 314.107 68.1387V69ZM324.531 58.8574L326.816 55.957C327.062 55.6406 327.262 55.3359 327.414 55.043C327.566 54.7383 327.643 54.4277 327.643 54.1113C327.643 53.8418 327.543 53.6191 327.344 53.4434C327.145 53.2676 326.834 53.1387 326.412 53.0566V52.1953H332.16V53.0566C331.715 53.1855 331.258 53.4375 330.789 53.8125C330.332 54.1875 329.77 54.791 329.102 55.623L325.463 60.0879L329.471 65.4844C330.045 66.2578 330.561 66.8496 331.018 67.2598C331.475 67.6699 331.932 67.9629 332.389 68.1387V69H325.322V68.1387C326.295 68.0215 326.781 67.6582 326.781 67.0488C326.781 66.8027 326.74 66.5684 326.658 66.3457C326.576 66.123 326.424 65.8652 326.201 65.5723L323.652 62.0215L320.945 65.5371C320.746 65.7949 320.588 66.0352 320.471 66.2578C320.365 66.4688 320.312 66.709 320.312 66.9785C320.312 67.2949 320.418 67.5586 320.629 67.7695C320.852 67.9688 321.197 68.0918 321.666 68.1387V69H315.795V68.1387C316.182 67.998 316.527 67.8223 316.832 67.6113C317.148 67.4004 317.465 67.1309 317.781 66.8027C318.109 66.4629 318.537 65.9707 319.064 65.3262L322.721 60.791L318.977 55.6582C318.461 54.9551 318.051 54.4453 317.746 54.1289C317.441 53.8125 317.16 53.5723 316.902 53.4082C316.645 53.2441 316.387 53.127 316.129 53.0566V52.1953H323.02V53.0566C322.094 53.1973 321.631 53.5605 321.631 54.1465C321.631 54.416 321.689 54.6855 321.807 54.9551C321.936 55.2246 322.129 55.5234 322.387 55.8516L324.531 58.8574ZM355.434 59.877V70.002H352.938V59.877H343.357V57.5391H352.938V47.4141H355.434V57.5391H365.014V59.877H355.434ZM393.895 45.5156V50.3848H392.154C391.873 49.3652 391.516 48.5566 391.082 47.959C390.648 47.3496 390.145 46.916 389.57 46.6582C388.996 46.4004 388.305 46.2715 387.496 46.2715C386.289 46.2715 385.211 46.6758 384.262 47.4844C383.324 48.2812 382.586 49.4883 382.047 51.1055C381.508 52.7109 381.238 54.6562 381.238 56.9414C381.238 59.2383 381.461 61.2012 381.906 62.8301C382.352 64.4473 383.008 65.6719 383.875 66.5039C384.742 67.3242 385.809 67.7344 387.074 67.7344C388.035 67.7344 388.82 67.5996 389.43 67.3301C390.039 67.0488 390.549 66.6094 390.959 66.0117C391.381 65.4141 391.779 64.5352 392.154 63.375H393.895V68.4023C392.793 68.6953 391.662 68.9121 390.502 69.0527C389.354 69.2051 388.088 69.2812 386.705 69.2812C383.729 69.2812 381.479 68.2734 379.955 66.2578C378.432 64.2422 377.67 61.2363 377.67 57.2402C377.67 54.7324 378.062 52.5352 378.848 50.6484C379.645 48.7617 380.811 47.3027 382.346 46.2715C383.881 45.2402 385.715 44.7246 387.848 44.7246C388.914 44.7246 389.898 44.7832 390.801 44.9004C391.703 45.0059 392.734 45.2109 393.895 45.5156Z" fill="white"/>
<path d="M36.5273 42.4199H34.7168C34.623 41.9043 34.4355 41.4824 34.1543 41.1543C33.873 40.8145 33.498 40.6445 33.0293 40.6445C31.7754 40.6445 30.9492 41.6641 30.5508 43.7031C30.1641 45.7305 29.9707 50.3887 29.9707 57.6777C29.9707 63.7246 29.4141 68.5234 28.3008 72.0742C27.1992 75.625 25.248 77.4004 22.4473 77.4004C21.8848 77.4004 21.3926 77.3535 20.9707 77.2598C20.5488 77.166 20.1387 77.0137 19.7402 76.8027L19.9688 73.3398H21.6211C21.7734 73.9023 21.9961 74.3652 22.2891 74.7285C22.5938 75.0918 23.0215 75.2734 23.5723 75.2734C24.8027 75.2734 25.5762 73.9961 25.8926 71.4414C26.209 68.8984 26.3672 65.1836 26.3672 60.2969C26.3672 52.6797 26.9414 47.1309 28.0898 43.6504C29.25 40.1699 31.2539 38.4297 34.1016 38.4297C34.5117 38.4297 34.9629 38.4883 35.4551 38.6055C35.959 38.7109 36.3867 38.8457 36.7383 39.0098L36.5273 42.4199Z" fill="white"/>
</svg>
