<svg width="229" height="40" viewBox="0 0 229 40" fill="none" xmlns="http://www.w3.org/2000/svg">
<path d="M17.5273 4.41992H15.7168C15.623 3.9043 15.4355 3.48242 15.1543 3.1543C14.873 2.81445 14.498 2.64453 14.0293 2.64453C12.7754 2.64453 11.9492 3.66406 11.5508 5.70312C11.1641 7.73047 10.9707 12.3887 10.9707 19.6777C10.9707 25.7246 10.4141 30.5234 9.30078 34.0742C8.19922 37.625 6.24805 39.4004 3.44727 39.4004C2.88477 39.4004 2.39258 39.3535 1.9707 39.2598C1.54883 39.166 1.13867 39.0137 0.740234 38.8027L0.96875 35.3398H2.62109C2.77344 35.9023 2.99609 36.3652 3.28906 36.7285C3.59375 37.0918 4.02148 37.2734 4.57227 37.2734C5.80273 37.2734 6.57617 35.9961 6.89258 33.4414C7.20898 30.8984 7.36719 27.1836 7.36719 22.2969C7.36719 14.6797 7.94141 9.13086 9.08984 5.65039C10.25 2.16992 12.2539 0.429688 15.1016 0.429688C15.5117 0.429688 15.9629 0.488281 16.4551 0.605469C16.959 0.710938 17.3867 0.845703 17.7383 1.00977L17.5273 4.41992ZM31.9941 29.4863L31.7305 29.416C30.7109 30.459 29.75 31.1973 28.8477 31.6309C27.957 32.0645 27.0078 32.2812 26 32.2812C25.1094 32.2812 24.3242 32.1113 23.6445 31.7715C22.9648 31.4199 22.4434 30.9336 22.0801 30.3125C21.7168 29.6797 21.5352 28.9531 21.5352 28.1328C21.5352 26.4219 22.3789 25.1035 24.0664 24.1777C25.7656 23.2402 28.3086 22.6953 31.6953 22.543V21.4004C31.6953 20.1816 31.5781 19.2207 31.3438 18.5176C31.1094 17.8145 30.7402 17.2988 30.2363 16.9707C29.7324 16.6426 29.0586 16.4785 28.2148 16.4785C27.3008 16.4785 26.5625 16.7188 26 17.1992C25.4492 17.6797 25.0332 18.4004 24.752 19.3613H22.4492V17.0762C23.5742 16.4902 24.5117 16.0625 25.2617 15.793C26.0117 15.5117 26.7617 15.2949 27.5117 15.1426C28.2617 14.9785 29.0234 14.8965 29.7969 14.8965C30.957 14.8965 31.8887 15.084 32.5918 15.459C33.2949 15.8223 33.8223 16.3848 34.1738 17.1465C34.5254 17.9082 34.7012 19.0566 34.7012 20.5918V26.709C34.7012 27.5762 34.707 28.1914 34.7188 28.5547C34.7305 28.9062 34.7656 29.2344 34.8242 29.5391C34.8828 29.8438 34.9707 30.0898 35.0879 30.2773C35.2051 30.4531 35.375 30.6055 35.5977 30.7344C35.832 30.8633 36.207 30.998 36.7227 31.1387V32H31.9062L31.9941 29.4863ZM31.6953 23.9844C29.3164 24.0078 27.5352 24.3242 26.3516 24.9336C25.168 25.543 24.5762 26.4629 24.5762 27.6934C24.5762 28.3613 24.7109 28.8887 24.9805 29.2754C25.25 29.6621 25.5898 29.9316 26 30.084C26.4102 30.2246 26.8965 30.2949 27.459 30.2949C28.2559 30.2949 28.9766 30.1016 29.6211 29.7148C30.2773 29.3281 30.7871 28.8359 31.1504 28.2383C31.5137 27.6406 31.6953 27.0488 31.6953 26.4629V23.9844ZM68.6797 12.8926C68.6797 11.7676 68.668 10.9824 68.6445 10.5371C68.6328 10.0918 68.5859 9.7168 68.5039 9.41211C68.4336 9.0957 68.3281 8.84961 68.1875 8.67383C68.0586 8.49805 67.877 8.35742 67.6426 8.25195C67.4199 8.14648 67.0098 8.04102 66.4121 7.93555V7.02148L70.666 6.8457H71.7031V27.2012C71.7031 28.1152 71.7207 28.7715 71.7559 29.1699C71.791 29.5566 71.8672 29.8672 71.9844 30.1016C72.1016 30.3359 72.2832 30.5293 72.5293 30.6816C72.7871 30.8223 73.2324 30.957 73.8652 31.0859V32L69.7168 32.1758H68.6621L68.873 29.293L68.6094 29.2227C67.8711 30.0078 67.2266 30.5996 66.6758 30.998C66.1367 31.3848 65.5566 31.6953 64.9355 31.9297C64.3262 32.1641 63.6699 32.2812 62.9668 32.2812C61.0449 32.2812 59.5625 31.5547 58.5195 30.1016C57.4766 28.6367 56.9551 26.5273 56.9551 23.7734C56.9551 21.8516 57.2949 20.2227 57.9746 18.8867C58.6543 17.5391 59.5684 16.5371 60.7168 15.8809C61.877 15.2246 63.1777 14.8965 64.6191 14.8965C65.3926 14.8965 66.0957 14.9609 66.7285 15.0898C67.3613 15.207 68.0117 15.4062 68.6797 15.6875V12.8926ZM68.6797 21.5762C68.6797 20.6621 68.6387 19.9297 68.5566 19.3789C68.4746 18.8281 68.334 18.3652 68.1348 17.9902C67.9473 17.6152 67.6895 17.2988 67.3613 17.041C67.0332 16.7832 66.6699 16.5957 66.2715 16.4785C65.8848 16.3613 65.416 16.3027 64.8652 16.3027C63.3652 16.3027 62.2227 16.9062 61.4375 18.1133C60.6523 19.3086 60.2598 21.0312 60.2598 23.2812C60.2598 25.5312 60.582 27.2422 61.2266 28.4141C61.8711 29.5859 62.8496 30.1719 64.1621 30.1719C64.6777 30.1719 65.1055 30.1309 65.4453 30.0488C65.7852 29.9551 66.1191 29.8145 66.4473 29.627C66.7754 29.4277 67.1094 29.1582 67.4492 28.8184C67.7891 28.4785 68.0352 28.168 68.1875 27.8867C68.3516 27.6055 68.4746 27.2832 68.5566 26.9199C68.6387 26.5566 68.6797 26.0879 68.6797 25.5137V21.5762ZM84.2188 21.8574L86.5039 18.957C86.75 18.6406 86.9492 18.3359 87.1016 18.043C87.2539 17.7383 87.3301 17.4277 87.3301 17.1113C87.3301 16.8418 87.2305 16.6191 87.0312 16.4434C86.832 16.2676 86.5215 16.1387 86.0996 16.0566V15.1953H91.8477V16.0566C91.4023 16.1855 90.9453 16.4375 90.4766 16.8125C90.0195 17.1875 89.457 17.791 88.7891 18.623L85.1504 23.0879L89.1582 28.4844C89.7324 29.2578 90.248 29.8496 90.7051 30.2598C91.1621 30.6699 91.6191 30.9629 92.0762 31.1387V32H85.0098V31.1387C85.9824 31.0215 86.4688 30.6582 86.4688 30.0488C86.4688 29.8027 86.4277 29.5684 86.3457 29.3457C86.2637 29.123 86.1113 28.8652 85.8887 28.5723L83.3398 25.0215L80.6328 28.5371C80.4336 28.7949 80.2754 29.0352 80.1582 29.2578C80.0527 29.4688 80 29.709 80 29.9785C80 30.2949 80.1055 30.5586 80.3164 30.7695C80.5391 30.9688 80.8848 31.0918 81.3535 31.1387V32H75.4824V31.1387C75.8691 30.998 76.2148 30.8223 76.5195 30.6113C76.8359 30.4004 77.1523 30.1309 77.4688 29.8027C77.7969 29.4629 78.2246 28.9707 78.752 28.3262L82.4082 23.791L78.6641 18.6582C78.1484 17.9551 77.7383 17.4453 77.4336 17.1289C77.1289 16.8125 76.8477 16.5723 76.5898 16.4082C76.332 16.2441 76.0742 16.127 75.8164 16.0566V15.1953H82.707V16.0566C81.7812 16.1973 81.3184 16.5605 81.3184 17.1465C81.3184 17.416 81.377 17.6855 81.4941 17.9551C81.623 18.2246 81.8164 18.5234 82.0742 18.8516L84.2188 21.8574ZM103.045 19.2383V16.9004H124.701V19.2383H103.045ZM103.045 26.5332V24.1953H124.701V26.5332H103.045ZM147.131 29.4863L146.867 29.416C145.848 30.459 144.887 31.1973 143.984 31.6309C143.094 32.0645 142.145 32.2812 141.137 32.2812C140.246 32.2812 139.461 32.1113 138.781 31.7715C138.102 31.4199 137.58 30.9336 137.217 30.3125C136.854 29.6797 136.672 28.9531 136.672 28.1328C136.672 26.4219 137.516 25.1035 139.203 24.1777C140.902 23.2402 143.445 22.6953 146.832 22.543V21.4004C146.832 20.1816 146.715 19.2207 146.48 18.5176C146.246 17.8145 145.877 17.2988 145.373 16.9707C144.869 16.6426 144.195 16.4785 143.352 16.4785C142.438 16.4785 141.699 16.7188 141.137 17.1992C140.586 17.6797 140.17 18.4004 139.889 19.3613H137.586V17.0762C138.711 16.4902 139.648 16.0625 140.398 15.793C141.148 15.5117 141.898 15.2949 142.648 15.1426C143.398 14.9785 144.16 14.8965 144.934 14.8965C146.094 14.8965 147.025 15.084 147.729 15.459C148.432 15.8223 148.959 16.3848 149.311 17.1465C149.662 17.9082 149.838 19.0566 149.838 20.5918V26.709C149.838 27.5762 149.844 28.1914 149.855 28.5547C149.867 28.9062 149.902 29.2344 149.961 29.5391C150.02 29.8438 150.107 30.0898 150.225 30.2773C150.342 30.4531 150.512 30.6055 150.734 30.7344C150.969 30.8633 151.344 30.998 151.859 31.1387V32H147.043L147.131 29.4863ZM146.832 23.9844C144.453 24.0078 142.672 24.3242 141.488 24.9336C140.305 25.543 139.713 26.4629 139.713 27.6934C139.713 28.3613 139.848 28.8887 140.117 29.2754C140.387 29.6621 140.727 29.9316 141.137 30.084C141.547 30.2246 142.033 30.2949 142.596 30.2949C143.393 30.2949 144.113 30.1016 144.758 29.7148C145.414 29.3281 145.924 28.8359 146.287 28.2383C146.65 27.6406 146.832 27.0488 146.832 26.4629V23.9844ZM171.371 4.41992H169.561C169.467 3.9043 169.279 3.48242 168.998 3.1543C168.717 2.81445 168.342 2.64453 167.873 2.64453C166.619 2.64453 165.793 3.66406 165.395 5.70312C165.008 7.73047 164.814 12.3887 164.814 19.6777C164.814 25.7246 164.258 30.5234 163.145 34.0742C162.043 37.625 160.092 39.4004 157.291 39.4004C156.729 39.4004 156.236 39.3535 155.814 39.2598C155.393 39.166 154.982 39.0137 154.584 38.8027L154.812 35.3398H156.465C156.617 35.9023 156.84 36.3652 157.133 36.7285C157.438 37.0918 157.865 37.2734 158.416 37.2734C159.646 37.2734 160.42 35.9961 160.736 33.4414C161.053 30.8984 161.211 27.1836 161.211 22.2969C161.211 14.6797 161.785 9.13086 162.934 5.65039C164.094 2.16992 166.098 0.429688 168.945 0.429688C169.355 0.429688 169.807 0.488281 170.299 0.605469C170.803 0.710938 171.23 0.845703 171.582 1.00977L171.371 4.41992ZM204.945 12.8926C204.945 11.7676 204.934 10.9824 204.91 10.5371C204.898 10.0918 204.852 9.7168 204.77 9.41211C204.699 9.0957 204.594 8.84961 204.453 8.67383C204.324 8.49805 204.143 8.35742 203.908 8.25195C203.686 8.14648 203.275 8.04102 202.678 7.93555V7.02148L206.932 6.8457H207.969V27.2012C207.969 28.1152 207.986 28.7715 208.021 29.1699C208.057 29.5566 208.133 29.8672 208.25 30.1016C208.367 30.3359 208.549 30.5293 208.795 30.6816C209.053 30.8223 209.498 30.957 210.131 31.0859V32L205.982 32.1758H204.928L205.139 29.293L204.875 29.2227C204.137 30.0078 203.492 30.5996 202.941 30.998C202.402 31.3848 201.822 31.6953 201.201 31.9297C200.592 32.1641 199.936 32.2812 199.232 32.2812C197.311 32.2812 195.828 31.5547 194.785 30.1016C193.742 28.6367 193.221 26.5273 193.221 23.7734C193.221 21.8516 193.561 20.2227 194.24 18.8867C194.92 17.5391 195.834 16.5371 196.982 15.8809C198.143 15.2246 199.443 14.8965 200.885 14.8965C201.658 14.8965 202.361 14.9609 202.994 15.0898C203.627 15.207 204.277 15.4062 204.945 15.6875V12.8926ZM204.945 21.5762C204.945 20.6621 204.904 19.9297 204.822 19.3789C204.74 18.8281 204.6 18.3652 204.4 17.9902C204.213 17.6152 203.955 17.2988 203.627 17.041C203.299 16.7832 202.936 16.5957 202.537 16.4785C202.15 16.3613 201.682 16.3027 201.131 16.3027C199.631 16.3027 198.488 16.9062 197.703 18.1133C196.918 19.3086 196.525 21.0312 196.525 23.2812C196.525 25.5312 196.848 27.2422 197.492 28.4141C198.137 29.5859 199.115 30.1719 200.428 30.1719C200.943 30.1719 201.371 30.1309 201.711 30.0488C202.051 29.9551 202.385 29.8145 202.713 29.627C203.041 29.4277 203.375 29.1582 203.715 28.8184C204.055 28.4785 204.301 28.168 204.453 27.8867C204.617 27.6055 204.74 27.2832 204.822 26.9199C204.904 26.5566 204.945 26.0879 204.945 25.5137V21.5762ZM220.484 21.8574L222.77 18.957C223.016 18.6406 223.215 18.3359 223.367 18.043C223.52 17.7383 223.596 17.4277 223.596 17.1113C223.596 16.8418 223.496 16.6191 223.297 16.4434C223.098 16.2676 222.787 16.1387 222.365 16.0566V15.1953H228.113V16.0566C227.668 16.1855 227.211 16.4375 226.742 16.8125C226.285 17.1875 225.723 17.791 225.055 18.623L221.416 23.0879L225.424 28.4844C225.998 29.2578 226.514 29.8496 226.971 30.2598C227.428 30.6699 227.885 30.9629 228.342 31.1387V32H221.275V31.1387C222.248 31.0215 222.734 30.6582 222.734 30.0488C222.734 29.8027 222.693 29.5684 222.611 29.3457C222.529 29.123 222.377 28.8652 222.154 28.5723L219.605 25.0215L216.898 28.5371C216.699 28.7949 216.541 29.0352 216.424 29.2578C216.318 29.4688 216.266 29.709 216.266 29.9785C216.266 30.2949 216.371 30.5586 216.582 30.7695C216.805 30.9688 217.15 31.0918 217.619 31.1387V32H211.748V31.1387C212.135 30.998 212.48 30.8223 212.785 30.6113C213.102 30.4004 213.418 30.1309 213.734 29.8027C214.062 29.4629 214.49 28.9707 215.018 28.3262L218.674 23.791L214.93 18.6582C214.414 17.9551 214.004 17.4453 213.699 17.1289C213.395 16.8125 213.113 16.5723 212.855 16.4082C212.598 16.2441 212.34 16.127 212.082 16.0566V15.1953H218.973V16.0566C218.047 16.1973 217.584 16.5605 217.584 17.1465C217.584 17.416 217.643 17.6855 217.76 17.9551C217.889 18.2246 218.082 18.5234 218.34 18.8516L220.484 21.8574Z" fill="white"/>
<path d="M46.8477 21.8574L49.1328 18.957C49.3789 18.6406 49.5781 18.3359 49.7305 18.043C49.8828 17.7383 49.959 17.4277 49.959 17.1113C49.959 16.8418 49.8594 16.6191 49.6602 16.4434C49.4609 16.2676 49.1504 16.1387 48.7285 16.0566V15.1953H54.4766V16.0566C54.0312 16.1855 53.5742 16.4375 53.1055 16.8125C52.6484 17.1875 52.0859 17.791 51.418 18.623L47.7793 23.0879L51.7871 28.4844C52.3613 29.2578 52.877 29.8496 53.334 30.2598C53.791 30.6699 54.248 30.9629 54.7051 31.1387V32H47.6387V31.1387C48.6113 31.0215 49.0977 30.6582 49.0977 30.0488C49.0977 29.8027 49.0566 29.5684 48.9746 29.3457C48.8926 29.123 48.7402 28.8652 48.5176 28.5723L45.9688 25.0215L43.2617 28.5371C43.0625 28.7949 42.9043 29.0352 42.7871 29.2578C42.6816 29.4688 42.6289 29.709 42.6289 29.9785C42.6289 30.2949 42.7344 30.5586 42.9453 30.7695C43.168 30.9688 43.5137 31.0918 43.9824 31.1387V32H38.1113V31.1387C38.498 30.998 38.8438 30.8223 39.1484 30.6113C39.4648 30.4004 39.7812 30.1309 40.0977 29.8027C40.4258 29.4629 40.8535 28.9707 41.3809 28.3262L45.0371 23.791L41.293 18.6582C40.7773 17.9551 40.3672 17.4453 40.0625 17.1289C39.7578 16.8125 39.4766 16.5723 39.2188 16.4082C38.9609 16.2441 38.7031 16.127 38.4453 16.0566V15.1953H45.3359V16.0566C44.4102 16.1973 43.9473 16.5605 43.9473 17.1465C43.9473 17.416 44.0059 17.6855 44.123 17.9551C44.252 18.2246 44.4453 18.5234 44.7031 18.8516L46.8477 21.8574ZM183.113 21.8574L185.398 18.957C185.645 18.6406 185.844 18.3359 185.996 18.043C186.148 17.7383 186.225 17.4277 186.225 17.1113C186.225 16.8418 186.125 16.6191 185.926 16.4434C185.727 16.2676 185.416 16.1387 184.994 16.0566V15.1953H190.742V16.0566C190.297 16.1855 189.84 16.4375 189.371 16.8125C188.914 17.1875 188.352 17.791 187.684 18.623L184.045 23.0879L188.053 28.4844C188.627 29.2578 189.143 29.8496 189.6 30.2598C190.057 30.6699 190.514 30.9629 190.971 31.1387V32H183.904V31.1387C184.877 31.0215 185.363 30.6582 185.363 30.0488C185.363 29.8027 185.322 29.5684 185.24 29.3457C185.158 29.123 185.006 28.8652 184.783 28.5723L182.234 25.0215L179.527 28.5371C179.328 28.7949 179.17 29.0352 179.053 29.2578C178.947 29.4688 178.895 29.709 178.895 29.9785C178.895 30.2949 179 30.5586 179.211 30.7695C179.434 30.9688 179.779 31.0918 180.248 31.1387V32H174.377V31.1387C174.764 30.998 175.109 30.8223 175.414 30.6113C175.73 30.4004 176.047 30.1309 176.363 29.8027C176.691 29.4629 177.119 28.9707 177.646 28.3262L181.303 23.791L177.559 18.6582C177.043 17.9551 176.633 17.4453 176.328 17.1289C176.023 16.8125 175.742 16.5723 175.484 16.4082C175.227 16.2441 174.969 16.127 174.711 16.0566V15.1953H181.602V16.0566C180.676 16.1973 180.213 16.5605 180.213 17.1465C180.213 17.416 180.271 17.6855 180.389 17.9551C180.518 18.2246 180.711 18.5234 180.969 18.8516L183.113 21.8574Z" fill="#89B8FF"/>
</svg>
