<svg width="409" height="96" viewBox="0 0 409 96" fill="none" xmlns="http://www.w3.org/2000/svg">
<path d="M18.5273 31.4199H16.7168C16.623 30.9043 16.4355 30.4824 16.1543 30.1543C15.873 29.8145 15.498 29.6445 15.0293 29.6445C13.7754 29.6445 12.9492 30.6641 12.5508 32.7031C12.1641 34.7305 11.9707 39.3887 11.9707 46.6777C11.9707 52.7246 11.4141 57.5234 10.3008 61.0742C9.19922 64.625 7.24805 66.4004 4.44727 66.4004C3.88477 66.4004 3.39258 66.3535 2.9707 66.2598C2.54883 66.166 2.13867 66.0137 1.74023 65.8027L1.96875 62.3398H3.62109C3.77344 62.9023 3.99609 63.3652 4.28906 63.7285C4.59375 64.0918 5.02148 64.2734 5.57227 64.2734C6.80273 64.2734 7.57617 62.9961 7.89258 60.4414C8.20898 57.8984 8.36719 54.1836 8.36719 49.2969C8.36719 41.6797 8.94141 36.1309 10.0898 32.6504C11.25 29.1699 13.2539 27.4297 16.1016 27.4297C16.5117 27.4297 16.9629 27.4883 17.4551 27.6055C17.959 27.7109 18.3867 27.8457 18.7383 28.0098L18.5273 31.4199ZM67.0781 39.8926C67.0781 38.7676 67.0664 37.9824 67.043 37.5371C67.0312 37.0918 66.9844 36.7168 66.9023 36.4121C66.832 36.0957 66.7266 35.8496 66.5859 35.6738C66.457 35.498 66.2754 35.3574 66.041 35.252C65.8184 35.1465 65.4082 35.041 64.8105 34.9355V34.0215L69.0645 33.8457H70.1016V54.2012C70.1016 55.1152 70.1191 55.7715 70.1543 56.1699C70.1895 56.5566 70.2656 56.8672 70.3828 57.1016C70.5 57.3359 70.6816 57.5293 70.9277 57.6816C71.1855 57.8223 71.6309 57.957 72.2637 58.0859V59L68.1152 59.1758H67.0605L67.2715 56.293L67.0078 56.2227C66.2695 57.0078 65.625 57.5996 65.0742 57.998C64.5352 58.3848 63.9551 58.6953 63.334 58.9297C62.7246 59.1641 62.0684 59.2812 61.3652 59.2812C59.4434 59.2812 57.9609 58.5547 56.918 57.1016C55.875 55.6367 55.3535 53.5273 55.3535 50.7734C55.3535 48.8516 55.6934 47.2227 56.373 45.8867C57.0527 44.5391 57.9668 43.5371 59.1152 42.8809C60.2754 42.2246 61.5762 41.8965 63.0176 41.8965C63.791 41.8965 64.4941 41.9609 65.127 42.0898C65.7598 42.207 66.4102 42.4062 67.0781 42.6875V39.8926ZM67.0781 48.5762C67.0781 47.6621 67.0371 46.9297 66.9551 46.3789C66.873 45.8281 66.7324 45.3652 66.5332 44.9902C66.3457 44.6152 66.0879 44.2988 65.7598 44.041C65.4316 43.7832 65.0684 43.5957 64.6699 43.4785C64.2832 43.3613 63.8145 43.3027 63.2637 43.3027C61.7637 43.3027 60.6211 43.9062 59.8359 45.1133C59.0508 46.3086 58.6582 48.0312 58.6582 50.2812C58.6582 52.5312 58.9805 54.2422 59.625 55.4141C60.2695 56.5859 61.248 57.1719 62.5605 57.1719C63.0762 57.1719 63.5039 57.1309 63.8438 57.0488C64.1836 56.9551 64.5176 56.8145 64.8457 56.627C65.1738 56.4277 65.5078 56.1582 65.8477 55.8184C66.1875 55.4785 66.4336 55.168 66.5859 54.8867C66.75 54.6055 66.873 54.2832 66.9551 53.9199C67.0371 53.5566 67.0781 53.0879 67.0781 52.5137V48.5762ZM82.6172 48.8574L84.9023 45.957C85.1484 45.6406 85.3477 45.3359 85.5 45.043C85.6523 44.7383 85.7285 44.4277 85.7285 44.1113C85.7285 43.8418 85.6289 43.6191 85.4297 43.4434C85.2305 43.2676 84.9199 43.1387 84.498 43.0566V42.1953H90.2461V43.0566C89.8008 43.1855 89.3438 43.4375 88.875 43.8125C88.418 44.1875 87.8555 44.791 87.1875 45.623L83.5488 50.0879L87.5566 55.4844C88.1309 56.2578 88.6465 56.8496 89.1035 57.2598C89.5605 57.6699 90.0176 57.9629 90.4746 58.1387V59H83.4082V58.1387C84.3809 58.0215 84.8672 57.6582 84.8672 57.0488C84.8672 56.8027 84.8262 56.5684 84.7441 56.3457C84.6621 56.123 84.5098 55.8652 84.2871 55.5723L81.7383 52.0215L79.0312 55.5371C78.832 55.7949 78.6738 56.0352 78.5566 56.2578C78.4512 56.4688 78.3984 56.709 78.3984 56.9785C78.3984 57.2949 78.5039 57.5586 78.7148 57.7695C78.9375 57.9688 79.2832 58.0918 79.752 58.1387V59H73.8809V58.1387C74.2676 57.998 74.6133 57.8223 74.918 57.6113C75.2344 57.4004 75.5508 57.1309 75.8672 56.8027C76.1953 56.4629 76.623 55.9707 77.1504 55.3262L80.8066 50.791L77.0625 45.6582C76.5469 44.9551 76.1367 44.4453 75.832 44.1289C75.5273 43.8125 75.2461 43.5723 74.9883 43.4082C74.7305 43.2441 74.4727 43.127 74.2148 43.0566V42.1953H81.1055V43.0566C80.1797 43.1973 79.7168 43.5605 79.7168 44.1465C79.7168 44.416 79.7754 44.6855 79.8926 44.9551C80.0215 45.2246 80.2148 45.5234 80.4727 45.8516L82.6172 48.8574ZM101.443 46.2383V43.9004H123.1V46.2383H101.443ZM101.443 53.5332V51.1953H123.1V53.5332H101.443Z" fill="white"/>
<path d="M30.2695 48.8574L32.5547 45.957C32.8008 45.6406 33 45.3359 33.1523 45.043C33.3047 44.7383 33.3809 44.4277 33.3809 44.1113C33.3809 43.8418 33.2812 43.6191 33.082 43.4434C32.8828 43.2676 32.5723 43.1387 32.1504 43.0566V42.1953H37.8984V43.0566C37.4531 43.1855 36.9961 43.4375 36.5273 43.8125C36.0703 44.1875 35.5078 44.791 34.8398 45.623L31.2012 50.0879L35.209 55.4844C35.7832 56.2578 36.2988 56.8496 36.7559 57.2598C37.2129 57.6699 37.6699 57.9629 38.127 58.1387V59H31.0605V58.1387C32.0332 58.0215 32.5195 57.6582 32.5195 57.0488C32.5195 56.8027 32.4785 56.5684 32.3965 56.3457C32.3145 56.123 32.1621 55.8652 31.9395 55.5723L29.3906 52.0215L26.6836 55.5371C26.4844 55.7949 26.3262 56.0352 26.209 56.2578C26.1035 56.4688 26.0508 56.709 26.0508 56.9785C26.0508 57.2949 26.1562 57.5586 26.3672 57.7695C26.5898 57.9688 26.9355 58.0918 27.4043 58.1387V59H21.5332V58.1387C21.9199 57.998 22.2656 57.8223 22.5703 57.6113C22.8867 57.4004 23.2031 57.1309 23.5195 56.8027C23.8477 56.4629 24.2754 55.9707 24.8027 55.3262L28.459 50.791L24.7148 45.6582C24.1992 44.9551 23.7891 44.4453 23.4844 44.1289C23.1797 43.8125 22.8984 43.5723 22.6406 43.4082C22.3828 43.2441 22.125 43.127 21.8672 43.0566V42.1953H28.7578V43.0566C27.832 43.1973 27.3691 43.5605 27.3691 44.1465C27.3691 44.416 27.4277 44.6855 27.5449 44.9551C27.6738 45.2246 27.8672 45.5234 28.125 45.8516L30.2695 48.8574ZM52.2598 44.4277H47.1973V43.6367C47.6309 43.5312 47.9238 43.4258 48.0762 43.3203C48.2285 43.2148 48.3398 43.0566 48.4102 42.8457C48.4922 42.623 48.5332 42.2539 48.5332 41.7383V37.8008C48.5332 37.2148 48.4922 36.7168 48.4102 36.3066C48.3398 35.8848 48.2051 35.5625 48.0059 35.3398C47.8184 35.1172 47.6074 34.9648 47.373 34.8828C47.1504 34.7891 46.8691 34.7422 46.5293 34.7422C46.248 34.7422 45.9785 34.7891 45.7207 34.8828C45.4629 34.9766 45.1875 35.1289 44.8945 35.3398C44.6133 35.5391 44.3848 35.7383 44.209 35.9375C44.0332 36.1367 43.9102 36.3242 43.8398 36.5C43.7695 36.6641 43.7344 36.8457 43.7344 37.0449V41.6855C43.7344 42.2598 43.7695 42.6523 43.8398 42.8633C43.9102 43.0625 44.0215 43.2148 44.1738 43.3203C44.3379 43.4258 44.6484 43.5312 45.1055 43.6367V44.4277H40.0781V43.6367C40.5117 43.5312 40.7988 43.4258 40.9395 43.3203C41.0918 43.2148 41.2031 43.0508 41.2734 42.8281C41.3555 42.6055 41.3965 42.2363 41.3965 41.7207V36.377C41.3965 35.8027 41.3789 35.4043 41.3438 35.1816C41.3086 34.9473 41.2148 34.7539 41.0625 34.6016C40.9102 34.4492 40.5234 34.3203 39.9023 34.2148V33.3887L42.8906 33.2656H43.752L43.6113 35.0938L43.7168 35.1465C44.4199 34.4199 45.0703 33.9102 45.668 33.6172C46.2656 33.3125 46.8691 33.1602 47.4785 33.1602C48.2402 33.1602 48.8789 33.3066 49.3945 33.5996C49.9102 33.8809 50.2852 34.2852 50.5195 34.8125C50.7539 35.3281 50.8711 36.0547 50.8711 36.9922V41.6855C50.8711 42.2246 50.8945 42.5938 50.9414 42.793C50.9883 42.9922 51.0879 43.1562 51.2402 43.2852C51.3926 43.4023 51.7324 43.5195 52.2598 43.6367V44.4277Z" fill="#89B8FF"/>
<line x1="142" y1="48" x2="342" y2="48" stroke="white" stroke-width="2"/>
<path d="M218.141 25.8574L220.426 22.957C220.672 22.6406 220.871 22.3359 221.023 22.043C221.176 21.7383 221.252 21.4277 221.252 21.1113C221.252 20.8418 221.152 20.6191 220.953 20.4434C220.754 20.2676 220.443 20.1387 220.021 20.0566V19.1953H225.77V20.0566C225.324 20.1855 224.867 20.4375 224.398 20.8125C223.941 21.1875 223.379 21.791 222.711 22.623L219.072 27.0879L223.08 32.4844C223.654 33.2578 224.17 33.8496 224.627 34.2598C225.084 34.6699 225.541 34.9629 225.998 35.1387V36H218.932V35.1387C219.904 35.0215 220.391 34.6582 220.391 34.0488C220.391 33.8027 220.35 33.5684 220.268 33.3457C220.186 33.123 220.033 32.8652 219.811 32.5723L217.262 29.0215L214.555 32.5371C214.355 32.7949 214.197 33.0352 214.08 33.2578C213.975 33.4688 213.922 33.709 213.922 33.9785C213.922 34.2949 214.027 34.5586 214.238 34.7695C214.461 34.9688 214.807 35.0918 215.275 35.1387V36H209.404V35.1387C209.791 34.998 210.137 34.8223 210.441 34.6113C210.758 34.4004 211.074 34.1309 211.391 33.8027C211.719 33.4629 212.146 32.9707 212.674 32.3262L216.33 27.791L212.586 22.6582C212.07 21.9551 211.66 21.4453 211.355 21.1289C211.051 20.8125 210.77 20.5723 210.512 20.4082C210.254 20.2441 209.996 20.127 209.738 20.0566V19.1953H216.629V20.0566C215.703 20.1973 215.24 20.5605 215.24 21.1465C215.24 21.416 215.299 21.6855 215.416 21.9551C215.545 22.2246 215.738 22.5234 215.996 22.8516L218.141 25.8574ZM240.131 21.4277H235.068V20.6367C235.502 20.5312 235.795 20.4258 235.947 20.3203C236.1 20.2148 236.211 20.0566 236.281 19.8457C236.363 19.623 236.404 19.2539 236.404 18.7383V14.8008C236.404 14.2148 236.363 13.7168 236.281 13.3066C236.211 12.8848 236.076 12.5625 235.877 12.3398C235.689 12.1172 235.479 11.9648 235.244 11.8828C235.021 11.7891 234.74 11.7422 234.4 11.7422C234.119 11.7422 233.85 11.7891 233.592 11.8828C233.334 11.9766 233.059 12.1289 232.766 12.3398C232.484 12.5391 232.256 12.7383 232.08 12.9375C231.904 13.1367 231.781 13.3242 231.711 13.5C231.641 13.6641 231.605 13.8457 231.605 14.0449V18.6855C231.605 19.2598 231.641 19.6523 231.711 19.8633C231.781 20.0625 231.893 20.2148 232.045 20.3203C232.209 20.4258 232.52 20.5312 232.977 20.6367V21.4277H227.949V20.6367C228.383 20.5312 228.67 20.4258 228.811 20.3203C228.963 20.2148 229.074 20.0508 229.145 19.8281C229.227 19.6055 229.268 19.2363 229.268 18.7207V13.377C229.268 12.8027 229.25 12.4043 229.215 12.1816C229.18 11.9473 229.086 11.7539 228.934 11.6016C228.781 11.4492 228.395 11.3203 227.773 11.2148V10.3887L230.762 10.2656H231.623L231.482 12.0938L231.588 12.1465C232.291 11.4199 232.941 10.9102 233.539 10.6172C234.137 10.3125 234.74 10.1602 235.35 10.1602C236.111 10.1602 236.75 10.3066 237.266 10.5996C237.781 10.8809 238.156 11.2852 238.391 11.8125C238.625 12.3281 238.742 13.0547 238.742 13.9922V18.6855C238.742 19.2246 238.766 19.5938 238.812 19.793C238.859 19.9922 238.959 20.1562 239.111 20.2852C239.264 20.4023 239.604 20.5195 240.131 20.6367V21.4277Z" fill="#89B8FF"/>
<path d="M274.303 18.2988C274.303 18.8027 274.344 19.166 274.426 19.3887C274.52 19.5996 274.66 19.7695 274.848 19.8984C275.047 20.0156 275.375 20.1094 275.832 20.1797C276.301 20.25 277.045 20.291 278.064 20.3027V21.4277H268.08V20.3027C269.053 20.2793 269.768 20.2383 270.225 20.1797C270.682 20.1094 271.016 20.0156 271.227 19.8984C271.438 19.7695 271.59 19.5996 271.684 19.3887C271.789 19.166 271.842 18.8027 271.842 18.2988V10.3184C271.842 10.0254 271.783 9.81445 271.666 9.68555C271.561 9.55664 271.396 9.49219 271.174 9.49219C270.928 9.49219 270.547 9.62695 270.031 9.89648C269.527 10.1543 268.871 10.5352 268.062 11.0391L267.43 9.82617L273.582 6.62695H274.373C274.361 6.80273 274.344 7.21875 274.32 7.875C274.309 8.51953 274.303 9.16992 274.303 9.82617V18.2988Z" fill="white"/>
<path d="M253.797 14.918V21.668H252.133V14.918H245.746V13.3594H252.133V6.60938H253.797V13.3594H260.184V14.918H253.797Z" fill="white"/>
<path d="M210.826 85H203.9V84.1387C204.357 83.998 204.686 83.875 204.885 83.7695C205.084 83.6641 205.248 83.5176 205.377 83.3301C205.518 83.1426 205.623 82.8555 205.693 82.4688C205.775 82.0703 205.816 81.4727 205.816 80.6758V76.0703C205.816 75.25 205.793 74.5059 205.746 73.8379C205.699 73.1699 205.617 72.625 205.5 72.2031C205.395 71.7695 205.26 71.4355 205.096 71.2012C204.943 70.9551 204.756 70.75 204.533 70.5859C204.322 70.4102 204.076 70.2754 203.795 70.1816C203.514 70.0762 203.145 70.0234 202.688 70.0234C202.23 70.0234 201.797 70.1172 201.387 70.3047C200.977 70.4805 200.525 70.791 200.033 71.2363C199.541 71.6816 199.184 72.1211 198.961 72.5547C198.738 72.9883 198.627 73.4863 198.627 74.0488V80.6055C198.627 81.6133 198.674 82.3164 198.768 82.7148C198.861 83.1016 199.037 83.4004 199.295 83.6113C199.564 83.8105 199.998 83.9863 200.596 84.1387V85H193.705V84.1387C194.162 83.998 194.484 83.875 194.672 83.7695C194.871 83.6641 195.035 83.5176 195.164 83.3301C195.305 83.1426 195.41 82.8555 195.48 82.4688C195.562 82.082 195.604 81.4785 195.604 80.6582V72.9941C195.604 72.2441 195.592 71.6406 195.568 71.1836C195.545 70.7266 195.463 70.3633 195.322 70.0938C195.182 69.8125 194.965 69.6074 194.672 69.4785C194.391 69.3379 193.986 69.2207 193.459 69.127V68.1953L197.572 68.0371H198.645L198.451 70.9023L198.697 70.9727C199.564 70.0938 200.262 69.4668 200.789 69.0918C201.328 68.7168 201.867 68.4297 202.406 68.2305C202.957 68.0195 203.537 67.9141 204.146 67.9141C204.779 67.9141 205.342 67.9902 205.834 68.1426C206.338 68.2832 206.777 68.5059 207.152 68.8105C207.539 69.1152 207.855 69.4961 208.102 69.9531C208.348 70.3984 208.529 70.9375 208.646 71.5703C208.775 72.2031 208.84 73.0059 208.84 73.9785V80.6055C208.84 81.4141 208.863 82 208.91 82.3633C208.957 82.7266 209.039 83.0078 209.156 83.207C209.273 83.4062 209.443 83.5762 209.666 83.7168C209.889 83.8457 210.275 83.9863 210.826 84.1387V85ZM234.75 75.877V86.002H232.254V75.877H222.674V73.5391H232.254V63.4141H234.75V73.5391H244.33V75.877H234.75ZM267.111 80.4121C267.111 81.0918 267.146 81.6074 267.217 81.959C267.299 82.2988 267.434 82.5801 267.621 82.8027C267.82 83.0137 268.102 83.1836 268.465 83.3125C268.828 83.4297 269.285 83.5234 269.836 83.5938C270.387 83.6523 271.113 83.6934 272.016 83.7168V85H259.025V83.7168C260.326 83.6582 261.252 83.582 261.803 83.4883C262.365 83.3828 262.793 83.2305 263.086 83.0312C263.379 82.832 263.59 82.5508 263.719 82.1875C263.859 81.8242 263.93 81.2324 263.93 80.4121V66.1562C263.93 65.6875 263.848 65.3477 263.684 65.1367C263.52 64.9141 263.279 64.8027 262.963 64.8027C262.588 64.8027 262.055 64.9961 261.363 65.3828C260.672 65.7695 259.816 66.3027 258.797 66.9824L258.023 65.6289L266.25 60.7246H267.217C267.146 61.8496 267.111 63.4082 267.111 65.4004V80.4121Z" fill="white"/>
<path d="M367.695 45.877V56.002H365.199V45.877H355.619V43.5391H365.199V33.4141H367.695V43.5391H377.275V45.877H367.695ZM406.156 31.5156V36.3848H404.416C404.135 35.3652 403.777 34.5566 403.344 33.959C402.91 33.3496 402.406 32.916 401.832 32.6582C401.258 32.4004 400.566 32.2715 399.758 32.2715C398.551 32.2715 397.473 32.6758 396.523 33.4844C395.586 34.2812 394.848 35.4883 394.309 37.1055C393.77 38.7109 393.5 40.6562 393.5 42.9414C393.5 45.2383 393.723 47.2012 394.168 48.8301C394.613 50.4473 395.27 51.6719 396.137 52.5039C397.004 53.3242 398.07 53.7344 399.336 53.7344C400.297 53.7344 401.082 53.5996 401.691 53.3301C402.301 53.0488 402.811 52.6094 403.221 52.0117C403.643 51.4141 404.041 50.5352 404.416 49.375H406.156V54.4023C405.055 54.6953 403.924 54.9121 402.764 55.0527C401.615 55.2051 400.35 55.2812 398.967 55.2812C395.99 55.2812 393.74 54.2734 392.217 52.2578C390.693 50.2422 389.932 47.2363 389.932 43.2402C389.932 40.7324 390.324 38.5352 391.109 36.6484C391.906 34.7617 393.072 33.3027 394.607 32.2715C396.143 31.2402 397.977 30.7246 400.109 30.7246C401.176 30.7246 402.16 30.7832 403.062 30.9004C403.965 31.0059 404.996 31.2109 406.156 31.5156Z" fill="white"/>
</svg>
