<svg width="230" height="43" viewBox="0 0 230 43" fill="none" xmlns="http://www.w3.org/2000/svg">
<path d="M18.5273 4.41992H16.7168C16.623 3.9043 16.4355 3.48242 16.1543 3.1543C15.873 2.81445 15.498 2.64453 15.0293 2.64453C13.7754 2.64453 12.9492 3.66406 12.5508 5.70312C12.1641 7.73047 11.9707 12.3887 11.9707 19.6777C11.9707 25.7246 11.4141 30.5234 10.3008 34.0742C9.19922 37.625 7.24805 39.4004 4.44727 39.4004C3.88477 39.4004 3.39258 39.3535 2.9707 39.2598C2.54883 39.166 2.13867 39.0137 1.74023 38.8027L1.96875 35.3398H3.62109C3.77344 35.9023 3.99609 36.3652 4.28906 36.7285C4.59375 37.0918 5.02148 37.2734 5.57227 37.2734C6.80273 37.2734 7.57617 35.9961 7.89258 33.4414C8.20898 30.8984 8.36719 27.1836 8.36719 22.2969C8.36719 14.6797 8.94141 9.13086 10.0898 5.65039C11.25 2.16992 13.2539 0.429688 16.1016 0.429688C16.5117 0.429688 16.9629 0.488281 17.4551 0.605469C17.959 0.710938 18.3867 0.845703 18.7383 1.00977L18.5273 4.41992ZM67.0781 12.8926C67.0781 11.7676 67.0664 10.9824 67.043 10.5371C67.0312 10.0918 66.9844 9.7168 66.9023 9.41211C66.832 9.0957 66.7266 8.84961 66.5859 8.67383C66.457 8.49805 66.2754 8.35742 66.041 8.25195C65.8184 8.14648 65.4082 8.04102 64.8105 7.93555V7.02148L69.0645 6.8457H70.1016V27.2012C70.1016 28.1152 70.1191 28.7715 70.1543 29.1699C70.1895 29.5566 70.2656 29.8672 70.3828 30.1016C70.5 30.3359 70.6816 30.5293 70.9277 30.6816C71.1855 30.8223 71.6309 30.957 72.2637 31.0859V32L68.1152 32.1758H67.0605L67.2715 29.293L67.0078 29.2227C66.2695 30.0078 65.625 30.5996 65.0742 30.998C64.5352 31.3848 63.9551 31.6953 63.334 31.9297C62.7246 32.1641 62.0684 32.2812 61.3652 32.2812C59.4434 32.2812 57.9609 31.5547 56.918 30.1016C55.875 28.6367 55.3535 26.5273 55.3535 23.7734C55.3535 21.8516 55.6934 20.2227 56.373 18.8867C57.0527 17.5391 57.9668 16.5371 59.1152 15.8809C60.2754 15.2246 61.5762 14.8965 63.0176 14.8965C63.791 14.8965 64.4941 14.9609 65.127 15.0898C65.7598 15.207 66.4102 15.4062 67.0781 15.6875V12.8926ZM67.0781 21.5762C67.0781 20.6621 67.0371 19.9297 66.9551 19.3789C66.873 18.8281 66.7324 18.3652 66.5332 17.9902C66.3457 17.6152 66.0879 17.2988 65.7598 17.041C65.4316 16.7832 65.0684 16.5957 64.6699 16.4785C64.2832 16.3613 63.8145 16.3027 63.2637 16.3027C61.7637 16.3027 60.6211 16.9062 59.8359 18.1133C59.0508 19.3086 58.6582 21.0312 58.6582 23.2812C58.6582 25.5312 58.9805 27.2422 59.625 28.4141C60.2695 29.5859 61.248 30.1719 62.5605 30.1719C63.0762 30.1719 63.5039 30.1309 63.8438 30.0488C64.1836 29.9551 64.5176 29.8145 64.8457 29.627C65.1738 29.4277 65.5078 29.1582 65.8477 28.8184C66.1875 28.4785 66.4336 28.168 66.5859 27.8867C66.75 27.6055 66.873 27.2832 66.9551 26.9199C67.0371 26.5566 67.0781 26.0879 67.0781 25.5137V21.5762ZM82.6172 21.8574L84.9023 18.957C85.1484 18.6406 85.3477 18.3359 85.5 18.043C85.6523 17.7383 85.7285 17.4277 85.7285 17.1113C85.7285 16.8418 85.6289 16.6191 85.4297 16.4434C85.2305 16.2676 84.9199 16.1387 84.498 16.0566V15.1953H90.2461V16.0566C89.8008 16.1855 89.3438 16.4375 88.875 16.8125C88.418 17.1875 87.8555 17.791 87.1875 18.623L83.5488 23.0879L87.5566 28.4844C88.1309 29.2578 88.6465 29.8496 89.1035 30.2598C89.5605 30.6699 90.0176 30.9629 90.4746 31.1387V32H83.4082V31.1387C84.3809 31.0215 84.8672 30.6582 84.8672 30.0488C84.8672 29.8027 84.8262 29.5684 84.7441 29.3457C84.6621 29.123 84.5098 28.8652 84.2871 28.5723L81.7383 25.0215L79.0312 28.5371C78.832 28.7949 78.6738 29.0352 78.5566 29.2578C78.4512 29.4688 78.3984 29.709 78.3984 29.9785C78.3984 30.2949 78.5039 30.5586 78.7148 30.7695C78.9375 30.9688 79.2832 31.0918 79.752 31.1387V32H73.8809V31.1387C74.2676 30.998 74.6133 30.8223 74.918 30.6113C75.2344 30.4004 75.5508 30.1309 75.8672 29.8027C76.1953 29.4629 76.623 28.9707 77.1504 28.3262L80.8066 23.791L77.0625 18.6582C76.5469 17.9551 76.1367 17.4453 75.832 17.1289C75.5273 16.8125 75.2461 16.5723 74.9883 16.4082C74.7305 16.2441 74.4727 16.127 74.2148 16.0566V15.1953H81.1055V16.0566C80.1797 16.1973 79.7168 16.5605 79.7168 17.1465C79.7168 17.416 79.7754 17.6855 79.8926 17.9551C80.0215 18.2246 80.2148 18.5234 80.4727 18.8516L82.6172 21.8574ZM101.443 19.2383V16.9004H123.1V19.2383H101.443ZM101.443 26.5332V24.1953H123.1V26.5332H101.443ZM142.805 21.8574L145.09 18.957C145.336 18.6406 145.535 18.3359 145.688 18.043C145.84 17.7383 145.916 17.4277 145.916 17.1113C145.916 16.8418 145.816 16.6191 145.617 16.4434C145.418 16.2676 145.107 16.1387 144.686 16.0566V15.1953H150.434V16.0566C149.988 16.1855 149.531 16.4375 149.062 16.8125C148.605 17.1875 148.043 17.791 147.375 18.623L143.736 23.0879L147.744 28.4844C148.318 29.2578 148.834 29.8496 149.291 30.2598C149.748 30.6699 150.205 30.9629 150.662 31.1387V32H143.596V31.1387C144.568 31.0215 145.055 30.6582 145.055 30.0488C145.055 29.8027 145.014 29.5684 144.932 29.3457C144.85 29.123 144.697 28.8652 144.475 28.5723L141.926 25.0215L139.219 28.5371C139.02 28.7949 138.861 29.0352 138.744 29.2578C138.639 29.4688 138.586 29.709 138.586 29.9785C138.586 30.2949 138.691 30.5586 138.902 30.7695C139.125 30.9688 139.471 31.0918 139.939 31.1387V32H134.068V31.1387C134.455 30.998 134.801 30.8223 135.105 30.6113C135.422 30.4004 135.738 30.1309 136.055 29.8027C136.383 29.4629 136.811 28.9707 137.338 28.3262L140.994 23.791L137.25 18.6582C136.734 17.9551 136.324 17.4453 136.02 17.1289C135.715 16.8125 135.434 16.5723 135.176 16.4082C134.918 16.2441 134.66 16.127 134.402 16.0566V15.1953H141.293V16.0566C140.367 16.1973 139.904 16.5605 139.904 17.1465C139.904 17.416 139.963 17.6855 140.08 17.9551C140.209 18.2246 140.402 18.5234 140.66 18.8516L142.805 21.8574ZM164.795 17.4277H159.732V16.6367C160.166 16.5312 160.459 16.4258 160.611 16.3203C160.764 16.2148 160.875 16.0566 160.945 15.8457C161.027 15.623 161.068 15.2539 161.068 14.7383V10.8008C161.068 10.2148 161.027 9.7168 160.945 9.30664C160.875 8.88477 160.74 8.5625 160.541 8.33984C160.354 8.11719 160.143 7.96484 159.908 7.88281C159.686 7.78906 159.404 7.74219 159.064 7.74219C158.783 7.74219 158.514 7.78906 158.256 7.88281C157.998 7.97656 157.723 8.12891 157.43 8.33984C157.148 8.53906 156.92 8.73828 156.744 8.9375C156.568 9.13672 156.445 9.32422 156.375 9.5C156.305 9.66406 156.27 9.8457 156.27 10.0449V14.6855C156.27 15.2598 156.305 15.6523 156.375 15.8633C156.445 16.0625 156.557 16.2148 156.709 16.3203C156.873 16.4258 157.184 16.5312 157.641 16.6367V17.4277H152.613V16.6367C153.047 16.5312 153.334 16.4258 153.475 16.3203C153.627 16.2148 153.738 16.0508 153.809 15.8281C153.891 15.6055 153.932 15.2363 153.932 14.7207V9.37695C153.932 8.80273 153.914 8.4043 153.879 8.18164C153.844 7.94727 153.75 7.75391 153.598 7.60156C153.445 7.44922 153.059 7.32031 152.438 7.21484V6.38867L155.426 6.26562H156.287L156.146 8.09375L156.252 8.14648C156.955 7.41992 157.605 6.91016 158.203 6.61719C158.801 6.3125 159.404 6.16016 160.014 6.16016C160.775 6.16016 161.414 6.30664 161.93 6.59961C162.445 6.88086 162.82 7.28516 163.055 7.8125C163.289 8.32812 163.406 9.05469 163.406 9.99219V14.6855C163.406 15.2246 163.43 15.5938 163.477 15.793C163.523 15.9922 163.623 16.1562 163.775 16.2852C163.928 16.4023 164.268 16.5195 164.795 16.6367V17.4277ZM188.684 22.877V33.002H186.188V22.877H176.607V20.5391H186.188V10.4141H188.684V20.5391H198.264V22.877H188.684ZM227.145 8.51562V13.3848H225.404C225.123 12.3652 224.766 11.5566 224.332 10.959C223.898 10.3496 223.395 9.91602 222.82 9.6582C222.246 9.40039 221.555 9.27148 220.746 9.27148C219.539 9.27148 218.461 9.67578 217.512 10.4844C216.574 11.2812 215.836 12.4883 215.297 14.1055C214.758 15.7109 214.488 17.6562 214.488 19.9414C214.488 22.2383 214.711 24.2012 215.156 25.8301C215.602 27.4473 216.258 28.6719 217.125 29.5039C217.992 30.3242 219.059 30.7344 220.324 30.7344C221.285 30.7344 222.07 30.5996 222.68 30.3301C223.289 30.0488 223.799 29.6094 224.209 29.0117C224.631 28.4141 225.029 27.5352 225.404 26.375H227.145V31.4023C226.043 31.6953 224.912 31.9121 223.752 32.0527C222.604 32.2051 221.338 32.2812 219.955 32.2812C216.979 32.2812 214.729 31.2734 213.205 29.2578C211.682 27.2422 210.92 24.2363 210.92 20.2402C210.92 17.7324 211.312 15.5352 212.098 13.6484C212.895 11.7617 214.061 10.3027 215.596 9.27148C217.131 8.24023 218.965 7.72461 221.098 7.72461C222.164 7.72461 223.148 7.7832 224.051 7.90039C224.953 8.00586 225.984 8.21094 227.145 8.51562Z" fill="white"/>
<path d="M30.2695 21.8574L32.5547 18.957C32.8008 18.6406 33 18.3359 33.1523 18.043C33.3047 17.7383 33.3809 17.4277 33.3809 17.1113C33.3809 16.8418 33.2812 16.6191 33.082 16.4434C32.8828 16.2676 32.5723 16.1387 32.1504 16.0566V15.1953H37.8984V16.0566C37.4531 16.1855 36.9961 16.4375 36.5273 16.8125C36.0703 17.1875 35.5078 17.791 34.8398 18.623L31.2012 23.0879L35.209 28.4844C35.7832 29.2578 36.2988 29.8496 36.7559 30.2598C37.2129 30.6699 37.6699 30.9629 38.127 31.1387V32H31.0605V31.1387C32.0332 31.0215 32.5195 30.6582 32.5195 30.0488C32.5195 29.8027 32.4785 29.5684 32.3965 29.3457C32.3145 29.123 32.1621 28.8652 31.9395 28.5723L29.3906 25.0215L26.6836 28.5371C26.4844 28.7949 26.3262 29.0352 26.209 29.2578C26.1035 29.4688 26.0508 29.709 26.0508 29.9785C26.0508 30.2949 26.1562 30.5586 26.3672 30.7695C26.5898 30.9688 26.9355 31.0918 27.4043 31.1387V32H21.5332V31.1387C21.9199 30.998 22.2656 30.8223 22.5703 30.6113C22.8867 30.4004 23.2031 30.1309 23.5195 29.8027C23.8477 29.4629 24.2754 28.9707 24.8027 28.3262L28.459 23.791L24.7148 18.6582C24.1992 17.9551 23.7891 17.4453 23.4844 17.1289C23.1797 16.8125 22.8984 16.5723 22.6406 16.4082C22.3828 16.2441 22.125 16.127 21.8672 16.0566V15.1953H28.7578V16.0566C27.832 16.1973 27.3691 16.5605 27.3691 17.1465C27.3691 17.416 27.4277 17.6855 27.5449 17.9551C27.6738 18.2246 27.8672 18.5234 28.125 18.8516L30.2695 21.8574ZM52.2598 17.4277H47.1973V16.6367C47.6309 16.5312 47.9238 16.4258 48.0762 16.3203C48.2285 16.2148 48.3398 16.0566 48.4102 15.8457C48.4922 15.623 48.5332 15.2539 48.5332 14.7383V10.8008C48.5332 10.2148 48.4922 9.7168 48.4102 9.30664C48.3398 8.88477 48.2051 8.5625 48.0059 8.33984C47.8184 8.11719 47.6074 7.96484 47.373 7.88281C47.1504 7.78906 46.8691 7.74219 46.5293 7.74219C46.248 7.74219 45.9785 7.78906 45.7207 7.88281C45.4629 7.97656 45.1875 8.12891 44.8945 8.33984C44.6133 8.53906 44.3848 8.73828 44.209 8.9375C44.0332 9.13672 43.9102 9.32422 43.8398 9.5C43.7695 9.66406 43.7344 9.8457 43.7344 10.0449V14.6855C43.7344 15.2598 43.7695 15.6523 43.8398 15.8633C43.9102 16.0625 44.0215 16.2148 44.1738 16.3203C44.3379 16.4258 44.6484 16.5312 45.1055 16.6367V17.4277H40.0781V16.6367C40.5117 16.5312 40.7988 16.4258 40.9395 16.3203C41.0918 16.2148 41.2031 16.0508 41.2734 15.8281C41.3555 15.6055 41.3965 15.2363 41.3965 14.7207V9.37695C41.3965 8.80273 41.3789 8.4043 41.3438 8.18164C41.3086 7.94727 41.2148 7.75391 41.0625 7.60156C40.9102 7.44922 40.5234 7.32031 39.9023 7.21484V6.38867L42.8906 6.26562H43.752L43.6113 8.09375L43.7168 8.14648C44.4199 7.41992 45.0703 6.91016 45.668 6.61719C46.2656 6.3125 46.8691 6.16016 47.4785 6.16016C48.2402 6.16016 48.8789 6.30664 49.3945 6.59961C49.9102 6.88086 50.2852 7.28516 50.5195 7.8125C50.7539 8.32812 50.8711 9.05469 50.8711 9.99219V14.6855C50.8711 15.2246 50.8945 15.5938 50.9414 15.793C50.9883 15.9922 51.0879 16.1562 51.2402 16.2852C51.3926 16.4023 51.7324 16.5195 52.2598 16.6367V17.4277Z" fill="#89B8FF"/>
</svg>
