<svg width="310" height="94" viewBox="0 0 310 94" fill="none" xmlns="http://www.w3.org/2000/svg">
<path d="M18.5273 28.4199H16.7168C16.623 27.9043 16.4355 27.4824 16.1543 27.1543C15.873 26.8145 15.498 26.6445 15.0293 26.6445C13.7754 26.6445 12.9492 27.6641 12.5508 29.7031C12.1641 31.7305 11.9707 36.3887 11.9707 43.6777C11.9707 49.7246 11.4141 54.5234 10.3008 58.0742C9.19922 61.625 7.24805 63.4004 4.44727 63.4004C3.88477 63.4004 3.39258 63.3535 2.9707 63.2598C2.54883 63.166 2.13867 63.0137 1.74023 62.8027L1.96875 59.3398H3.62109C3.77344 59.9023 3.99609 60.3652 4.28906 60.7285C4.59375 61.0918 5.02148 61.2734 5.57227 61.2734C6.80273 61.2734 7.57617 59.9961 7.89258 57.4414C8.20898 54.8984 8.36719 51.1836 8.36719 46.2969C8.36719 38.6797 8.94141 33.1309 10.0898 29.6504C11.25 26.1699 13.2539 24.4297 16.1016 24.4297C16.5117 24.4297 16.9629 24.4883 17.4551 24.6055C17.959 24.7109 18.3867 24.8457 18.7383 25.0098L18.5273 28.4199ZM67.0781 36.8926C67.0781 35.7676 67.0664 34.9824 67.043 34.5371C67.0312 34.0918 66.9844 33.7168 66.9023 33.4121C66.832 33.0957 66.7266 32.8496 66.5859 32.6738C66.457 32.498 66.2754 32.3574 66.041 32.252C65.8184 32.1465 65.4082 32.041 64.8105 31.9355V31.0215L69.0645 30.8457H70.1016V51.2012C70.1016 52.1152 70.1191 52.7715 70.1543 53.1699C70.1895 53.5566 70.2656 53.8672 70.3828 54.1016C70.5 54.3359 70.6816 54.5293 70.9277 54.6816C71.1855 54.8223 71.6309 54.957 72.2637 55.0859V56L68.1152 56.1758H67.0605L67.2715 53.293L67.0078 53.2227C66.2695 54.0078 65.625 54.5996 65.0742 54.998C64.5352 55.3848 63.9551 55.6953 63.334 55.9297C62.7246 56.1641 62.0684 56.2812 61.3652 56.2812C59.4434 56.2812 57.9609 55.5547 56.918 54.1016C55.875 52.6367 55.3535 50.5273 55.3535 47.7734C55.3535 45.8516 55.6934 44.2227 56.373 42.8867C57.0527 41.5391 57.9668 40.5371 59.1152 39.8809C60.2754 39.2246 61.5762 38.8965 63.0176 38.8965C63.791 38.8965 64.4941 38.9609 65.127 39.0898C65.7598 39.207 66.4102 39.4062 67.0781 39.6875V36.8926ZM67.0781 45.5762C67.0781 44.6621 67.0371 43.9297 66.9551 43.3789C66.873 42.8281 66.7324 42.3652 66.5332 41.9902C66.3457 41.6152 66.0879 41.2988 65.7598 41.041C65.4316 40.7832 65.0684 40.5957 64.6699 40.4785C64.2832 40.3613 63.8145 40.3027 63.2637 40.3027C61.7637 40.3027 60.6211 40.9062 59.8359 42.1133C59.0508 43.3086 58.6582 45.0312 58.6582 47.2812C58.6582 49.5312 58.9805 51.2422 59.625 52.4141C60.2695 53.5859 61.248 54.1719 62.5605 54.1719C63.0762 54.1719 63.5039 54.1309 63.8438 54.0488C64.1836 53.9551 64.5176 53.8145 64.8457 53.627C65.1738 53.4277 65.5078 53.1582 65.8477 52.8184C66.1875 52.4785 66.4336 52.168 66.5859 51.8867C66.75 51.6055 66.873 51.2832 66.9551 50.9199C67.0371 50.5566 67.0781 50.0879 67.0781 49.5137V45.5762ZM82.6172 45.8574L84.9023 42.957C85.1484 42.6406 85.3477 42.3359 85.5 42.043C85.6523 41.7383 85.7285 41.4277 85.7285 41.1113C85.7285 40.8418 85.6289 40.6191 85.4297 40.4434C85.2305 40.2676 84.9199 40.1387 84.498 40.0566V39.1953H90.2461V40.0566C89.8008 40.1855 89.3438 40.4375 88.875 40.8125C88.418 41.1875 87.8555 41.791 87.1875 42.623L83.5488 47.0879L87.5566 52.4844C88.1309 53.2578 88.6465 53.8496 89.1035 54.2598C89.5605 54.6699 90.0176 54.9629 90.4746 55.1387V56H83.4082V55.1387C84.3809 55.0215 84.8672 54.6582 84.8672 54.0488C84.8672 53.8027 84.8262 53.5684 84.7441 53.3457C84.6621 53.123 84.5098 52.8652 84.2871 52.5723L81.7383 49.0215L79.0312 52.5371C78.832 52.7949 78.6738 53.0352 78.5566 53.2578C78.4512 53.4688 78.3984 53.709 78.3984 53.9785C78.3984 54.2949 78.5039 54.5586 78.7148 54.7695C78.9375 54.9688 79.2832 55.0918 79.752 55.1387V56H73.8809V55.1387C74.2676 54.998 74.6133 54.8223 74.918 54.6113C75.2344 54.4004 75.5508 54.1309 75.8672 53.8027C76.1953 53.4629 76.623 52.9707 77.1504 52.3262L80.8066 47.791L77.0625 42.6582C76.5469 41.9551 76.1367 41.4453 75.832 41.1289C75.5273 40.8125 75.2461 40.5723 74.9883 40.4082C74.7305 40.2441 74.4727 40.127 74.2148 40.0566V39.1953H81.1055V40.0566C80.1797 40.1973 79.7168 40.5605 79.7168 41.1465C79.7168 41.416 79.7754 41.6855 79.8926 41.9551C80.0215 42.2246 80.2148 42.5234 80.4727 42.8516L82.6172 45.8574ZM101.443 43.2383V40.9004H123.1V43.2383H101.443ZM101.443 50.5332V48.1953H123.1V50.5332H101.443Z" fill="white"/>
<path d="M30.2695 45.8574L32.5547 42.957C32.8008 42.6406 33 42.3359 33.1523 42.043C33.3047 41.7383 33.3809 41.4277 33.3809 41.1113C33.3809 40.8418 33.2812 40.6191 33.082 40.4434C32.8828 40.2676 32.5723 40.1387 32.1504 40.0566V39.1953H37.8984V40.0566C37.4531 40.1855 36.9961 40.4375 36.5273 40.8125C36.0703 41.1875 35.5078 41.791 34.8398 42.623L31.2012 47.0879L35.209 52.4844C35.7832 53.2578 36.2988 53.8496 36.7559 54.2598C37.2129 54.6699 37.6699 54.9629 38.127 55.1387V56H31.0605V55.1387C32.0332 55.0215 32.5195 54.6582 32.5195 54.0488C32.5195 53.8027 32.4785 53.5684 32.3965 53.3457C32.3145 53.123 32.1621 52.8652 31.9395 52.5723L29.3906 49.0215L26.6836 52.5371C26.4844 52.7949 26.3262 53.0352 26.209 53.2578C26.1035 53.4688 26.0508 53.709 26.0508 53.9785C26.0508 54.2949 26.1562 54.5586 26.3672 54.7695C26.5898 54.9688 26.9355 55.0918 27.4043 55.1387V56H21.5332V55.1387C21.9199 54.998 22.2656 54.8223 22.5703 54.6113C22.8867 54.4004 23.2031 54.1309 23.5195 53.8027C23.8477 53.4629 24.2754 52.9707 24.8027 52.3262L28.459 47.791L24.7148 42.6582C24.1992 41.9551 23.7891 41.4453 23.4844 41.1289C23.1797 40.8125 22.8984 40.5723 22.6406 40.4082C22.3828 40.2441 22.125 40.127 21.8672 40.0566V39.1953H28.7578V40.0566C27.832 40.1973 27.3691 40.5605 27.3691 41.1465C27.3691 41.416 27.4277 41.6855 27.5449 41.9551C27.6738 42.2246 27.8672 42.5234 28.125 42.8516L30.2695 45.8574ZM52.2598 41.4277H47.1973V40.6367C47.6309 40.5312 47.9238 40.4258 48.0762 40.3203C48.2285 40.2148 48.3398 40.0566 48.4102 39.8457C48.4922 39.623 48.5332 39.2539 48.5332 38.7383V34.8008C48.5332 34.2148 48.4922 33.7168 48.4102 33.3066C48.3398 32.8848 48.2051 32.5625 48.0059 32.3398C47.8184 32.1172 47.6074 31.9648 47.373 31.8828C47.1504 31.7891 46.8691 31.7422 46.5293 31.7422C46.248 31.7422 45.9785 31.7891 45.7207 31.8828C45.4629 31.9766 45.1875 32.1289 44.8945 32.3398C44.6133 32.5391 44.3848 32.7383 44.209 32.9375C44.0332 33.1367 43.9102 33.3242 43.8398 33.5C43.7695 33.6641 43.7344 33.8457 43.7344 34.0449V38.6855C43.7344 39.2598 43.7695 39.6523 43.8398 39.8633C43.9102 40.0625 44.0215 40.2148 44.1738 40.3203C44.3379 40.4258 44.6484 40.5312 45.1055 40.6367V41.4277H40.0781V40.6367C40.5117 40.5312 40.7988 40.4258 40.9395 40.3203C41.0918 40.2148 41.2031 40.0508 41.2734 39.8281C41.3555 39.6055 41.3965 39.2363 41.3965 38.7207V33.377C41.3965 32.8027 41.3789 32.4043 41.3438 32.1816C41.3086 31.9473 41.2148 31.7539 41.0625 31.6016C40.9102 31.4492 40.5234 31.3203 39.9023 31.2148V30.3887L42.8906 30.2656H43.752L43.6113 32.0938L43.7168 32.1465C44.4199 31.4199 45.0703 30.9102 45.668 30.6172C46.2656 30.3125 46.8691 30.1602 47.4785 30.1602C48.2402 30.1602 48.8789 30.3066 49.3945 30.5996C49.9102 30.8809 50.2852 31.2852 50.5195 31.8125C50.7539 32.3281 50.8711 33.0547 50.8711 33.9922V38.6855C50.8711 39.2246 50.8945 39.5938 50.9414 39.793C50.9883 39.9922 51.0879 40.1562 51.2402 40.2852C51.3926 40.4023 51.7324 40.5195 52.2598 40.6367V41.4277Z" fill="#89B8FF"/>
<line x1="142" y1="45" x2="242" y2="45" stroke="white" stroke-width="2"/>
<path d="M182.141 20.8574L184.426 17.957C184.672 17.6406 184.871 17.3359 185.023 17.043C185.176 16.7383 185.252 16.4277 185.252 16.1113C185.252 15.8418 185.152 15.6191 184.953 15.4434C184.754 15.2676 184.443 15.1387 184.021 15.0566V14.1953H189.77V15.0566C189.324 15.1855 188.867 15.4375 188.398 15.8125C187.941 16.1875 187.379 16.791 186.711 17.623L183.072 22.0879L187.08 27.4844C187.654 28.2578 188.17 28.8496 188.627 29.2598C189.084 29.6699 189.541 29.9629 189.998 30.1387V31H182.932V30.1387C183.904 30.0215 184.391 29.6582 184.391 29.0488C184.391 28.8027 184.35 28.5684 184.268 28.3457C184.186 28.123 184.033 27.8652 183.811 27.5723L181.262 24.0215L178.555 27.5371C178.355 27.7949 178.197 28.0352 178.08 28.2578C177.975 28.4688 177.922 28.709 177.922 28.9785C177.922 29.2949 178.027 29.5586 178.238 29.7695C178.461 29.9688 178.807 30.0918 179.275 30.1387V31H173.404V30.1387C173.791 29.998 174.137 29.8223 174.441 29.6113C174.758 29.4004 175.074 29.1309 175.391 28.8027C175.719 28.4629 176.146 27.9707 176.674 27.3262L180.33 22.791L176.586 17.6582C176.07 16.9551 175.66 16.4453 175.355 16.1289C175.051 15.8125 174.77 15.5723 174.512 15.4082C174.254 15.2441 173.996 15.127 173.738 15.0566V14.1953H180.629V15.0566C179.703 15.1973 179.24 15.5605 179.24 16.1465C179.24 16.416 179.299 16.6855 179.416 16.9551C179.545 17.2246 179.738 17.5234 179.996 17.8516L182.141 20.8574ZM204.131 16.4277H199.068V15.6367C199.502 15.5312 199.795 15.4258 199.947 15.3203C200.1 15.2148 200.211 15.0566 200.281 14.8457C200.363 14.623 200.404 14.2539 200.404 13.7383V9.80078C200.404 9.21484 200.363 8.7168 200.281 8.30664C200.211 7.88477 200.076 7.5625 199.877 7.33984C199.689 7.11719 199.479 6.96484 199.244 6.88281C199.021 6.78906 198.74 6.74219 198.4 6.74219C198.119 6.74219 197.85 6.78906 197.592 6.88281C197.334 6.97656 197.059 7.12891 196.766 7.33984C196.484 7.53906 196.256 7.73828 196.08 7.9375C195.904 8.13672 195.781 8.32422 195.711 8.5C195.641 8.66406 195.605 8.8457 195.605 9.04492V13.6855C195.605 14.2598 195.641 14.6523 195.711 14.8633C195.781 15.0625 195.893 15.2148 196.045 15.3203C196.209 15.4258 196.52 15.5312 196.977 15.6367V16.4277H191.949V15.6367C192.383 15.5312 192.67 15.4258 192.811 15.3203C192.963 15.2148 193.074 15.0508 193.145 14.8281C193.227 14.6055 193.268 14.2363 193.268 13.7207V8.37695C193.268 7.80273 193.25 7.4043 193.215 7.18164C193.18 6.94727 193.086 6.75391 192.934 6.60156C192.781 6.44922 192.395 6.32031 191.773 6.21484V5.38867L194.762 5.26562H195.623L195.482 7.09375L195.588 7.14648C196.291 6.41992 196.941 5.91016 197.539 5.61719C198.137 5.3125 198.74 5.16016 199.35 5.16016C200.111 5.16016 200.75 5.30664 201.266 5.59961C201.781 5.88086 202.156 6.28516 202.391 6.8125C202.625 7.32812 202.742 8.05469 202.742 8.99219V13.6855C202.742 14.2246 202.766 14.5938 202.812 14.793C202.859 14.9922 202.959 15.1562 203.111 15.2852C203.264 15.4023 203.604 15.5195 204.131 15.6367V16.4277Z" fill="#89B8FF"/>
<path d="M171.398 78.6055C171.398 79.6133 171.445 80.3164 171.539 80.7148C171.633 81.1016 171.809 81.4004 172.066 81.6113C172.336 81.8105 172.77 81.9863 173.367 82.1387V83H166.389V82.1387C166.975 81.9863 167.379 81.8281 167.602 81.6641C167.836 81.5 168 81.3066 168.094 81.084C168.199 80.8496 168.27 80.5391 168.305 80.1523C168.352 79.7539 168.375 79.2383 168.375 78.6055V63.8926C168.375 62.7676 168.363 61.9824 168.34 61.5371C168.328 61.0918 168.281 60.7168 168.199 60.4121C168.129 60.0957 168.023 59.8496 167.883 59.6738C167.754 59.498 167.572 59.3574 167.338 59.252C167.115 59.1465 166.705 59.041 166.107 58.9355V58.0215L170.344 57.8457H171.398V78.6055ZM193.6 83H186.674V82.1387C187.131 81.998 187.459 81.875 187.658 81.7695C187.857 81.6641 188.021 81.5176 188.15 81.3301C188.291 81.1426 188.396 80.8555 188.467 80.4688C188.549 80.0703 188.59 79.4727 188.59 78.6758V74.0703C188.59 73.25 188.566 72.5059 188.52 71.8379C188.473 71.1699 188.391 70.625 188.273 70.2031C188.168 69.7695 188.033 69.4355 187.869 69.2012C187.717 68.9551 187.529 68.75 187.307 68.5859C187.096 68.4102 186.85 68.2754 186.568 68.1816C186.287 68.0762 185.918 68.0234 185.461 68.0234C185.004 68.0234 184.57 68.1172 184.16 68.3047C183.75 68.4805 183.299 68.791 182.807 69.2363C182.314 69.6816 181.957 70.1211 181.734 70.5547C181.512 70.9883 181.4 71.4863 181.4 72.0488V78.6055C181.4 79.6133 181.447 80.3164 181.541 80.7148C181.635 81.1016 181.811 81.4004 182.068 81.6113C182.338 81.8105 182.771 81.9863 183.369 82.1387V83H176.479V82.1387C176.936 81.998 177.258 81.875 177.445 81.7695C177.645 81.6641 177.809 81.5176 177.938 81.3301C178.078 81.1426 178.184 80.8555 178.254 80.4688C178.336 80.082 178.377 79.4785 178.377 78.6582V70.9941C178.377 70.2441 178.365 69.6406 178.342 69.1836C178.318 68.7266 178.236 68.3633 178.096 68.0938C177.955 67.8125 177.738 67.6074 177.445 67.4785C177.164 67.3379 176.76 67.2207 176.232 67.127V66.1953L180.346 66.0371H181.418L181.225 68.9023L181.471 68.9727C182.338 68.0938 183.035 67.4668 183.562 67.0918C184.102 66.7168 184.641 66.4297 185.18 66.2305C185.73 66.0195 186.311 65.9141 186.92 65.9141C187.553 65.9141 188.115 65.9902 188.607 66.1426C189.111 66.2832 189.551 66.5059 189.926 66.8105C190.312 67.1152 190.629 67.4961 190.875 67.9531C191.121 68.3984 191.303 68.9375 191.42 69.5703C191.549 70.2031 191.613 71.0059 191.613 71.9785V78.6055C191.613 79.4141 191.637 80 191.684 80.3633C191.73 80.7266 191.812 81.0078 191.93 81.207C192.047 81.4062 192.217 81.5762 192.439 81.7168C192.662 81.8457 193.049 81.9863 193.6 82.1387V83Z" fill="white"/>
<path d="M213.709 83H206.783V82.1387C207.24 81.998 207.568 81.875 207.768 81.7695C207.967 81.6641 208.131 81.5176 208.26 81.3301C208.4 81.1426 208.506 80.8555 208.576 80.4688C208.658 80.0703 208.699 79.4727 208.699 78.6758V74.0703C208.699 73.25 208.676 72.5059 208.629 71.8379C208.582 71.1699 208.5 70.625 208.383 70.2031C208.277 69.7695 208.143 69.4355 207.979 69.2012C207.826 68.9551 207.639 68.75 207.416 68.5859C207.205 68.4102 206.959 68.2754 206.678 68.1816C206.396 68.0762 206.027 68.0234 205.57 68.0234C205.113 68.0234 204.68 68.1172 204.27 68.3047C203.859 68.4805 203.408 68.791 202.916 69.2363C202.424 69.6816 202.066 70.1211 201.844 70.5547C201.621 70.9883 201.51 71.4863 201.51 72.0488V78.6055C201.51 79.6133 201.557 80.3164 201.65 80.7148C201.744 81.1016 201.92 81.4004 202.178 81.6113C202.447 81.8105 202.881 81.9863 203.479 82.1387V83H196.588V82.1387C197.045 81.998 197.367 81.875 197.555 81.7695C197.754 81.6641 197.918 81.5176 198.047 81.3301C198.188 81.1426 198.293 80.8555 198.363 80.4688C198.445 80.082 198.486 79.4785 198.486 78.6582V70.9941C198.486 70.2441 198.475 69.6406 198.451 69.1836C198.428 68.7266 198.346 68.3633 198.205 68.0938C198.064 67.8125 197.848 67.6074 197.555 67.4785C197.273 67.3379 196.869 67.2207 196.342 67.127V66.1953L200.455 66.0371H201.527L201.334 68.9023L201.58 68.9727C202.447 68.0938 203.145 67.4668 203.672 67.0918C204.211 66.7168 204.75 66.4297 205.289 66.2305C205.84 66.0195 206.42 65.9141 207.029 65.9141C207.662 65.9141 208.225 65.9902 208.717 66.1426C209.221 66.2832 209.66 66.5059 210.035 66.8105C210.422 67.1152 210.738 67.4961 210.984 67.9531C211.23 68.3984 211.412 68.9375 211.529 69.5703C211.658 70.2031 211.723 71.0059 211.723 71.9785V78.6055C211.723 79.4141 211.746 80 211.793 80.3633C211.84 80.7266 211.922 81.0078 212.039 81.207C212.156 81.4062 212.326 81.5762 212.549 81.7168C212.771 81.8457 213.158 81.9863 213.709 82.1387V83Z" fill="#89B8FF"/>
<path d="M268.695 46.877V57.002H266.199V46.877H256.619V44.5391H266.199V34.4141H268.695V44.5391H278.275V46.877H268.695ZM307.156 32.5156V37.3848H305.416C305.135 36.3652 304.777 35.5566 304.344 34.959C303.91 34.3496 303.406 33.916 302.832 33.6582C302.258 33.4004 301.566 33.2715 300.758 33.2715C299.551 33.2715 298.473 33.6758 297.523 34.4844C296.586 35.2812 295.848 36.4883 295.309 38.1055C294.77 39.7109 294.5 41.6562 294.5 43.9414C294.5 46.2383 294.723 48.2012 295.168 49.8301C295.613 51.4473 296.27 52.6719 297.137 53.5039C298.004 54.3242 299.07 54.7344 300.336 54.7344C301.297 54.7344 302.082 54.5996 302.691 54.3301C303.301 54.0488 303.811 53.6094 304.221 53.0117C304.643 52.4141 305.041 51.5352 305.416 50.375H307.156V55.4023C306.055 55.6953 304.924 55.9121 303.764 56.0527C302.615 56.2051 301.35 56.2812 299.967 56.2812C296.99 56.2812 294.74 55.2734 293.217 53.2578C291.693 51.2422 290.932 48.2363 290.932 44.2402C290.932 41.7324 291.324 39.5352 292.109 37.6484C292.906 35.7617 294.072 34.3027 295.607 33.2715C297.143 32.2402 298.977 31.7246 301.109 31.7246C302.176 31.7246 303.16 31.7832 304.062 31.9004C304.965 32.0059 305.996 32.2109 307.156 32.5156Z" fill="white"/>
</svg>
