<svg width="283" height="82" viewBox="0 0 283 82" fill="none" xmlns="http://www.w3.org/2000/svg">
<path d="M18.5273 24.4199H16.7168C16.623 23.9043 16.4355 23.4824 16.1543 23.1543C15.873 22.8145 15.498 22.6445 15.0293 22.6445C13.7754 22.6445 12.9492 23.6641 12.5508 25.7031C12.1641 27.7305 11.9707 32.3887 11.9707 39.6777C11.9707 45.7246 11.4141 50.5234 10.3008 54.0742C9.19922 57.625 7.24805 59.4004 4.44727 59.4004C3.88477 59.4004 3.39258 59.3535 2.9707 59.2598C2.54883 59.166 2.13867 59.0137 1.74023 58.8027L1.96875 55.3398H3.62109C3.77344 55.9023 3.99609 56.3652 4.28906 56.7285C4.59375 57.0918 5.02148 57.2734 5.57227 57.2734C6.80273 57.2734 7.57617 55.9961 7.89258 53.4414C8.20898 50.8984 8.36719 47.1836 8.36719 42.2969C8.36719 34.6797 8.94141 29.1309 10.0898 25.6504C11.25 22.1699 13.2539 20.4297 16.1016 20.4297C16.5117 20.4297 16.9629 20.4883 17.4551 20.6055C17.959 20.7109 18.3867 20.8457 18.7383 21.0098L18.5273 24.4199ZM82.3711 32.8926C82.3711 31.7676 82.3594 30.9824 82.3359 30.5371C82.3242 30.0918 82.2773 29.7168 82.1953 29.4121C82.125 29.0957 82.0195 28.8496 81.8789 28.6738C81.75 28.498 81.5684 28.3574 81.334 28.252C81.1113 28.1465 80.7012 28.041 80.1035 27.9355V27.0215L84.3574 26.8457H85.3945V47.2012C85.3945 48.1152 85.4121 48.7715 85.4473 49.1699C85.4824 49.5566 85.5586 49.8672 85.6758 50.1016C85.793 50.3359 85.9746 50.5293 86.2207 50.6816C86.4785 50.8223 86.9238 50.957 87.5566 51.0859V52L83.4082 52.1758H82.3535L82.5645 49.293L82.3008 49.2227C81.5625 50.0078 80.918 50.5996 80.3672 50.998C79.8281 51.3848 79.248 51.6953 78.627 51.9297C78.0176 52.1641 77.3613 52.2812 76.6582 52.2812C74.7363 52.2812 73.2539 51.5547 72.2109 50.1016C71.168 48.6367 70.6465 46.5273 70.6465 43.7734C70.6465 41.8516 70.9863 40.2227 71.666 38.8867C72.3457 37.5391 73.2598 36.5371 74.4082 35.8809C75.5684 35.2246 76.8691 34.8965 78.3105 34.8965C79.084 34.8965 79.7871 34.9609 80.4199 35.0898C81.0527 35.207 81.7031 35.4062 82.3711 35.6875V32.8926ZM82.3711 41.5762C82.3711 40.6621 82.3301 39.9297 82.248 39.3789C82.166 38.8281 82.0254 38.3652 81.8262 37.9902C81.6387 37.6152 81.3809 37.2988 81.0527 37.041C80.7246 36.7832 80.3613 36.5957 79.9629 36.4785C79.5762 36.3613 79.1074 36.3027 78.5566 36.3027C77.0566 36.3027 75.9141 36.9062 75.1289 38.1133C74.3438 39.3086 73.9512 41.0312 73.9512 43.2812C73.9512 45.5312 74.2734 47.2422 74.918 48.4141C75.5625 49.5859 76.541 50.1719 77.8535 50.1719C78.3691 50.1719 78.7969 50.1309 79.1367 50.0488C79.4766 49.9551 79.8105 49.8145 80.1387 49.627C80.4668 49.4277 80.8008 49.1582 81.1406 48.8184C81.4805 48.4785 81.7266 48.168 81.8789 47.8867C82.043 47.6055 82.166 47.2832 82.248 46.9199C82.3301 46.5566 82.3711 46.0879 82.3711 45.5137V41.5762ZM97.9102 41.8574L100.195 38.957C100.441 38.6406 100.641 38.3359 100.793 38.043C100.945 37.7383 101.021 37.4277 101.021 37.1113C101.021 36.8418 100.922 36.6191 100.723 36.4434C100.523 36.2676 100.213 36.1387 99.791 36.0566V35.1953H105.539V36.0566C105.094 36.1855 104.637 36.4375 104.168 36.8125C103.711 37.1875 103.148 37.791 102.48 38.623L98.8418 43.0879L102.85 48.4844C103.424 49.2578 103.939 49.8496 104.396 50.2598C104.854 50.6699 105.311 50.9629 105.768 51.1387V52H98.7012V51.1387C99.6738 51.0215 100.16 50.6582 100.16 50.0488C100.16 49.8027 100.119 49.5684 100.037 49.3457C99.9551 49.123 99.8027 48.8652 99.5801 48.5723L97.0312 45.0215L94.3242 48.5371C94.125 48.7949 93.9668 49.0352 93.8496 49.2578C93.7441 49.4688 93.6914 49.709 93.6914 49.9785C93.6914 50.2949 93.7969 50.5586 94.0078 50.7695C94.2305 50.9688 94.5762 51.0918 95.0449 51.1387V52H89.1738V51.1387C89.5605 50.998 89.9062 50.8223 90.2109 50.6113C90.5273 50.4004 90.8438 50.1309 91.1602 49.8027C91.4883 49.4629 91.916 48.9707 92.4434 48.3262L96.0996 43.791L92.3555 38.6582C91.8398 37.9551 91.4297 37.4453 91.125 37.1289C90.8203 36.8125 90.5391 36.5723 90.2812 36.4082C90.0234 36.2441 89.7656 36.127 89.5078 36.0566V35.1953H96.3984V36.0566C95.4727 36.1973 95.0098 36.5605 95.0098 37.1465C95.0098 37.416 95.0684 37.6855 95.1855 37.9551C95.3145 38.2246 95.5078 38.5234 95.7656 38.8516L97.9102 41.8574ZM116.736 39.2383V36.9004H138.393V39.2383H116.736ZM116.736 46.5332V44.1953H138.393V46.5332H116.736ZM155.355 47.6055C155.355 48.6133 155.402 49.3164 155.496 49.7148C155.59 50.1016 155.766 50.4004 156.023 50.6113C156.293 50.8105 156.727 50.9863 157.324 51.1387V52H150.346V51.1387C150.932 50.9863 151.336 50.8281 151.559 50.6641C151.793 50.5 151.957 50.3066 152.051 50.084C152.156 49.8496 152.227 49.5391 152.262 49.1523C152.309 48.7539 152.332 48.2383 152.332 47.6055V32.8926C152.332 31.7676 152.32 30.9824 152.297 30.5371C152.285 30.0918 152.238 29.7168 152.156 29.4121C152.086 29.0957 151.98 28.8496 151.84 28.6738C151.711 28.498 151.529 28.3574 151.295 28.252C151.072 28.1465 150.662 28.041 150.064 27.9355V27.0215L154.301 26.8457H155.355V47.6055ZM177.557 52H170.631V51.1387C171.088 50.998 171.416 50.875 171.615 50.7695C171.814 50.6641 171.979 50.5176 172.107 50.3301C172.248 50.1426 172.354 49.8555 172.424 49.4688C172.506 49.0703 172.547 48.4727 172.547 47.6758V43.0703C172.547 42.25 172.523 41.5059 172.477 40.8379C172.43 40.1699 172.348 39.625 172.23 39.2031C172.125 38.7695 171.99 38.4355 171.826 38.2012C171.674 37.9551 171.486 37.75 171.264 37.5859C171.053 37.4102 170.807 37.2754 170.525 37.1816C170.244 37.0762 169.875 37.0234 169.418 37.0234C168.961 37.0234 168.527 37.1172 168.117 37.3047C167.707 37.4805 167.256 37.791 166.764 38.2363C166.271 38.6816 165.914 39.1211 165.691 39.5547C165.469 39.9883 165.357 40.4863 165.357 41.0488V47.6055C165.357 48.6133 165.404 49.3164 165.498 49.7148C165.592 50.1016 165.768 50.4004 166.025 50.6113C166.295 50.8105 166.729 50.9863 167.326 51.1387V52H160.436V51.1387C160.893 50.998 161.215 50.875 161.402 50.7695C161.602 50.6641 161.766 50.5176 161.895 50.3301C162.035 50.1426 162.141 49.8555 162.211 49.4688C162.293 49.082 162.334 48.4785 162.334 47.6582V39.9941C162.334 39.2441 162.322 38.6406 162.299 38.1836C162.275 37.7266 162.193 37.3633 162.053 37.0938C161.912 36.8125 161.695 36.6074 161.402 36.4785C161.121 36.3379 160.717 36.2207 160.189 36.127V35.1953L164.303 35.0371H165.375L165.182 37.9023L165.428 37.9727C166.295 37.0938 166.992 36.4668 167.52 36.0918C168.059 35.7168 168.598 35.4297 169.137 35.2305C169.688 35.0195 170.268 34.9141 170.877 34.9141C171.51 34.9141 172.072 34.9902 172.564 35.1426C173.068 35.2832 173.508 35.5059 173.883 35.8105C174.27 36.1152 174.586 36.4961 174.832 36.9531C175.078 37.3984 175.26 37.9375 175.377 38.5703C175.506 39.2031 175.57 40.0059 175.57 40.9785V47.6055C175.57 48.4141 175.594 49 175.641 49.3633C175.688 49.7266 175.77 50.0078 175.887 50.207C176.004 50.4062 176.174 50.5762 176.396 50.7168C176.619 50.8457 177.006 50.9863 177.557 51.1387V52ZM185.889 59.5586H183.182V26.8457H185.889V59.5586ZM214.682 59.5586H211.975V26.8457H214.682V59.5586ZM241.664 42.877V53.002H239.168V42.877H229.588V40.5391H239.168V30.4141H241.664V40.5391H251.244V42.877H241.664ZM280.125 28.5156V33.3848H278.385C278.104 32.3652 277.746 31.5566 277.312 30.959C276.879 30.3496 276.375 29.916 275.801 29.6582C275.227 29.4004 274.535 29.2715 273.727 29.2715C272.52 29.2715 271.441 29.6758 270.492 30.4844C269.555 31.2812 268.816 32.4883 268.277 34.1055C267.738 35.7109 267.469 37.6562 267.469 39.9414C267.469 42.2383 267.691 44.2012 268.137 45.8301C268.582 47.4473 269.238 48.6719 270.105 49.5039C270.973 50.3242 272.039 50.7344 273.305 50.7344C274.266 50.7344 275.051 50.5996 275.66 50.3301C276.27 50.0488 276.779 49.6094 277.189 49.0117C277.611 48.4141 278.01 47.5352 278.385 46.375H280.125V51.4023C279.023 51.6953 277.893 51.9121 276.732 52.0527C275.584 52.2051 274.318 52.2812 272.936 52.2812C269.959 52.2812 267.709 51.2734 266.186 49.2578C264.662 47.2422 263.9 44.2363 263.9 40.2402C263.9 37.7324 264.293 35.5352 265.078 33.6484C265.875 31.7617 267.041 30.3027 268.576 29.2715C270.111 28.2402 271.945 27.7246 274.078 27.7246C275.145 27.7246 276.129 27.7832 277.031 27.9004C277.934 28.0059 278.965 28.2109 280.125 28.5156Z" fill="white"/>
<path d="M199.371 41.8574L201.656 38.957C201.902 38.6406 202.102 38.3359 202.254 38.043C202.406 37.7383 202.482 37.4277 202.482 37.1113C202.482 36.8418 202.383 36.6191 202.184 36.4434C201.984 36.2676 201.674 36.1387 201.252 36.0566V35.1953H207V36.0566C206.555 36.1855 206.098 36.4375 205.629 36.8125C205.172 37.1875 204.609 37.791 203.941 38.623L200.303 43.0879L204.311 48.4844C204.885 49.2578 205.4 49.8496 205.857 50.2598C206.314 50.6699 206.771 50.9629 207.229 51.1387V52H200.162V51.1387C201.135 51.0215 201.621 50.6582 201.621 50.0488C201.621 49.8027 201.58 49.5684 201.498 49.3457C201.416 49.123 201.264 48.8652 201.041 48.5723L198.492 45.0215L195.785 48.5371C195.586 48.7949 195.428 49.0352 195.311 49.2578C195.205 49.4688 195.152 49.709 195.152 49.9785C195.152 50.2949 195.258 50.5586 195.469 50.7695C195.691 50.9688 196.037 51.0918 196.506 51.1387V52H190.635V51.1387C191.021 50.998 191.367 50.8223 191.672 50.6113C191.988 50.4004 192.305 50.1309 192.621 49.8027C192.949 49.4629 193.377 48.9707 193.904 48.3262L197.561 43.791L193.816 38.6582C193.301 37.9551 192.891 37.4453 192.586 37.1289C192.281 36.8125 192 36.5723 191.742 36.4082C191.484 36.2441 191.227 36.127 190.969 36.0566V35.1953H197.859V36.0566C196.934 36.1973 196.471 36.5605 196.471 37.1465C196.471 37.416 196.529 37.6855 196.646 37.9551C196.775 38.2246 196.969 38.5234 197.227 38.8516L199.371 41.8574Z" fill="#89B8FF"/>
<line x1="16" y1="41" x2="66" y2="41" stroke="white" stroke-width="2"/>
<path d="M43.2168 26.4121C43.2168 27.0918 43.252 27.6074 43.3223 27.959C43.4043 28.2988 43.5391 28.5801 43.7266 28.8027C43.9258 29.0137 44.207 29.1836 44.5703 29.3125C44.9336 29.4297 45.3906 29.5234 45.9414 29.5938C46.4922 29.6523 47.2188 29.6934 48.1211 29.7168V31H35.1309V29.7168C36.4316 29.6582 37.3574 29.582 37.9082 29.4883C38.4707 29.3828 38.8984 29.2305 39.1914 29.0312C39.4844 28.832 39.6953 28.5508 39.8242 28.1875C39.9648 27.8242 40.0352 27.2324 40.0352 26.4121V12.1562C40.0352 11.6875 39.9531 11.3477 39.7891 11.1367C39.625 10.9141 39.3848 10.8027 39.0684 10.8027C38.6934 10.8027 38.1602 10.9961 37.4688 11.3828C36.7773 11.7695 35.9219 12.3027 34.9023 12.9824L34.1289 11.6289L42.3555 6.72461H43.3223C43.252 7.84961 43.2168 9.4082 43.2168 11.4004V26.4121Z" fill="white"/>
<path d="M40.1406 60.8574L42.4258 57.957C42.6719 57.6406 42.8711 57.3359 43.0234 57.043C43.1758 56.7383 43.252 56.4277 43.252 56.1113C43.252 55.8418 43.1523 55.6191 42.9531 55.4434C42.7539 55.2676 42.4434 55.1387 42.0215 55.0566V54.1953H47.7695V55.0566C47.3242 55.1855 46.8672 55.4375 46.3984 55.8125C45.9414 56.1875 45.3789 56.791 44.7109 57.623L41.0723 62.0879L45.0801 67.4844C45.6543 68.2578 46.1699 68.8496 46.627 69.2598C47.084 69.6699 47.541 69.9629 47.998 70.1387V71H40.9316V70.1387C41.9043 70.0215 42.3906 69.6582 42.3906 69.0488C42.3906 68.8027 42.3496 68.5684 42.2676 68.3457C42.1855 68.123 42.0332 67.8652 41.8105 67.5723L39.2617 64.0215L36.5547 67.5371C36.3555 67.7949 36.1973 68.0352 36.0801 68.2578C35.9746 68.4688 35.9219 68.709 35.9219 68.9785C35.9219 69.2949 36.0273 69.5586 36.2383 69.7695C36.4609 69.9688 36.8066 70.0918 37.2754 70.1387V71H31.4043V70.1387C31.791 69.998 32.1367 69.8223 32.4414 69.6113C32.7578 69.4004 33.0742 69.1309 33.3906 68.8027C33.7188 68.4629 34.1465 67.9707 34.6738 67.3262L38.3301 62.791L34.5859 57.6582C34.0703 56.9551 33.6602 56.4453 33.3555 56.1289C33.0508 55.8125 32.7695 55.5723 32.5117 55.4082C32.2539 55.2441 31.9961 55.127 31.7383 55.0566V54.1953H38.6289V55.0566C37.7031 55.1973 37.2402 55.5605 37.2402 56.1465C37.2402 56.416 37.2988 56.6855 37.416 56.9551C37.5449 57.2246 37.7383 57.5234 37.9961 57.8516L40.1406 60.8574Z" fill="#89B8FF"/>
</svg>
