<svg width="299" height="63" viewBox="0 0 299 63" fill="none" xmlns="http://www.w3.org/2000/svg">
<path d="M18.5273 27.4199H16.7168C16.623 26.9043 16.4355 26.4824 16.1543 26.1543C15.873 25.8145 15.498 25.6445 15.0293 25.6445C13.7754 25.6445 12.9492 26.6641 12.5508 28.7031C12.1641 30.7305 11.9707 35.3887 11.9707 42.6777C11.9707 48.7246 11.4141 53.5234 10.3008 57.0742C9.19922 60.625 7.24805 62.4004 4.44727 62.4004C3.88477 62.4004 3.39258 62.3535 2.9707 62.2598C2.54883 62.166 2.13867 62.0137 1.74023 61.8027L1.96875 58.3398H3.62109C3.77344 58.9023 3.99609 59.3652 4.28906 59.7285C4.59375 60.0918 5.02148 60.2734 5.57227 60.2734C6.80273 60.2734 7.57617 58.9961 7.89258 56.4414C8.20898 53.8984 8.36719 50.1836 8.36719 45.2969C8.36719 37.6797 8.94141 32.1309 10.0898 28.6504C11.25 25.1699 13.2539 23.4297 16.1016 23.4297C16.5117 23.4297 16.9629 23.4883 17.4551 23.6055C17.959 23.7109 18.3867 23.8457 18.7383 24.0098L18.5273 27.4199ZM35.9297 38.5996V42.2734H33.6973C33.498 41.5117 33.252 40.9141 32.959 40.4805C32.666 40.0352 32.3262 39.7246 31.9395 39.5488C31.5527 39.373 31.0723 39.2852 30.498 39.2852C29.6777 39.2852 28.9512 39.5488 28.3184 40.0762C27.6855 40.6035 27.1816 41.4062 26.8066 42.4844C26.4434 43.5625 26.2617 44.8809 26.2617 46.4395C26.2617 47.4355 26.332 48.3496 26.4727 49.1816C26.6133 50.002 26.8535 50.7051 27.1934 51.291C27.5332 51.877 27.9844 52.334 28.5469 52.6621C29.1094 52.9902 29.8066 53.1543 30.6387 53.1543C31.4473 53.1543 32.1973 52.9961 32.8887 52.6797C33.5918 52.3633 34.3184 51.8066 35.0684 51.0098L36.0703 52.1699C35.4727 52.8262 34.9453 53.3359 34.4883 53.6992C34.0312 54.0508 33.5391 54.3496 33.0117 54.5957C32.4961 54.8301 31.9805 55 31.4648 55.1055C30.9609 55.2227 30.4102 55.2812 29.8125 55.2812C27.5977 55.2812 25.9043 54.5488 24.7324 53.084C23.5605 51.6074 22.9746 49.4805 22.9746 46.7031C22.9746 44.9688 23.3027 43.4336 23.959 42.0977C24.6152 40.75 25.5352 39.7129 26.7188 38.9863C27.9023 38.2598 29.2676 37.8965 30.8145 37.8965C31.7754 37.8965 32.6602 37.9551 33.4688 38.0723C34.2891 38.1777 35.1094 38.3535 35.9297 38.5996ZM46.3711 55.2812C43.9336 55.2812 42.0703 54.5664 40.7812 53.1367C39.5039 51.6953 38.8652 49.5684 38.8652 46.7559C38.8652 44.8223 39.1992 43.1875 39.8672 41.8516C40.5469 40.5156 41.4727 39.5254 42.6445 38.8809C43.8164 38.2246 45.1523 37.8965 46.6523 37.8965C49.1602 37.8965 51.0586 38.6289 52.3477 40.0938C53.6367 41.5469 54.2812 43.6387 54.2812 46.3691C54.2812 48.3145 53.959 49.9551 53.3145 51.291C52.6699 52.627 51.7559 53.6289 50.5723 54.2969C49.3887 54.9531 47.9883 55.2812 46.3711 55.2812ZM42.1875 46.3867C42.1875 48.8008 42.5684 50.6582 43.3301 51.959C44.1035 53.248 45.2051 53.8926 46.6348 53.8926C47.4199 53.8926 48.0879 53.7051 48.6387 53.3301C49.1895 52.9434 49.6348 52.4277 49.9746 51.7832C50.3262 51.1387 50.5781 50.3945 50.7305 49.5508C50.8828 48.6953 50.959 47.8047 50.959 46.8789C50.959 45.1562 50.7656 43.7266 50.3789 42.5898C50.0039 41.4531 49.4883 40.6211 48.832 40.0938C48.1758 39.5547 47.4258 39.2852 46.582 39.2852C45.1641 39.2852 44.0742 39.9004 43.3125 41.1309C42.5625 42.3613 42.1875 44.1133 42.1875 46.3867ZM69.627 42.0449H67.9395C67.6816 41.3418 67.377 40.791 67.0254 40.3926C66.6738 39.9824 66.2754 39.6953 65.8301 39.5312C65.3848 39.3672 64.8398 39.2852 64.1953 39.2852C63.2578 39.2852 62.5078 39.5078 61.9453 39.9531C61.3945 40.3867 61.1191 40.9844 61.1191 41.7461C61.1191 42.2852 61.2305 42.7305 61.4531 43.082C61.6758 43.4336 62.0215 43.7617 62.4902 44.0664C62.959 44.3711 63.7852 44.7754 64.9688 45.2793C66.1641 45.7949 67.084 46.2695 67.7285 46.7031C68.3848 47.1367 68.8945 47.6406 69.2578 48.2148C69.6328 48.7891 69.8203 49.4746 69.8203 50.2715C69.8203 51.1973 69.6621 51.9766 69.3457 52.6094C69.0293 53.2422 68.584 53.7578 68.0098 54.1562C67.4355 54.5547 66.75 54.8418 65.9531 55.0176C65.168 55.1934 64.3066 55.2812 63.3691 55.2812C62.3848 55.2812 61.4297 55.2051 60.5039 55.0527C59.5781 54.9121 58.6758 54.7246 57.7969 54.4902V50.8164H59.5195C59.8359 51.8945 60.3047 52.6797 60.9258 53.1719C61.5469 53.6523 62.4023 53.8926 63.4922 53.8926C63.9141 53.8926 64.3242 53.8516 64.7227 53.7695C65.1328 53.6758 65.4961 53.5293 65.8125 53.3301C66.1289 53.1191 66.3809 52.8379 66.5684 52.4863C66.7559 52.1348 66.8496 51.6953 66.8496 51.168C66.8496 50.5703 66.7324 50.084 66.498 49.709C66.2637 49.334 65.9004 48.9941 65.4082 48.6895C64.916 48.373 64.0488 47.9512 62.8066 47.4238C61.7402 46.9785 60.8848 46.5449 60.2402 46.123C59.5957 45.7012 59.0859 45.2031 58.7109 44.6289C58.3477 44.0547 58.166 43.375 58.166 42.5898C58.166 41.6289 58.4238 40.7969 58.9395 40.0938C59.4668 39.3789 60.2227 38.834 61.207 38.459C62.1914 38.084 63.3457 37.8965 64.6699 37.8965C65.4434 37.8965 66.1875 37.9375 66.9023 38.0195C67.6289 38.0898 68.5371 38.2363 69.627 38.459V42.0449ZM102.586 35.8926C102.586 34.7676 102.574 33.9824 102.551 33.5371C102.539 33.0918 102.492 32.7168 102.41 32.4121C102.34 32.0957 102.234 31.8496 102.094 31.6738C101.965 31.498 101.783 31.3574 101.549 31.252C101.326 31.1465 100.916 31.041 100.318 30.9355V30.0215L104.572 29.8457H105.609V50.2012C105.609 51.1152 105.627 51.7715 105.662 52.1699C105.697 52.5566 105.773 52.8672 105.891 53.1016C106.008 53.3359 106.189 53.5293 106.436 53.6816C106.693 53.8223 107.139 53.957 107.771 54.0859V55L103.623 55.1758H102.568L102.779 52.293L102.516 52.2227C101.777 53.0078 101.133 53.5996 100.582 53.998C100.043 54.3848 99.4629 54.6953 98.8418 54.9297C98.2324 55.1641 97.5762 55.2812 96.873 55.2812C94.9512 55.2812 93.4688 54.5547 92.4258 53.1016C91.3828 51.6367 90.8613 49.5273 90.8613 46.7734C90.8613 44.8516 91.2012 43.2227 91.8809 41.8867C92.5605 40.5391 93.4746 39.5371 94.623 38.8809C95.7832 38.2246 97.084 37.8965 98.5254 37.8965C99.2988 37.8965 100.002 37.9609 100.635 38.0898C101.268 38.207 101.918 38.4062 102.586 38.6875V35.8926ZM102.586 44.5762C102.586 43.6621 102.545 42.9297 102.463 42.3789C102.381 41.8281 102.24 41.3652 102.041 40.9902C101.854 40.6152 101.596 40.2988 101.268 40.041C100.939 39.7832 100.576 39.5957 100.178 39.4785C99.791 39.3613 99.3223 39.3027 98.7715 39.3027C97.2715 39.3027 96.1289 39.9062 95.3438 41.1133C94.5586 42.3086 94.166 44.0312 94.166 46.2812C94.166 48.5312 94.4883 50.2422 95.1328 51.4141C95.7773 52.5859 96.7559 53.1719 98.0684 53.1719C98.584 53.1719 99.0117 53.1309 99.3516 53.0488C99.6914 52.9551 100.025 52.8145 100.354 52.627C100.682 52.4277 101.016 52.1582 101.355 51.8184C101.695 51.4785 101.941 51.168 102.094 50.8867C102.258 50.6055 102.381 50.2832 102.463 49.9199C102.545 49.5566 102.586 49.0879 102.586 48.5137V44.5762ZM118.125 44.8574L120.41 41.957C120.656 41.6406 120.855 41.3359 121.008 41.043C121.16 40.7383 121.236 40.4277 121.236 40.1113C121.236 39.8418 121.137 39.6191 120.938 39.4434C120.738 39.2676 120.428 39.1387 120.006 39.0566V38.1953H125.754V39.0566C125.309 39.1855 124.852 39.4375 124.383 39.8125C123.926 40.1875 123.363 40.791 122.695 41.623L119.057 46.0879L123.064 51.4844C123.639 52.2578 124.154 52.8496 124.611 53.2598C125.068 53.6699 125.525 53.9629 125.982 54.1387V55H118.916V54.1387C119.889 54.0215 120.375 53.6582 120.375 53.0488C120.375 52.8027 120.334 52.5684 120.252 52.3457C120.17 52.123 120.018 51.8652 119.795 51.5723L117.246 48.0215L114.539 51.5371C114.34 51.7949 114.182 52.0352 114.064 52.2578C113.959 52.4688 113.906 52.709 113.906 52.9785C113.906 53.2949 114.012 53.5586 114.223 53.7695C114.445 53.9688 114.791 54.0918 115.26 54.1387V55H109.389V54.1387C109.775 53.998 110.121 53.8223 110.426 53.6113C110.742 53.4004 111.059 53.1309 111.375 52.8027C111.703 52.4629 112.131 51.9707 112.658 51.3262L116.314 46.791L112.57 41.6582C112.055 40.9551 111.645 40.4453 111.34 40.1289C111.035 39.8125 110.754 39.5723 110.496 39.4082C110.238 39.2441 109.98 39.127 109.723 39.0566V38.1953H116.613V39.0566C115.688 39.1973 115.225 39.5605 115.225 40.1465C115.225 40.416 115.283 40.6855 115.4 40.9551C115.529 41.2246 115.723 41.5234 115.98 41.8516L118.125 44.8574ZM136.951 42.2383V39.9004H158.607V42.2383H136.951ZM136.951 49.5332V47.1953H158.607V49.5332H136.951ZM182.654 42.0449H180.967C180.709 41.3418 180.404 40.791 180.053 40.3926C179.701 39.9824 179.303 39.6953 178.857 39.5312C178.412 39.3672 177.867 39.2852 177.223 39.2852C176.285 39.2852 175.535 39.5078 174.973 39.9531C174.422 40.3867 174.146 40.9844 174.146 41.7461C174.146 42.2852 174.258 42.7305 174.48 43.082C174.703 43.4336 175.049 43.7617 175.518 44.0664C175.986 44.3711 176.812 44.7754 177.996 45.2793C179.191 45.7949 180.111 46.2695 180.756 46.7031C181.412 47.1367 181.922 47.6406 182.285 48.2148C182.66 48.7891 182.848 49.4746 182.848 50.2715C182.848 51.1973 182.689 51.9766 182.373 52.6094C182.057 53.2422 181.611 53.7578 181.037 54.1562C180.463 54.5547 179.777 54.8418 178.98 55.0176C178.195 55.1934 177.334 55.2812 176.396 55.2812C175.412 55.2812 174.457 55.2051 173.531 55.0527C172.605 54.9121 171.703 54.7246 170.824 54.4902V50.8164H172.547C172.863 51.8945 173.332 52.6797 173.953 53.1719C174.574 53.6523 175.43 53.8926 176.52 53.8926C176.941 53.8926 177.352 53.8516 177.75 53.7695C178.16 53.6758 178.523 53.5293 178.84 53.3301C179.156 53.1191 179.408 52.8379 179.596 52.4863C179.783 52.1348 179.877 51.6953 179.877 51.168C179.877 50.5703 179.76 50.084 179.525 49.709C179.291 49.334 178.928 48.9941 178.436 48.6895C177.943 48.373 177.076 47.9512 175.834 47.4238C174.768 46.9785 173.912 46.5449 173.268 46.123C172.623 45.7012 172.113 45.2031 171.738 44.6289C171.375 44.0547 171.193 43.375 171.193 42.5898C171.193 41.6289 171.451 40.7969 171.967 40.0938C172.494 39.3789 173.25 38.834 174.234 38.459C175.219 38.084 176.373 37.8965 177.697 37.8965C178.471 37.8965 179.215 37.9375 179.93 38.0195C180.656 38.0898 181.564 38.2363 182.654 38.459V42.0449ZM191.373 31.3047V34.7148H188.139V31.3047H191.373ZM186.346 54.1387C186.803 53.998 187.125 53.875 187.312 53.7695C187.512 53.6641 187.676 53.5176 187.805 53.3301C187.945 53.1426 188.051 52.8555 188.121 52.4688C188.203 52.082 188.244 51.4785 188.244 50.6582V42.9941C188.244 42.2441 188.232 41.6406 188.209 41.1836C188.186 40.7266 188.104 40.3633 187.963 40.0938C187.822 39.8125 187.605 39.6074 187.312 39.4785C187.031 39.3379 186.627 39.2207 186.1 39.127V38.1953L190.195 38.0371H191.268V50.6055C191.268 51.6133 191.314 52.3164 191.408 52.7148C191.502 53.1016 191.678 53.4004 191.936 53.6113C192.205 53.8105 192.639 53.9863 193.236 54.1387V55H186.346V54.1387ZM213.486 55H206.561V54.1387C207.018 53.998 207.346 53.875 207.545 53.7695C207.744 53.6641 207.908 53.5176 208.037 53.3301C208.178 53.1426 208.283 52.8555 208.354 52.4688C208.436 52.0703 208.477 51.4727 208.477 50.6758V46.0703C208.477 45.25 208.453 44.5059 208.406 43.8379C208.359 43.1699 208.277 42.625 208.16 42.2031C208.055 41.7695 207.92 41.4355 207.756 41.2012C207.604 40.9551 207.416 40.75 207.193 40.5859C206.982 40.4102 206.736 40.2754 206.455 40.1816C206.174 40.0762 205.805 40.0234 205.348 40.0234C204.891 40.0234 204.457 40.1172 204.047 40.3047C203.637 40.4805 203.186 40.791 202.693 41.2363C202.201 41.6816 201.844 42.1211 201.621 42.5547C201.398 42.9883 201.287 43.4863 201.287 44.0488V50.6055C201.287 51.6133 201.334 52.3164 201.428 52.7148C201.521 53.1016 201.697 53.4004 201.955 53.6113C202.225 53.8105 202.658 53.9863 203.256 54.1387V55H196.365V54.1387C196.822 53.998 197.145 53.875 197.332 53.7695C197.531 53.6641 197.695 53.5176 197.824 53.3301C197.965 53.1426 198.07 52.8555 198.141 52.4688C198.223 52.082 198.264 51.4785 198.264 50.6582V42.9941C198.264 42.2441 198.252 41.6406 198.229 41.1836C198.205 40.7266 198.123 40.3633 197.982 40.0938C197.842 39.8125 197.625 39.6074 197.332 39.4785C197.051 39.3379 196.646 39.2207 196.119 39.127V38.1953L200.232 38.0371H201.305L201.111 40.9023L201.357 40.9727C202.225 40.0938 202.922 39.4668 203.449 39.0918C203.988 38.7168 204.527 38.4297 205.066 38.2305C205.617 38.0195 206.197 37.9141 206.807 37.9141C207.439 37.9141 208.002 37.9902 208.494 38.1426C208.998 38.2832 209.438 38.5059 209.812 38.8105C210.199 39.1152 210.516 39.4961 210.762 39.9531C211.008 40.3984 211.189 40.9375 211.307 41.5703C211.436 42.2031 211.5 43.0059 211.5 43.9785V50.6055C211.5 51.4141 211.523 52 211.57 52.3633C211.617 52.7266 211.699 53.0078 211.816 53.207C211.934 53.4062 212.104 53.5762 212.326 53.7168C212.549 53.8457 212.936 53.9863 213.486 54.1387V55ZM254.812 45.877V56.002H252.316V45.877H242.736V43.5391H252.316V33.4141H254.812V43.5391H264.393V45.877H254.812ZM293.273 31.5156V36.3848H291.533C291.252 35.3652 290.895 34.5566 290.461 33.959C290.027 33.3496 289.523 32.916 288.949 32.6582C288.375 32.4004 287.684 32.2715 286.875 32.2715C285.668 32.2715 284.59 32.6758 283.641 33.4844C282.703 34.2812 281.965 35.4883 281.426 37.1055C280.887 38.7109 280.617 40.6562 280.617 42.9414C280.617 45.2383 280.84 47.2012 281.285 48.8301C281.73 50.4473 282.387 51.6719 283.254 52.5039C284.121 53.3242 285.188 53.7344 286.453 53.7344C287.414 53.7344 288.199 53.5996 288.809 53.3301C289.418 53.0488 289.928 52.6094 290.338 52.0117C290.76 51.4141 291.158 50.5352 291.533 49.375H293.273V54.4023C292.172 54.6953 291.041 54.9121 289.881 55.0527C288.732 55.2051 287.467 55.2812 286.084 55.2812C283.107 55.2812 280.857 54.2734 279.334 52.2578C277.811 50.2422 277.049 47.2363 277.049 43.2402C277.049 40.7324 277.441 38.5352 278.227 36.6484C279.023 34.7617 280.189 33.3027 281.725 32.2715C283.26 31.2402 285.094 30.7246 287.227 30.7246C288.293 30.7246 289.277 30.7832 290.18 30.9004C291.082 31.0059 292.113 31.2109 293.273 31.5156Z" fill="white"/>
<path d="M80.7539 44.8574L83.0391 41.957C83.2852 41.6406 83.4844 41.3359 83.6367 41.043C83.7891 40.7383 83.8652 40.4277 83.8652 40.1113C83.8652 39.8418 83.7656 39.6191 83.5664 39.4434C83.3672 39.2676 83.0566 39.1387 82.6348 39.0566V38.1953H88.3828V39.0566C87.9375 39.1855 87.4805 39.4375 87.0117 39.8125C86.5547 40.1875 85.9922 40.791 85.3242 41.623L81.6855 46.0879L85.6934 51.4844C86.2676 52.2578 86.7832 52.8496 87.2402 53.2598C87.6973 53.6699 88.1543 53.9629 88.6113 54.1387V55H81.5449V54.1387C82.5176 54.0215 83.0039 53.6582 83.0039 53.0488C83.0039 52.8027 82.9629 52.5684 82.8809 52.3457C82.7988 52.123 82.6465 51.8652 82.4238 51.5723L79.875 48.0215L77.168 51.5371C76.9688 51.7949 76.8105 52.0352 76.6934 52.2578C76.5879 52.4688 76.5352 52.709 76.5352 52.9785C76.5352 53.2949 76.6406 53.5586 76.8516 53.7695C77.0742 53.9688 77.4199 54.0918 77.8887 54.1387V55H72.0176V54.1387C72.4043 53.998 72.75 53.8223 73.0547 53.6113C73.3711 53.4004 73.6875 53.1309 74.0039 52.8027C74.332 52.4629 74.7598 51.9707 75.2871 51.3262L78.9434 46.791L75.1992 41.6582C74.6836 40.9551 74.2734 40.4453 73.9688 40.1289C73.6641 39.8125 73.3828 39.5723 73.125 39.4082C72.8672 39.2441 72.6094 39.127 72.3516 39.0566V38.1953H79.2422V39.0566C78.3164 39.1973 77.8535 39.5605 77.8535 40.1465C77.8535 40.416 77.9121 40.6855 78.0293 40.9551C78.1582 41.2246 78.3516 41.5234 78.6094 41.8516L80.7539 44.8574ZM223.91 44.8574L226.195 41.957C226.441 41.6406 226.641 41.3359 226.793 41.043C226.945 40.7383 227.021 40.4277 227.021 40.1113C227.021 39.8418 226.922 39.6191 226.723 39.4434C226.523 39.2676 226.213 39.1387 225.791 39.0566V38.1953H231.539V39.0566C231.094 39.1855 230.637 39.4375 230.168 39.8125C229.711 40.1875 229.148 40.791 228.48 41.623L224.842 46.0879L228.85 51.4844C229.424 52.2578 229.939 52.8496 230.396 53.2598C230.854 53.6699 231.311 53.9629 231.768 54.1387V55H224.701V54.1387C225.674 54.0215 226.16 53.6582 226.16 53.0488C226.16 52.8027 226.119 52.5684 226.037 52.3457C225.955 52.123 225.803 51.8652 225.58 51.5723L223.031 48.0215L220.324 51.5371C220.125 51.7949 219.967 52.0352 219.85 52.2578C219.744 52.4688 219.691 52.709 219.691 52.9785C219.691 53.2949 219.797 53.5586 220.008 53.7695C220.23 53.9688 220.576 54.0918 221.045 54.1387V55H215.174V54.1387C215.561 53.998 215.906 53.8223 216.211 53.6113C216.527 53.4004 216.844 53.1309 217.16 52.8027C217.488 52.4629 217.916 51.9707 218.443 51.3262L222.1 46.791L218.355 41.6582C217.84 40.9551 217.43 40.4453 217.125 40.1289C216.82 39.8125 216.539 39.5723 216.281 39.4082C216.023 39.2441 215.766 39.127 215.508 39.0566V38.1953H222.398V39.0566C221.473 39.1973 221.01 39.5605 221.01 40.1465C221.01 40.416 221.068 40.6855 221.186 40.9551C221.314 41.2246 221.508 41.5234 221.766 41.8516L223.91 44.8574Z" fill="#89B8FF"/>
<path d="M4.08789 8.56348C2.96224 8.23991 2.14193 7.84342 1.62695 7.37402C1.11654 6.90007 0.861328 6.31673 0.861328 5.62402C0.861328 4.84017 1.1735 4.19303 1.79785 3.68262C2.42676 3.16764 3.24251 2.91016 4.24512 2.91016C4.92871 2.91016 5.53711 3.04232 6.07031 3.30664C6.60807 3.57096 7.02279 3.93555 7.31445 4.40039C7.61068 4.86523 7.75879 5.37337 7.75879 5.9248H6.43945C6.43945 5.32324 6.24805 4.85156 5.86523 4.50977C5.48242 4.16341 4.94238 3.99023 4.24512 3.99023C3.59798 3.99023 3.09212 4.13379 2.72754 4.4209C2.36751 4.70345 2.1875 5.09766 2.1875 5.60352C2.1875 6.00911 2.3584 6.35319 2.7002 6.63574C3.04655 6.91374 3.63216 7.16895 4.45703 7.40137C5.28646 7.63379 5.93359 7.89128 6.39844 8.17383C6.86784 8.45182 7.21419 8.77767 7.4375 9.15137C7.66536 9.52507 7.7793 9.96484 7.7793 10.4707C7.7793 11.2773 7.46484 11.9245 6.83594 12.4121C6.20703 12.8952 5.36621 13.1367 4.31348 13.1367C3.62988 13.1367 2.99186 13.0068 2.39941 12.7471C1.80697 12.4827 1.34896 12.1227 1.02539 11.667C0.70638 11.2113 0.546875 10.694 0.546875 10.1152H1.86621C1.86621 10.7168 2.08724 11.193 2.5293 11.5439C2.97591 11.8903 3.57064 12.0635 4.31348 12.0635C5.00618 12.0635 5.53711 11.9222 5.90625 11.6396C6.27539 11.3571 6.45996 10.972 6.45996 10.4844C6.45996 9.99674 6.28906 9.62077 5.94727 9.35645C5.60547 9.08757 4.98568 8.82324 4.08789 8.56348ZM12.3389 13.1367C11.3363 13.1367 10.5205 12.8086 9.8916 12.1523C9.2627 11.4915 8.94824 10.6097 8.94824 9.50684V9.27441C8.94824 8.54069 9.08724 7.88672 9.36523 7.3125C9.64779 6.73372 10.0397 6.28255 10.541 5.95898C11.0469 5.63086 11.5938 5.4668 12.1816 5.4668C13.1432 5.4668 13.8906 5.78353 14.4238 6.41699C14.957 7.05046 15.2236 7.95736 15.2236 9.1377V9.66406H10.2129C10.2311 10.3932 10.443 10.9834 10.8486 11.4346C11.2588 11.8812 11.7783 12.1045 12.4072 12.1045C12.8538 12.1045 13.2321 12.0133 13.542 11.8311C13.8519 11.6488 14.123 11.4072 14.3555 11.1064L15.1279 11.708C14.5081 12.6605 13.5785 13.1367 12.3389 13.1367ZM12.1816 6.50586C11.6712 6.50586 11.2428 6.69271 10.8965 7.06641C10.5501 7.43555 10.3359 7.95508 10.2539 8.625H13.959V8.5293C13.9225 7.88672 13.7493 7.38997 13.4395 7.03906C13.1296 6.68359 12.7103 6.50586 12.1816 6.50586ZM17.8896 5.60352L17.9307 6.5332C18.4958 5.82227 19.234 5.4668 20.1455 5.4668C21.7087 5.4668 22.4971 6.34863 22.5107 8.1123V13H21.2461V8.10547C21.2415 7.57227 21.1185 7.17806 20.877 6.92285C20.64 6.66764 20.2686 6.54004 19.7627 6.54004C19.3525 6.54004 18.9925 6.64941 18.6826 6.86816C18.3727 7.08691 18.1312 7.37402 17.958 7.72949V13H16.6934V5.60352H17.8896ZM24.083 9.2334C24.083 8.50879 24.2243 7.8571 24.5068 7.27832C24.7939 6.69954 25.1904 6.25293 25.6963 5.93848C26.2067 5.62402 26.7878 5.4668 27.4395 5.4668C28.4466 5.4668 29.2601 5.81543 29.8799 6.5127C30.5042 7.20996 30.8164 8.13737 30.8164 9.29492V9.38379C30.8164 10.1038 30.6774 10.751 30.3994 11.3252C30.126 11.8949 29.7318 12.3392 29.2168 12.6582C28.7064 12.9772 28.1185 13.1367 27.4531 13.1367C26.4505 13.1367 25.637 12.7881 25.0127 12.0908C24.3929 11.3936 24.083 10.4707 24.083 9.32227V9.2334ZM25.3545 9.38379C25.3545 10.2041 25.5436 10.8626 25.9219 11.3594C26.3047 11.8561 26.8151 12.1045 27.4531 12.1045C28.0957 12.1045 28.6061 11.8538 28.9844 11.3525C29.3626 10.8467 29.5518 10.1403 29.5518 9.2334C29.5518 8.4222 29.3581 7.76595 28.9707 7.26465C28.5879 6.75879 28.0775 6.50586 27.4395 6.50586C26.8151 6.50586 26.3115 6.75423 25.9287 7.25098C25.5459 7.74772 25.3545 8.45866 25.3545 9.38379Z" fill="#41D17A"/>
</svg>
