<svg width="315" height="63" viewBox="0 0 315 63" fill="none" xmlns="http://www.w3.org/2000/svg">
<path d="M18.5273 27.4199H16.7168C16.623 26.9043 16.4355 26.4824 16.1543 26.1543C15.873 25.8145 15.498 25.6445 15.0293 25.6445C13.7754 25.6445 12.9492 26.6641 12.5508 28.7031C12.1641 30.7305 11.9707 35.3887 11.9707 42.6777C11.9707 48.7246 11.4141 53.5234 10.3008 57.0742C9.19922 60.625 7.24805 62.4004 4.44727 62.4004C3.88477 62.4004 3.39258 62.3535 2.9707 62.2598C2.54883 62.166 2.13867 62.0137 1.74023 61.8027L1.96875 58.3398H3.62109C3.77344 58.9023 3.99609 59.3652 4.28906 59.7285C4.59375 60.0918 5.02148 60.2734 5.57227 60.2734C6.80273 60.2734 7.57617 58.9961 7.89258 56.4414C8.20898 53.8984 8.36719 50.1836 8.36719 45.2969C8.36719 37.6797 8.94141 32.1309 10.0898 28.6504C11.25 25.1699 13.2539 23.4297 16.1016 23.4297C16.5117 23.4297 16.9629 23.4883 17.4551 23.6055C17.959 23.7109 18.3867 23.8457 18.7383 24.0098L18.5273 27.4199ZM34.6113 42.0449H32.9238C32.666 41.3418 32.3613 40.791 32.0098 40.3926C31.6582 39.9824 31.2598 39.6953 30.8145 39.5312C30.3691 39.3672 29.8242 39.2852 29.1797 39.2852C28.2422 39.2852 27.4922 39.5078 26.9297 39.9531C26.3789 40.3867 26.1035 40.9844 26.1035 41.7461C26.1035 42.2852 26.2148 42.7305 26.4375 43.082C26.6602 43.4336 27.0059 43.7617 27.4746 44.0664C27.9434 44.3711 28.7695 44.7754 29.9531 45.2793C31.1484 45.7949 32.0684 46.2695 32.7129 46.7031C33.3691 47.1367 33.8789 47.6406 34.2422 48.2148C34.6172 48.7891 34.8047 49.4746 34.8047 50.2715C34.8047 51.1973 34.6465 51.9766 34.3301 52.6094C34.0137 53.2422 33.5684 53.7578 32.9941 54.1562C32.4199 54.5547 31.7344 54.8418 30.9375 55.0176C30.1523 55.1934 29.291 55.2812 28.3535 55.2812C27.3691 55.2812 26.4141 55.2051 25.4883 55.0527C24.5625 54.9121 23.6602 54.7246 22.7812 54.4902V50.8164H24.5039C24.8203 51.8945 25.2891 52.6797 25.9102 53.1719C26.5312 53.6523 27.3867 53.8926 28.4766 53.8926C28.8984 53.8926 29.3086 53.8516 29.707 53.7695C30.1172 53.6758 30.4805 53.5293 30.7969 53.3301C31.1133 53.1191 31.3652 52.8379 31.5527 52.4863C31.7402 52.1348 31.834 51.6953 31.834 51.168C31.834 50.5703 31.7168 50.084 31.4824 49.709C31.248 49.334 30.8848 48.9941 30.3926 48.6895C29.9004 48.373 29.0332 47.9512 27.791 47.4238C26.7246 46.9785 25.8691 46.5449 25.2246 46.123C24.5801 45.7012 24.0703 45.2031 23.6953 44.6289C23.332 44.0547 23.1504 43.375 23.1504 42.5898C23.1504 41.6289 23.4082 40.7969 23.9238 40.0938C24.4512 39.3789 25.207 38.834 26.1914 38.459C27.1758 38.084 28.3301 37.8965 29.6543 37.8965C30.4277 37.8965 31.1719 37.9375 31.8867 38.0195C32.6133 38.0898 33.5215 38.2363 34.6113 38.459V42.0449ZM43.3301 31.3047V34.7148H40.0957V31.3047H43.3301ZM38.3027 54.1387C38.7598 53.998 39.082 53.875 39.2695 53.7695C39.4688 53.6641 39.6328 53.5176 39.7617 53.3301C39.9023 53.1426 40.0078 52.8555 40.0781 52.4688C40.1602 52.082 40.2012 51.4785 40.2012 50.6582V42.9941C40.2012 42.2441 40.1895 41.6406 40.166 41.1836C40.1426 40.7266 40.0605 40.3633 39.9199 40.0938C39.7793 39.8125 39.5625 39.6074 39.2695 39.4785C38.9883 39.3379 38.584 39.2207 38.0566 39.127V38.1953L42.1523 38.0371H43.2246V50.6055C43.2246 51.6133 43.2715 52.3164 43.3652 52.7148C43.459 53.1016 43.6348 53.4004 43.8926 53.6113C44.1621 53.8105 44.5957 53.9863 45.1934 54.1387V55H38.3027V54.1387ZM65.4434 55H58.5176V54.1387C58.9746 53.998 59.3027 53.875 59.502 53.7695C59.7012 53.6641 59.8652 53.5176 59.9941 53.3301C60.1348 53.1426 60.2402 52.8555 60.3105 52.4688C60.3926 52.0703 60.4336 51.4727 60.4336 50.6758V46.0703C60.4336 45.25 60.4102 44.5059 60.3633 43.8379C60.3164 43.1699 60.2344 42.625 60.1172 42.2031C60.0117 41.7695 59.877 41.4355 59.7129 41.2012C59.5605 40.9551 59.373 40.75 59.1504 40.5859C58.9395 40.4102 58.6934 40.2754 58.4121 40.1816C58.1309 40.0762 57.7617 40.0234 57.3047 40.0234C56.8477 40.0234 56.4141 40.1172 56.0039 40.3047C55.5938 40.4805 55.1426 40.791 54.6504 41.2363C54.1582 41.6816 53.8008 42.1211 53.5781 42.5547C53.3555 42.9883 53.2441 43.4863 53.2441 44.0488V50.6055C53.2441 51.6133 53.291 52.3164 53.3848 52.7148C53.4785 53.1016 53.6543 53.4004 53.9121 53.6113C54.1816 53.8105 54.6152 53.9863 55.2129 54.1387V55H48.3223V54.1387C48.7793 53.998 49.1016 53.875 49.2891 53.7695C49.4883 53.6641 49.6523 53.5176 49.7812 53.3301C49.9219 53.1426 50.0273 52.8555 50.0977 52.4688C50.1797 52.082 50.2207 51.4785 50.2207 50.6582V42.9941C50.2207 42.2441 50.209 41.6406 50.1855 41.1836C50.1621 40.7266 50.0801 40.3633 49.9395 40.0938C49.7988 39.8125 49.582 39.6074 49.2891 39.4785C49.0078 39.3379 48.6035 39.2207 48.0762 39.127V38.1953L52.1895 38.0371H53.2617L53.0684 40.9023L53.3145 40.9727C54.1816 40.0938 54.8789 39.4668 55.4062 39.0918C55.9453 38.7168 56.4844 38.4297 57.0234 38.2305C57.5742 38.0195 58.1543 37.9141 58.7637 37.9141C59.3965 37.9141 59.959 37.9902 60.4512 38.1426C60.9551 38.2832 61.3945 38.5059 61.7695 38.8105C62.1562 39.1152 62.4727 39.4961 62.7188 39.9531C62.9648 40.3984 63.1465 40.9375 63.2637 41.5703C63.3926 42.2031 63.457 43.0059 63.457 43.9785V50.6055C63.457 51.4141 63.4805 52 63.5273 52.3633C63.5742 52.7266 63.6562 53.0078 63.7734 53.207C63.8906 53.4062 64.0605 53.5762 64.2832 53.7168C64.5059 53.8457 64.8926 53.9863 65.4434 54.1387V55ZM97.6992 35.8926C97.6992 34.7676 97.6875 33.9824 97.6641 33.5371C97.6523 33.0918 97.6055 32.7168 97.5234 32.4121C97.4531 32.0957 97.3477 31.8496 97.207 31.6738C97.0781 31.498 96.8965 31.3574 96.6621 31.252C96.4395 31.1465 96.0293 31.041 95.4316 30.9355V30.0215L99.6855 29.8457H100.723V50.2012C100.723 51.1152 100.74 51.7715 100.775 52.1699C100.811 52.5566 100.887 52.8672 101.004 53.1016C101.121 53.3359 101.303 53.5293 101.549 53.6816C101.807 53.8223 102.252 53.957 102.885 54.0859V55L98.7363 55.1758H97.6816L97.8926 52.293L97.6289 52.2227C96.8906 53.0078 96.2461 53.5996 95.6953 53.998C95.1562 54.3848 94.5762 54.6953 93.9551 54.9297C93.3457 55.1641 92.6895 55.2812 91.9863 55.2812C90.0645 55.2812 88.582 54.5547 87.5391 53.1016C86.4961 51.6367 85.9746 49.5273 85.9746 46.7734C85.9746 44.8516 86.3145 43.2227 86.9941 41.8867C87.6738 40.5391 88.5879 39.5371 89.7363 38.8809C90.8965 38.2246 92.1973 37.8965 93.6387 37.8965C94.4121 37.8965 95.1152 37.9609 95.748 38.0898C96.3809 38.207 97.0312 38.4062 97.6992 38.6875V35.8926ZM97.6992 44.5762C97.6992 43.6621 97.6582 42.9297 97.5762 42.3789C97.4941 41.8281 97.3535 41.3652 97.1543 40.9902C96.9668 40.6152 96.709 40.2988 96.3809 40.041C96.0527 39.7832 95.6895 39.5957 95.291 39.4785C94.9043 39.3613 94.4355 39.3027 93.8848 39.3027C92.3848 39.3027 91.2422 39.9062 90.457 41.1133C89.6719 42.3086 89.2793 44.0312 89.2793 46.2812C89.2793 48.5312 89.6016 50.2422 90.2461 51.4141C90.8906 52.5859 91.8691 53.1719 93.1816 53.1719C93.6973 53.1719 94.125 53.1309 94.4648 53.0488C94.8047 52.9551 95.1387 52.8145 95.4668 52.627C95.7949 52.4277 96.1289 52.1582 96.4688 51.8184C96.8086 51.4785 97.0547 51.168 97.207 50.8867C97.3711 50.6055 97.4941 50.2832 97.5762 49.9199C97.6582 49.5566 97.6992 49.0879 97.6992 48.5137V44.5762ZM113.238 44.8574L115.523 41.957C115.77 41.6406 115.969 41.3359 116.121 41.043C116.273 40.7383 116.35 40.4277 116.35 40.1113C116.35 39.8418 116.25 39.6191 116.051 39.4434C115.852 39.2676 115.541 39.1387 115.119 39.0566V38.1953H120.867V39.0566C120.422 39.1855 119.965 39.4375 119.496 39.8125C119.039 40.1875 118.477 40.791 117.809 41.623L114.17 46.0879L118.178 51.4844C118.752 52.2578 119.268 52.8496 119.725 53.2598C120.182 53.6699 120.639 53.9629 121.096 54.1387V55H114.029V54.1387C115.002 54.0215 115.488 53.6582 115.488 53.0488C115.488 52.8027 115.447 52.5684 115.365 52.3457C115.283 52.123 115.131 51.8652 114.908 51.5723L112.359 48.0215L109.652 51.5371C109.453 51.7949 109.295 52.0352 109.178 52.2578C109.072 52.4688 109.02 52.709 109.02 52.9785C109.02 53.2949 109.125 53.5586 109.336 53.7695C109.559 53.9688 109.904 54.0918 110.373 54.1387V55H104.502V54.1387C104.889 53.998 105.234 53.8223 105.539 53.6113C105.855 53.4004 106.172 53.1309 106.488 52.8027C106.816 52.4629 107.244 51.9707 107.771 51.3262L111.428 46.791L107.684 41.6582C107.168 40.9551 106.758 40.4453 106.453 40.1289C106.148 39.8125 105.867 39.5723 105.609 39.4082C105.352 39.2441 105.094 39.127 104.836 39.0566V38.1953H111.727V39.0566C110.801 39.1973 110.338 39.5605 110.338 40.1465C110.338 40.416 110.396 40.6855 110.514 40.9551C110.643 41.2246 110.836 41.5234 111.094 41.8516L113.238 44.8574ZM132.064 42.2383V39.9004H153.721V42.2383H132.064ZM132.064 49.5332V47.1953H153.721V49.5332H132.064ZM174.34 47.1074H166.184V44.3828H174.34V47.1074ZM191.039 38.5996V42.2734H188.807C188.607 41.5117 188.361 40.9141 188.068 40.4805C187.775 40.0352 187.436 39.7246 187.049 39.5488C186.662 39.373 186.182 39.2852 185.607 39.2852C184.787 39.2852 184.061 39.5488 183.428 40.0762C182.795 40.6035 182.291 41.4062 181.916 42.4844C181.553 43.5625 181.371 44.8809 181.371 46.4395C181.371 47.4355 181.441 48.3496 181.582 49.1816C181.723 50.002 181.963 50.7051 182.303 51.291C182.643 51.877 183.094 52.334 183.656 52.6621C184.219 52.9902 184.916 53.1543 185.748 53.1543C186.557 53.1543 187.307 52.9961 187.998 52.6797C188.701 52.3633 189.428 51.8066 190.178 51.0098L191.18 52.1699C190.582 52.8262 190.055 53.3359 189.598 53.6992C189.141 54.0508 188.648 54.3496 188.121 54.5957C187.605 54.8301 187.09 55 186.574 55.1055C186.07 55.2227 185.52 55.2812 184.922 55.2812C182.707 55.2812 181.014 54.5488 179.842 53.084C178.67 51.6074 178.084 49.4805 178.084 46.7031C178.084 44.9688 178.412 43.4336 179.068 42.0977C179.725 40.75 180.645 39.7129 181.828 38.9863C183.012 38.2598 184.377 37.8965 185.924 37.8965C186.885 37.8965 187.77 37.9551 188.578 38.0723C189.398 38.1777 190.219 38.3535 191.039 38.5996ZM201.48 55.2812C199.043 55.2812 197.18 54.5664 195.891 53.1367C194.613 51.6953 193.975 49.5684 193.975 46.7559C193.975 44.8223 194.309 43.1875 194.977 41.8516C195.656 40.5156 196.582 39.5254 197.754 38.8809C198.926 38.2246 200.262 37.8965 201.762 37.8965C204.27 37.8965 206.168 38.6289 207.457 40.0938C208.746 41.5469 209.391 43.6387 209.391 46.3691C209.391 48.3145 209.068 49.9551 208.424 51.291C207.779 52.627 206.865 53.6289 205.682 54.2969C204.498 54.9531 203.098 55.2812 201.48 55.2812ZM197.297 46.3867C197.297 48.8008 197.678 50.6582 198.439 51.959C199.213 53.248 200.314 53.8926 201.744 53.8926C202.529 53.8926 203.197 53.7051 203.748 53.3301C204.299 52.9434 204.744 52.4277 205.084 51.7832C205.436 51.1387 205.688 50.3945 205.84 49.5508C205.992 48.6953 206.068 47.8047 206.068 46.8789C206.068 45.1562 205.875 43.7266 205.488 42.5898C205.113 41.4531 204.598 40.6211 203.941 40.0938C203.285 39.5547 202.535 39.2852 201.691 39.2852C200.273 39.2852 199.184 39.9004 198.422 41.1309C197.672 42.3613 197.297 44.1133 197.297 46.3867ZM224.736 42.0449H223.049C222.791 41.3418 222.486 40.791 222.135 40.3926C221.783 39.9824 221.385 39.6953 220.939 39.5312C220.494 39.3672 219.949 39.2852 219.305 39.2852C218.367 39.2852 217.617 39.5078 217.055 39.9531C216.504 40.3867 216.229 40.9844 216.229 41.7461C216.229 42.2852 216.34 42.7305 216.562 43.082C216.785 43.4336 217.131 43.7617 217.6 44.0664C218.068 44.3711 218.895 44.7754 220.078 45.2793C221.273 45.7949 222.193 46.2695 222.838 46.7031C223.494 47.1367 224.004 47.6406 224.367 48.2148C224.742 48.7891 224.93 49.4746 224.93 50.2715C224.93 51.1973 224.771 51.9766 224.455 52.6094C224.139 53.2422 223.693 53.7578 223.119 54.1562C222.545 54.5547 221.859 54.8418 221.062 55.0176C220.277 55.1934 219.416 55.2812 218.479 55.2812C217.494 55.2812 216.539 55.2051 215.613 55.0527C214.688 54.9121 213.785 54.7246 212.906 54.4902V50.8164H214.629C214.945 51.8945 215.414 52.6797 216.035 53.1719C216.656 53.6523 217.512 53.8926 218.602 53.8926C219.023 53.8926 219.434 53.8516 219.832 53.7695C220.242 53.6758 220.605 53.5293 220.922 53.3301C221.238 53.1191 221.49 52.8379 221.678 52.4863C221.865 52.1348 221.959 51.6953 221.959 51.168C221.959 50.5703 221.842 50.084 221.607 49.709C221.373 49.334 221.01 48.9941 220.518 48.6895C220.025 48.373 219.158 47.9512 217.916 47.4238C216.85 46.9785 215.994 46.5449 215.35 46.123C214.705 45.7012 214.195 45.2031 213.82 44.6289C213.457 44.0547 213.275 43.375 213.275 42.5898C213.275 41.6289 213.533 40.7969 214.049 40.0938C214.576 39.3789 215.332 38.834 216.316 38.459C217.301 38.084 218.455 37.8965 219.779 37.8965C220.553 37.8965 221.297 37.9375 222.012 38.0195C222.738 38.0898 223.646 38.2363 224.736 38.459V42.0449ZM266.766 45.877V56.002H264.27V45.877H254.689V43.5391H264.27V33.4141H266.766V43.5391H276.346V45.877H266.766ZM305.227 31.5156V36.3848H303.486C303.205 35.3652 302.848 34.5566 302.414 33.959C301.98 33.3496 301.477 32.916 300.902 32.6582C300.328 32.4004 299.637 32.2715 298.828 32.2715C297.621 32.2715 296.543 32.6758 295.594 33.4844C294.656 34.2812 293.918 35.4883 293.379 37.1055C292.84 38.7109 292.57 40.6562 292.57 42.9414C292.57 45.2383 292.793 47.2012 293.238 48.8301C293.684 50.4473 294.34 51.6719 295.207 52.5039C296.074 53.3242 297.141 53.7344 298.406 53.7344C299.367 53.7344 300.152 53.5996 300.762 53.3301C301.371 53.0488 301.881 52.6094 302.291 52.0117C302.713 51.4141 303.111 50.5352 303.486 49.375H305.227V54.4023C304.125 54.6953 302.994 54.9121 301.834 55.0527C300.686 55.2051 299.42 55.2812 298.037 55.2812C295.061 55.2812 292.811 54.2734 291.287 52.2578C289.764 50.2422 289.002 47.2363 289.002 43.2402C289.002 40.7324 289.395 38.5352 290.18 36.6484C290.977 34.7617 292.143 33.3027 293.678 32.2715C295.213 31.2402 297.047 30.7246 299.18 30.7246C300.246 30.7246 301.23 30.7832 302.133 30.9004C303.035 31.0059 304.066 31.2109 305.227 31.5156Z" fill="white"/>
<path d="M75.8672 44.8574L78.1523 41.957C78.3984 41.6406 78.5977 41.3359 78.75 41.043C78.9023 40.7383 78.9785 40.4277 78.9785 40.1113C78.9785 39.8418 78.8789 39.6191 78.6797 39.4434C78.4805 39.2676 78.1699 39.1387 77.748 39.0566V38.1953H83.4961V39.0566C83.0508 39.1855 82.5938 39.4375 82.125 39.8125C81.668 40.1875 81.1055 40.791 80.4375 41.623L76.7988 46.0879L80.8066 51.4844C81.3809 52.2578 81.8965 52.8496 82.3535 53.2598C82.8105 53.6699 83.2676 53.9629 83.7246 54.1387V55H76.6582V54.1387C77.6309 54.0215 78.1172 53.6582 78.1172 53.0488C78.1172 52.8027 78.0762 52.5684 77.9941 52.3457C77.9121 52.123 77.7598 51.8652 77.5371 51.5723L74.9883 48.0215L72.2812 51.5371C72.082 51.7949 71.9238 52.0352 71.8066 52.2578C71.7012 52.4688 71.6484 52.709 71.6484 52.9785C71.6484 53.2949 71.7539 53.5586 71.9648 53.7695C72.1875 53.9688 72.5332 54.0918 73.002 54.1387V55H67.1309V54.1387C67.5176 53.998 67.8633 53.8223 68.168 53.6113C68.4844 53.4004 68.8008 53.1309 69.1172 52.8027C69.4453 52.4629 69.873 51.9707 70.4004 51.3262L74.0566 46.791L70.3125 41.6582C69.7969 40.9551 69.3867 40.4453 69.082 40.1289C68.7773 39.8125 68.4961 39.5723 68.2383 39.4082C67.9805 39.2441 67.7227 39.127 67.4648 39.0566V38.1953H74.3555V39.0566C73.4297 39.1973 72.9668 39.5605 72.9668 40.1465C72.9668 40.416 73.0254 40.6855 73.1426 40.9551C73.2715 41.2246 73.4648 41.5234 73.7227 41.8516L75.8672 44.8574ZM235.863 44.8574L238.148 41.957C238.395 41.6406 238.594 41.3359 238.746 41.043C238.898 40.7383 238.975 40.4277 238.975 40.1113C238.975 39.8418 238.875 39.6191 238.676 39.4434C238.477 39.2676 238.166 39.1387 237.744 39.0566V38.1953H243.492V39.0566C243.047 39.1855 242.59 39.4375 242.121 39.8125C241.664 40.1875 241.102 40.791 240.434 41.623L236.795 46.0879L240.803 51.4844C241.377 52.2578 241.893 52.8496 242.35 53.2598C242.807 53.6699 243.264 53.9629 243.721 54.1387V55H236.654V54.1387C237.627 54.0215 238.113 53.6582 238.113 53.0488C238.113 52.8027 238.072 52.5684 237.99 52.3457C237.908 52.123 237.756 51.8652 237.533 51.5723L234.984 48.0215L232.277 51.5371C232.078 51.7949 231.92 52.0352 231.803 52.2578C231.697 52.4688 231.645 52.709 231.645 52.9785C231.645 53.2949 231.75 53.5586 231.961 53.7695C232.184 53.9688 232.529 54.0918 232.998 54.1387V55H227.127V54.1387C227.514 53.998 227.859 53.8223 228.164 53.6113C228.48 53.4004 228.797 53.1309 229.113 52.8027C229.441 52.4629 229.869 51.9707 230.396 51.3262L234.053 46.791L230.309 41.6582C229.793 40.9551 229.383 40.4453 229.078 40.1289C228.773 39.8125 228.492 39.5723 228.234 39.4082C227.977 39.2441 227.719 39.127 227.461 39.0566V38.1953H234.352V39.0566C233.426 39.1973 232.963 39.5605 232.963 40.1465C232.963 40.416 233.021 40.6855 233.139 40.9551C233.268 41.2246 233.461 41.5234 233.719 41.8516L235.863 44.8574Z" fill="#89B8FF"/>
<path d="M8.47656 9.8418C8.35352 10.8945 7.96387 11.708 7.30762 12.2822C6.65592 12.8519 5.78776 13.1367 4.70312 13.1367C3.52734 13.1367 2.58398 12.7152 1.87305 11.8721C1.16667 11.029 0.813477 9.90104 0.813477 8.48828V7.53125C0.813477 6.60612 0.977539 5.79264 1.30566 5.09082C1.63835 4.389 2.10775 3.85124 2.71387 3.47754C3.31999 3.09928 4.02181 2.91016 4.81934 2.91016C5.87663 2.91016 6.72428 3.20638 7.3623 3.79883C8.00033 4.38672 8.37174 5.20247 8.47656 6.24609H7.15723C7.04329 5.45312 6.79492 4.87891 6.41211 4.52344C6.03385 4.16797 5.50293 3.99023 4.81934 3.99023C3.98079 3.99023 3.32227 4.30013 2.84375 4.91992C2.36979 5.53971 2.13281 6.42155 2.13281 7.56543V8.5293C2.13281 9.60938 2.3584 10.4684 2.80957 11.1064C3.26074 11.7445 3.89193 12.0635 4.70312 12.0635C5.43229 12.0635 5.99056 11.8994 6.37793 11.5713C6.76986 11.2386 7.02962 10.6621 7.15723 9.8418H8.47656ZM9.74121 9.2334C9.74121 8.50879 9.88249 7.8571 10.165 7.27832C10.4521 6.69954 10.8486 6.25293 11.3545 5.93848C11.8649 5.62402 12.446 5.4668 13.0977 5.4668C14.1048 5.4668 14.9183 5.81543 15.5381 6.5127C16.1624 7.20996 16.4746 8.13737 16.4746 9.29492V9.38379C16.4746 10.1038 16.3356 10.751 16.0576 11.3252C15.7842 11.8949 15.39 12.3392 14.875 12.6582C14.3646 12.9772 13.7767 13.1367 13.1113 13.1367C12.1087 13.1367 11.2952 12.7881 10.6709 12.0908C10.0511 11.3936 9.74121 10.4707 9.74121 9.32227V9.2334ZM11.0127 9.38379C11.0127 10.2041 11.2018 10.8626 11.5801 11.3594C11.9629 11.8561 12.4733 12.1045 13.1113 12.1045C13.7539 12.1045 14.2643 11.8538 14.6426 11.3525C15.0208 10.8467 15.21 10.1403 15.21 9.2334C15.21 8.4222 15.0163 7.76595 14.6289 7.26465C14.2461 6.75879 13.7357 6.50586 13.0977 6.50586C12.4733 6.50586 11.9697 6.75423 11.5869 7.25098C11.2041 7.74772 11.0127 8.45866 11.0127 9.38379ZM22.3672 11.0381C22.3672 10.6963 22.2373 10.432 21.9775 10.2451C21.7223 10.0537 21.2734 9.88965 20.6309 9.75293C19.9928 9.61621 19.4847 9.45215 19.1064 9.26074C18.7327 9.06934 18.4548 8.84147 18.2725 8.57715C18.0947 8.31283 18.0059 7.99837 18.0059 7.63379C18.0059 7.02767 18.2611 6.51497 18.7715 6.0957C19.2865 5.67643 19.9427 5.4668 20.7402 5.4668C21.5788 5.4668 22.2578 5.68327 22.7773 6.11621C23.3014 6.54915 23.5635 7.10286 23.5635 7.77734H22.292C22.292 7.43099 22.1439 7.13249 21.8477 6.88184C21.556 6.63118 21.1868 6.50586 20.7402 6.50586C20.2799 6.50586 19.9199 6.60612 19.6602 6.80664C19.4004 7.00716 19.2705 7.26921 19.2705 7.59277C19.2705 7.89811 19.3913 8.12826 19.6328 8.2832C19.8743 8.43815 20.3096 8.58626 20.9385 8.72754C21.5719 8.86882 22.0846 9.03743 22.4766 9.2334C22.8685 9.42936 23.1579 9.66634 23.3447 9.94434C23.5361 10.2178 23.6318 10.5527 23.6318 10.9492C23.6318 11.61 23.3675 12.141 22.8389 12.542C22.3102 12.9385 21.6243 13.1367 20.7812 13.1367C20.1888 13.1367 19.6647 13.0319 19.209 12.8223C18.7533 12.6126 18.3955 12.321 18.1357 11.9473C17.8805 11.569 17.7529 11.1611 17.7529 10.7236H19.0176C19.0404 11.1475 19.209 11.4847 19.5234 11.7354C19.8424 11.9814 20.2617 12.1045 20.7812 12.1045C21.2598 12.1045 21.6426 12.0088 21.9297 11.8174C22.2214 11.6214 22.3672 11.3617 22.3672 11.0381ZM28.3486 13.1367C27.346 13.1367 26.5303 12.8086 25.9014 12.1523C25.2725 11.4915 24.958 10.6097 24.958 9.50684V9.27441C24.958 8.54069 25.097 7.88672 25.375 7.3125C25.6576 6.73372 26.0495 6.28255 26.5508 5.95898C27.0566 5.63086 27.6035 5.4668 28.1914 5.4668C29.153 5.4668 29.9004 5.78353 30.4336 6.41699C30.9668 7.05046 31.2334 7.95736 31.2334 9.1377V9.66406H26.2227C26.2409 10.3932 26.4528 10.9834 26.8584 11.4346C27.2686 11.8812 27.7881 12.1045 28.417 12.1045C28.8636 12.1045 29.2419 12.0133 29.5518 11.8311C29.8617 11.6488 30.1328 11.4072 30.3652 11.1064L31.1377 11.708C30.5179 12.6605 29.5882 13.1367 28.3486 13.1367ZM28.1914 6.50586C27.681 6.50586 27.2526 6.69271 26.9062 7.06641C26.5599 7.43555 26.3457 7.95508 26.2637 8.625H29.9688V8.5293C29.9323 7.88672 29.7591 7.38997 29.4492 7.03906C29.1393 6.68359 28.7201 6.50586 28.1914 6.50586ZM33.8994 5.60352L33.9404 6.5332C34.5055 5.82227 35.2438 5.4668 36.1553 5.4668C37.7184 5.4668 38.5068 6.34863 38.5205 8.1123V13H37.2559V8.10547C37.2513 7.57227 37.1283 7.17806 36.8867 6.92285C36.6497 6.66764 36.2783 6.54004 35.7725 6.54004C35.3623 6.54004 35.0023 6.64941 34.6924 6.86816C34.3825 7.08691 34.141 7.37402 33.9678 7.72949V13H32.7031V5.60352H33.8994ZM40.0928 9.2334C40.0928 8.50879 40.234 7.8571 40.5166 7.27832C40.8037 6.69954 41.2002 6.25293 41.7061 5.93848C42.2165 5.62402 42.7975 5.4668 43.4492 5.4668C44.4564 5.4668 45.2699 5.81543 45.8896 6.5127C46.514 7.20996 46.8262 8.13737 46.8262 9.29492V9.38379C46.8262 10.1038 46.6872 10.751 46.4092 11.3252C46.1357 11.8949 45.7415 12.3392 45.2266 12.6582C44.7161 12.9772 44.1283 13.1367 43.4629 13.1367C42.4603 13.1367 41.6468 12.7881 41.0225 12.0908C40.4027 11.3936 40.0928 10.4707 40.0928 9.32227V9.2334ZM41.3643 9.38379C41.3643 10.2041 41.5534 10.8626 41.9316 11.3594C42.3145 11.8561 42.8249 12.1045 43.4629 12.1045C44.1055 12.1045 44.6159 11.8538 44.9941 11.3525C45.3724 10.8467 45.5615 10.1403 45.5615 9.2334C45.5615 8.4222 45.3678 7.76595 44.9805 7.26465C44.5977 6.75879 44.0872 6.50586 43.4492 6.50586C42.8249 6.50586 42.3213 6.75423 41.9385 7.25098C41.5557 7.74772 41.3643 8.45866 41.3643 9.38379Z" fill="#41D17A"/>
</svg>
