<svg width="423" height="63" viewBox="0 0 423 63" fill="none" xmlns="http://www.w3.org/2000/svg">
<path d="M18.5273 27.4199H16.7168C16.623 26.9043 16.4355 26.4824 16.1543 26.1543C15.873 25.8145 15.498 25.6445 15.0293 25.6445C13.7754 25.6445 12.9492 26.6641 12.5508 28.7031C12.1641 30.7305 11.9707 35.3887 11.9707 42.6777C11.9707 48.7246 11.4141 53.5234 10.3008 57.0742C9.19922 60.625 7.24805 62.4004 4.44727 62.4004C3.88477 62.4004 3.39258 62.3535 2.9707 62.2598C2.54883 62.166 2.13867 62.0137 1.74023 61.8027L1.96875 58.3398H3.62109C3.77344 58.9023 3.99609 59.3652 4.28906 59.7285C4.59375 60.0918 5.02148 60.2734 5.57227 60.2734C6.80273 60.2734 7.57617 58.9961 7.89258 56.4414C8.20898 53.8984 8.36719 50.1836 8.36719 45.2969C8.36719 37.6797 8.94141 32.1309 10.0898 28.6504C11.25 25.1699 13.2539 23.4297 16.1016 23.4297C16.5117 23.4297 16.9629 23.4883 17.4551 23.6055C17.959 23.7109 18.3867 23.8457 18.7383 24.0098L18.5273 27.4199ZM27.334 46.1055C27.334 50.207 27.9902 53.5879 29.3027 56.248C30.627 58.9082 32.6426 60.6895 35.3496 61.5918L34.9277 62.9453C31.4941 62.043 28.8633 60.0977 27.0352 57.1094C25.207 54.1328 24.293 50.5234 24.293 46.2812C24.293 42.0508 25.207 38.4414 27.0352 35.4531C28.875 32.4531 31.5059 30.502 34.9277 29.5996L35.4023 30.9531C32.6602 31.8555 30.627 33.6191 29.3027 36.2441C27.9902 38.8574 27.334 42.1445 27.334 46.1055ZM48.2871 50.4121C48.2871 51.0918 48.3223 51.6074 48.3926 51.959C48.4746 52.2988 48.6094 52.5801 48.7969 52.8027C48.9961 53.0137 49.2773 53.1836 49.6406 53.3125C50.0039 53.4297 50.4609 53.5234 51.0117 53.5938C51.5625 53.6523 52.2891 53.6934 53.1914 53.7168V55H40.2012V53.7168C41.502 53.6582 42.4277 53.582 42.9785 53.4883C43.541 53.3828 43.9688 53.2305 44.2617 53.0312C44.5547 52.832 44.7656 52.5508 44.8945 52.1875C45.0352 51.8242 45.1055 51.2324 45.1055 50.4121V36.1562C45.1055 35.6875 45.0234 35.3477 44.8594 35.1367C44.6953 34.9141 44.4551 34.8027 44.1387 34.8027C43.7637 34.8027 43.2305 34.9961 42.5391 35.3828C41.8477 35.7695 40.9922 36.3027 39.9727 36.9824L39.1992 35.6289L47.4258 30.7246H48.3926C48.3223 31.8496 48.2871 33.4082 48.2871 35.4004V50.4121ZM72.5449 39.0742C73.1309 38.9805 73.6055 38.8164 73.9688 38.582C74.332 38.3477 74.6133 38.0488 74.8125 37.6855C75.0234 37.3105 75.1875 36.8477 75.3047 36.2969C75.4219 35.7344 75.5449 34.9199 75.6738 33.8535H78.1699V38.1953H83.8477V39.9707H78.1699V47.793C78.1699 48.9297 78.2168 49.8379 78.3105 50.5176C78.4043 51.1855 78.5801 51.7129 78.8379 52.0996C79.0957 52.4746 79.3887 52.7441 79.7168 52.9082C80.0449 53.0723 80.4668 53.1543 80.9824 53.1543C81.4512 53.1543 81.8906 53.0605 82.3008 52.873C82.7109 52.6738 83.1152 52.3926 83.5137 52.0293L84.3047 52.9785C83.4727 53.7871 82.6816 54.373 81.9316 54.7363C81.1934 55.0996 80.4258 55.2812 79.6289 55.2812C78.1172 55.2812 76.9922 54.8359 76.2539 53.9453C75.5156 53.043 75.1465 51.6367 75.1465 49.7266V39.9707H72.5449V39.0742ZM95.959 52.4863L95.6953 52.416C94.6758 53.459 93.7148 54.1973 92.8125 54.6309C91.9219 55.0645 90.9727 55.2812 89.9648 55.2812C89.0742 55.2812 88.2891 55.1113 87.6094 54.7715C86.9297 54.4199 86.4082 53.9336 86.0449 53.3125C85.6816 52.6797 85.5 51.9531 85.5 51.1328C85.5 49.4219 86.3438 48.1035 88.0312 47.1777C89.7305 46.2402 92.2734 45.6953 95.6602 45.543V44.4004C95.6602 43.1816 95.543 42.2207 95.3086 41.5176C95.0742 40.8145 94.7051 40.2988 94.2012 39.9707C93.6973 39.6426 93.0234 39.4785 92.1797 39.4785C91.2656 39.4785 90.5273 39.7188 89.9648 40.1992C89.4141 40.6797 88.998 41.4004 88.7168 42.3613H86.4141V40.0762C87.5391 39.4902 88.4766 39.0625 89.2266 38.793C89.9766 38.5117 90.7266 38.2949 91.4766 38.1426C92.2266 37.9785 92.9883 37.8965 93.7617 37.8965C94.9219 37.8965 95.8535 38.084 96.5566 38.459C97.2598 38.8223 97.7871 39.3848 98.1387 40.1465C98.4902 40.9082 98.666 42.0566 98.666 43.5918V49.709C98.666 50.5762 98.6719 51.1914 98.6836 51.5547C98.6953 51.9062 98.7305 52.2344 98.7891 52.5391C98.8477 52.8438 98.9355 53.0898 99.0527 53.2773C99.1699 53.4531 99.3398 53.6055 99.5625 53.7344C99.7969 53.8633 100.172 53.998 100.688 54.1387V55H95.8711L95.959 52.4863ZM95.6602 46.9844C93.2812 47.0078 91.5 47.3242 90.3164 47.9336C89.1328 48.543 88.541 49.4629 88.541 50.6934C88.541 51.3613 88.6758 51.8887 88.9453 52.2754C89.2148 52.6621 89.5547 52.9316 89.9648 53.084C90.375 53.2246 90.8613 53.2949 91.4238 53.2949C92.2207 53.2949 92.9414 53.1016 93.5859 52.7148C94.2422 52.3281 94.752 51.8359 95.1152 51.2383C95.4785 50.6406 95.6602 50.0488 95.6602 49.4629V46.9844ZM120.498 55H113.572V54.1387C114.029 53.998 114.357 53.875 114.557 53.7695C114.756 53.6641 114.92 53.5176 115.049 53.3301C115.189 53.1426 115.295 52.8555 115.365 52.4688C115.447 52.0703 115.488 51.4727 115.488 50.6758V46.0703C115.488 45.25 115.465 44.5059 115.418 43.8379C115.371 43.1699 115.289 42.625 115.172 42.2031C115.066 41.7695 114.932 41.4355 114.768 41.2012C114.615 40.9551 114.428 40.75 114.205 40.5859C113.994 40.4102 113.748 40.2754 113.467 40.1816C113.186 40.0762 112.816 40.0234 112.359 40.0234C111.902 40.0234 111.469 40.1172 111.059 40.3047C110.648 40.4805 110.197 40.791 109.705 41.2363C109.213 41.6816 108.855 42.1211 108.633 42.5547C108.41 42.9883 108.299 43.4863 108.299 44.0488V50.6055C108.299 51.6133 108.346 52.3164 108.439 52.7148C108.533 53.1016 108.709 53.4004 108.967 53.6113C109.236 53.8105 109.67 53.9863 110.268 54.1387V55H103.377V54.1387C103.834 53.998 104.156 53.875 104.344 53.7695C104.543 53.6641 104.707 53.5176 104.836 53.3301C104.977 53.1426 105.082 52.8555 105.152 52.4688C105.234 52.082 105.275 51.4785 105.275 50.6582V42.9941C105.275 42.2441 105.264 41.6406 105.24 41.1836C105.217 40.7266 105.135 40.3633 104.994 40.0938C104.854 39.8125 104.637 39.6074 104.344 39.4785C104.062 39.3379 103.658 39.2207 103.131 39.127V38.1953L107.244 38.0371H108.316L108.123 40.9023L108.369 40.9727C109.236 40.0938 109.934 39.4668 110.461 39.0918C111 38.7168 111.539 38.4297 112.078 38.2305C112.629 38.0195 113.209 37.9141 113.818 37.9141C114.451 37.9141 115.014 37.9902 115.506 38.1426C116.01 38.2832 116.449 38.5059 116.824 38.8105C117.211 39.1152 117.527 39.4961 117.773 39.9531C118.02 40.3984 118.201 40.9375 118.318 41.5703C118.447 42.2031 118.512 43.0059 118.512 43.9785V50.6055C118.512 51.4141 118.535 52 118.582 52.3633C118.629 52.7266 118.711 53.0078 118.828 53.207C118.945 53.4062 119.115 53.5762 119.338 53.7168C119.561 53.8457 119.947 53.9863 120.498 54.1387V55ZM130.676 38.4414C131.086 38.4414 131.396 38.4238 131.607 38.3887C131.83 38.3418 132.006 38.2773 132.135 38.1953C132.264 38.1133 132.369 38.0078 132.451 37.8789C132.545 37.75 132.68 37.4688 132.855 37.0352H134.068L133.822 40.4277H123.521V39.7598C123.92 38.9043 124.459 38.0605 125.139 37.2285C125.818 36.3965 126.615 35.541 127.529 34.6621C128.619 33.6191 129.393 32.834 129.85 32.3066C130.307 31.7676 130.646 31.2637 130.869 30.7949C131.092 30.3145 131.203 29.834 131.203 29.3535C131.203 28.5566 130.975 27.9297 130.518 27.4727C130.072 27.0156 129.428 26.7871 128.584 26.7871C127.857 26.7871 127.236 26.9805 126.721 27.3672C126.217 27.7539 125.83 28.3223 125.561 29.0723H123.891V26.6992C124.934 26.2773 125.895 25.9785 126.773 25.8027C127.652 25.6152 128.432 25.5215 129.111 25.5215C130.037 25.5215 130.799 25.6211 131.396 25.8203C132.006 26.0195 132.492 26.2832 132.855 26.6113C133.219 26.9277 133.471 27.3027 133.611 27.7363C133.764 28.1699 133.84 28.6152 133.84 29.0723C133.84 29.6465 133.723 30.1855 133.488 30.6895C133.254 31.1816 132.867 31.7207 132.328 32.3066C131.801 32.8809 130.857 33.7832 129.498 35.0137C128.045 36.3379 126.99 37.4805 126.334 38.4414H130.676ZM162.58 46.1055C162.58 42.1445 161.924 38.8574 160.611 36.2441C159.299 33.6191 157.266 31.8555 154.512 30.9531L154.986 29.5996C158.408 30.502 161.033 32.4531 162.861 35.4531C164.701 38.4414 165.621 42.0508 165.621 46.2812C165.621 50.5234 164.707 54.1328 162.879 57.1094C161.051 60.0977 158.42 62.043 154.986 62.9453L154.564 61.5918C157.271 60.6895 159.281 58.9082 160.594 56.248C161.918 53.5879 162.58 50.207 162.58 46.1055ZM182.355 35.8926C182.355 34.7676 182.344 33.9824 182.32 33.5371C182.309 33.0918 182.262 32.7168 182.18 32.4121C182.109 32.0957 182.004 31.8496 181.863 31.6738C181.734 31.498 181.553 31.3574 181.318 31.252C181.096 31.1465 180.686 31.041 180.088 30.9355V30.0215L184.342 29.8457H185.379V50.2012C185.379 51.1152 185.396 51.7715 185.432 52.1699C185.467 52.5566 185.543 52.8672 185.66 53.1016C185.777 53.3359 185.959 53.5293 186.205 53.6816C186.463 53.8223 186.908 53.957 187.541 54.0859V55L183.393 55.1758H182.338L182.549 52.293L182.285 52.2227C181.547 53.0078 180.902 53.5996 180.352 53.998C179.812 54.3848 179.232 54.6953 178.611 54.9297C178.002 55.1641 177.346 55.2812 176.643 55.2812C174.721 55.2812 173.238 54.5547 172.195 53.1016C171.152 51.6367 170.631 49.5273 170.631 46.7734C170.631 44.8516 170.971 43.2227 171.65 41.8867C172.33 40.5391 173.244 39.5371 174.393 38.8809C175.553 38.2246 176.854 37.8965 178.295 37.8965C179.068 37.8965 179.771 37.9609 180.404 38.0898C181.037 38.207 181.688 38.4062 182.355 38.6875V35.8926ZM182.355 44.5762C182.355 43.6621 182.314 42.9297 182.232 42.3789C182.15 41.8281 182.01 41.3652 181.811 40.9902C181.623 40.6152 181.365 40.2988 181.037 40.041C180.709 39.7832 180.346 39.5957 179.947 39.4785C179.561 39.3613 179.092 39.3027 178.541 39.3027C177.041 39.3027 175.898 39.9062 175.113 41.1133C174.328 42.3086 173.936 44.0312 173.936 46.2812C173.936 48.5312 174.258 50.2422 174.902 51.4141C175.547 52.5859 176.525 53.1719 177.838 53.1719C178.354 53.1719 178.781 53.1309 179.121 53.0488C179.461 52.9551 179.795 52.8145 180.123 52.627C180.451 52.4277 180.785 52.1582 181.125 51.8184C181.465 51.4785 181.711 51.168 181.863 50.8867C182.027 50.6055 182.15 50.2832 182.232 49.9199C182.314 49.5566 182.355 49.0879 182.355 48.5137V44.5762ZM197.895 44.8574L200.18 41.957C200.426 41.6406 200.625 41.3359 200.777 41.043C200.93 40.7383 201.006 40.4277 201.006 40.1113C201.006 39.8418 200.906 39.6191 200.707 39.4434C200.508 39.2676 200.197 39.1387 199.775 39.0566V38.1953H205.523V39.0566C205.078 39.1855 204.621 39.4375 204.152 39.8125C203.695 40.1875 203.133 40.791 202.465 41.623L198.826 46.0879L202.834 51.4844C203.408 52.2578 203.924 52.8496 204.381 53.2598C204.838 53.6699 205.295 53.9629 205.752 54.1387V55H198.686V54.1387C199.658 54.0215 200.145 53.6582 200.145 53.0488C200.145 52.8027 200.104 52.5684 200.021 52.3457C199.939 52.123 199.787 51.8652 199.564 51.5723L197.016 48.0215L194.309 51.5371C194.109 51.7949 193.951 52.0352 193.834 52.2578C193.729 52.4688 193.676 52.709 193.676 52.9785C193.676 53.2949 193.781 53.5586 193.992 53.7695C194.215 53.9688 194.561 54.0918 195.029 54.1387V55H189.158V54.1387C189.545 53.998 189.891 53.8223 190.195 53.6113C190.512 53.4004 190.828 53.1309 191.145 52.8027C191.473 52.4629 191.9 51.9707 192.428 51.3262L196.084 46.791L192.34 41.6582C191.824 40.9551 191.414 40.4453 191.109 40.1289C190.805 39.8125 190.523 39.5723 190.266 39.4082C190.008 39.2441 189.75 39.127 189.492 39.0566V38.1953H196.383V39.0566C195.457 39.1973 194.994 39.5605 194.994 40.1465C194.994 40.416 195.053 40.6855 195.17 40.9551C195.299 41.2246 195.492 41.5234 195.75 41.8516L197.895 44.8574ZM216.721 42.2383V39.9004H238.377V42.2383H216.721ZM216.721 49.5332V47.1953H238.377V49.5332H216.721ZM249.592 39.0742C250.178 38.9805 250.652 38.8164 251.016 38.582C251.379 38.3477 251.66 38.0488 251.859 37.6855C252.07 37.3105 252.234 36.8477 252.352 36.2969C252.469 35.7344 252.592 34.9199 252.721 33.8535H255.217V38.1953H260.895V39.9707H255.217V47.793C255.217 48.9297 255.264 49.8379 255.357 50.5176C255.451 51.1855 255.627 51.7129 255.885 52.0996C256.143 52.4746 256.436 52.7441 256.764 52.9082C257.092 53.0723 257.514 53.1543 258.029 53.1543C258.498 53.1543 258.938 53.0605 259.348 52.873C259.758 52.6738 260.162 52.3926 260.561 52.0293L261.352 52.9785C260.52 53.7871 259.729 54.373 258.979 54.7363C258.24 55.0996 257.473 55.2812 256.676 55.2812C255.164 55.2812 254.039 54.8359 253.301 53.9453C252.562 53.043 252.193 51.6367 252.193 49.7266V39.9707H249.592V39.0742ZM273.006 52.4863L272.742 52.416C271.723 53.459 270.762 54.1973 269.859 54.6309C268.969 55.0645 268.02 55.2812 267.012 55.2812C266.121 55.2812 265.336 55.1113 264.656 54.7715C263.977 54.4199 263.455 53.9336 263.092 53.3125C262.729 52.6797 262.547 51.9531 262.547 51.1328C262.547 49.4219 263.391 48.1035 265.078 47.1777C266.777 46.2402 269.32 45.6953 272.707 45.543V44.4004C272.707 43.1816 272.59 42.2207 272.355 41.5176C272.121 40.8145 271.752 40.2988 271.248 39.9707C270.744 39.6426 270.07 39.4785 269.227 39.4785C268.312 39.4785 267.574 39.7188 267.012 40.1992C266.461 40.6797 266.045 41.4004 265.764 42.3613H263.461V40.0762C264.586 39.4902 265.523 39.0625 266.273 38.793C267.023 38.5117 267.773 38.2949 268.523 38.1426C269.273 37.9785 270.035 37.8965 270.809 37.8965C271.969 37.8965 272.9 38.084 273.604 38.459C274.307 38.8223 274.834 39.3848 275.186 40.1465C275.537 40.9082 275.713 42.0566 275.713 43.5918V49.709C275.713 50.5762 275.719 51.1914 275.73 51.5547C275.742 51.9062 275.777 52.2344 275.836 52.5391C275.895 52.8438 275.982 53.0898 276.1 53.2773C276.217 53.4531 276.387 53.6055 276.609 53.7344C276.844 53.8633 277.219 53.998 277.734 54.1387V55H272.918L273.006 52.4863ZM272.707 46.9844C270.328 47.0078 268.547 47.3242 267.363 47.9336C266.18 48.543 265.588 49.4629 265.588 50.6934C265.588 51.3613 265.723 51.8887 265.992 52.2754C266.262 52.6621 266.602 52.9316 267.012 53.084C267.422 53.2246 267.908 53.2949 268.471 53.2949C269.268 53.2949 269.988 53.1016 270.633 52.7148C271.289 52.3281 271.799 51.8359 272.162 51.2383C272.525 50.6406 272.707 50.0488 272.707 49.4629V46.9844ZM297.545 55H290.619V54.1387C291.076 53.998 291.404 53.875 291.604 53.7695C291.803 53.6641 291.967 53.5176 292.096 53.3301C292.236 53.1426 292.342 52.8555 292.412 52.4688C292.494 52.0703 292.535 51.4727 292.535 50.6758V46.0703C292.535 45.25 292.512 44.5059 292.465 43.8379C292.418 43.1699 292.336 42.625 292.219 42.2031C292.113 41.7695 291.979 41.4355 291.814 41.2012C291.662 40.9551 291.475 40.75 291.252 40.5859C291.041 40.4102 290.795 40.2754 290.514 40.1816C290.232 40.0762 289.863 40.0234 289.406 40.0234C288.949 40.0234 288.516 40.1172 288.105 40.3047C287.695 40.4805 287.244 40.791 286.752 41.2363C286.26 41.6816 285.902 42.1211 285.68 42.5547C285.457 42.9883 285.346 43.4863 285.346 44.0488V50.6055C285.346 51.6133 285.393 52.3164 285.486 52.7148C285.58 53.1016 285.756 53.4004 286.014 53.6113C286.283 53.8105 286.717 53.9863 287.314 54.1387V55H280.424V54.1387C280.881 53.998 281.203 53.875 281.391 53.7695C281.59 53.6641 281.754 53.5176 281.883 53.3301C282.023 53.1426 282.129 52.8555 282.199 52.4688C282.281 52.082 282.322 51.4785 282.322 50.6582V42.9941C282.322 42.2441 282.311 41.6406 282.287 41.1836C282.264 40.7266 282.182 40.3633 282.041 40.0938C281.9 39.8125 281.684 39.6074 281.391 39.4785C281.109 39.3379 280.705 39.2207 280.178 39.127V38.1953L284.291 38.0371H285.363L285.17 40.9023L285.416 40.9727C286.283 40.0938 286.98 39.4668 287.508 39.0918C288.047 38.7168 288.586 38.4297 289.125 38.2305C289.676 38.0195 290.256 37.9141 290.865 37.9141C291.498 37.9141 292.061 37.9902 292.553 38.1426C293.057 38.2832 293.496 38.5059 293.871 38.8105C294.258 39.1152 294.574 39.4961 294.82 39.9531C295.066 40.3984 295.248 40.9375 295.365 41.5703C295.494 42.2031 295.559 43.0059 295.559 43.9785V50.6055C295.559 51.4141 295.582 52 295.629 52.3633C295.676 52.7266 295.758 53.0078 295.875 53.207C295.992 53.4062 296.162 53.5762 296.385 53.7168C296.607 53.8457 296.994 53.9863 297.545 54.1387V55ZM338.871 45.877V56.002H336.375V45.877H326.795V43.5391H336.375V33.4141H338.871V43.5391H348.451V45.877H338.871ZM377.332 31.5156V36.3848H375.592C375.311 35.3652 374.953 34.5566 374.52 33.959C374.086 33.3496 373.582 32.916 373.008 32.6582C372.434 32.4004 371.742 32.2715 370.934 32.2715C369.727 32.2715 368.648 32.6758 367.699 33.4844C366.762 34.2812 366.023 35.4883 365.484 37.1055C364.945 38.7109 364.676 40.6562 364.676 42.9414C364.676 45.2383 364.898 47.2012 365.344 48.8301C365.789 50.4473 366.445 51.6719 367.312 52.5039C368.18 53.3242 369.246 53.7344 370.512 53.7344C371.473 53.7344 372.258 53.5996 372.867 53.3301C373.477 53.0488 373.986 52.6094 374.396 52.0117C374.818 51.4141 375.217 50.5352 375.592 49.375H377.332V54.4023C376.23 54.6953 375.1 54.9121 373.939 55.0527C372.791 55.2051 371.525 55.2812 370.143 55.2812C367.166 55.2812 364.916 54.2734 363.393 52.2578C361.869 50.2422 361.107 47.2363 361.107 43.2402C361.107 40.7324 361.5 38.5352 362.285 36.6484C363.082 34.7617 364.248 33.3027 365.783 32.2715C367.318 31.2402 369.152 30.7246 371.285 30.7246C372.352 30.7246 373.336 30.7832 374.238 30.9004C375.141 31.0059 376.172 31.2109 377.332 31.5156Z" fill="white"/>
<path d="M145.582 44.8574L147.867 41.957C148.113 41.6406 148.312 41.3359 148.465 41.043C148.617 40.7383 148.693 40.4277 148.693 40.1113C148.693 39.8418 148.594 39.6191 148.395 39.4434C148.195 39.2676 147.885 39.1387 147.463 39.0566V38.1953H153.211V39.0566C152.766 39.1855 152.309 39.4375 151.84 39.8125C151.383 40.1875 150.82 40.791 150.152 41.623L146.514 46.0879L150.521 51.4844C151.096 52.2578 151.611 52.8496 152.068 53.2598C152.525 53.6699 152.982 53.9629 153.439 54.1387V55H146.373V54.1387C147.346 54.0215 147.832 53.6582 147.832 53.0488C147.832 52.8027 147.791 52.5684 147.709 52.3457C147.627 52.123 147.475 51.8652 147.252 51.5723L144.703 48.0215L141.996 51.5371C141.797 51.7949 141.639 52.0352 141.521 52.2578C141.416 52.4688 141.363 52.709 141.363 52.9785C141.363 53.2949 141.469 53.5586 141.68 53.7695C141.902 53.9688 142.248 54.0918 142.717 54.1387V55H136.846V54.1387C137.232 53.998 137.578 53.8223 137.883 53.6113C138.199 53.4004 138.516 53.1309 138.832 52.8027C139.16 52.4629 139.588 51.9707 140.115 51.3262L143.771 46.791L140.027 41.6582C139.512 40.9551 139.102 40.4453 138.797 40.1289C138.492 39.8125 138.211 39.5723 137.953 39.4082C137.695 39.2441 137.438 39.127 137.18 39.0566V38.1953H144.07V39.0566C143.145 39.1973 142.682 39.5605 142.682 40.1465C142.682 40.416 142.74 40.6855 142.857 40.9551C142.986 41.2246 143.18 41.5234 143.438 41.8516L145.582 44.8574ZM307.969 44.8574L310.254 41.957C310.5 41.6406 310.699 41.3359 310.852 41.043C311.004 40.7383 311.08 40.4277 311.08 40.1113C311.08 39.8418 310.98 39.6191 310.781 39.4434C310.582 39.2676 310.271 39.1387 309.85 39.0566V38.1953H315.598V39.0566C315.152 39.1855 314.695 39.4375 314.227 39.8125C313.77 40.1875 313.207 40.791 312.539 41.623L308.9 46.0879L312.908 51.4844C313.482 52.2578 313.998 52.8496 314.455 53.2598C314.912 53.6699 315.369 53.9629 315.826 54.1387V55H308.76V54.1387C309.732 54.0215 310.219 53.6582 310.219 53.0488C310.219 52.8027 310.178 52.5684 310.096 52.3457C310.014 52.123 309.861 51.8652 309.639 51.5723L307.09 48.0215L304.383 51.5371C304.184 51.7949 304.025 52.0352 303.908 52.2578C303.803 52.4688 303.75 52.709 303.75 52.9785C303.75 53.2949 303.855 53.5586 304.066 53.7695C304.289 53.9688 304.635 54.0918 305.104 54.1387V55H299.232V54.1387C299.619 53.998 299.965 53.8223 300.27 53.6113C300.586 53.4004 300.902 53.1309 301.219 52.8027C301.547 52.4629 301.975 51.9707 302.502 51.3262L306.158 46.791L302.414 41.6582C301.898 40.9551 301.488 40.4453 301.184 40.1289C300.879 39.8125 300.598 39.5723 300.34 39.4082C300.082 39.2441 299.824 39.127 299.566 39.0566V38.1953H306.457V39.0566C305.531 39.1973 305.068 39.5605 305.068 40.1465C305.068 40.416 305.127 40.6855 305.244 40.9551C305.373 41.2246 305.566 41.5234 305.824 41.8516L307.969 44.8574Z" fill="#89B8FF"/>
<path d="M8.03223 4.12695H4.83301V13H3.52734V4.12695H0.334961V3.04688H8.03223V4.12695ZM13.0977 13C13.0247 12.8542 12.9655 12.5944 12.9199 12.2207C12.332 12.8314 11.6302 13.1367 10.8145 13.1367C10.0853 13.1367 9.486 12.9316 9.0166 12.5215C8.55176 12.1068 8.31934 11.5827 8.31934 10.9492C8.31934 10.179 8.611 9.58203 9.19434 9.1582C9.78223 8.72982 10.6071 8.51562 11.6689 8.51562H12.8994V7.93457C12.8994 7.49251 12.7673 7.1416 12.5029 6.88184C12.2386 6.61751 11.849 6.48535 11.334 6.48535C10.8828 6.48535 10.5046 6.59928 10.1992 6.82715C9.89388 7.05501 9.74121 7.33073 9.74121 7.6543H8.46973C8.46973 7.28516 8.59961 6.92969 8.85938 6.58789C9.1237 6.24154 9.47917 5.9681 9.92578 5.76758C10.377 5.56706 10.8714 5.4668 11.4092 5.4668C12.2614 5.4668 12.929 5.68099 13.4121 6.10938C13.8952 6.5332 14.1458 7.11882 14.1641 7.86621V11.2705C14.1641 11.9495 14.2507 12.4896 14.4238 12.8906V13H13.0977ZM10.999 12.0361C11.3955 12.0361 11.7715 11.9336 12.127 11.7285C12.4824 11.5234 12.7399 11.2568 12.8994 10.9287V9.41113H11.9082C10.3587 9.41113 9.58398 9.86458 9.58398 10.7715C9.58398 11.168 9.71615 11.4779 9.98047 11.7012C10.2448 11.9245 10.5843 12.0361 10.999 12.0361ZM17.3428 5.60352L17.3838 6.5332C17.9489 5.82227 18.6872 5.4668 19.5986 5.4668C21.1618 5.4668 21.9502 6.34863 21.9639 8.1123V13H20.6992V8.10547C20.6947 7.57227 20.5716 7.17806 20.3301 6.92285C20.0931 6.66764 19.7217 6.54004 19.2158 6.54004C18.8057 6.54004 18.4456 6.64941 18.1357 6.86816C17.8258 7.08691 17.5843 7.37402 17.4111 7.72949V13H16.1465V5.60352H17.3428ZM23.5703 9.24023C23.5703 8.08724 23.8369 7.17122 24.3701 6.49219C24.9033 5.80859 25.6097 5.4668 26.4893 5.4668C27.3916 5.4668 28.0957 5.78581 28.6016 6.42383L28.6631 5.60352H29.8184V12.8223C29.8184 13.7793 29.5335 14.5335 28.9639 15.085C28.3988 15.6364 27.6377 15.9121 26.6807 15.9121C26.1475 15.9121 25.6257 15.7982 25.1152 15.5703C24.6048 15.3424 24.2152 15.0303 23.9463 14.6338L24.6025 13.875C25.1449 14.5449 25.8079 14.8799 26.5918 14.8799C27.207 14.8799 27.6855 14.7067 28.0273 14.3604C28.3737 14.014 28.5469 13.5264 28.5469 12.8975V12.2617C28.041 12.8451 27.3506 13.1367 26.4756 13.1367C25.6097 13.1367 24.9079 12.7881 24.3701 12.0908C23.8369 11.3936 23.5703 10.4434 23.5703 9.24023ZM24.8418 9.38379C24.8418 10.2178 25.0127 10.874 25.3545 11.3525C25.6963 11.8265 26.1748 12.0635 26.79 12.0635C27.5876 12.0635 28.1732 11.7012 28.5469 10.9766V7.59961C28.1595 6.89323 27.5785 6.54004 26.8037 6.54004C26.1885 6.54004 25.7077 6.7793 25.3613 7.25781C25.015 7.73633 24.8418 8.44499 24.8418 9.38379ZM34.8018 13.1367C33.7992 13.1367 32.9834 12.8086 32.3545 12.1523C31.7256 11.4915 31.4111 10.6097 31.4111 9.50684V9.27441C31.4111 8.54069 31.5501 7.88672 31.8281 7.3125C32.1107 6.73372 32.5026 6.28255 33.0039 5.95898C33.5098 5.63086 34.0566 5.4668 34.6445 5.4668C35.6061 5.4668 36.3535 5.78353 36.8867 6.41699C37.4199 7.05046 37.6865 7.95736 37.6865 9.1377V9.66406H32.6758C32.694 10.3932 32.9059 10.9834 33.3115 11.4346C33.7217 11.8812 34.2412 12.1045 34.8701 12.1045C35.3167 12.1045 35.695 12.0133 36.0049 11.8311C36.3148 11.6488 36.5859 11.4072 36.8184 11.1064L37.5908 11.708C36.971 12.6605 36.0413 13.1367 34.8018 13.1367ZM34.6445 6.50586C34.1341 6.50586 33.7057 6.69271 33.3594 7.06641C33.013 7.43555 32.7988 7.95508 32.7168 8.625H36.4219V8.5293C36.3854 7.88672 36.2122 7.38997 35.9023 7.03906C35.5924 6.68359 35.1732 6.50586 34.6445 6.50586ZM40.3525 5.60352L40.3936 6.5332C40.9587 5.82227 41.6969 5.4668 42.6084 5.4668C44.1715 5.4668 44.96 6.34863 44.9736 8.1123V13H43.709V8.10547C43.7044 7.57227 43.5814 7.17806 43.3398 6.92285C43.1029 6.66764 42.7314 6.54004 42.2256 6.54004C41.8154 6.54004 41.4554 6.64941 41.1455 6.86816C40.8356 7.08691 40.5941 7.37402 40.4209 7.72949V13H39.1562V5.60352H40.3525ZM48.5967 3.8125V5.60352H49.9775V6.58105H48.5967V11.168C48.5967 11.4642 48.6582 11.6875 48.7812 11.8379C48.9043 11.9837 49.1139 12.0566 49.4102 12.0566C49.556 12.0566 49.7565 12.0293 50.0117 11.9746V13C49.679 13.0911 49.3555 13.1367 49.041 13.1367C48.4759 13.1367 48.0498 12.9658 47.7627 12.624C47.4756 12.2822 47.332 11.7969 47.332 11.168V6.58105H45.9854V5.60352H47.332V3.8125H48.5967ZM54.5303 13.1367C53.5277 13.1367 52.7119 12.8086 52.083 12.1523C51.4541 11.4915 51.1396 10.6097 51.1396 9.50684V9.27441C51.1396 8.54069 51.2786 7.88672 51.5566 7.3125C51.8392 6.73372 52.2311 6.28255 52.7324 5.95898C53.2383 5.63086 53.7852 5.4668 54.373 5.4668C55.3346 5.4668 56.082 5.78353 56.6152 6.41699C57.1484 7.05046 57.415 7.95736 57.415 9.1377V9.66406H52.4043C52.4225 10.3932 52.6344 10.9834 53.04 11.4346C53.4502 11.8812 53.9697 12.1045 54.5986 12.1045C55.0452 12.1045 55.4235 12.0133 55.7334 11.8311C56.0433 11.6488 56.3145 11.4072 56.5469 11.1064L57.3193 11.708C56.6995 12.6605 55.7699 13.1367 54.5303 13.1367ZM54.373 6.50586C53.8626 6.50586 53.4342 6.69271 53.0879 7.06641C52.7415 7.43555 52.5273 7.95508 52.4453 8.625H56.1504V8.5293C56.1139 7.88672 55.9408 7.38997 55.6309 7.03906C55.321 6.68359 54.9017 6.50586 54.373 6.50586Z" fill="#41D17A"/>
</svg>
